MeshVersionFormatted 1

Dimension
3

Vertices
629
12.839699999999999  0  -63.5  0
-12.839699999999999  0  -63.5  0
-12.839699999999999  0  -1.5239999999999998  0
12.839699999999999  0  -1.5239999999999998  0
14.36369813267074  0  -1.1440251523886039e-12  0
-14.36369813267074  0  -1.1440251523886039e-12  0
-10.81521391759342  18.732500000000002  0  0
-21.63042783518938  0  0  0
-10.81521391759342  -18.732500000000002  0  0
10.81521391759342  -18.732500000000002  0  0
21.63042783518938  0  0  0
10.81521391759342  18.732500000000002  0  0
-21.63042783518938  0  13.49777080129798  0
-16.22423341919496  9.3638029779293586  16.395699999999998  0
-10.81521391759342  18.732500000000002  13.497771235528759  0
-16.224233419192419  -9.3638029779319005  16.395699999999998  0
-10.81521391759342  -18.732500000000002  13.497770731968679  0
0  -18.732500000000002  16.395699999999998  0
10.81521391759342  -18.732500000000002  13.497771237410898  0
16.2242334191975  -9.3638029779217398  16.395699999999998  0
0  18.732500000000002  16.395699999999998  0
10.81521391759342  18.732500000000002  13.49777072714776  0
16.22423341919496  9.3638029779268201  16.395699999999998  0
21.63042783518938  0  13.497770765506839  0
12.644636106350847  -2.2295905067900854  -63.5  0
12.065371343104825  -4.3914360342585885  -63.5  0
11.119506376971055  -6.4198499999999994  -63.5  0
9.8357808363147416  -8.2532000720922589  -63.5  0
8.2532000720922571  -9.8357808363147416  -63.5  0
6.4198499999999976  -11.119506376971056  -63.5  0
4.3914360342585868  -12.065371343104827  -63.5  0
2.2295905067900836  -12.644636106350848  -63.5  0
-2.0647812385053111e-15  -12.839699999999999  -63.5  0
-2.2295905067900876  -12.644636106350847  -63.5  0
-4.3914360342585912  -12.065371343104825  -63.5  0
-6.4198500000000021  -11.119506376971055  -63.5  0
-8.2532000720922589  -9.8357808363147416  -63.5  0
-9.8357808363147416  -8.2532000720922554  -63.5  0
-11.11950637697106  -6.4198499999999941  -63.5  0
-12.065371343104827  -4.391436034258585  -63.5  0
-12.644636106350847  -2.2295905067900845  -63.5  0
-12.644636106350847  2.2295905067900854  -63.5  0
-12.065371343104825  4.3914360342585885  -63.5  0
-11.119506376971055  6.4198499999999994  -63.5  0
-9.8357808363147416  8.2532000720922589  -63.5  0
-8.2532000720922571  9.8357808363147416  -63.5  0
-6.4198499999999976  11.119506376971056  -63.5  0
-4.3914360342585868  12.065371343104827  -63.5  0
-2.2295905067900836  12.644636106350848  -63.5  0
2.0647812385053111e-15  12.839699999999999  -63.5  0
2.2295905067900876  12.644636106350847  -63.5  0
4.3914360342585912  12.065371343104825  -63.5  0
6.4198500000000021  11.119506376971055  -63.5  0
8.2532000720922589  9.8357808363147416  -63.5  0
9.8357808363147416  8.2532000720922554  -63.5  0
11.11950637697106  6.4198499999999941  -63.5  0
12.065371343104827  4.391436034258585  -63.5  0
12.644636106350847  2.2295905067900845  -63.5  0
-12.839699999999999  -9.3200137530983291e-12  -17.018000000000001  0
-12.839699999999999  -6.213866621339282e-12  -32.512  0
-12.839699999999999  -3.1077194895802337e-12  -48.006  0
12.839699999999999  9.3199255609447455e-12  -17.018000000000001  0
12.839699999999999  6.2136331201460903e-12  -32.512  0
12.839699999999999  3.1073406793474359e-12  -48.006  0
12.644636106350847  -2.2295905067900854  -1.5239999999999998  0
12.065371343104825  -4.3914360342585885  -1.5239999999999998  0
11.119506376971055  -6.4198499999999994  -1.5239999999999998  0
9.8357808363147416  -8.2532000720922589  -1.5239999999999998  0
8.2532000720922571  -9.8357808363147416  -1.5239999999999998  0
6.4198499999999976  -11.119506376971056  -1.5239999999999998  0
4.3914360342585868  -12.065371343104827  -1.5239999999999998  0
2.2295905067900836  -12.644636106350848  -1.5239999999999998  0
-2.0647812385053111e-15  -12.839699999999999  -1.5239999999999998  0
-2.2295905067900876  -12.644636106350847  -1.5239999999999998  0
-4.3914360342585912  -12.065371343104825  -1.5239999999999998  0
-6.4198500000000021  -11.119506376971055  -1.5239999999999998  0
-8.2532000720922589  -9.8357808363147416  -1.5239999999999998  0
-9.8357808363147416  -8.2532000720922554  -1.5239999999999998  0
-11.11950637697106  -6.4198499999999941  -1.5239999999999998  0
-12.065371343104827  -4.391436034258585  -1.5239999999999998  0
-12.644636106350847  -2.2295905067900845  -1.5239999999999998  0
14.14548128298112  -2.4942300052961643  -1.1440251523886039e-12  0
13.497461142467024  -4.9126740940226874  -1.1440251523886039e-12  0
12.439327475183964  -7.1818490663353698  -1.1440251523886039e-12  0
11.003231137170861  -9.232807188958434  -1.1440251523886039e-12  0
9.2328071889584322  -11.003231137170863  -1.1440251523886039e-12  0
7.181849066335368  -12.439327475183966  -1.1440251523886039e-12  0
4.9126740940226847  -13.497461142467026  -1.1440251523886039e-12  0
2.4942300052961626  -14.145481282981121  -1.1440251523886039e-12  0
-2.3098588300265829e-15  -14.36369813267074  -1.1440251523886039e-12  0
-2.494230005296167  -14.14548128298112  -1.1440251523886039e-12  0
-4.9126740940226892  -13.497461142467024  -1.1440251523886039e-12  0
-7.1818490663353733  -12.439327475183964  -1.1440251523886039e-12  0
-9.232807188958434  -11.003231137170861  -1.1440251523886039e-12  0
-11.003231137170863  -9.2328071889584304  -1.1440251523886039e-12  0
-12.439327475183969  -7.1818490663353636  -1.1440251523886039e-12  0
-13.497461142467026  -4.912674094022683  -1.1440251523886039e-12  0
-14.14548128298112  -2.494230005296163  -1.1440251523886039e-12  0
14.099058542604348  1.3776906895621687e-12  -0.02315327263990552  0
13.842459936793174  1.3526170955508109e-12  -0.091908942661764748  0
13.601698921897203  1.3290910755158212e-12  -0.20417790707604233  0
13.384090888139495  1.3078274545588713e-12  -0.35654893551812084  0
13.196247735221911  1.2894723160374452e-12  -0.54439231859661608  0
13.043876973411082  1.2745833706795055e-12  -0.76200053905158882  0
12.931608303996946  1.2636130108516082e-12  -1.0027616915084834  0
12.862852948380706  1.2568945648671558e-12  -1.259360381564526  0
-14.099058542604348  -1.3791612519710085e-12  -0.023153272639905742  0
-13.842459936793174  -1.3540609503021262e-12  -0.091908942661764748  0
-13.601698921897203  -1.3305098710400579e-12  -0.20417790707604233  0
-13.384090888139495  -1.3092236006972244e-12  -0.35654893551812106  0
-13.196247735221911  -1.2908489108201679e-12  -0.54439231859661597  0
-13.043876973411082  -1.2759441061939741e-12  -0.76200053905158882  0
-12.931608303996946  -1.2649620610602896e-12  -1.0027616915084834  0
-12.862852948380706  -1.2582364587840681e-12  -1.259360381564526  0
-12.978256701112489  14.985999999999931  0  0
-15.14129948463156  11.239499999999861  0  0
-17.304342268150627  7.4929999999997907  0  0
-19.467385051669698  3.7464999999997199  0  0
-19.467385051670309  -3.7465000000000703  0  0
-17.304342268151242  -7.4930000000001407  0  0
-15.141299484632171  -11.239500000000211  0  0
-12.978256701113102  -14.986000000000281  0  0
-5.4076069587967099  -18.732500000000002  0  0
0  -18.732500000000002  0  0
5.4076069587967108  -18.732500000000002  0  0
13.519017396992258  -14.049374999999914  0  0
16.222820876391093  -9.366249999999825  0  0
18.926624355789933  -4.6831249999997366  0  0
18.926624355790544  4.6831250000000884  0  0
16.222820876391705  9.3662500000001767  0  0
13.519017396992869  14.049375000000264  0  0
6.4891283505560517  18.732500000000002  0  0
2.1630427835186836  18.732500000000002  0  0
-2.1630427835186854  18.732500000000002  0  0
-6.4891283505560526  18.732500000000002  0  0
-14.14548128298112  2.4942300052961643  -1.1440251523886039e-12  0
-13.497461142467024  4.9126740940226874  -1.1440251523886039e-12  0
-12.439327475183964  7.1818490663353698  -1.1440251523886039e-12  0
-11.003231137170861  9.232807188958434  -1.1440251523886039e-12  0
-9.2328071889584322  11.003231137170863  -1.1440251523886039e-12  0
-7.181849066335368  12.439327475183966  -1.1440251523886039e-12  0
-4.9126740940226847  13.497461142467026  -1.1440251523886039e-12  0
-2.4942300052961626  14.145481282981121  -1.1440251523886039e-12  0
2.3098588300265829e-15  14.36369813267074  -1.1440251523886039e-12  0
2.494230005296167  14.14548128298112  -1.1440251523886039e-12  0
4.9126740940226892  13.497461142467024  -1.1440251523886039e-12  0
7.1818490663353733  12.439327475183964  -1.1440251523886039e-12  0
9.232807188958434  11.003231137170861  -1.1440251523886039e-12  0
11.003231137170863  9.2328071889584304  -1.1440251523886039e-12  0
12.439327475183969  7.1818490663353636  -1.1440251523886039e-12  0
13.497461142467026  4.912674094022683  -1.1440251523886039e-12  0
14.14548128298112  2.494230005296163  -1.1440251523886039e-12  0
-21.369695435951915  0.45160176265866758  14.688711465276677  0
-20.827742419128803  1.3902919231127657  15.450023771770303  0
-20.202080239379974  2.4739706068117204  15.900248172108949  0
-19.549216911170195  3.6047630616687587  16.15934916266924  0
-18.887058772816243  4.7516545999430102  16.298791108878717  0
-18.221969033112455  5.9036238207027694  16.364818556111317  0
-17.556139466771928  7.0568744587857548  16.389539135368171  0
-16.890190532278961  8.2103318485744623  16.395310926099832  0
-21.63042783518938  0  6.74888540064899  0
-10.815213917593322  18.732500000000119  4.4992570785095864  0
-10.815213917593226  18.732500000000233  8.9985141570191729  0
-15.557334600087641  10.518906042298442  16.395318792151308  0
-14.891149866530457  11.672771848047889  16.389571030116826  0
-14.225084136986315  12.82643153279778  16.364903200668277  0
-13.559755693472367  13.978814200683109  16.29897355318656  0
-12.897355684909661  15.126124670449228  16.159619718146189  0
-12.244241241849375  16.257352068987309  15.900619765356032  0
-11.618300235698731  17.341513694180112  15.450510526577009  0
-11.076016220213889  18.280777161132097  14.689234504520785  0
-17.040641552920583  7.7796588430905214  16.395699999999998  0
-17.702815828661507  6.1251014674445781  16.395699999999998  0
-18.204762945467856  4.41510615379977  16.395699999999998  0
-18.541939809108765  2.665149970524689  16.395699999999998  0
-18.71129465135467  0.89107166950038641  16.395699999999998  0
-18.7112946513545  -0.89107166950392036  16.395699999999998  0
-18.541939809108261  -2.6651499705281863  16.395699999999998  0
-18.204762945467024  -4.4151061538032055  16.395699999999998  0
-17.702815828660349  -6.1251014674479185  16.395699999999998  0
-17.040641552919116  -7.7796588430937375  16.395699999999998  0
-16.890190811956124  -8.2103313641588898  16.395314550195128  0
-17.556140052445514  -7.0568734443681675  16.389541214125789  0
-18.221969803113602  -5.90362248702007  16.364816952090226  0
-18.887060431355913  -4.7516517272674941  16.298803652898812  0
-19.549218744228465  -3.6047598867181607  16.15935448021451  0
-20.202083099858587  -2.4739656523161497  15.900254004493489  0
-20.827760538885759  -1.3902605387705615  15.450080628181301  0
-21.369784529586489  -0.45144744795727249  14.688882506597205  0
-11.07609223908138  -18.280645492591788  14.689083801549781  0
-11.618322474399969  -17.341475175620772  15.450431795124375  0
-12.244245554283443  -16.257344599631157  15.900599582143329  0
-12.897357067348818  -15.126122275993648  16.159617732737768  0
-13.559756818504466  -13.978812252071176  16.298970769980095  0
-14.225084946600491  -12.826430130504951  16.364898029469298  0
-14.89115036230676  -11.672770989337319  16.389569704636248  0
-15.557334846197318  -10.518905616025268  16.395315121790961  0
-10.81521391759342  -18.732500000000048  4.4992569106562259  0
-10.81521391759342  -18.732500000000091  8.9985138213124518  0
-1.3322283219573845  -18.732500000000002  16.395314839113702  0
-2.6644407409921298  -18.732500000000002  16.389561232342871  0
-3.9964147877825229  -18.732500000000002  16.364875198658012  0
-5.3269134002820184  -18.732500000000002  16.298915773564367  0
-6.6515540915361813  -18.732500000000002  16.159539706189651  0
-7.9576109878394465  -18.732500000000002  15.900480471909001  0
-9.2092995577592394  -18.732500000000002  15.450324927621166  0
-10.293709009855938  -18.732500000000002  14.689106926401152  0
-1.780893027465283  -18.647653371797901  16.395699999999998  0
-3.5456533691097669  -18.393882092590477  16.395699999999998  0
-5.278294481271546  -17.973485015961106  16.395699999999998  0
-6.9631207807394881  -17.390270418910511  16.395699999999998  0
-8.5848698273036828  -16.649521503582346  16.395699999999998  0
-10.128850582566589  -15.757948537993151  16.395699999999998  0
-11.581076492561255  -14.723628069312438  16.395699999999998  0
-12.928392188612836  -13.555929760345274  16.395699999999998  0
-14.158592658690498  -12.265431511988298  16.395699999999998  0
-15.260533809704834  -10.863823640544602  16.395699999999998  0
10.293621837310102  -18.732500000000002  14.689027218793958  0
9.2092993588906253  -18.732500000000002  15.450332595042571  0
7.957606742157747  -18.732500000000002  15.900473650349397  0
6.6515513500172707  -18.732500000000002  16.15953657678207  0
5.3269119445001252  -18.732500000000002  16.298918324330391  0
3.9964135396393434  -18.732500000000002  16.364877131884153  0
2.6644398685640813  -18.732500000000002  16.389562188462289  0
1.3322278810749812  -18.732500000000002  16.395315889305078  0
15.557334600192553  -10.518906042116273  16.39531879215172  0
14.891149866737642  -11.672771847686048  16.389571030120749  0
14.22508413729715  -12.826431532257338  16.364903200686218  0
13.559755693886759  -13.978814199965983  16.29897355324702  0
12.897355685423195  -15.126124669560268  16.159619718294131  0
12.244241242451007  -16.257352067945572  15.900619765672666  0
11.618300236351516  -17.341513693049563  15.450510527209422  0
11.076016220774845  -18.280777160161751  14.689234505742476  0
15.260533809710253  -10.863823640536992  16.395699999999998  0
14.158592658696008  -12.265431511981946  16.395699999999998  0
12.928392188618247  -13.555929760340119  16.395699999999998  0
11.581076492566398  -14.723628069308397  16.395699999999998  0
10.128850582571305  -15.757948537990123  16.395699999999998  0
8.5848698273078359  -16.649521503580203  16.395699999999998  0
6.9631207807429583  -17.390270418909125  16.395699999999998  0
5.2782944812742372  -17.973485015960318  16.395699999999998  0
3.5456533691116046  -18.393882092590125  16.395699999999998  0
1.7808930274662169  -18.647653371797812  16.395699999999998  0
-10.293621834423584  18.732500000000002  14.689027213456823  0
-9.2092993567343449  18.732500000000002  15.450332587404093  0
-7.9576067427945549  18.732500000000002  15.900473648065347  0
-6.6515513514042581  18.732500000000002  16.159536578930354  0
-5.3269119451391553  18.732500000000002  16.298918323168095  0
-3.996413540388374  18.732499999999998  16.364877131216904  0
-2.6644398689372597  18.732500000000002  16.389562193199264  0
-1.3322278812815245  18.732500000000002  16.395315890302946  0
-15.260533809706697  10.863823640541984  16.395699999999998  0
-14.158592658692392  12.265431511986112  16.395699999999998  0
-12.928392188614698  13.555929760343501  16.395699999999998  0
-11.581076492563026  14.723628069311049  16.395699999999998  0
-10.128850582568214  15.757948537992108  16.395699999999998  0
-8.5848698273051127  16.649521503581607  16.395699999999998  0
-6.9631207807406845  17.390270418910035  16.395699999999998  0
-5.2782944812724741  17.973485015960833  16.395699999999998  0
-3.5456533691104029  18.393882092590356  16.395699999999998  0
-1.7808930274656085  18.647653371797869  16.395699999999998  0
11.076092235315551  18.280645499112733  14.689083802943712  0
11.618322472385451  17.341475179109938  15.450431794464969  0
12.244245552795105  16.257344602209223  15.900599580844053  0
12.897357066039124  15.12612227826331  16.15961773218611  0
13.559756817244182  13.978812254254468  16.298970775267204  0
14.225084945991888  12.826430131558132  16.364898020507578  0
14.891150361732231  11.672770990331319  16.38956970774775  0
15.557334845936557  10.518905616476278  16.395315119918262  0
1.3322283224973628  18.732500000000002  16.39531483807523  0
2.6644407421222969  18.732500000000002  16.389561229239821  0
3.9964147892183783  18.732500000000002  16.364875197316117  0
5.3269134026060767  18.732500000000002  16.298915774251292  0
6.6515540937175031  18.732500000000002  16.159539702722441  0
7.9576109914307827  18.732500000000002  15.900480472676234  0
9.2092995637384902  18.732500000000002  15.450324931169369  0
10.293709015358935  18.732500000000002  14.689106926321768  0
1.7808930274657959  18.647653371797851  16.395699999999998  0
3.545653369110779  18.393882092590282  16.395699999999998  0
5.2782944812730284  17.973485015960669  16.395699999999998  0
6.9631207807414013  17.390270418909743  16.395699999999998  0
8.5848698273059725  16.649521503581163  16.395699999999998  0
10.128850582569189  15.757948537991481  16.395699999999998  0
11.58107649256409  14.723628069310209  16.395699999999998  0
12.928392188615819  13.55592976034243  16.395699999999998  0
14.158592658693536  12.265431511984792  16.395699999999998  0
15.260533809707821  10.863823640540403  16.395699999999998  0
17.040641552922914  -7.7796588430854161  16.395699999999998  0
17.702815828662974  -6.1251014674403397  16.395699999999998  0
18.204762945468651  -4.4151061537965104  16.395699999999998  0
18.541939809109081  -2.6651499705224841  16.395699999999998  0
18.711294651354727  -0.8910716694992904  16.395699999999998  0
18.711294651354503  0.89107166950388794  16.395699999999998  0
18.541939809108428  2.6651499705270409  16.395699999999998  0
18.204762945467564  4.4151061538009841  16.395699999999998  0
17.702815828661468  6.1251014674446917  16.395699999999998  0
17.040641552921002  7.7796588430896048  16.395699999999998  0
21.369695447395099  -0.45160174284021826  14.688711441964109  0
20.827742431991698  -1.3902919008317447  15.450023759382569  0
20.20208025121531  -2.4739705863121717  15.900248165871666  0
19.549216921266225  -3.6047630441821106  16.159349159758321  0
18.887058780956561  -4.7516545858449444  16.298791107700193  0
18.221969039231425  -5.9036238101046852  16.364818555733819  0
17.556139470854408  -7.0568744517150934  16.389539135294807  0
16.890190534322802  -8.2103318450359062  16.395310926095426  0
16.890190814007173  8.2103313606062613  16.395314552470715  0
17.556140056522281  7.0568734373069413  16.389541219498891  0
18.221969809298724  5.9036224763072651  16.364816948951844  0
18.887060439390183  4.7516517133520502  16.298803649750276  0
19.549218754626903  3.6047598687078719  16.159354480699871  0
20.202083111591808  2.4739656319928711  15.900253997117172  0
20.827760550233798  1.3902605191151129  15.450080609094398  0
21.369784539761806  0.45144743033307949  14.688882479958917  0
10.815213917593276  -18.732500000000172  6.7488856187054491  0
21.63042783518938  0  4.4992569218356131  0
21.63042783518938  0  8.9985138436712262  0
10.81521391759342  18.732500000000069  6.7488853635738799  0
-12.644636106350847  2.2295905067900854  -1.5239999999999998  0
-12.065371343104825  4.3914360342585885  -1.5239999999999998  0
-11.119506376971055  6.4198499999999994  -1.5239999999999998  0
-9.8357808363147416  8.2532000720922589  -1.5239999999999998  0
-8.2532000720922571  9.8357808363147416  -1.5239999999999998  0
-6.4198499999999976  11.119506376971056  -1.5239999999999998  0
-4.3914360342585868  12.065371343104827  -1.5239999999999998  0
-2.2295905067900836  12.644636106350848  -1.5239999999999998  0
2.0647812385053111e-15  12.839699999999999  -1.5239999999999998  0
2.2295905067900876  12.644636106350847  -1.5239999999999998  0
4.3914360342585912  12.065371343104825  -1.5239999999999998  0
6.4198500000000021  11.119506376971055  -1.5239999999999998  0
8.2532000720922589  9.8357808363147416  -1.5239999999999998  0
9.8357808363147416  8.2532000720922554  -1.5239999999999998  0
11.11950637697106  6.4198499999999941  -1.5239999999999998  0
12.065371343104827  4.391436034258585  -1.5239999999999998  0
12.644636106350847  2.2295905067900845  -1.5239999999999998  0
-2.4971021524018377  9.2958886516076511  -63.5  0
6.9113757450262572  6.7788352189538381  -63.5  0
-5.2037960752736119  -2.0794267473445216  -63.5  0
0.20234202958839445  -0.84027053583867539  -63.5  0
10.069591815544944  2.6045579660268183  -63.5  0
-7.1976924083851399  -6.7682916187721593  -63.5  0
1.4893866016825954  4.9601812961789635  -63.5  0
4.293273654365648  -4.5219673185669391  -63.5  0
-0.98173881050849354  -7.9630447076726156  -63.5  0
5.4107701697881225  1.0555647626729203  -63.5  0
-4.9130692361954917  -10.064173186078769  -63.5  0
7.6306561050398143  -7.4406232492856672  -63.5  0
2.7046154571787211  9.9608303378427934  -63.5  0
-3.7879823326553188  3.4957646465043961  -63.5  0
-10.06614586885429  -2.7857874948588841  -63.5  0
-7.3291468842225163  7.2574907651151204  -63.5  0
-9.3828886675492562  2.3678100342604025  -63.5  0
3.9959206710589483  -9.2899972137318834  -63.5  0
9.5078170434228948  -2.6653121684663694  -63.5  0
8.782587258162355  -9.3661121679576436  -51.370763089964193  0
-3.4263648121907537  -12.374082602915701  -30.574471706516622  0
9.1986107175564378  -8.9578712290842724  -30.35233721856801  0
-11.993441388141704  -4.5842403688298861  -39.266933621663235  0
-8.9345551195638517  -9.2212591822090832  -30.663779485435697  0
-11.98540034332791  -4.6052225462137191  -16.850110663550254  0
11.921662599946099  -4.7677937185921069  -16.838553872219865  0
-12.070778412084264  -4.3765516809881797  -55.048821875062956  0
-9.6420968363129163  -8.4786711629337557  -10.766570441091831  0
11.707445525570726  -5.2719650374214311  -56.081786294329987  0
11.831736354227923  -4.986773599637476  -39.194121387550346  0
-10.026367290412018  -8.0205894451565047  -52.519245291196697  0
-5.6577157014023456  -11.52597714435116  -52.153177679157182  0
2.0270667299212892  -12.678678817702032  -27.646051737042818  0
-1.0068071595695456  -12.800165445549503  -11.001757138540183  0
-6.2176947405054559  -11.233795805687887  -12.511734334913243  0
5.4187851712975998  -11.640217496134907  -39.665131203524609  0
6.1028210963930229  -11.29661324271218  -23.981671713691178  0
4.7362032148366797  -11.934247994648455  -55.167333505208425  0
8.7098191438137551  -9.4338192993111427  -11.056799253718239  0
0.39392963071334763  -12.833655579609655  -49.464125901256338  0
4.2611010398088185  -12.112015274864055  -11.180579822541558  0
-7.9080396856776769  -10.740697637376345  -0.39691609558582508  0
7.4033241671243406  -10.620324413876819  -0.96464671295475579  0
1.2782524538117481  -12.891319731950489  -0.94362223844496262  0
-0.91780603867023014  -12.926635156279751  -0.93248440852990122  0
13.596671510209655  -2.2378369364660204  -0.11637654543813869  0
-5.0421410422675761  -11.940226617506129  -0.92774935034855077  0
9.0084640482995013  -9.4400558955590377  -0.75380479662009292  0
-1.7710328533349302  -13.177312497944904  -0.43673210031153831  0
-3.21853873454782  -13.405310586687033  -0.11362596836319461  0
-5.5470172464485099  -12.639370950447546  -0.1068891137364254  0
-6.077315311528328  -11.862366083878163  -0.40552699121116986  0
-10.712873490555129  -7.2916038093098043  -0.9331371075858067  0
3.8842892304350913  -13.207964865946181  -0.12155181130398485  0
-11.678578895119939  -6.3684558040345634  -0.43055273392939886  0
6.0445998151410691  -12.37825826912586  -0.11817523507081984  0
-8.0338062821753589  -10.161623550881453  -0.94544527534691802  0
-9.4541884201502686  -8.8353281166258633  -0.98014752840113173  0
12.774176717986187  -3.6568413825523862  -0.44514975545711644  0
12.25457485935771  -4.1981159170404121  -0.94561973138509681  0
-0.80370592726475865  -13.759601137015604  -0.11494862992537591  0
12.129449296067664  -6.4959310187374353  -0.12493649260624862  0
2.8690765117469543  -12.965165870200188  -0.45366512937128123  0
-12.524241985969875  -5.7954836685823796  -0.10802237485877852  0
7.43818305267133  -11.019103297156128  -0.43787534630205949  0
-11.756928097414308  -5.4473330114663572  -0.93629820053226087  0
5.5811473516890633  -11.691879358312855  -0.94089393014641864  0
9.4715780017138567  -9.7456192847512551  -0.2110064453564926  0
-12.460888069247975  -3.5362952008563666  -0.9474738639042436  0
-12.837544277634048  -1.7503855362311271  -0.93929886087100922  0
11.002187315216272  -8.3655968008499126  -0.099747202143294356  0
-12.552131150586685  -4.3817565554569651  -0.43755773859944802  0
12.773304867711834  -2.1463186818380939  -0.94890358149138498  0
11.395079619023997  -6.1854085093236586  -0.91742892479586413  0
8.0017457365664875  -11.270182975629462  -0.099559650460332438  0
5.1916518005649559  -12.222549094253221  -0.45302324791011661  0
-13.281280981658368  -3.7401758984127929  -0.1089319857419413  0
0.53774680555894638  -13.277296292294503  -0.44426112987806343  0
-9.7225065303813398  -9.75457917060786  -0.11938688489526705  0
13.064660763603442  -4.4123106234149532  -0.11225725823882016  0
-4.0002071056981165  -12.683537582995291  -0.43321089344918784  0
10.237871835915897  -7.9195157214151601  -0.9713250523711523  0
10.693625390985964  -7.8817424632921105  -0.44803338471566012  0
1.5836176753466893  -13.684091407547214  -0.1181184560678743  0
-7.7743733523077863  -11.425231556823206  -0.10050003910853089  0
12.003721038534243  -5.6944456882989218  -0.4465049915281154  0
-11.368891012566088  -7.8357739058479519  -0.10506454172765345  0
-10.538261963630395  -8.1270466030000996  -0.42484038415071979  0
-13.089224915231746  -2.2743475102750614  -0.44709124020857227  0
-9.2372652105500084  -9.4916211637403212  -0.48956032793431858  0
13.155949899607782  -1.8086399097499157  -0.4527853925824008  0
-13.655839834037403  -1.8330297577805217  -0.11691073223187431  0
-3.0711394261939367  -12.590015960522681  -0.93247205260175192  0
-6.6863760744511787  -11.130265515162883  -0.8761879246326032  0
3.4875196708859706  -12.475893950421256  -0.94449740343259625  0
-11.844415265119803  16.949870974867437  13.400681409923591  0
-13.303265748718411  14.423067816628334  10.678504948352664  0
-20.01340779488158  2.8007608666700534  15.063775443667931  0
-16.090537000669851  9.5953723937725428  13.24407211071718  0
-20.433252448624248  2.0735685951016265  13.068906729828578  0
-16.137943233950253  9.5132623891354271  5.1668955277750443  0
-18.510174278455636  5.4044376927600943  11.286375111222105  0
-14.380838261459349  12.556657475721449  14.851765515463256  0
-19.048158717272777  4.4726213110474298  14.716454182938206  0
-17.719652298888839  6.7736619258696535  14.737117514835699  0
-13.038363479144063  14.881892006571388  14.554154765657033  0
-19.701946333064434  1.0499189666894093  16.218649906474525  0
-20.531741889714013  -0.0012606840103750736  15.769492706820081  0
-19.701941404406298  -1.0552482052749872  16.218547473445163  0
-14.297119249011434  -12.701663058839411  11.97551983926669  0
-17.227575513703837  -7.6259639190338824  14.09908504655937  0
-16.312449141919881  -9.2110092903097911  8.3329185487904915  0
-14.718167437434309  -11.972386204056189  15.030805455680479  0
-20.329393509963868  -2.2534575536802586  12.783782488457787  0
-18.923189207930882  -4.6890748506232134  6.8126791256212593  0
-15.889753583095498  -9.9431394743273067  14.095092625213539  0
-13.447780834880673  -14.172760344933797  14.933063989449536  0
-13.221746173536658  -14.56426386265324  6.6582324227207836  0
-12.192058278392009  -16.347735612982344  12.768365330230962  0
-18.49334911871415  -5.4335797242765036  12.983963402307475  0
-10.265389931066403  -17.782252917840456  15.768830467323841  0
-10.760740220804928  -16.536808923052199  16.218737587867011  0
-8.9376523973735562  -17.589901677624745  16.218489598465492  0
10.26708250679013  -17.780161897375855  15.769594661730952  0
10.765102858541297  -16.534348728181872  16.218621030023485  0
8.9417723175051194  -17.587236400915451  16.218676313985462  0
-10.267082505526643  17.780161900292011  15.769594660231412  0
-8.9417723171673789  17.587236402459244  16.218676313537149  0
-10.76510285726456  16.534348729891754  16.218621029753542  0
10.760740222042141  16.536808921726944  16.218737588026791  0
8.9376523973702682  17.589901676612033  16.218489598797163  0
10.26538993120352  17.782252915643276  15.768830468777752  0
20.531741896096907  0.0012606861877939792  15.769492701764614  0
19.701941407902112  1.0552482034754229  16.218547472200413  0
19.70194633619127  -1.0499189628820291  16.218649905404206  0
5.2928937125290902  14.721723131345245  16.395699999999998  0
-15.375575711225441  6.1928790909748868  16.395699999999998  0
-1.9872023396266429  -16.432253066480904  16.395699999999998  0
10.017913055361905  13.305396856025725  16.395699999999998  0
15.50466897835528  -6.3779555262492806  16.395699999999998  0
15.295132876604546  5.8909593651163865  16.395699999999998  0
-3.0177683639663413  16.244529485922804  16.395699999999998  0
-13.799462958702209  -8.3063723564784517  16.395699999999998  0
-17.053448493426952  -1.8373993062397924  16.395699999999998  0
9.0704757545436809  6.8304496198953597  16.395699999999998  0
15.570599095770429  1.5908327346807534  16.395699999999998  0
0.30289725003968104  0.032745614531465621  16.395699999999998  0
-6.2368380491861934  -14.160927884975903  16.395699999999998  0
-10.886660813125291  -12.146862948595119  16.395699999999998  0
-6.4272216060411953  15.226492658997943  16.395699999999998  0
-7.4308147354018583  -6.2750313365508532  16.395699999999998  0
1.6351653429768365  -16.440998210725944  16.395699999999998  0
10.025478487902664  -4.2554166033705902  16.395699999999998  0
13.3088080522848  -9.9040705622939278  16.395699999999998  0
16.083470343208269  -2.8312736241301399  16.395699999999998  0
-15.798163923107184  1.9590311396958335  16.395699999999998  0
-9.3468533588049958  11.938978309638792  16.395699999999998  0
0.59048657836912177  16.575109584744943  16.395699999999998  0
-16.172468769004947  -5.1727468567923509  16.395699999999998  0
-13.279365655670384  -2.6080572390196095  16.395699999999998  0
12.602079551770268  10.904280523955734  16.395699999999998  0
-13.241990660741335  9.7296636393417035  16.395699999999998  0
5.1985941486989207  -15.74561621189909  16.395699999999998  0
-1.6333121471773122  10.685254638659337  16.395699999999998  0
1.321765439643263  -10.738844964142691  16.395699999999998  0
-9.4704018848628646  3.9527806311495564  16.395699999999998  0
9.1270281819174137  -12.664167672689555  16.395699999999998  0
14.239253465835509  8.6052414612291113  16.395699999999998  0
-0.366877264446484  -18.732500000000002  14.908853837178635  0
3.2878673918329926  -18.732500000000002  8.2174332088287017  0
8.2558945223151596  -18.732500000000002  12.674639937400858  0
-1.3369541443645321  -18.732500000000002  11.647472026355572  0
-5.6867084062462618  -18.732500000000002  11.704002909331374  0
-5.8989014785928227  -18.732500000000002  14.945528142349266  0
5.378009236912269  -18.732500000000002  14.231831531672075  0
2.1408830114351636  -18.732500000000002  14.019722769412075  0
-4.3910743893078825  -18.732500000000002  6.4348511029138562  0
-3.036089800471522  -18.732500000000002  14.619190092770189  0
-8.6639122662042141  -18.732500000000002  13.594161038590508  0
12.151421164909246  -16.418121158208745  12.866995530092847  0
16.016869346100901  -9.7229685143603906  9.930526463138218  0
13.783047609937661  -13.592061256446669  7.1514227103473997  0
15.183660542460009  -11.166128495580031  14.475347657283692  0
17.585336844747019  -7.0063031166849665  12.260695700109112  0
18.931598960283978  -4.674508732269901  7.8454823885205371  0
13.973755372115949  -13.261745722956132  13.326626584127359  0
18.935796461065358  -4.6672384476517301  14.099132496671441  0
20.504016997391883  -1.9510008012613973  12.930912426347122  0
17.604570346560429  -6.9729897143366717  14.991839336250164  0
16.437525601338557  -8.9943705077671385  14.411326958317932  0
16.89745351803268  8.1977519882323104  11.639692165699367  0
16.411291495584308  9.0398093118232943  14.903416774795428  0
14.58158784132338  12.208949003797525  8.212943039200395  0
15.155911949394234  11.214190468607169  14.015097474431723  0
12.09571368459981  16.51460934446499  12.672698649101958  0
13.535149759985792  14.021432927649037  14.228767661392252  0
19.177422301276209  4.2487302159837057  14.942281726526149  0
19.072124450752518  4.4311114430185237  11.697629665181298  0
18.422287059639427  5.5566628210843581  6.4313206790522317  0
17.746601094712496  6.7269852422989462  14.613542033374355  0
20.559397510892186  1.8550789381282891  13.591410265989934  0
-1.9058145535628779  18.732500000000002  14.832005968255926  0
-1.6729128404815818  18.732500000000002  11.265336365763375  0
7.4367650109056491  18.732500000000002  12.88603960534749  0
2.9731211091718239  18.732500000000002  14.979655505771332  0
2.5134117891421068  18.732500000000002  7.1378639523768781  0
-4.7169848598847386  18.732500000000002  13.638679955831597  0
1.0108207529622546  18.732500000000002  13.375436526739236  0
3.793613564733763  18.732500000000002  12.621499680697742  0
-5.2915423566871711  18.732500000000002  7.343339988899821  0
5.0057079793500403  18.732500000000002  14.725888828416952  0
6.4801458732117414  18.732500000000002  15.1967785012869  0
-8.2138721993030845  18.732500000000002  13.209052814205418  0
7.9426886876658456  11.270286281791906  -0.11296909022086754  0
-10.451162102680851  7.6538173994938683  -0.94478037036343054  0
13.216915066036259  4.0349166950928339  -0.10063012983701491  0
6.68373449156263  11.481658504836993  -0.44707905663908143  0
5.5176888957158745  11.723606019150882  -0.93731169896245436  0
12.378789051059861  6.0247708218837959  -0.12164074532121361  0
10.550582021096853  7.5151914784021523  -0.94617505991326611  0
-13.63954428264516  2.0749968619336041  -0.10949154286010354  0
-6.3300795145097384  11.685094752286629  -0.44292938850211638  0
-12.260889185129932  5.105035652386114  -0.4512409095482095  0
-7.6980405811154728  11.432036580333996  -0.11526696167506367  0
9.1647374938280599  9.1544013586434474  -0.94593079039921613  0
-11.137235515188522  8.1052897226599452  -0.11855126273193539  0
8.5090638901273579  10.211788311746119  -0.44019110095925096  0
3.5361719118700332  13.31599073411714  -0.1172407041188559  0
1.087827581737143  12.906840529773694  -0.94834495337615676  0
11.234720591747795  8.0015047274772222  -0.1109468323421936  0
-8.9738127172868385  9.3473592871812006  -0.93596178655760764  0
-12.342986097262473  6.1338236674787385  -0.11494067855724044  0
9.7494833494491502  9.7601688803829774  -0.10992013607488849  0
-11.296374065062837  6.9783224043288294  -0.45450833324505124  0
-4.2832916540075932  12.566494366409312  -0.45610418086629334  0
-1.1611798438572414  13.742563549850423  -0.11148405317378329  0
-8.2465929093267611  10.42253846131393  -0.44202338167412591  0
11.411382549959011  6.8126002084918911  -0.4421887012829997  0
12.36752935493365  3.8172532317241599  -0.97187576500807338  0
4.541283175796444  12.47791602432342  -0.45387450481442504  0
-2.0914508831235867  13.119934790979126  -0.4468504743695092  0
-9.5671386731226935  9.9159463556417275  -0.11669684711703132  0
-12.863831968917157  3.3125443879656591  -0.44895408878060516  0
-9.9240716556157178  8.8294645091510802  -0.44912361359794972  0
-11.617482147820096  5.7236697068572528  -0.95248968709355353  0
-13.170857553451526  4.0881316121698879  -0.11180862187278051  0
11.648755384688265  5.6918755497939859  -0.91886814233852188  0
-7.2549405908446669  10.737031468141785  -0.93452761950821206  0
2.3449585847362893  13.073231637799953  -0.45057943743497941  0
-12.388014184259768  3.7665511643529923  -0.95984487330224266  0
-5.3516147118056159  11.793928349836225  -0.95151342991540822  0
12.479988492054874  4.5689711348670796  -0.44239642245672828  0
1.1921555204783427  13.739355821718442  -0.11170825951022878  0
7.4888142663444315  10.571227284600527  -0.94239318324946797  0
-12.819406057054485  1.8898511976000776  -0.93538375603806045  0
3.309137228278352  12.523832934665498  -0.94580811861852365  0
-5.6194882520684439  12.587955523198229  -0.11401347017551555  0
5.8252739569169769  12.480676147469254  -0.1190487087486285  0
-1.1169934283228924  12.906158740860793  -0.94394527941973005  0
-3.4548289313462459  13.33542817750013  -0.11800784137214615  0
13.769187590072153  1.9199952019120794  -0.071490319350465237  0
13.262114394119187  2.3553655071875772  -0.2898008556872389  0
12.782575791123129  1.8290139833449919  -1.0577729331740631  0
-13.195686124513967  1.6699018060979718  -0.43171195722553124  0
12.928199803278838  2.3127362356761036  -0.62454319445281814  0
10.079589591502909  8.6619074298455985  -0.44235322842037861  0
-3.2582941198208633  12.534719386800894  -0.95159489714103007  0
0.14063882678663153  13.289383989297692  -0.44232561698730599  0
10.332303018430018  7.62242811873893  -26.18249645782068  0
6.1759065311157437  11.256823468853096  -49.813346547633138  0
12.020710738110745  4.5122510391897519  -48.200547675989654  0
-11.787471264398294  5.0905222994290549  -37.847316994618268  0
6.6269932068307762  10.997311358992192  -26.395582052311557  0
9.8073265156488016  8.2869923799561871  -50.822918505704848  0
8.9975425535981373  9.1598102647484279  -14.324220144740453  0
12.012052002434066  4.5352511265441198  -17.039736904927157  0
-3.2059700331582812  12.433006564644412  -48.934981261266898  0
-6.1061453131837489  11.294816753904604  -15.709168780070497  0
-6.8870064321832256  10.836375708375325  -38.69325927179694  0
12.066465602706405  4.3884284144444168  -34.165990231009332  0
-12.148403077200841  4.1562240993306787  -50.824624787637774  0
1.5318304414608006  12.747995591017984  -49.918262134256466  0
4.3176522722407702  12.09197150782345  -37.837996341128573  0
-10.056228961843367  7.9831168823325305  -47.317179515978822  0
9.1311391704031521  9.0266379976561151  -38.449391733653947  0
-1.101562609362728  12.792359278399507  -37.544418247583884  0
-9.2067074039421204  8.9495494226356058  -28.782893655732671  0
1.4770037441596127  12.754464160823789  -26.202794614155628  0
4.2918327278380035  12.101159776081735  -14.626577072383791  0
-4.2630817909444652  12.111318249212911  -27.559098640388243  0
-1.1838078593044679  12.785010560897044  -15.066352212953085  0
-12.090413520473351  4.3220130719324708  -13.403036242399175  0
-7.1079469723777686  10.692753898218442  -51.647233342788873  0
-12.012189921432801  4.534885817904148  -25.511855150916563  0
-9.7788742659620898  8.3205477091658082  -15.452242958845671  0
Triangles
1254
47 350 335  1
55 336 56  1
47 335 48  1
335 49 48  1
44 350 45  1
35 345 36  1
338 348 337  1
351 44 43  1
2 351 42  1
351 2 349  1
349 2 41  1
335 350 348  1
44 351 350  1
349 39 340  1
39 349 40  1
346 352 30  1
50 347 51  1
49 335 50  1
58 339 1  1
347 53 52  1
30 352 31  1
353 27 26  1
53 336 54  1
54 336 55  1
25 353 26  1
336 347 341  1
343 340 345  1
341 335 348  1
338 343 342  1
27 346 28  1
342 343 352  1
33 343 34  1
32 343 33  1
32 352 343  1
53 347 336  1
350 351 348  1
57 339 58  1
56 339 57  1
340 39 38  1
37 345 340  1
27 353 346  1
353 1 339  1
1 353 25  1
339 56 336  1
38 37 340  1
337 343 338  1
336 344 339  1
347 50 335  1
346 353 342  1
342 344 338  1
343 337 340  1
34 345 35  1
344 336 341  1
341 338 344  1
345 37 36  1
345 34 343  1
346 30 29  1
29 28 346  1
52 51 347  1
347 335 341  1
351 43 42  1
348 338 341  1
41 40 349  1
349 340 337  1
350 47 46  1
46 45 350  1
351 349 337  1
337 348 351  1
352 32 31  1
352 346 342  1
353 339 344  1
344 342 353  1
373 375 371  2
34 374 366  2
65 360 62  2
37 366 365  2
356 373 371  2
360 65 66  2
32 374 33  2
64 364 363  2
30 372 31  2
354 30 29  2
374 370 367  2
65 62 4  2
25 363 26  2
28 354 29  2
25 1 64  2
28 363 354  2
363 28 27  2
359 358 362  2
371 370 356  2
358 366 355  2
369 358 355  2
365 39 38  2
358 369 362  2
368 72 73  2
39 365 361  2
79 362 78  2
354 364 356  2
41 361 61  2
41 61 2  2
357 365 358  2
39 361 40  2
370 374 372  2
374 34 33  2
75 368 74  2
70 375 373  2
369 75 76  2
72 375 71  2
80 359 79  2
366 358 365  2
3 59 81  2
81 359 80  2
78 362 77  2
364 354 363  2
373 67 68  2
366 37 36  2
34 366 35  2
360 364 63  2
67 373 360  2
60 359 59  2
60 61 357  2
75 369 368  2
358 359 357  2
359 81 59  2
359 60 357  2
360 63 62  2
360 66 67  2
357 61 361  2
361 41 40  2
77 369 76  2
362 79 359  2
363 27 26  2
363 25 64  2
364 64 63  2
364 360 356  2
365 357 361  2
365 38 37  2
366 36 35  2
355 374 367  2
354 372 30  2
375 367 371  2
355 367 368  2
368 73 74  2
355 368 369  2
369 77 362  2
354 356 370  2
370 371 367  2
70 373 69  2
367 375 368  2
32 31 372  2
372 354 370  2
373 356 360  2
373 68 69  2
374 355 366  2
374 32 372  2
375 70 71  2
375 72 368  2
380 100 101  3
79 400 387  3
87 409 390  3
402 409 86  3
104 425 103  3
106 4 65  3
393 414 380  3
106 407 105  3
396 83 414  3
425 104 407  3
380 425 393  3
412 379 383  3
408 420 394  3
69 382 68  3
407 393 425  3
88 390 388  3
70 401 377  3
418 395 90  3
410 429 397  3
84 405 85  3
402 85 405  3
380 99 100  3
99 380 82  3
83 396 84  3
99 82 5  3
378 72 73  3
73 379 378  3
89 388 418  3
406 423 411  3
111 423 404  3
381 76 428  3
385 415 386  3
376 428 391  3
415 385 384  3
111 404 112  3
109 108 426  3
387 400 389  3
107 426 108  3
423 403 404  3
78 387 392  3
6 98 107  3
81 404 403  3
114 404 81  3
389 422 387  3
400 406 389  3
76 381 75  3
379 73 74  3
71 72 429  3
391 424 376  3
114 81 3  3
400 79 80  3
77 392 391  3
94 413 95  3
419 386 376  3
409 402 399  3
377 69 70  3
91 395 384  3
395 418 412  3
74 427 379  3
383 415 384  3
82 414 83  3
101 425 380  3
75 381 427  3
76 391 428  3
67 416 408  3
382 69 377  3
379 412 378  3
91 384 92  3
92 385 93  3
378 412 397  3
419 385 386  3
385 92 384  3
385 419 93  3
383 427 415  3
392 422 424  3
413 419 376  3
390 88 87  3
429 378 397  3
398 421 389  3
96 398 97  3
402 86 85  3
390 399 410  3
391 76 77  3
413 424 422  3
392 77 78  3
387 78 79  3
407 394 393  3
394 407 65  3
394 65 66  3
66 408 394  3
383 384 395  3
395 91 90  3
393 420 414  3
417 420 408  3
378 429 72  3
388 89 88  3
411 398 406  3
97 411 98  3
382 377 399  3
410 397 388  3
80 403 400  3
389 406 398  3
399 401 410  3
401 70 71  3
417 382 402  3
382 399 402  3
403 80 81  3
406 400 403  3
404 114 113  3
113 112 404  3
405 84 396  3
382 417 416  3
403 423 406  3
411 97 398  3
407 104 105  3
407 106 65  3
408 66 67  3
417 408 416  3
399 390 409  3
409 87 86  3
401 399 377  3
410 388 390  3
110 426 423  3
98 426 107  3
418 397 412  3
412 383 395  3
422 389 421  3
95 421 96  3
414 82 380  3
420 417 396  3
427 74 75  3
381 386 415  3
416 67 68  3
68 382 416  3
417 402 405  3
405 396 417  3
397 418 388  3
418 90 89  3
419 413 94  3
94 93 419  3
396 414 420  3
420 393 394  3
421 398 96  3
421 95 413  3
421 413 422  3
422 392 387  3
423 111 110  3
426 98 411  3
424 413 376  3
424 391 392  3
425 101 102  3
102 103 425  3
411 423 426  3
426 110 109  3
381 415 427  3
427 383 379  3
428 376 386  3
386 381 428  3
429 410 401  3
401 71 429  3
91 124 90  4
123 93 9  4
122 93 94  4
92 123 91  4
96 121 95  4
93 122 9  4
93 123 92  4
95 122 94  4
120 97 119  4
97 98 119  4
97 120 96  4
122 95 121  4
118 6 136  4
118 137 117  4
6 8 119  4
119 98 6  4
137 138 117  4
137 118 136  4
8 6 118  4
116 138 139  4
115 141 7  4
138 116 117  4
116 139 115  4
131 147 148  4
7 141 135  4
135 143 134  4
143 135 142  4
135 141 142  4
141 115 140  4
115 139 140  4
144 133 134  4
133 144 145  4
130 151 129  4
132 147 12  4
134 143 144  4
147 131 12  4
145 132 133  4
147 132 146  4
132 145 146  4
130 149 150  4
121 96 120  4
149 130 131  4
131 148 149  4
152 129 151  4
151 130 150  4
127 84 85  4
127 83 84  4
83 128 82  4
128 5 82  4
5 11 129  4
129 152 5  4
124 89 90  4
128 83 127  4
87 126 86  4
11 5 128  4
89 124 125  4
124 91 123  4
10 87 125  4
126 85 86  4
85 126 127  4
89 125 88  4
125 87 88  4
126 87 10  4
162 435 431  5
14 433 160  5
437 164 165  5
440 169 430  5
118 435 117  5
435 118 161  5
167 437 166  5
115 162 7  5
163 431 430  5
158 439 438  5
167 440 437  5
430 171 15  5
170 430 169  5
162 431 163  5
171 430 170  5
118 8 161  5
158 438 157  5
431 435 433  5
160 439 159  5
164 433 14  5
153 434 13  5
154 434 153  5
432 154 155  5
156 438 432  5
434 438 436  5
438 439 436  5
169 440 168  5
430 15 163  5
435 162 115  5
164 437 433  5
161 436 435  5
432 155 156  5
437 165 166  5
439 158 159  5
161 13 434  5
434 154 432  5
435 115 116  5
116 117 435  5
433 435 436  5
436 161 434  5
431 437 440  5
431 433 437  5
438 434 432  5
438 156 157  5
439 160 433  5
433 436 439  5
440 167 168  5
440 430 431  5
155 175 156  6
184 180 179  6
178 443 187  6
179 185 184  6
178 187 186  6
179 186 185  6
186 179 178  6
182 16 181  6
181 183 182  6
188 443 442  6
443 441 442  6
441 175 155  6
442 153 189  6
156 174 157  6
13 189 153  6
153 442 154  6
175 441 176  6
441 177 176  6
180 184 183  6
183 181 180  6
157 174 158  6
172 159 173  6
14 160 172  6
173 158 174  6
159 172 160  6
174 156 175  6
158 173 159  6
177 441 443  6
441 155 154  6
441 154 442  6
442 189 188  6
443 188 187  6
443 178 177  6
195 451 194  7
121 452 446  7
451 447 444  7
454 446 445  7
445 182 183  7
182 450 16  7
184 454 445  7
8 119 161  7
186 454 185  7
184 445 183  7
188 448 187  7
454 184 185  7
189 448 188  7
187 448 186  7
192 453 191  7
449 448 161  7
450 446 444  7
451 195 447  7
450 197 16  7
197 450 447  7
198 122 9  7
453 190 191  7
190 453 17  7
453 199 17  7
452 121 122  7
453 452 199  7
121 446 120  7
199 452 198  7
446 454 449  7
446 450 445  7
120 449 119  7
452 453 444  7
447 195 196  7
196 197 447  7
448 189 13  7
13 161 448  7
161 119 449  7
449 120 446  7
444 447 450  7
450 182 445  7
451 192 193  7
193 194 451  7
444 446 452  7
452 122 198  7
453 192 451  7
451 444 453  7
454 186 448  7
448 449 454  7
209 202 201  8
204 210 211  8
208 201 200  8
200 18 208  8
210 202 209  8
201 208 209  8
210 204 203  8
210 203 202  8
193 215 194  8
211 457 205  8
455 207 206  8
211 205 204  8
206 457 455  8
190 455 191  8
207 455 190  8
17 207 190  8
192 214 193  8
214 456 213  8
212 456 457  8
456 212 213  8
194 215 195  8
197 217 16  8
216 195 215  8
196 217 197  8
215 193 214  8
195 216 196  8
217 196 216  8
457 456 455  8
191 456 192  8
456 214 192  8
456 191 455  8
457 206 205  8
457 211 212  8
235 228 227  9
228 235 236  9
234 227 226  9
227 234 235  9
236 230 229  9
236 229 228  9
230 236 237  9
232 459 458  9
237 459 231  9
221 241 222  9
460 238 239  9
237 231 230  9
459 232 231  9
19 233 218  9
458 218 233  9
218 458 219  9
220 240 221  9
240 460 239  9
458 233 232  9
226 20 234  9
222 241 223  9
242 223 241  9
18 225 243  9
224 243 225  9
241 221 240  9
223 242 224  9
243 224 242  9
238 460 459  9
219 460 220  9
459 237 238  9
459 460 458  9
460 240 220  9
460 219 458  9
253 166 165  10
168 254 255  10
252 165 164  10
164 14 252  10
166 253 254  10
165 252 253  10
254 168 167  10
254 167 166  10
247 259 248  10
170 463 461  10
462 245 461  10
255 169 168  10
463 462 461  10
461 244 171  10
15 171 244  10
244 461 245  10
246 258 247  10
258 462 257  10
461 171 170  10
255 463 169  10
248 259 249  10
260 249 259  10
21 251 261  10
250 261 251  10
259 247 258  10
249 260 250  10
261 250 260  10
462 256 257  10
245 462 246  10
256 462 463  10
462 258 246  10
463 170 169  10
463 255 256  10
279 272 271  11
274 280 281  11
278 271 270  11
270 21 278  11
280 272 279  11
271 278 279  11
280 274 273  11
280 273 272  11
265 285 266  11
281 465 275  11
466 465 464  11
281 275 274  11
275 465 276  11
262 466 263  11
277 466 262  11
22 277 262  11
264 284 265  11
284 464 283  11
464 284 264  11
465 281 282  11
266 285 267  11
269 287 23  11
286 267 285  11
268 287 269  11
285 265 284  11
267 286 268  11
287 268 286  11
282 464 465  11
464 264 263  11
464 282 283  11
465 466 276  11
464 263 466  11
466 277 276  11
310 295 294  12
295 309 308  12
296 308 307  12
297 307 306  12
296 307 297  12
308 296 295  12
295 310 309  12
294 468 311  12
312 468 467  12
294 311 310  12
468 312 311  12
469 293 292  12
467 298 313  12
298 467 299  12
24 313 298  12
300 291 301  12
291 469 292  12
467 313 312  12
301 290 302  12
302 290 303  12
290 301 291  12
288 304 289  12
288 20 305  12
289 303 290  12
304 288 305  12
23 297 306  12
303 289 304  12
293 469 468  12
299 469 300  12
468 294 293  12
468 469 467  12
469 291 300  12
469 299 467  12
282 473 283  13
283 473 284  13
297 475 296  13
488 236 235  13
14 496 252  13
496 254 253  13
279 492 470  13
497 242 241  13
502 479 475  13
18 472 208  13
499 487 481  13
216 483 477  13
497 241 240  13
176 490 175  13
217 477 16  13
216 477 217  13
211 482 212  13
485 500 494  13
498 479 470  13
214 483 215  13
210 482 211  13
472 210 209  13
477 494 493  13
212 482 213  13
178 478 177  13
179 493 478  13
500 485 481  13
179 478 178  13
473 479 495  13
471 14 172  13
174 490 471  13
498 484 491  13
476 260 259  13
484 257 256  13
484 258 257  13
491 256 255  13
254 496 491  13
479 498 481  13
242 497 486  13
470 282 281  13
492 498 470  13
492 279 278  13
470 280 279  13
470 281 280  13
297 502 475  13
284 473 285  13
181 493 180  13
287 502 23  13
292 489 291  13
293 480 292  13
294 480 293  13
296 475 295  13
237 501 238  13
489 487 474  13
290 489 474  13
290 474 289  13
236 501 237  13
20 488 234  13
289 474 288  13
18 486 472  13
486 18 243  13
486 243 242  13
501 239 238  13
239 501 497  13
261 492 21  13
476 261 260  13
471 172 173  13
173 174 471  13
500 498 491  13
472 209 208  13
285 495 286  13
473 282 470  13
479 487 480  13
474 20 288  13
295 480 294  13
479 502 495  13
259 484 476  13
484 259 258  13
477 181 16  13
482 485 483  13
478 176 177  13
493 494 478  13
487 489 480  13
479 473 470  13
480 295 475  13
475 479 480  13
494 477 485  13
482 499 485  13
213 483 214  13
482 210 472  13
483 216 215  13
483 213 482  13
256 491 484  13
491 255 254  13
477 483 485  13
485 499 481  13
487 501 488  13
472 499 482  13
488 20 474  13
487 479 481  13
235 234 488  13
488 474 487  13
489 290 291  13
489 292 480  13
490 174 175  13
490 176 478  13
484 498 476  13
496 500 491  13
492 278 21  13
492 261 476  13
493 179 180  13
493 181 477  13
490 500 471  13
490 478 494  13
495 287 286  13
495 285 473  13
496 253 252  13
496 14 471  13
497 240 239  13
501 487 499  13
498 492 476  13
498 500 481  13
499 472 486  13
486 497 499  13
500 496 471  13
500 490 494  13
499 497 501  13
501 236 488  13
502 297 23  13
502 287 495  13
503 512 506  14
503 225 18  14
512 507 506  14
202 512 201  14
507 512 508  14
205 508 204  14
513 205 206  14
207 513 206  14
205 513 508  14
225 510 224  14
200 512 503  14
199 511 507  14
509 221 222  14
123 198 9  14
220 509 505  14
314 505 504  14
510 504 509  14
509 220 221  14
504 510 506  14
223 510 509  14
505 218 219  14
218 505 19  14
510 223 224  14
10 314 125  14
124 511 123  14
18 200 503  14
511 199 198  14
504 124 125  14
125 314 504  14
505 314 19  14
505 219 220  14
203 204 508  14
504 511 124  14
199 513 17  14
511 504 506  14
507 508 513  14
508 202 203  14
504 505 509  14
509 222 223  14
510 225 503  14
503 506 510  14
506 507 511  14
511 198 123  14
512 200 201  14
512 202 508  14
513 207 17  14
513 199 507  14
303 521 302  15
515 524 517  15
231 514 230  15
518 515 519  15
515 520 516  15
233 514 232  15
127 516 126  15
232 514 231  15
230 520 229  15
523 521 303  15
520 228 229  15
516 127 515  15
305 523 304  15
226 524 20  15
228 520 517  15
519 127 128  15
316 522 519  15
521 519 522  15
298 522 24  15
522 298 299  15
314 10 126  15
127 519 515  15
301 521 300  15
315 128 11  15
520 515 517  15
514 233 19  15
19 314 514  15
524 305 20  15
305 524 523  15
516 514 314  15
314 126 516  15
517 226 227  15
227 228 517  15
316 519 315  15
302 521 301  15
519 128 315  15
521 523 518  15
520 230 514  15
514 516 520  15
518 519 521  15
300 522 299  15
522 316 24  15
522 300 521  15
303 304 523  15
524 226 517  15
524 515 518  15
518 523 524  15
534 532 525  16
525 528 526  16
531 309 310  16
533 316 315  16
531 308 309  16
528 525 527  16
316 533 532  16
531 535 532  16
311 531 310  16
264 530 529  16
269 528 268  16
527 530 528  16
530 527 529  16
530 264 265  16
267 530 266  16
130 533 129  16
262 529 22  16
317 529 527  16
529 262 263  16
534 306 307  16
12 317 131  16
527 533 130  16
129 315 11  16
311 535 531  16
313 535 312  16
306 526 23  16
306 534 526  16
269 23 526  16
526 534 525  16
527 130 131  16
131 317 527  16
528 267 268  16
528 269 526  16
529 317 22  16
529 263 264  16
530 265 266  16
530 267 528  16
535 311 312  16
316 535 24  16
533 315 129  16
532 534 531  16
533 527 525  16
525 532 533  16
534 307 308  16
308 531 534  16
535 313 24  16
535 316 532  16
270 539 271  17
249 536 250  17
538 540 317  17
536 541 537  17
541 248 247  17
538 276 275  17
547 247 246  17
544 540 537  17
249 541 536  17
547 246 245  17
244 547 245  17
544 547 163  17
541 249 248  17
270 542 539  17
536 21 251  17
22 538 317  17
543 539 542  17
272 545 273  17
7 135 162  17
540 542 537  17
543 538 545  17
538 277 276  17
277 538 22  17
542 270 21  17
132 540 133  17
317 132 12  17
251 250 536  17
547 544 541  17
134 544 135  17
540 544 134  17
275 546 538  17
545 538 546  17
539 272 271  17
542 21 536  17
540 134 133  17
540 132 317  17
247 547 541  17
541 544 537  17
536 537 542  17
545 272 539  17
542 540 543  17
540 538 543  17
544 163 162  17
162 135 544  17
273 546 274  17
545 539 543  17
546 275 274  17
546 273 545  17
547 244 15  17
15 163 547  17
588 552 329  18
332 581 554  18
592 147 146  18
151 553 550  18
140 576 558  18
598 112 589  18
114 589 113  18
112 598 111  18
584 577 589  18
580 557 566  18
321 565 549  18
562 587 583  18
143 570 144  18
585 323 324  18
137 566 138  18
577 580 555  18
571 558 576  18
555 108 109  18
141 591 142  18
323 585 582  18
560 138 566  18
139 576 140  18
555 107 108  18
107 555 136  18
136 580 137  18
107 136 6  18
601 575 569  18
591 569 594  18
322 582 565  18
599 596 586  18
149 564 150  18
147 592 548  18
551 574 552  18
101 595 596  18
100 99 595  18
595 101 100  18
596 103 102  18
99 152 595  18
554 600 559  18
106 105 597  18
573 333 334  18
551 592 574  18
331 332 554  18
602 593 563  18
594 575 570  18
551 561 548  18
600 554 572  18
597 599 573  18
114 3 318  18
581 332 333  18
334 106 597  18
588 329 330  18
148 567 149  18
148 147 548  18
579 584 319  18
320 321 549  18
103 596 599  18
550 152 151  18
552 588 551  18
329 552 328  18
562 146 145  18
328 590 327  18
586 581 573  18
553 150 564  18
581 333 573  18
330 559 588  18
109 598 555  18
598 589 577  18
143 594 570  18
142 594 143  18
589 114 318  18
579 549 568  18
582 556 571  18
558 141 140  18
559 331 554  18
559 330 331  18
139 138 560  18
568 560 566  18
567 548 561  18
548 567 148  18
327 563 326  18
563 327 590  18
326 593 325  18
562 574 592  18
572 586 553  18
150 553 151  18
578 560 568  18
565 321 322  18
580 577 557  18
560 578 576  18
564 600 572  18
564 149 567  18
566 557 568  18
549 579 320  18
324 325 601  18
575 601 593  18
570 587 144  18
587 562 145  18
556 558 571  18
578 568 549  18
572 553 564  18
561 559 600  18
104 597 105  18
553 586 550  18
583 590 574  18
552 590 328  18
575 594 569  18
593 602 575  18
576 139 560  18
571 578 565  18
110 111 598  18
584 579 557  18
549 565 578  18
578 571 576  18
568 557 579  18
579 319 320  18
566 137 580  18
580 136 555  18
586 572 581  18
581 572 554  18
571 565 582  18
582 322 323  18
583 574 562  18
570 602 587  18
557 577 584  18
584 318 319  18
585 569 556  18
556 582 585  18
104 103 599  18
102 101 596  18
145 144 587  18
563 583 602  18
588 559 561  18
561 551 588  18
589 112 113  18
589 318 584  18
590 552 574  18
590 583 563  18
591 141 558  18
558 556 591  18
592 551 548  18
592 146 562  18
593 601 325  18
593 326 563  18
594 142 591  18
569 591 556  18
152 99 5  18
152 550 595  18
596 595 550  18
550 586 596  18
573 334 597  18
106 334 4  18
577 555 598  18
598 109 110  18
586 573 599  18
599 597 104  18
600 564 567  18
567 561 600  18
569 585 601  18
585 324 601  18
583 587 602  18
602 570 575  18
324 625 612  19
629 322 612  19
613 627 618  19
59 628 60  19
318 626 59  19
44 618 45  19
628 621 606  19
48 627 611  19
627 613 611  19
611 50 49  19
628 629 621  19
43 615 44  19
318 59 3  19
42 615 43  19
61 42 2  19
624 625 622  19
618 621 613  19
604 53 52  19
610 332 333  19
616 620 617  19
623 329 609  19
50 611 616  19
614 619 603  19
604 54 53  19
625 327 623  19
56 608 605  19
329 623 328  19
617 622 607  19
58 605 64  19
58 64 1  19
605 58 57  19
619 617 607  19
54 608 55  19
332 610 609  19
322 629 321  19
327 625 326  19
324 612 323  19
331 609 330  19
625 624 612  19
4 62 334  19
334 610 333  19
332 609 331  19
63 610 62  19
605 619 614  19
616 52 51  19
52 616 604  19
64 614 63  19
605 57 56  19
61 606 615  19
320 629 626  19
603 607 609  19
619 604 617  19
608 56 55  19
608 54 604  19
609 329 330  19
609 610 603  19
610 334 62  19
610 614 603  19
611 49 48  19
46 627 47  19
620 613 624  19
612 322 323  19
606 618 615  19
621 624 613  19
614 610 63  19
614 64 605  19
615 42 61  19
606 61 60  19
326 625 325  19
616 51 50  19
604 619 608  19
604 616 617  19
627 45 618  19
618 44 615  19
607 603 619  19
619 605 608  19
620 616 611  19
624 622 620  19
621 618 606  19
320 626 319  19
623 327 328  19
622 617 620  19
623 609 607  19
607 622 623  19
613 620 611  19
624 621 612  19
625 324 325  19
625 623 622  19
626 318 319  19
629 628 626  19
627 48 47  19
45 627 46  19
606 60 628  19
628 59 626  19
612 621 629  19
629 320 321  19
Edges
350
1 25  1
25 26  1
26 27  1
27 28  1
28 29  1
29 30  1
30 31  1
31 32  1
32 33  1
33 34  1
34 35  1
35 36  1
36 37  1
37 38  1
38 39  1
39 40  1
40 41  1
41 2  1
2 42  2
42 43  2
43 44  2
44 45  2
45 46  2
46 47  2
47 48  2
48 49  2
49 50  2
50 51  2
51 52  2
52 53  2
53 54  2
54 55  2
55 56  2
56 57  2
57 58  2
58 1  2
3 59  3
59 60  3
60 61  3
61 2  3
4 62  4
62 63  4
63 64  4
64 1  4
4 65  5
65 66  5
66 67  5
67 68  5
68 69  5
69 70  5
70 71  5
71 72  5
72 73  5
73 74  5
74 75  5
75 76  5
76 77  5
77 78  5
78 79  5
79 80  5
80 81  5
81 3  5
5 82  6
82 83  6
83 84  6
84 85  6
85 86  6
86 87  6
87 88  6
88 89  6
89 90  6
90 91  6
91 92  6
92 93  6
93 94  6
94 95  6
95 96  6
96 97  6
97 98  6
98 6  6
5 99  7
99 100  7
100 101  7
101 102  7
102 103  7
103 104  7
104 105  7
105 106  7
106 4  7
6 107  8
107 108  8
108 109  8
109 110  8
110 111  8
111 112  8
112 113  8
113 114  8
114 3  8
7 115  9
115 116  9
116 117  9
117 118  9
118 8  9
8 119  10
119 120  10
120 121  10
121 122  10
122 9  10
9 123  11
123 124  11
124 125  11
125 10  11
10 126  12
126 127  12
127 128  12
128 11  12
11 129  13
129 130  13
130 131  13
131 12  13
12 132  14
132 133  14
133 134  14
134 135  14
135 7  14
6 136  15
136 137  15
137 138  15
138 139  15
139 140  15
140 141  15
141 142  15
142 143  15
143 144  15
144 145  15
145 146  15
146 147  15
147 148  15
148 149  15
149 150  15
150 151  15
151 152  15
152 5  15
13 153  16
153 154  16
154 155  16
155 156  16
156 157  16
157 158  16
158 159  16
159 160  16
160 14  16
8 161  17
161 13  17
7 162  18
162 163  18
163 15  18
14 164  19
164 165  19
165 166  19
166 167  19
167 168  19
168 169  19
169 170  19
170 171  19
171 15  19
14 172  20
172 173  20
173 174  20
174 175  20
175 176  20
176 177  20
177 178  20
178 179  20
179 180  20
180 181  20
181 16  20
16 182  21
182 183  21
183 184  21
184 185  21
185 186  21
186 187  21
187 188  21
188 189  21
189 13  21
17 190  22
190 191  22
191 192  22
192 193  22
193 194  22
194 195  22
195 196  22
196 197  22
197 16  22
9 198  23
198 199  23
199 17  23
18 200  24
200 201  24
201 202  24
202 203  24
203 204  24
204 205  24
205 206  24
206 207  24
207 17  24
18 208  25
208 209  25
209 210  25
210 211  25
211 212  25
212 213  25
213 214  25
214 215  25
215 216  25
216 217  25
217 16  25
19 218  26
218 219  26
219 220  26
220 221  26
221 222  26
222 223  26
223 224  26
224 225  26
225 18  26
20 226  27
226 227  27
227 228  27
228 229  27
229 230  27
230 231  27
231 232  27
232 233  27
233 19  27
20 234  28
234 235  28
235 236  28
236 237  28
237 238  28
238 239  28
239 240  28
240 241  28
241 242  28
242 243  28
243 18  28
15 244  29
244 245  29
245 246  29
246 247  29
247 248  29
248 249  29
249 250  29
250 251  29
251 21  29
14 252  30
252 253  30
253 254  30
254 255  30
255 256  30
256 257  30
257 258  30
258 259  30
259 260  30
260 261  30
261 21  30
22 262  31
262 263  31
263 264  31
264 265  31
265 266  31
266 267  31
267 268  31
268 269  31
269 23  31
21 270  32
270 271  32
271 272  32
272 273  32
273 274  32
274 275  32
275 276  32
276 277  32
277 22  32
21 278  33
278 279  33
279 280  33
280 281  33
281 282  33
282 283  33
283 284  33
284 285  33
285 286  33
286 287  33
287 23  33
20 288  34
288 289  34
289 290  34
290 291  34
291 292  34
292 293  34
293 294  34
294 295  34
295 296  34
296 297  34
297 23  34
24 298  35
298 299  35
299 300  35
300 301  35
301 302  35
302 303  35
303 304  35
304 305  35
305 20  35
23 306  36
306 307  36
307 308  36
308 309  36
309 310  36
310 311  36
311 312  36
312 313  36
313 24  36
10 314  37
314 19  37
11 315  38
315 316  38
316 24  38
12 317  39
317 22  39
3 318  40
318 319  40
319 320  40
320 321  40
321 322  40
322 323  40
323 324  40
324 325  40
325 326  40
326 327  40
327 328  40
328 329  40
329 330  40
330 331  40
331 332  40
332 333  40
333 334  40
334 4  40
End
