MeshVersionFormatted 1

Dimension
3

Vertices
805
-406.15926171300498  190.01959871153201  236.21196011035099  0
-406.15926171300498  190.01959871153201  96.2119601103512  0
-406.15926171300498  190.01959871153201  220.21196011035099  0
-406.15926171300498  190.01959871153201  112.211960110351  0
-406.15926171300498  265.01959871153201  220.21196011035099  0
-406.15926171300498  265.01959871153201  112.211960110351  0
-406.15926171300498  265.01959871153201  270.71196011035101  0
-406.15926171300498  265.01959871153201  286.71196011035101  0
-406.15926171300498  227.01959871153201  286.71196011035101  0
-406.15926171300498  227.01959871153201  270.71196011035101  0
-406.15926171300498  265.01959871153201  45.711960110351399  0
-406.15926171300498  265.01959871153201  61.711960110351399  0
-406.15926171300498  227.01959871153201  61.711960110351299  0
-406.15926171300498  227.01959871153201  45.711960110351299  0
-473.36924774352099  265.01959871153201  95.578626777018002  0
-473.36924774352099  265.01959871153201  236.84529344368499  0
-473.36924774352201  227.01959871153201  95.578626777017902  0
-473.36924774352099  227.01959871153201  236.84529344368499  0
-338.94927568248801  265.01959871153201  236.84529344368499  0
-338.94927568248897  265.01959871153201  95.578626777018101  0
-338.94927568248897  227.01959871153201  236.84529344368499  0
-338.94927568248897  227.01959871153201  95.578626777018002  0
-395.12993096773499  265.01959871153201  42.120848717933697  0
-395.12993096773499  227.01959871153201  42.120848717933598  0
-406.15926171300498  265.01959871153201  37.711959947222603  0
-406.15926171300498  227.01959871153201  37.711959947222503  0
-417.18859245827502  227.01959871153201  42.120848717933598  0
-417.18859245827502  265.01959871153201  42.120848717933697  0
-406.15926171300498  227.01959871153201  236.21196011035099  0
-406.15926171300498  227.01959871153201  96.211960110351299  0
-417.18859245827502  265.01959871153201  290.303071502769  0
-417.18859245827502  227.01959871153201  290.303071502769  0
-406.15926171300498  265.01959871153201  294.71196027347997  0
-395.12993096773499  265.01959871153201  290.303071502769  0
-395.12993096773499  227.01959871153201  290.303071502769  0
-406.15926171300498  227.01959871153201  294.71196027347997  0
-394.0038892763198  190.01959871153184  235.14850282120557  0
-382.21785168020813  190.01959871153181  231.99044356536456  0
-371.15926171300498  190.01959871153181  226.83373837526167  0
-361.16412903494722  190.01959871153181  219.83507112867943  0
-352.53615069467651  190.01959871153181  211.20709278840872  0
-345.53748344809424  190.01959871153184  201.21196011035096  0
-340.38077825799138  190.01959871153184  190.15337014314778  0
-337.22271900215043  190.01959871153187  178.36733254703609  0
-336.15926171300498  190.0195987115319  166.21196011035096  0
-337.22271900215043  190.01959871153193  154.05658767366583  0
-340.38077825799144  190.01959871153196  142.27055007755413  0
-345.53748344809429  190.01959871153198  131.21196011035096  0
-352.53615069467656  190.01959871153201  121.2168274322932  0
-361.16412903494722  190.01959871153207  112.58884909202251  0
-371.15926171300504  190.0195987115321  105.59018184544027  0
-382.21785168020818  190.01959871153213  100.43347665533739  0
-394.00388927631985  190.01959871153215  97.275417399496419  0
-418.31463414969011  190.01959871153218  97.275417399496419  0
-430.10067174580183  190.01959871153221  100.43347665533742  0
-441.15926171300498  190.01959871153221  105.59018184544028  0
-451.15439439106274  190.01959871153221  112.58884909202254  0
-459.78237273133345  190.01959871153221  121.21682743229326  0
-466.78103997791567  190.01959871153218  131.21196011035099  0
-471.93774516801858  190.01959871153218  142.27055007755422  0
-475.09580442385953  190.01959871153215  154.05658767366589  0
-476.15926171300498  190.01959871153213  166.21196011035101  0
-475.09580442385953  190.0195987115321  178.36733254703611  0
-471.93774516801858  190.01959871153207  190.15337014314778  0
-466.78103997791567  190.01959871153204  201.21196011035101  0
-459.78237273133345  190.01959871153201  211.20709278840877  0
-451.15439439106274  190.01959871153196  219.83507112867946  0
-441.15926171300498  190.01959871153193  226.8337383752617  0
-430.10067174580178  190.0195987115319  231.99044356536459  0
-418.31463414969005  190.01959871153187  235.14850282120557  0
-415.53626330701917  190.0195987115319  219.39157877301022  0
-424.62834945259107  190.01959871153193  216.95536163279004  0
-433.15926171300492  190.01959871153196  212.9773319147107  0
-440.8697926360781  190.01959871153198  207.57836003877583  0
-447.52566164142979  190.01959871153201  200.92249103342414  0
-452.92463351736467  190.01959871153204  193.21196011035104  0
-456.90266323544404  190.01959871153207  184.6810478499371  0
-459.33888037566419  190.01959871153207  175.58896170436526  0
-460.15926171300498  190.0195987115321  166.21196011035101  0
-459.33888037566425  190.01959871153213  156.8349585163368  0
-456.90266323544404  190.01959871153215  147.74287237076493  0
-452.92463351736467  190.01959871153215  139.21196011035101  0
-447.52566164142979  190.01959871153215  131.50142918727789  0
-440.86979263607816  190.01959871153215  124.8455601819262  0
-433.15926171300504  190.01959871153215  119.44658830599133  0
-424.62834945259112  190.01959871153215  115.46855858791193  0
-415.53626330701923  190.01959871153215  113.03234144769176  0
-396.78226011899079  190.01959871153213  113.03234144769175  0
-387.69017397341889  190.0195987115321  115.46855858791193  0
-379.15926171300498  190.01959871153207  119.44658830599128  0
-371.44873078993186  190.01959871153204  124.84556018192616  0
-364.79286178458017  190.01959871153201  131.50142918727784  0
-359.39388990864529  190.01959871153198  139.21196011035096  0
-355.41586019056592  190.01959871153196  147.74287237076484  0
-352.97964305034577  190.01959871153196  156.83495851633671  0
-352.15926171300498  190.01959871153193  166.21196011035096  0
-352.97964305034577  190.0195987115319  175.5889617043652  0
-355.41586019056592  190.01959871153187  184.68104784993707  0
-359.39388990864529  190.01959871153187  193.21196011035096  0
-364.79286178458017  190.01959871153187  200.92249103342408  0
-371.4487307899318  190.01959871153187  207.57836003877577  0
-379.15926171300498  190.01959871153187  212.97733191471065  0
-387.69017397341884  190.01959871153187  216.95536163279002  0
-396.78226011899068  190.01959871153187  219.39157877301022  0
-406.15926171300498  227.51959871153201  220.21196011035099  0
-415.53626330701917  265.0195987115319  219.39157877301022  0
-424.62834945259107  265.0195987115319  216.95536163279004  0
-433.15926171300492  265.01959871153196  212.9773319147107  0
-440.8697926360781  265.01959871153196  207.57836003877583  0
-447.52566164142979  265.01959871153201  200.92249103342414  0
-452.92463351736467  265.01959871153201  193.21196011035104  0
-456.90266323544404  265.01959871153207  184.6810478499371  0
-459.33888037566419  265.01959871153207  175.58896170436526  0
-460.15926171300498  265.01959871153213  166.21196011035101  0
-459.33888037566425  265.01959871153213  156.8349585163368  0
-456.90266323544404  265.01959871153213  147.74287237076493  0
-452.92463351736467  265.01959871153213  139.21196011035101  0
-447.52566164142979  265.01959871153218  131.50142918727789  0
-440.86979263607816  265.01959871153218  124.8455601819262  0
-433.15926171300504  265.01959871153218  119.44658830599133  0
-424.62834945259112  265.01959871153218  115.46855858791193  0
-415.53626330701923  265.01959871153213  113.03234144769176  0
-406.15926171300498  227.51959871153201  112.211960110351  0
-396.78226011899079  265.01959871153213  113.03234144769175  0
-387.69017397341889  265.01959871153213  115.46855858791193  0
-379.15926171300498  265.01959871153207  119.44658830599128  0
-371.44873078993186  265.01959871153207  124.84556018192616  0
-364.79286178458017  265.01959871153201  131.50142918727784  0
-359.39388990864529  265.01959871153201  139.21196011035096  0
-355.41586019056592  265.01959871153196  147.74287237076484  0
-352.97964305034577  265.01959871153196  156.83495851633671  0
-352.15926171300498  265.0195987115319  166.21196011035096  0
-352.97964305034577  265.0195987115319  175.5889617043652  0
-355.41586019056592  265.0195987115319  184.68104784993707  0
-359.39388990864529  265.0195987115319  193.21196011035096  0
-364.79286178458017  265.01959871153184  200.92249103342408  0
-371.4487307899318  265.01959871153184  207.57836003877577  0
-379.15926171300498  265.01959871153184  212.97733191471065  0
-387.69017397341884  265.01959871153184  216.95536163279002  0
-396.78226011899068  265.0195987115319  219.39157877301022  0
-404.77007629166957  265.01959871153201  270.83349808625337  0
-403.42310056639963  265.01959871153201  271.19441914406377  0
-402.15926171300498  265.01959871153201  271.78375688007549  0
-401.01696083551269  265.01959871153201  272.58360456539918  0
-400.03090616805315  265.01959871153201  273.56965923285873  0
-399.23105848272945  265.01959871153201  274.71196011035101  0
-398.64172074671774  265.01959871153201  275.97579896374566  0
-398.28079968890734  265.01959871153201  277.32277468901555  0
-398.15926171300498  265.01959871153201  278.71196011035101  0
-398.28079968890734  265.01959871153201  280.10114553168643  0
-398.64172074671774  265.01959871153201  281.44812125695637  0
-399.23105848272945  265.01959871153201  282.71196011035101  0
-400.03090616805315  265.01959871153201  283.8542609878433  0
-401.01696083551263  265.01959871153201  284.84031565530285  0
-402.15926171300498  265.01959871153201  285.64016334062654  0
-403.42310056639963  265.01959871153201  286.22950107663826  0
-404.77007629166951  265.01959871153201  286.59042213444866  0
-406.15926171300492  255.51959871153201  286.71196011035107  0
-406.15926171300492  246.01959871153201  286.71196011035107  0
-406.15926171300498  236.51959871153201  286.71196011035101  0
-404.77007629166951  227.01959871153198  286.59042213444866  0
-403.42310056639963  227.01959871153198  286.22950107663826  0
-402.15926171300498  227.01959871153198  285.64016334062654  0
-401.01696083551269  227.01959871153198  284.84031565530285  0
-400.03090616805315  227.01959871153198  283.8542609878433  0
-399.23105848272945  227.01959871153198  282.71196011035101  0
-398.64172074671774  227.01959871153198  281.44812125695637  0
-398.28079968890734  227.01959871153198  280.10114553168643  0
-398.15926171300498  227.01959871153201  278.71196011035101  0
-398.28079968890734  227.01959871153201  277.32277468901555  0
-398.64172074671774  227.01959871153201  275.97579896374566  0
-399.23105848272945  227.01959871153201  274.71196011035101  0
-400.03090616805315  227.01959871153201  273.56965923285873  0
-401.01696083551269  227.01959871153201  272.58360456539918  0
-402.15926171300498  227.01959871153201  271.78375688007549  0
-403.42310056639963  227.01959871153201  271.19441914406377  0
-404.77007629166957  227.01959871153204  270.83349808625337  0
-406.15926171300498  236.51959871153201  270.71196011035101  0
-406.15926171300492  246.01959871153201  270.71196011035107  0
-406.15926171300492  255.51959871153201  270.71196011035107  0
-407.54844713434045  227.01959871153204  270.83349808625337  0
-408.89542285961033  227.01959871153204  271.19441914406377  0
-410.15926171300498  227.01959871153204  271.78375688007549  0
-411.30156259049727  227.01959871153204  272.58360456539918  0
-412.28761725795681  227.01959871153204  273.56965923285873  0
-413.08746494328051  227.01959871153204  274.71196011035101  0
-413.67680267929222  227.01959871153204  275.97579896374566  0
-414.03772373710262  227.01959871153204  277.3227746890156  0
-414.15926171300498  227.01959871153201  278.71196011035101  0
-414.03772373710262  227.01959871153201  280.10114553168648  0
-413.67680267929222  227.01959871153201  281.44812125695637  0
-413.08746494328051  227.01959871153201  282.71196011035101  0
-412.28761725795681  227.01959871153201  283.8542609878433  0
-411.30156259049727  227.01959871153201  284.84031565530285  0
-410.15926171300498  227.01959871153201  285.64016334062654  0
-408.89542285961033  227.01959871153201  286.22950107663826  0
-407.54844713434045  227.01959871153198  286.59042213444866  0
-407.54844713434039  265.01959871153201  286.59042213444866  0
-408.89542285961033  265.01959871153201  286.22950107663826  0
-410.15926171300498  265.01959871153201  285.64016334062654  0
-411.30156259049727  265.01959871153201  284.84031565530285  0
-412.28761725795681  265.01959871153201  283.85426098784336  0
-413.08746494328051  265.01959871153201  282.71196011035101  0
-413.67680267929222  265.01959871153201  281.44812125695637  0
-414.03772373710262  265.01959871153201  280.10114553168648  0
-414.15926171300498  265.01959871153201  278.71196011035101  0
-414.03772373710262  265.01959871153201  277.3227746890156  0
-413.67680267929222  265.01959871153201  275.97579896374566  0
-413.08746494328051  265.01959871153201  274.71196011035101  0
-412.28761725795681  265.01959871153201  273.56965923285873  0
-411.30156259049733  265.01959871153201  272.58360456539918  0
-410.15926171300498  265.01959871153201  271.78375688007549  0
-408.89542285961033  265.01959871153201  271.19441914406377  0
-407.54844713434045  265.01959871153201  270.83349808625337  0
-404.77007629166957  265.01959871153201  45.833498086253734  0
-403.42310056639963  265.01959871153201  46.194419144064128  0
-402.15926171300498  265.01959871153201  46.783756880075885  0
-401.01696083551269  265.01959871153201  47.583604565399568  0
-400.03090616805315  265.01959871153201  48.569659232859081  0
-399.23105848272945  265.01959871153201  49.711960110351392  0
-398.64172074671774  265.01959871153201  50.975798963746044  0
-398.28079968890734  265.01959871153201  52.322774689015951  0
-398.15926171300498  265.01959871153201  53.711960110351392  0
-398.28079968890734  265.01959871153201  55.101145531686839  0
-398.64172074671774  265.01959871153201  56.448121256956746  0
-399.23105848272945  265.01959871153201  57.711960110351392  0
-400.03090616805315  265.01959871153201  58.854260987843709  0
-401.01696083551263  265.01959871153201  59.840315655303222  0
-402.15926171300498  265.01959871153201  60.640163340626906  0
-403.42310056639963  265.01959871153201  61.229501076638662  0
-404.77007629166951  265.01959871153201  61.590422134449064  0
-406.15926171300492  255.51959871153201  61.711960110351363  0
-406.15926171300492  246.01959871153201  61.711960110351342  0
-406.15926171300498  236.51959871153201  61.71196011035132  0
-404.77007629166951  227.01959871153198  61.590422134448964  0
-403.42310056639963  227.01959871153198  61.229501076638563  0
-402.15926171300498  227.01959871153198  60.640163340626806  0
-401.01696083551269  227.01959871153198  59.840315655303122  0
-400.03090616805315  227.01959871153198  58.85426098784361  0
-399.23105848272945  227.01959871153198  57.711960110351299  0
-398.64172074671774  227.01959871153198  56.448121256956647  0
-398.28079968890734  227.01959871153198  55.10114553168674  0
-398.15926171300498  227.01959871153201  53.711960110351299  0
-398.28079968890734  227.01959871153201  52.322774689015858  0
-398.64172074671774  227.01959871153201  50.975798963745952  0
-399.23105848272945  227.01959871153201  49.711960110351292  0
-400.03090616805315  227.01959871153201  48.569659232858982  0
-401.01696083551269  227.01959871153201  47.583604565399476  0
-402.15926171300498  227.01959871153201  46.783756880075792  0
-403.42310056639963  227.01959871153201  46.194419144064028  0
-404.77007629166957  227.01959871153204  45.833498086253634  0
-406.15926171300498  236.51959871153201  45.71196011035132  0
-406.15926171300492  246.01959871153201  45.711960110351342  0
-406.15926171300492  255.51959871153201  45.711960110351363  0
-407.54844713434045  227.01959871153204  45.833498086253634  0
-408.89542285961033  227.01959871153204  46.194419144064035  0
-410.15926171300498  227.01959871153204  46.783756880075792  0
-411.30156259049727  227.01959871153204  47.583604565399476  0
-412.28761725795681  227.01959871153204  48.569659232858989  0
-413.08746494328051  227.01959871153204  49.711960110351299  0
-413.67680267929222  227.01959871153204  50.975798963745952  0
-414.03772373710262  227.01959871153204  52.322774689015858  0
-414.15926171300498  227.01959871153201  53.711960110351299  0
-414.03772373710262  227.01959871153201  55.101145531686747  0
-413.67680267929222  227.01959871153201  56.448121256956654  0
-413.08746494328051  227.01959871153201  57.711960110351299  0
-412.28761725795681  227.01959871153201  58.854260987843617  0
-411.30156259049727  227.01959871153201  59.840315655303122  0
-410.15926171300498  227.01959871153201  60.640163340626813  0
-408.89542285961033  227.01959871153201  61.22950107663857  0
-407.54844713434045  227.01959871153198  61.590422134448964  0
-407.54844713434039  265.01959871153201  61.590422134449064  0
-408.89542285961033  265.01959871153201  61.22950107663867  0
-410.15926171300498  265.01959871153201  60.640163340626913  0
-411.30156259049727  265.01959871153201  59.840315655303229  0
-412.28761725795681  265.01959871153201  58.854260987843716  0
-413.08746494328051  265.01959871153201  57.711960110351406  0
-413.67680267929222  265.01959871153201  56.448121256956753  0
-414.03772373710262  265.01959871153201  55.101145531686846  0
-414.15926171300498  265.01959871153201  53.711960110351406  0
-414.03772373710262  265.01959871153201  52.322774689015965  0
-413.67680267929222  265.01959871153201  50.975798963746058  0
-413.08746494328051  265.01959871153201  49.711960110351399  0
-412.28761725795681  265.01959871153201  48.569659232859088  0
-411.30156259049733  265.01959871153201  47.583604565399582  0
-410.15926171300498  265.01959871153201  46.783756880075892  0
-408.89542285961033  265.01959871153201  46.194419144064135  0
-407.54844713434045  265.01959871153201  45.833498086253734  0
-484.93175082444463  265.0195987115323  108.75636891864792  0
-493.94747881732701  265.01959871153224  123.79169446238032  0
-500.12494631004284  265.01959871153224  140.1984997828593  0
-503.26443103286186  265.01959871153218  157.44634025994063  0
-503.26443103286181  265.01959871153213  174.977579960762  0
-500.12494631004267  265.01959871153213  192.2254204378433  0
-493.94747881732673  265.01959871153207  208.63222575832225  0
-484.93175082444418  265.01959871153201  223.66755130205459  0
-484.93175082444412  227.01959871153201  223.66755130205473  0
-493.94747881732667  227.01959871153207  208.63222575832239  0
-500.12494631004256  227.0195987115321  192.22542043784355  0
-503.26443103286175  227.01959871153215  174.97757996076237  0
-503.26443103286192  227.01959871153218  157.44634025994102  0
-500.12494631004296  227.01959871153221  140.19849978285981  0
-493.94747881732724  227.01959871153224  123.79169446238085  0
-484.93175082444498  227.01959871153227  108.75636891864843  0
-473.36924774352093  246.01959871153201  236.84529344368505  0
-327.38677260156544  265.01959871153173  223.66755130205414  0
-318.37104460868301  265.01959871153178  208.63222575832179  0
-312.19357711596717  265.01959871153178  192.2254204378429  0
-309.05409239314815  265.01959871153184  174.97757996076172  0
-309.05409239314815  265.0195987115319  157.44634025994037  0
-312.19357711596717  265.0195987115319  140.19849978285916  0
-318.37104460868295  265.01959871153196  123.79169446238029  0
-327.38677260156538  265.01959871153201  108.75636891864789  0
-327.38677260156538  227.01959871153201  108.75636891864791  0
-318.37104460868295  227.01959871153196  123.79169446238031  0
-312.19357711596712  227.01959871153193  140.1984997828593  0
-309.0540923931481  227.01959871153187  157.44634025994063  0
-309.05409239314815  227.01959871153184  174.977579960762  0
-312.19357711596729  227.01959871153181  192.2254204378433  0
-318.37104460868323  227.01959871153178  208.63222575832225  0
-327.38677260156578  227.01959871153176  223.66755130205459  0
-338.94927568248892  246.01959871153201  95.578626777018144  0
-346.97508358038101  265.01959871153178  87.941801340005796  0
-355.00089147827333  265.01959871153184  80.30497590299376  0
-363.02669937616565  265.01959871153184  72.668150465981725  0
-371.05250727405792  265.0195987115319  65.031325028969675  0
-379.07831517195024  265.01959871153196  57.39449959195764  0
-387.10412306984256  265.01959871153196  49.757674154945605  0
-388.10734905707932  227.0195987115321  48.803070975319208  0
-381.08476714642353  227.01959871153207  55.485293232704741  0
-374.06218523576774  227.01959871153204  62.167515490090274  0
-367.03960332511201  227.01959871153201  68.849737747475814  0
-360.01702141445622  227.01959871153198  75.531960004861347  0
-352.99443950380044  227.01959871153196  82.214182262246879  0
-345.97185759314465  227.01959871153193  88.896404519632412  0
-395.12993096773499  236.51959871153201  42.120848717933619  0
-395.12993096773494  246.01959871153201  42.12084871793364  0
-395.12993096773494  255.51959871153201  42.120848717933661  0
-406.15926171300498  255.51959871153201  37.711959947222624  0
-406.15926171300498  246.01959871153201  37.711959947222603  0
-406.15926171300498  236.51959871153201  37.711959947222581  0
-397.51940947066987  265.01959871153201  40.245224965879544  0
-400.22031321850989  265.01959871153201  38.855012420920616  0
-403.13528758208503  265.01959871153207  38.000321579178767  0
-403.13528758208503  227.01959871153204  38.000321579178667  0
-400.22031321850989  227.01959871153204  38.855012420920517  0
-397.51940947066987  227.01959871153204  40.245224965879444  0
-414.79911395534015  227.01959871153207  40.245224965879459  0
-412.09821020750007  227.01959871153207  38.855012420920531  0
-409.18323584392499  227.01959871153204  38.000321579178674  0
-417.18859245827502  236.51959871153201  42.120848717933619  0
-417.18859245827497  246.01959871153201  42.12084871793364  0
-417.18859245827497  255.51959871153201  42.120848717933661  0
-409.18323584392493  265.01959871153207  38.000321579178774  0
-412.09821020750007  265.01959871153207  38.85501242092063  0
-414.79911395534015  265.01959871153207  40.245224965879558  0
-425.21440035616746  265.01959871153201  49.757674154945541  0
-433.24020825405978  265.01959871153201  57.394499591957569  0
-441.2660161519521  265.01959871153201  65.031325028969604  0
-449.29182404984437  265.01959871153201  72.668150465981626  0
-457.31763194773669  265.01959871153201  80.304975902993661  0
-465.34343984562895  265.01959871153201  87.941801340005682  0
-465.34343984562918  227.01959871153201  87.941801340006293  0
-457.3176319477368  227.01959871153201  80.304975902994187  0
-449.29182404984442  227.01959871153201  72.668150465982094  0
-441.26601615195204  227.01959871153204  65.031325028969988  0
-433.24020825405967  227.01959871153204  57.394499591957889  0
-425.21440035616729  227.01959871153204  49.757674154945782  0
-418.31463414969011  227.01959871153218  97.275417399496419  0
-430.10067174580183  227.01959871153221  100.43347665533742  0
-441.15926171300498  227.01959871153221  105.59018184544028  0
-451.15439439106274  227.01959871153221  112.58884909202254  0
-459.78237273133345  227.01959871153221  121.21682743229326  0
-466.78103997791567  227.01959871153218  131.21196011035099  0
-471.93774516801858  227.01959871153218  142.27055007755422  0
-475.09580442385953  227.01959871153215  154.05658767366589  0
-476.15926171300498  227.01959871153213  166.21196011035101  0
-475.09580442385953  227.0195987115321  178.36733254703611  0
-471.93774516801858  227.01959871153207  190.15337014314778  0
-466.78103997791567  227.01959871153204  201.21196011035101  0
-459.78237273133345  227.01959871153198  211.20709278840877  0
-451.15439439106274  227.01959871153196  219.83507112867946  0
-441.15926171300498  227.01959871153193  226.8337383752617  0
-430.10067174580178  227.0195987115319  231.99044356536459  0
-418.31463414969005  227.01959871153187  235.14850282120557  0
-394.0038892763198  227.01959871153184  235.14850282120557  0
-382.21785168020813  227.01959871153181  231.99044356536456  0
-371.15926171300498  227.01959871153181  226.83373837526167  0
-361.16412903494722  227.01959871153181  219.83507112867943  0
-352.53615069467651  227.01959871153181  211.20709278840872  0
-345.53748344809424  227.01959871153184  201.21196011035096  0
-340.38077825799138  227.01959871153184  190.15337014314778  0
-337.22271900215043  227.01959871153187  178.36733254703609  0
-336.15926171300498  227.0195987115319  166.21196011035096  0
-337.22271900215043  227.01959871153193  154.05658767366583  0
-340.38077825799144  227.01959871153196  142.27055007755413  0
-345.53748344809429  227.01959871153198  131.21196011035096  0
-352.53615069467656  227.01959871153204  121.2168274322932  0
-361.16412903494722  227.01959871153207  112.58884909202251  0
-371.15926171300504  227.0195987115321  105.59018184544027  0
-382.21785168020818  227.01959871153213  100.43347665533739  0
-394.00388927631985  227.01959871153215  97.275417399496419  0
-466.34666583286531  265.01959871153196  243.5275157010706  0
-459.32408392220958  265.01959871153196  250.20973795845609  0
-452.30150201155379  265.0195987115319  256.89196021584161  0
-445.27892010089806  265.0195987115319  263.5741824732271  0
-438.25633819024233  265.01959871153184  270.25640473061259  0
-431.23375627958654  265.01959871153184  276.93862698799808  0
-424.21117436893081  265.01959871153178  283.62084924538357  0
-424.21117436893059  227.01959871153193  283.62084924538334  0
-431.23375627958637  227.01959871153196  276.93862698799785  0
-438.2563381902421  227.01959871153198  270.25640473061236  0
-445.27892010089784  227.01959871153201  263.57418247322681  0
-452.30150201155362  227.01959871153204  256.89196021584132  0
-459.32408392220935  227.01959871153207  250.20973795845583  0
-466.34666583286514  227.0195987115321  243.52751570107034  0
-417.18859245827502  236.51959871153201  290.303071502769  0
-417.18859245827497  246.01959871153201  290.30307150276906  0
-417.18859245827497  255.51959871153201  290.30307150276906  0
-414.79911395534009  265.01959871153201  292.17869525482308  0
-412.09821020750007  265.01959871153201  293.56890779978198  0
-409.18323584392493  265.01959871153196  294.42359864152382  0
-403.13528758208503  265.01959871153196  294.42359864152382  0
-400.22031321850994  265.01959871153196  293.56890779978198  0
-397.51940947066987  265.01959871153196  292.17869525482308  0
-385.76648842019375  265.01959871153196  281.39344182625513  0
-376.40304587265268  265.01959871153196  272.48381214974103  0
-367.03960332511161  265.01959871153196  263.57418247322693  0
-357.67616077757054  265.01959871153201  254.6645527967128  0
-348.31271823002942  265.01959871153201  245.75492312019873  0
-395.12993096773499  236.51959871153201  290.303071502769  0
-395.12993096773494  246.01959871153201  290.30307150276906  0
-395.12993096773494  255.51959871153201  290.30307150276906  0
-346.97508358038078  227.01959871153201  244.4821188806975  0
-355.00089147827305  227.01959871153201  252.11894431770952  0
-363.02669937616537  227.01959871153201  259.75576975472154  0
-371.05250727405763  227.01959871153198  267.39259519173356  0
-379.0783151719499  227.01959871153198  275.02942062874553  0
-387.10412306984222  227.01959871153198  282.66624606575755  0
-397.51940947066987  227.01959871153196  292.17869525482308  0
-400.22031321850989  227.01959871153196  293.56890779978198  0
-403.13528758208503  227.01959871153198  294.42359864152382  0
-409.18323584392493  227.01959871153198  294.42359864152382  0
-412.09821020750007  227.01959871153198  293.56890779978198  0
-414.79911395534009  227.01959871153198  292.17869525482308  0
-406.15926171300498  236.51959871153201  294.71196027347997  0
-406.15926171300498  246.01959871153201  294.71196027347997  0
-406.15926171300498  255.51959871153201  294.71196027347997  0
-459.33971278969199  227.51959871974259  175.58423962390054  0
-452.9267105559378  227.5195987130152  193.20836225440831  0
-452.92248547167998  227.51959865227917  139.20823992782624  0
-459.3380377919832  227.51959870066088  156.83018124161333  0
-424.62985157491624  227.51959871140087  216.95481487979671  0
-440.87211967143588  227.51959871114153  207.57640731272272  0
-440.86734315414611  227.51959885917992  124.84350494611846  0
-424.62674998399132  227.51959859066656  115.4679764574983  0
-371.44657965056751  227.51960053472646  124.84736529749043  0
-359.39294981968118  227.51959547569857  139.21358845766864  0
-371.44465655489586  227.51959700292034  207.57494100772567  0
-359.39125773658151  227.51960181039433  193.20740054130596  0
-387.687053899484  227.51959938646138  216.95422591011692  0
-352.97906389259208  227.51959448446658  175.58567654417539  0
-352.97973238862926  227.51960300318754  156.83445186786645  0
-387.68830848992036  227.51959798242981  115.46923760721148  0
-400.99121538154577  249.49072335618021  272.6053000481001  0
-400.64775028921736  236.60855338328815  272.91340496053499  0
-401.27947660104559  231.68015672319802  285.05133683532165  0
-403.30148609933462  242.57539105672635  271.23980389263778  0
-399.24133006150856  233.00539788715  282.72969848725216  0
-403.56725742042704  237.33232878036395  286.28041528609583  0
-399.06325154140842  252.51570090257792  282.40609595579565  0
-398.34925804641654  259.9308935148706  280.44511986290604  0
-398.23724482593025  259.29337899477582  277.59766731179957  0
-403.43262994143458  259.4885934537923  286.23296264872744  0
-401.35654685915023  260.28032006184657  272.31399715073934  0
-399.09181778864837  245.08809119697901  274.96346222772189  0
-402.96971699421317  231.96875899581514  271.37528480836119  0
-403.64799433281161  254.84626883281521  271.11633399098628  0
-400.56652943793671  243.34613576648823  284.43221759576289  0
-398.19018549791627  232.41613598786191  279.41468642842028  0
-401.1061658810915  256.63114528475643  284.91407446865657  0
-398.54783548316834  242.53866119021532  281.17492392408337  0
-398.20105621372244  242.60951135905287  277.89528071720486  0
-399.25040726265757  257.54799933452625  274.67863267708759  0
-398.19110283911857  251.34320310468479  279.42501281563045  0
-398.73667569794867  233.09976638889913  275.72779911451147  0
-399.44817546404602  261.30778466669756  283.06642004919939  0
-398.37686746689934  251.1756841039203  276.85876292759303  0
-403.37159770667097  249.72268357641892  286.21055527129886  0
-413.34164302720882  258.71014151884657  275.18869477016244  0
-408.8139209886611  249.68732194570347  271.16525327026693  0
-408.88724347544513  259.49144182423095  271.19144712892529  0
-414.12896678943662  251.07666993366263  278.01640206482307  0
-410.87267329803444  231.97787344247647  272.24792489772187  0
-413.99071000606392  239.67175718166504  277.07843091466964  0
-414.07023163656754  260.7210714068118  277.52176900448296  0
-413.64476453064765  250.29649314603756  281.5345914300708  0
-413.33245451341492  232.94063693088634  282.25389532265336  0
-408.73411799467584  254.77588053384338  286.28626635770735  0
-411.40099640550693  234.94710481386011  284.75548701220407  0
-414.04290706964605  259.47900299310163  280.07142172831266  0
-411.00498625216255  260.44992367309703  285.0774101094168  0
-411.32792456555978  256.6822104536742  272.60582186129221  0
-411.12850560211456  243.07786760021224  272.44246131295529  0
-411.67208652864349  249.0966516338697  284.50926660147951  0
-414.01958299308268  241.22370665082829  280.20036508681312  0
-412.83761668854794  235.35561506219889  274.30746526750693  0
-414.14404584885864  231.65088059891821  279.20513584355291  0
-413.04284448537192  241.70151988891567  282.78826827043576  0
-412.98970161599755  259.1975429118566  282.87670388777684  0
-413.81204259645125  231.28983288907656  276.38066331458282  0
-408.59110193767197  237.33180811337982  271.09053287382301  0
-408.92871031474687  232.47189045640974  286.21730183756836  0
-413.11451045465736  247.42969128729234  274.75917439117239  0
-408.97234807892795  242.30530134190784  286.20105518905439  0
-398.19018549791627  232.41613598786191  54.414686428420573  0
-399.09181778864837  245.08809119697901  49.963462227722182  0
-398.20105621372244  242.60951135905287  52.895280717205146  0
-403.30148609933462  242.57539105672635  46.239803892638065  0
-399.24133006150856  233.00539788715  57.729698487252421  0
-400.99121538154577  249.49072335618021  47.605300048100368  0
-403.37159770667097  249.72268357641892  61.210555271299171  0
-401.35654685915023  260.28032006184657  47.313997150739652  0
-398.73667569794867  233.09976638889913  50.727799114511733  0
-399.06325154140842  252.51570090257792  57.406095955795948  0
-400.56652943793671  243.34613576648823  59.43221759576317  0
-401.1061658810915  256.63114528475643  59.914074468656857  0
-398.34925804641654  259.9308935148706  55.445119862906303  0
-399.25040726265757  257.54799933452625  49.678632677087897  0
-403.64799433281161  254.84626883281521  46.116333990986547  0
-398.19110283911857  251.34320310468479  54.425012815630716  0
-398.23724482593025  259.29337899477582  52.597667311799874  0
-402.96971699421317  231.96875899581514  46.375284808361485  0
-398.37686746689934  251.1756841039203  51.858762927593304  0
-401.27947660104559  231.68015672319802  60.051336835321933  0
-399.44817546404602  261.30778466669756  58.066420049199657  0
-403.43262994143458  259.4885934537923  61.232962648727707  0
-398.54783548316834  242.53866119021529  56.174923924083664  0
-400.64775028921736  236.60855338328815  47.91340496053526  0
-403.56725742042704  237.33232878036395  61.280415286096087  0
-414.15908761766906  239.92468143393239  53.659182320841317  0
-413.50482332881637  242.43088532655793  50.542934306051556  0
-413.72640903366357  259.12503026200113  51.116140119009707  0
-409.45597401719942  260.68772464675965  46.422811464359  0
-409.34198174516428  240.99160157435904  46.372321618103115  0
-413.69413546733341  248.18771199163439  56.400022145783574  0
-409.07632547182953  232.0324573508972  61.161170741482124  0
-408.83020896949961  255.11616777808106  61.252917659165945  0
-413.25356416314997  251.19097104666105  50.014545777893346  0
-411.82755832216196  246.36580811751287  48.066571412429901  0
-409.47158316960304  231.42225820953516  46.42989127188514  0
-412.01365491635022  257.96029314976431  48.259797216542665  0
-413.04800486991064  259.27075766878301  57.77954142093197  0
-413.78976440041896  232.66276422668403  51.308747939658033  0
-409.32625027516616  251.25710174369115  46.365519921583726  0
-414.14372908353624  230.85716738247459  54.21023795344869  0
-413.5312900652068  235.33219823972897  56.818919713296381  0
-412.27840143514015  241.87578250499521  58.865224033438054  0
-414.12284290129861  259.59207520620373  54.474439393646826  0
-412.08323214334678  234.36645510308421  48.335476655486417  0
-409.58382798593107  242.17776225817511  60.941921786759927  0
-411.03108314909809  260.81523773753395  60.057458979220776  0
-411.61221337923035  232.4374181308028  59.565618635223565  0
-414.09059821897665  250.07513608146047  52.666062778372442  0
-411.68379123109878  251.24090305692724  59.49811372080017  0
-353.80600894480534  245.66677129171319  81.441946715393868  0
-383.33923516538914  245.73462446226071  53.34009128752907  0
-367.48175431175775  243.21155512910647  68.429016251923798  0
-400.22031322154476  256.87523060001183  38.855012419707407  0
-400.22031322154476  235.16396682305222  38.855012419707371  0
-412.09821021053494  256.87523060001183  38.855012422133782  0
-412.09821021053494  235.16396682305225  38.855012422133719  0
-426.4556321993669  246.00135382991934  50.938747890321977  0
-443.18329331332126  246.00325049588557  66.855678562224995  0
-428.39282335312072  246.01962934824303  279.64186996536557  0
-444.92543692380445  246.02088599267535  263.91053357366786  0
-459.2851056042033  246.02160335310228  250.24682713554924  0
-410.35490371852927  265.01959871153201  44.935229022250184  0
-416.67103514175551  265.01959871153201  53.412801471002567  0
-397.36582094870698  265.01959871153201  56.552854835520222  0
-392.74909499628961  265.01959871153201  53.633085477214514  0
-402.19484601139419  265.01959871153201  66.83491915093407  0
-404.99546703951597  265.01959871153201  268.99915049529375  0
-409.91760339803182  265.01959871153201  64.794870374393184  0
-470.38748363058335  265.01959871153201  135.72155214425032  0
-395.34019457510004  265.01959871153201  245.7459997684245  0
-440.66040832687014  265.01959871153201  99.816290882073829  0
-413.71726603418006  265.01959871153201  85.705364293382999  0
-461.13723601368173  265.01959871153201  221.88289807460401  0
-412.87765577288258  265.01959871153201  264.7679902249489  0
-344.48043160819361  265.01959871153201  211.63572386773441  0
-391.26111041614888  265.01959871153201  269.78254728245798  0
-394.20886942105358  265.01959871153201  279.51995137608134  0
-401.87823709527663  265.01959871153201  287.61852863583681  0
-399.41813680932643  265.01959871153201  264.68870246816493  0
-396.66903634031593  265.01959871153201  94.723746235095774  0
-389.8267725011417  265.01959871153201  257.19881341286407  0
-396.75710348251312  265.01959871153201  273.27401740549755  0
-405.59427772923812  265.01959871153201  264.06596505223359  0
-411.7616055977083  265.01959871153201  269.85021653304352  0
-413.21140860705157  265.01959871153201  287.56971192669778  0
-421.21532402389442  265.01959871153201  60.30629501265441  0
-452.70017400797082  265.01959871153201  111.44287684035581  0
-403.28157655528366  265.01959871153201  291.43073009550665  0
-396.47476281103144  265.01959871153201  53.930637058344892  0
-412.76652646325732  265.01959871153201  42.278676554036565  0
-414.48248427058559  265.01959871153201  271.99270993190373  0
-468.17609112904387  265.01959871153201  202.775071849348  0
-421.9048659528645  265.01959871153201  65.986464710346596  0
-414.49527014378259  265.01959871153201  66.28842748859222  0
-420.47244581805859  265.01959871153201  53.118245157528719  0
-396.3058252363432  265.01959871153201  276.72694617765933  0
-398.67410191412102  265.01959871153201  46.928155709113597  0
-432.07277532504349  265.01959871153201  70.602119707694968  0
-420.01947080930523  265.01959871153201  270.72859772532422  0
-435.61140772243698  265.01959871153201  252.08337368302821  0
-383.41284168804253  265.01959871153201  64.453383832940773  0
-404.94329272321534  265.01959871153201  288.27521275874221  0
-394.62761120905066  265.01959871153201  56.416463436814155  0
-416.55870199394133  265.01959871153201  274.45423131489758  0
-408.25877467859181  265.01959871153201  268.6121815271527  0
-442.66250173916472  265.01959871153201  230.72817300648228  0
-402.39551443143728  265.01959871153201  75.917454022557294  0
-410.38540530858501  265.01959871153201  287.14410476761384  0
-391.66645037043497  265.01959871153201  275.57256965357834  0
-421.91512267111767  265.01959871153201  276.18765038418991  0
-408.87368222573008  265.01959871153201  41.023520000470533  0
-334.34542303333717  265.01959871153201  166.2199723793434  0
-407.97023829476626  265.01959871153201  288.11359830285829  0
-428.02746233629887  265.01959871153201  270.22792924700872  0
-383.08168680740533  265.01959871153201  264.70690258212323  0
-418.05180588327931  265.01959871153201  73.807772560195318  0
-415.81221954598743  265.01959871153201  284.23971013342452  0
-332.11180362627033  265.01959871153201  146.80091748147376  0
-410.68736908976433  265.01959871153201  290.59017894303219  0
-402.61451165492326  265.01959871153201  62.666521226923884  0
-416.082582239413  265.01959871153201  233.49469130741289  0
-399.33556508016898  265.01959871153201  258.33118232720528  0
-396.23254723784612  265.01959871153201  228.4344253518191  0
-395.78896314946331  265.01959871153201  49.904354674428738  0
-480.24487963927282  265.01959871153201  146.86886373208668  0
-416.23801229142771  265.01959871153201  277.16935016309753  0
-366.71374708134925  265.01959871153201  116.75665575458402  0
-360.36268290736632  265.01959871153201  221.50579503862394  0
-389.67461696811392  265.01959871153201  58.237702438367222  0
-432.82325293237398  265.01959871153201  83.374598426610731  0
-408.38889382319792  265.01959871153201  62.630613847534981  0
-398.9140941306805  265.01959871153201  286.7586415431212  0
-399.17327325234629  265.01959871153201  63.281401215469209  0
-400.784811743403  265.01959871153201  43.795556353082119  0
-479.93673557216817  265.01959871153201  186.45341225314007  0
-375.35253940308826  265.01959871153201  234.92167516682267  0
-411.6527122228793  265.01959871153201  62.196104959687212  0
-407.2247729480988  265.01959871153201  44.187774151338154  0
-413.49900827651436  265.01959871153201  59.845029657841764  0
-332.05415275764324  265.01959871153201  185.57564640882126  0
-408.87463575163099  265.01959871153201  68.643911159828193  0
-467.96377396631073  265.01959871153201  120.88273428280715  0
-415.6195991293983  265.01959871153201  55.51541234093348  0
-406.13994381128072  265.01959871153201  64.13949046187841  0
-422.77019479302044  265.01959871153201  263.46508516965042  0
-416.49582434317301  265.01959871153201  62.169813968053127  0
-416.38038406043739  265.01959871153201  268.14993950512661  0
-341.95467170404044  265.01959871153201  196.73860826180731  0
-393.86739368260447  265.01959871153201  66.265805105949397  0
-429.05964649127628  265.01959871153201  62.656851132645684  0
-416.09873299345674  265.01959871153201  58.295969785294922  0
-383.30825389188919  265.01959871153201  75.330745372100225  0
-400.31164693790112  265.01959871153201  60.84484872866414  0
-342.47133629750186  265.01959871153201  135.28893394696112  0
-385.64558130969021  265.01959871153201  272.77059230922004  0
-416.70174986906909  265.01959871153201  49.714140319638553  0
-399.79883194195611  265.01959871153201  271.39980328510393  0
-477.92719818535573  265.01959871153201  166.33058959773578  0
-412.513355568755  265.01959871153201  254.54490777915825  0
-395.8310587420188  265.01959871153201  283.65939352344537  0
-417.13539667124923  265.01959871153201  280.22635494362032  0
-407.05058380302609  265.01959871153201  291.25745300548192  0
-404.39111944436502  265.01959871153201  41.141567993486269  0
-378.05211106380835  265.01959871153201  253.45518228063605  0
-404.45370526653818  265.01959871153201  44.466463024683108  0
-347.03150685154736  265.01959871153201  118.779314651231  0
-424.70432328477301  265.01959871153201  56.562066169660142  0
-419.12166380212534  265.01959871153201  56.192924364549782  0
-399.48269559002881  265.01959871153201  290.29018896757032  0
-433.9864792226499  265.01959871153201  263.9075549654375  0
-418.60738330201411  265.01959871153201  100.63524227045087  0
-397.05712189592651  265.01959871153201  268.59476642952421  0
-396.79812436963704  265.01959871153201  59.769943435875369  0
-358.14738539452719  265.01959871153201  99.194351906614713  0
-413.3683014561492  265.01959871153201  46.403014910775852  0
-393.33008746805933  265.01959871153201  263.86257629261138  0
-372.64698770747208  265.01959871153201  88.169658681861918  0
-445.05699124794558  265.01959871153201  214.80351763365769  0
-379.69287444977073  265.01959871153201  106.70771329692953  0
-401.77679502348605  265.01959871153201  268.65770621860707  0
-397.40195329952877  265.01959871153201  281.04664044783539  0
-368.98528163824898  245.71164937070762  265.42556065509325  0
-385.3445282434173  245.97419411929309  280.99193256358501  0
-352.2373334760465  243.608327636425  249.48932617626204  0
-418.07873994052119  227.01959871153201  275.54732056737737  0
-404.82791869327258  227.01959871153201  41.813785140533767  0
-422.00689847863146  227.01959871153201  277.28544700322328  0
-396.20468517817022  227.01959871153201  278.15584893838866  0
-412.6858354393608  227.01959871153201  82.844791188136753  0
-415.52232126866528  227.01959871153201  273.34277350872333  0
-420.07576854898906  227.01959871153201  52.990128101556209  0
-417.62090693367048  227.01959871153201  256.71652087163756  0
-396.79238005591151  227.01959871153201  85.34174135906099  0
-403.74296704625704  227.01959871153201  291.57551849033297  0
-415.71098531357359  227.01959871153201  57.587716079221906  0
-410.22160921480042  227.01959871153201  290.96277789722353  0
-419.23606450992247  227.01959871153201  72.282834163923866  0
-390.22161224152018  227.01959871153201  65.007315507412855  0
-409.25163548031986  227.01959871153201  256.97843442919958  0
-402.75942140864186  227.01959871153201  67.719419391821162  0
-401.33422254197956  227.01959871153201  41.39549057881122  0
-399.94932756304087  227.01959871153201  289.72669647174286  0
-412.91632841003809  227.01959871153201  270.29085981589839  0
-428.93989419851715  227.01959871153201  254.82346318602777  0
-415.37392191625702  227.01959871153201  276.57053960447945  0
-404.351759535957  227.01959871153201  74.578698862619916  0
-419.73750673459  227.01959871153201  60.118863492225536  0
-397.63657306576113  227.01959871153201  59.129409802478989  0
-399.74668691800866  227.01959871153201  249.39473484993491  0
-406.76951743927401  227.01959871153201  68.947544688357596  0
-395.69058153002328  227.01959871153201  282.46313457884321  0
-432.40378057008718  227.01959871153201  267.26528587532596  0
-416.84723769372295  227.01959871153201  282.42522593343841  0
-402.92824710872213  227.01959871153201  268.31151244694269  0
-407.20703550324998  227.01959871153201  264.71420825301533  0
-423.91717409499466  227.01959871153201  56.972117601898837  0
-397.20522438546584  227.01959871153201  275.48423809466925  0
-415.74066091569517  227.01959871153201  245.90288293798534  0
-403.07781466144144  227.01959871153201  287.8841992844857  0
-420.52165929188811  227.01959871153201  261.88140246460364  0
-417.96439363164814  227.01959871153201  267.92040368296978  0
-409.30174763699114  227.01959871153201  287.7058679809129  0
-418.13016935790733  227.01959871153201  64.457542795321288  0
-406.95575161079984  227.01959871153201  44.179343882191915  0
-415.91005339086223  227.01959871153201  52.915717063603772  0
-382.07447908834791  227.01959871153201  75.309569039711974  0
-412.41363529147026  227.01959871153201  288.13133081489894  0
-426.17386092697598  227.01959871153201  271.9130189602908  0
-387.94800077011433  227.01959871153201  274.28152377920384  0
-418.24411452266349  227.01959871153201  55.959932952766572  0
-424.46161733264717  227.01959871153201  265.98177311976332  0
-420.71142867430706  227.01959871153201  272.01461904013632  0
-399.98961297879481  227.01959871153201  64.483926243090593  0
-403.21286667991575  227.01959871153201  63.315346193905157  0
-379.12866975861039  227.01959871153201  249.88463568581457  0
-397.69386539968565  227.01959871153201  266.98495999960608  0
-413.73080588664027  227.01959871153201  66.628845140196972  0
-395.87256676019524  227.01959871153201  56.327850900567654  0
-398.87455019911192  227.01959871153201  285.8295990606245  0
-396.05939097829798  227.01959871153201  70.829502173679941  0
-408.77597195764889  227.01959871153201  41.1632651057487  0
-397.1572601752606  227.01959871153201  272.17286563007997  0
-392.06949155657196  227.01959871153201  269.0532363621474  0
-401.53279678763397  227.01959871153201  261.14017968156719  0
-399.54315572294604  227.01959871153201  44.92562932109  0
-415.44578096948277  227.01959871153201  60.147371427531269  0
-413.62497905878308  227.01959871153201  62.114833090417939  0
-407.16759410221408  227.01959871153201  292.07472331917654  0
-396.22508838150674  227.01959871153201  63.433111379642234  0
-383.59139796339423  227.01959871153201  265.99040181411442  0
-411.65407132611767  227.01959871153201  46.174572003566844  0
-413.85714392955157  227.01959871153201  285.35878508776852  0
-413.98112279797863  227.01959871153201  46.465188742819549  0
-411.04846252546747  227.01959871153201  71.917409303730395  0
-402.68813986522241  227.01959871153201  44.497080610229872  0
-393.76795286837938  227.01959871153201  274.58327910752422  0
-389.63476678167126  227.01959871153201  57.317809696135079  0
-412.58997271676765  227.01959871153201  42.833882613477556  0
-409.53695158457413  227.01959871153201  268.84059453253741  0
-410.83206688780791  227.01959871153201  62.837057585285564  0
-426.92709615318893  227.01959871153201  65.534759450908112  0
-406.36872023470704  227.01959871153201  269.05385815676846  0
-409.52246770850036  227.01959871153201  66.289704925691765  0
-413.5851546902046  227.01959871153201  263.91937408156559  0
-400.15883640027812  227.01959871153201  270.89065164342418  0
-416.75285692867971  227.01959871153201  278.45203945444661  0
-401.03086106926065  227.01959871153201  286.77969597479307  0
-406.1671277586326  227.01959871153201  64.28164947904942  0
-393.9194460223635  227.01959871153201  60.224774755090451  0
-417.02637775164737  227.01959871153201  49.287878379782057  0
-409.52699906273045  227.01959871153201  44.742691580355277  0
-396.31937694526613  227.01959871153201  48.209276795243092  0
-406.5039706295791  227.01959871153201  288.75265674111034  0
-383.41461826609537  227.01959871153201  63.043085452364231  0
-394.82370301448583  227.01959871153201  52.476574677835991  0
-432.91692373554406  227.01959871153201  82.443419602742523  0
-392.1253012771673  227.01959871153201  278.4244226491852  0
-392.30590026725764  227.01959871153201  260.40336181200178  0
-445.34487934289911  227.01959871153201  245.2190041053997  0
-460.18264344711247  227.01959871153201  232.14807707529135  0
-352.11624334476994  227.01959871153201  100.23816176706282  0
-399.512253036939  227.01959871153201  61.049795766268204  0
-397.44938128266011  227.01959871153201  50.747304932361168  0
-366.79247940599242  227.01959871153201  86.889714765156953  0
-408.59272098989817  227.01959871153201  63.236230262368537  0
-412.0982102044652  235.16396682305222  293.56890780099519  0
-412.0982102044652  256.87523060001178  293.56890780099519  0
-400.22031321547502  256.87523060001178  293.56890779856889  0
-400.22031321547507  235.16396682305222  293.56890779856889  0
Triangles
1618
98 44 43  1
100 41 40  1
40 101 100  1
104 1 3  1
74 67 66  1
94 48 47  1
58 84 83  1
94 47 46  1
95 45 96  1
58 82 59  1
85 56 55  1
56 85 57  1
54 86 55  1
85 55 86  1
54 4 87  1
86 54 87  1
81 60 59  1
61 81 80  1
81 61 60  1
80 62 61  1
62 78 63  1
62 80 79  1
81 59 82  1
82 58 83  1
65 76 75  1
75 66 65  1
64 78 77  1
65 77 76  1
77 65 64  1
78 64 63  1
78 62 79  1
73 69 68  1
66 75 74  1
84 58 57  1
57 85 84  1
37 104 38  1
69 73 72  1
71 69 72  1
3 1 70  1
68 74 73  1
74 68 67  1
69 71 70  1
1 104 37  1
3 70 71  1
42 100 99  1
38 104 103  1
103 39 38  1
40 102 101  1
39 103 102  1
39 102 40  1
44 98 97  1
44 97 45  1
42 98 43  1
98 42 99  1
100 42 41  1
46 95 94  1
95 46 45  1
48 94 93  1
49 93 92  1
45 97 96  1
93 49 48  1
89 51 90  1
88 52 89  1
51 91 90  1
91 51 50  1
91 49 92  1
2 88 4  1
4 54 2  1
89 52 51  1
88 2 53  1
52 88 53  1
49 91 50  1
456 120 121  2
455 83 451  2
118 455 451  2
87 123 4  2
120 456 455  2
455 118 119  2
87 456 123  2
114 449 113  2
114 452 449  2
81 452 451  2
116 452 115  2
451 116 117  2
122 456 121  2
123 122 6  2
120 455 119  2
456 122 123  2
81 451 82  2
450 112 449  2
118 451 117  2
452 116 451  2
75 450 76  2
449 112 113  2
112 450 111  2
454 73 453  2
108 453 107  2
453 71 105  2
106 453 105  2
454 108 109  2
106 105 5  2
77 450 449  2
452 81 80  2
73 454 74  2
77 449 78  2
110 454 109  2
108 454 453  2
75 454 450  2
105 71 3  2
71 453 72  2
79 452 80  2
79 78 449  2
450 77 76  2
450 110 111  2
83 455 84  2
83 82 451  2
452 79 449  2
452 114 115  2
73 72 453  2
453 106 107  2
454 110 450  2
454 75 74  2
85 456 86  2
85 84 455  2
456 87 86  2
456 85 455  2
459 136 137  3
460 100 99  3
136 460 135  3
461 138 139  3
140 461 139  3
104 461 105  3
126 464 125  3
138 461 459  3
461 104 103  3
102 461 103  3
104 105 3  3
463 94 458  3
105 140 5  3
460 136 459  3
138 459 137  3
98 460 99  3
98 462 460  3
132 463 131  3
462 134 460  3
100 460 459  3
458 128 129  3
130 463 458  3
128 458 457  3
464 90 89  3
464 124 125  3
124 123 6  3
128 457 127  3
124 464 123  3
130 458 129  3
458 92 457  3
96 463 462  3
462 98 97  3
90 457 91  3
463 96 95  3
123 88 4  3
92 458 93  3
90 464 457  3
88 464 89  3
92 91 457  3
457 126 127  3
94 463 95  3
94 93 458  3
459 102 101  3
101 100 459  3
134 462 133  3
134 135 460  3
461 140 105  3
461 102 459  3
97 96 462  3
462 132 133  3
463 130 131  3
463 132 462  3
464 88 123  3
464 126 457  3
156 474 155  4
474 489 481  4
157 474 156  4
149 473 148  4
468 466 477  4
470 161 162  4
153 487 152  4
167 480 469  4
158 489 474  4
469 165 166  4
488 473 485  4
165 469 467  4
479 482 471  4
481 479 471  4
158 157 8  4
161 470 160  4
160 9 161  4
473 149 472  4
467 162 163  4
472 485 473  4
148 473 147  4
179 478 468  4
145 484 475  4
172 486 171  4
484 476 465  4
475 484 465  4
155 481 154  4
478 141 142  4
487 151 152  4
478 179 180  4
180 7 141  4
141 478 180  4
480 167 168  4
482 479 469  4
477 174 175  4
170 486 480  4
482 480 483  4
483 488 485  4
173 486 172  4
178 177 10  4
177 477 176  4
174 477 466  4
477 177 178  4
145 475 144  4
173 174 466  4
465 466 468  4
467 163 164  4
164 165 467  4
468 178 179  4
468 478 465  4
467 479 470  4
469 166 167  4
159 160 470  4
470 162 467  4
151 472 150  4
151 487 472  4
149 150 472  4
472 487 471  4
465 476 466  4
147 484 146  4
474 157 158  4
479 481 489  4
475 142 143  4
143 144 475  4
170 480 169  4
486 476 483  4
477 175 176  4
477 178 468  4
478 142 475  4
475 465 478  4
470 489 159  4
479 467 469  4
480 168 169  4
480 486 483  4
154 487 153  4
481 155 474  4
469 480 482  4
473 488 484  4
476 486 466  4
482 485 471  4
484 145 146  4
484 147 473  4
485 472 471  4
485 482 483  4
486 170 171  4
486 173 466  4
487 154 481  4
481 471 487  4
488 483 476  4
476 484 488  4
489 158 159  4
489 470 479  4
512 491 179  5
206 501 205  5
501 204 205  5
512 181 182  5
491 512 504  5
514 507 495  5
507 511 495  5
500 194 195  5
210 490 209  5
492 214 180  5
210 503 490  5
212 503 211  5
497 509 505  5
514 495 493  5
214 492 213  5
214 7 180  5
508 188 189  5
504 503 491  5
505 500 515  5
186 511 507  5
503 514 490  5
503 210 211  5
502 199 200  5
191 508 190  5
193 498 192  5
499 198 199  5
499 159 158  5
198 499 158  5
508 511 188  5
198 158 8  5
495 508 506  5
510 204 501  5
202 510 502  5
193 500 498  5
185 507 494  5
181 512 178  5
178 10 181  5
197 513 196  5
195 513 500  5
493 501 496  5
500 193 194  5
160 197 9  5
208 496 207  5
208 209 490  5
491 180 179  5
494 182 183  5
212 213 492  5
492 180 491  5
204 510 203  5
490 493 496  5
494 183 184  5
184 185 494  5
511 508 495  5
493 506 497  5
496 206 207  5
496 208 490  5
509 498 500  5
502 200 201  5
191 192 498  5
505 510 497  5
199 502 499  5
510 505 502  5
513 195 196  5
160 515 513  5
501 206 496  5
501 493 497  5
502 505 499  5
502 201 202  5
503 212 492  5
492 491 503  5
494 504 512  5
507 514 504  5
498 509 506  5
499 515 159  5
506 493 495  5
508 191 498  5
507 504 494  5
507 185 186  5
189 190 508  5
508 498 506  5
500 505 509  5
509 497 506  5
510 202 203  5
510 501 497  5
511 186 187  5
187 188 511  5
512 179 178  5
512 182 494  5
513 197 160  5
513 515 500  5
493 490 514  5
514 503 504  5
515 160 159  5
515 499 505  5
535 520 526  6
540 235 236  6
225 528 224  6
235 540 234  6
248 539 247  6
240 520 239  6
225 536 528  6
233 540 522  6
522 540 526  6
241 520 240  6
516 538 520  6
536 225 226  6
234 13 235  6
12 232 231  6
534 518 517  6
231 537 230  6
229 537 527  6
229 527 228  6
221 529 220  6
526 527 522  6
221 532 529  6
223 532 222  6
253 530 519  6
219 523 218  6
533 251 252  6
246 524 245  6
530 215 216  6
537 229 230  6
519 530 521  6
516 241 242  6
523 521 530  6
254 11 215  6
215 530 254  6
244 516 243  6
244 524 516  6
247 539 524  6
247 524 246  6
516 524 518  6
251 533 250  6
252 251 14  6
533 248 249  6
517 524 539  6
242 243 516  6
532 528 531  6
219 529 523  6
517 518 524  6
532 223 528  6
520 241 516  6
252 253 519  6
518 534 531  6
227 536 226  6
239 535 238  6
521 539 519  6
523 529 521  6
522 232 233  6
540 233 234  6
523 216 217  6
217 218 523  6
524 244 245  6
519 539 533  6
527 526 525  6
538 525 526  6
535 239 520  6
538 531 525  6
228 536 227  6
522 537 232  6
223 224 528  6
528 536 525  6
517 521 529  6
529 219 220  6
530 253 254  6
530 216 523  6
528 525 531  6
531 538 518  6
532 534 529  6
532 221 222  6
249 250 533  6
533 252 519  6
517 529 534  6
534 532 531  6
535 236 237  6
237 238 535  6
536 228 527  6
527 525 536  6
537 231 232  6
537 522 527  6
526 520 538  6
538 516 518  6
539 248 533  6
539 521 517  6
540 236 535  6
535 526 540  6
543 552 549  7
543 564 559  7
288 544 287  7
553 559 546  7
564 542 541  7
255 551 252  7
252 14 255  7
253 555 254  7
551 560 545  7
258 551 257  7
278 553 277  7
283 543 282  7
283 552 543  7
559 279 280  7
559 278 279  7
258 560 551  7
287 544 286  7
254 288 11  7
252 551 545  7
286 544 285  7
561 563 547  7
552 283 284  7
562 273 274  7
557 265 266  7
266 563 557  7
548 272 273  7
548 233 232  7
272 548 232  7
278 559 553  7
272 232 12  7
557 563 558  7
265 556 264  7
560 260 554  7
269 563 268  7
557 556 265  7
260 560 259  7
556 262 263  7
270 547 269  7
563 266 267  7
542 564 549  7
234 271 13  7
271 547 270  7
262 554 261  7
262 556 554  7
552 555 550  7
541 542 554  7
281 559 280  7
281 282 543  7
544 288 254  7
555 552 544  7
253 252 545  7
560 554 542  7
563 561 558  7
565 546 558  7
547 271 234  7
234 561 547  7
273 562 548  7
553 565 562  7
552 550 549  7
545 555 253  7
550 560 542  7
542 549 550  7
551 255 256  7
256 257 551  7
552 284 285  7
285 544 552  7
276 562 275  7
276 277 553  7
554 260 261  7
554 556 541  7
544 254 555  7
555 545 550  7
263 264 556  7
556 557 541  7
557 558 546  7
546 541 557  7
548 561 233  7
546 565 553  7
559 281 543  7
564 541 546  7
560 550 545  7
560 258 259  7
561 234 233  7
561 565 558  7
562 274 275  7
562 276 553  7
563 267 268  7
563 269 547  7
546 559 564  7
564 543 549  7
565 561 548  7
548 562 565  7
292 302 301  8
305 297 18  8
302 291 303  8
293 301 300  8
300 294 293  8
289 17 304  8
299 295 294  8
303 291 290  8
291 302 292  8
290 304 303  8
304 290 289  8
296 297 305  8
298 296 295  8
296 305 16  8
17 289 15  8
292 301 293  8
294 300 299  8
298 295 299  8
297 296 298  8
307 319 308  9
306 320 307  9
318 308 319  9
321 19 21  9
320 306 321  9
19 321 306  9
310 316 311  9
319 307 320  9
308 318 309  9
313 322 20  9
309 317 310  9
315 313 312  9
311 315 312  9
313 314 322  9
317 309 318  9
316 310 317  9
313 315 314  9
315 311 316  9
22 322 314  9
566 323 322  10
338 567 337  10
325 568 326  10
326 568 567  10
335 566 322  10
335 322 22  10
323 566 324  10
20 322 323  10
566 335 334  10
331 567 568  10
331 568 332  10
328 338 23  10
326 567 327  10
567 338 328  10
336 567 329  10
333 568 566  10
567 331 330  10
24 336 329  10
329 567 330  10
325 324 566  10
566 334 333  10
567 336 337  10
567 328 327  10
568 325 566  10
568 333 332  10
344 339 25  11
347 336 24  11
347 570 336  11
569 340 339  11
344 569 339  11
342 569 343  11
338 342 23  11
340 569 337  11
337 569 338  11
337 570 340  11
570 337 336  11
340 570 341  11
345 570 346  11
341 345 26  11
569 344 343  11
569 342 338  11
570 347 346  11
570 345 341  11
352 572 351  12
339 354 25  12
354 571 355  12
340 571 339  12
572 340 341  12
350 572 341  12
341 26 350  12
571 352 353  12
352 571 340  12
340 572 352  12
356 353 28  12
356 571 353  12
348 27 351  12
348 572 349  12
571 356 355  12
571 354 339  12
572 350 349  12
572 348 351  12
573 351 368  13
363 362 364  13
357 573 358  13
351 573 352  13
368 351 27  13
353 357 28  13
353 573 357  13
365 574 366  13
358 574 359  13
574 358 573  13
363 15 362  13
15 363 17  13
364 361 574  13
574 361 360  13
574 367 366  13
367 574 573  13
573 353 352  13
573 368 367  13
360 359 574  13
364 362 361  13
364 574 365  13
62 376 61  14
63 378 377  14
67 381 66  14
381 67 382  14
66 381 380  14
65 380 379  14
376 62 377  14
380 65 66  14
378 64 379  14
69 383 68  14
69 384 383  14
1 385 70  14
68 382 67  14
377 62 63  14
65 379 64  14
70 384 69  14
385 1 29  14
64 378 63  14
374 58 59  14
60 376 375  14
58 374 373  14
57 373 372  14
56 372 371  14
382 68 383  14
54 30 2  14
54 370 369  14
54 369 30  14
384 70 385  14
374 59 60  14
372 56 57  14
374 60 375  14
376 60 61  14
56 370 55  14
373 57 58  14
370 54 55  14
370 56 371  14
47 397 396  15
53 30 402  15
42 390 41  15
51 399 50  15
30 53 2  15
50 398 49  15
52 400 51  15
400 52 401  15
402 52 53  15
397 47 48  15
50 399 398  15
47 395 46  15
47 396 395  15
52 402 401  15
38 386 37  15
49 397 48  15
397 49 398  15
43 392 42  15
44 392 43  15
46 394 45  15
45 393 44  15
399 51 400  15
41 389 40  15
394 46 395  15
40 388 39  15
39 388 38  15
1 386 29  15
392 44 393  15
391 42 392  15
42 391 390  15
387 38 388  15
393 45 394  15
386 1 37  15
38 387 386  15
388 40 389  15
389 41 390  15
419 575 418  16
412 576 413  16
576 407 406  16
576 406 405  16
409 419 31  16
577 403 305  16
577 416 415  16
405 577 576  16
403 577 404  16
16 305 403  16
575 419 409  16
575 417 418  16
407 576 575  16
416 577 305  16
305 18 416  16
407 575 408  16
417 410 32  16
576 412 575  16
410 575 411  16
417 575 410  16
575 409 408  16
575 412 411  16
414 577 415  16
414 413 576  16
577 414 576  16
577 405 404  16
646 360 614  17
636 669 649  17
6 596 124  17
653 662 655  17
603 362 587  17
405 616 406  17
209 620 607  17
622 637 616  17
406 686 407  17
154 594 155  17
648 685 594  17
201 624 601  17
668 665 617  17
28 691 672  17
690 695 693  17
668 623 665  17
623 668 596  17
656 133 628  17
646 361 360  17
578 691 606  17
587 362 361  17
684 602 683  17
287 286 578  17
355 627 606  17
650 681 679  17
654 578 627  17
357 672 611  17
281 672 282  17
282 672 283  17
672 579 611  17
691 285 284  17
691 578 285  17
285 578 286  17
653 273 647  17
659 280 279  17
579 281 280  17
359 666 614  17
666 602 609  17
609 662 610  17
362 603 15  17
361 646 587  17
603 120 119  17
120 603 587  17
658 117 585  17
117 658 118  17
118 658 603  17
293 674 651  17
290 658 585  17
291 641 292  17
674 113 651  17
116 641 585  17
115 674 641  17
641 116 115  17
295 651 608  17
404 622 616  17
113 674 114  17
404 616 405  17
608 296 295  17
403 622 404  17
293 651 294  17
607 620 615  17
620 209 208  17
663 600 607  17
637 107 106  17
624 200 199  17
677 206 205  17
661 675 590  17
206 677 642  17
204 677 205  17
642 208 207  17
422 678 33  17
199 629 624  17
604 33 678  17
33 604 423  17
624 201 200  17
601 202 201  17
202 633 203  17
630 686 661  17
621 213 600  17
600 213 212  17
621 7 214  17
600 663 590  17
607 211 210  17
211 607 600  17
694 110 109  17
589 403 16  17
296 589 16  17
296 608 589  17
112 651 113  17
680 586 652  17
673 145 144  17
599 696 583  17
138 652 139  17
139 639 140  17
136 644 137  17
429 680 652  17
145 598 146  17
612 149 148  17
5 637 106  17
143 696 673  17
631 680 428  17
688 696 595  17
671 631 427  17
7 621 583  17
583 142 141  17
612 147 598  17
34 685 648  17
604 685 424  17
604 424 423  17
685 34 425  17
629 8 618  17
618 678 629  17
149 612 593  17
652 430 429  17
676 34 648  17
149 697 150  17
598 625 612  17
625 593 612  17
153 676 648  17
697 149 593  17
652 138 644  17
430 652 644  17
19 644 591  17
644 136 591  17
19 591 306  17
307 656 308  17
307 664 656  17
664 307 591  17
628 133 132  17
634 312 311  17
309 656 628  17
131 634 628  17
129 682 670  17
20 690 323  17
312 682 313  17
131 628 132  17
133 656 134  17
682 129 128  17
695 690 643  17
278 667 659  17
662 602 667  17
657 632 610  17
596 687 588  17
643 128 127  17
690 20 682  17
682 20 313  17
130 670 634  17
582 665 623  17
325 693 668  17
660 231 636  17
605 619 580  17
669 636 229  17
12 647 272  17
273 272 647  17
226 225 580  17
665 689 645  17
224 580 225  17
218 613 219  17
640 222 221  17
222 640 605  17
222 605 223  17
224 605 580  17
23 650 342  17
679 627 25  17
681 11 654  17
216 650 217  17
218 650 613  17
25 627 354  17
650 218 217  17
627 679 654  17
681 654 679  17
650 23 613  17
23 640 613  17
695 124 596  17
606 627 578  17
287 654 288  17
280 659 579  17
358 683 666  17
689 227 226  17
227 689 669  17
328 640 23  17
328 645 581  17
231 660 12  17
636 649 582  17
141 7 583  17
107 637 622  17
274 653 275  17
660 584 647  17
117 116 585  17
290 641 291  17
143 673 144  17
639 637 5  17
687 646 588  17
121 120 587  17
687 596 6  17
687 587 646  17
110 608 111  17
110 694 589  17
213 621 214  17
630 626 408  17
136 135 591  17
591 307 306  17
145 673 598  17
696 143 142  17
152 697 676  17
150 697 151  17
156 618 157  17
156 155 594  17
590 621 600  17
692 631 592  17
325 668 326  17
124 695 125  17
631 428 427  17
597 638 586  17
147 612 148  17
147 146 598  17
599 675 638  17
586 675 637  17
212 211 600  17
408 626 409  17
420 635 421  17
420 31 601  17
277 667 278  17
655 277 276  17
603 119 118  17
15 658 289  17
8 629 198  17
618 156 594  17
605 224 223  17
605 640 581  17
606 28 356  17
356 355 606  17
607 210 209  17
626 620 642  17
608 112 111  17
608 110 589  17
602 666 683  17
632 614 609  17
584 610 653  17
632 657 623  17
683 358 357  17
672 281 579  17
625 598 592  17
658 290 289  17
220 640 221  17
220 219 613  17
632 646 614  17
614 360 359  17
203 633 204  17
31 633 601  17
107 622 108  17
675 616 637  17
327 645 328  17
327 326 617  17
8 157 618  17
618 594 604  17
619 605 581  17
689 226 580  17
208 642 620  17
677 204 633  17
621 590 599  17
599 583 621  17
622 403 589  17
108 694 109  17
596 588 623  17
657 660 582  17
635 678 422  17
635 420 601  17
426 671 427  17
658 15 603  17
626 630 615  17
615 620 626  17
654 287 578  17
627 355 354  17
310 634 311  17
310 309 628  17
624 629 635  17
629 199 198  17
408 407 630  17
661 663 615  17
631 671 592  17
631 692 597  17
609 610 632  17
632 623 588  17
633 202 601  17
633 31 409  17
634 310 628  17
634 131 130  17
635 422 421  17
635 601 624  17
636 231 230  17
230 229 636  17
637 639 586  17
616 675 661  17
638 692 595  17
595 599 638  17
5 140 639  17
639 652 586  17
640 220 613  17
640 328 581  17
292 674 293  17
641 290 585  17
642 207 206  17
626 677 409  17
127 126 643  17
324 693 325  17
644 19 430  17
644 138 137  17
619 581 645  17
645 327 617  17
646 632 588  17
587 687 121  17
660 657 584  17
273 653 274  17
648 594 154  17
154 153 648  17
669 689 649  17
645 689 619  17
343 679 344  17
343 342 650  17
651 112 608  17
651 295 294  17
586 680 597  17
652 639 139  17
275 655 276  17
653 647 584  17
11 681 215  17
11 288 654  17
655 275 653  17
662 653 610  17
656 309 308  17
134 664 135  17
610 584 657  17
657 582 623  17
678 618 604  17
426 676 593  17
684 683 611  17
659 279 278  17
647 12 660  17
660 636 582  17
661 615 630  17
686 630 407  17
662 609 602  17
667 277 655  17
607 615 663  17
663 661 590  17
591 135 664  17
664 134 656  17
665 582 649  17
665 645 617  17
609 614 666  17
666 359 358  17
659 684 579  17
667 655 662  17
617 326 668  17
695 643 126  17
669 229 228  17
228 227 669  17
670 312 634  17
670 130 129  17
671 426 625  17
625 592 671  17
672 357 28  17
283 691 284  17
598 688 592  17
696 688 673  17
674 292 641  17
674 115 114  17
675 586 638  17
675 599 590  17
34 676 426  17
676 153 152  17
633 409 677  17
677 626 642  17
426 593 625  17
678 635 629  17
679 25 344  17
679 343 650  17
680 429 428  17
680 631 597  17
681 650 216  17
216 215 681  17
682 312 670  17
682 128 643  17
683 357 611  17
602 684 667  17
611 579 684  17
684 659 667  17
425 424 685  17
685 604 594  17
686 406 616  17
616 661 686  17
687 6 122  17
122 121 687  17
688 692 592  17
688 598 673  17
580 619 689  17
689 665 649  17
324 323 690  17
690 682 643  17
691 283 672  17
691 28 606  17
692 688 595  17
692 638 597  17
596 668 693  17
693 324 690  17
694 108 622  17
622 589 694  17
126 125 695  17
695 596 693  17
696 142 583  17
696 599 595  17
593 676 697  17
697 152 151  17
699 433 432  18
699 427 426  18
433 699 426  18
427 699 698  18
21 700 434  18
431 699 432  18
439 431 35  18
698 429 428  18
428 427 698  18
34 433 426  18
699 431 439  18
700 436 435  18
698 700 429  18
436 698 437  18
700 21 19  18
430 429 700  18
698 438 437  18
436 700 698  18
699 439 438  18
438 698 699  18
700 19 430  18
434 700 435  18
259 769 767  19
381 297 380  19
259 767 258  19
767 257 258  19
800 797 400  19
713 792 777  19
189 721 188  19
17 372 373  19
299 378 379  19
723 762 739  19
778 775 731  19
445 712 444  19
318 394 317  19
257 787 256  19
740 787 757  19
315 396 397  19
393 318 319  19
763 267 268  19
742 800 401  19
373 304 17  19
268 776 763  19
374 304 373  19
372 17 363  19
792 369 370  19
368 786 707  19
767 787 257  19
787 767 774  19
255 787 740  19
732 777 367  19
786 261 741  19
260 786 769  19
786 260 261  19
762 266 267  19
368 732 367  19
741 261 262  19
705 792 713  19
792 705 369  19
777 739 713  19
711 264 265  19
363 371 372  19
709 30 705  19
792 371 364  19
371 363 364  19
371 792 370  19
304 374 303  19
303 375 302  19
379 298 299  19
376 302 375  19
377 300 301  19
302 376 301  19
375 303 374  19
377 301 376  19
297 796 18  19
298 379 380  19
298 380 297  19
383 796 382  19
378 299 300  19
300 377 378  19
415 795 414  19
189 782 721  19
796 415 416  19
413 795 720  19
703 748 701  19
719 185 706  19
32 768 743  19
410 703 729  19
703 782 729  19
768 194 743  19
190 782 189  19
743 738 712  19
783 735 163  19
743 195 738  19
195 743 194  19
197 738 196  19
743 712 445  19
192 768 729  19
719 780 775  19
181 778 10  19
734 725 715  19
172 758 733  19
185 719 184  19
706 721 701  19
721 706 187  19
748 747 737  19
775 181 182  19
413 728 412  19
415 796 795  19
796 383 795  19
796 297 381  19
170 733 704  19
319 392 393  19
704 168 169  19
751 436 437  19
386 751 725  19
758 172 173  19
751 437 766  19
725 734 29  19
759 758 752  19
760 730 731  19
177 778 730  19
177 730 176  19
173 781 758  19
758 781 752  19
441 718 440  19
718 35 440  19
735 161 162  19
161 789 9  19
789 712 738  19
164 783 163  19
710 441 442  19
751 435 436  19
789 738 197  19
764 443 712  19
751 388 435  19
35 755 727  19
727 793 439  19
166 755 165  19
755 166 727  19
168 727 167  19
727 168 704  19
388 751 387  19
388 434 435  19
733 170 171  19
434 388 389  19
21 390 321  19
391 321 390  19
434 389 21  19
392 319 320  19
317 395 316  19
321 391 320  19
390 21 389  19
392 320 391  19
314 397 398  19
314 797 22  19
397 314 315  19
396 315 316  19
316 395 396  19
395 317 394  19
394 318 393  19
335 22 797  19
797 314 398  19
400 797 399  19
251 740 702  19
742 714 790  19
770 779 726  19
776 801 779  19
749 716 750  19
756 742 709  19
784 801 271  19
236 750 235  19
239 798 238  19
749 756 716  19
773 791 329  19
237 750 236  19
791 244 799  19
241 754 724  19
788 247 761  19
244 791 243  19
243 791 754  19
788 761 24  19
761 771 717  19
247 788 246  19
771 251 702  19
249 771 761  19
740 251 14  19
251 771 250  19
740 14 255  19
345 717 702  19
347 717 346  19
347 761 717  19
241 724 240  19
243 754 242  19
791 773 754  19
334 800 333  19
332 800 742  19
797 800 334  19
186 706 185  19
187 706 186  19
26 757 350  19
26 345 702  19
718 441 710  19
410 411 703  19
169 170 704  19
439 745 438  19
30 709 402  19
30 369 705  19
720 747 728  19
184 719 183  19
264 746 741  19
264 741 263  19
737 719 706  19
384 734 720  19
765 756 749  19
709 401 402  19
442 36 710  19
789 161 735  19
711 265 266  19
266 762 711  19
443 764 36  19
443 444 712  19
723 777 732  19
705 770 722  19
790 773 330  19
742 756 714  19
736 780 737  19
29 734 385  19
784 726 779  19
716 756 722  19
717 345 346  19
249 761 248  19
163 735 162  19
192 729 191  19
780 715 731  19
183 775 182  19
720 795 384  19
720 734 708  19
187 188 721  19
782 190 729  19
709 705 722  19
722 726 716  19
777 723 739  19
746 732 707  19
239 240 724  19
773 790 714  19
730 760 752  19
725 29 386  19
776 268 269  19
716 784 750  19
439 35 727  19
727 166 167  19
411 412 728  19
728 413 720  19
729 190 191  19
729 32 410  19
781 730 752  19
175 176 730  19
778 181 775  19
715 780 708  19
732 368 707  19
732 746 723  19
745 793 772  19
733 171 172  19
715 708 734  19
734 384 385  19
735 783 718  19
718 710 735  19
744 703 411  19
736 720 708  19
706 748 737  19
747 720 736  19
195 196 738  19
712 789 764  19
267 763 762  19
753 770 713  19
757 702 740  19
757 26 702  19
262 263 741  19
741 746 707  19
742 331 332  19
742 401 709  19
445 32 743  19
194 768 193  19
411 728 744  19
737 747 736  19
438 766 437  19
704 772 793  19
746 264 711  19
711 723 746  19
747 748 744  19
744 728 747  19
748 706 701  19
748 703 744  19
237 798 749  19
749 798 765  19
235 784 13  19
750 237 749  19
759 794 766  19
751 386 387  19
730 781 175  19
752 794 759  19
713 739 753  19
270 271 801  19
724 785 765  19
754 241 242  19
755 35 718  19
755 164 165  19
709 722 756  19
756 765 714  19
349 774 348  19
349 350 757  19
759 772 758  19
733 758 772  19
794 752 760  19
766 438 745  19
760 731 715  19
715 725 760  19
761 347 24  19
761 247 248  19
739 763 753  19
762 723 711  19
753 763 776  19
763 739 762  19
789 197 9  19
710 36 764  19
798 239 724  19
714 785 773  19
766 745 759  19
751 794 725  19
786 741 707  19
787 255 256  19
768 32 729  19
768 192 193  19
769 27 774  19
769 259 260  19
726 722 770  19
770 705 713  19
702 717 771  19
771 249 250  19
772 759 745  19
772 704 733  19
785 724 754  19
773 329 330  19
774 27 348  19
774 349 757  19
775 183 719  19
775 780 731  19
776 269 270  19
779 770 753  19
366 792 365  19
366 367 777  19
731 730 778  19
778 177 10  19
753 776 779  19
784 716 726  19
780 719 737  19
780 736 708  19
781 173 174  19
174 175 781  19
782 703 701  19
701 721 782  19
783 164 755  19
755 718 783  19
784 271 13  19
784 235 750  19
754 773 785  19
785 714 765  19
786 27 769  19
27 786 368  19
769 774 767  19
774 757 787  19
24 329 788  19
246 799 245  19
789 735 710  19
710 764 789  19
790 330 331  19
331 742 790  19
799 244 245  19
788 329 791  19
792 364 365  19
792 366 777  19
793 745 439  19
793 727 704  19
760 725 794  19
794 751 766  19
383 384 795  19
795 413 414  19
416 18 796  19
796 381 382  19
797 398 399  19
797 334 335  19
724 765 798  19
798 237 238  19
799 246 788  19
788 791 799  19
400 401 800  19
800 332 333  19
801 784 779  19
801 776 270  19
803 447 448  20
420 803 421  20
803 418 447  20
32 445 417  20
447 802 446  20
422 803 448  20
420 31 419  20
418 803 419  20
802 447 418  20
448 33 422  20
445 802 417  20
802 443 446  20
443 802 444  20
446 443 36  20
802 418 417  20
802 445 444  20
803 422 421  20
803 420 419  20
442 805 446  21
432 804 447  21
423 804 424  21
448 423 33  21
442 446 36  21
447 804 448  21
447 805 432  21
425 433 34  21
440 805 441  21
804 432 433  21
425 804 433  21
432 805 431  21
805 447 446  21
440 35 431  21
804 425 424  21
804 423 448  21
805 442 441  21
805 440 431  21
Edges
466
1 37  1
37 38  1
38 39  1
39 40  1
40 41  1
41 42  1
42 43  1
43 44  1
44 45  1
45 46  1
46 47  1
47 48  1
48 49  1
49 50  1
50 51  1
51 52  1
52 53  1
53 2  1
2 54  2
54 55  2
55 56  2
56 57  2
57 58  2
58 59  2
59 60  2
60 61  2
61 62  2
62 63  2
63 64  2
64 65  2
65 66  2
66 67  2
67 68  2
68 69  2
69 70  2
70 1  2
3 71  3
71 72  3
72 73  3
73 74  3
74 75  3
75 76  3
76 77  3
77 78  3
78 79  3
79 80  3
80 81  3
81 82  3
82 83  3
83 84  3
84 85  3
85 86  3
86 87  3
87 4  3
4 88  4
88 89  4
89 90  4
90 91  4
91 92  4
92 93  4
93 94  4
94 95  4
95 96  4
96 97  4
97 98  4
98 99  4
99 100  4
100 101  4
101 102  4
102 103  4
103 104  4
104 3  4
5 105  5
105 3  5
5 106  6
106 107  6
107 108  6
108 109  6
109 110  6
110 111  6
111 112  6
112 113  6
113 114  6
114 115  6
115 116  6
116 117  6
117 118  6
118 119  6
119 120  6
120 121  6
121 122  6
122 6  6
4 123  7
123 6  7
6 124  8
124 125  8
125 126  8
126 127  8
127 128  8
128 129  8
129 130  8
130 131  8
131 132  8
132 133  8
133 134  8
134 135  8
135 136  8
136 137  8
137 138  8
138 139  8
139 140  8
140 5  8
7 141  9
141 142  9
142 143  9
143 144  9
144 145  9
145 146  9
146 147  9
147 148  9
148 149  9
149 150  9
150 151  9
151 152  9
152 153  9
153 154  9
154 155  9
155 156  9
156 157  9
157 8  9
8 158  10
158 159  10
159 160  10
160 9  10
9 161  11
161 162  11
162 163  11
163 164  11
164 165  11
165 166  11
166 167  11
167 168  11
168 169  11
169 170  11
170 171  11
171 172  11
172 173  11
173 174  11
174 175  11
175 176  11
176 177  11
177 10  11
10 178  12
178 179  12
179 180  12
180 7  12
10 181  13
181 182  13
182 183  13
183 184  13
184 185  13
185 186  13
186 187  13
187 188  13
188 189  13
189 190  13
190 191  13
191 192  13
192 193  13
193 194  13
194 195  13
195 196  13
196 197  13
197 9  13
8 198  14
198 199  14
199 200  14
200 201  14
201 202  14
202 203  14
203 204  14
204 205  14
205 206  14
206 207  14
207 208  14
208 209  14
209 210  14
210 211  14
211 212  14
212 213  14
213 214  14
214 7  14
11 215  15
215 216  15
216 217  15
217 218  15
218 219  15
219 220  15
220 221  15
221 222  15
222 223  15
223 224  15
224 225  15
225 226  15
226 227  15
227 228  15
228 229  15
229 230  15
230 231  15
231 12  15
12 232  16
232 233  16
233 234  16
234 13  16
13 235  17
235 236  17
236 237  17
237 238  17
238 239  17
239 240  17
240 241  17
241 242  17
242 243  17
243 244  17
244 245  17
245 246  17
246 247  17
247 248  17
248 249  17
249 250  17
250 251  17
251 14  17
14 252  18
252 253  18
253 254  18
254 11  18
14 255  19
255 256  19
256 257  19
257 258  19
258 259  19
259 260  19
260 261  19
261 262  19
262 263  19
263 264  19
264 265  19
265 266  19
266 267  19
267 268  19
268 269  19
269 270  19
270 271  19
271 13  19
12 272  20
272 273  20
273 274  20
274 275  20
275 276  20
276 277  20
277 278  20
278 279  20
279 280  20
280 281  20
281 282  20
282 283  20
283 284  20
284 285  20
285 286  20
286 287  20
287 288  20
288 11  20
15 289  21
289 290  21
290 291  21
291 292  21
292 293  21
293 294  21
294 295  21
295 296  21
296 16  21
17 15  22
18 297  23
297 298  23
298 299  23
299 300  23
300 301  23
301 302  23
302 303  23
303 304  23
304 17  23
18 305  24
305 16  24
19 306  25
306 307  25
307 308  25
308 309  25
309 310  25
310 311  25
311 312  25
312 313  25
313 20  25
21 19  26
22 314  27
314 315  27
315 316  27
316 317  27
317 318  27
318 319  27
319 320  27
320 321  27
321 21  27
22 322  28
322 20  28
20 323  29
323 324  29
324 325  29
325 326  29
326 327  29
327 328  29
328 23  29
24 329  30
329 330  30
330 331  30
331 332  30
332 333  30
333 334  30
334 335  30
335 22  30
24 336  31
336 337  31
337 338  31
338 23  31
25 339  32
339 340  32
340 341  32
341 26  32
23 342  33
342 343  33
343 344  33
344 25  33
26 345  34
345 346  34
346 347  34
347 24  34
27 348  35
348 349  35
349 350  35
350 26  35
27 351  36
351 352  36
352 353  36
353 28  36
25 354  37
354 355  37
355 356  37
356 28  37
28 357  38
357 358  38
358 359  38
359 360  38
360 361  38
361 362  38
362 15  38
17 363  39
363 364  39
364 365  39
365 366  39
366 367  39
367 368  39
368 27  39
29 1  40
30 369  41
369 370  41
370 371  41
371 372  41
372 373  41
373 374  41
374 375  41
375 376  41
376 377  41
377 378  41
378 379  41
379 380  41
380 381  41
381 382  41
382 383  41
383 384  41
384 385  41
385 29  41
2 30  42
29 386  43
386 387  43
387 388  43
388 389  43
389 390  43
390 391  43
391 392  43
392 393  43
393 394  43
394 395  43
395 396  43
396 397  43
397 398  43
398 399  43
399 400  43
400 401  43
401 402  43
402 30  43
16 403  44
403 404  44
404 405  44
405 406  44
406 407  44
407 408  44
408 409  44
409 31  44
32 410  45
410 411  45
411 412  45
412 413  45
413 414  45
414 415  45
415 416  45
416 18  45
32 417  46
417 418  46
418 419  46
419 31  46
31 420  47
420 421  47
421 422  47
422 33  47
33 423  48
423 424  48
424 425  48
425 34  48
34 426  49
426 427  49
427 428  49
428 429  49
429 430  49
430 19  49
35 431  50
431 432  50
432 433  50
433 34  50
21 434  51
434 435  51
435 436  51
436 437  51
437 438  51
438 439  51
439 35  51
35 440  52
440 441  52
441 442  52
442 36  52
36 443  53
443 444  53
444 445  53
445 32  53
36 446  54
446 447  54
447 448  54
448 33  54
End
