MeshVersionFormatted 1

Dimension
3

Vertices
510
551.18110236220502  0  0  0
551.18110236220502  0  826.77165354330702  0
0  0  826.77165354330702  0
0  0  0  0
551.18110236220502  39.370078740157503  826.77165354330702  0
0  39.370078740157503  826.77165354330702  0
551.18110236220502  39.370078740157503  748.03149606299201  0
0  39.370078740157503  748.03149606299201  0
433.07086614173198  39.370078740157503  590.55118110236197  0
118.110236220472  39.370078740157503  590.55118110236197  0
472.44094488189  39.370078740157503  551.18110236220502  0
472.44094488189  39.370078740157503  236.220472440945  0
433.07086614173198  39.370078740157503  196.85039370078701  0
118.110236220472  39.370078740157503  196.85039370078701  0
78.740157480315006  39.370078740157503  236.220472440945  0
78.740157480315006  39.370078740157503  551.18110236220502  0
0  118.110236220472  748.03149606299201  0
0  118.110236220472  0  0
551.18110236220502  118.110236220472  0  0
551.18110236220502  118.110236220472  748.03149606299201  0
78.740157480315006  118.110236220472  236.220472440945  0
118.110236220472  118.110236220472  196.85039370078701  0
78.740157480315006  118.110236220472  551.18110236220502  0
118.110236220472  118.110236220472  590.55118110236197  0
433.07086614173198  118.110236220472  590.55118110236197  0
472.44094488189  118.110236220472  551.18110236220502  0
472.44094488189  118.110236220472  236.220472440945  0
433.07086614173198  118.110236220472  196.85039370078701  0
354.33070866141702  78.740157480315006  196.85039370078701  0
196.85039370078701  78.740157480315006  196.85039370078701  0
196.85039370078701  118.110236220472  196.85039370078701  0
354.33070866141702  118.110236220472  196.85039370078701  0
196.85039370078701  78.740157480315006  118.110236220472  0
196.85039370078701  118.110236220472  118.110236220472  0
236.220472440945  78.740157480315006  78.740157480315006  0
236.220472440945  118.110236220472  78.740157480315006  0
314.96062992126002  78.740157480315006  78.740157480315006  0
314.96062992126002  118.110236220472  78.740157480315006  0
354.33070866141702  118.110236220472  118.110236220472  0
354.33070866141702  78.740157480315006  118.110236220472  0
551.18110236220502  0  137.79527559055117  0
551.18110236220502  0  275.59055118110234  0
551.18110236220502  0  413.38582677165351  0
551.18110236220502  0  551.18110236220468  0
551.18110236220502  0  688.97637795275591  0
440.94488188976402  0  826.77165354330702  0
330.70866141732301  0  826.77165354330702  0
220.47244094488201  0  826.77165354330702  0
110.236220472441  0  826.77165354330702  0
0  0  137.79527559055117  0
0  0  275.59055118110234  0
0  0  413.38582677165351  0
0  0  551.18110236220468  0
0  0  688.97637795275591  0
137.79527559055126  0  0  0
275.59055118110251  0  0  0
413.3858267716538  0  0  0
440.94488188976402  39.370078740157503  826.77165354330702  0
330.70866141732301  39.370078740157503  826.77165354330702  0
220.47244094488201  39.370078740157503  826.77165354330702  0
110.236220472441  39.370078740157503  826.77165354330702  0
137.79527559055126  39.370078740157503  748.03149606299201  0
275.59055118110251  39.370078740157503  748.03149606299201  0
413.3858267716538  39.370078740157503  748.03149606299201  0
393.70078740157447  39.370078740157503  590.55118110236197  0
354.33070866141702  39.370078740157503  590.55118110236197  0
314.96062992125951  39.370078740157503  590.55118110236197  0
275.590551181102  39.370078740157503  590.55118110236197  0
236.22047244094449  39.370078740157503  590.55118110236197  0
196.85039370078701  39.370078740157503  590.55118110236197  0
157.48031496062953  39.370078740157503  590.55118110236197  0
439.90740856956387  39.370078740157503  589.9530611422133  0
446.53622611518347  39.370078740157503  588.17687483409122  0
452.75590551181074  39.370078740157503  585.27659070017512  0
458.37746494828866  39.370078740157503  581.34033240625934  0
463.23009618578624  39.370078740157503  576.48770116876176  0
467.16635447970202  39.370078740157503  570.86614173228384  0
470.06663861361818  39.370078740157503  564.64646233565657  0
471.8428249217402  39.370078740157503  558.01764479003691  0
472.44094488189  39.370078740157503  275.59055118110251  0
472.44094488189  39.370078740157503  314.96062992126002  0
472.44094488189  39.370078740157503  354.33070866141748  0
472.44094488189  39.370078740157503  393.70078740157498  0
472.44094488189  39.370078740157503  433.07086614173249  0
472.44094488189  39.370078740157503  472.44094488189  0
472.44094488189  39.370078740157503  511.81102362204751  0
471.8428249217402  39.370078740157503  229.38393001311312  0
470.06663861361818  39.370078740157503  222.75511246749349  0
467.16635447970202  39.370078740157503  216.53543307086625  0
463.23009618578624  39.370078740157503  210.91387363438832  0
458.37746494828866  39.370078740157503  206.06124239689075  0
452.75590551181074  39.370078740157503  202.12498410297496  0
446.53622611518352  39.370078740157503  199.2246999690588  0
439.90740856956387  39.370078740157503  197.44851366093678  0
153.10586176727867  39.370078740157503  196.85039370078701  0
188.10148731408535  39.370078740157503  196.85039370078701  0
223.09711286089203  39.370078740157503  196.85039370078701  0
258.09273840769868  39.370078740157503  196.85039370078701  0
293.08836395450533  39.370078740157503  196.85039370078701  0
328.08398950131198  39.370078740157503  196.85039370078701  0
363.07961504811868  39.370078740157503  196.85039370078701  0
398.07524059492533  39.370078740157503  196.85039370078701  0
111.27369379264012  39.370078740157503  197.44851366093678  0
104.64487624702049  39.370078740157503  199.2246999690588  0
98.425196850393249  39.370078740157503  202.12498410297496  0
92.803637413915325  39.370078740157503  206.06124239689072  0
87.951006176417735  39.370078740157503  210.91387363438832  0
84.014747882501965  39.370078740157503  216.53543307086625  0
81.11446374858582  39.370078740157503  222.75511246749346  0
79.338277440463798  39.370078740157503  229.38393001311309  0
78.740157480315006  39.370078740157503  275.59055118110251  0
78.740157480315006  39.370078740157503  314.96062992126002  0
78.740157480315006  39.370078740157503  354.33070866141748  0
78.740157480315006  39.370078740157503  393.70078740157498  0
78.740157480315006  39.370078740157503  433.07086614173249  0
78.740157480315006  39.370078740157503  472.44094488189  0
78.740157480315006  39.370078740157503  511.81102362204751  0
79.338277440463784  39.370078740157503  558.01764479003691  0
81.11446374858582  39.370078740157503  564.64646233565657  0
84.01474788250195  39.370078740157503  570.86614173228384  0
87.951006176417735  39.370078740157503  576.48770116876165  0
92.803637413915311  39.370078740157503  581.34033240625934  0
98.425196850393235  39.370078740157503  585.27659070017512  0
104.64487624702048  39.370078740157503  588.17687483409122  0
111.27369379264009  39.370078740157503  589.95306114221319  0
0  118.110236220472  68.002863278453816  0
0  118.110236220472  136.00572655690763  0
0  118.110236220472  204.00858983536145  0
0  118.110236220472  272.01145311381526  0
0  118.110236220472  340.01431639226905  0
0  118.110236220472  408.0171796707229  0
0  118.110236220472  476.02004294917674  0
0  118.110236220472  544.02290622763053  0
0  118.110236220472  612.02576950608432  0
0  118.110236220472  680.0286327845381  0
482.28346456692941  118.110236220472  0  0
413.3858267716538  118.110236220472  0  0
344.48818897637813  118.110236220472  0  0
275.59055118110251  118.110236220472  0  0
206.6929133858269  118.110236220472  0  0
137.79527559055126  118.110236220472  0  0
68.897637795275614  118.110236220472  0  0
551.18110236220502  118.110236220472  83.11461067366578  0
551.18110236220502  118.110236220472  166.22922134733156  0
551.18110236220502  118.110236220472  249.34383202099735  0
551.18110236220502  118.110236220472  332.45844269466312  0
551.18110236220502  118.110236220472  415.57305336832889  0
551.18110236220502  118.110236220472  498.68766404199471  0
551.18110236220502  118.110236220472  581.80227471566047  0
551.18110236220502  118.110236220472  664.91688538932624  0
413.3858267716538  118.110236220472  748.03149606299201  0
275.59055118110251  118.110236220472  748.03149606299201  0
137.79527559055126  118.110236220472  748.03149606299201  0
78.740157480315006  98.425196850393377  236.220472440945  0
78.740157480315006  78.74015748031475  236.220472440945  0
78.740157480315006  59.055118110236123  236.220472440945  0
79.338277440463784  118.110236220472  229.38393001311312  0
81.11446374858582  118.110236220472  222.75511246749349  0
84.01474788250195  118.110236220472  216.53543307086625  0
87.951006176417735  118.110236220472  210.91387363438832  0
92.803637413915311  118.110236220472  206.06124239689075  0
98.425196850393235  118.110236220472  202.12498410297496  0
104.64487624702048  118.110236220472  199.2246999690588  0
111.27369379264009  118.110236220472  197.44851366093678  0
118.110236220472  98.425196850393377  196.85039370078701  0
118.110236220472  78.74015748031475  196.85039370078701  0
118.110236220472  59.055118110236123  196.85039370078701  0
78.740157480315006  118.110236220472  275.59055118110251  0
78.740157480315006  118.110236220472  314.96062992126002  0
78.740157480315006  118.110236220472  354.33070866141748  0
78.740157480315006  118.110236220472  393.70078740157498  0
78.740157480315006  118.110236220472  433.07086614173249  0
78.740157480315006  118.110236220472  472.44094488189  0
78.740157480315006  118.110236220472  511.81102362204751  0
78.740157480315006  59.05511811023613  551.18110236220502  0
78.740157480315006  78.740157480314764  551.18110236220502  0
78.740157480315006  98.425196850393377  551.18110236220502  0
118.110236220472  59.05511811023613  590.55118110236197  0
118.110236220472  78.740157480314764  590.55118110236197  0
118.110236220472  98.425196850393377  590.55118110236197  0
111.27369379264012  118.110236220472  589.9530611422133  0
104.64487624702049  118.110236220472  588.17687483409122  0
98.425196850393249  118.110236220472  585.27659070017512  0
92.803637413915325  118.110236220472  581.34033240625934  0
87.951006176417735  118.110236220472  576.48770116876176  0
84.014747882501965  118.110236220472  570.86614173228384  0
81.11446374858582  118.110236220472  564.64646233565657  0
79.338277440463798  118.110236220472  558.01764479003691  0
149.606299212598  118.110236220472  590.55118110236197  0
181.10236220472402  118.110236220472  590.55118110236197  0
212.59842519685  118.110236220472  590.55118110236197  0
244.09448818897602  118.110236220472  590.55118110236197  0
275.590551181102  118.110236220472  590.55118110236197  0
307.08661417322799  118.110236220472  590.55118110236197  0
338.58267716535397  118.110236220472  590.55118110236197  0
370.07874015747996  118.110236220472  590.55118110236197  0
401.574803149606  118.110236220472  590.55118110236197  0
433.07086614173198  98.425196850393377  590.55118110236197  0
433.07086614173198  78.74015748031475  590.55118110236197  0
433.07086614173198  59.055118110236123  590.55118110236197  0
472.44094488189  98.425196850393377  551.18110236220502  0
472.44094488189  78.74015748031475  551.18110236220502  0
472.44094488189  59.055118110236123  551.18110236220502  0
471.8428249217402  118.110236220472  558.01764479003691  0
470.06663861361818  118.110236220472  564.64646233565657  0
467.16635447970202  118.110236220472  570.86614173228384  0
463.23009618578624  118.110236220472  576.48770116876165  0
458.37746494828866  118.110236220472  581.34033240625934  0
452.75590551181074  118.110236220472  585.27659070017512  0
446.53622611518352  118.110236220472  588.17687483409122  0
439.90740856956387  118.110236220472  589.95306114221319  0
472.44094488189  59.05511811023613  236.220472440945  0
472.44094488189  78.740157480314764  236.220472440945  0
472.44094488189  98.425196850393377  236.220472440945  0
472.44094488189  118.110236220472  275.59055118110251  0
472.44094488189  118.110236220472  314.96062992126002  0
472.44094488189  118.110236220472  354.33070866141748  0
472.44094488189  118.110236220472  393.70078740157498  0
472.44094488189  118.110236220472  433.07086614173249  0
472.44094488189  118.110236220472  472.44094488189  0
472.44094488189  118.110236220472  511.81102362204751  0
433.07086614173198  65.616797900262341  196.85039370078701  0
433.07086614173198  91.863517060367172  196.85039370078701  0
439.90740856956387  118.110236220472  197.44851366093678  0
446.53622611518347  118.110236220472  199.2246999690588  0
452.75590551181074  118.110236220472  202.12498410297496  0
458.37746494828866  118.110236220472  206.06124239689072  0
463.23009618578624  118.110236220472  210.91387363438832  0
467.16635447970202  118.110236220472  216.53543307086625  0
470.06663861361818  118.110236220472  222.75511246749346  0
471.8428249217402  118.110236220472  229.38393001311309  0
275.590551181102  78.740157480315006  196.85039370078701  0
170.60367454068199  118.110236220472  196.85039370078701  0
144.35695538057701  118.110236220472  196.85039370078701  0
393.70078740157453  118.110236220472  196.85039370078701  0
196.85039370078701  78.740157480315006  157.4803149606295  0
196.85039370078701  98.425196850393505  118.110236220472  0
196.85039370078701  118.110236220472  157.4803149606295  0
229.38393001311312  78.740157480315006  79.338277440463784  0
222.75511246749349  78.740157480315006  81.11446374858582  0
216.53543307086625  78.740157480315006  84.01474788250195  0
210.91387363438832  78.740157480315006  87.951006176417735  0
206.06124239689075  78.740157480315006  92.803637413915311  0
202.12498410297496  78.740157480315006  98.425196850393235  0
199.2246999690588  78.740157480315006  104.64487624702048  0
197.44851366093678  78.740157480315006  111.27369379264009  0
229.38393001311312  118.110236220472  79.338277440463784  0
222.75511246749349  118.110236220472  81.11446374858582  0
216.53543307086625  118.110236220472  84.01474788250195  0
210.91387363438832  118.110236220472  87.951006176417735  0
206.06124239689075  118.110236220472  92.803637413915311  0
202.12498410297496  118.110236220472  98.425196850393235  0
199.2246999690588  118.110236220472  104.64487624702048  0
197.44851366093678  118.110236220472  111.27369379264009  0
236.220472440945  98.425196850393505  78.740157480315006  0
314.96062992126002  98.425196850393505  78.740157480315006  0
295.27559055118127  118.110236220472  78.740157480315006  0
275.59055118110251  118.110236220472  78.740157480315006  0
255.90551181102376  118.110236220472  78.740157480315006  0
262.46719160104999  78.740157480315006  78.740157480315006  0
288.71391076115503  78.740157480315006  78.740157480315006  0
353.73258870126824  118.110236220472  111.27369379264012  0
351.95640239314622  118.110236220472  104.64487624702049  0
349.05611825923006  118.110236220472  98.425196850393249  0
345.11985996531428  118.110236220472  92.803637413915325  0
340.2672287278167  118.110236220472  87.951006176417735  0
334.64566929133878  118.110236220472  84.014747882501965  0
328.42598989471156  118.110236220472  81.11446374858582  0
321.79717234909191  118.110236220472  79.338277440463798  0
354.33070866141702  118.110236220472  144.35695538057701  0
354.33070866141702  118.110236220472  170.60367454068199  0
354.33070866141702  98.425196850393505  118.110236220472  0
354.33070866141702  78.740157480315006  144.35695538057701  0
354.33070866141702  78.740157480315006  170.60367454068199  0
353.73258870126824  78.740157480315006  111.27369379264012  0
351.95640239314622  78.740157480315006  104.64487624702049  0
349.05611825923006  78.740157480315006  98.425196850393249  0
345.11985996531428  78.740157480315006  92.803637413915325  0
340.2672287278167  78.740157480315006  87.951006176417735  0
334.64566929133878  78.740157480315006  84.014747882501965  0
328.42598989471156  78.740157480315006  81.11446374858582  0
321.79717234909191  78.740157480315006  79.338277440463798  0
228.49518939516679  0  153.91055237035303  0
357.86017521757498  0  87.710005242021381  0
145.72436292403026  0  327.19667497793415  0
208.46199196178722  0  629.69891163747161  0
216.72482499065507  0  755.07502625445579  0
438.3174060462095  0  748.35344012785879  0
430.07755715015867  0  624.72288989985191  0
312.26403184867547  0  320.19750004938243  0
324.80769369837975  0  695.81559879246879  0
136.71420612233919  0  499.21166254755417  0
104.44324389344465  0  724.33774479477654  0
90.118827166179145  0  618.72848520769151  0
414.55882958556657  0  199.56028140392615  0
323.35678584928263  0  589.78322366142118  0
457.52442567792394  0  85.035719731150635  0
91.831280048316316  0  98.052862072521279  0
390.62915498609487  0  473.79277179830927  0
261.91503707436675  0  524.42130392186152  0
444.03206573842755  0  336.64705318919437  0
93.11654399717716  0  198.515977090126  0
249.5754880757874  0  429.08260154558536  0
439.51440762466268  39.370078740157503  247.56382711097089  0
113.67327312264386  39.370078740157503  214.8470943882009  0
101.0959776420159  39.370078740157503  546.87076978352377  0
431.7808947969084  39.370078740157503  506.58283722839019  0
126.85061432473303  39.370078740157503  283.47400485787301  0
188.13135050068198  39.370078740157503  529.17532112364802  0
111.40877970106901  39.370078740157503  568.62866626026471  0
257.60186783471971  39.370078740157503  411.37327478320407  0
393.7916717858518  39.370078740157503  236.68865352559169  0
97.640597355555514  39.370078740157503  577.81890383287998  0
261.71146524062237  39.370078740157503  257.0239012656354  0
436.07595933023578  39.370078740157503  289.92199890978765  0
105.85208921767781  39.370078740157503  581.26015470667448  0
443.16485797918347  39.370078740157503  207.47133737605444  0
94.608707219566611  39.370078740157503  217.32293792033107  0
452.94542266469875  39.370078740157503  544.72669379880051  0
425.9118364151102  39.370078740157503  218.41711462874844  0
456.3903744525258  39.370078740157503  213.22181568949009  0
101.01321579583075  39.370078740157503  249.23125714987609  0
89.972587246624428  39.370078740157503  230.878943697084  0
462.39117476741484  39.370078740157503  224.43903405842948  0
176.08032058963619  39.370078740157503  237.09550965238225  0
91.651623334947175  39.370078740157503  572.80970543575506  0
137.52584432637136  39.370078740157503  216.91058895568759  0
459.79129918463582  39.370078740157503  564.74820130096316  0
191.49065464727056  39.370078740157503  309.62033046450762  0
118.84196761077311  39.370078740157503  510.10329205609713  0
465.38707888736985  39.370078740157503  556.71101770283349  0
133.71973493566023  39.370078740157503  444.13512100984195  0
446.21201835627625  39.370078740157503  564.24094056744389  0
99.301503016937886  39.370078740157503  568.24913553046315  0
366.07764520364645  39.370078740157503  310.38668204228111  0
126.70874723327802  39.370078740157503  238.68705002541265  0
453.71902839561858  39.370078740157503  575.17383780745376  0
448.02349944723619  39.370078740157503  225.11998981590659  0
135.13605887645073  39.370078740157503  358.83164286572935  0
412.84238450989488  39.370078740157503  426.09760853782177  0
132.52546879942801  39.370078740157503  556.00360851243181  0
87.92717166487887  39.370078740157503  561.84397471668046  0
105.17336953758206  39.370078740157503  230.22271718084411  0
461.05898525879047  39.370078740157503  239.69982342762052  0
442.09802507731717  39.370078740157503  578.75409963185552  0
422.48081514746411  39.370078740157503  557.48871809123159  0
357.43855719141635  39.370078740157503  526.67416182971942  0
102.53137860833003  39.370078740157503  206.18224300726618  0
271.67821165310329  39.370078740157503  539.8617170845904  0
90.271483162444468  106.48996615426282  208.38152619328031  0
81.461778278953744  60.347332719497615  221.83667494115485  0
81.461778435626911  97.133003685735204  221.83667454196751  0
90.271560738086805  78.740178708491442  208.38144861839248  0
103.72666620970477  60.347332380838147  199.57192521528327  0
103.72666661302118  97.133003330125916  199.5719250569924  0
90.271482524313967  50.99037226999183  208.3815268314064  0
78.740157480315006  78.739934275935312  517.38783259239142  0
78.740157480315006  78.740342421086282  270.01376680879224  0
103.72643872068187  60.347332719497608  587.82956030372327  0
103.72643832149453  97.133003685735204  587.82956014705007  0
90.271289972807352  106.48996615426282  579.0198554202326  0
90.271212397919484  78.740178708491428  579.01977784459018  0
81.46168899481026  60.347332380838139  565.56467237297227  0
90.271290610933391  50.990372269991823  579.01985605836308  0
81.461688836519414  97.133003330125916  565.56467196965593  0
402.71153039925031  78.777520714633255  590.55118110236197  0
148.46957196295367  78.777520714633255  590.55118110236197  0
469.71932392657709  97.133003685735204  565.56490026118252  0
447.45443615249923  60.347332380838139  587.82964958786681  0
460.9095416241172  78.740178708491428  579.0201261847576  0
460.9096191997595  106.48996615426282  579.02004860986972  0
469.71932408325023  60.347332719497615  565.56489986199517  0
447.45443574918278  97.133003330125916  587.82964974615766  0
460.90961983789003  50.990372269991823  579.02004797174368  0
472.44094488189  78.739972539543217  517.38780799435779  0
472.44094488189  78.739972539543231  270.01376680879224  0
449.57029499897891  99.490083653424477  200.47453634478367  0
461.31824089346946  79.900922785686717  208.79623280442812  0
461.01645995683191  51.612763480403558  208.48877782399725  0
469.75870020340682  60.597785569926302  221.93740792841086  0
447.80560715887111  63.322571064064832  199.71169942453099  0
469.76993263279292  97.376004272056235  221.96629345052639  0
461.21231094556981  107.02755907113101  208.68754334942349  0
395.91496814539221  72.209629668700288  196.85039370078701  0
145.64267856831196  84.363551373175881  196.85039370078701  0
199.37481093680401  98.425195145434785  104.23939167774624  0
222.34962789821924  98.425195145434785  81.264574716331026  0
208.38162278793129  98.42518979363021  90.271386567458308  0
43.572708857759487  118.110236220472  573.6181019574932  0
60.567937745125853  118.110236220472  201.51299655755017  0
39.860725661821512  118.110236220472  177.09085292692663  0
246.90802230772428  118.110236220472  66.005324794333859  0
154.00061337846699  118.110236220472  85.502789808447872  0
234.94886157287795  118.110236220472  45.791117046534332  0
342.17609559311944  118.110236220472  656.22141842868882  0
44.442605488256795  118.110236220472  520.87883389278966  0
189.2391745841409  118.110236220472  108.67738133729597  0
117.8494350711288  118.110236220472  622.73453662721465  0
507.6903711874894  118.110236220472  273.3607204725252  0
47.187011533450907  118.110236220472  625.87918124249802  0
361.72720667830453  118.110236220472  95.066369296024817  0
72.569312607904735  118.110236220472  218.66430868073817  0
457.03522240468197  118.110236220472  591.52121874632553  0
506.06445026548397  118.110236220472  531.08994334040494  0
88.964000003748112  118.110236220472  198.88874342452397  0
105.67459245615316  118.110236220472  164.82839854437617  0
74.998247870616055  118.110236220472  595.29641655429452  0
109.6991131772393  118.110236220472  181.76644544220261  0
445.49945793013995  118.110236220472  604.50629961450875  0
121.67233601525072  118.110236220472  123.87337517014383  0
94.203653286365849  118.110236220472  589.74562026266392  0
491.45634012642694  118.110236220472  227.70858300333671  0
362.06208143254497  118.110236220472  41.492902259789766  0
487.13969835190727  118.110236220472  215.40324123450389  0
40.427769441763267  118.110236220472  235.85666852549403  0
426.80680540418149  118.110236220472  173.05233279716239  0
479.7021076652029  118.110236220472  227.72908638092537  0
116.81995189708491  118.110236220472  598.59507977219596  0
105.17431870384966  118.110236220472  594.01969331504802  0
490.49324479251004  118.110236220472  136.05353526213497  0
262.05004798781704  118.110236220472  630.84300158033227  0
395.57365281530895  118.110236220472  64.058150930737838  0
375.45547567245552  118.110236220472  103.9024744981886  0
110.9865938771824  118.110236220472  191.09877570371924  0
336.62993603765523  118.110236220472  71.255482602707076  0
437.03166348201586  118.110236220472  134.71263753902591  0
76.478184043746523  118.110236220472  181.09324416717598  0
474.73026546495606  118.110236220472  207.53900894127042  0
361.77882204879967  118.110236220472  109.08229778779301  0
463.70305404130204  118.110236220472  196.42061797429432  0
379.59861236897592  118.110236220472  88.53805041902126  0
99.296149141044083  118.110236220472  188.45068468148853  0
191.54467505107615  118.110236220472  57.688770145445211  0
84.459264902683785  118.110236220472  580.55760501763257  0
65.619682079844438  118.110236220472  547.55998711810741  0
484.48515002463444  118.110236220472  549.21043971137851  0
317.66859123944914  118.110236220472  39.418647588897848  0
177.21301288530944  118.110236220472  649.00726136222579  0
75.508012026583486  118.110236220472  558.2503504438273  0
147.31011681101927  118.110236220472  163.58911780269341  0
400.80666523926334  118.110236220472  105.27681560984469  0
310.48723811330871  118.110236220472  67.343104652722687  0
178.22484004179702  118.110236220472  99.365245597105243  0
475.80541367187965  118.110236220472  218.03020717639069  0
388.13633890349087  118.110236220472  619.26532443463316  0
433.64913013916492  118.110236220472  633.46260268010712  0
83.90608478001306  118.110236220472  623.71031763747169  0
479.52819049846744  118.110236220472  570.73266743371335  0
78.476576537425629  118.110236220472  204.60520808669924  0
453.01928812025591  118.110236220472  74.724667659309134  0
420.42719407223819  118.110236220472  607.60421349292278  0
446.07724010075179  118.110236220472  190.68972660881482  0
169.17441846413297  118.110236220472  122.43417074824248  0
72.755350247591366  118.110236220472  570.06405353057744  0
231.09913587698853  118.110236220472  70.153873342095309  0
62.21430054548496  118.110236220472  132.19997931017167  0
469.79078024708122  118.110236220472  605.75824047386834  0
463.44113504522255  118.110236220472  629.46089197508127  0
349.5423585979201  118.110236220472  86.639960935337641  0
184.21911750214073  118.110236220472  84.066410465785211  0
410.28625874417793  118.110236220472  666.16510044445079  0
276.53739584747314  118.110236220472  56.813562865292063  0
56.229433381868724  118.110236220472  219.92831103174458  0
98.841574984552068  118.110236220472  603.9520909633826  0
504.75103659203933  118.110236220472  572.76701879081372  0
202.86626701219484  118.110236220472  81.810170463661407  0
373.09933474758395  118.110236220472  121.67429819297297  0
122.71765878432578  118.110236220472  182.54979725526451  0
469.19323149180502  118.110236220472  584.53408407733752  0
509.8572322857982  118.110236220472  223.45188784437977  0
194.53495271079396  118.110236220472  95.757761560448927  0
39.48989089273055  118.110236220472  207.67926375219579  0
490.9647955593851  118.110236220472  187.83934886976314  0
459.25427707156808  118.110236220472  169.77944748536748  0
364.23539875255238  118.110236220472  74.482777938299307  0
518.117055986536  118.110236220472  608.82522964855923  0
391.49916156600767  118.110236220472  149.48489034946803  0
489.26483037468131  118.110236220472  595.31263846590809  0
141.72475947049548  118.110236220472  36.313662395425645  0
473.92406250430992  118.110236220472  674.21404060024645  0
91.43858296689956  118.110236220472  74.350021869663152  0
488.95027549696783  118.110236220472  244.07280034943085  0
216.57644007274502  118.110236220472  70.088586086885357  0
80.584547287822815  118.110236220472  670.99251084629896  0
494.28858336627934  118.110236220472  629.68274778580928  0
67.707985947139562  118.110236220472  235.93883994257752  0
334.18514451825752  78.740157480315006  90.922938994595498  0
341.02913417281815  78.740157480315006  101.64472046601111  0
289.33555975463804  78.740157480315006  115.22817381448783  0
260.72814984992419  78.740157480315006  95.122834036546848  0
235.57296147608278  78.740157480315006  98.750625951896666  0
345.55716794658605  78.740157480315006  112.18312934124967  0
338.0548125452753  78.740157480315006  125.85291661521136  0
230.63978935603024  78.740157480315006  150.29129062653809  0
226.01059877904498  78.740157480315006  86.437955384249761  0
319.9303607380125  78.740157480315006  151.74485179486032  0
205.67387727821006  78.740157480315006  107.39016045278588  0
273.51786648605781  78.740157480315006  146.92533283552999  0
222.74648550461424  78.740157480315006  115.24829871686723  0
319.8798860959958  78.740157480315006  116.99838762568947  0
252.08613341228747  78.740157480315006  120.30118051672601  0
322.81268075739325  78.740157480315006  87.940676360276868  0
334.31861253068683  78.740157480315006  111.54891233755613  0
215.69334567455508  78.740157480315006  96.420630426864292  0
327.11357310482219  78.740157480315006  100.95240006958065  0
310.47687660467847  78.740157480315006  96.464990017414337  0
342.06981572499365  98.425169916540412  89.560365028733685  0
350.81163148984109  88.582892731657552  101.84036263350765  0
350.81162699279662  108.26745009986884  101.84035272418114  0
328.71067205072643  98.425183804794187  81.219323498717586  0
Triangles
1016
299 301 43  1
49 287 48  1
302 283 285  1
286 291 287  1
291 296 289  1
4 298 50  1
3 293 49  1
54 294 293  1
288 2 46  1
293 286 287  1
299 44 289  1
2 288 45  1
292 303 300  1
56 284 283  1
55 283 298  1
283 295 290  1
295 297 41  1
1 297 57  1
283 290 285  1
51 285 52  1
283 55 56  1
284 56 57  1
297 295 284  1
52 292 53  1
283 302 298  1
47 291 288  1
286 300 296  1
47 48 287  1
286 293 294  1
45 289 44  1
288 46 47  1
44 299 43  1
289 45 288  1
295 301 290  1
301 299 290  1
289 288 291  1
291 47 287  1
292 294 53  1
292 52 285  1
287 49 293  1
293 3 54  1
294 54 53  1
294 292 286  1
295 283 284  1
295 41 42  1
296 291 286  1
299 296 300  1
284 57 297  1
297 1 41  1
50 302 51  1
298 4 55  1
299 289 296  1
285 290 303  1
300 286 292  1
299 303 290  1
301 295 42  1
42 43 301  1
285 51 302  1
302 50 298  1
303 299 300  1
303 292 285  1
61 48 60  2
48 59 60  2
3 61 6  2
46 59 47  2
48 61 49  2
61 3 49  2
59 48 47  2
5 46 2  2
46 5 58  2
46 58 59  2
59 64 58  3
60 62 63  3
64 59 63  3
58 7 5  3
63 59 60  3
61 8 62  3
62 60 61  3
8 61 6  3
7 58 64  3
328 337 333  4
306 341 310  4
9 346 345  4
10 316 310  4
335 100 312  4
74 345 337  4
122 326 313  4
347 65 66  4
89 321 90  4
321 92 91  4
328 78 77  4
339 311 332  4
13 320 102  4
106 348 318  4
111 322 308  4
308 336 325  4
348 103 305  4
114 332 115  4
322 343 336  4
15 323 322  4
107 318 108  4
106 318 107  4
104 348 105  4
339 112 308  4
103 348 104  4
336 308 322  4
343 322 323  4
111 308 112  4
113 339 114  4
340 311 335  4
116 332 330  4
70 309 69  4
316 125 124  4
118 342 119  4
120 342 326  4
334 313 326  4
326 122 121  4
16 342 118  4
341 306 330  4
316 10 125  4
309 332 311  4
71 309 70  4
340 307 347  4
67 349 347  4
78 331 79  4
337 76 75  4
79 331 11  4
319 11 331  4
76 337 328  4
86 319 307  4
346 9 65  4
86 307 85  4
97 325 96  4
338 324 344  4
320 312 102  4
349 69 309  4
340 82 83  4
324 89 88  4
304 315 312  4
100 335 314  4
82 340 335  4
80 344 12  4
347 66 67  4
92 317 93  4
321 91 90  4
317 92 321  4
317 13 94  4
101 312 100  4
102 312 101  4
305 103 14  4
14 327 305  4
341 330 309  4
306 16 117  4
85 340 84  4
65 347 346  4
112 339 113  4
325 97 314  4
69 349 68  4
332 309 330  4
10 341 71  4
326 342 334  4
99 314 98  4
82 335 315  4
100 314 99  4
312 320 304  4
123 122 313  4
123 316 124  4
97 98 314  4
311 314 335  4
315 80 81  4
81 82 315  4
316 123 313  4
316 334 310  4
94 93 317  4
338 320 317  4
109 323 110  4
109 108 318  4
319 86 11  4
345 74 73  4
320 13 317  4
320 338 304  4
321 89 324  4
324 338 321  4
322 111 15  4
318 343 323  4
323 15 110  4
323 109 318  4
324 88 87  4
87 344 324  4
325 329 308  4
325 95 96  4
334 316 313  4
326 121 120  4
327 14 95  4
95 325 327  4
77 76 328  4
319 346 307  4
329 325 314  4
314 311 329  4
330 306 117  4
117 116 330  4
331 78 328  4
328 319 331  4
332 116 115  4
311 339 329  4
319 328 333  4
345 73 72  4
342 16 306  4
306 310 334  4
335 312 315  4
349 67 68  4
336 305 327  4
327 325 336  4
75 74 337  4
337 345 333  4
317 321 338  4
338 344 304  4
332 114 339  4
339 308 329  4
340 83 84  4
340 85 307  4
309 71 341  4
341 10 310  4
306 334 342  4
342 120 119  4
343 318 305  4
305 336 343  4
344 87 12  4
72 9 345  4
345 346 333  4
346 347 307  4
346 319 333  4
347 311 340  4
344 80 304  4
305 318 348  4
348 106 105  4
349 309 311  4
311 347 349  4
304 80 315  4
54 135 8  5
54 8 3  5
53 134 54  5
53 132 133  5
52 130 131  5
132 53 52  5
51 128 129  5
52 131 132  5
134 53 133  5
6 3 8  5
135 54 134  5
17 8 135  5
50 126 127  5
126 50 4  5
4 18 126  5
130 52 51  5
128 51 50  5
50 127 128  5
51 129 130  5
140 56 139  6
141 55 140  6
56 140 55  6
138 57 137  6
55 141 142  6
55 142 4  6
1 19 136  6
57 136 137  6
136 57 1  6
139 56 138  6
4 142 18  6
57 138 56  6
144 42 41  7
149 44 148  7
149 45 44  7
1 143 41  7
43 148 44  7
2 7 5  7
45 150 7  7
43 146 147  7
7 2 45  7
42 144 145  7
146 43 42  7
150 45 149  7
20 7 150  7
42 145 146  7
148 43 147  7
143 1 19  7
41 143 144  7
62 152 153  8
153 8 62  8
64 151 152  8
8 153 17  8
64 152 63  8
151 64 7  8
7 20 151  8
152 62 63  8
159 352 158  9
352 351 155  9
14 103 167  9
354 166 167  9
103 354 167  9
354 355 166  9
352 157 158  9
162 350 161  9
162 355 350  9
22 165 164  9
350 355 353  9
164 355 163  9
350 159 160  9
166 355 165  9
352 353 351  9
157 352 154  9
355 354 353  9
157 154 21  9
351 110 156  9
356 105 106  9
109 351 108  9
110 351 109  9
156 110 15  9
353 352 350  9
160 161 350  9
105 354 104  9
108 356 107  9
351 156 155  9
155 154 352  9
352 159 350  9
105 356 354  9
356 108 351  9
354 103 104  9
354 356 353  9
355 162 163  9
355 164 165  9
106 107 356  9
356 351 353  9
169 113 112  10
113 171 114  10
112 358 169  10
154 358 155  10
156 111 15  10
172 114 171  10
116 357 117  10
114 172 115  10
115 172 116  10
357 173 174  10
175 16 117  10
173 116 172  10
175 357 176  10
357 116 173  10
23 177 174  10
177 357 174  10
169 358 168  10
171 113 170  10
113 169 170  10
358 112 111  10
154 21 168  10
156 358 111  10
357 177 176  10
357 175 117  10
358 156 155  10
358 154 168  10
176 365 177  11
118 363 175  11
363 365 176  11
179 360 359  11
363 364 362  11
361 183 184  11
361 365 362  11
175 16 118  11
186 361 185  11
188 365 187  11
186 365 361  11
364 120 121  11
177 188 23  11
362 360 361  11
360 181 182  11
181 360 180  11
120 363 119  11
181 180 24  11
10 178 125  11
359 125 178  11
360 362 359  11
124 359 123  11
123 364 122  11
125 359 124  11
359 178 179  11
183 361 360  11
360 179 180  11
360 182 183  11
361 184 185  11
365 363 362  11
120 364 363  11
364 123 359  11
363 176 175  11
363 118 119  11
121 122 364  11
364 359 362  11
365 186 187  11
365 188 177  11
69 191 70  12
9 200 65  12
192 68 193  12
70 367 71  12
367 70 190  12
68 192 69  12
180 367 189  12
367 190 189  12
68 194 193  12
189 24 180  12
194 67 195  12
190 70 191  12
178 367 179  12
191 69 192  12
196 366 197  12
194 68 67  12
25 197 198  12
366 66 65  12
198 366 199  12
200 366 65  12
195 66 196  12
66 195 67  12
66 366 196  12
71 178 10  12
366 200 199  12
366 198 197  12
367 180 179  12
367 178 71  12
374 74 75  13
369 72 73  13
368 204 205  13
72 369 200  13
209 371 208  13
200 369 199  13
372 368 370  13
368 371 370  13
209 373 371  13
25 198 211  13
373 209 210  13
211 373 210  13
368 205 206  13
201 368 202  13
9 72 200  13
369 374 370  13
204 368 201  13
204 201 26  13
369 73 74  13
368 372 202  13
79 372 78  13
203 79 11  13
77 374 76  13
374 77 372  13
202 372 203  13
206 371 368  13
199 373 198  13
74 374 369  13
371 206 207  13
369 373 199  13
207 208 371  13
371 373 370  13
372 77 78  13
372 79 203  13
373 211 198  13
373 369 370  13
75 76 374  13
374 372 370  13
218 82 217  14
376 216 81  14
83 218 219  14
218 83 82  14
212 80 12  14
85 375 86  14
375 220 221  14
203 375 202  14
83 219 84  14
203 11 86  14
219 85 84  14
220 375 85  14
85 219 220  14
201 375 221  14
221 26 201  14
376 81 80  14
212 376 80  14
27 215 214  14
214 376 213  14
216 82 81  14
216 376 215  14
82 216 217  14
375 201 202  14
375 203 86  14
376 212 213  14
376 214 215  14
377 224 225  15
87 380 212  15
380 382 213  15
224 377 223  15
379 378 380  15
378 379 381  15
377 383 378  15
12 87 212  15
377 225 226  15
229 383 228  15
381 92 93  15
231 382 230  15
231 27 214  15
383 382 378  15
382 380 378  15
380 87 88  15
381 223 377  15
224 223 28  15
383 229 382  15
92 381 379  15
94 381 93  15
94 13 222  15
92 379 91  15
223 381 222  15
226 383 377  15
213 382 214  15
89 380 88  15
379 89 90  15
90 91 379  15
380 213 212  15
380 89 379  15
381 94 222  15
381 377 378  15
382 229 230  15
382 231 214  15
383 226 227  15
227 228 383  15
223 384 222  16
235 223 28  16
385 233 234  16
385 167 95  16
167 385 166  16
30 95 96  16
95 167 14  16
30 96 97  16
165 385 234  16
165 234 22  16
97 232 30  16
233 385 30  16
30 31 233  16
29 235 32  16
232 97 98  16
100 29 232  16
29 100 101  16
384 101 102  16
100 232 99  16
29 384 235  16
13 222 102  16
232 98 99  16
101 384 29  16
102 222 384  16
384 223 235  16
385 165 166  16
385 95 30  16
31 30 236  17
236 238 31  17
238 237 34  17
237 238 236  17
236 33 237  17
388 249 387  18
239 387 255  18
254 386 237  18
249 388 250  18
386 246 237  18
241 388 387  18
387 247 255  18
254 237 34  18
35 239 255  18
387 249 248  18
247 387 248  18
250 388 251  18
252 388 386  18
386 244 245  18
255 247 36  18
388 244 386  18
244 388 243  18
388 241 242  18
33 237 246  18
246 386 245  18
386 254 253  18
253 252 386  18
387 239 240  18
240 241 387  18
242 243 388  18
388 252 251  18
257 261 256  19
257 256 38  19
261 257 258  19
258 260 261  19
36 255 259  19
260 258 259  19
260 259 255  19
255 35 260  19
256 261 37  19
441 423 431  20
171 130 170  20
17 484 153  20
169 130 129  20
438 191 421  20
172 131 171  20
208 469 403  20
455 36 247  20
467 39 429  20
143 136 19  20
481 393 410  20
391 456 427  20
462 394 139  20
481 410 456  20
130 169 170  20
142 126 18  20
130 171 131  20
36 455 392  20
483 248 249  20
248 455 247  20
479 140 433  20
248 483 455  20
483 394 455  20
139 394 140  20
238 31 233  20
466 471 460  20
253 471 252  20
410 453 440  20
34 453 397  20
233 440 238  20
440 233 234  20
453 238 440  20
432 424 163  20
128 415 129  20
449 159 402  20
159 449 160  20
161 405 162  20
163 424 164  20
22 468 234  20
402 486 463  20
486 157 21  20
174 435 396  20
173 396 132  20
187 454 439  20
454 435 439  20
132 172 173  20
172 132 131  20
484 438 153  20
396 173 174  20
439 23 188  20
23 439 435  20
398 484 447  20
183 182 411  20
411 434 184  20
434 454 186  20
421 191 192  20
186 454 187  20
389 407 400  20
169 129 168  20
486 168 415  20
415 463 486  20
182 419 411  20
438 189 190  20
421 194 395  20
191 438 190  20
152 438 421  20
194 421 193  20
395 194 195  20
195 445 395  20
445 195 196  20
25 409 451  20
404 465 436  20
469 208 207  20
20 480 150  20
409 403 457  20
420 144 473  20
445 196 197  20
208 403 209  20
210 409 211  20
403 469 457  20
238 453 34  20
220 147 148  20
147 217 146  20
219 147 220  20
399 216 215  20
218 147 219  20
220 404 221  20
221 436 26  20
204 448 205  20
465 404 149  20
416 474 452  20
146 217 216  20
230 417 231  20
215 482 399  20
417 482 27  20
482 417 412  20
417 27 231  20
228 430 428  20
428 229 228  20
444 417 230  20
226 452 430  20
430 228 227  20
28 452 224  20
216 399 146  20
217 147 218  20
397 471 253  20
471 397 443  20
235 32 271  20
235 477 416  20
235 416 28  20
271 477 235  20
413 437 138  20
39 467 270  20
429 263 401  20
477 441 426  20
425 266 267  20
462 259 392  20
264 459 401  20
425 475 459  20
401 475 431  20
269 442 425  20
257 462 442  20
442 269 38  20
459 264 265  20
264 401 263  20
389 400 134  20
134 133 389  20
472 463 415  20
160 405 161  20
128 127 391  20
162 432 163  20
259 462 258  20
259 36 392  20
440 234 468  20
126 481 456  20
393 460 443  20
394 462 392  20
409 25 211  20
151 152 395  20
396 389 133  20
133 132 396  20
397 253 254  20
254 34 397  20
189 418 24  20
418 189 398  20
399 470 145  20
145 146 399  20
135 134 400  20
464 398 447  20
263 429 262  20
475 401 459  20
402 159 158  20
158 157 402  20
210 209 403  20
465 476 478  20
404 220 148  20
436 221 404  20
405 160 449  20
427 449 390  20
427 456 406  20
406 468 408  20
184 434 185  20
407 447 400  20
424 432 408  20
406 432 427  20
409 210 403  20
458 409 457  20
126 456 127  20
393 481 479  20
464 407 411  20
411 184 183  20
473 470 414  20
470 482 412  20
437 413 425  20
138 137 413  20
414 470 412  20
229 444 230  20
472 390 463  20
486 402 157  20
137 450 422  20
224 452 225  20
417 444 414  20
414 412 417  20
181 419 182  20
181 24 418  20
407 464 447  20
419 181 418  20
143 450 136  20
143 144 420  20
192 193 421  20
421 395 152  20
422 413 137  20
450 441 422  20
467 429 423  20
450 137 136  20
424 468 22  20
22 164 424  20
425 267 268  20
268 269 425  20
452 28 416  20
441 477 467  20
432 406 408  20
427 390 391  20
473 430 474  20
428 473 414  20
39 262 429  20
429 401 423  20
430 473 428  20
430 227 226  20
423 401 431  20
422 475 413  20
432 162 405  20
405 427 432  20
140 479 141  20
140 394 433  20
186 185 434  20
434 411 407  20
389 396 435  20
435 174 23  20
440 406 410  20
436 204 26  20
139 138 437  20
425 442 437  20
438 152 153  20
438 484 398  20
188 187 439  20
435 454 389  20
149 404 148  20
448 204 436  20
431 422 441  20
441 450 426  20
38 257 442  20
442 462 437  20
393 453 410  20
251 471 466  20
444 229 428  20
428 414 444  20
420 474 426  20
395 461 151  20
480 446 458  20
461 480 151  20
400 484 135  20
398 464 418  20
206 469 207  20
206 205 448  20
449 402 390  20
449 427 405  20
450 143 420  20
420 426 450  20
197 451 445  20
451 409 446  20
452 474 430  20
452 226 225  20
453 393 443  20
443 397 453  20
454 434 407  20
407 389 454  20
394 483 433  20
394 392 455  20
410 406 456  20
456 391 127  20
476 465 149  20
409 458 446  20
480 458 485  20
446 480 461  20
459 265 266  20
266 425 459  20
460 393 433  20
251 466 250  20
461 395 445  20
445 446 461  20
139 437 462  20
462 257 258  20
390 472 391  20
390 402 463  20
464 411 419  20
419 418 464  20
448 478 469  20
448 436 465  20
460 433 466  20
466 249 250  20
423 441 467  20
477 271 270  20
468 424 408  20
468 406 440  20
469 206 448  20
469 478 457  20
470 473 144  20
144 145 470  20
443 460 471  20
471 251 252  20
415 128 472  20
128 391 472  20
451 197 25  20
445 451 446  20
474 416 426  20
474 420 473  20
475 425 413  20
475 422 431  20
149 150 476  20
457 485 458  20
270 467 477  20
477 426 416  20
478 485 457  20
478 448 465  20
142 141 479  20
479 433 393  20
150 485 476  20
480 20 151  20
481 126 142  20
142 479 481  20
482 470 399  20
482 215 27  20
483 249 466  20
466 433 483  20
484 17 135  20
484 400 447  20
485 478 476  20
485 150 480  20
398 189 438  20
168 486 21  20
415 168 129  20
274 271 32  21
32 29 274  21
270 273 272  21
271 274 273  21
273 270 271  21
273 40 272  21
272 39 270  21
273 496 493  22
33 494 236  22
29 496 274  22
494 501 498  22
33 499 494  22
497 504 499  22
244 504 497  22
504 244 243  22
495 35 491  22
239 495 240  22
491 35 490  22
488 505 487  22
501 489 498  22
489 501 490  22
30 494 232  22
492 276 275  22
488 277 276  22
35 495 239  22
487 279 278  22
278 488 487  22
281 502 282  22
487 280 279  22
488 278 277  22
496 500 493  22
280 487 281  22
282 502 37  22
276 492 488  22
261 506 489  22
487 505 502  22
506 505 500  22
261 490 260  22
506 500 489  22
35 260 490  22
490 261 489  22
497 33 246  22
244 497 245  22
492 275 40  22
40 493 492  22
493 40 273  22
496 498 489  22
494 30 236  22
490 501 491  22
241 504 242  22
241 240 495  22
496 273 274  22
496 29 232  22
246 245 497  22
504 491 499  22
498 496 232  22
232 494 498  22
499 33 497  22
491 504 495  22
493 503 492  22
500 496 489  22
501 494 499  22
499 491 501  22
502 281 487  22
505 506 502  22
488 492 503  22
503 493 500  22
504 243 242  22
504 241 495  22
505 488 503  22
503 500 505  22
506 261 37  22
37 502 506  22
277 508 276  23
280 507 279  23
38 269 256  23
510 267 507  23
509 262 272  23
507 509 508  23
39 272 262  23
275 508 272  23
265 509 507  23
262 509 263  23
507 267 266  23
267 510 268  23
264 263 509  23
510 269 268  23
282 510 281  23
275 272 40  23
265 507 266  23
280 510 507  23
269 510 256  23
256 282 37  23
278 508 277  23
278 279 507  23
508 275 276  23
508 278 507  23
509 272 508  23
509 265 264  23
510 280 281  23
510 282 256  23
Edges
302
1 41  1
41 42  1
42 43  1
43 44  1
44 45  1
45 2  1
2 46  2
46 47  2
47 48  2
48 49  2
49 3  2
4 50  3
50 51  3
51 52  3
52 53  3
53 54  3
54 3  3
4 55  4
55 56  4
56 57  4
57 1  4
5 58  5
58 59  5
59 60  5
60 61  5
61 6  5
3 6  6
5 2  7
7 5  8
8 62  9
62 63  9
63 64  9
64 7  9
8 6  10
9 65  11
65 66  11
66 67  11
67 68  11
68 69  11
69 70  11
70 71  11
71 10  11
9 72  12
72 73  12
73 74  12
74 75  12
75 76  12
76 77  12
77 78  12
78 79  12
79 11  12
12 80  13
80 81  13
81 82  13
82 83  13
83 84  13
84 85  13
85 86  13
86 11  13
12 87  14
87 88  14
88 89  14
89 90  14
90 91  14
91 92  14
92 93  14
93 94  14
94 13  14
14 95  15
95 96  15
96 97  15
97 98  15
98 99  15
99 100  15
100 101  15
101 102  15
102 13  15
14 103  16
103 104  16
104 105  16
105 106  16
106 107  16
107 108  16
108 109  16
109 110  16
110 15  16
15 111  17
111 112  17
112 113  17
113 114  17
114 115  17
115 116  17
116 117  17
117 16  17
16 118  18
118 119  18
119 120  18
120 121  18
121 122  18
122 123  18
123 124  18
124 125  18
125 10  18
17 8  19
18 126  20
126 127  20
127 128  20
128 129  20
129 130  20
130 131  20
131 132  20
132 133  20
133 134  20
134 135  20
135 17  20
18 4  21
1 19  22
19 136  23
136 137  23
137 138  23
138 139  23
139 140  23
140 141  23
141 142  23
142 18  23
19 143  24
143 144  24
144 145  24
145 146  24
146 147  24
147 148  24
148 149  24
149 150  24
150 20  24
7 20  25
20 151  26
151 152  26
152 153  26
153 17  26
21 154  27
154 155  27
155 156  27
156 15  27
21 157  28
157 158  28
158 159  28
159 160  28
160 161  28
161 162  28
162 163  28
163 164  28
164 22  28
22 165  29
165 166  29
166 167  29
167 14  29
21 168  30
168 169  30
169 170  30
170 171  30
171 172  30
172 173  30
173 174  30
174 23  30
16 175  31
175 176  31
176 177  31
177 23  31
10 178  32
178 179  32
179 180  32
180 24  32
24 181  33
181 182  33
182 183  33
183 184  33
184 185  33
185 186  33
186 187  33
187 188  33
188 23  33
24 189  34
189 190  34
190 191  34
191 192  34
192 193  34
193 194  34
194 195  34
195 196  34
196 197  34
197 25  34
25 198  35
198 199  35
199 200  35
200 9  35
26 201  36
201 202  36
202 203  36
203 11  36
26 204  37
204 205  37
205 206  37
206 207  37
207 208  37
208 209  37
209 210  37
210 211  37
211 25  37
12 212  38
212 213  38
213 214  38
214 27  38
27 215  39
215 216  39
216 217  39
217 218  39
218 219  39
219 220  39
220 221  39
221 26  39
13 222  40
222 223  40
223 28  40
28 224  41
224 225  41
225 226  41
226 227  41
227 228  41
228 229  41
229 230  41
230 231  41
231 27  41
29 232  42
232 30  42
30 31  43
31 233  44
233 234  44
234 22  44
28 235  45
235 32  45
32 29  46
33 236  47
236 30  47
34 237  48
237 33  48
34 238  49
238 31  49
35 239  50
239 240  50
240 241  50
241 242  50
242 243  50
243 244  50
244 245  50
245 246  50
246 33  50
36 247  51
247 248  51
248 249  51
249 250  51
250 251  51
251 252  51
252 253  51
253 254  51
254 34  51
36 255  52
255 35  52
37 256  53
256 38  53
38 257  54
257 258  54
258 259  54
259 36  54
35 260  55
260 261  55
261 37  55
39 262  56
262 263  56
263 264  56
264 265  56
265 266  56
266 267  56
267 268  56
268 269  56
269 38  56
39 270  57
270 271  57
271 32  57
40 272  58
272 39  58
40 273  59
273 274  59
274 29  59
40 275  60
275 276  60
276 277  60
277 278  60
278 279  60
279 280  60
280 281  60
281 282  60
282 37  60
End
