MeshVersionFormatted 1

Dimension
3

Vertices
245
0  0  40  0
0  0  0  0
320  0  0  0
320  0  40  0
0  80  40  0
0  80  0  0
320  80  40  0
320  80  0  0
140  40  0  0
100  40  0  0
140  40  40  0
100  40  40  0
293.33333333333337  0  0  0
266.66666666666663  0  0  0
240  0  0  0
213.33333333333331  0  0  0
186.66666666666666  0  0  0
160  0  0  0
133.33333333333331  0  0  0
106.66666666666666  0  0  0
79.999999999999986  0  0  0
53.333333333333314  0  0  0
26.666666666666657  0  0  0
26.666666666666657  0  40  0
53.333333333333343  0  40  0
80  0  40  0
106.66666666666667  0  40  0
133.33333333333334  0  40  0
160  0  40  0
186.66666666666669  0  40  0
213.33333333333334  0  40  0
240  0  40  0
266.66666666666669  0  40  0
293.33333333333337  0  40  0
0  40  0  0
26.666666666666657  80  0  0
53.333333333333343  80  0  0
80  80  0  0
106.66666666666667  80  0  0
133.33333333333334  80  0  0
160  80  0  0
186.66666666666669  80  0  0
213.33333333333334  80  0  0
240  80  0  0
266.66666666666669  80  0  0
293.33333333333337  80  0  0
290.90909090909088  80  40  0
261.81818181818181  80  40  0
232.72727272727275  80  40  0
203.63636363636363  80  40  0
174.54545454545456  80  40  0
145.45454545454547  80  40  0
116.36363636363637  80  40  0
87.27272727272728  80  40  0
58.181818181818187  80  40  0
29.090909090909093  80  40  0
139.69615506024417  43.472963553338609  0  0
138.79385241571816  46.840402866513372  0  0
137.32050807568876  50  0  0
135.32088886237955  52.855752193730787  0  0
132.85575219373078  55.320888862379562  0  0
130  57.320508075688771  0  0
126.84040286651337  58.793852415718163  0  0
123.4729635533386  59.696155060244159  0  0
120  60  0  0
116.5270364466614  59.696155060244159  0  0
113.15959713348663  58.79385241571817  0  0
110  57.320508075688778  0  0
107.14424780626922  55.320888862379562  0  0
104.67911113762044  52.855752193730794  0  0
102.67949192431122  50  0  0
101.20614758428184  46.840402866513379  0  0
100.30384493975583  43.472963553338616  0  0
100.30384493975583  36.527036446661398  0  0
101.20614758428184  33.159597133486628  0  0
102.67949192431122  30.000000000000004  0  0
104.67911113762044  27.144247806269213  0  0
107.14424780626921  24.679111137620442  0  0
109.99999999999999  22.679491924311233  0  0
113.15959713348663  21.20614758428183  0  0
116.5270364466614  20.303844939755841  0  0
120  20  0  0
123.4729635533386  20.303844939755837  0  0
126.84040286651336  21.20614758428183  0  0
130  22.679491924311229  0  0
132.85575219373078  24.679111137620438  0  0
135.32088886237955  27.144247806269206  0  0
137.32050807568876  29.999999999999993  0  0
138.79385241571816  33.159597133486628  0  0
139.69615506024417  36.527036446661391  0  0
139.69615506024417  36.527036446661391  40  0
138.79385241571816  33.159597133486628  40  0
137.32050807568876  30  40  0
135.32088886237955  27.144247806269213  40  0
132.85575219373078  24.679111137620438  40  0
130  22.679491924311229  40  0
126.84040286651337  21.206147584281833  40  0
123.4729635533386  20.303844939755841  40  0
120  20  40  0
116.5270364466614  20.303844939755841  40  0
113.15959713348663  21.20614758428183  40  0
110  22.679491924311225  40  0
107.14424780626922  24.679111137620438  40  0
104.67911113762044  27.14424780626921  40  0
102.67949192431122  30  40  0
101.20614758428184  33.159597133486621  40  0
100.30384493975583  36.527036446661384  40  0
100.30384493975583  43.472963553338602  40  0
101.20614758428184  46.840402866513372  40  0
102.67949192431122  50  40  0
104.67911113762044  52.855752193730787  40  0
107.14424780626921  55.320888862379562  40  0
109.99999999999999  57.320508075688764  40  0
113.15959713348663  58.79385241571817  40  0
116.5270364466614  59.696155060244159  40  0
120  60  40  0
123.4729635533386  59.696155060244166  40  0
126.84040286651336  58.79385241571817  40  0
130  57.320508075688771  40  0
132.85575219373078  55.320888862379562  40  0
135.32088886237955  52.855752193730794  40  0
137.32050807568876  50.000000000000007  40  0
138.79385241571816  46.840402866513372  40  0
139.69615506024417  43.472963553338609  40  0
100  40  13.333333333333334  0
100  40  26.666666666666668  0
140  40  26.666666666666664  0
140  40  13.333333333333332  0
143.03500578994274  62.588904458298373  0  0
145.41665238935937  50.645345041411851  0  0
164.16070925121409  56.489341135485482  0  0
122.79859988642633  65.664965559655201  0  0
91.604657774165645  55.788795460425568  0  0
85.730903102754496  33.052553027061805  0  0
154.59890794406564  43.953814333741597  0  0
135.94705165123179  19.220713680512599  0  0
76.652907444723937  58.888293896540191  0  0
77.368720112420448  42.150020800557257  0  0
116.13209878886575  12.172029723532212  0  0
152.33763901560661  32.1724565961336  0  0
166.38033586184383  38.675116760646809  0  0
141.55473700644171  27.667965122623389  0  0
101.32425399860099  11.562623623710598  0  0
91.769681043749671  41.816436488088897  0  0
142.84451844432579  35.21983114983712  0  0
94.652601264093775  27.332733671530629  0  0
108.30142079664157  60.61824082915502  0  0
50.510105201500735  38.881729311086005  0  0
130.229944594139  15.612426860456427  0  0
72.717198826168641  30.635563866245789  0  0
82.187929775597453  20.941221120918353  0  0
193.10391743443532  39.543026386794011  0  0
148.47745024950345  16.713763747439355  0  0
67.757921399745939  18.104183669762353  0  0
101.1253872600474  55.643420307925297  0  0
167.80731242013394  21.189446490259375  0  0
92.21425197785031  16.440816491201286  0  0
86.788627135347198  49.551776994656045  0  0
125.01441859030706  14.893984611234005  0  0
144.79405186677832  41.762564788337485  0  0
96.906473702526341  65.727137179752205  0  0
96.504932798299478  49.033290279215947  0  0
102.84482473448364  22.286118783966703  0  0
110.01051447198181  18.383834317403096  0  0
95.623282475456804  35.334746952194941  0  0
130.31814611858127  62.773666152056279  0  0
115.78910740605576  62.319470212791785  0  0
246.62675503282816  39.953295538904825  0  0
113.96788405575298  69.080323706549777  0  0
141.27120083955171  26.324974730552608  40  0
136.82115620215328  57.717514731039834  40  0
43.824127050158381  39.85450528793973  40  0
97.53120187533996  13.083036912718264  40  0
86.894227654004467  17.229687716391819  40  0
144.208962965083  53.193587860584657  40  0
143.78786758798415  63.638224647500095  40  0
143.15255686825816  32.803797454740248  40  0
150.10382851518403  28.226756795443855  40  0
99.413089065292567  53.017447064791163  40  0
157.6936700340591  63.350469525953251  40  0
79.560458086302901  39.51559811383477  40  0
168.80250331272171  28.169219887217455  40  0
93.137515132104184  36.398496053737389  40  0
151.56168396335676  36.556123974326162  40  0
126.18662394769061  66.79240144299736  40  0
105.76900002869485  65.638668614361848  40  0
218.16288469339077  39.927281982834302  40  0
87.656862804125367  28.228840593589595  40  0
134.83007357079362  64.035898595742097  40  0
94.157476104572609  42.736887620888346  40  0
145.75590795618248  17.402753802563193  40  0
104.41790736453106  21.266196121689585  40  0
145.93757406529903  44.310921645669275  40  0
130.7947083632875  16.761639651682593  40  0
97.288046700518819  24.04718463710358  40  0
90.619165810306328  50.20869285881934  40  0
75.54285260712733  58.389918749479435  40  0
135.99667380481196  22.485138389477314  40  0
180.14264226676713  56.381083642517837  40  0
71.894325367226983  20.802843841535324  40  0
143.33744646722346  38.925120109927427  40  0
158.050973650195  46.969081969428267  40  0
109.7858071795432  15.978082899018977  40  0
116.34535236228645  65.145257393579541  40  0
97.067573406100038  31.390960440745449  40  0
93.702714911006879  60.779454551796405  40  0
120.09325170460392  13.331817045177914  40  0
103.46024446597968  57.483170733238865  40  0
276.37461780689222  34.989304655506757  40  0
102.76989077053139  29.845033927157587  11.755737373946587  0
139.44431959422948  35.318287117147946  13.395740509127648  0
100.55388481648791  35.325750940570181  13.398978946638014  0
135.28681836525556  27.103753093721981  28.639044814439966  0
104.67992735160917  27.143275143022343  28.635176501236593  0
138.71943278675437  32.958491912794145  28.634529163304919  0
109.82861221996309  22.779579835900755  28.433498335120625  0
116.53237056866691  20.302905134844057  26.294823434275724  0
123.68657900290761  20.342707835123356  28.419261398135038  0
132.85654094084569  24.679773009633365  11.506152994311028  0
130.04762065799832  22.707073147874439  28.591241732149996  0
121.23740206272275  20.038315799132342  12.472269750641116  0
137.21239872781439  29.815043935552147  11.739528188126197  0
112.02316527072082  21.659604483496938  12.482250421136467  0
127.04344966099515  21.281297671231926  11.570545167212419  0
116.53096908033775  20.303151915130499  8.5425401940323074  0
101.27598393503328  32.970688341034503  28.63694046272424  0
107.00932237162858  24.793347023235835  11.615990882484871  0
101.49557375896246  47.588557800399343  11.418713824016253  0
139.14479103432137  45.785929160659379  12.113573730903127  0
132.40266205617527  55.689932247154871  8.8875456158348154  0
104.00769899694328  52.010258474638711  27.832069663667909  0
126.78577684404645  58.813644852149281  12.381017282679721  0
114.83167735863279  59.320673929103279  14.127287492263278  0
126.78719147050853  58.813134559202418  30.555816853491379  0
136.16513352258616  51.776606395603153  15.385148718427541  0
109.70142581948673  57.144660097198354  8.1781201111100952  0
121.04628972403039  59.972613194406691  25.391903820202824  0
100.87687578390712  45.857142666512587  28.464802093910492  0
138.59051218320369  47.37515130462797  29.412520876030623  0
135.63339865002123  52.473846505770155  31.72593023507407  0
109.06851059739529  56.7482100369186  24.638142167270654  0
131.80980110360227  56.140898298835616  25.561684920848723  0
105.17310399425001  53.422486909461853  10.29637417661427  0
114.81832422010497  59.317096989766583  32.023364717843698  0
120.4571005029358  59.994775795947696  8.6506580686046419  0
Triangles
490
27 20 19  1
24 22 25  1
25 21 26  1
27 19 28  1
23 24 2  1
24 23 22  1
33 13 34  1
21 25 22  1
2 24 1  1
28 18 29  1
20 26 21  1
20 27 26  1
32 16 15  1
32 14 33  1
16 32 31  1
29 17 30  1
16 31 30  1
34 3 4  1
18 28 19  1
3 34 13  1
13 33 14  1
14 32 15  1
16 30 17  1
17 29 18  1
5 35 6  2
35 5 1  2
1 2 35  2
48 44 45  3
55 38 54  3
39 54 38  3
46 7 47  3
7 46 8  3
54 39 53  3
37 56 36  3
38 55 37  3
40 53 39  3
5 36 56  3
52 41 51  3
56 37 55  3
36 5 6  3
50 42 43  3
53 40 52  3
50 43 49  3
41 52 40  3
42 50 51  3
51 41 42  3
47 45 46  3
45 47 48  3
44 48 49  3
49 43 44  3
4 3 7  4
7 3 8  4
77 163 78  5
36 148 37  5
23 148 35  5
137 148 138  5
163 164 79  5
79 164 80  5
164 163 143  5
81 164 139  5
87 142 88  5
85 149 136  5
85 136 86  5
89 145 90  5
139 143 20  5
84 159 149  5
81 139 82  5
159 82 139  5
145 160 9  5
145 9 90  5
57 9 160  5
146 165 134  5
19 159 139  5
163 146 157  5
75 146 76  5
138 144 158  5
23 35 2  5
165 75 74  5
35 36 6  5
69 155 70  5
62 166 63  5
64 166 132  5
166 64 63  5
129 41 40  5
156 152 141  5
71 155 162  5
69 147 155  5
67 147 68  5
167 65 132  5
166 61 129  5
67 167 147  5
161 169 39  5
150 134 138  5
155 71 70  5
162 73 72  5
73 162 144  5
130 135 131  5
130 60 59  5
156 140 153  5
130 59 58  5
60 130 129  5
60 129 61  5
168 16 15  5
130 160 135  5
132 169 167  5
15 14 168  5
13 46 168  5
152 131 141  5
149 85 84  5
43 168 44  5
152 17 16  5
13 168 14  5
153 19 18  5
142 89 88  5
168 152 16  5
41 129 131  5
61 166 62  5
58 160 130  5
131 129 130  5
18 156 153  5
42 131 152  5
167 67 66  5
65 64 132  5
137 161 38  5
144 165 10  5
75 165 146  5
144 10 73  5
131 42 41  5
140 160 145  5
136 87 86  5
148 154 150  5
137 38 37  5
137 158 133  5
148 23 22  5
134 151 146  5
169 161 147  5
82 159 83  5
153 142 136  5
141 131 135  5
42 152 43  5
141 135 140  5
142 87 136  5
142 153 140  5
151 134 150  5
21 20 143  5
162 155 133  5
144 138 134  5
145 89 142  5
142 140 145  5
21 157 151  5
76 163 77  5
65 167 66  5
161 155 147  5
148 137 37  5
148 36 35  5
159 19 149  5
136 19 153  5
138 148 150  5
154 151 150  5
151 154 21  5
146 163 76  5
17 152 156  5
152 168 43  5
19 139 20  5
140 156 141  5
154 148 22  5
22 21 154  5
147 69 68  5
155 161 133  5
40 166 129  5
156 18 17  5
146 151 157  5
157 21 143  5
158 162 133  5
158 137 138  5
149 19 136  5
159 84 83  5
160 140 135  5
160 58 57  5
161 39 38  5
161 137 133  5
162 158 144  5
162 72 71  5
157 143 163  5
163 79 78  5
143 139 164  5
164 81 80  5
74 10 165  5
165 144 134  5
40 169 132  5
169 40 39  5
147 167 169  5
168 46 45  5
45 44 168  5
8 13 3  5
13 8 46  5
40 132 166  5
173 27 203  6
189 52 185  6
206 196 179  6
5 172 56  6
92 177 91  6
183 190 181  6
188 205 183  6
173 174 26  6
101 203 100  6
102 203 101  6
99 207 98  6
98 194 97  6
207 100 203  6
194 98 207  6
94 198 170  6
97 194 96  6
198 96 194  6
91 201 11  6
184 177 178  6
124 201 193  6
200 188 181  6
104 195 192  6
174 195 188  6
195 104 105  6
54 206 186  6
1 172 5  6
172 1 24  6
177 93 170  6
176 189 171  6
121 175 171  6
52 189 176  6
121 171 120  6
171 175 176  6
53 204 185  6
111 208 179  6
118 185 117  6
114 186 113  6
179 208 206  6
114 204 186  6
204 114 115  6
190 12 108  6
109 196 190  6
12 190 183  6
205 107 183  6
109 179 196  6
180 52 176  6
193 123 124  6
123 193 175  6
175 121 122  6
170 178 177  6
48 209 47  6
187 209 48  6
32 187 31  6
94 170 93  6
209 4 7  6
191 198 194  6
187 30 31  6
30 187 182  6
32 209 187  6
209 32 33  6
4 209 34  6
93 177 92  6
207 27 28  6
119 189 118  6
119 120 171  6
55 56 172  6
172 24 25  6
26 27 173  6
203 102 192  6
172 197 55  6
26 200 25  6
122 123 175  6
182 191 29  6
52 180 51  6
185 118 189  6
191 182 178  6
180 176 175  6
182 202 184  6
201 124 11  6
110 111 179  6
179 109 110  6
202 193 184  6
50 199 187  6
200 174 188  6
12 183 107  6
182 29 30  6
180 199 51  6
105 205 195  6
107 205 106  6
178 182 184  6
202 175 193  6
116 204 115  6
116 117 185  6
192 102 103  6
113 208 112  6
187 48 49  6
49 50 187  6
183 181 188  6
200 26 174  6
189 119 171  6
185 52 53  6
108 109 190  6
190 196 181  6
28 29 191  6
191 178 170  6
103 104 192  6
54 186 53  6
184 201 177  6
175 202 180  6
28 191 194  6
96 198 95  6
195 174 173  6
173 192 195  6
196 206 197  6
196 197 181  6
54 55 197  6
197 172 181  6
198 191 170  6
198 94 95  6
182 187 199  6
199 50 51  6
181 172 200  6
172 25 200  6
201 91 177  6
201 184 193  6
202 182 199  6
199 180 202  6
100 207 99  6
203 192 173  6
204 116 185  6
204 53 186  6
205 188 195  6
205 105 106  6
208 111 112  6
206 54 197  6
27 207 203  6
28 194 207  6
208 113 186  6
186 206 208  6
33 34 209  6
209 7 47  6
227 214 210  7
227 216 214  7
93 215 92  7
217 225 221  7
77 227 210  7
74 212 125  7
212 226 126  7
77 210 76  7
102 216 101  7
75 212 74  7
103 216 102  7
218 224 220  7
105 226 214  7
74 125 10  7
12 126 107  7
212 75 210  7
100 217 99  7
107 226 106  7
217 101 216  7
98 218 97  7
101 217 100  7
216 227 223  7
218 99 217  7
220 224 219  7
95 220 213  7
87 222 219  7
220 219 213  7
127 211 128  7
215 222 211  7
91 215 127  7
91 127 11  7
222 213 219  7
224 218 221  7
225 217 223  7
83 221 82  7
85 224 84  7
9 128 90  7
90 211 89  7
87 219 86  7
89 222 88  7
105 214 104  7
210 75 76  7
211 90 128  7
215 93 213  7
226 210 214  7
126 125 212  7
213 93 94  7
94 95 213  7
103 104 214  7
210 226 212  7
215 211 127  7
215 91 92  7
216 103 214  7
79 227 78  7
80 225 223  7
99 218 98  7
83 224 221  7
97 220 96  7
85 86 219  7
222 215 213  7
220 95 96  7
220 97 218  7
218 217 221  7
82 225 81  7
222 87 88  7
222 89 211  7
217 216 223  7
223 79 80  7
224 83 84  7
224 85 219  7
225 80 81  7
225 82 221  7
226 105 106  7
226 107 126  7
227 77 78  7
227 79 223  7
115 244 114  8
110 238 109  8
236 68 69  8
116 244 115  8
112 241 231  8
57 128 9  8
242 119 120  8
240 122 239  8
233 244 237  8
57 229 128  8
59 235 229  8
62 232 230  8
242 232 234  8
11 127 124  8
230 60 61  8
229 57 58  8
232 62 63  8
124 239 123  8
60 235 59  8
122 240 121  8
119 234 118  8
117 237 116  8
128 229 127  8
67 236 233  8
232 237 234  8
228 73 125  8
69 243 236  8
125 238 228  8
108 238 126  8
108 126 12  8
228 238 231  8
243 69 70  8
73 228 72  8
64 245 232  8
236 67 68  8
66 245 65  8
244 233 241  8
245 237 232  8
72 228 71  8
125 73 10  8
238 125 126  8
71 243 70  8
239 124 127  8
229 58 59  8
61 62 230  8
119 242 234  8
231 110 111  8
111 112 231  8
235 242 240  8
232 63 64  8
66 67 233  8
113 244 241  8
117 118 234  8
232 242 230  8
239 122 123  8
235 60 230  8
243 241 236  8
236 241 233  8
237 117 234  8
237 245 233  8
238 108 109  8
238 110 231  8
239 127 229  8
229 235 239  8
239 235 240  8
240 120 121  8
241 243 231  8
241 112 113  8
242 120 240  8
242 235 230  8
243 71 228  8
228 231 243  8
244 113 114  8
244 116 237  8
245 64 65  8
245 66 233  8
Edges
134
1 2  1
3 13  2
13 14  2
14 15  2
15 16  2
16 17  2
17 18  2
18 19  2
19 20  2
20 21  2
21 22  2
22 23  2
23 2  2
4 3  3
1 24  4
24 25  4
25 26  4
26 27  4
27 28  4
28 29  4
29 30  4
30 31  4
31 32  4
32 33  4
33 34  4
34 4  4
5 6  5
2 35  6
35 6  6
5 1  7
7 8  8
6 36  9
36 37  9
37 38  9
38 39  9
39 40  9
40 41  9
41 42  9
42 43  9
43 44  9
44 45  9
45 46  9
46 8  9
7 47  10
47 48  10
48 49  10
49 50  10
50 51  10
51 52  10
52 53  10
53 54  10
54 55  10
55 56  10
56 5  10
8 3  11
4 7  12
9 57  13
57 58  13
58 59  13
59 60  13
60 61  13
61 62  13
62 63  13
63 64  13
64 65  13
65 66  13
66 67  13
67 68  13
68 69  13
69 70  13
70 71  13
71 72  13
72 73  13
73 10  13
10 74  14
74 75  14
75 76  14
76 77  14
77 78  14
78 79  14
79 80  14
80 81  14
81 82  14
82 83  14
83 84  14
84 85  14
85 86  14
86 87  14
87 88  14
88 89  14
89 90  14
90 9  14
11 91  15
91 92  15
92 93  15
93 94  15
94 95  15
95 96  15
96 97  15
97 98  15
98 99  15
99 100  15
100 101  15
101 102  15
102 103  15
103 104  15
104 105  15
105 106  15
106 107  15
107 12  15
12 108  16
108 109  16
109 110  16
110 111  16
111 112  16
112 113  16
113 114  16
114 115  16
115 116  16
116 117  16
117 118  16
118 119  16
119 120  16
120 121  16
121 122  16
122 123  16
123 124  16
124 11  16
10 125  17
125 126  17
126 12  17
11 127  18
127 128  18
128 9  18
End
