MeshVersionFormatted 1

Dimension
3

Vertices
838
0  0  40  0
0  0  0  0
320  0  0  0
320  0  40  0
0  80  40  0
0  80  0  0
320  80  40  0
320  80  0  0
140  40  0  0
100  40  0  0
100  40  40  0
140  40  40  0
220  40  0  0
180  40  0  0
180  40  40  0
220  40  40  0
300  40  0  0
260  40  0  0
260  40  40  0
300  40  40  0
60  40  0  0
20  40  0  0
60  40  40  0
20  40  40  0
304  0  0  0
288  0  0  0
272  0  0  0
256  0  0  0
240  0  0  0
224  0  0  0
208  0  0  0
192  0  0  0
176  0  0  0
160  0  0  0
144  0  0  0
128  0  0  0
112  0  0  0
96  0  0  0
80  0  0  0
64  0  0  0
48  0  0  0
32  0  0  0
16  0  0  0
320  0  20  0
16  0  40  0
32  0  40  0
48  0  40  0
64  0  40  0
80  0  40  0
96  0  40  0
112  0  40  0
128  0  40  0
144  0  40  0
160  0  40  0
176  0  40  0
192  0  40  0
208  0  40  0
224  0  40  0
240  0  40  0
256  0  40  0
272  0  40  0
288  0  40  0
304  0  40  0
0  16  0  0
0  32  0  0
0  48  0  0
0  64  0  0
0  60  40  0
0  40  40  0
0  20  40  0
320  80  20  0
17.777777777777771  80  0  0
35.555555555555557  80  0  0
53.333333333333343  80  0  0
71.111111111111114  80  0  0
88.888888888888886  80  0  0
106.66666666666667  80  0  0
124.44444444444446  80  0  0
142.22222222222223  80  0  0
160  80  0  0
177.77777777777777  80  0  0
195.55555555555557  80  0  0
213.33333333333334  80  0  0
231.11111111111111  80  0  0
248.88888888888891  80  0  0
266.66666666666669  80  0  0
284.44444444444446  80  0  0
302.22222222222223  80  0  0
302.22222222222223  80  40  0
284.44444444444446  80  40  0
266.66666666666663  80  40  0
248.88888888888889  80  40  0
231.11111111111111  80  40  0
213.33333333333331  80  40  0
195.55555555555554  80  40  0
177.77777777777777  80  40  0
160  80  40  0
142.22222222222223  80  40  0
124.44444444444443  80  40  0
106.66666666666666  80  40  0
88.888888888888886  80  40  0
71.1111111111111  80  40  0
53.333333333333314  80  40  0
35.555555555555543  80  40  0
17.777777777777771  80  40  0
320  66.666666666666657  0  0
320  53.333333333333329  0  0
320  40  0  0
320  26.666666666666664  0  0
320  13.333333333333329  0  0
320  13.333333333333336  40  0
320  26.666666666666668  40  0
320  40  40  0
320  53.333333333333336  40  0
320  66.666666666666671  40  0
139.69615506024417  43.472963553338609  0  0
138.79385241571816  46.840402866513372  0  0
137.32050807568876  50  0  0
135.32088886237955  52.855752193730787  0  0
132.85575219373078  55.320888862379562  0  0
130  57.320508075688771  0  0
126.84040286651337  58.793852415718163  0  0
123.4729635533386  59.696155060244159  0  0
120  60  0  0
116.5270364466614  59.696155060244159  0  0
113.15959713348663  58.79385241571817  0  0
110  57.320508075688778  0  0
107.14424780626922  55.320888862379562  0  0
104.67911113762044  52.855752193730794  0  0
102.67949192431122  50  0  0
101.20614758428184  46.840402866513379  0  0
100.30384493975583  43.472963553338616  0  0
100  40  13.333333333333334  0
100  40  26.666666666666668  0
100.30384493975583  43.472963553338602  40  0
101.20614758428184  46.840402866513372  40  0
102.67949192431122  50  40  0
104.67911113762044  52.855752193730787  40  0
107.14424780626921  55.320888862379562  40  0
109.99999999999999  57.320508075688764  40  0
113.15959713348663  58.79385241571817  40  0
116.5270364466614  59.696155060244159  40  0
120  60  40  0
123.4729635533386  59.696155060244166  40  0
126.84040286651336  58.79385241571817  40  0
130  57.320508075688771  40  0
132.85575219373078  55.320888862379562  40  0
135.32088886237955  52.855752193730794  40  0
137.32050807568876  50.000000000000007  40  0
138.79385241571816  46.840402866513372  40  0
139.69615506024417  43.472963553338609  40  0
140  40  26.666666666666664  0
140  40  13.333333333333332  0
139.69615506024417  36.527036446661391  40  0
138.79385241571816  33.159597133486628  40  0
137.32050807568876  30  40  0
135.32088886237955  27.144247806269213  40  0
132.85575219373078  24.679111137620438  40  0
130  22.679491924311229  40  0
126.84040286651337  21.206147584281833  40  0
123.4729635533386  20.303844939755841  40  0
120  20  40  0
116.5270364466614  20.303844939755841  40  0
113.15959713348663  21.20614758428183  40  0
110  22.679491924311225  40  0
107.14424780626922  24.679111137620438  40  0
104.67911113762044  27.14424780626921  40  0
102.67949192431122  30  40  0
101.20614758428184  33.159597133486621  40  0
100.30384493975583  36.527036446661384  40  0
100.30384493975583  36.527036446661398  0  0
101.20614758428184  33.159597133486628  0  0
102.67949192431122  30.000000000000004  0  0
104.67911113762044  27.144247806269213  0  0
107.14424780626921  24.679111137620442  0  0
109.99999999999999  22.679491924311233  0  0
113.15959713348663  21.20614758428183  0  0
116.5270364466614  20.303844939755841  0  0
120  20  0  0
123.4729635533386  20.303844939755837  0  0
126.84040286651336  21.20614758428183  0  0
130  22.679491924311229  0  0
132.85575219373078  24.679111137620438  0  0
135.32088886237955  27.144247806269206  0  0
137.32050807568876  29.999999999999993  0  0
138.79385241571816  33.159597133486628  0  0
139.69615506024417  36.527036446661391  0  0
219.69615506024417  43.472963553338609  0  0
218.79385241571816  46.840402866513372  0  0
217.32050807568876  50  0  0
215.32088886237955  52.855752193730787  0  0
212.85575219373078  55.320888862379562  0  0
210  57.320508075688771  0  0
206.84040286651339  58.793852415718163  0  0
203.47296355333862  59.696155060244159  0  0
200  60  0  0
196.52703644666138  59.696155060244159  0  0
193.15959713348661  58.79385241571817  0  0
190  57.320508075688778  0  0
187.14424780626922  55.320888862379562  0  0
184.67911113762045  52.855752193730794  0  0
182.67949192431124  50  0  0
181.20614758428184  46.840402866513379  0  0
180.30384493975583  43.472963553338616  0  0
180  40  13.333333333333334  0
180  40  26.666666666666668  0
180.30384493975583  43.472963553338602  40  0
181.20614758428184  46.840402866513372  40  0
182.67949192431121  50  40  0
184.67911113762045  52.855752193730787  40  0
187.14424780626922  55.320888862379562  40  0
190  57.320508075688764  40  0
193.15959713348664  58.79385241571817  40  0
196.52703644666138  59.696155060244159  40  0
200  60  40  0
203.47296355333859  59.696155060244166  40  0
206.84040286651336  58.79385241571817  40  0
210  57.320508075688771  40  0
212.85575219373078  55.320888862379562  40  0
215.32088886237955  52.855752193730794  40  0
217.32050807568876  50.000000000000007  40  0
218.79385241571816  46.840402866513372  40  0
219.69615506024417  43.472963553338609  40  0
220  40  26.666666666666664  0
220  40  13.333333333333332  0
219.69615506024417  36.527036446661391  40  0
218.79385241571816  33.159597133486628  40  0
217.32050807568876  30  40  0
215.32088886237955  27.144247806269213  40  0
212.85575219373078  24.679111137620438  40  0
210  22.679491924311229  40  0
206.84040286651339  21.206147584281833  40  0
203.47296355333862  20.303844939755841  40  0
200  20  40  0
196.52703644666138  20.303844939755841  40  0
193.15959713348661  21.20614758428183  40  0
190  22.679491924311225  40  0
187.14424780626922  24.679111137620438  40  0
184.67911113762045  27.14424780626921  40  0
182.67949192431124  30  40  0
181.20614758428184  33.159597133486621  40  0
180.30384493975583  36.527036446661384  40  0
180.30384493975583  36.527036446661398  0  0
181.20614758428184  33.159597133486628  0  0
182.67949192431121  30.000000000000004  0  0
184.67911113762045  27.144247806269213  0  0
187.14424780626922  24.679111137620442  0  0
190  22.679491924311233  0  0
193.15959713348664  21.20614758428183  0  0
196.52703644666138  20.303844939755841  0  0
200  20  0  0
203.47296355333859  20.303844939755837  0  0
206.84040286651336  21.20614758428183  0  0
210  22.679491924311229  0  0
212.85575219373078  24.679111137620438  0  0
215.32088886237955  27.144247806269206  0  0
217.32050807568876  29.999999999999993  0  0
218.79385241571816  33.159597133486628  0  0
219.69615506024417  36.527036446661391  0  0
299.69615506024417  43.472963553338609  0  0
298.79385241571816  46.840402866513372  0  0
297.32050807568879  50  0  0
295.32088886237955  52.855752193730787  0  0
292.85575219373078  55.320888862379562  0  0
290  57.320508075688771  0  0
286.84040286651339  58.793852415718163  0  0
283.47296355333862  59.696155060244159  0  0
280  60  0  0
276.52703644666138  59.696155060244159  0  0
273.15959713348661  58.79385241571817  0  0
270  57.320508075688778  0  0
267.14424780626922  55.320888862379562  0  0
264.67911113762045  52.855752193730794  0  0
262.67949192431121  50  0  0
261.20614758428184  46.840402866513379  0  0
260.30384493975583  43.472963553338616  0  0
260  40  13.333333333333334  0
260  40  26.666666666666668  0
260.30384493975583  43.472963553338602  40  0
261.20614758428184  46.840402866513372  40  0
262.67949192431121  50  40  0
264.67911113762045  52.855752193730787  40  0
267.14424780626922  55.320888862379562  40  0
270  57.320508075688764  40  0
273.15959713348661  58.79385241571817  40  0
276.52703644666138  59.696155060244159  40  0
280  60  40  0
283.47296355333862  59.696155060244166  40  0
286.84040286651339  58.79385241571817  40  0
290  57.320508075688771  40  0
292.85575219373078  55.320888862379562  40  0
295.32088886237955  52.855752193730794  40  0
297.32050807568879  50.000000000000007  40  0
298.79385241571816  46.840402866513372  40  0
299.69615506024417  43.472963553338609  40  0
300  40  26.666666666666664  0
300  40  13.333333333333332  0
299.69615506024417  36.527036446661391  40  0
298.79385241571816  33.159597133486628  40  0
297.32050807568879  30  40  0
295.32088886237955  27.144247806269213  40  0
292.85575219373078  24.679111137620438  40  0
290  22.679491924311229  40  0
286.84040286651339  21.206147584281833  40  0
283.47296355333862  20.303844939755841  40  0
280  20  40  0
276.52703644666138  20.303844939755841  40  0
273.15959713348661  21.20614758428183  40  0
270  22.679491924311225  40  0
267.14424780626922  24.679111137620438  40  0
264.67911113762045  27.14424780626921  40  0
262.67949192431121  30  40  0
261.20614758428184  33.159597133486621  40  0
260.30384493975583  36.527036446661384  40  0
260.30384493975583  36.527036446661398  0  0
261.20614758428184  33.159597133486628  0  0
262.67949192431121  30.000000000000004  0  0
264.67911113762045  27.144247806269213  0  0
267.14424780626922  24.679111137620442  0  0
270  22.679491924311233  0  0
273.15959713348661  21.20614758428183  0  0
276.52703644666138  20.303844939755841  0  0
280  20  0  0
283.47296355333862  20.303844939755837  0  0
286.84040286651339  21.20614758428183  0  0
290  22.679491924311229  0  0
292.85575219373078  24.679111137620438  0  0
295.32088886237955  27.144247806269206  0  0
297.32050807568879  29.999999999999993  0  0
298.79385241571816  33.159597133486628  0  0
299.69615506024417  36.527036446661391  0  0
59.696155060244159  43.472963553338609  0  0
58.79385241571817  46.840402866513372  0  0
57.320508075688778  50  0  0
55.320888862379562  52.855752193730787  0  0
52.855752193730787  55.320888862379562  0  0
50  57.320508075688771  0  0
46.840402866513379  58.793852415718163  0  0
43.472963553338609  59.696155060244159  0  0
40  60  0  0
36.527036446661391  59.696155060244159  0  0
33.159597133486628  58.79385241571817  0  0
30.000000000000004  57.320508075688778  0  0
27.144247806269213  55.320888862379562  0  0
24.679111137620442  52.855752193730794  0  0
22.679491924311225  50  0  0
21.206147584281833  46.840402866513379  0  0
20.303844939755841  43.472963553338616  0  0
20.303844939755837  36.527036446661398  0  0
21.20614758428183  33.159597133486628  0  0
22.679491924311222  30.000000000000004  0  0
24.679111137620438  27.144247806269213  0  0
27.14424780626921  24.679111137620442  0  0
29.999999999999993  22.679491924311233  0  0
33.159597133486628  21.20614758428183  0  0
36.527036446661391  20.303844939755841  0  0
39.999999999999993  20  0  0
43.472963553338602  20.303844939755837  0  0
46.840402866513365  21.20614758428183  0  0
50  22.679491924311229  0  0
52.855752193730787  24.679111137620438  0  0
55.320888862379554  27.144247806269206  0  0
57.320508075688764  29.999999999999993  0  0
58.79385241571817  33.159597133486628  0  0
59.696155060244159  36.527036446661391  0  0
59.696155060244159  36.527036446661391  40  0
58.79385241571817  33.159597133486628  40  0
57.320508075688778  30  40  0
55.320888862379562  27.144247806269213  40  0
52.855752193730787  24.679111137620438  40  0
50  22.679491924311229  40  0
46.840402866513379  21.206147584281833  40  0
43.472963553338609  20.303844939755841  40  0
40  20  40  0
36.527036446661391  20.303844939755841  40  0
33.159597133486628  21.20614758428183  40  0
30.000000000000004  22.679491924311225  40  0
27.144247806269213  24.679111137620438  40  0
24.679111137620442  27.14424780626921  40  0
22.679491924311225  30  40  0
21.206147584281833  33.159597133486621  40  0
20.303844939755841  36.527036446661384  40  0
20.303844939755837  43.472963553338602  40  0
21.20614758428183  46.840402866513372  40  0
22.679491924311222  50  40  0
24.679111137620438  52.855752193730787  40  0
27.14424780626921  55.320888862379562  40  0
29.999999999999993  57.320508075688764  40  0
33.159597133486628  58.79385241571817  40  0
36.527036446661391  59.696155060244159  40  0
39.999999999999993  60  40  0
43.472963553338602  59.696155060244166  40  0
46.840402866513365  58.79385241571817  40  0
50  57.320508075688771  40  0
52.855752193730787  55.320888862379562  40  0
55.320888862379554  52.855752193730794  40  0
57.320508075688764  50.000000000000007  40  0
58.79385241571817  46.840402866513372  40  0
59.696155060244159  43.472963553338609  40  0
20  40  13.333333333333334  0
20  40  26.666666666666668  0
60  40  26.666666666666664  0
60  40  13.333333333333332  0
320  53.339028442368374  19.99937726161879  0
320  26.672382323234277  19.999515529390088  0
138.31931356502531  48.025132429205101  9.6035045711597338  0
123.54184657516834  59.683884851267763  26.284600697559053  0
115.71206015373566  59.534932092915469  28.077949686452783  0
123.55677262833188  59.681193268456795  8.307621385320477  0
104.04213941857185  52.055981323131746  28.605679022994845  0
110.90326896267706  57.811498657738085  11.221158034838668  0
138.72198303549689  47.034724672548784  27.825960073212311  0
100.88104519926165  45.870738226775565  28.616968718440624  0
129.4736218910401  57.61392881402687  12.998473705240873  0
135.0485962834631  53.173448671374587  19.978053025942696  0
101.5117761702074  47.627947274299231  11.712613491033053  0
105.32656389201388  53.590079940340644  11.431321465257614  0
130.74080025901503  56.871135403283994  30.327201368693206  0
135.34638334503808  52.825307724461751  33.022532511609825  0
117.56249671193279  59.850908737905719  10.55684750543247  0
109.16719624406545  56.812208742024652  28.477123040639565  0
134.43554040448325  53.842513255566402  6.0835395587682157  0
132.68690099281594  24.53899928211354  11.81551047717462  0
104.77002812589922  27.036668764777353  28.400166005169435  0
116.53573756256313  20.302312679795019  28.583298277163866  0
126.79627277004201  21.190144167612942  11.509986319142024  0
139.18751697455383  34.357377174468553  11.748346825945994  0
136.73169045154967  29.043242512790478  13.537926690904461  0
123.4548844812505  20.300665665530357  28.606099926983084  0
107.28854100909142  24.559183625130132  11.557517598324431  0
113.19223159022965  21.194301680635924  11.452443475097976  0
119.99623438585272  20.000000354496251  11.450447357015394  0
101.05461285031222  33.591232119319237  8.6670290882426269  0
110.04587014908512  22.653089643653388  28.571347314143559  0
135.14047471587529  26.932252474969491  28.964493476621023  0
101.09253397872827  33.480204861005596  26.193133330117121  0
103.24745454244317  29.075155804658259  12.470980285972546  0
138.60994949823299  32.674033874415116  28.702146344686426  0
129.9295271891948  22.638995138557188  28.699114473693257  0
211.80980110360227  56.140898298835616  25.561684920848727  0
184.00769899694328  52.010258474638711  27.832069663667909  0
201.0462897240304  59.972613194406691  25.391903820202824  0
212.40266205617527  55.689932247154871  8.8875456158348154  0
185.17310399425  53.422486909461853  10.296374176614272  0
215.63339865002123  52.473846505770155  31.72593023507407  0
216.16513352258616  51.776606395603153  15.385148718427542  0
219.14479103432137  45.785929160659379  12.113573730903127  0
189.06851059739529  56.748210036918593  24.638142167270654  0
194.83167735863279  59.320673929103279  14.127287492263278  0
181.49557375896248  47.58855780039935  11.418713824016255  0
218.59051218320369  47.37515130462797  29.412520876030623  0
206.78719147050853  58.813134559202418  30.555816853491379  0
194.81832422010496  59.317096989766583  32.023364717843698  0
180.87687578390711  45.857142666512587  28.464802093910492  0
206.78577684404647  58.813644852149281  12.381017282679721  0
189.70142581948673  57.144660097198354  8.1781201111100952  0
200.45710050293579  59.994775795947696  8.6506580686046437  0
212.85654094084569  24.679773009633351  11.506152994311028  0
189.82861221996308  22.779579835900755  28.433498335120625  0
217.21239872781439  29.815043935552147  11.739528188126197  0
215.28681836525556  27.103753093721981  28.639044814439966  0
218.71943278675437  32.958491912794145  28.634529163304919  0
219.44431959422948  35.318287117147946  13.395740509127648  0
180.55388481648791  35.325750940570181  13.398978946638014  0
187.00932237162857  24.793347023235835  11.615990882484871  0
181.27598393503328  32.970688341034503  28.63694046272424  0
184.67992735160917  27.143275143022343  28.635176501236593  0
201.23740206272274  20.038315799132342  12.472269750641118  0
203.68657900290762  20.342707835123356  28.419261398135038  0
192.02316527072082  21.659604483496938  12.482250421136468  0
207.04344966099515  21.281297671231926  11.570545167212419  0
182.76989077053139  29.845033927157594  11.755737373946589  0
196.53096908033774  20.303151915130499  8.5425401940323091  0
210.04762065799832  22.707073147874439  28.591241732149996  0
196.53237056866692  20.302905134844057  26.294823434275724  0
280.45710050293582  59.994775795947696  8.6506580686046437  0
265.17310399425003  53.422486909461867  10.29637417661427  0
261.49557375896245  47.588557800399343  11.418713824016255  0
298.59051218320366  47.37515130462797  29.412520876030623  0
281.04628972403037  59.972613194406691  25.391903820202824  0
292.40266205617525  55.689932247154871  8.8875456158348154  0
299.14479103432137  45.785929160659379  12.113573730903127  0
269.06851059739529  56.7482100369186  24.638142167270654  0
274.83167735863282  59.320673929103279  14.127287492263278  0
286.78577684404644  58.813644852149281  12.381017282679721  0
269.70142581948676  57.144660097198354  8.1781201111100952  0
260.87687578390711  45.857142666512587  28.464802093910492  0
295.63339865002121  52.473846505770155  31.72593023507407  0
264.0076989969433  52.010258474638711  27.832069663667909  0
296.16513352258619  51.776606395603153  15.385148718427541  0
286.7871914705085  58.813134559202418  30.555816853491379  0
274.81832422010496  59.317096989766583  32.023364717843698  0
291.8098011036023  56.140898298835616  25.561684920848723  0
267.00932237162857  24.793347023235835  11.615990882484871  0
262.76989077053139  29.845033927157594  11.755737373946589  0
297.21239872781439  29.815043935552147  11.739528188126197  0
299.44431959422951  35.318287117147946  13.395740509127648  0
264.67992735160919  27.143275143022343  28.635176501236593  0
260.55388481648788  35.325750940570181  13.398978946638014  0
272.02316527072082  21.659604483496938  12.482250421136468  0
292.85654094084566  24.679773009633351  11.506152994311028  0
283.68657900290759  20.342707835123356  28.419261398135038  0
261.27598393503331  32.970688341034503  28.63694046272424  0
295.28681836525556  27.103753093721981  28.639044814439966  0
281.23740206272277  20.038315799132342  12.472269750641118  0
287.04344966099518  21.281297671231926  11.570545167212419  0
276.53096908033774  20.303151915130499  8.5425401940323091  0
290.04762065799832  22.707073147874439  28.591241732149996  0
269.82861221996308  22.779579835900755  28.433498335120621  0
298.7194327867544  32.958491912794145  28.634529163304919  0
276.53237056866692  20.302905134844057  26.294823434275724  0
234.49408815717263  28.064255963495171  0  0
308.81655582294201  23.904545592767878  0  0
258.07333248783522  47.834851017903851  0  0
277.35242235744488  10.138638955950176  0  0
41.518738670067769  12.343317327793313  0  0
15.819794915758406  38.214790140143087  0  0
114.42231884565541  70.346704841465197  0  0
224.8543115395893  53.190052792911125  0  0
287.88120147918693  62.673553076136535  0  0
295.90045818064885  64.204544239719539  0  0
13.783459874707692  46.244034174814715  0  0
191.7886017604803  70.078237202958434  0  0
93.444538789125886  16.187677362293019  0  0
208.92190009981604  15.481336868246215  0  0
148.63300771256468  29.255665694733707  0  0
255.49286175594256  42.753413915660346  0  0
229.22134809371914  14.219728448291299  0  0
60.516379784103712  65.61356863982887  0  0
237.86604027028895  62.565064088324263  0  0
192.08204195711124  8.3719373219941957  0  0
154.38200790875828  47.197039043984823  0  0
128.17312213787662  61.795125805234917  0  0
260.04355839355554  54.392556994817731  0  0
28.163898799675422  19.131200624198783  0  0
265.30847942916682  61.946042865485403  0  0
223.75237435336439  63.980688377783132  0  0
97.958995327189442  47.985780162734244  0  0
257.9713225919171  27.844778274358415  0  0
224.24906453566541  44.94866967562276  0  0
49.922169298829125  64.176282604518107  0  0
160.62000190093937  33.666720872961093  0  0
64.599045540770732  29.632860456353022  0  0
272.18557931104033  17.626756971700829  0  0
213.39019394149062  61.442388218217431  0  0
143.56988003373189  46.961822441599914  0  0
81.023392608334049  39.547633271527985  0  0
18.199499544540114  32.007788046300583  0  0
183.38181827702198  67.039066538052893  0  0
19.01811810905453  23.894310598998466  0  0
7.958550733068475  38.948419510146479  0  0
171.82325666083662  30.687641194190487  0  0
151.74104129080678  17.046331534199886  0  0
23.092390057604359  59.14556191589233  0  0
249.77128420550949  39.714382668294277  0  0
142.2747104862228  39.69987779515484  0  0
256.11218827074015  35.868439388481654  0  0
253.69061464575785  63.251232734023894  0  0
58.247035065142178  24.359148778742032  0  0
300.21271965626164  56.456631044298177  0  0
197.96892287088878  63.271494182339474  0  0
99.600455798414842  26.363377130504801  0  0
64.782386530116554  15.371916841700322  0  0
120.34182820646197  16.693291854552363  0  0
178.64978791382688  27.409533031345635  0  0
26.84384300730839  69.399079043156306  0  0
59.08584012568555  50.768192346324739  0  0
48.319952867790136  17.792397021360969  0  0
240.52041169294392  39.144920194224525  0  0
312.2482676581684  33.698769471758155  0  0
261.30790809027667  71.050351728867312  0  0
122.07194264810319  9.4268785069710983  0  0
300.26419498960018  28.100997854754734  0  0
89.445044497715941  51.101512196954239  0  0
72.901788159006301  55.960757991770492  0  0
19.519264351799048  51.896026946165655  0  0
148.06820143100316  55.045746377270305  0  0
108.58743005440121  19.198296393685244  0  0
183.27189535628759  53.99003979754324  0  0
31.571140677657471  61.921926703967607  0  0
183.66350645957476  58.946398758943268  0  0
204.97691988814145  67.984265266474154  0  0
102.97790188553854  20.873738961561354  0  0
287.41468405221417  15.132487571818681  0  0
176.12824340080761  46.374670719218727  0  0
167.59575950222722  49.112350909916636  0  0
200.21882003368134  14.555061740908325  0  0
113.85501255296066  14.074123684384221  0  0
172.63041928472893  63.988761651690787  0  0
31.607855485853218  12.166523823896076  0  0
307.84197945981271  11.128763234404408  0  0
113.58754327337562  62.555916635554389  0  0
217.35324391499381  9.9019613800181165  0  0
54.943062072111125  58.429088884451687  0  0
222.75238658574892  25.171532595207939  0  0
177.55553740985388  34.569569871543251  0  0
217.92102601144165  56.122696195617046  0  0
234.04465378549537  47.969741018444267  0  0
13.233777686001748  68.137581236992489  0  0
217.31853422309385  70.672750134173086  0  0
21.120164427155043  11.880186149070198  0  0
72.689153875357917  33.365714845868325  0  0
140.0948757304904  14.001303997913922  0  0
44.006839011562363  61.965669663733699  0  0
192.61012891654457  17.541129193628603  0  0
142.18258970704278  33.023261959176914  0  0
60.950284421762447  55.367109992188112  0  0
66.688902843999884  40.875959740827426  0  0
39.73487578898559  67.148622110453331  0  0
90.655857528655488  66.592357880260053  0  0
35.178232888732246  17.517060368322664  0  0
309.8292712328431  56.150829533212587  0  0
272.99060811094802  62.22961987186217  0  0
132.5901993160162  18.947712988252629  0  0
223.52309373144391  31.867597646521588  0  0
183.7522893396264  18.235137172049257  0  0
10.167231856280258  30.192953932659215  0  0
263.7686802186762  21.056228321651925  0  0
139.53054356724712  55.223899687963858  0  0
54.614333025605113  19.294703702630365  0  0
173.42147928989161  39.691684662264564  0  0
53.533848185986244  10.80934936580905  0  0
140.07502313151565  24.263103816083209  0  0
280.92566537137998  65.598179619537959  0  0
78.456737390887483  23.548774378257516  0  0
99.768189456442627  55.368332192692279  0  0
63.011294099538866  48.848207752932041  0  0
228.07747592396541  38.341600252739056  0  0
168.92349037805275  18.139709863482803  0  0
302.37917563837169  49.448484056403558  0  0
105.99615274860111  63.903697776468441  0  0
216.63081353727873  19.875595915762037  0  0
134.6583332337643  60.706062259589629  0  0
308.51273440927184  43.781447621986906  0  0
126.21925270540697  16.053794551038425  0  0
132.13945640979361  9.7399907086077295  0  0
304.0250946171671  34.163185999531187  0  0
265.09982216640788  10.893267769770912  0  0
290.26303269629324  70.48874033916789  0  0
148.59478686034524  38.291093809683858  0  0
279.47295936654007  17.238709149365867  0  0
248.03295224615781  31.1971794573771  0  0
144.97865662337995  65.711788883851256  0  0
249.32304954171076  16.645309265515959  0  0
94.50748424096831  41.333589360696472  0  0
296.91428180453079  9.2984959529907503  0  0
248.69007284718862  49.687695858771349  0  0
121.62256750158915  65.365120357119892  0  0
157.93233840427141  60.168953616007435  0  0
11.621087874082598  56.248902522338234  0  0
271.94942531192311  70.124730580729988  0  0
190.94822672207459  62.166712594454495  0  0
308.01251521727266  67.241578166457984  0  0
297.41305573226134  20.255118411554072  0  0
178.16432174732637  52.766828038446398  0  0
92.643643125920406  30.916986956579166  0  0
104.45721731935717  11.711379035212634  0  0
132.64381302754651  68.923195947637225  0  0
121.68563498492348  16.934704641846974  40  0
98.968302019958713  58.718513382373565  40  0
87.899643148773762  36.429167459570728  40  0
143.33797628675219  23.809793563293727  40  0
181.75978663786898  26.071884224629624  40  0
140.9815015555042  55.63172302894413  40  0
18.829175794836249  49.794298978292936  40  0
142.21922612045586  47.641371445851732  40  0
125.70207514697159  11.334601046337193  40  0
14.798783060052521  67.663654894106543  40  0
100.65179349874103  24.68200240047064  40  0
14.019967964435139  38.466699586861303  40  0
153.18958270600601  16.757193157941547  40  0
30.485898558029209  11.440031090334903  40  0
260.64265576899265  69.982276418820206  40  0
106.5986467629232  18.382920468839423  40  0
114.17027742132984  70.438528667771521  40  0
145.11693385861128  11.719890729243488  40  0
153.56673202564761  29.267085151113598  40  0
293.49533607327942  19.602088459456059  40  0
163.83226105135529  18.974501670853265  40  0
251.35828964689006  60.575658506714923  40  0
300.06805630731156  11.102301700308187  40  0
208.45830792730084  15.314477567472728  40  0
95.461637212396667  46.744266378701766  40  0
271.74106547258305  69.464694714581739  40  0
133.94399975677808  58.248183700570443  40  0
238.83094212580164  22.765687759372856  40  0
32.431690234038292  17.742430449749214  40  0
63.915117459535274  27.256485740276094  40  0
116.06369897448825  12.152416690209133  40  0
135.634408342445  19.655025090637693  40  0
265.24364103577113  9.4004881902725721  40  0
54.03619913957678  61.426550737996266  40  0
94.263479496728834  14.278222127132189  40  0
304.20934559026534  38.785521974067507  40  0
64.835477314777208  52.353914927519348  40  0
288.16428406373836  61.892768420706794  40  0
167.38209221127732  32.323051858334061  40  0
299.66596109005968  56.046170234460604  40  0
135.27240206834301  66.690672296978832  40  0
193.02102237967563  68.770938561782017  40  0
25.415624763647436  17.73341451694505  40  0
73.561299205837955  36.378559469407712  40  0
294.80164415263675  61.134410362176403  40  0
48.600562074783909  15.290848980515753  40  0
152.14246372077281  64.030676646750607  40  0
56.299953189540169  19.99168524655715  40  0
97.354841552341568  32.291045267171185  40  0
216.60285311740043  9.7698961385433929  40  0
123.95571228526504  67.253526898086548  40  0
145.88354243288637  39.982001653923533  40  0
177.68477684499913  31.558249221685433  40  0
198.20722228418427  13.03208282732043  40  0
96.876656523311667  39.250361488887719  40  0
210.43400712644294  64.602867748338454  40  0
43.893458829010704  66.963065286136214  40  0
214.81423887075297  59.715133394511284  40  0
123.43849184193724  61.74187061107714  40  0
56.718812577309677  9.6947847816528032  40  0
91.970792761481306  25.929489323686123  40  0
128.27530568360254  17.459306497152905  40  0
185.85601448416995  10.433858745437687  40  0
288.76928242104009  12.38269450864372  40  0
26.180801747934535  60.047344191647547  40  0
183.55503447527016  19.610016806832995  40  0
167.97895473253163  42.730971847893905  40  0
244.46818684171421  37.330115498957312  40  0
20.43446816518815  24.819557343204107  40  0
11.070600851448338  28.21320225847672  40  0
23.548067712796882  8.6618317987311411  40  0
58.05914933215211  70.635928259538673  40  0
128.94843001121032  61.681873812837907  40  0
175.65143693132464  39.393054137280942  40  0
191.23052599590071  17.87753912742923  40  0
103.54239791165121  70.257716312362945  40  0
174.0120619028074  12.080163452422219  40  0
236.63458672986965  65.360528399533038  40  0
175.71030154767155  49.215585917898409  40  0
143.12325763717905  32.111236388211026  40  0
79.755295651545964  21.925733640347151  40  0
58.716325864940906  56.12369409623156  40  0
65.835303089778449  43.963872125238133  40  0
222.50771530792545  49.727395505922019  40  0
251.95962625270863  28.316720463065955  40  0
264.66161041891473  59.865005370108413  40  0
259.02275871860627  51.663309305465113  40  0
150.40479130179776  50.006430849847689  40  0
238.78771529194367  50.141576830924215  40  0
63.621395169135482  36.222725057537971  40  0
172.9013794877003  64.133465407214246  40  0
204.49128924641491  62.3003479006519  40  0
223.4156585617369  43.06718557885614  40  0
260.86152376975923  25.096696688331619  40  0
66.764334156325461  13.154977039426818  40  0
258.62888038455225  31.842020930081322  40  0
104.97049426876283  8.9704704708822991  40  0
223.37339089046534  27.593995490085977  40  0
311.67847821250223  36.361730006683679  40  0
257.71917134617343  44.489053137358987  40  0
201.71649276456887  68.364261083612206  40  0
117.21403190577881  62.883171928074916  40  0
216.14409126085002  20.090182271509082  40  0
298.27428999120934  25.620180514661058  40  0
80.422270051646251  52.419409100125222  40  0
292.71355291910567  69.210750069396568  40  0
304.51489068393573  31.041085606312727  40  0
134.47077304676219  10.040401970630068  40  0
109.15099251568746  61.988873899134816  40  0
221.86298043670416  65.823926441141126  40  0
15.90038537690023  56.420066183086547  40  0
222.77960235075815  36.36008441277631  40  0
284.97350130893363  17.82265797209109  40  0
254.85800698208837  37.933692626638994  40  0
38.951405489365463  13.126100119456884  40  0
254.22442267607025  14.910934002274521  40  0
187.32809486806852  61.692042973933042  40  0
309.52788123836626  56.351489272696149  40  0
281.22880797318004  65.210374248027236  40  0
174.7245427609441  23.436587017829943  40  0
277.25678690535847  13.318013457272427  40  0
231.47165038505102  37.79223605196028  40  0
309.64360582131798  45.416677272466238  40  0
266.82355919580158  18.759091931658197  40  0
158.05501422124112  41.0057255830367  40  0
272.8760822780539  61.725769693985399  40  0
67.994797173205924  64.721102641458415  40  0
162.89955799067587  51.838707971381247  40  0
218.92768303230059  55.569562962903362  40  0
28.8489399622188  69.529133605075302  40  0
34.779008017978889  62.504970736446865  40  0
251.01927639739151  47.022465768252268  40  0
305.54167015737687  67.050902885738779  40  0
302.42735970499899  49.676073891559916  40  0
306.07216116944721  21.232828467842698  40  0
228.79599826697989  47.272814725237758  40  0
181.75543704143874  55.516988039245525  40  0
195.28183363997957  62.887410711536042  40  0
185.33137651299481  70.897044109152517  40  0
13.788077155561067  14.184004883612118  40  0
17.543744832850859  44.463321454976828  40  0
18.27038098447894  31.861160850492176  40  0
227.89671512072127  55.643041015979207  40  0
11.038986412030578  48.191740994548056  40  0
226.47836830322984  13.377754899977775  40  0
54.973892618977743  26.741699210105242  10.838556237450229  0
27.77808107704201  24.168869344211661  8.7957919019233906  0
58.590076410204048  32.623750338906973  11.257750565325528  0
52.455130886797903  24.351686525611367  28.040865099610919  0
48.763775600372242  22.022340607678647  10.177348612788355  0
24.429305396983501  27.447969503718021  31.42039837037747  0
33.196540683348161  21.192742323064127  11.168609003597364  0
41.394334935492395  20.048663451095177  30.278005627854562  0
36.208115180342325  20.362749441063556  28.853484926342603  0
40.779050970875566  20.015178770257219  13.667771093782154  0
59.181153758064362  34.335784210546578  28.2362630302936  0
21.131948992181012  33.367002851927282  26.915208372808706  0
21.129686131408981  33.373443239444683  9.1643417961085447  0
46.404787597864029  21.053266882487442  28.879033347131866  0
56.674362957011859  28.956195402949636  26.395527510485106  0
23.969635621263002  28.040592912484332  14.737831277204599  0
29.148477799749649  23.199867085720015  26.871238743808743  0
52.402662056175274  55.689932247154864  8.8875456158348154  0
41.046289724030395  59.972613194406691  25.39190382020282  0
29.068510597395289  56.7482100369186  24.638142167270654  0
29.701425819486726  57.144660097198354  8.1781201111100952  0
46.787191470508525  58.813134559202418  30.555816853491379  0
58.590512183203671  47.37515130462797  29.412520876030626  0
51.809801103602283  56.140898298835609  25.561684920848723  0
55.633398650021235  52.473846505770155  31.72593023507407  0
59.144791034321358  45.785929160659386  12.113573730903127  0
34.831677358632795  59.320673929103279  14.127287492263278  0
24.007698996943283  52.010258474638718  27.832069663667909  0
40.457100502935795  59.994775795947696  8.6506580686046437  0
56.16513352258616  51.776606395603153  15.385148718427542  0
46.785776844046453  58.813644852149281  12.381017282679721  0
20.876875783907124  45.857142666512587  28.464802093910492  0
25.173103994250013  53.422486909461867  10.29637417661427  0
21.495573758962475  47.58855780039935  11.418713824016255  0
34.818324220104969  59.317096989766583  32.023364717843698  0
Triangles
1688
58 30 59  1
28 59 29  1
63 44 4  1
35 53 52  1
45 42 46  1
50 39 38  1
37 51 38  1
47 42 41  1
40 47 41  1
34 54 35  1
48 40 39  1
40 48 47  1
48 39 49  1
52 37 36  1
45 43 42  1
52 36 35  1
42 47 46  1
53 35 54  1
43 45 1  1
31 57 56  1
51 37 52  1
57 30 58  1
38 51 50  1
39 50 49  1
28 61 60  1
57 31 30  1
55 33 56  1
54 34 55  1
26 63 62  1
26 62 61  1
59 28 60  1
26 61 27  1
43 1 2  1
63 25 44  1
3 44 25  1
31 56 32  1
33 55 34  1
56 33 32  1
59 30 29  1
61 28 27  1
25 63 26  1
67 5 68  2
5 67 6  2
65 69 70  2
66 68 69  2
70 64 65  2
68 66 67  2
64 70 1  2
69 65 66  2
64 1 2  2
78 98 99  3
103 73 74  3
98 78 79  3
102 74 75  3
73 103 104  3
76 100 101  3
105 72 104  3
72 5 6  3
76 101 75  3
99 77 78  3
74 102 103  3
100 76 77  3
75 101 102  3
5 72 105  3
104 72 73  3
98 79 80  3
77 99 100  3
98 80 97  3
96 82 95  3
80 96 97  3
93 84 92  3
94 84 93  3
95 82 94  3
92 86 91  3
91 86 90  3
89 71 7  3
89 88 71  3
88 89 90  3
81 96 80  3
82 96 81  3
83 94 82  3
84 94 83  3
86 92 85  3
92 84 85  3
88 90 87  3
90 86 87  3
71 88 8  3
405 111 44  4
113 405 404  4
110 44 3  4
110 405 44  4
115 404 71  4
4 44 111  4
111 405 112  4
7 115 71  4
108 405 109  4
113 404 114  4
405 108 404  4
404 106 71  4
106 404 107  4
71 106 8  4
404 115 114  4
404 108 107  4
405 113 112  4
405 110 109  4
143 408 142  5
417 130 416  5
410 417 416  5
145 407 144  5
421 417 410  5
116 153 9  5
147 419 418  5
147 418 146  5
139 421 410  5
116 406 153  5
118 422 406  5
121 422 120  5
419 147 148  5
12 152 151  5
414 409 407  5
406 116 117  5
414 122 409  5
151 412 150  5
406 422 415  5
149 419 148  5
407 418 414  5
145 418 407  5
153 412 152  5
126 420 125  5
142 408 141  5
130 417 129  5
128 417 411  5
416 132 133  5
135 413 134  5
135 134 11  5
413 137 410  5
139 410 138  5
132 416 131  5
124 409 123  5
128 411 127  5
124 420 409  5
420 124 125  5
420 407 409  5
410 416 413  5
133 132 10  5
412 149 150  5
406 117 118  5
407 420 408  5
407 143 144  5
141 421 140  5
408 143 407  5
122 414 121  5
122 123 409  5
137 413 136  5
137 138 410  5
411 421 408  5
411 126 127  5
412 151 152  5
412 153 406  5
413 133 134  5
413 135 136  5
418 145 146  5
422 414 415  5
412 406 415  5
422 121 414  5
130 131 416  5
416 133 413  5
417 421 411  5
417 128 129  5
418 419 415  5
415 414 418  5
419 149 412  5
412 415 419  5
420 126 411  5
411 408 420  5
421 139 140  5
421 141 408  5
422 118 119  5
119 120 422  5
439 158 159  6
184 428 423  6
176 431 430  6
171 433 133  6
164 425 163  6
174 437 173  6
164 434 425  6
173 433 172  6
431 434 430  6
437 436 433  6
430 434 424  6
432 425 431  6
436 168 169  6
171 133 10  6
168 436 424  6
166 434 165  6
11 134 170  6
436 437 424  6
170 436 169  6
168 424 167  6
178 431 177  6
434 431 425  6
160 439 159  6
428 438 435  6
426 439 429  6
428 184 185  6
152 427 153  6
438 428 427  6
154 438 152  6
154 152 12  6
158 439 435  6
187 427 186  6
153 187 9  6
178 432 431  6
181 426 180  6
180 432 179  6
158 435 157  6
184 423 183  6
156 438 155  6
186 427 185  6
182 426 181  6
182 183 423  6
166 167 424  6
173 437 433  6
162 429 161  6
162 163 425  6
426 182 423  6
429 160 161  6
427 187 153  6
428 185 427  6
438 156 435  6
439 160 429  6
429 162 425  6
429 432 426  6
430 174 175  6
175 176 430  6
431 176 177  6
432 429 425  6
432 178 179  6
432 180 426  6
133 436 134  6
433 171 172  6
434 164 165  6
434 166 424  6
423 428 435  6
435 156 157  6
436 170 134  6
436 133 433  6
437 174 430  6
430 424 437  6
438 427 152  6
438 154 155  6
439 426 423  6
423 435 439  6
215 453 214  7
202 444 201  7
453 215 442  7
452 218 440  7
211 448 441  7
188 225 13  7
445 219 220  7
445 220 221  7
441 448 444  7
188 447 225  7
451 223 224  7
193 455 443  7
219 445 440  7
16 224 223  7
191 446 190  7
447 224 225  7
442 457 449  7
223 451 222  7
446 440 445  7
221 451 445  7
218 452 217  7
216 452 442  7
446 451 447  7
198 449 197  7
214 453 213  7
450 441 444  7
200 456 199  7
205 454 450  7
207 454 206  7
207 206 15  7
454 209 441  7
211 441 210  7
204 450 203  7
195 455 194  7
198 456 449  7
449 453 442  7
448 211 212  7
457 197 449  7
202 450 444  7
205 204 14  7
218 219 440  7
440 455 452  7
209 454 208  7
209 210 441  7
215 216 442  7
195 457 455  7
443 191 192  7
192 193 443  7
200 201 444  7
450 454 441  7
451 221 222  7
440 446 443  7
190 447 189  7
446 191 443  7
447 188 189  7
447 190 446  7
456 198 199  7
212 453 448  7
197 457 196  7
448 456 444  7
450 202 203  7
450 204 205  7
224 447 451  7
451 446 445  7
452 455 442  7
452 216 217  7
453 449 448  7
453 212 213  7
454 205 206  7
454 207 208  7
455 440 443  7
455 193 194  7
456 200 444  7
456 448 449  7
457 442 455  7
457 195 196  7
471 474 469  8
256 460 458  8
470 248 249  8
243 464 205  8
234 475 469  8
472 466 464  8
238 459 237  8
466 472 467  8
248 470 465  8
464 243 244  8
459 236 237  8
251 473 250  8
466 242 206  8
243 205 14  8
240 467 239  8
238 467 459  8
15 206 242  8
467 240 466  8
242 466 241  8
467 472 465  8
475 234 235  8
236 475 235  8
475 473 468  8
224 463 225  8
474 458 461  8
460 256 257  8
463 224 462  8
460 462 461  8
226 462 224  8
226 224 16  8
230 474 461  8
259 463 258  8
225 259 13  8
249 473 470  8
252 471 468  8
471 469 468  8
254 471 253  8
230 461 229  8
228 462 227  8
258 460 257  8
458 254 255  8
255 256 458  8
246 472 245  8
248 465 247  8
258 463 460  8
458 460 461  8
461 228 229  8
458 474 471  8
462 226 227  8
462 228 461  8
462 460 463  8
463 259 225  8
464 206 205  8
244 472 464  8
246 247 465  8
475 468 469  8
240 241 466  8
466 206 464  8
467 465 459  8
467 238 239  8
251 252 468  8
234 469 233  8
232 474 231  8
232 233 469  8
459 465 470  8
473 249 250  8
471 252 253  8
471 254 458  8
472 244 245  8
472 246 465  8
473 251 468  8
473 475 470  8
474 230 231  8
474 232 469  8
475 236 459  8
459 470 475  8
286 492 285  9
281 487 280  9
270 486 484  9
288 491 480  9
283 489 282  9
260 297 17  9
290 493 491  9
293 488 292  9
483 283 284  9
260 482 297  9
262 490 482  9
476 480 485  9
488 291 292  9
20 296 295  9
493 290 291  9
479 490 488  9
265 485 481  9
295 479 294  9
263 490 262  9
294 479 293  9
290 491 289  9
485 493 481  9
296 482 479  9
484 492 480  9
492 287 480  9
478 274 275  9
274 477 273  9
277 487 478  9
279 487 278  9
279 278 19  9
478 489 477  9
477 272 273  9
276 478 275  9
267 485 266  9
272 486 271  9
269 484 476  9
484 480 476  9
269 476 268  9
274 478 477  9
277 276 18  9
485 265 266  9
476 267 268  9
489 478 487  9
281 489 487  9
478 276 277  9
477 489 483  9
479 295 296  9
262 482 261  9
287 492 286  9
287 288 480  9
481 263 264  9
264 265 481  9
482 296 297  9
482 260 261  9
486 270 271  9
284 492 483  9
484 269 270  9
483 486 477  9
493 291 488  9
485 267 476  9
486 272 477  9
486 483 484  9
487 277 278  9
487 279 280  9
488 293 479  9
490 263 481  9
489 281 282  9
489 283 483  9
490 493 488  9
490 479 482  9
485 480 491  9
491 288 289  9
492 484 483  9
492 284 285  9
493 490 481  9
493 485 491  9
304 508 303  10
328 501 327  10
500 320 321  10
315 499 277  10
494 509 498  10
509 308 309  10
308 511 307  10
499 503 278  10
320 500 494  10
316 499 315  10
320 494 319  10
506 508 502  10
312 498 311  10
315 277 18  10
312 503 498  10
310 509 309  10
19 278 314  10
503 495 498  10
314 503 313  10
498 310 311  10
511 505 502  10
511 306 307  10
306 502 305  10
496 328 329  10
508 501 504  10
330 497 496  10
497 331 297  10
510 496 497  10
298 510 296  10
298 296 20  10
302 504 301  10
331 497 330  10
297 331 17  10
507 511 500  10
324 506 505  10
506 502 505  10
326 506 325  10
327 501 326  10
501 508 506  10
330 496 329  10
318 495 317  10
318 319 494  10
495 316 317  10
495 318 494  10
510 497 296  10
300 510 299  10
297 296 497  10
496 510 504  10
495 503 499  10
495 494 498  10
278 277 499  10
499 316 495  10
321 507 500  10
306 511 502  10
501 328 496  10
302 508 504  10
502 304 305  10
324 505 323  10
503 312 313  10
503 314 278  10
501 496 504  10
504 300 301  10
511 507 505  10
323 507 322  10
506 324 325  10
506 326 501  10
507 321 322  10
507 323 505  10
508 302 303  10
508 304 502  10
509 310 498  10
509 494 500  10
510 298 299  10
510 300 504  10
511 308 509  10
509 500 511  10
594 607 529  11
264 560 521  11
343 554 344  11
337 541 338  11
335 607 594  11
538 626 574  11
578 177 176  11
265 520 266  11
17 637 634  11
254 632 255  11
565 629 616  11
544 641 322  11
252 525 253  11
31 593 525  11
517 617 548  11
550 353 352  11
64 2 43  11
178 564 179  11
559 563 543  11
623 185 184  11
625 547 602  11
657 583 524  11
38 524 39  11
177 588 178  11
178 588 564  11
175 578 176  11
614 181 635  11
542 629 552  11
553 623 603  11
623 606 185  11
614 183 182  11
623 183 614  11
564 588 572  11
180 635 181  11
187 556 9  11
542 640 526  11
121 533 122  11
130 538 131  11
543 625 602  11
365 608 21  11
524 656 625  11
620 361 360  11
656 171 645  11
516 358 357  11
559 363 362  11
516 622 568  11
361 620 559  11
363 559 543  11
543 365 364  11
353 535 354  11
359 568 360  11
611 535 590  11
548 349 517  11
357 611 516  11
358 568 359  11
353 550 535  11
535 355 354  11
355 611 356  11
617 551 65  11
550 351 548  11
349 22 517  11
351 350 548  11
522 517 348  11
348 517 22  11
645 538 574  11
608 575 627  11
631 127 592  11
567 335 334  11
610 75 575  11
74 529 75  11
339 604 340  11
74 609 541  11
341 609 580  11
566 609 73  11
576 347 346  11
554 580 566  11
650 554 599  11
347 576 522  11
345 576 346  11
554 345 344  11
604 338 541  11
580 554 343  11
6 599 72  11
81 589 549  11
192 597 545  11
557 527 555  11
125 648 592  11
530 537 519  11
619 546 577  11
121 633 533  11
619 643 633  11
123 648 124  11
648 123 533  11
626 130 129  11
557 316 315  11
592 648 518  11
127 631 128  11
333 627 567  11
130 626 538  11
171 656 172  11
172 656 562  11
538 132 131  11
132 645 10  11
14 621 596  11
649 80 643  11
116 546 117  11
546 619 118  11
577 546 532  11
14 596 243  11
276 527 18  11
189 540 519  11
523 582 82  11
537 530 84  11
193 545 194  11
190 597 191  11
192 545 193  11
545 597 537  11
195 582 561  11
532 649 577  11
203 655 585  11
200 579 201  11
649 532 586  11
655 203 202  11
197 652 198  11
652 581 199  11
558 534 536  11
199 581 200  11
652 197 561  11
582 194 545  11
624 267 520  11
634 612 630  11
536 272 271  11
8 653 106  11
560 263 262  11
520 267 266  11
267 624 268  11
107 634 108  11
265 521 520  11
269 624 613  11
272 534 273  11
613 271 270  11
272 536 534  11
651 536 613  11
271 613 536  11
274 534 514  11
274 514 275  11
557 18 527  11
572 636 635  11
262 630 560  11
560 264 263  11
260 634 630  11
630 262 261  11
109 570 513  11
17 634 260  11
26 646 584  11
654 513 573  11
646 26 25  11
654 591 513  11
328 654 573  11
573 637 330  11
637 17 331  11
641 324 323  11
584 515 26  11
322 641 323  11
324 584 325  11
544 322 321  11
256 632 595  11
632 256 255  11
316 557 539  11
569 647 598  11
557 642 539  11
318 618 319  11
257 615 258  11
13 628 540  11
540 189 188  11
185 606 186  11
640 542 532  11
116 556 546  11
244 565 245  11
587 605 531  11
252 587 525  11
34 629 553  11
531 616 33  11
605 587 250  11
616 248 247  11
638 515 544  11
320 618 544  11
615 257 595  11
28 644 29  11
316 539 317  11
31 587 531  11
250 587 251  11
644 638 618  11
248 616 605  11
629 565 552  11
3 591 25  11
512 644 642  11
27 638 28  11
644 512 528  11
259 628 13  11
29 528 30  11
110 109 513  11
573 330 329  11
189 519 190  11
514 276 275  11
27 26 515  11
324 641 584  11
535 611 355  11
42 41 516  11
66 551 522  11
349 548 350  11
648 658 78  11
78 77 518  11
647 569 555  11
84 530 85  11
521 265 264  11
88 639 521  11
88 521 653  11
639 624 520  11
348 347 522  11
66 650 67  11
82 582 83  11
82 81 523  11
175 583 578  11
174 583 175  11
254 253 525  11
31 531 32  11
606 556 187  11
553 542 526  11
18 557 315  11
527 276 514  11
256 595 257  11
632 254 525  11
337 594 541  11
335 594 336  11
527 647 555  11
571 651 86  11
605 616 531  11
531 33 32  11
581 655 579  11
118 619 119  11
658 533 633  11
533 123 122  11
647 534 558  11
534 274 273  11
64 601 550  11
601 42 590  11
87 651 624  11
534 647 514  11
84 600 537  11
597 192 191  11
645 132 538  11
75 610 76  11
318 317 539  11
644 528 29  11
540 188 13  11
628 259 615  11
529 74 541  11
338 604 339  11
244 243 596  11
542 586 532  11
364 363 543  11
39 625 563  11
515 638 27  11
544 321 320  11
600 582 545  11
194 582 195  11
118 117 546  11
546 640 532  11
332 627 333  11
21 608 332  11
617 517 551  11
351 550 352  11
652 561 523  11
523 81 549  11
64 617 65  11
601 590 535  11
517 522 551  11
551 66 65  11
245 565 246  11
542 621 586  11
35 636 36  11
35 34 553  11
609 74 73  11
554 650 576  11
598 628 569  11
512 628 615  11
556 116 9  11
606 640 556  11
128 631 626  11
77 631 518  11
85 571 86  11
85 530 558  11
559 362 361  11
563 559 620  11
560 630 612  11
653 560 612  11
561 197 196  11
196 195 561  11
562 174 173  11
173 172 562  11
622 563 620  11
40 39 563  11
564 635 180  11
564 180 179  11
246 616 247  11
565 596 552  11
73 72 566  11
566 599 554  11
334 333 567  11
575 547 574  11
568 358 516  11
568 622 620  11
569 642 555  11
540 598 519  11
513 637 573  11
570 109 108  11
571 85 558  11
558 536 571  11
37 572 588  11
37 36 572  11
329 328 573  11
591 654 646  11
610 575 574  11
575 608 547  11
575 75 529  11
607 627 575  11
576 345 554  11
522 576 650  11
80 649 589  11
119 619 120  11
583 657 578  11
657 524 38  11
202 201 579  11
586 655 589  11
580 343 342  11
342 341 580  11
579 200 581  11
581 652 549  11
582 600 83  11
582 523 561  11
583 174 562  11
562 524 583  11
326 654 327  11
326 325 584  11
204 621 14  11
204 203 585  11
621 542 552  11
655 586 585  11
587 31 525  11
587 252 251  11
588 177 578  11
37 657 38  11
589 581 549  11
589 81 80  11
42 601 43  11
42 516 590  11
591 3 110  11
110 513 591  11
592 127 126  11
126 125 592  11
593 31 30  11
30 528 593  11
529 541 594  11
594 337 336  11
528 632 593  11
528 512 595  11
596 621 552  11
596 565 244  11
597 190 519  11
519 537 597  11
647 527 514  11
530 519 598  11
599 566 72  11
599 6 67  11
545 537 600  11
600 84 83  11
535 550 601  11
601 64 43  11
656 645 547  11
543 608 365  11
35 553 603  11
183 623 184  11
541 609 604  11
609 341 340  11
605 250 249  11
249 248 605  11
187 186 606  11
606 623 526  11
575 529 607  11
607 335 567  11
608 543 602  11
602 547 608  11
609 566 580  11
609 340 604  11
128 626 129  11
610 77 76  11
590 516 611  11
611 357 356  11
107 106 612  11
560 653 521  11
536 651 571  11
613 270 269  11
182 181 614  11
636 614 635  11
259 258 615  11
615 595 512  11
616 246 565  11
33 629 34  11
617 64 550  11
550 548 617  11
618 320 319  11
618 318 539  11
633 120 619  11
633 121 120  11
620 360 568  11
563 622 40  11
621 204 585  11
585 586 621  11
622 516 41  11
41 40 622  11
623 614 603  11
623 553 526  11
624 269 268  11
624 639 87  11
625 543 563  11
625 39 524  11
631 592 518  11
610 574 626  11
627 607 567  11
627 332 608  11
628 512 569  11
628 598 540  11
629 542 553  11
629 33 616  11
261 260 630  11
634 107 612  11
631 77 610  11
610 626 631  11
632 525 593  11
632 528 595  11
643 619 577  11
658 648 533  11
634 637 570  11
570 108 634  11
635 564 572  11
614 636 603  11
636 572 36  11
636 35 603  11
331 330 637  11
637 513 570  11
544 618 638  11
638 644 28  11
520 521 639  11
639 88 87  11
640 546 556  11
640 606 526  11
641 544 515  11
515 584 641  11
642 557 555  11
642 569 512  11
643 80 79  11
643 658 633  11
644 618 539  11
539 642 644  11
574 547 645  11
645 171 10  11
25 591 646  11
584 654 326  11
647 558 530  11
530 598 647  11
78 518 648  11
648 125 124  11
643 577 649  11
649 586 589  11
650 599 67  11
650 66 522  11
613 624 651  11
651 87 86  11
523 549 652  11
652 199 198  11
653 612 106  11
653 8 88  11
654 328 327  11
654 584 646  11
655 202 579  11
655 581 589  11
547 625 656  11
656 524 562  11
657 37 588  11
588 578 657  11
658 643 79  11
79 78 658  11
677 662 671  12
52 689 51  12
690 766 676  12
692 393 394  12
693 719 739  12
744 282 283  12
769 386 723  12
386 665 385  12
139 767 660  12
139 660 138  12
696 288 289  12
716 218 219  12
290 703 696  12
137 683 136  12
703 290 291  12
222 751 742  12
698 792 776  12
115 791 776  12
765 298 299  12
678 771 722  12
16 770 751  12
227 770 226  12
237 733 236  12
727 379 380  12
168 707 669  12
688 753 739  12
659 163 689  12
1 798 70  12
755 689 674  12
689 164 674  12
166 674 165  12
157 690 662  12
163 659 162  12
161 720 160  12
157 662 156  12
766 720 667  12
662 690 676  12
732 697 711  12
710 746 666  12
23 741 399  12
753 49 739  12
168 669 167  12
49 753 48  12
47 718 704  12
369 688 368  12
367 748 366  12
46 773 672  12
706 369 370  12
369 706 688  12
377 687 376  12
373 704 372  12
371 706 370  12
773 375 687  12
773 373 374  12
373 773 704  12
375 773 374  12
727 800 728  12
69 728 670  12
380 800 727  12
727 378 379  12
5 668 105  12
24 799 670  12
799 24 383  12
802 665 769  12
135 713 11  12
741 398 399  12
398 741 695  12
101 763 660  12
395 740 692  12
393 715 392  12
683 660 763  12
740 397 695  12
715 730 103  12
789 389 390  12
674 164 165  12
164 689 163  12
789 723 389  12
723 387 388  12
386 769 665  12
384 799 383  12
68 802 769  12
715 393 692  12
785 692 740  12
723 386 387  12
391 789 390  12
723 789 788  12
148 685 147  12
685 148 664  12
731 146 685  12
661 739 719  12
705 98 699  12
147 685 146  12
709 699 99  12
767 760 675  12
748 23 366  12
660 767 734  12
767 139 140  12
760 717 709  12
760 709 675  12
713 135 683  12
713 707 170  12
398 695 397  12
661 763 702  12
683 137 660  12
705 699 664  12
151 710 666  12
666 149 150  12
666 150 151  12
742 221 222  12
213 775 212  12
787 221 742  12
787 219 220  12
216 750 215  12
94 768 93  12
92 736 680  12
218 716 714  12
795 209 210  12
697 783 677  12
211 795 210  12
209 795 737  12
737 732 207  12
775 796 700  12
795 211 775  12
777 764 90  12
219 787 716  12
796 775 213  12
750 217 714  12
796 215 759  12
750 714 759  12
284 744 283  12
7 791 115  12
290 696 289  12
288 777 287  12
792 293 294  12
293 698 292  12
745 744 680  12
378 727 701  12
701 687 377  12
284 784 744  12
744 784 684  12
777 286 287  12
777 784 286  12
744 745 282  12
282 745 281  12
758 772 19  12
221 787 220  12
790 772 758  12
295 792 294  12
293 792 698  12
113 781 757  12
762 793 765  12
694 765 757  12
20 298 694  12
62 779 61  12
298 765 694  12
302 762 301  12
301 762 300  12
678 793 762  12
63 4 111  12
681 62 63  12
686 774 743  12
304 678 303  12
308 779 307  12
779 782 691  12
774 59 60  12
309 310 782  12
743 772 726  12
752 754 743  12
751 222 223  12
772 743 754  12
240 711 663  12
783 697 725  12
783 786 746  12
697 778 711  12
235 733 712  12
724 735 721  12
54 676 53  12
54 679 671  12
735 778 679  12
733 724 721  12
233 682 232  12
59 803 58  12
761 229 230  12
803 756 761  12
708 57 58  12
231 761 230  12
57 708 682  12
53 766 52  12
235 712 234  12
720 659 667  12
712 721 56  12
233 712 682  12
752 782 310  12
803 761 708  12
779 722 771  12
779 691 61  12
779 62 722  12
59 774 686  12
161 162 659  12
689 52 667  12
137 138 660  12
101 734 100  12
23 748 741  12
170 707 169  12
154 738 710  12
156 738 155  12
663 238 239  12
239 240 663  12
664 148 149  12
149 666 664  12
384 385 665  12
769 723 668  12
732 711 242  12
664 746 705  12
159 720 690  12
720 161 659  12
788 668 723  12
668 5 68  12
669 166 167  12
669 719 693  12
382 800 381  12
382 24 670  12
724 778 735  12
738 156 662  12
701 377 378  12
46 729 45  12
673 684 91  12
91 92 673  12
674 166 669  12
693 755 674  12
99 100 675  12
760 767 141  12
676 54 671  12
671 662 676  12
697 732 725  12
154 710 12  12
302 303 678  12
681 722 62  12
679 677 671  12
54 735 679  12
758 19 279  12
680 673 92  12
63 111 681  12
762 302 678  12
231 232 682  12
57 712 56  12
763 741 702  12
683 135 136  12
784 284 285  12
684 90 91  12
685 664 699  12
146 731 145  12
743 726 686  12
770 16 226  12
375 376 687  12
687 701 672  12
739 661 702  12
688 367 368  12
689 755 51  12
689 667 659  12
690 157 158  12
158 159 690  12
60 61 691  12
782 779 308  12
730 715 692  12
692 394 395  12
49 50 693  12
693 674 669  12
112 793 111  12
694 295 20  12
101 785 763  12
397 740 396  12
703 291 698  12
764 696 703  12
677 679 697  12
242 711 241  12
291 292 698  12
114 781 113  12
98 705 97  12
731 717 145  12
94 759 714  12
95 797 700  12
798 701 727  12
798 1 45  12
99 699 98  12
145 717 144  12
791 764 703  12
764 777 696  12
371 372 704  12
773 687 672  12
737 207 208  12
97 749 96  12
706 371 704  12
706 753 688  12
707 168 169  12
707 713 661  12
229 761 756  12
761 231 682  12
99 675 709  12
717 731 709  12
710 151 12  12
738 154 155  12
663 711 778  12
711 240 241  12
712 57 682  12
712 233 234  12
683 661 713  12
713 170 11  12
217 750 216  12
217 218 714  12
103 104 715  12
715 391 392  12
680 790 745  12
714 768 94  12
717 760 143  12
143 144 717  12
706 704 718  12
718 47 48  12
719 669 707  12
707 661 719  12
720 766 690  12
720 159 160  12
55 56 721  12
733 237 724  12
722 681 678  12
771 678 304  12
388 389 723  12
668 788 105  12
724 237 238  12
238 663 724  12
207 732 15  12
737 786 725  12
756 780 770  12
772 790 726  12
800 382 670  12
701 798 729  12
728 69 70  12
728 798 727  12
729 46 672  12
672 701 729  12
730 785 102  12
102 103 730  12
731 685 699  12
699 709 731  12
242 15 732  12
732 737 725  12
721 712 733  12
733 235 236  12
675 100 734  12
734 101 660  12
735 54 55  12
55 721 735  12
736 92 93  12
768 714 716  12
786 783 725  12
737 208 209  12
738 662 677  12
677 710 738  12
739 702 688  12
739 49 693  12
692 785 730  12
740 395 396  12
741 748 702  12
741 763 695  12
747 780 726  12
780 756 686  12
312 752 311  12
754 752 312  12
744 684 673  12
673 680 744  12
280 758 279  12
280 281 745  12
746 786 705  12
746 664 666  12
747 680 736  12
747 801 794  12
748 367 688  12
688 702 748  12
775 700 797  12
749 97 705  12
700 759 95  12
215 796 214  12
794 780 747  12
751 223 16  12
774 782 752  12
752 310 311  12
753 706 718  12
718 48 753  12
754 312 313  12
313 314 754  12
755 693 50  12
50 51 755  12
756 227 228  12
228 229 756  12
112 113 757  12
781 295 694  12
758 280 745  12
726 790 747  12
759 94 95  12
759 215 750  12
760 141 142  12
142 143 760  12
761 682 708  12
756 803 686  12
793 112 765  12
300 765 299  12
785 101 102  12
763 661 683  12
764 791 89  12
89 90 764  12
765 300 762  12
765 112 757  12
667 52 766  12
766 53 676  12
140 141 767  12
767 675 734  12
801 768 787  12
736 93 768  12
668 68 769  12
665 802 799  12
770 227 756  12
780 686 726  12
771 304 305  12
305 306 771  12
772 754 314  12
314 19 772  12
773 46 47  12
47 704 773  12
60 691 774  12
774 752 743  12
749 797 96  12
775 211 212  12
114 115 776  12
698 791 703  12
90 684 777  12
777 288 696  12
778 697 679  12
778 724 663  12
779 771 306  12
306 307 779  12
780 794 751  12
751 770 780  12
694 757 781  12
781 114 776  12
782 774 691  12
782 308 309  12
783 746 710  12
710 677 783  12
285 286 784  12
784 777 684  12
785 740 695  12
695 763 785  12
786 737 749  12
749 705 786  12
768 801 736  12
768 716 787  12
788 715 104  12
104 105 788  12
789 391 715  12
715 788 789  12
758 745 790  12
790 680 747  12
791 698 776  12
791 7 89  12
792 295 781  12
781 776 792  12
793 678 681  12
681 111 793  12
742 794 801  12
742 751 794  12
795 775 749  12
749 737 795  12
213 214 796  12
796 759 700  12
797 95 96  12
797 749 775  12
798 728 70  12
798 45 729  12
799 384 665  12
670 802 69  12
670 728 800  12
800 380 381  12
801 747 736  12
801 787 742  12
802 68 69  12
802 670 799  12
708 58 803  12
803 59 686  12
820 805 810  13
403 814 806  13
809 378 379  13
349 400 22  13
349 816 400  13
815 380 381  13
351 816 350  13
380 815 809  13
815 400 816  13
351 819 816  13
813 812 810  13
378 820 377  13
820 376 377  13
354 810 805  13
24 401 382  13
810 354 355  13
382 815 381  13
820 819 805  13
373 817 372  13
376 820 812  13
815 382 401  13
371 817 807  13
812 374 375  13
807 369 370  13
368 814 367  13
360 808 359  13
817 373 811  13
806 818 804  13
366 814 402  13
366 402 23  13
369 818 368  13
807 804 818  13
361 808 360  13
356 813 810  13
358 813 357  13
817 371 372  13
21 403 365  13
365 806 364  13
363 804 362  13
363 806 804  13
361 362 804  13
368 818 814  13
805 352 353  13
353 354 805  13
806 363 364  13
806 365 403  13
370 371 807  13
808 361 804  13
358 359 808  13
808 804 807  13
379 380 809  13
819 351 352  13
810 355 356  13
374 812 811  13
813 356 357  13
811 373 374  13
812 813 811  13
812 375 376  13
813 358 808  13
813 817 811  13
814 403 402  13
814 366 367  13
401 400 815  13
819 820 809  13
816 349 350  13
815 819 809  13
817 813 808  13
808 807 817  13
818 806 814  13
818 369 807  13
819 815 816  13
819 352 805  13
810 812 820  13
820 378 809  13
822 834 832  14
337 834 821  14
834 827 821  14
397 828 396  14
332 403 21  14
826 833 828  14
334 829 333  14
337 821 336  14
838 830 823  14
332 829 403  14
402 829 826  14
392 825 822  14
827 833 821  14
23 402 399  14
398 826 397  14
395 828 827  14
399 826 398  14
821 335 336  14
335 833 334  14
832 830 822  14
387 831 386  14
342 343 824  14
341 832 340  14
386 831 385  14
390 838 389  14
346 836 345  14
837 348 400  14
346 837 836  14
383 835 401  14
24 383 401  14
835 400 401  14
834 337 338  14
348 837 347  14
823 830 824  14
388 838 823  14
832 341 830  14
831 837 835  14
400 348 22  14
344 836 824  14
837 831 836  14
825 392 393  14
394 827 825  14
391 838 390  14
391 392 822  14
344 824 343  14
823 387 388  14
823 836 831  14
342 830 341  14
825 393 394  14
833 827 828  14
826 399 402  14
334 833 829  14
827 834 825  14
827 394 395  14
828 395 396  14
828 397 826  14
829 402 403  14
829 332 333  14
830 342 824  14
830 838 822  14
385 835 384  14
831 387 823  14
339 834 338  14
339 340 832  14
833 826 829  14
833 335 821  14
834 339 832  14
834 822 825  14
835 383 384  14
835 385 831  14
836 823 824  14
836 344 345  14
837 346 347  14
837 400 835  14
838 388 389  14
838 391 822  14
Edges
415
1 2  1
3 25  2
25 26  2
26 27  2
27 28  2
28 29  2
29 30  2
30 31  2
31 32  2
32 33  2
33 34  2
34 35  2
35 36  2
36 37  2
37 38  2
38 39  2
39 40  2
40 41  2
41 42  2
42 43  2
43 2  2
4 44  3
44 3  3
1 45  4
45 46  4
46 47  4
47 48  4
48 49  4
49 50  4
50 51  4
51 52  4
52 53  4
53 54  4
54 55  4
55 56  4
56 57  4
57 58  4
58 59  4
59 60  4
60 61  4
61 62  4
62 63  4
63 4  4
5 6  5
2 64  6
64 65  6
65 66  6
66 67  6
67 6  6
5 68  7
68 69  7
69 70  7
70 1  7
7 71  8
71 8  8
6 72  9
72 73  9
73 74  9
74 75  9
75 76  9
76 77  9
77 78  9
78 79  9
79 80  9
80 81  9
81 82  9
82 83  9
83 84  9
84 85  9
85 86  9
86 87  9
87 88  9
88 8  9
7 89  10
89 90  10
90 91  10
91 92  10
92 93  10
93 94  10
94 95  10
95 96  10
96 97  10
97 98  10
98 99  10
99 100  10
100 101  10
101 102  10
102 103  10
103 104  10
104 105  10
105 5  10
8 106  11
106 107  11
107 108  11
108 109  11
109 110  11
110 3  11
4 111  12
111 112  12
112 113  12
113 114  12
114 115  12
115 7  12
9 116  13
116 117  13
117 118  13
118 119  13
119 120  13
120 121  13
121 122  13
122 123  13
123 124  13
124 125  13
125 126  13
126 127  13
127 128  13
128 129  13
129 130  13
130 131  13
131 132  13
132 10  13
10 133  14
133 134  14
134 11  14
11 135  15
135 136  15
136 137  15
137 138  15
138 139  15
139 140  15
140 141  15
141 142  15
142 143  15
143 144  15
144 145  15
145 146  15
146 147  15
147 148  15
148 149  15
149 150  15
150 151  15
151 12  15
12 152  16
152 153  16
153 9  16
12 154  17
154 155  17
155 156  17
156 157  17
157 158  17
158 159  17
159 160  17
160 161  17
161 162  17
162 163  17
163 164  17
164 165  17
165 166  17
166 167  17
167 168  17
168 169  17
169 170  17
170 11  17
10 171  18
171 172  18
172 173  18
173 174  18
174 175  18
175 176  18
176 177  18
177 178  18
178 179  18
179 180  18
180 181  18
181 182  18
182 183  18
183 184  18
184 185  18
185 186  18
186 187  18
187 9  18
13 188  19
188 189  19
189 190  19
190 191  19
191 192  19
192 193  19
193 194  19
194 195  19
195 196  19
196 197  19
197 198  19
198 199  19
199 200  19
200 201  19
201 202  19
202 203  19
203 204  19
204 14  19
14 205  20
205 206  20
206 15  20
15 207  21
207 208  21
208 209  21
209 210  21
210 211  21
211 212  21
212 213  21
213 214  21
214 215  21
215 216  21
216 217  21
217 218  21
218 219  21
219 220  21
220 221  21
221 222  21
222 223  21
223 16  21
16 224  22
224 225  22
225 13  22
16 226  23
226 227  23
227 228  23
228 229  23
229 230  23
230 231  23
231 232  23
232 233  23
233 234  23
234 235  23
235 236  23
236 237  23
237 238  23
238 239  23
239 240  23
240 241  23
241 242  23
242 15  23
14 243  24
243 244  24
244 245  24
245 246  24
246 247  24
247 248  24
248 249  24
249 250  24
250 251  24
251 252  24
252 253  24
253 254  24
254 255  24
255 256  24
256 257  24
257 258  24
258 259  24
259 13  24
17 260  25
260 261  25
261 262  25
262 263  25
263 264  25
264 265  25
265 266  25
266 267  25
267 268  25
268 269  25
269 270  25
270 271  25
271 272  25
272 273  25
273 274  25
274 275  25
275 276  25
276 18  25
18 277  26
277 278  26
278 19  26
19 279  27
279 280  27
280 281  27
281 282  27
282 283  27
283 284  27
284 285  27
285 286  27
286 287  27
287 288  27
288 289  27
289 290  27
290 291  27
291 292  27
292 293  27
293 294  27
294 295  27
295 20  27
20 296  28
296 297  28
297 17  28
20 298  29
298 299  29
299 300  29
300 301  29
301 302  29
302 303  29
303 304  29
304 305  29
305 306  29
306 307  29
307 308  29
308 309  29
309 310  29
310 311  29
311 312  29
312 313  29
313 314  29
314 19  29
18 315  30
315 316  30
316 317  30
317 318  30
318 319  30
319 320  30
320 321  30
321 322  30
322 323  30
323 324  30
324 325  30
325 326  30
326 327  30
327 328  30
328 329  30
329 330  30
330 331  30
331 17  30
21 332  31
332 333  31
333 334  31
334 335  31
335 336  31
336 337  31
337 338  31
338 339  31
339 340  31
340 341  31
341 342  31
342 343  31
343 344  31
344 345  31
345 346  31
346 347  31
347 348  31
348 22  31
22 349  32
349 350  32
350 351  32
351 352  32
352 353  32
353 354  32
354 355  32
355 356  32
356 357  32
357 358  32
358 359  32
359 360  32
360 361  32
361 362  32
362 363  32
363 364  32
364 365  32
365 21  32
23 366  33
366 367  33
367 368  33
368 369  33
369 370  33
370 371  33
371 372  33
372 373  33
373 374  33
374 375  33
375 376  33
376 377  33
377 378  33
378 379  33
379 380  33
380 381  33
381 382  33
382 24  33
24 383  34
383 384  34
384 385  34
385 386  34
386 387  34
387 388  34
388 389  34
389 390  34
390 391  34
391 392  34
392 393  34
393 394  34
394 395  34
395 396  34
396 397  34
397 398  34
398 399  34
399 23  34
22 400  35
400 401  35
401 24  35
23 402  36
402 403  36
403 21  36
End
