MeshVersionFormatted 1

Dimension
3

Vertices
643
0  0  40  0
0  0  0  0
320  0  0  0
320  0  40  0
0  80  40  0
0  80  0  0
320  80  40  0
320  80  0  0
140  40  0  0
100  40  0  0
100  40  40  0
140  40  40  0
220  40  0  0
180  40  0  0
180  40  40  0
220  40  40  0
60  40  0  0
20  40  0  0
60  40  40  0
20  40  40  0
301.1764705882353  0  0  0
282.35294117647061  0  0  0
263.52941176470586  0  0  0
244.70588235294116  0  0  0
225.88235294117646  0  0  0
207.05882352941177  0  0  0
188.23529411764704  0  0  0
169.41176470588235  0  0  0
150.58823529411765  0  0  0
131.76470588235293  0  0  0
112.94117647058823  0  0  0
94.117647058823522  0  0  0
75.294117647058812  0  0  0
56.470588235294116  0  0  0
37.647058823529406  0  0  0
18.823529411764696  0  0  0
20  0  40  0
40  0  40  0
60  0  40  0
80  0  40  0
100  0  40  0
120  0  40  0
140  0  40  0
160  0  40  0
180  0  40  0
200  0  40  0
220  0  40  0
240  0  40  0
260  0  40  0
280  0  40  0
300  0  40  0
0  13.333333333333336  0  0
0  26.666666666666668  0  0
0  40  0  0
0  53.333333333333336  0  0
0  66.666666666666671  0  0
0  66.666666666666657  40  0
0  53.333333333333329  40  0
0  40  40  0
0  26.666666666666664  40  0
0  13.333333333333329  40  0
20  80  0  0
40  80  0  0
60  80  0  0
80  80  0  0
100  80  0  0
120  80  0  0
140  80  0  0
160  80  0  0
180  80  0  0
200  80  0  0
220  80  0  0
240  80  0  0
260  80  0  0
280  80  0  0
300  80  0  0
301.1764705882353  80  40  0
282.35294117647061  80  40  0
263.52941176470586  80  40  0
244.70588235294116  80  40  0
225.88235294117646  80  40  0
207.05882352941177  80  40  0
188.23529411764704  80  40  0
169.41176470588235  80  40  0
150.58823529411765  80  40  0
131.76470588235293  80  40  0
112.94117647058823  80  40  0
94.117647058823522  80  40  0
75.294117647058812  80  40  0
56.470588235294116  80  40  0
37.647058823529406  80  40  0
18.823529411764696  80  40  0
320  40  0  0
320  40  40  0
139.69615506024417  43.472963553338609  0  0
138.79385241571816  46.840402866513372  0  0
137.32050807568876  50  0  0
135.32088886237955  52.855752193730787  0  0
132.85575219373078  55.320888862379562  0  0
130  57.320508075688771  0  0
126.84040286651337  58.793852415718163  0  0
123.4729635533386  59.696155060244159  0  0
120  60  0  0
116.5270364466614  59.696155060244159  0  0
113.15959713348663  58.79385241571817  0  0
110  57.320508075688778  0  0
107.14424780626922  55.320888862379562  0  0
104.67911113762044  52.855752193730794  0  0
102.67949192431122  50  0  0
101.20614758428184  46.840402866513379  0  0
100.30384493975583  43.472963553338616  0  0
100  40  13.333333333333334  0
100  40  26.666666666666668  0
100.30384493975583  43.472963553338602  40  0
101.20614758428184  46.840402866513372  40  0
102.67949192431122  50  40  0
104.67911113762044  52.855752193730787  40  0
107.14424780626921  55.320888862379562  40  0
109.99999999999999  57.320508075688764  40  0
113.15959713348663  58.79385241571817  40  0
116.5270364466614  59.696155060244159  40  0
120  60  40  0
123.4729635533386  59.696155060244166  40  0
126.84040286651336  58.79385241571817  40  0
130  57.320508075688771  40  0
132.85575219373078  55.320888862379562  40  0
135.32088886237955  52.855752193730794  40  0
137.32050807568876  50.000000000000007  40  0
138.79385241571816  46.840402866513372  40  0
139.69615506024417  43.472963553338609  40  0
140  40  26.666666666666664  0
140  40  13.333333333333332  0
139.69615506024417  36.527036446661391  40  0
138.79385241571816  33.159597133486628  40  0
137.32050807568876  30  40  0
135.32088886237955  27.144247806269213  40  0
132.85575219373078  24.679111137620438  40  0
130  22.679491924311229  40  0
126.84040286651337  21.206147584281833  40  0
123.4729635533386  20.303844939755841  40  0
120  20  40  0
116.5270364466614  20.303844939755841  40  0
113.15959713348663  21.20614758428183  40  0
110  22.679491924311225  40  0
107.14424780626922  24.679111137620438  40  0
104.67911113762044  27.14424780626921  40  0
102.67949192431122  30  40  0
101.20614758428184  33.159597133486621  40  0
100.30384493975583  36.527036446661384  40  0
100.30384493975583  36.527036446661398  0  0
101.20614758428184  33.159597133486628  0  0
102.67949192431122  30.000000000000004  0  0
104.67911113762044  27.144247806269213  0  0
107.14424780626921  24.679111137620442  0  0
109.99999999999999  22.679491924311233  0  0
113.15959713348663  21.20614758428183  0  0
116.5270364466614  20.303844939755841  0  0
120  20  0  0
123.4729635533386  20.303844939755837  0  0
126.84040286651336  21.20614758428183  0  0
130  22.679491924311229  0  0
132.85575219373078  24.679111137620438  0  0
135.32088886237955  27.144247806269206  0  0
137.32050807568876  29.999999999999993  0  0
138.79385241571816  33.159597133486628  0  0
139.69615506024417  36.527036446661391  0  0
219.69615506024417  43.472963553338609  0  0
218.79385241571816  46.840402866513372  0  0
217.32050807568876  50  0  0
215.32088886237955  52.855752193730787  0  0
212.85575219373078  55.320888862379562  0  0
210  57.320508075688771  0  0
206.84040286651339  58.793852415718163  0  0
203.47296355333862  59.696155060244159  0  0
200  60  0  0
196.52703644666138  59.696155060244159  0  0
193.15959713348661  58.79385241571817  0  0
190  57.320508075688778  0  0
187.14424780626922  55.320888862379562  0  0
184.67911113762045  52.855752193730794  0  0
182.67949192431124  50  0  0
181.20614758428184  46.840402866513379  0  0
180.30384493975583  43.472963553338616  0  0
180  40  13.333333333333334  0
180  40  26.666666666666668  0
180.30384493975583  43.472963553338602  40  0
181.20614758428184  46.840402866513372  40  0
182.67949192431121  50  40  0
184.67911113762045  52.855752193730787  40  0
187.14424780626922  55.320888862379562  40  0
190  57.320508075688764  40  0
193.15959713348664  58.79385241571817  40  0
196.52703644666138  59.696155060244159  40  0
200  60  40  0
203.47296355333859  59.696155060244166  40  0
206.84040286651336  58.79385241571817  40  0
210  57.320508075688771  40  0
212.85575219373078  55.320888862379562  40  0
215.32088886237955  52.855752193730794  40  0
217.32050807568876  50.000000000000007  40  0
218.79385241571816  46.840402866513372  40  0
219.69615506024417  43.472963553338609  40  0
220  40  26.666666666666664  0
220  40  13.333333333333332  0
219.69615506024417  36.527036446661391  40  0
218.79385241571816  33.159597133486628  40  0
217.32050807568876  30  40  0
215.32088886237955  27.144247806269213  40  0
212.85575219373078  24.679111137620438  40  0
210  22.679491924311229  40  0
206.84040286651339  21.206147584281833  40  0
203.47296355333862  20.303844939755841  40  0
200  20  40  0
196.52703644666138  20.303844939755841  40  0
193.15959713348661  21.20614758428183  40  0
190  22.679491924311225  40  0
187.14424780626922  24.679111137620438  40  0
184.67911113762045  27.14424780626921  40  0
182.67949192431124  30  40  0
181.20614758428184  33.159597133486621  40  0
180.30384493975583  36.527036446661384  40  0
180.30384493975583  36.527036446661398  0  0
181.20614758428184  33.159597133486628  0  0
182.67949192431121  30.000000000000004  0  0
184.67911113762045  27.144247806269213  0  0
187.14424780626922  24.679111137620442  0  0
190  22.679491924311233  0  0
193.15959713348664  21.20614758428183  0  0
196.52703644666138  20.303844939755841  0  0
200  20  0  0
203.47296355333859  20.303844939755837  0  0
206.84040286651336  21.20614758428183  0  0
210  22.679491924311229  0  0
212.85575219373078  24.679111137620438  0  0
215.32088886237955  27.144247806269206  0  0
217.32050807568876  29.999999999999993  0  0
218.79385241571816  33.159597133486628  0  0
219.69615506024417  36.527036446661391  0  0
59.696155060244159  43.472963553338609  0  0
58.79385241571817  46.840402866513372  0  0
57.320508075688778  50  0  0
55.320888862379562  52.855752193730787  0  0
52.855752193730787  55.320888862379562  0  0
50  57.320508075688771  0  0
46.840402866513379  58.793852415718163  0  0
43.472963553338609  59.696155060244159  0  0
40  60  0  0
36.527036446661391  59.696155060244159  0  0
33.159597133486628  58.79385241571817  0  0
30.000000000000004  57.320508075688778  0  0
27.144247806269213  55.320888862379562  0  0
24.679111137620442  52.855752193730794  0  0
22.679491924311225  50  0  0
21.206147584281833  46.840402866513379  0  0
20.303844939755841  43.472963553338616  0  0
20.303844939755837  36.527036446661398  0  0
21.20614758428183  33.159597133486628  0  0
22.679491924311222  30.000000000000004  0  0
24.679111137620438  27.144247806269213  0  0
27.14424780626921  24.679111137620442  0  0
29.999999999999993  22.679491924311233  0  0
33.159597133486628  21.20614758428183  0  0
36.527036446661391  20.303844939755841  0  0
39.999999999999993  20  0  0
43.472963553338602  20.303844939755837  0  0
46.840402866513365  21.20614758428183  0  0
50  22.679491924311229  0  0
52.855752193730787  24.679111137620438  0  0
55.320888862379554  27.144247806269206  0  0
57.320508075688764  29.999999999999993  0  0
58.79385241571817  33.159597133486628  0  0
59.696155060244159  36.527036446661391  0  0
59.696155060244159  36.527036446661391  40  0
58.79385241571817  33.159597133486628  40  0
57.320508075688778  30  40  0
55.320888862379562  27.144247806269213  40  0
52.855752193730787  24.679111137620438  40  0
50  22.679491924311229  40  0
46.840402866513379  21.206147584281833  40  0
43.472963553338609  20.303844939755841  40  0
40  20  40  0
36.527036446661391  20.303844939755841  40  0
33.159597133486628  21.20614758428183  40  0
30.000000000000004  22.679491924311225  40  0
27.144247806269213  24.679111137620438  40  0
24.679111137620442  27.14424780626921  40  0
22.679491924311225  30  40  0
21.206147584281833  33.159597133486621  40  0
20.303844939755841  36.527036446661384  40  0
20.303844939755837  43.472963553338602  40  0
21.20614758428183  46.840402866513372  40  0
22.679491924311222  50  40  0
24.679111137620438  52.855752193730787  40  0
27.14424780626921  55.320888862379562  40  0
29.999999999999993  57.320508075688764  40  0
33.159597133486628  58.79385241571817  40  0
36.527036446661391  59.696155060244159  40  0
39.999999999999993  60  40  0
43.472963553338602  59.696155060244166  40  0
46.840402866513365  58.79385241571817  40  0
50  57.320508075688771  40  0
52.855752193730787  55.320888862379562  40  0
55.320888862379554  52.855752193730794  40  0
57.320508075688764  50.000000000000007  40  0
58.79385241571817  46.840402866513372  40  0
59.696155060244159  43.472963553338609  40  0
20  40  13.333333333333334  0
20  40  26.666666666666668  0
60  40  26.666666666666664  0
60  40  13.333333333333332  0
0  56.781215540043497  20  0
0  30.97554562576704  20  0
138.59051218320369  47.37515130462797  29.412520876030623  0
109.70142581948673  57.144660097198354  8.1781201111100952  0
135.63339865002123  52.473846505770155  31.72593023507407  0
114.81832422010497  59.317096989766583  32.023364717843698  0
120.45710050293579  59.994775795947696  8.6506580686046437  0
132.40266205617527  55.689932247154871  8.8875456158348154  0
121.04628972403039  59.972613194406691  25.391903820202824  0
105.17310399425001  53.422486909461867  10.29637417661427  0
114.83167735863279  59.320673929103279  14.127287492263278  0
109.06851059739529  56.7482100369186  24.638142167270651  0
100.87687578390712  45.857142666512587  28.464802093910492  0
131.80980110360227  56.140898298835616  25.561684920848727  0
101.49557375896246  47.588557800399343  11.418713824016255  0
104.00769899694328  52.010258474638711  27.832069663667909  0
136.16513352258616  51.776606395603153  15.385148718427542  0
139.14479103432137  45.785929160659379  12.113573730903127  0
126.78719147050852  58.813134559202418  30.555816853491379  0
126.78577684404645  58.813644852149281  12.381017282679721  0
116.53237056866691  20.302905134844057  26.294823434275724  0
107.00932237162858  24.793347023235835  11.615990882484871  0
130.04762065799832  22.707073147874439  28.591241732149996  0
104.67992735160917  27.143275143022343  28.635176501236593  0
112.02316527072082  21.659604483496938  12.482250421136468  0
138.71943278675437  32.958491912794145  28.634529163304919  0
139.44431959422948  35.318287117147946  13.395740509127648  0
127.04344966099515  21.281297671231926  11.570545167212419  0
132.85654094084569  24.679773009633351  11.506152994311028  0
101.27598393503328  32.970688341034503  28.63694046272424  0
109.82861221996309  22.779579835900755  28.433498335120625  0
116.53096908033775  20.303151915130499  8.5425401940323091  0
102.76989077053139  29.845033927157587  11.755737373946589  0
135.28681836525556  27.103753093721981  28.639044814439966  0
100.55388481648791  35.325750940570181  13.398978946638016  0
121.23740206272275  20.038315799132342  12.472269750641118  0
137.21239872781439  29.815043935552147  11.739528188126197  0
123.68657900290761  20.342707835123356  28.419261398135038  0
215.63339865002123  52.473846505770155  31.72593023507407  0
189.06851059739529  56.748210036918593  24.638142167270654  0
181.49557375896248  47.588557800399343  11.418713824016253  0
218.59051218320369  47.37515130462797  29.412520876030626  0
211.80980110360227  56.140898298835616  25.561684920848727  0
200.45710050293579  59.994775795947696  8.6506580686046419  0
219.14479103432134  45.785929160659386  12.113573730903127  0
184.00769899694328  52.010258474638711  27.832069663667909  0
206.78719147050853  58.813134559202418  30.555816853491379  0
194.83167735863279  59.320673929103279  14.127287492263278  0
180.87687578390711  45.857142666512587  28.464802093910492  0
189.70142581948673  57.144660097198354  8.1781201111100952  0
194.81832422010496  59.317096989766583  32.023364717843698  0
212.40266205617527  55.689932247154871  8.8875456158348154  0
206.78577684404647  58.813644852149281  12.381017282679721  0
201.0462897240304  59.972613194406691  25.391903820202824  0
185.17310399425  53.422486909461853  10.29637417661427  0
216.16513352258616  51.776606395603153  15.385148718427542  0
182.76989077053139  29.845033927157594  11.755737373946589  0
203.68657900290762  20.342707835123356  28.419261398135038  0
212.85654094084569  24.679773009633351  11.506152994311028  0
196.53237056866692  20.302905134844057  26.294823434275724  0
218.71943278675437  32.958491912794145  28.634529163304919  0
207.04344966099515  21.281297671231926  11.570545167212419  0
201.23740206272274  20.038315799132342  12.472269750641116  0
196.53096908033774  20.303151915130499  8.5425401940323074  0
219.44431959422948  35.318287117147946  13.395740509127648  0
215.28681836525556  27.103753093721981  28.639044814439966  0
192.02316527072082  21.659604483496942  12.482250421136468  0
181.27598393503328  32.970688341034503  28.63694046272424  0
210.04762065799832  22.707073147874439  28.591241732149996  0
217.21239872781439  29.815043935552147  11.739528188126197  0
187.00932237162857  24.793347023235835  11.615990882484871  0
180.55388481648791  35.325750940570181  13.398978946638014  0
189.82861221996308  22.779579835900755  28.433498335120625  0
184.67992735160917  27.143275143022343  28.635176501236593  0
168.57136302655977  60.664740436322617  0  0
165.64239731981073  13.917635542443533  0  0
166.77957994521958  46.420220912626888  0  0
241.65592513925824  36.953760561273818  0  0
217.39128672615422  11.344403599708551  0  0
137.78787011789163  13.485332834998507  0  0
102.37908674774677  21.432775320077297  0  0
154.71471295782246  49.152694017278236  0  0
58.974135483947975  52.114707934864903  0  0
18.216520264127698  53.869980119078093  0  0
36.025434306150046  66.874679516830341  0  0
116.75909350931975  65.166368860062619  0  0
126.18585439772286  9.1403284140659018  0  0
221.48645672239277  29.001616320949879  0  0
120.04784487831324  14.653647500842464  0  0
128.37628758195947  17.633793224462643  0  0
225.97382560408496  36.200640980345  0  0
141.41130317768346  26.533722300605703  0  0
8.96449611901099  57.168704917283982  0  0
135.35810717018185  63.549411047325357  0  0
148.7629156843345  62.974560183281348  0  0
122.87755080031751  66.342985983766383  0  0
159.50410952524513  38.80596345447988  0  0
92.992712503401634  64.122975187590598  0  0
11.052493504172597  22.280238882617592  0  0
240.04542878473816  56.510968455282431  0  0
58.168166537746401  64.319604862721562  0  0
225.70641665281616  49.496916011811273  0  0
151.9479717903273  18.944489340155449  0  0
40.859635080535462  13.564884423324557  0  0
23.341016874617065  58.267146907718143  0  0
127.93935370311429  62.700593657097251  0  0
63.801573840050587  31.475532640402033  0  0
191.20154019261389  61.272426932658476  0  0
178.97580465255456  47.766875634384725  0  0
207.52142118512256  14.179967103866861  0  0
48.515344811084553  12.538287500039326  0  0
210.18980316318414  65.810012256679443  0  0
108.0575665193834  66.188458071425913  0  0
26.076255153401586  64.501642627302445  0  0
175.53812183259598  41.911867490269707  0  0
55.43154811352948  57.184696542857267  0  0
231.20234462948545  13.007622715423025  0  0
176.93624935446849  23.757177083784882  0  0
212.4785625377863  19.273690348046173  0  0
151.99212581743598  31.402061155142711  0  0
224.90641425305796  66.144932572707987  0  0
247.659599606802  19.206669929576975  0  0
28.679101888574028  19.180439125520937  0  0
61.19216600110628  13.136519609587127  0  0
88.42682959202331  28.085564948498575  0  0
190.35374685961102  17.386186479573986  0  0
65.180895689361819  39.816751124549121  0  0
150.93285971714474  39.828403179118787  0  0
144.55856609832827  43.803631398240796  0  0
103.56410701560816  58.055629202871856  0  0
59.670058612537147  24.087857987299362  0  0
87.995569849177997  50.993526235271169  0  0
184.16649989179768  62.410242148747606  0  0
34.659525279819512  15.031566420243506  0  0
103.85204065475391  12.52224523396557  0  0
44.181427730228812  62.716796718601366  0  0
180.69187522261134  12.45995750198983  0  0
73.945638601594297  22.545336660670475  0  0
175.60871027801784  33.069902397954614  0  0
64.829056393595366  49.144806444424582  0  0
231.37132562136804  44.523761341230667  0  0
12.724355031379414  46.10862368528835  0  0
62.048914160897056  56.768292922753908  0  0
53.178157742690864  19.70680772951081  0  0
180.04815168507716  54.167763402135357  0  0
21.31655038364789  20.48256283757598  0  0
12.828155381507868  11.186516295647012  0  0
174.00437705030527  50.193365586722905  0  0
168.33887041323368  37.713747067066443  0  0
72.794275500201891  61.14866734557657  0  0
134.27861868576625  22.045876871073272  0  0
164.2788670024178  28.250150463060738  0  0
13.048403868391299  34.084921867026623  0  0
143.82568074354535  51.463307642124441  0  0
76.279709061713945  43.944616932283004  0  0
143.90754748683278  35.909509188206734  0  0
90.848103711636881  38.820818025248585  0  0
90.832486527042732  15.771133551879112  0  0
80.294408196602603  33.529415131459352  0  0
216.06447487350763  58.859869212777255  0  0
71.918238343555373  34.255363238425353  0  0
197.81562240497905  12.877327583707384  0  0
273.6272392122097  39.271127296481666  0  0
48.165930422877757  69.262938938873504  0  0
223.21095289350677  55.652180137274733  0  0
231.35332859110585  25.982822923754718  0  0
25.672689676276477  10.982934359030899  0  0
97.659927159280116  25.755760180064147  0  0
223.5725563151957  43.426938235415413  0  0
96.486340018318657  45.437474828798926  0  0
50.485754517012047  61.610572200990894  0  0
192.04623846960894  68.17434188066116  0  0
220.28336583644531  21.496736690729719  0  0
98.516815313836702  52.603243523944521  0  0
129.21260025311358  70.515878955018692  0  0
13.819814010063233  65.774168271304902  0  0
96.869099090784843  32.063046441903658  0  0
138.88780731142344  56.026088568265614  0  0
189.28103647200851  10.703182066092191  0  0
19.007156782369464  27.864683322339612  0  0
200.35913889252262  65.580878188821785  0  0
184.97073710713818  21.369680504517817  0  0
112.7701552601373  15.227089772477955  0  0
211.05778865020824  19.468669568382047  40  0
187.9509485014259  9.648106368514167  40  0
187.54776403987302  18.778703180928908  40  0
90.904579799707705  61.379367114060599  40  0
13.283954630711174  23.432916705940112  40  0
56.023114257958007  14.715281412673871  40  0
70.102564792059908  31.114820976648293  40  0
104.78459901002948  21.725719165290222  40  0
31.312932551322088  17.580580828224932  40  0
249.44567388741615  63.071668536678978  40  0
174.78519019079238  43.639053153700232  40  0
208.18075226649597  62.890443686762012  40  0
161.73903224970584  45.975286617579528  40  0
48.745132760750209  68.031540691384549  40  0
24.590182233541722  11.834975507751682  40  0
57.3003443615953  55.430029479643352  40  0
48.662246676681598  61.480389822926639  40  0
145.99957689132555  16.318908666236084  40  0
223.61022182057414  54.134394551315367  40  0
69.75566948925065  17.968958802966672  40  0
14.472668370512555  66.223004769224332  40  0
227.61944646940418  41.682736252132926  40  0
175.68502441106614  27.538927388240918  40  0
94.524501132774844  39.292440561976328  40  0
126.55520698852817  18.307021049746691  40  0
61.43641373881939  64.41448233757437  40  0
207.12088330022945  69.547637834307807  40  0
24.052124340567413  58.937278069948412  40  0
63.561605951886023  49.650411985919405  40  0
11.481235427303888  45.316126907970364  40  0
119.82808881128602  13.057492603805821  40  0
171.84713937679419  51.934921261053724  40  0
179.13088176112055  50.428571230377827  40  0
36.804987074943163  16.820331540548629  40  0
144.10151128373005  39.706779242462055  40  0
17.51770396838684  49.539389680720298  40  0
188.04062992723004  60.368515051067156  40  0
162.9732366105039  20.958130064266001  40  0
181.09109882142863  67.640068263621714  40  0
204.37501962796833  15.35583927249218  40  0
182.3877533904332  23.763117669547515  40  0
229.22464768298096  25.175375560455251  40  0
176.56283580299294  35.902872031733402  40  0
141.66744159284374  54.214655511759489  40  0
98.736704966256596  29.5413694252344  40  0
111.94215975837076  62.013061150155842  40  0
237.860578756748  49.617870305702688  40  0
58.177495813975952  22.24257834207944  40  0
10.413945073207179  56.093766820498118  40  0
119.91842057096552  18.390094019623582  40  0
61.885780945344152  28.520820333119453  40  0
48.270603834731901  17.848905183762817  40  0
215.89239376672978  69.512943420893762  40  0
101.42409271093773  58.312105459776312  40  0
86.062441676283299  47.678568488535831  40  0
39.881101107639033  62.026535812368294  40  0
118.22905024985374  65.67891782261465  40  0
179.44385268789878  57.272193289656968  40  0
195.63588185445479  15.04287188234585  40  0
100.02520752186791  66.046519279539268  40  0
53.18876146507894  60.339097638994161  40  0
41.64046196456767  15.858141318718578  40  0
224.13171622586304  47.625446064999053  40  0
34.452508423286019  10.279027667196642  40  0
29.111912527840094  66.398481237125452  40  0
99.392520855106753  52.990155486010607  40  0
131.17483054271705  11.459482446654768  40  0
85.184160105023821  37.759619779918125  40  0
23.524794965897701  19.833495537723714  40  0
80.262100591019546  29.477036842769134  40  0
44.477352658814119  62.858481599554729  40  0
218.60596821682557  21.34101733633171  40  0
167.32280857729555  34.490267095366356  40  0
18.964229910584805  55.584313550030998  40  0
13.57898499723332  11.41578026515448  40  0
90.057760867334878  30.750242059494767  40  0
106.31628061760071  61.367795710818186  40  0
150.55893410711437  43.725068125804405  40  0
135.87585505376472  59.353047443751535  40  0
225.00775244744025  34.307096959138015  40  0
128.07023308545155  63.153476271738036  40  0
152.12553847458088  32.885359212439312  40  0
164.04144517110865  62.333760941695097  40  0
197.3091044204885  65.858095787411699  40  0
74.894622559215875  41.591075562256734  40  0
113.18187586413235  18.451001968368818  40  0
176.63666904307576  14.396239794331105  40  0
239.12692611498477  35.059705343726975  40  0
39.240580173459328  67.039486188595802  40  0
63.59807371733212  38.005256302600628  40  0
270.70318115483087  40.611089098186284  40  0
146.6815843482342  63.039949755986122  40  0
151.36334264782886  52.763863049801706  40  0
108.20684864833319  11.836745407538348  40  0
141.0619986767434  27.828566329985055  40  0
230.55112096277236  65.128319507716668  40  0
227.62127542819024  12.836765868433451  40  0
46.738919059142695  9.7909718968811212  40  0
12.024320984871897  34.689684132974527  40  0
136.43035912063104  69.540120236368608  40  0
143.36889236867808  47.250948097553149  40  0
107.2857088653431  69.189416744806351  40  0
35.579406816146509  62.80335550065525  40  0
53.08758193386624  20.425917447345693  40  0
244.42869922706939  18.950761250703309  40  0
75.372084061264417  57.45129379295166  40  0
91.493700758160401  17.667567656164586  40  0
125.51040032760076  71.676462742102572  40  0
220.69218427537294  28.526657011624312  40  0
143.16359693127629  34.028744960532585  40  0
216.61067623001031  59.584942444002323  40  0
134.70642738985487  21.187614761342722  40  0
213.60203236267893  11.507141534812424  40  0
95.417832370008014  48.603074647041687  40  0
19.046364706406873  30.839662963796513  40  0
21.092533978728273  33.480204861005596  26.193133330117121  0
24.770028125899216  27.036668764777353  28.400166005169435  0
39.996234385852716  20.000000354496251  11.450447357015394  0
55.140474715875293  26.932252474969491  28.964493476621023  0
33.192231590229653  21.194301680635924  11.452443475097978  0
23.247454542443172  29.075155804658259  12.470980285972548  0
30.045870149085122  22.653089643653388  28.571347314143559  0
36.535737562563135  20.302312679795019  28.583298277163866  0
21.054612850312225  33.591232119319237  8.6670290882426269  0
59.18751697455383  34.357377174468553  11.748346825945994  0
52.68690099281595  24.53899928211354  11.81551047717462  0
46.796272770042009  21.190144167612942  11.509986319142024  0
58.609949498233007  32.674033874415116  28.702146344686426  0
27.288541009091425  24.559183625130132  11.557517598324431  0
56.73169045154966  29.043242512790478  13.53792669090446  0
43.454884481250495  20.300665665530357  28.606099926983084  0
49.929527189194815  22.638995138557188  28.699114473693257  0
46.78577684404646  58.813644852149274  12.381017282679721  0
41.046289724030395  59.972613194406691  25.391903820202824  0
51.809801103602275  56.140898298835616  25.561684920848723  0
21.495573758962468  47.588557800399343  11.418713824016255  0
56.16513352258616  51.776606395603153  15.385148718427541  0
55.633398650021235  52.473846505770155  31.72593023507407  0
58.590512183203671  47.37515130462797  29.412520876030623  0
34.831677358632795  59.320673929103279  14.127287492263278  0
20.876875783907124  45.857142666512587  28.464802093910492  0
25.173103994250006  53.422486909461853  10.296374176614272  0
24.007698996943276  52.010258474638711  27.832069663667909  0
29.068510597395289  56.7482100369186  24.638142167270654  0
59.144791034321358  45.785929160659379  12.113573730903127  0
52.402662056175267  55.689932247154871  8.8875456158348154  0
40.457100502935795  59.994775795947696  8.6506580686046419  0
29.701425819486726  57.144660097198354  8.1781201111100952  0
34.818324220104969  59.317096989766583  32.023364717843698  0
46.787191470508525  58.813134559202418  30.555816853491379  0
Triangles
1294
43 30 29  1
30 42 31  1
43 29 44  1
34 39 38  1
39 34 33  1
35 38 37  1
35 37 36  1
32 40 33  1
30 43 42  1
31 41 32  1
28 44 29  1
41 31 42  1
38 35 34  1
1 36 37  1
39 33 40  1
36 1 2  1
40 32 41  1
47 25 48  1
48 24 49  1
45 27 46  1
47 26 25  1
44 28 45  1
50 22 51  1
23 50 49  1
51 21 4  1
50 23 22  1
21 51 22  1
27 45 28  1
26 47 46  1
46 27 26  1
24 48 25  1
4 21 3  1
49 24 23  1
57 58 311  2
311 312 54  2
312 311 59  2
311 6 5  2
312 59 60  2
312 52 53  2
53 54 312  2
59 311 58  2
6 311 56  2
61 2 52  2
56 311 55  2
311 54 55  2
311 5 57  2
2 61 1  2
61 52 312  2
61 312 60  2
88 65 66  3
65 88 89  3
67 86 87  3
92 62 91  3
90 63 64  3
70 84 69  3
63 91 62  3
87 66 67  3
62 92 6  3
63 90 91  3
89 64 65  3
86 67 68  3
64 89 90  3
6 92 5  3
68 85 86  3
66 87 88  3
85 69 84  3
83 71 82  3
73 81 72  3
82 72 81  3
81 73 80  3
84 70 83  3
74 80 73  3
79 75 78  3
77 8 7  3
80 74 79  3
78 76 77  3
69 85 68  3
71 83 70  3
72 82 71  3
75 79 74  3
76 78 75  3
8 77 76  3
4 3 94  4
94 93 7  4
93 94 3  4
7 93 8  4
122 319 316  5
322 321 314  5
314 105 106  5
123 329 319  5
116 326 323  5
95 132 9  5
127 315 126  5
128 315 127  5
119 322 118  5
95 328 132  5
327 324 315  5
330 100 101  5
126 324 125  5
12 131 130  5
125 329 124  5
313 328 327  5
100 330 318  5
130 313 129  5
327 315 313  5
129 313 128  5
329 125 324  5
330 324 318  5
131 328 313  5
105 321 104  5
122 316 121  5
325 109 110  5
320 107 108  5
325 111 112  5
114 323 113  5
114 113 11  5
323 114 115  5
326 325 323  5
111 325 110  5
324 330 329  5
107 320 314  5
104 317 103  5
316 119 120  5
321 322 316  5
109 325 320  5
112 111 10  5
313 130 131  5
328 131 132  5
106 107 314  5
322 314 320  5
315 128 313  5
98 327 97  5
104 321 317  5
316 120 121  5
102 330 101  5
102 103 317  5
318 98 99  5
99 100 318  5
319 321 316  5
319 122 123  5
320 108 109  5
320 326 322  5
321 319 317  5
321 105 314  5
118 326 117  5
322 119 316  5
323 112 113  5
323 115 116  5
324 126 315  5
324 327 318  5
325 112 323  5
325 326 320  5
326 116 117  5
326 118 322  5
97 328 96  5
327 98 318  5
328 95 96  5
328 97 327  5
319 330 317  5
329 123 124  5
330 102 317  5
330 319 329  5
348 338 333  6
347 336 344  6
155 335 332  6
150 345 112  6
143 331 142  6
341 335 331  6
341 332 335  6
151 345 150  6
155 332 154  6
343 340 345  6
332 341 334  6
346 158 159  6
334 343 332  6
150 112 10  6
147 340 334  6
145 341 144  6
11 113 149  6
113 345 340  6
149 340 148  6
334 145 146  6
141 348 140  6
143 341 331  6
139 348 333  6
344 137 333  6
139 333 138  6
347 344 339  6
131 337 132  6
336 133 134  6
133 336 131  6
133 131 12  6
161 338 160  6
166 337 165  6
132 166 9  6
342 156 157  6
338 339 333  6
338 348 346  6
161 339 338  6
339 161 162  6
135 344 336  6
163 347 339  6
141 142 331  6
156 342 335  6
153 343 152  6
153 154 332  6
137 344 136  6
137 138 333  6
146 147 334  6
343 334 340  6
335 155 156  6
331 335 342  6
165 347 164  6
336 134 135  6
337 166 132  6
337 131 336  6
158 346 342  6
159 160 338  6
162 163 339  6
339 344 333  6
340 147 148  6
340 149 113  6
341 143 144  6
341 145 334  6
342 157 158  6
331 342 346  6
343 151 152  6
343 153 332  6
336 347 337  6
344 135 136  6
345 113 112  6
345 151 343  6
346 159 338  6
346 348 331  6
347 163 164  6
347 165 337  6
348 139 140  6
348 141 331  6
354 174 175  7
359 184 185  7
177 360 358  7
195 364 194  7
190 356 189  7
167 204 13  7
349 198 199  7
352 200 201  7
191 361 350  7
167 355 204  7
169 355 168  7
172 363 362  7
198 353 197  7
16 203 202  7
170 366 169  7
352 366 349  7
363 172 173  7
202 352 201  7
169 366 355  7
200 352 349  7
353 363 357  7
196 357 195  7
352 202 203  7
176 358 354  7
358 350 361  7
181 365 180  7
365 179 180  7
184 359 351  7
186 359 185  7
186 185 15  7
351 359 356  7
189 356 188  7
183 351 182  7
174 363 173  7
179 365 360  7
176 354 175  7
361 191 192  7
364 363 354  7
182 351 181  7
184 183 14  7
199 200 349  7
366 353 349  7
179 360 178  7
350 190 191  7
351 183 184  7
365 181 351  7
203 355 352  7
353 366 362  7
197 357 196  7
353 198 349  7
194 361 193  7
194 364 361  7
355 203 204  7
355 167 168  7
188 359 187  7
356 190 350  7
357 197 353  7
363 353 362  7
358 176 177  7
350 365 356  7
359 186 187  7
359 188 356  7
350 358 360  7
360 177 178  7
361 192 193  7
364 354 358  7
362 170 171  7
171 172 362  7
363 174 354  7
363 364 357  7
358 361 364  7
364 195 357  7
351 356 365  7
365 350 360  7
366 352 355  7
366 170 362  7
373 368 370  8
235 380 369  8
368 373 372  8
222 382 184  8
370 213 214  8
225 381 367  8
381 384 367  8
225 367 224  8
377 374 370  8
223 382 222  8
367 384 378  8
229 374 228  8
378 219 220  8
222 184 14  8
219 384 218  8
370 383 377  8
15 185 221  8
185 382 378  8
221 378 220  8
217 384 383  8
213 370 368  8
215 383 370  8
213 368 212  8
371 380 375  8
209 379 376  8
380 371 376  8
237 380 236  8
371 205 206  8
205 371 203  8
205 203 16  8
379 369 376  8
238 375 237  8
204 238 13  8
373 370 374  8
372 379 368  8
231 373 230  8
233 372 232  8
369 233 234  8
207 376 371  8
380 376 369  8
384 381 383  8
367 223 224  8
211 379 210  8
211 212 368  8
234 235 369  8
209 376 208  8
370 214 215  8
377 228 374  8
203 375 204  8
371 206 207  8
372 231 232  8
372 233 369  8
230 374 229  8
373 231 372  8
228 377 227  8
374 230 373  8
375 238 204  8
375 203 371  8
376 207 208  8
369 379 372  8
217 383 216  8
227 381 226  8
378 221 185  8
367 378 382  8
379 209 210  8
379 211 368  8
380 235 236  8
380 237 375  8
381 225 226  8
381 227 377  8
382 185 184  8
382 223 367  8
381 377 383  8
383 215 216  8
384 217 218  8
384 219 378  8
470 170 475  9
455 179 443  9
467 435 487  9
2 457 52  9
463 257 256  9
108 484 109  9
394 253 252  9
399 159 158  9
479 168 167  9
492 226 225  9
473 23 22  9
163 461 402  9
447 428 386  9
398 237 236  9
76 473 93  9
232 429 233  9
21 473 22  9
260 433 261  9
409 457 456  9
265 421 266  9
445 468 32  9
272 417 437  9
448 468 435  9
155 493 156  9
493 155 445  9
445 32 31  9
161 461 162  9
163 402 164  9
400 399 397  9
390 400 397  9
157 399 158  9
399 400 159  9
402 165 164  9
449 223 222  9
449 224 223  9
468 478 435  9
103 406 396  9
465 467 442  9
272 437 17  9
239 450 240  9
268 454 441  9
270 441 417  9
454 266 421  9
270 417 271  9
266 454 267  9
434 421 34  9
441 270 269  9
264 414 265  9
262 261 433  9
53 463 54  9
260 456 433  9
264 444 414  9
477 35 444  9
444 264 263  9
490 258 257  9
490 259 258  9
490 456 259  9
463 18 452  9
250 415 251  9
452 18 255  9
55 452 403  9
18 463 256  9
423 105 396  9
450 460 453  9
446 247 246  9
481 446 245  9
446 481 474  9
242 426 243  9
460 465 442  9
64 460 65  9
394 254 253  9
254 452 255  9
252 415 394  9
415 252 251  9
62 395 63  9
249 395 424  9
481 426 411  9
432 473 388  9
6 486 62  9
247 446 395  9
250 424 415  9
179 455 180  9
165 466 166  9
68 485 404  9
100 416 101  9
416 100 404  9
102 416 406  9
99 488 404  9
485 406 416  9
440 108 107  9
106 440 107  9
103 396 104  9
104 396 105  9
453 393 450  9
150 487 151  9
10 480 467  9
484 108 440  9
408 66 65  9
240 450 393  9
467 150 10  9
183 425 14  9
464 96 439  9
97 488 98  9
405 488 464  9
385 458 455  9
466 439 9  9
169 475 170  9
176 491 482  9
431 422 470  9
475 169 412  9
422 172 470  9
73 431 410  9
171 470 172  9
174 422 491  9
174 491 175  9
176 418 177  9
178 443 179  9
176 482 418  9
385 405 392  9
419 425 183  9
443 178 418  9
455 419 181  9
153 478 391  9
154 153 391  9
418 178 177  9
410 473 74  9
473 21 93  9
3 93 21  9
8 76 93  9
25 427 389  9
412 479 451  9
412 169 168  9
466 9 166  9
492 227 226  9
96 464 97  9
407 438 430  9
428 462 386  9
436 492 447  9
28 447 386  9
472 231 230  9
492 436 227  9
229 472 230  9
233 429 234  9
231 420 232  9
237 401 238  9
401 13 238  9
429 232 420  9
235 398 236  9
389 483 429  9
472 489 27  9
231 472 420  9
29 413 390  9
23 473 432  9
385 70 69  9
488 97 464  9
29 28 386  9
428 225 224  9
458 425 419  9
439 466 438  9
74 473 75  9
424 250 249  9
235 483 398  9
389 26 25  9
159 400 160  9
30 29 390  9
33 468 448  9
391 155 154  9
392 407 387  9
387 385 392  9
393 242 241  9
241 240 393  9
486 424 62  9
394 452 254  9
248 247 395  9
64 474 411  9
67 423 396  9
105 423 106  9
397 31 30  9
30 390 397  9
483 234 429  9
476 401 398  9
31 493 445  9
31 397 399  9
400 461 161  9
161 160 400  9
401 237 398  9
401 476 388  9
461 163 162  9
413 29 386  9
486 6 56  9
56 55 403  9
100 99 404  9
68 405 69  9
405 385 69  9
405 68 404  9
67 396 406  9
406 103 102  9
413 462 430  9
387 459 425  9
110 480 111  9
110 484 480  9
53 52 409  9
259 456 260  9
401 479 13  9
410 74 73  9
426 481 244  9
426 242 393  9
168 479 412  9
410 451 388  9
407 462 459  9
402 390 413  9
35 414 444  9
35 421 414  9
424 486 415  9
394 486 403  9
406 485 67  9
416 102 101  9
33 434 34  9
152 487 478  9
482 443 418  9
482 70 443  9
419 183 182  9
182 181 419  9
472 27 26  9
26 389 420  9
421 265 414  9
421 35 34  9
422 431 72  9
72 71 422  9
423 67 66  9
66 408 423  9
395 249 248  9
395 62 424  9
222 14 425  9
425 458 387  9
426 453 411  9
426 244 243  9
427 25 24  9
432 476 427  9
224 449 428  9
462 413 386  9
420 389 429  9
234 483 235  9
402 466 165  9
402 413 430  9
410 475 412  9
431 73 72  9
432 427 24  9
24 23 432  9
456 490 409  9
262 444 263  9
434 448 441  9
268 441 269  9
478 468 391  9
417 272 271  9
436 229 228  9
228 227 436  9
239 17 437  9
471 465 437  9
438 407 392  9
9 439 95  9
438 392 439  9
439 96 95  9
440 106 423  9
423 408 440  9
454 421 434  9
441 448 417  9
484 440 408  9
465 460 450  9
70 482 71  9
70 385 443  9
444 262 433  9
35 477 36  9
156 493 157  9
445 155 391  9
395 474 63  9
446 246 245  9
447 28 27  9
436 447 489  9
465 471 469  9
448 434 33  9
449 222 425  9
459 387 407  9
453 426 393  9
450 239 437  9
401 388 451  9
451 410 412  9
452 394 403  9
452 55 54  9
460 442 408  9
460 64 411  9
434 441 454  9
454 268 267  9
181 180 455  9
455 443 385  9
457 409 52  9
477 456 457  9
457 2 36  9
456 477 433  9
419 455 458  9
458 385 387  9
449 462 428  9
449 425 459  9
408 65 460  9
460 411 453  9
461 400 390  9
390 402 461  9
462 449 459  9
462 407 430  9
452 54 463  9
463 53 409  9
464 439 392  9
392 405 464  9
465 450 437  9
469 467 465  9
466 402 430  9
430 438 466  9
480 484 442  9
467 469 435  9
468 33 32  9
468 445 391  9
448 471 417  9
448 435 469  9
172 422 173  9
470 475 431  9
437 417 471  9
471 448 469  9
26 420 472  9
472 229 436  9
473 76 75  9
473 410 388  9
474 64 63  9
474 395 446  9
475 410 431  9
170 470 171  9
476 483 427  9
476 432 388  9
444 433 477  9
477 457 36  9
478 153 152  9
478 487 435  9
167 13 479  9
479 401 451  9
442 467 480  9
480 10 111  9
411 474 481  9
481 245 244  9
422 174 173  9
71 491 422  9
483 389 427  9
483 476 398  9
408 442 484  9
484 110 109  9
416 404 485  9
485 68 67  9
486 56 403  9
486 394 415  9
487 152 151  9
487 150 467  9
488 405 404  9
488 99 98  9
447 27 489  9
489 472 436  9
257 463 490  9
463 409 490  9
491 71 482  9
491 176 175  9
225 428 492  9
428 447 492  9
493 31 399  9
399 157 493  9
20 592 289  10
509 522 519  10
190 551 189  10
587 524 579  10
600 563 513  10
559 117 547  10
567 292 293  10
77 94 7  10
604 505 197  10
584 49 50  10
199 604 198  10
192 530 191  10
606 46 47  10
136 605 588  10
286 498 562  10
584 51 94  10
1 568 61  10
40 600 513  10
306 583 522  10
579 144 501  10
496 552 215  10
555 281 527  10
563 500 513  10
144 579 143  10
579 543 142  10
518 543 524  10
518 138 139  10
605 136 137  10
138 605 137  10
42 587 41  10
140 518 139  10
504 566 536  10
528 130 12  10
511 43 44  10
566 575 531  10
146 538 501  10
538 149 517  10
563 600 569  10
545 597 278  10
273 583 19  10
502 562 508  10
545 278 279  10
277 597 541  10
544 513 500  10
274 583 273  10
513 544 541  10
39 513 499  10
568 562 498  10
286 562 285  10
562 502 284  10
502 282 283  10
281 555 280  10
280 555 545  10
284 502 283  10
282 527 281  10
608 287 288  10
608 286 287  10
289 608 288  10
592 20 523  10
295 558 521  10
523 20 290  10
517 607 548  10
507 554 519  10
509 302 303  10
554 301 302  10
89 599 497  10
301 554 510  10
507 519 90  10
529 291 292  10
57 542 514  10
514 558 92  10
558 295 296  10
529 290 291  10
290 529 523  10
507 582 564  10
564 300 510  10
596 549 582  10
91 507 90  10
292 567 529  10
5 514 92  10
574 125 572  10
595 550 87  10
593 574 572  10
126 572 125  10
572 127 537  10
576 506 525  10
127 572 126  10
123 574 550  10
123 550 122  10
550 121 122  10
547 117 118  10
117 559 116  10
118 570 547  10
121 550 539  10
121 539 120  10
517 149 11  10
553 497 547  10
607 114 115  10
522 583 578  10
149 538 148  10
306 522 305  10
607 517 114  10
130 594 129  10
504 15 186  10
189 526 188  10
187 504 186  10
202 556 201  10
200 556 512  10
195 577 194  10
505 604 546  10
505 546 520  10
505 577 195  10
80 589 503  10
589 604 512  10
530 551 190  10
192 577 530  10
504 526 525  10
504 525 506  10
551 576 525  10
526 551 525  10
82 577 520  10
80 503 79  10
194 577 193  10
577 192 193  10
77 584 94  10
51 584 50  10
515 202 16  10
556 202 515  10
528 603 575  10
588 134 135  10
534 217 218  10
15 536 221  10
220 536 516  10
46 495 45  10
552 213 214  10
215 552 214  10
580 44 45  10
217 534 496  10
602 208 565  10
211 494 210  10
211 533 494  10
209 565 208  10
208 602 207  10
206 602 573  10
573 16 205  10
603 528 133  10
533 552 46  10
511 560 43  10
213 552 533  10
213 533 212  10
565 209 494  10
584 598 49  10
94 51 4  10
209 210 494  10
46 606 533  10
496 215 216  10
44 580 531  10
216 217 496  10
580 496 534  10
497 88 89  10
304 522 509  10
60 592 59  10
60 61 498  10
39 591 38  10
277 541 276  10
147 148 538  10
583 274 544  10
501 144 145  10
145 146 501  10
502 557 527  10
37 557 508  10
16 573 515  10
79 584 78  10
128 594 537  10
594 128 129  10
505 195 196  10
196 197 505  10
576 586 506  10
536 15 504  10
299 549 298  10
299 564 549  10
562 284 285  10
568 498 61  10
303 304 509  10
497 607 559  10
300 564 299  10
300 301 510  10
588 603 134  10
136 588 135  10
199 200 512  10
540 589 512  10
276 544 275  10
513 39 40  10
582 507 91  10
514 5 57  10
535 598 581  10
581 573 535  10
219 534 218  10
219 220 516  10
11 114 517  10
548 578 561  10
518 524 560  10
42 560 524  10
89 90 519  10
554 507 510  10
604 197 198  10
82 546 81  10
521 293 294  10
294 295 521  10
599 548 497  10
522 304 305  10
514 567 521  10
58 59 523  10
543 518 140  10
543 579 524  10
532 576 551  10
586 576 585  10
526 504 187  10
187 188 526  10
527 282 502  10
557 555 527  10
12 133 528  10
566 516 536  10
567 293 521  10
523 542 58  10
190 191 530  10
530 577 532  10
511 44 531  10
516 580 534  10
577 82 83  10
83 84 532  10
533 606 494  10
533 211 212  10
534 219 516  10
496 580 495  10
540 556 515  10
206 573 205  10
516 566 531  10
536 220 221  10
537 127 128  10
528 594 130  10
563 578 500  10
538 146 147  10
119 120 539  10
550 595 539  10
515 581 540  10
584 540 581  10
597 545 499  10
499 513 541  10
542 57 58  10
542 523 529  10
543 140 141  10
141 142 543  10
544 274 275  10
544 276 541  10
279 280 545  10
591 39 499  10
546 589 81  10
546 82 520  10
570 118 119  10
497 553 88  10
599 578 548  10
517 548 561  10
296 596 558  10
297 298 549  10
601 593 86  10
87 601 86  10
551 526 189  10
551 530 532  10
552 496 495  10
495 46 552  10
570 119 539  10
88 595 87  10
554 302 509  10
509 519 554  10
557 591 555  10
545 591 499  10
556 540 512  10
556 200 201  10
557 502 508  10
557 37 38  10
91 92 558  10
558 514 521  10
115 116 559  10
559 547 497  10
560 42 43  10
518 605 138  10
578 599 522  10
517 569 538  10
498 286 608  10
562 568 508  10
501 600 587  10
561 563 569  10
510 507 564  10
564 582 549  10
565 606 590  10
565 590 535  10
566 504 506  10
571 528 575  10
567 514 542  10
542 529 567  10
568 1 37  10
37 508 568  10
538 600 501  10
569 517 561  10
595 88 553  10
553 547 570  10
506 575 566  10
537 586 585  10
85 593 585  10
125 574 124  10
573 602 535  10
573 581 515  10
593 601 574  10
574 123 124  10
575 511 531  10
575 506 571  10
576 532 84  10
84 85 576  10
577 505 520  10
577 83 532  10
583 306 19  10
578 563 561  10
587 42 524  10
579 142 143  10
45 495 580  10
580 516 531  10
598 590 48  10
540 584 503  10
91 558 582  10
549 596 297  10
583 544 500  10
500 578 583  10
584 77 78  10
584 79 503  10
576 85 585  10
585 572 537  10
586 594 571  10
571 506 586  10
579 501 587  10
41 600 40  10
588 605 511  10
511 575 588  10
589 540 503  10
589 80 81  10
47 48 590  10
590 598 535  10
591 545 555  10
591 557 38  10
523 59 592  10
592 60 498  10
572 585 593  10
593 85 86  10
594 528 571  10
594 586 537  10
595 553 570  10
570 539 595  10
582 558 596  10
596 296 297  10
499 541 597  10
597 277 278  10
48 49 598  10
598 584 581  10
599 89 519  10
519 522 599  10
600 41 587  10
600 538 569  10
601 87 550  10
550 574 601  10
565 535 602  10
602 206 207  10
133 134 603  10
603 588 575  10
604 199 512  10
604 589 546  10
605 518 560  10
560 511 605  10
47 590 606  10
606 565 494  10
115 559 607  10
607 497 548  10
608 289 592  10
592 498 608  10
262 613 261  11
609 289 308  11
275 621 274  11
287 610 286  11
288 609 287  11
256 617 307  11
609 617 614  11
610 622 615  11
286 610 285  11
259 614 258  11
265 611 264  11
610 287 609  11
256 307 18  11
283 616 282  11
613 263 611  11
20 308 289  11
613 616 615  11
289 609 288  11
281 624 280  11
279 625 278  11
616 613 611  11
622 610 614  11
620 625 624  11
277 625 612  11
623 269 270  11
618 270 271  11
625 279 624  11
309 618 310  11
621 618 309  11
273 621 309  11
19 273 309  11
263 613 262  11
620 267 619  11
265 620 611  11
625 277 278  11
612 619 623  11
17 310 272  11
272 618 271  11
269 619 268  11
269 623 619  11
609 308 307  11
617 609 307  11
259 622 614  11
285 615 284  11
263 264 611  11
624 279 280  11
612 275 276  11
276 277 612  11
615 622 613  11
261 622 260  11
610 609 614  11
258 617 257  11
615 283 284  11
615 285 610  11
616 281 282  11
616 283 615  11
617 256 257  11
617 258 614  11
618 272 310  11
621 623 618  11
267 620 266  11
267 268 619  11
611 624 616  11
620 265 266  11
621 273 274  11
621 275 612  11
622 259 260  11
622 261 613  11
623 270 618  11
623 621 612  11
624 281 616  11
624 611 620  11
625 620 619  11
619 612 625  11
254 629 253  12
246 626 245  12
255 629 254  12
298 642 297  12
239 310 17  12
299 627 298  12
309 638 632  12
632 638 630  12
249 641 633  12
239 638 310  12
628 631 630  12
244 639 243  12
242 639 630  12
19 309 306  12
304 632 631  12
628 301 302  12
306 632 305  12
301 643 300  12
302 631 628  12
632 304 305  12
643 626 627  12
294 636 293  12
641 249 250  12
633 248 249  12
637 641 635  12
626 643 628  12
253 635 252  12
292 636 634  12
307 634 629  12
290 634 308  12
20 290 308  12
629 636 635  12
638 241 630  12
246 640 626  12
252 635 251  12
248 640 247  12
295 642 637  12
627 640 633  12
307 255 18  12
637 635 636  12
299 643 627  12
626 244 245  12
640 246 247  12
297 642 296  12
242 630 241  12
639 242 243  12
629 255 307  12
292 634 291  12
241 638 240  12
628 639 626  12
631 302 303  12
303 304 631  12
630 631 632  12
632 306 309  12
294 637 636  12
642 633 637  12
634 307 308  12
634 290 291  12
251 641 250  12
635 253 629  12
636 629 634  12
636 292 293  12
637 294 295  12
633 642 627  12
638 309 310  12
638 239 240  12
639 244 626  12
639 628 630  12
640 248 633  12
640 627 626  12
641 251 635  12
641 637 633  12
642 295 296  12
642 298 627  12
643 299 300  12
643 301 628  12
Edges
320
1 2  1
3 21  2
21 22  2
22 23  2
23 24  2
24 25  2
25 26  2
26 27  2
27 28  2
28 29  2
29 30  2
30 31  2
31 32  2
32 33  2
33 34  2
34 35  2
35 36  2
36 2  2
4 3  3
1 37  4
37 38  4
38 39  4
39 40  4
40 41  4
41 42  4
42 43  4
43 44  4
44 45  4
45 46  4
46 47  4
47 48  4
48 49  4
49 50  4
50 51  4
51 4  4
5 6  5
2 52  6
52 53  6
53 54  6
54 55  6
55 56  6
56 6  6
5 57  7
57 58  7
58 59  7
59 60  7
60 61  7
61 1  7
7 8  8
6 62  9
62 63  9
63 64  9
64 65  9
65 66  9
66 67  9
67 68  9
68 69  9
69 70  9
70 71  9
71 72  9
72 73  9
73 74  9
74 75  9
75 76  9
76 8  9
7 77  10
77 78  10
78 79  10
79 80  10
80 81  10
81 82  10
82 83  10
83 84  10
84 85  10
85 86  10
86 87  10
87 88  10
88 89  10
89 90  10
90 91  10
91 92  10
92 5  10
8 93  11
93 3  11
4 94  12
94 7  12
9 95  13
95 96  13
96 97  13
97 98  13
98 99  13
99 100  13
100 101  13
101 102  13
102 103  13
103 104  13
104 105  13
105 106  13
106 107  13
107 108  13
108 109  13
109 110  13
110 111  13
111 10  13
10 112  14
112 113  14
113 11  14
11 114  15
114 115  15
115 116  15
116 117  15
117 118  15
118 119  15
119 120  15
120 121  15
121 122  15
122 123  15
123 124  15
124 125  15
125 126  15
126 127  15
127 128  15
128 129  15
129 130  15
130 12  15
12 131  16
131 132  16
132 9  16
12 133  17
133 134  17
134 135  17
135 136  17
136 137  17
137 138  17
138 139  17
139 140  17
140 141  17
141 142  17
142 143  17
143 144  17
144 145  17
145 146  17
146 147  17
147 148  17
148 149  17
149 11  17
10 150  18
150 151  18
151 152  18
152 153  18
153 154  18
154 155  18
155 156  18
156 157  18
157 158  18
158 159  18
159 160  18
160 161  18
161 162  18
162 163  18
163 164  18
164 165  18
165 166  18
166 9  18
13 167  19
167 168  19
168 169  19
169 170  19
170 171  19
171 172  19
172 173  19
173 174  19
174 175  19
175 176  19
176 177  19
177 178  19
178 179  19
179 180  19
180 181  19
181 182  19
182 183  19
183 14  19
14 184  20
184 185  20
185 15  20
15 186  21
186 187  21
187 188  21
188 189  21
189 190  21
190 191  21
191 192  21
192 193  21
193 194  21
194 195  21
195 196  21
196 197  21
197 198  21
198 199  21
199 200  21
200 201  21
201 202  21
202 16  21
16 203  22
203 204  22
204 13  22
16 205  23
205 206  23
206 207  23
207 208  23
208 209  23
209 210  23
210 211  23
211 212  23
212 213  23
213 214  23
214 215  23
215 216  23
216 217  23
217 218  23
218 219  23
219 220  23
220 221  23
221 15  23
14 222  24
222 223  24
223 224  24
224 225  24
225 226  24
226 227  24
227 228  24
228 229  24
229 230  24
230 231  24
231 232  24
232 233  24
233 234  24
234 235  24
235 236  24
236 237  24
237 238  24
238 13  24
17 239  25
239 240  25
240 241  25
241 242  25
242 243  25
243 244  25
244 245  25
245 246  25
246 247  25
247 248  25
248 249  25
249 250  25
250 251  25
251 252  25
252 253  25
253 254  25
254 255  25
255 18  25
18 256  26
256 257  26
257 258  26
258 259  26
259 260  26
260 261  26
261 262  26
262 263  26
263 264  26
264 265  26
265 266  26
266 267  26
267 268  26
268 269  26
269 270  26
270 271  26
271 272  26
272 17  26
19 273  27
273 274  27
274 275  27
275 276  27
276 277  27
277 278  27
278 279  27
279 280  27
280 281  27
281 282  27
282 283  27
283 284  27
284 285  27
285 286  27
286 287  27
287 288  27
288 289  27
289 20  27
20 290  28
290 291  28
291 292  28
292 293  28
293 294  28
294 295  28
295 296  28
296 297  28
297 298  28
298 299  28
299 300  28
300 301  28
301 302  28
302 303  28
303 304  28
304 305  28
305 306  28
306 19  28
18 307  29
307 308  29
308 20  29
19 309  30
309 310  30
310 17  30
End
