MeshVersionFormatted 1

Dimension
3

Vertices
237
0  0  40  0
0  0  0  0
320  0  0  0
320  0  40  0
0  80  40  0
0  80  0  0
320  80  40  0
320  80  0  0
60  40  0  0
20  40  0  0
60  40  40  0
20  40  40  0
295.38461538461536  0  0  0
270.76923076923077  0  0  0
246.15384615384613  0  0  0
221.53846153846155  0  0  0
196.92307692307691  0  0  0
172.30769230769229  0  0  0
147.69230769230768  0  0  0
123.07692307692307  0  0  0
98.461538461538453  0  0  0
73.84615384615384  0  0  0
49.230769230769212  0  0  0
24.615384615384585  0  0  0
26.666666666666657  0  40  0
53.333333333333343  0  40  0
80  0  40  0
106.66666666666667  0  40  0
133.33333333333334  0  40  0
160  0  40  0
186.66666666666669  0  40  0
213.33333333333334  0  40  0
240  0  40  0
266.66666666666669  0  40  0
293.33333333333337  0  40  0
0  16  0  0
0  32  0  0
0  48  0  0
0  64  0  0
0  64  40  0
0  48  40  0
0  32  40  0
0  16  40  0
32  80  0  0
64  80  0  0
96  80  0  0
128  80  0  0
160  80  0  0
192  80  0  0
224  80  0  0
256  80  0  0
288  80  0  0
290.90909090909088  80  40  0
261.81818181818181  80  40  0
232.72727272727275  80  40  0
203.63636363636363  80  40  0
174.54545454545456  80  40  0
145.45454545454547  80  40  0
116.36363636363637  80  40  0
87.27272727272728  80  40  0
58.181818181818187  80  40  0
29.090909090909093  80  40  0
59.696155060244159  43.472963553338609  0  0
58.79385241571817  46.840402866513372  0  0
57.320508075688778  50  0  0
55.320888862379562  52.855752193730787  0  0
52.855752193730787  55.320888862379562  0  0
50  57.320508075688771  0  0
46.840402866513379  58.793852415718163  0  0
43.472963553338609  59.696155060244159  0  0
40  60  0  0
36.527036446661391  59.696155060244159  0  0
33.159597133486628  58.79385241571817  0  0
30.000000000000004  57.320508075688778  0  0
27.144247806269213  55.320888862379562  0  0
24.679111137620442  52.855752193730794  0  0
22.679491924311225  50  0  0
21.206147584281833  46.840402866513379  0  0
20.303844939755841  43.472963553338616  0  0
20.303844939755837  36.527036446661398  0  0
21.20614758428183  33.159597133486628  0  0
22.679491924311222  30.000000000000004  0  0
24.679111137620438  27.144247806269213  0  0
27.14424780626921  24.679111137620442  0  0
29.999999999999993  22.679491924311233  0  0
33.159597133486628  21.20614758428183  0  0
36.527036446661391  20.303844939755841  0  0
39.999999999999993  20  0  0
43.472963553338602  20.303844939755837  0  0
46.840402866513365  21.20614758428183  0  0
50  22.679491924311229  0  0
52.855752193730787  24.679111137620438  0  0
55.320888862379554  27.144247806269206  0  0
57.320508075688764  29.999999999999993  0  0
58.79385241571817  33.159597133486628  0  0
59.696155060244159  36.527036446661391  0  0
59.696155060244159  36.527036446661391  40  0
58.79385241571817  33.159597133486628  40  0
57.320508075688778  30  40  0
55.320888862379562  27.144247806269213  40  0
52.855752193730787  24.679111137620438  40  0
50  22.679491924311229  40  0
46.840402866513379  21.206147584281833  40  0
43.472963553338609  20.303844939755841  40  0
40  20  40  0
36.527036446661391  20.303844939755841  40  0
33.159597133486628  21.20614758428183  40  0
30.000000000000004  22.679491924311225  40  0
27.144247806269213  24.679111137620438  40  0
24.679111137620442  27.14424780626921  40  0
22.679491924311225  30  40  0
21.206147584281833  33.159597133486621  40  0
20.303844939755841  36.527036446661384  40  0
20.303844939755837  43.472963553338602  40  0
21.20614758428183  46.840402866513372  40  0
22.679491924311222  50  40  0
24.679111137620438  52.855752193730787  40  0
27.14424780626921  55.320888862379562  40  0
29.999999999999993  57.320508075688764  40  0
33.159597133486628  58.79385241571817  40  0
36.527036446661391  59.696155060244159  40  0
39.999999999999993  60  40  0
43.472963553338602  59.696155060244166  40  0
46.840402866513365  58.79385241571817  40  0
50  57.320508075688771  40  0
52.855752193730787  55.320888862379562  40  0
55.320888862379554  52.855752193730794  40  0
57.320508075688764  50.000000000000007  40  0
58.79385241571817  46.840402866513372  40  0
59.696155060244159  43.472963553338609  40  0
20  40  13.333333333333334  0
20  40  26.666666666666668  0
60  40  26.666666666666664  0
60  40  13.333333333333332  0
63.231244079981991  14.568344507420518  0  0
72.983667665610938  44.54987757518731  0  0
15.003403531067049  13.89091428836759  0  0
50.352647263035912  17.684443971260038  0  0
64.315378079813101  42.235841809343867  0  0
11.403799815342971  54.49944645725202  0  0
66.172060998062491  36.264343135351737  0  0
39.003134417655012  13.525448094023297  0  0
77.354958307531362  32.996002193283559  0  0
58.289174942056285  24.515614291290003  0  0
61.30625245803612  31.143631356445439  0  0
67.721243537360749  26.385483609717557  0  0
28.793733409930852  16.39925702120221  0  0
21.068600807674052  55.753000833494802  0  0
99.915544479869396  38.955127645559145  0  0
23.113993110400155  23.217374700569881  0  0
63.635676084628912  54.223519419916641  0  0
45.331390264120628  66.296193965002701  0  0
15.380176356302139  66.110739761003543  0  0
13.36807537325523  27.796233880050103  0  0
8.6375853083405012  37.679341947085568  0  0
62.777190045816532  46.888131636528193  0  0
35.788573347052811  64.532023756784312  0  0
80.066893568773793  18.819005245281939  0  0
13.567126559179393  44.16196634207008  0  0
16.191188801052789  36.536988995050166  0  0
18.375937799462644  49.104293664664532  0  0
55.353879672954704  61.089304126302281  0  0
64.946021411996099  63.89814168413357  0  0
76.892593944317198  60.272759517758658  0  0
146.61112783699096  33.94158432610665  0  0
195.39152904466778  38.61716465986806  0  0
27.791542659837607  62.521745898156993  0  0
249.67481458056713  34.838092837656426  0  0
40.933685763864773  66.786899650663685  40  0
41.385811936609919  11.956607540255765  40  0
92.069141190366878  59.044025262764862  40  0
50.834510987207715  16.085335964885822  40  0
62.447644310007043  52.112208438413809  40  0
26.543689923336284  17.937776280111571  40  0
84.098477764134017  22.766890408933836  40  0
24.498459179703811  57.801531487476645  40  0
15.40288464250211  46.598734757587295  40  0
34.047278199098912  15.247250488461669  40  0
30.01596901449286  63.575020614596262  40  0
16.056474347275653  64.560001103774198  40  0
68.940766437156284  36.872863402432046  40  0
14.26986245470713  38.958665448885718  40  0
19.158864762826081  53.151211513493514  40  0
87.336284550595295  41.611479030924087  40  0
49.398244374779239  64.517399054820174  40  0
16.164613227900492  30.335257926676487  40  0
57.902284297379559  57.550561437632524  40  0
13.015741717644575  17.241756048575471  40  0
64.67336980198624  14.5435847423516  40  0
57.056371171632975  64.522234589630301  40  0
7.8674306563142293  43.785047335433767  40  0
74.090898814317839  49.601816164812149  40  0
69.846320493633641  63.249416302264578  40  0
63.610980210160058  26.610768877318275  40  0
117.55157934664629  39.85152933436801  40  0
21.709109354983262  24.538764938758085  40  0
9.7254961509864106  53.355726906196878  40  0
241.97210968714725  39.495977088360654  40  0
56.209540024323566  21.932607665781457  40  0
63.977683347141813  44.798465636773606  40  0
175.15770018687891  35.470637560304233  40  0
55.286818365255556  27.103753093721981  28.639044814439966  0
36.530969080337748  20.303151915130499  8.5425401940323091  0
29.828612219963091  22.779579835900755  28.433498335120625  0
43.686579002907607  20.342707835123356  28.419261398135042  0
50.04762065799833  22.707073147874439  28.591241732149996  0
27.009322371628585  24.793347023235835  11.615990882484871  0
20.553884816487908  35.325750940570181  13.398978946638014  0
21.275983935033281  32.970688341034503  28.63694046272424  0
36.532370568666906  20.302905134844057  26.294823434275724  0
59.444319594229498  35.318287117147946  13.395740509127648  0
32.023165270720824  21.659604483496938  12.482250421136467  0
58.719432786754368  32.95849191279413  28.634529163304919  0
24.67992735160917  27.143275143022343  28.635176501236593  0
22.769890770531383  29.845033927157594  11.755737373946589  0
47.043449660995151  21.281297671231926  11.570545167212419  0
57.212398727814403  29.815043935552147  11.739528188126197  0
52.85654094084569  24.679773009633351  11.506152994311028  0
41.237402062722744  20.038315799132342  12.472269750641116  0
58.590512183203671  47.37515130462797  29.412520876030623  0
52.402662056175274  55.689932247154864  8.8875456158348154  0
46.787191470508525  58.813134559202418  30.555816853491379  0
40.457100502935795  59.994775795947696  8.6506580686046437  0
55.633398650021235  52.473846505770155  31.72593023507407  0
20.876875783907124  45.857142666512587  28.464802093910492  0
34.818324220104969  59.317096989766583  32.023364717843698  0
56.16513352258616  51.776606395603153  15.385148718427542  0
24.007698996943276  52.010258474638711  27.832069663667909  0
34.831677358632788  59.320673929103279  14.127287492263278  0
25.173103994250013  53.422486909461867  10.29637417661427  0
21.495573758962475  47.58855780039935  11.418713824016255  0
29.701425819486726  57.144660097198354  8.1781201111100952  0
29.068510597395282  56.748210036918593  24.638142167270651  0
41.046289724030387  59.972613194406691  25.391903820202824  0
59.144791034321358  45.785929160659379  12.113573730903127  0
51.809801103602275  56.140898298835616  25.561684920848723  0
46.785776844046453  58.813644852149281  12.381017282679721  0
Triangles
474
16 33 32  1
17 32 31  1
33 16 15  1
28 20 29  1
25 23 26  1
24 1 2  1
18 31 30  1
23 25 24  1
21 27 22  1
19 29 20  1
1 24 25  1
29 19 30  1
26 22 27  1
27 21 28  1
31 18 17  1
22 26 23  1
20 28 21  1
4 13 3  1
35 14 13  1
15 34 33  1
13 4 35  1
30 19 18  1
32 17 16  1
14 35 34  1
34 15 14  1
37 42 43  2
42 37 38  2
37 43 36  2
42 38 41  2
2 43 1  2
43 2 36  2
40 39 5  2
38 40 41  2
39 40 38  2
5 39 6  2
58 48 57  3
49 56 57  3
47 58 59  3
53 8 7  3
60 45 46  3
49 57 48  3
59 46 47  3
45 60 61  3
46 59 60  3
44 61 62  3
56 50 55  3
61 44 45  3
62 6 44  3
52 54 51  3
54 52 53  3
56 49 50  3
6 62 5  3
55 51 54  3
51 55 50  3
8 53 52  3
48 58 47  3
4 3 7  4
7 3 8  4
166 48 165  5
168 50 166  5
162 68 67  5
81 154 82  5
21 158 22  5
165 149 20  5
16 166 17  5
166 165 18  5
16 168 166  5
10 160 80  5
96 145 141  5
2 137 36  5
144 146 145  5
18 165 19  5
158 146 135  5
138 142 23  5
141 9 96  5
147 142 87  5
138 89 142  5
90 138 91  5
138 144 92  5
137 154 36  5
87 142 88  5
147 87 86  5
142 147 24  5
89 138 90  5
154 155 37  5
82 150 83  5
160 159 155  5
81 160 154  5
92 144 93  5
145 94 144  5
159 10 79  5
159 160 10  5
156 63 139  5
136 156 139  5
9 141 139  5
162 69 68  5
69 152 70  5
149 164 136  5
151 164 163  5
66 162 67  5
79 161 159  5
161 77 148  5
162 152 69  5
77 161 78  5
148 167 153  5
140 153 39  5
157 71 152  5
167 75 74  5
65 156 151  5
167 148 75  5
44 153 167  5
152 162 45  5
72 157 73  5
149 136 143  5
48 166 49  5
168 16 15  5
50 168 51  5
13 168 14  5
36 154 37  5
85 147 86  5
13 8 52  5
8 13 3  5
94 145 95  5
135 23 22  5
46 149 47  5
139 141 136  5
137 2 24  5
85 150 147  5
23 135 138  5
138 92 91  5
63 156 64  5
63 9 139  5
73 167 74  5
39 38 140  5
146 144 135  5
141 143 136  5
89 88 142  5
140 159 161  5
152 45 44  5
158 135 22  5
94 93 144  5
144 138 135  5
141 146 143  5
145 96 95  5
146 158 143  5
146 141 145  5
147 150 137  5
137 24 147  5
148 77 76  5
76 75 148  5
149 21 20  5
149 165 47  5
150 85 84  5
84 83 150  5
163 162 151  5
151 66 65  5
71 157 72  5
71 70 152  5
153 6 39  5
153 140 148  5
154 137 150  5
150 82 154  5
38 159 140  5
38 37 155  5
156 136 151  5
156 65 64  5
157 152 44  5
158 21 149  5
149 143 158  5
161 148 140  5
159 38 155  5
155 154 160  5
160 81 80  5
161 79 78  5
142 24 23  5
162 66 151  5
162 163 45  5
164 151 136  5
45 164 46  5
164 149 46  5
164 45 163  5
20 19 165  5
165 48 47  5
50 49 166  5
166 18 17  5
167 73 157  5
153 44 6  5
15 14 168  5
168 52 51  5
44 167 157  5
13 52 168  5
33 34 198  6
201 198 56  6
186 182 42  6
29 195 28  6
55 198 54  6
127 128 173  6
174 196 188  6
1 188 43  6
173 200 192  6
30 31 201  6
27 189 26  6
103 172 102  6
104 105 170  6
98 194 181  6
105 178 170  6
102 199 101  6
199 194 100  6
199 102 172  6
194 98 99  6
98 181 97  6
196 111 186  6
25 178 174  6
104 172 103  6
178 107 174  6
174 107 108  6
107 178 106  6
117 183 116  6
112 186 111  6
196 174 109  6
186 113 182  6
182 113 12  6
182 177 191  6
113 186 112  6
176 117 118  6
40 197 180  6
200 129 130  6
175 28 195  6
125 185 124  6
124 185 123  6
190 125 187  6
173 193 187  6
60 193 171  6
187 125 126  6
185 125 190  6
119 176 118  6
119 179 176  6
120 179 119  6
115 183 177  6
183 115 116  6
197 177 183  6
179 169 62  6
122 169 121  6
169 61 62  6
58 201 57  6
195 201 58  6
195 58 59  6
56 198 55  6
7 35 4  6
129 173 128  6
201 29 30  6
35 7 53  6
29 201 195  6
32 201 31  6
35 198 34  6
198 201 32  6
121 179 120  6
169 123 185  6
170 25 26  6
100 194 99  6
171 59 60  6
200 173 129  6
172 104 170  6
170 26 172  6
171 192 184  6
127 187 126  6
108 109 174  6
188 1 25  6
175 195 184  6
11 181 200  6
179 121 169  6
180 62 5  6
114 182 12  6
114 115 177  6
178 25 170  6
178 105 106  6
62 180 179  6
180 5 40  6
183 117 176  6
176 179 180  6
181 194 175  6
200 130 11  6
182 114 177  6
42 191 41  6
176 180 183  6
197 191 177  6
181 175 184  6
28 175 27  6
61 169 185  6
123 169 122  6
42 188 186  6
111 196 110  6
187 127 173  6
193 192 171  6
188 42 43  6
188 25 174  6
172 26 189  6
189 27 175  6
190 193 61  6
61 185 190  6
191 197 41  6
191 42 182  6
192 181 184  6
192 193 173  6
193 60 61  6
193 190 187  6
194 199 189  6
189 175 194  6
195 59 171  6
171 184 195  6
109 110 196  6
196 186 188  6
183 180 197  6
197 40 41  6
198 53 54  6
198 32 33  6
100 101 199  6
199 172 189  6
181 11 97  6
181 192 200  6
201 56 57  6
35 53 198  6
210 105 106  7
213 211 133  7
109 204 108  7
111 214 110  7
214 215 207  7
80 208 131  7
209 215 214  7
214 207 204  7
109 214 204  7
215 209 208  7
81 215 208  7
88 219 203  7
12 132 113  7
80 131 10  7
85 212 207  7
113 209 112  7
86 212 85  7
105 205 104  7
210 212 203  7
107 210 106  7
204 107 108  7
219 89 216  7
103 206 102  7
93 218 92  7
95 217 94  7
218 202 206  7
133 211 134  7
208 80 81  7
97 213 133  7
97 133 11  7
99 213 98  7
101 206 202  7
91 216 90  7
88 203 87  7
216 89 90  7
91 218 216  7
9 134 96  7
96 211 95  7
202 99 100  7
94 217 93  7
100 101 202  7
218 93 217  7
105 210 205  7
203 86 87  7
212 86 203  7
85 207 84  7
219 88 89  7
205 103 104  7
206 101 102  7
206 103 205  7
83 215 82  7
83 84 207  7
209 113 132  7
132 131 208  7
111 112 209  7
209 132 208  7
210 219 205  7
210 107 204  7
211 96 134  7
213 217 211  7
212 210 204  7
204 207 212  7
213 97 98  7
213 99 202  7
214 109 110  7
214 111 209  7
215 81 82  7
215 83 207  7
202 218 217  7
206 205 216  7
217 95 211  7
217 213 202  7
218 206 216  7
218 91 92  7
216 205 219  7
219 210 203  7
237 68 69  8
68 237 221  8
237 236 221  8
128 224 127  8
220 235 227  8
133 235 220  8
227 224 220  8
134 9 63  8
68 221 67  8
230 233 232  8
236 227 221  8
236 125 126  8
11 133 130  8
129 220 128  8
224 126 127  8
130 220 129  8
221 66 67  8
66 227 65  8
122 226 121  8
63 235 134  8
233 118 119  8
75 232 74  8
73 232 229  8
118 228 117  8
121 226 120  8
77 230 76  8
116 228 225  8
231 79 131  8
114 225 132  8
12 114 132  8
225 114 115  8
118 233 228  8
79 231 78  8
70 237 69  8
232 75 230  8
72 229 223  8
226 119 120  8
223 70 71  8
77 231 230  8
131 79 10  8
220 130 133  8
235 133 134  8
125 222 124  8
125 236 222  8
123 234 122  8
123 124 222  8
71 72 223  8
122 234 226  8
224 128 220  8
227 236 224  8
131 132 225  8
225 115 116  8
234 123 222  8
233 230 228  8
65 235 64  8
227 66 221  8
231 77 78  8
228 116 117  8
234 237 223  8
229 72 73  8
75 76 230  8
228 231 225  8
231 131 225  8
231 228 230  8
232 233 229  8
232 73 74  8
233 119 226  8
226 229 233  8
234 223 229  8
229 226 234  8
235 63 64  8
235 65 227  8
236 237 222  8
236 126 224  8
237 70 223  8
237 234 222  8
Edges
140
1 2  1
3 13  2
13 14  2
14 15  2
15 16  2
16 17  2
17 18  2
18 19  2
19 20  2
20 21  2
21 22  2
22 23  2
23 24  2
24 2  2
4 3  3
1 25  4
25 26  4
26 27  4
27 28  4
28 29  4
29 30  4
30 31  4
31 32  4
32 33  4
33 34  4
34 35  4
35 4  4
5 6  5
2 36  6
36 37  6
37 38  6
38 39  6
39 6  6
5 40  7
40 41  7
41 42  7
42 43  7
43 1  7
7 8  8
6 44  9
44 45  9
45 46  9
46 47  9
47 48  9
48 49  9
49 50  9
50 51  9
51 52  9
52 8  9
7 53  10
53 54  10
54 55  10
55 56  10
56 57  10
57 58  10
58 59  10
59 60  10
60 61  10
61 62  10
62 5  10
8 3  11
4 7  12
9 63  13
63 64  13
64 65  13
65 66  13
66 67  13
67 68  13
68 69  13
69 70  13
70 71  13
71 72  13
72 73  13
73 74  13
74 75  13
75 76  13
76 77  13
77 78  13
78 79  13
79 10  13
10 80  14
80 81  14
81 82  14
82 83  14
83 84  14
84 85  14
85 86  14
86 87  14
87 88  14
88 89  14
89 90  14
90 91  14
91 92  14
92 93  14
93 94  14
94 95  14
95 96  14
96 9  14
11 97  15
97 98  15
98 99  15
99 100  15
100 101  15
101 102  15
102 103  15
103 104  15
104 105  15
105 106  15
106 107  15
107 108  15
108 109  15
109 110  15
110 111  15
111 112  15
112 113  15
113 12  15
12 114  16
114 115  16
115 116  16
116 117  16
117 118  16
118 119  16
119 120  16
120 121  16
121 122  16
122 123  16
123 124  16
124 125  16
125 126  16
126 127  16
127 128  16
128 129  16
129 130  16
130 11  16
10 131  17
131 132  17
132 12  17
11 133  18
133 134  18
134 9  18
End
