MeshVersionFormatted 1

Dimension
3

Vertices
457
0  0  40  0
0  0  0  0
320  0  0  0
320  0  40  0
0  80  40  0
0  80  0  0
320  80  40  0
320  80  0  0
140  40  0  0
100  40  0  0
100  40  40  0
140  40  40  0
60  40  0  0
20  40  0  0
60  40  40  0
20  40  40  0
300  0  0  0
280  0  0  0
260  0  0  0
240  0  0  0
220  0  0  0
200  0  0  0
180  0  0  0
160  0  0  0
140  0  0  0
120  0  0  0
100  0  0  0
80  0  0  0
60  0  0  0
40  0  0  0
20  0  0  0
20  0  40  0
40  0  40  0
60  0  40  0
80  0  40  0
100  0  40  0
120  0  40  0
140  0  40  0
160  0  40  0
180  0  40  0
200  0  40  0
220  0  40  0
240  0  40  0
260  0  40  0
280  0  40  0
300  0  40  0
0  16  0  0
0  32  0  0
0  48  0  0
0  64  0  0
0  64  40  0
0  48  40  0
0  32  40  0
0  16  40  0
21.333333333333343  80  0  0
42.666666666666657  80  0  0
64  80  0  0
85.333333333333329  80  0  0
106.66666666666666  80  0  0
128  80  0  0
149.33333333333331  80  0  0
170.66666666666666  80  0  0
192  80  0  0
213.33333333333331  80  0  0
234.66666666666666  80  0  0
256  80  0  0
277.33333333333331  80  0  0
298.66666666666663  80  0  0
297.14285714285711  80  40  0
274.28571428571428  80  40  0
251.42857142857144  80  40  0
228.57142857142856  80  40  0
205.71428571428572  80  40  0
182.85714285714286  80  40  0
160  80  40  0
137.14285714285714  80  40  0
114.28571428571428  80  40  0
91.428571428571416  80  40  0
68.571428571428569  80  40  0
45.714285714285708  80  40  0
22.857142857142861  80  40  0
320  40  0  0
320  40  40  0
139.69615506024417  43.472963553338609  0  0
138.79385241571816  46.840402866513372  0  0
137.32050807568876  50  0  0
135.32088886237955  52.855752193730787  0  0
132.85575219373078  55.320888862379562  0  0
130  57.320508075688771  0  0
126.84040286651337  58.793852415718163  0  0
123.4729635533386  59.696155060244159  0  0
120  60  0  0
116.5270364466614  59.696155060244159  0  0
113.15959713348663  58.79385241571817  0  0
110  57.320508075688778  0  0
107.14424780626922  55.320888862379562  0  0
104.67911113762044  52.855752193730794  0  0
102.67949192431122  50  0  0
101.20614758428184  46.840402866513379  0  0
100.30384493975583  43.472963553338616  0  0
100  40  13.333333333333334  0
100  40  26.666666666666668  0
100.30384493975583  43.472963553338602  40  0
101.20614758428184  46.840402866513372  40  0
102.67949192431122  50  40  0
104.67911113762044  52.855752193730787  40  0
107.14424780626921  55.320888862379562  40  0
109.99999999999999  57.320508075688764  40  0
113.15959713348663  58.79385241571817  40  0
116.5270364466614  59.696155060244159  40  0
120  60  40  0
123.4729635533386  59.696155060244166  40  0
126.84040286651336  58.79385241571817  40  0
130  57.320508075688771  40  0
132.85575219373078  55.320888862379562  40  0
135.32088886237955  52.855752193730794  40  0
137.32050807568876  50.000000000000007  40  0
138.79385241571816  46.840402866513372  40  0
139.69615506024417  43.472963553338609  40  0
140  40  26.666666666666664  0
140  40  13.333333333333332  0
139.69615506024417  36.527036446661391  40  0
138.79385241571816  33.159597133486628  40  0
137.32050807568876  30  40  0
135.32088886237955  27.144247806269213  40  0
132.85575219373078  24.679111137620438  40  0
130  22.679491924311229  40  0
126.84040286651337  21.206147584281833  40  0
123.4729635533386  20.303844939755841  40  0
120  20  40  0
116.5270364466614  20.303844939755841  40  0
113.15959713348663  21.20614758428183  40  0
110  22.679491924311225  40  0
107.14424780626922  24.679111137620438  40  0
104.67911113762044  27.14424780626921  40  0
102.67949192431122  30  40  0
101.20614758428184  33.159597133486621  40  0
100.30384493975583  36.527036446661384  40  0
100.30384493975583  36.527036446661398  0  0
101.20614758428184  33.159597133486628  0  0
102.67949192431122  30.000000000000004  0  0
104.67911113762044  27.144247806269213  0  0
107.14424780626921  24.679111137620442  0  0
109.99999999999999  22.679491924311233  0  0
113.15959713348663  21.20614758428183  0  0
116.5270364466614  20.303844939755841  0  0
120  20  0  0
123.4729635533386  20.303844939755837  0  0
126.84040286651336  21.20614758428183  0  0
130  22.679491924311229  0  0
132.85575219373078  24.679111137620438  0  0
135.32088886237955  27.144247806269206  0  0
137.32050807568876  29.999999999999993  0  0
138.79385241571816  33.159597133486628  0  0
139.69615506024417  36.527036446661391  0  0
59.696155060244159  43.472963553338609  0  0
58.79385241571817  46.840402866513372  0  0
57.320508075688778  50  0  0
55.320888862379562  52.855752193730787  0  0
52.855752193730787  55.320888862379562  0  0
50  57.320508075688771  0  0
46.840402866513379  58.793852415718163  0  0
43.472963553338609  59.696155060244159  0  0
40  60  0  0
36.527036446661391  59.696155060244159  0  0
33.159597133486628  58.79385241571817  0  0
30.000000000000004  57.320508075688778  0  0
27.144247806269213  55.320888862379562  0  0
24.679111137620442  52.855752193730794  0  0
22.679491924311225  50  0  0
21.206147584281833  46.840402866513379  0  0
20.303844939755841  43.472963553338616  0  0
20.303844939755837  36.527036446661398  0  0
21.20614758428183  33.159597133486628  0  0
22.679491924311222  30.000000000000004  0  0
24.679111137620438  27.144247806269213  0  0
27.14424780626921  24.679111137620442  0  0
29.999999999999993  22.679491924311233  0  0
33.159597133486628  21.20614758428183  0  0
36.527036446661391  20.303844939755841  0  0
39.999999999999993  20  0  0
43.472963553338602  20.303844939755837  0  0
46.840402866513365  21.20614758428183  0  0
50  22.679491924311229  0  0
52.855752193730787  24.679111137620438  0  0
55.320888862379554  27.144247806269206  0  0
57.320508075688764  29.999999999999993  0  0
58.79385241571817  33.159597133486628  0  0
59.696155060244159  36.527036446661391  0  0
59.696155060244159  36.527036446661391  40  0
58.79385241571817  33.159597133486628  40  0
57.320508075688778  30  40  0
55.320888862379562  27.144247806269213  40  0
52.855752193730787  24.679111137620438  40  0
50  22.679491924311229  40  0
46.840402866513379  21.206147584281833  40  0
43.472963553338609  20.303844939755841  40  0
40  20  40  0
36.527036446661391  20.303844939755841  40  0
33.159597133486628  21.20614758428183  40  0
30.000000000000004  22.679491924311225  40  0
27.144247806269213  24.679111137620438  40  0
24.679111137620442  27.14424780626921  40  0
22.679491924311225  30  40  0
21.206147584281833  33.159597133486621  40  0
20.303844939755841  36.527036446661384  40  0
20.303844939755837  43.472963553338602  40  0
21.20614758428183  46.840402866513372  40  0
22.679491924311222  50  40  0
24.679111137620438  52.855752193730787  40  0
27.14424780626921  55.320888862379562  40  0
29.999999999999993  57.320508075688764  40  0
33.159597133486628  58.79385241571817  40  0
36.527036446661391  59.696155060244159  40  0
39.999999999999993  60  40  0
43.472963553338602  59.696155060244166  40  0
46.840402866513365  58.79385241571817  40  0
50  57.320508075688771  40  0
52.855752193730787  55.320888862379562  40  0
55.320888862379554  52.855752193730794  40  0
57.320508075688764  50.000000000000007  40  0
58.79385241571817  46.840402866513372  40  0
59.696155060244159  43.472963553338609  40  0
20  40  13.333333333333334  0
20  40  26.666666666666668  0
60  40  26.666666666666664  0
60  40  13.333333333333332  0
120.45710050293579  59.994775795947696  8.6506580686046419  0
139.14479103432137  45.785929160659379  12.113573730903127  0
126.78577684404645  58.813644852149281  12.381017282679721  0
136.16513352258616  51.776606395603153  15.385148718427542  0
121.04628972403039  59.972613194406691  25.391903820202824  0
131.8098011036023  56.140898298835609  25.561684920848727  0
109.06851059739529  56.748210036918593  24.638142167270654  0
114.81832422010497  59.317096989766583  32.023364717843698  0
135.63339865002123  52.473846505770155  31.72593023507407  0
104.00769899694328  52.010258474638711  27.832069663667909  0
100.87687578390712  45.857142666512587  28.464802093910492  0
138.59051218320369  47.37515130462797  29.412520876030623  0
109.70142581948673  57.144660097198354  8.1781201111100952  0
132.40266205617527  55.689932247154864  8.8875456158348154  0
101.49557375896246  47.588557800399343  11.418713824016253  0
114.83167735863279  59.320673929103279  14.127287492263278  0
126.78719147050853  58.813134559202418  30.555816853491379  0
105.17310399425001  53.422486909461853  10.29637417661427  0
120.00376561414728  20.000000354496251  28.549552642984608  0
135.22997187410078  27.036668764777364  11.599833994830567  0
132.71145899090857  24.559183625130128  28.442482401675569  0
103.26830954845033  29.043242512790499  26.46207330909554  0
100.81248302544617  34.357377174468546  28.251653174054006  0
136.75254545755681  29.075155804658245  27.529019714027456  0
126.80776840977035  21.19430168063592  28.547556524902024  0
138.90746602127172  33.480204861005589  13.806866669882879  0
107.31309900718404  24.538999282113544  28.18448952282538  0
138.94538714968778  33.591232119319223  31.332970911757371  0
129.95412985091488  22.653089643653384  11.428652685856445  0
116.5451155187495  20.30066566553036  11.393900073016912  0
113.20372722995798  21.190144167612942  28.490013680857977  0
101.39005050176699  32.67403387441513  11.297853655313576  0
110.07047281080519  22.638995138557188  11.300885526306743  0
123.46426243743686  20.302312679795019  11.416701722836134  0
104.8595252841247  26.932252474969502  11.035506523378979  0
105.84702716993657  66.26416831195661  0  0
81.456736632885935  50.89800158259154  0  0
9.5082227246743116  27.052102590861978  0  0
33.829491343385364  12.402330785329386  0  0
152.31426765765073  42.390139232047652  0  0
161.19490928705832  52.221790406652282  0  0
60.124342697077893  63.732189524359733  0  0
157.42286930972907  65.116312709615102  0  0
62.276806340307608  50.028404465558459  0  0
44.657125036691994  62.697349738168974  0  0
267.59308511222662  39.981171848122123  0  0
25.98383175640253  63.194560132678767  0  0
177.16188554348878  59.55807623822178  0  0
172.42718770177206  40.308074127830757  0  0
109.41137606836845  15.007518942266742  0  0
103.98346501186155  58.502203983722424  0  0
50.987922705078283  61.751030488804176  0  0
24.22921988630571  21.182458592458019  0  0
45.253193866908013  14.623158521346392  0  0
97.010019222111168  51.497003705911133  0  0
115.71488372212841  17.027847519744473  0  0
120.00895266732549  15.785984618113149  0  0
58.935038902743543  25.347962104451124  0  0
13.127328646779114  66.66674873026821  0  0
139.54524782294166  65.199873892091816  0  0
78.094776638468119  29.512616809215505  0  0
144.2530458528021  25.847844554016657  0  0
91.111578971642672  44.315047610828294  0  0
54.492799011162795  58.676379581697226  0  0
87.92081519630274  17.940551156782231  0  0
97.434019943998209  43.820385971412037  0  0
145.38306632823449  13.282971814634658  0  0
19.088688194026741  51.193829939153566  0  0
75.362558633738516  65.808382437227479  0  0
24.487754686368774  13.403698840974087  0  0
142.46674731498294  46.076917823186129  0  0
11.174707571045257  55.335721638330241  0  0
93.642245105481464  64.71792678431774  0  0
62.706581360663279  45.603368720305106  0  0
73.634919993772669  39.732904408123495  0  0
64.167278120232709  40.596737906758527  0  0
137.01726978874657  21.439699521405014  0  0
125.67050114696245  11.739205158120019  0  0
67.722854381581485  55.455852747256507  0  0
88.638861468150267  30.109994213910241  0  0
146.73465916166163  53.811207132405954  0  0
157.98528821550701  29.785050756976638  0  0
49.863826856466822  69.16713080214069  0  0
128.47601884108212  64.511481576905311  0  0
16.083498791521986  35.09919460950497  0  0
145.49071591130911  34.608189802765125  0  0
68.885061246890515  18.989661520250131  0  0
209.36791401667185  39.794241489018198  0  0
64.924797948469049  31.737427618545773  0  0
13.89225496319246  14.935515588719198  0  0
123.05656232736449  66.133471109525246  0  0
95.086119582689165  36.782397686444853  0  0
30.382769549465333  18.526637462871879  0  0
54.394740985846042  19.498804367472665  0  0
134.1606278296054  15.048455240518175  0  0
109.66521655985308  61.506701632910072  0  0
102.38835373103181  19.300902888716486  0  0
156.83847408527109  17.412532414230061  0  0
14.49807048278103  44.665261496263952  0  0
84.659508538652616  38.560115779139451  0  0
97.504294856957458  27.755502755221379  0  0
20.215976391929164  57.436592252005447  0  0
115.37910464979007  66.543303769741087  0  0
58.57518448138984  55.161586414185699  0  0
18.910688948224958  26.936164620895621  0  0
68.645500685228384  47.058382761202559  0  0
36.779054024570911  66.714388036536661  0  0
8.035551897022625  37.362709020662606  0  0
176.64377436291946  18.17697044692672  0  0
58.082084692820651  8.8629070730629138  0  0
136.94624123261778  55.735809843187326  0  0
115.14375014780389  9.914402113148153  0  0
39.614419523673099  62.472507075219511  40  0
144.69722317892521  52.188795734532533  40  0
159.56196023825865  37.933818553765619  40  0
120.54551210475363  64.876271456185975  40  0
127.26457486881905  61.691556790048431  40  0
64.404634871302832  39.816494033383186  40  0
25.283398123341655  16.868867157206047  40  0
12.417054953374505  13.317190633066167  40  0
55.304514053952381  22.04793083496385  40  0
126.40109697685182  12.152090839185631  40  0
160.98674124559545  57.125345563986691  40  0
75.949813804964705  65.374127324700893  40  0
136.18182283980477  20.949443958017675  40  0
113.06172396655427  64.248179932580115  40  0
101.27025172786337  23.560642524812817  40  0
53.583737937844845  59.208180936203149  40  0
96.514153465013408  29.811157304443036  40  0
133.43531229886301  60.694279729829752  40  0
149.97660668949899  28.070105051187277  40  0
49.512275113283906  61.37380897827822  40  0
137.8338518583804  56.022741988302826  40  0
151.05610821623097  45.88752626620812  40  0
57.824608609832765  65.524595730128226  40  0
22.138467722194164  55.088607324574838  40  0
143.4672239840213  44.367872557422729  40  0
118.66197394395988  15.964201123838404  40  0
80.178574958083502  49.995375688893468  40  0
110.33629430435774  14.520856850628647  40  0
100.66461018435356  55.684599976683963  40  0
72.701831780243779  39.125728131265916  40  0
70.137249205926636  15.034900210794902  40  0
66.548188837915504  24.331835210030572  40  0
143.35241903249977  64.98615587312257  40  0
67.762000592324355  46.604475942717208  40  0
89.170934077676023  17.746014568755811  40  0
16.592694685232427  49.625887888304376  40  0
16.01758491709306  63.405571805249792  40  0
19.605474897029744  23.779420737701209  40  0
40.172381087849359  16.978032619688236  40  0
163.58290886305673  20.019745753909216  40  0
115.09138424795684  8.5158453831721665  40  0
76.267743845670509  28.102666700534641  40  0
14.361576652780755  39.636832952829991  40  0
57.830882402050477  56.512395012005456  40  0
66.704428010380852  55.739203279138771  40  0
25.612476832777133  59.287938923313959  40  0
9.5052351818154772  23.257375788029599  40  0
64.465394838052475  32.130063544252685  40  0
91.105005437881772  60.997875990062994  40  0
44.88658391990262  66.00151612906555  40  0
146.7146834106793  15.391558140233434  40  0
89.559752840689526  43.869197322438616  40  0
185.31420412144249  38.80352422347606  40  0
8.1069099821082578  53.933617644310679  40  0
141.28190685243911  25.548785877032113  40  0
49.867991191707382  18.789463037305538  40  0
276.57328367802774  39.414361355796061  40  0
96.482377077482539  43.628757892812118  40  0
101.58955760562854  15.232207092964458  40  0
129.33167466742034  68.719907418560723  40  0
34.502310934444978  12.455464626912793  40  0
57.257199966356197  14.689174825309609  40  0
60.116070015611555  26.004710552220736  40  0
107.23885699795858  20.322002839329588  40  0
15.405370055418199  31.192570717383951  40  0
87.697808071588568  30.24508996111939  40  0
7.8251523851317053  44.633911197562547  40  0
93.379972429256242  37.455528160719936  40  0
94.536657001434619  50.14351537978856  40  0
142.25679878484556  31.836634463029167  40  0
229.74734239179409  35.377009727940752  40  0
136.06915463028844  13.284564538046862  40  0
146.56398135831859  37.796359883479489  40  0
61.896003862447479  44.526999305567507  40  0
61.853120117056022  20.414390225195547  40  0
32.699703591040965  65.235377377617979  40  0
103.93759713873511  64.795432038394338  40  0
46.452147213770886  11.879114569180734  40  0
60.782138827338848  50.436910649834374  40  0
83.273694990553693  38.128757787520584  40  0
44.036301381240619  61.394124509933789  40  0
131.09423238292089  18.040879801893531  40  0
57.212398727814403  29.815043935552147  11.739528188126197  0
41.237402062722744  20.038315799132342  12.472269750641118  0
29.828612219963091  22.779579835900755  28.433498335120625  0
47.043449660995151  21.281297671231926  11.570545167212419  0
55.286818365255556  27.103753093721981  28.639044814439966  0
50.04762065799833  22.707073147874439  28.591241732149996  0
36.532370568666906  20.302905134844057  26.294823434275724  0
32.02316527072081  21.659604483496942  12.482250421136468  0
20.553884816487908  35.325750940570181  13.398978946638014  0
58.719432786754368  32.958491912794145  28.634529163304919  0
43.686579002907607  20.342707835123356  28.419261398135038  0
21.275983935033281  32.970688341034503  28.63694046272424  0
59.444319594229498  35.318287117147946  13.395740509127648  0
52.85654094084569  24.679773009633351  11.506152994311028  0
24.67992735160917  27.143275143022343  28.635176501236593  0
27.009322371628585  24.793347023235835  11.615990882484871  0
36.530969080337748  20.303151915130499  8.5425401940323091  0
22.769890770531383  29.845033927157594  11.755737373946589  0
41.046289724030395  59.972613194406691  25.391903820202824  0
46.785776844046453  58.813644852149281  12.381017282679721  0
55.633398650021235  52.473846505770155  31.72593023507407  0
52.402662056175267  55.689932247154871  8.8875456158348154  0
29.701425819486733  57.144660097198354  8.1781201111100952  0
20.876875783907124  45.857142666512587  28.464802093910492  0
34.818324220104969  59.317096989766583  32.023364717843698  0
25.173103994250006  53.422486909461853  10.29637417661427  0
34.831677358632795  59.320673929103279  14.127287492263278  0
21.495573758962468  47.588557800399343  11.418713824016255  0
46.787191470508525  58.813134559202418  30.555816853491379  0
40.457100502935795  59.994775795947696  8.6506580686046419  0
56.16513352258616  51.776606395603153  15.385148718427541  0
29.068510597395282  56.748210036918593  24.638142167270651  0
58.590512183203671  47.37515130462797  29.412520876030623  0
24.007698996943276  52.010258474638711  27.832069663667909  0
51.809801103602275  56.140898298835616  25.561684920848723  0
59.144791034321358  45.785929160659379  12.113573730903127  0
Triangles
918
23 39 24  1
3 46 17  1
25 37 26  1
22 41 23  1
28 35 34  1
35 28 27  1
29 33 30  1
28 34 29  1
25 38 37  1
33 31 30  1
37 27 26  1
39 25 24  1
25 39 38  1
32 31 33  1
33 29 34  1
31 32 1  1
41 22 42  1
35 27 36  1
27 37 36  1
31 1 2  1
21 43 42  1
19 43 20  1
23 41 40  1
23 40 39  1
46 3 4  1
44 19 45  1
45 17 46  1
19 44 43  1
42 22 21  1
43 21 20  1
17 45 18  1
45 19 18  1
48 53 54  2
53 48 49  2
48 54 47  2
53 49 52  2
2 54 1  2
54 2 47  2
51 50 5  2
49 51 52  2
50 51 49  2
5 50 6  2
78 59 77  3
61 76 60  3
77 60 76  3
59 78 58  3
56 81 55  3
58 79 57  3
80 56 57  3
55 5 6  3
60 77 59  3
76 61 75  3
56 80 81  3
80 57 79  3
5 55 81  3
79 58 78  3
69 68 7  3
66 70 71  3
70 67 69  3
64 72 73  3
65 71 72  3
74 62 63  3
70 66 67  3
72 64 65  3
63 73 74  3
68 69 67  3
62 74 75  3
71 65 66  3
75 61 62  3
73 63 64  3
7 68 8  3
4 3 83  4
83 82 7  4
82 83 3  4
7 82 8  4
110 235 109  5
237 107 234  5
94 243 93  5
112 232 111  5
107 237 106  5
84 121 9  5
241 89 230  5
236 115 116  5
235 243 234  5
84 229 121  5
86 231 229  5
89 241 88  5
115 233 114  5
12 120 119  5
87 241 231  5
229 84 85  5
90 230 89  5
119 239 118  5
231 86 87  5
117 239 236  5
114 244 113  5
112 244 232  5
121 229 120  5
240 234 243  5
108 235 234  5
245 96 97  5
245 234 240  5
98 245 97  5
103 238 102  5
103 102 11  5
238 105 237  5
106 237 105  5
100 242 99  5
91 230 90  5
96 245 240  5
93 243 228  5
243 235 232  5
93 228 92  5
237 242 238  5
101 100 10  5
230 244 233  5
228 91 92  5
239 117 118  5
229 85 86  5
230 91 228  5
244 112 113  5
115 236 233  5
239 231 236  5
230 228 232  5
111 235 110  5
233 236 231  5
233 241 230  5
96 240 95  5
234 107 108  5
235 108 109  5
235 111 232  5
116 117 236  5
231 239 229  5
242 100 101  5
105 238 104  5
238 101 102  5
238 103 104  5
239 119 120  5
120 229 239  5
94 95 240  5
234 245 237  5
241 233 231  5
241 87 88  5
98 99 242  5
242 101 238  5
243 232 228  5
243 94 240  5
244 114 233  5
244 230 232  5
245 98 242  5
242 237 245  5
127 252 248  6
153 247 152  6
260 143 144  6
139 259 101  6
131 258 246  6
254 262 260  6
133 258 132  6
141 262 259  6
258 260 257  6
101 259 250  6
262 143 260  6
246 129 130  6
250 136 137  6
139 101 10  6
136 250 249  6
134 254 133  6
11 102 138  6
101 250 102  6
138 250 137  6
135 254 134  6
131 246 130  6
258 257 246  6
129 252 128  6
251 248 247  6
248 256 247  6
253 153 154  6
251 247 253  6
120 253 121  6
122 255 120  6
122 120 12  6
256 248 252  6
155 253 154  6
121 155 9  6
261 149 256  6
261 147 148  6
252 261 256  6
149 261 148  6
151 256 150  6
247 151 152  6
153 253 247  6
147 257 146  6
147 261 257  6
251 125 248  6
125 251 124  6
248 125 126  6
126 127 248  6
135 136 249  6
141 259 140  6
250 138 102  6
262 254 249  6
255 124 251  6
124 255 123  6
252 127 128  6
252 129 246  6
253 155 121  6
253 255 251  6
254 135 249  6
143 262 142  6
255 253 120  6
255 122 123  6
256 149 150  6
256 151 247  6
145 260 144  6
145 146 257  6
258 131 132  6
258 133 254  6
249 250 259  6
259 139 140  6
260 145 257  6
260 258 254  6
261 252 246  6
246 257 261  6
262 249 259  6
262 141 142  6
27 292 28  7
303 333 301  7
293 319 10  7
154 313 155  7
163 162 272  7
263 300 278  7
280 317 297  7
328 319 307  7
157 301 271  7
65 315 273  7
162 279 272  7
65 273 66  7
68 82 8  7
320 180 179  7
281 181 266  7
2 317 47  7
326 14 172  7
321 183 281  7
304 152 151  7
145 283 146  7
147 284 148  7
292 328 307  7
144 324 277  7
144 277 145  7
146 283 147  7
152 289 153  7
313 9 155  7
305 339 26  7
152 304 289  7
284 147 283  7
150 322 304  7
289 154 153  7
9 313 267  7
142 328 324  7
314 316 285  7
10 319 139  7
281 266 30  7
185 321 285  7
321 185 184  7
185 285 186  7
187 316 188  7
189 303 13  7
178 320 179  7
317 2 31  7
182 281 183  7
266 181 180  7
181 281 182  7
174 332 175  7
280 178 177  7
176 280 177  7
332 174 312  7
49 335 326  7
6 286 55  7
295 171 170  7
326 295 299  7
14 326 312  7
265 335 48  7
149 322 150  7
150 304 151  7
57 310 269  7
331 160 159  7
264 333 302  7
269 331 306  7
271 333 306  7
161 291 279  7
286 329 274  7
171 326 172  7
169 295 170  7
169 329 295  7
329 169 168  7
166 334 274  7
168 274 329  7
334 164 272  7
334 166 165  7
334 165 164  7
9 298 84  7
275 268 276  7
92 330 93  7
89 311 90  7
287 60 311  7
311 91 90  7
308 267 268  7
91 318 92  7
59 300 263  7
278 323 263  7
330 60 59  7
323 278 95  7
60 330 318  7
330 94 93  7
94 330 323  7
282 99 98  7
99 293 100  7
288 314 292  7
156 303 301  7
319 140 139  7
319 328 140  7
298 9 267  7
84 298 85  7
308 86 298  7
338 88 87  7
338 89 88  7
273 17 82  7
315 22 21  7
68 273 82  7
18 273 19  7
267 276 268  7
22 336 23  7
273 20 19  7
315 20 273  7
3 82 17  7
17 273 18  7
20 315 21  7
96 278 97  7
95 278 96  7
157 271 158  7
293 99 282  7
48 47 265  7
175 332 176  7
31 30 266  7
180 320 266  7
313 154 289  7
267 308 298  7
275 270 268  7
62 275 63  7
57 296 58  7
160 331 291  7
270 275 62  7
62 61 270  7
269 306 296  7
158 331 159  7
279 269 310  7
272 164 163  7
273 68 67  7
67 66 273  7
167 166 274  7
55 334 56  7
336 24 23  7
63 315 64  7
24 336 325  7
276 315 275  7
27 324 292  7
27 339 277  7
278 300 282  7
97 282 98  7
310 334 272  7
279 162 161  7
280 176 332  7
317 332 265  7
30 337 281  7
183 321 184  7
282 97 278  7
264 300 296  7
283 145 277  7
339 284 283  7
339 305 284  7
148 305 149  7
187 186 285  7
281 337 321  7
274 55 286  7
286 6 50  7
270 61 287  7
89 287 311  7
316 303 189  7
316 189 188  7
305 148 284  7
267 309 276  7
290 282 264  7
327 288 307  7
269 279 291  7
291 161 160  7
142 324 143  7
288 327 302  7
282 290 293  7
293 10 100  7
25 24 294  7
289 325 309  7
295 329 299  7
326 171 295  7
300 264 282  7
296 57 269  7
31 266 297  7
280 320 178  7
86 338 87  7
86 85 298  7
299 286 50  7
50 49 299  7
300 59 58  7
58 296 300  7
301 157 156  7
333 303 302  7
302 316 288  7
264 327 290  7
303 156 13  7
303 316 302  7
322 149 305  7
294 289 304  7
305 26 25  7
25 322 305  7
264 296 306  7
331 158 271  7
288 292 307  7
140 328 141  7
308 268 270  7
270 287 308  7
325 289 294  7
336 309 325  7
310 57 56  7
310 272 279  7
287 89 338  7
60 287 61  7
312 174 173  7
173 14 312  7
309 267 313  7
313 289 309  7
28 337 29  7
28 292 314  7
315 65 64  7
315 63 275  7
316 187 285  7
316 314 288  7
265 47 317  7
317 31 297  7
318 91 311  7
311 60 318  7
319 293 290  7
319 327 307  7
320 280 297  7
297 266 320  7
337 28 314  7
314 285 321  7
322 25 294  7
294 304 322  7
95 94 323  7
323 330 263  7
324 27 277  7
324 144 143  7
294 24 325  7
309 336 276  7
326 299 49  7
312 326 335  7
327 319 290  7
327 264 302  7
328 292 324  7
328 142 141  7
274 168 167  7
329 286 299  7
330 92 318  7
330 59 263  7
271 306 331  7
331 269 291  7
332 312 265  7
332 317 280  7
333 264 306  7
333 271 301  7
334 310 56  7
334 55 274  7
335 49 48  7
335 265 312  7
336 22 315  7
315 276 336  7
314 321 337  7
337 30 29  7
338 86 308  7
308 287 338  7
283 277 339  7
339 27 26  7
366 419 391  8
104 408 397  8
346 377 347  8
197 417 395  8
109 353 108  8
219 355 218  8
389 362 80  8
190 387 345  8
396 46 83  8
36 374 35  8
199 400 378  8
382 207 375  8
1 347 54  8
370 401 34  8
354 403 134  8
122 412 12  8
367 403 398  8
403 354 398  8
132 403 367  8
128 349 421  8
349 128 129  8
349 380 37  8
127 352 126  8
129 365 349  8
358 394 390  8
409 124 394  8
124 409 123  8
412 122 409  8
12 412 364  8
12 364 119  8
354 134 135  8
387 381 369  8
136 356 354  8
192 387 191  8
374 405 381  8
195 348 194  8
34 417 33  8
417 401 395  8
195 395 348  8
197 395 196  8
202 377 346  8
201 202 346  8
347 386 54  8
32 400 346  8
400 199 200  8
400 200 346  8
404 204 205  8
376 393 375  8
207 382 16  8
382 206 16  8
206 404 205  8
190 345 15  8
413 345 373  8
220 418 383  8
219 383 355  8
368 105 106  8
355 383 362  8
217 420 216  8
340 420 389  8
215 420 340  8
415 212 213  8
376 415 81  8
211 385 363  8
209 375 208  8
375 209 363  8
363 385 376  8
376 375 363  8
355 362 359  8
80 415 389  8
5 376 81  8
112 344 343  8
412 409 358  8
392 350 342  8
344 112 113  8
360 115 116  8
377 404 386  8
204 404 377  8
117 360 116  8
372 360 341  8
114 357 344  8
114 344 113  8
111 112 343  8
107 416 368  8
105 408 104  8
131 367 365  8
365 129 130  8
110 353 109  8
353 110 343  8
108 416 107  8
107 368 106  8
383 418 384  8
397 11 103  8
408 105 368  8
138 407 356  8
407 405 356  8
115 360 357  8
118 364 341  8
341 117 118  8
69 396 83  8
69 83 7  8
410 73 392  8
71 410 396  8
41 410 392  8
44 410 43  8
71 396 70  8
38 390 411  8
40 392 379  8
410 41 42  8
46 396 45  8
83 46 4  8
410 44 396  8
214 415 213  8
214 215 340  8
379 390 39  8
350 361 342  8
392 74 350  8
350 372 341  8
77 399 76  8
343 110 111  8
357 114 115  8
399 372 76  8
15 413 223  8
138 356 137  8
53 404 382  8
346 200 201  8
347 1 32  8
32 346 347  8
402 387 192  8
193 194 348  8
37 38 349  8
128 421 127  8
74 392 73  8
74 75 350  8
78 79 351  8
366 384 373  8
125 352 394  8
411 421 349  8
353 343 77  8
77 416 353  8
135 136 354  8
381 370 374  8
351 79 362  8
218 359 217  8
370 381 371  8
356 136 137  8
372 357 360  8
357 399 344  8
352 125 126  8
379 39 40  8
359 218 355  8
80 362 79  8
360 117 341  8
372 399 357  8
342 412 358  8
361 350 341  8
362 389 359  8
383 219 220  8
363 209 210  8
210 211 363  8
361 341 364  8
364 118 119  8
130 131 365  8
36 380 367  8
373 369 366  8
11 407 138  8
380 349 365  8
367 131 132  8
416 388 368  8
366 388 351  8
369 373 345  8
356 374 354  8
402 414 371  8
370 34 35  8
387 190 191  8
414 402 348  8
372 350 75  8
75 76 372  8
418 373 384  8
413 15 345  8
370 35 374  8
374 398 354  8
375 406 382  8
375 207 208  8
415 214 340  8
376 5 51  8
377 202 203  8
203 204 377  8
378 197 198  8
198 199 378  8
379 392 342  8
342 358 379  8
365 367 380  8
380 36 37  8
419 366 369  8
381 387 371  8
406 375 393  8
53 406 52  8
418 413 373  8
362 384 351  8
384 366 351  8
384 362 383  8
385 211 212  8
212 415 385  8
53 54 386  8
386 347 377  8
387 402 371  8
387 369 345  8
388 416 78  8
78 351 388  8
389 415 340  8
420 217 359  8
390 38 39  8
390 379 358  8
366 408 388  8
381 419 369  8
392 40 41  8
73 410 72  8
393 376 51  8
51 52 393  8
124 125 394  8
394 352 390  8
395 195 196  8
417 34 401  8
44 45 396  8
396 69 70  8
103 104 397  8
397 408 391  8
398 374 36  8
36 367 398  8
399 77 343  8
343 344 399  8
400 32 33  8
400 417 378  8
401 414 348  8
348 395 401  8
402 192 193  8
193 348 402  8
403 132 133  8
133 134 403  8
404 206 382  8
404 53 386  8
405 374 356  8
407 419 405  8
393 52 406  8
406 53 382  8
407 11 397  8
397 391 407  8
368 388 408  8
408 366 391  8
122 123 409  8
409 394 358  8
42 43 410  8
410 71 72  8
390 352 411  8
411 349 38  8
412 342 361  8
361 364 412  8
413 418 222  8
222 223 413  8
414 401 370  8
370 371 414  8
415 80 81  8
415 376 385  8
416 108 353  8
416 77 78  8
417 197 378  8
417 400 33  8
418 220 221  8
221 222 418  8
419 381 405  8
419 407 391  8
359 389 420  8
420 215 216  8
421 411 352  8
352 127 421  8
422 186 187  9
202 436 424  9
190 431 226  9
202 424 201  9
439 433 430  9
173 430 224  9
433 206 225  9
433 439 436  9
204 436 203  9
430 173 174  9
436 202 203  9
432 425 427  9
206 433 205  9
173 224 14  9
225 206 16  9
178 437 177  9
428 424 429  9
428 198 199  9
436 439 437  9
198 432 197  9
200 428 199  9
424 200 201  9
196 432 427  9
196 427 195  9
186 435 185  9
188 434 422  9
423 432 428  9
431 422 434  9
422 431 426  9
15 190 226  9
426 435 422  9
13 227 189  9
179 438 429  9
425 182 183  9
182 425 423  9
435 427 425  9
184 435 425  9
189 434 188  9
435 426 427  9
188 422 187  9
226 434 227  9
192 431 191  9
181 438 180  9
181 182 423  9
437 424 436  9
177 437 176  9
425 183 184  9
194 427 426  9
426 192 193  9
193 194 426  9
427 194 195  9
425 432 423  9
428 200 424  9
438 179 180  9
429 178 179  9
428 438 423  9
430 225 224  9
174 439 430  9
431 190 191  9
431 192 426  9
432 196 197  9
432 198 428  9
204 205 433  9
433 225 430  9
434 189 227  9
434 226 431  9
435 184 185  9
435 186 422  9
436 204 433  9
424 437 429  9
176 439 175  9
437 178 429  9
438 181 423  9
438 428 429  9
439 174 175  9
439 176 437  9
216 450 440  10
440 451 448  10
162 441 161  10
454 221 222  10
457 226 227  10
454 223 226  10
226 457 454  10
227 13 156  10
159 452 158  10
444 166 167  10
450 216 217  10
442 219 220  10
15 226 223  10
221 454 442  10
218 456 450  10
223 454 222  10
456 218 219  10
456 441 450  10
163 451 441  10
156 457 227  10
455 211 453  10
453 448 444  10
166 448 165  10
209 455 445  10
214 446 213  10
170 447 169  10
447 455 453  10
449 172 224  10
207 445 225  10
16 207 225  10
445 207 208  10
446 212 213  10
172 449 171  10
163 441 162  10
168 447 444  10
448 446 440  10
212 453 211  10
451 440 441  10
170 449 447  10
224 172 14  10
215 446 214  10
215 216 440  10
218 450 217  10
161 443 160  10
220 221 442  10
452 456 442  10
443 159 160  10
443 161 441  10
167 168 444  10
453 212 446  10
224 225 445  10
445 208 209  10
446 215 440  10
448 453 446  10
447 168 169  10
449 455 447  10
165 451 164  10
448 166 444  10
449 170 171  10
449 224 445  10
441 456 443  10
441 440 450  10
451 163 164  10
451 165 448  10
158 457 157  10
452 159 443  10
453 444 447  10
211 455 210  10
454 457 452  10
452 442 454  10
455 449 445  10
455 209 210  10
456 219 442  10
456 452 443  10
457 156 157  10
457 158 452  10
Edges
235
1 2  1
3 17  2
17 18  2
18 19  2
19 20  2
20 21  2
21 22  2
22 23  2
23 24  2
24 25  2
25 26  2
26 27  2
27 28  2
28 29  2
29 30  2
30 31  2
31 2  2
4 3  3
1 32  4
32 33  4
33 34  4
34 35  4
35 36  4
36 37  4
37 38  4
38 39  4
39 40  4
40 41  4
41 42  4
42 43  4
43 44  4
44 45  4
45 46  4
46 4  4
5 6  5
2 47  6
47 48  6
48 49  6
49 50  6
50 6  6
5 51  7
51 52  7
52 53  7
53 54  7
54 1  7
7 8  8
6 55  9
55 56  9
56 57  9
57 58  9
58 59  9
59 60  9
60 61  9
61 62  9
62 63  9
63 64  9
64 65  9
65 66  9
66 67  9
67 68  9
68 8  9
7 69  10
69 70  10
70 71  10
71 72  10
72 73  10
73 74  10
74 75  10
75 76  10
76 77  10
77 78  10
78 79  10
79 80  10
80 81  10
81 5  10
8 82  11
82 3  11
4 83  12
83 7  12
9 84  13
84 85  13
85 86  13
86 87  13
87 88  13
88 89  13
89 90  13
90 91  13
91 92  13
92 93  13
93 94  13
94 95  13
95 96  13
96 97  13
97 98  13
98 99  13
99 100  13
100 10  13
10 101  14
101 102  14
102 11  14
11 103  15
103 104  15
104 105  15
105 106  15
106 107  15
107 108  15
108 109  15
109 110  15
110 111  15
111 112  15
112 113  15
113 114  15
114 115  15
115 116  15
116 117  15
117 118  15
118 119  15
119 12  15
12 120  16
120 121  16
121 9  16
12 122  17
122 123  17
123 124  17
124 125  17
125 126  17
126 127  17
127 128  17
128 129  17
129 130  17
130 131  17
131 132  17
132 133  17
133 134  17
134 135  17
135 136  17
136 137  17
137 138  17
138 11  17
10 139  18
139 140  18
140 141  18
141 142  18
142 143  18
143 144  18
144 145  18
145 146  18
146 147  18
147 148  18
148 149  18
149 150  18
150 151  18
151 152  18
152 153  18
153 154  18
154 155  18
155 9  18
13 156  19
156 157  19
157 158  19
158 159  19
159 160  19
160 161  19
161 162  19
162 163  19
163 164  19
164 165  19
165 166  19
166 167  19
167 168  19
168 169  19
169 170  19
170 171  19
171 172  19
172 14  19
14 173  20
173 174  20
174 175  20
175 176  20
176 177  20
177 178  20
178 179  20
179 180  20
180 181  20
181 182  20
182 183  20
183 184  20
184 185  20
185 186  20
186 187  20
187 188  20
188 189  20
189 13  20
15 190  21
190 191  21
191 192  21
192 193  21
193 194  21
194 195  21
195 196  21
196 197  21
197 198  21
198 199  21
199 200  21
200 201  21
201 202  21
202 203  21
203 204  21
204 205  21
205 206  21
206 16  21
16 207  22
207 208  22
208 209  22
209 210  22
210 211  22
211 212  22
212 213  22
213 214  22
214 215  22
215 216  22
216 217  22
217 218  22
218 219  22
219 220  22
220 221  22
221 222  22
222 223  22
223 15  22
14 224  23
224 225  23
225 16  23
15 226  24
226 227  24
227 13  24
End
