MeshVersionFormatted 1

Dimension
3

Vertices
446
-306.33847793330301  -31.535875408875398  30.230363773633201  0
-305.60931186890099  -30.587147894642801  35.400452786344097  0
-294.55680073247902  -39.081806188205498  35.400452786344097  0
-295.28596679688098  -40.030533702437999  30.230363773633201  0
-318.18623252787103  -38.812526977012404  46.535533905933001  0
-307.861772933564  -20.593919329370301  46.535533905964897  0
-311.49654074928202  -24.037536958562299  43.000000000000298  0
-319.46033306372601  -38.090495976843599  43.000000000000298  0
-296.13541307962601  -41.135759383728697  36.000000000000199  0
-307.18792421604797  -32.641101090166003  36.000000000000199  0
-311.49654074928202  -24.037536958562299  36.000000000000199  0
-340.36129900687098  -74.972474592579005  36.000000000000199  0
-340.36129900687098  -74.972474592579005  43.000000000000298  0
-341.19965412936801  -79.422158402193105  46.535533905933697  0
-297.12744749897098  -42.426508356624801  36.000000000000199  0
-297.806177408358  -43.309612729146501  31.187524189024501  0
-308.85868854478002  -34.8149544355838  31.187524189024501  0
-308.17995863539301  -33.9318500630622  36.000000000000199  0
-289.06039701929302  -21.1016462032226  48.000000000000298  0
-289.06039701929302  -21.1016462032226  36.000000000000199  0
-302.44467229334799  -18.205848320687  48.000000000000298  0
-286.12450626395298  -43.5377899332113  48.000000000000298  0
-286.12450626395298  -43.5377899332113  36.000000000000199  0
-327.91743242114899  -84.536490696398999  48.000000000000298  0
-327.91743242114899  -84.536490696398999  36.000000000000199  0
-315.11028173437899  -40.5556640100694  48.000000000000298  0
-307.10299215006398  -34.759577099348  36.000000000000199  0
-299.067775910102  -40.935224916469998  36.000000000000199  0
-337.08515142784302  -85.089622450326701  36.000000000000199  0
-338.53690748398901  -83.973842382760793  36.000000000000199  0
-336.83414674952598  -85.2738058506865  48.000000000000298  0
-337.08515142784302  -85.089622450326701  47.923718997540398  0
-338.53690748398901  -83.973842382760793  47.7161264395424  0
-339.97597977937698  -82.480284427239198  47.906354219800598  0
-322.14468385733301  -48.878626344645802  47.575338238074302  0
-306.32382007560102  -31.855637555070398  48.000000000000298  0
-308.81843568219  -31.539670347544799  42.514111537084098  0
-296.46209609852701  -39.4350893499318  48.000000000000298  0
-295.51489048446302  -41.764411960810897  42.514111537084098  0
-309.95927628991501  -60.558191469813799  48.000000000000298  0
-300.812222365092  -35.783204555656702  30.230363773633201  0
-316.71130972868775  -36.209868741633002  46.535533905933001  0
-315.23638692950504  -33.607210506253281  46.535533905933001  0
-313.76146413032239  -31.004552270873553  46.535533905933001  0
-312.28654133113969  -28.401894035493825  46.535533905933001  0
-310.81161853195698  -25.799235800114101  46.535533905933001  0
-309.33669573277433  -23.196577564734376  46.535533905933001  0
-308.52454043434011  -21.073980579373519  46.159235100342116  0
-309.15157199737268  -21.578967688718571  45.755315060932126  0
-309.742436142256  -22.104755458366604  45.324304237001215  0
-310.29452090528156  -22.646874847067089  44.863205564259438  0
-310.80237608394827  -23.195462302832706  44.360953755693764  0
-311.24637684278775  -23.720503888040316  43.780686817196624  0
-313.08929921217049  -26.848128762218735  43.000000000000298  0
-314.68205767505941  -29.658720565874937  43.000000000000298  0
-316.27481613794828  -32.469312369531139  43.000000000000298  0
-317.8675746008372  -35.279904173187347  43.000000000000298  0
-319.37674804720194  -38.137863489362275  43.975451610080924  0
-319.12920512293704  -38.278145719972308  44.913417161825713  0
-318.72721722668808  -38.505951701223857  45.777851165098255  0
-311.49654074928202  -24.037536958562299  39.500000000000249  0
-315.10463553148043  -30.404404162814515  36.000000000000199  0
-318.71273031367906  -36.771271367066582  36.000000000000199  0
-322.32082509587769  -43.138138571318656  36.000000000000199  0
-325.92891987807639  -49.505005775570723  36.000000000000199  0
-329.53701466027502  -55.87187297982279  36.000000000000199  0
-333.14510944247365  -62.238740184074864  36.000000000000199  0
-336.75320422467234  -68.605607388326931  36.000000000000199  0
-340.36129900687098  -74.972474592579005  39.500000000000249  0
-322.07295380661918  -42.700743303810491  43.000000000000298  0
-324.68557454951224  -47.310990630777432  43.000000000000298  0
-327.29819529240535  -51.921237957744381  43.000000000000298  0
-329.91081603529847  -56.531485284711323  43.000000000000298  0
-332.52343677819152  -61.141732611678265  43.000000000000298  0
-335.13605752108464  -65.751979938645206  43.000000000000298  0
-337.74867826397775  -70.362227265612148  43.000000000000298  0
-339.84592344692783  -77.033356553652609  46.535533905933001  0
-338.49219276448679  -74.644554705112597  46.535533905933001  0
-337.13846208204569  -72.255752856572585  46.535533905933001  0
-335.78473139960465  -69.866951008032572  46.535533905933001  0
-334.43100071716361  -67.47814915949256  46.535533905933001  0
-333.07727003472257  -65.089347310952547  46.535533905933001  0
-331.72353935228148  -62.700545462412542  46.535533905933001  0
-330.36980866984044  -60.31174361387253  46.535533905933001  0
-329.0160779873994  -57.922941765332517  46.535533905933001  0
-327.66234730495836  -55.534139916792505  46.535533905933001  0
-326.30861662251726  -53.145338068252499  46.535533905933001  0
-324.95488594007622  -50.75653621971248  46.535533905933001  0
-323.60115525763518  -48.367734371172475  46.535533905933001  0
-322.24742457519415  -45.978932522632462  46.535533905933001  0
-320.89369389275311  -43.59013067409245  46.535533905933001  0
-319.53996321031201  -41.201328825552437  46.535533905933001  0
-340.95192462785968  -76.333789731244224  44.244237949249644  0
-341.24557649418801  -77.825722953761755  45.442800991636481  0
-297.4668124536646  -42.868060542885644  33.593762094512364  0
-305.17451816597264  -37.646507200104672  31.187524189024501  0
-301.49034778716532  -40.478059964625558  31.187524189024501  0
-308.51932359008657  -34.373402249323043  33.593762094512371  0
-289.06039701929302  -21.1016462032226  42.000000000000249  0
-291.41142712509105  -19.601283613918575  36.000000000000199  0
-293.98727503031785  -18.531966997154338  36.000000000000199  0
-296.70967489981552  -17.926186997229941  36.000000000000199  0
-299.4959079911502  -17.802349932903624  36.000000000000199  0
-302.26131602174365  -18.164218530710357  36.000000000000199  0
-304.92187346795032  -19.000797596420135  36.000000000000199  0
-307.39674063807416  -20.286668098450789  36.000000000000199  0
-309.61071994549422  -21.982759512280001  36.000000000000199  0
-304.40126339415372  -18.796236715929446  47.796711139398646  0
-306.21743593377698  -19.605418699889345  47.275470169488685  0
-299.64615650012661  -17.809499674659527  48.000000000000298  0
-296.82156379063844  -17.911768534159449  48.000000000000298  0
-294.05903892238501  -18.509463478423477  48.000000000000298  0
-291.44478975244482  -19.583932729535064  48.000000000000298  0
-287.0056195730113  -22.987467007010459  48.000000000000298  0
-285.30952815918209  -25.201446314430473  48.000000000000298  0
-284.02365765715143  -27.676313484554267  48.000000000000298  0
-283.1870785914416  -30.336870930760853  48.000000000000298  0
-282.82520999363481  -33.102278961354266  48.000000000000298  0
-282.94904705796108  -35.88851205268891  48.000000000000298  0
-283.5548270578854  -38.610911922186574  48.000000000000298  0
-284.62414367464953  -41.186759827413361  48.000000000000298  0
-286.12450626395298  -43.5377899332113  42.000000000000249  0
-284.62414367464953  -41.186759827413368  36.000000000000199  0
-283.5548270578854  -38.610911922186581  36.000000000000199  0
-282.94904705796108  -35.888512052688924  36.000000000000199  0
-282.82520999363481  -33.102278961354273  36.000000000000199  0
-283.1870785914416  -30.336870930760853  36.000000000000199  0
-284.02365765715143  -27.676313484554271  36.000000000000199  0
-285.30952815918209  -25.201446314430477  36.000000000000199  0
-287.0056195730113  -22.987467007010459  36.000000000000199  0
-292.09492428640954  -49.394747185095284  48.000000000000298  0
-298.06534230886609  -55.251704436979239  48.000000000000298  0
-304.03576033132271  -61.108661688863187  48.000000000000298  0
-310.00617835377926  -66.965618940747149  48.000000000000298  0
-315.97659637623582  -72.822576192631089  48.000000000000298  0
-321.94701439869243  -78.679533444515044  48.000000000000298  0
-327.91743242114899  -84.536490696398999  39.000000000000227  0
-327.91743242114899  -84.536490696398999  42.000000000000249  0
-327.91743242114899  -84.536490696398999  45.00000000000027  0
-322.69331665149952  -79.41165310100051  36.000000000000199  0
-317.46920088184999  -74.28681550560205  36.000000000000199  0
-312.24508511220051  -69.161977910203589  36.000000000000199  0
-307.02096934255098  -64.037140314805143  36.000000000000199  0
-301.79685357290151  -58.912302719406675  36.000000000000199  0
-296.57273780325198  -53.787465124008222  36.000000000000199  0
-291.34862203360251  -48.662627528609761  36.000000000000199  0
-317.52704076507217  -39.186090031418964  47.157348061512863  0
-316.77497430805846  -39.61228504575908  47.619397662556537  0
-315.9589346490086  -40.074733584644662  47.903926402016289  0
-312.99934682753985  -36.83069472850601  48.000000000000298  0
-310.8884119207014  -33.105725446942245  48.000000000000298  0
-308.77747701386301  -29.380756165378468  48.000000000000298  0
-306.66654210702455  -25.655786883814702  48.000000000000298  0
-304.5556072001861  -21.930817602250926  48.000000000000298  0
-307.56909458494982  -36.043103374969483  36.000000000000199  0
-307.98145920441107  -37.344838959210733  36.000000000000199  0
-308.32241756369399  -38.666970294644265  36.000000000000199  0
-308.56182239504795  -40.010949754320023  36.000000000000199  0
-308.64186803571749  -41.372933661733732  36.000000000000199  0
-308.43536308155473  -42.717957598003956  36.000000000000199  0
-307.68825797494435  -43.836260568473293  36.000000000000199  0
-306.41537413807418  -44.27046594835501  36.000000000000199  0
-305.06250206703066  -44.12393661810318  36.000000000000199  0
-303.76697194894433  -43.696140893749572  36.000000000000199  0
-302.52984398188835  -43.118984195413638  36.000000000000199  0
-301.33995874365098  -42.449314880956948  36.000000000000199  0
-300.18815572101806  -41.715891464561579  36.000000000000199  0
-336.02952805928408  -85.760063373121241  36.000000000000199  0
-334.87145593694481  -86.231975109216634  36.000000000000199  0
-333.64789485525938  -86.49029662707531  36.000000000000199  0
-332.39789468442603  -86.526783612708542  36.000000000000199  0
-331.16134909640721  -86.340271586406885  36.000000000000199  0
-329.97772236105345  -85.936713067032287  36.000000000000199  0
-328.88478984656706  -85.328987597776219  36.000000000000199  0
-340.87820688718091  -76.111174715735842  36.000000000000199  0
-341.18425345033592  -77.323679242896461  36.000000000000199  0
-341.26967124071427  -78.571291173061766  36.000000000000199  0
-341.13173415524136  -79.814193054810758  36.000000000000199  0
-340.77484444678686  -81.012717757602999  36.000000000000199  0
-340.21039222655895  -82.128614445600448  36.000000000000199  0
-339.45639194946529  -83.126269350538365  36.000000000000199  0
-336.96044829901609  -85.183274147434844  47.960722544674411  0
-337.08515142784302  -85.089622450326701  37.490464874692719  0
-337.08515142784302  -85.089622450326701  38.980929749385247  0
-337.08515142784302  -85.089622450326701  40.471394624077774  0
-337.08515142784302  -85.089622450326701  41.961859498770295  0
-337.08515142784302  -85.089622450326701  43.452324373462822  0
-337.08515142784302  -85.089622450326701  44.94278924815535  0
-337.08515142784302  -85.089622450326701  46.43325412284787  0
-328.74233036301177  -85.229562269582928  48.000000000000298  0
-329.66381533767992  -85.787836630006026  48.000000000000298  0
-330.66005746351698  -86.198088317086857  48.000000000000298  0
-331.707455869878  -86.450598511727563  48.000000000000298  0
-332.78119779924026  -86.539385274110799  48.000000000000298  0
-333.85584641880598  -86.462345255221649  48.000000000000298  0
-334.90594341638251  -86.22130352496346  48.000000000000298  0
-335.90661210510643  -85.821970336444693  48.000000000000298  0
-337.56448371228663  -84.721220743677165  47.80864059404248  0
-338.04931467280176  -84.348592904728974  47.73929275711054  0
-338.53690748398901  -83.973842382760793  45.372901151633961  0
-338.53690748398901  -83.973842382760793  43.029675863725522  0
-338.53690748398901  -83.973842382760793  40.686450575817076  0
-338.53690748398901  -83.973842382760793  38.343225287908638  0
-339.31493259877732  -83.277545341956056  47.764758324388175  0
-341.0443158403952  -80.191351725778318  46.983994343236326  0
-340.79307420331241  -80.96632977163874  47.37503261598323  0
-340.43838453998404  -81.73519598510606  47.6901163312913  0
-339.47220082872093  -80.292823178766881  47.735956963166423  0
-338.7546510353759  -78.16375309571319  47.569986266926136  0
-337.92914410166958  -76.07284594269197  47.4178864329376  0
-337.03415124180998  -74.00946008012383  47.282863785393282  0
-336.08806575289395  -71.967798598693747  47.16680697174268  0
-335.10121062294076  -69.944438480939723  47.071335318705856  0
-334.07933058145477  -67.937611836754286  46.997732915853518  0
-333.02623327217259  -65.946255998864558  46.947664168451624  0
-331.94369070464205  -63.970281520135082  46.922230669750583  0
-330.83233193615325  -62.010206626588989  46.922656020415339  0
-329.69178954736606  -60.067156464461277  46.949579908817917  0
-328.52090633226368  -58.142787188297099  47.002752225578647  0
-327.31787444499258  -56.239244800049271  47.081638054430542  0
-326.08077410513022  -54.358746755410372  47.18304924054258  0
-324.80714042176061  -52.503944063872069  47.303560372875928  0
-323.49538923124436  -50.676793155958514  47.436959980165597  0
-319.88279805188438  -46.038630558359422  47.785350368857706  0
-317.5306162159153  -43.269356167163721  47.940634134572619  0
-312.29108545531585  -37.545953122832174  48.000000000000298  0
-309.36887807129409  -34.636260148972006  48.000000000000298  0
-308.4953530818338  -31.351577867806583  44.009165323453772  0
-307.9587185116194  -31.342341419289596  45.453770805166783  0
-307.22663988481065  -31.512272671830019  46.799181978490992  0
-312.14999772597605  -35.874409346819753  43.779418212331791  0
-315.48155976976182  -40.209148346094949  45.044724887579591  0
-318.81312181354753  -44.543887345370138  46.31003156282739  0
-295.89799221806004  -40.219161963268277  46.799181978490388  0
-295.54541505354496  -40.88286753766274  45.453770805166343  0
-295.41626178244354  -41.403810343058979  44.009165323453537  0
-303.85838908133258  -33.750500503785837  48.000000000000298  0
-301.39295808706407  -35.645363452501165  48.000000000000298  0
-298.92752709279557  -37.540226401216493  48.000000000000298  0
-307.86390720647887  -33.878199512221336  37.015964038328981  0
-308.43152077644231  -33.09093544752406  38.21847442455239  0
-308.78657432996488  -32.424495944953058  39.566731249081528  0
-308.91702127431114  -31.901492594198377  41.01498957933741  0
-295.83916370784942  -41.952776856006338  41.014989579337524  0
-296.37812231391524  -41.961293377444285  39.566731249081748  0
-297.11348000538516  -41.78967256853133  38.218474424552689  0
-298.02028687108077  -41.443737342372785  37.015964038329329  0
-298.39470307374808  -43.145938331167798  48.000000000000298  0
-300.48766120320062  -46.768969092700416  48.000000000000298  0
-302.70669916700012  -50.316270551489986  48.000000000000298  0
-305.03204512160107  -53.79485803388387  48.000000000000298  0
-307.45185460559071  -57.208433080096142  48.000000000000298  0
-312.24276760218345  -63.461278339329979  48.000000000000298  0
-314.59172728606853  -66.311646856192979  48.000000000000298  0
-317.00776232489164  -69.105374006042538  48.000000000000298  0
-319.49458575812793  -71.836254340715158  48.000000000000298  0
-322.0586492892611  -74.494698922350793  48.000000000000298  0
-324.71041659840478  -77.065575589126084  48.000000000000298  0
-327.46695430185304  -79.52357577198778  48.000000000000298  0
-330.35768493020186  -81.821679951774172  48.000000000000298  0
-333.43910440256855  -83.854496892379714  48.000000000000298  0
-335.08558980946225  -84.68910995707617  48.000000000000298  0
-307.07039912882465  -56.799435568013209  46.90282230741704  0
-304.18152196773417  -53.040679666212682  45.805644614833817  0
-301.29264480664369  -49.281923764412149  44.708466922250594  0
-298.40376764555322  -45.523167862611622  43.611289229667371  0
-310.72078118878585  -23.775935609051388  45.27186139317903  0
-315.4104039690024  -31.720471372095282  44.918819310363276  0
-312.15569118044658  -26.137172553079999  45.098581497877717  0
-313.76890282663243  -28.846411238713792  44.945348249912684  0
-317.51402918608028  -35.428552019989283  44.914078973397878  0
-324.78933387587489  -48.60786584950975  45.278106361187255  0
-321.45488396869473  -42.598641140757863  45.153213105305213  0
-338.09144270434496  -71.919145936770988  45.115113646238299  0
-327.82654872007436  -54.148662790680945  45.444895311090235  0
-334.62934174012139  -65.868079284225558  45.175498940685898  0
-331.0650360989859  -59.685209435489625  45.281185398085896  0
-306.55002912102708  -19.784090585915315  40.763685279042903  0
-296.9849793385506  -17.892148717183133  44.40380728408654  0
-304.47387476536301  -18.823491149362304  44.717143018500707  0
-293.01999649858851  -18.87224199795978  43.496773067124508  0
-310.54237251519856  -22.908154319098646  42.725798093798545  0
-299.27420741769703  -17.794383693734446  39.489553594311232  0
-309.19342186377844  -21.614109252272087  39.794941370558831  0
-303.13841758649932  -18.384114087595108  40.18329043996588  0
-301.02103218965601  -17.941097528874572  44.131948864867105  0
-307.14589656609405  -20.130373965196998  44.871801914757491  0
-308.94873202598302  -21.409588958395879  43.781974272084923  0
-291.87131708022059  -19.370749276348135  38.867684810770541  0
-295.26102068649919  -18.186348445862969  39.709523350243927  0
-283.50278620964946  -38.443109594968476  42.000000000000249  0
-282.94577413146698  -31.711675183962953  42.000000000000249  0
-285.2160631437377  -25.350208412402104  42.000000000000249  0
-312.54749751287727  -69.45864331898089  41.821457445611365  0
-307.02096934255098  -64.037140314805143  41.089739491979095  0
-301.49444117222475  -58.615637310629381  41.821457445611372  0
-326.04584794436659  -82.700473480757836  40.996653099172718  0
-308.03911383713876  -23.528780154925322  47.468744887471047  0
-315.53432346480571  -36.826452667021378  47.48628303400109  0
-313.07428264021331  -32.528241832223109  47.496603347643855  0
-310.16190263821585  -28.294943705027571  47.687544475191146  0
-298.27815948298792  -25.575403818504892  36.000000000000199  0
-304.0570407728955  -49.675142278834137  36.000000000000199  0
-338.06667671811994  -82.545885668343161  36.000000000000199  0
-339.45152841635866  -79.681167485908006  36.000000000000199  0
-313.88287353561697  -36.51603328201692  36.000000000000199  0
-322.76988415879237  -65.157770744369159  36.000000000000199  0
-291.62499286305774  -22.98506874258354  36.000000000000199  0
-303.13641433652418  -21.41992755704506  36.000000000000199  0
-286.38248928051138  -34.073059192349817  36.000000000000199  0
-296.28106546205493  -46.479344945128297  36.000000000000199  0
-337.74303682242277  -76.141275604070088  36.000000000000199  0
-335.47193030771882  -83.740737531127067  36.000000000000199  0
-340.15358383711077  -77.142719027704132  36.000000000000199  0
-330.46186355704282  -84.054161016289271  36.000000000000199  0
-314.85369853446241  -41.554870787285104  36.000000000000199  0
-292.67600283409587  -43.59214893940414  36.000000000000199  0
-309.85685866218688  -30.171114096759474  36.000000000000199  0
-299.18823889691839  -20.293248637189166  36.000000000000199  0
-316.85427944235852  -47.80934469028459  36.000000000000199  0
-294.30808369200895  -33.428814079332369  36.000000000000199  0
-289.10519966910476  -39.357506186933406  36.000000000000199  0
-311.44475210281303  -45.292856393195741  36.000000000000199  0
-306.71978030692446  -25.167237644947686  36.000000000000199  0
-336.20849616608638  -80.005753506860557  36.000000000000199  0
-310.45481154095256  -42.328799347641301  36.000000000000199  0
-333.00654719764384  -84.99143317505559  36.000000000000199  0
-299.56059040675564  -43.440820184720472  36.000000000000199  0
-310.41477935033208  -34.793413529386186  36.000000000000199  0
-288.76875010853934  -27.789818997452802  36.000000000000199  0
-309.0386711391734  -44.002399490473103  36.000000000000199  0
-307.22046712997059  -45.868357893207282  36.000000000000199  0
-310.30799885622605  -50.233875643124897  36.000000000000199  0
-332.98995900531077  -81.489259463686082  36.000000000000199  0
-329.25598949919697  -79.697957407905207  36.000000000000199  0
-333.48949843416841  -76.377251547622606  36.000000000000199  0
-310.37662677428892  -39.069055181590791  36.000000000000199  0
-306.00435151052591  -55.629129453575196  36.000000000000199  0
-327.94531789475479  -72.262495538528526  36.000000000000199  0
-303.83933304646052  -45.57386513238518  36.000000000000199  0
-300.46263329138384  -47.00506840511742  36.000000000000199  0
-295.20397136157453  -20.824589468528178  36.000000000000199  0
-316.32394942691946  -57.168580997846291  36.000000000000199  0
-333.74041013780123  -86.478644845813974  38.937820523378051  0
-335.85979463548756  -85.844760141675152  41.705928078461952  0
-331.39651170118123  -86.393334563406995  41.742689972039642  0
-336.01717160163298  -85.766424259582152  38.512364831063074  0
-333.86537840329095  -86.460911573576709  46.41002470838859  0
-331.71094278820016  -86.45115866354702  38.219139549365131  0
-329.06822007961188  -85.449491248435862  41.943958464734095  0
-329.94742885132848  -85.923170144687404  38.415123188047353  0
-335.75694064927217  -85.893329107193637  45.283337258254676  0
-329.84863196522275  -85.877795271413177  45.505875705101865  0
-331.98955137840647  -86.490118171279406  45.854429432652232  0
-333.79667228601113  -86.470945585074432  43.322377821378836  0
-339.96528419926631  -82.495283769615043  45.780664861035554  0
-341.07305111667307  -76.769868652935244  39.901832587529675  0
-341.26988959067882  -78.560545442719686  42.309752141604605  0
-340.90842043417854  -80.648044627855725  41.257383096064558  0
-341.20300447636237  -79.398626778777782  38.259884181393261  0
-340.15891717020048  -82.209882864246978  38.612264084588908  0
-340.030013359397  -82.403204951028485  42.353136928734102  0
-340.99551315776125  -80.368954715486552  44.754489964950807  0
-318.75072308177863  -42.116139541142161  47.38751569375107  0
-340.22064714433077  -79.323099468610934  47.187212532714767  0
-309.63558390842525  -33.258768490327867  45.571085244608852  0
-305.35906252942317  -35.130143256658592  39.322279285715638  0
-307.73200039233404  -33.235115027300068  39.566380625125191  0
-301.46603958830474  -37.804227845593267  40.411650533149697  0
-307.03689531568313  -32.979921289613237  42.270850619535587  0
-299.62878270190339  -38.062431762719079  44.364596341412522  0
-299.41328894273431  -40.067421072764326  38.063219226571142  0
-302.72643769029156  -38.116462080809825  36.023348075286179  0
-297.2008966008857  -39.448936668998655  46.007293982632248  0
-306.3543617053632  -32.561857202844692  45.500187704998794  0
-298.08354853305462  -40.312925812590152  40.723375671322195  0
-296.74666926584672  -40.547634079552552  43.439315777167877  0
-303.58494989240404  -35.134209439865245  43.979601178698928  0
-332.23570907195989  -85.658735062308324  48.000000000000298  0
-300.88530588996923  -27.939678974008707  48.000000000000298  0
-292.34403734218375  -26.229683821602201  48.000000000000298  0
-290.71648404720037  -34.235152773205826  48.000000000000298  0
-300.05204637460713  -20.948788452822804  48.000000000000298  0
-286.34080771176639  -37.402901628742811  48.000000000000298  0
-330.93156650117726  -84.479883134636609  48.000000000000298  0
-286.87322300007793  -28.567862098734075  48.000000000000298  0
-295.93913238223854  -21.861433970287401  48.000000000000298  0
-329.18793508060929  -83.56693596133448  48.000000000000298  0
-285.48679434689791  -33.261449966560861  48.000000000000298  0
-296.79239077839185  -33.510407015423255  48.000000000000298  0
-290.68374251424569  -41.196539538113306  48.000000000000298  0
-318.15145465753403  -68.215049673170441  45.192601210207329  0
-323.80989080985114  -70.845862428758466  44.101096914351949  0
-319.88532930588804  -48.732855503516504  42.029636042571468  0
-312.31493437037074  -38.097459447583894  39.73203906499117  0
-318.9691454355783  -61.607940225991086  41.072442606043445  0
-316.99173362906566  -42.672911441495572  43.412752051591902  0
-300.35156672790072  -46.925942029527988  40.724578137705414  0
-322.34863009690844  -53.608349440809683  42.124230876559231  0
-325.74154864847873  -75.568065896451245  46.082932888239533  0
-327.43528100239263  -72.448353988426703  44.231224013803157  0
-326.33465022559818  -59.545493889127677  43.375369717292003  0
-317.00179248936638  -53.03727818897886  39.19746201927174  0
-311.99435190784948  -50.00733615821634  37.747065223122412  0
-323.7147486335142  -52.566831614984338  44.391232987502832  0
-332.31945447779805  -69.414085480131703  45.177737929385316  0
-316.24347327910806  -45.658266416924661  39.808099158553567  0
-306.78729615979859  -55.683288257033006  43.858646294958575  0
-321.69698801692351  -71.386080177614559  45.306179955175239  0
-316.22937006235139  -56.153434430824746  39.497846052394948  0
-335.7033713223185  -77.714477234722807  46.319568339711857  0
-329.87190053670111  -64.46610309911344  44.624081253208942  0
-320.54548166392533  -58.735017079831685  40.623704465439594  0
-328.26127893930595  -66.495059245073492  43.451986455359702  0
-316.29737057729318  -43.270386643380583  41.251873091111094  0
-312.54067009101249  -54.549665972377888  39.101921131522246  0
-321.60006913680041  -55.978331959456106  41.038567852847393  0
-315.20823894662425  -62.94024301411396  42.83933349009574  0
-328.66410956317026  -76.799526138544024  45.771808451497385  0
-323.78367796350778  -63.975076940880783  41.980227211486678  0
-328.32975127930104  -69.817642828048079  43.696279728406736  0
-326.69023028303639  -57.608441684127712  44.60024928287401  0
-314.22763126339163  -64.318780986510831  45.042669670058643  0
-319.34097078914203  -65.790649991934885  42.793375430364861  0
-310.61143553528683  -58.439687463676592  42.36300207328393  0
-323.387960109152  -67.028736836537831  42.64562046553128  0
-314.61029373861084  -59.413029337417882  40.87861953675278  0
-313.23638364626936  -47.590567891100193  37.748523350924586  0
-302.0524233716651  -46.93966108241105  38.76972010812478  0
-310.5059249923321  -60.463467172985197  45.15658386977087  0
-305.7728829933933  -52.607792740173686  40.999280152504539  0
-333.10792855413052  -73.054234326913672  45.291315209489483  0
-313.07681617612468  -37.602190044402732  41.878695110223518  0
-309.52702541914573  -54.49977302103067  39.943436511488777  0
-302.77392176371546  -50.680431345858565  42.810311905009982  0
-317.87984788327304  -50.186680937604848  39.765953903443524  0
-325.10682630916261  -61.40457071237136  42.291944867479529  0
-334.79461313716513  -79.908145398933598  46.456939015406192  0
-320.71386200218996  -47.722481129429134  44.440103321326752  0
-308.52568518423709  -49.601135023429535  37.687739259123894  0
-305.34185498383749  -48.828851208633736  38.208752584314887  0
-312.01184290375681  -40.0444268534267  38.243810758839203  0
-313.03750147127374  -44.156909961605933  37.880820668064118  0
-332.18083556440382  -79.60164673251208  46.369720743719775  0
-331.40860836126956  -75.154517485125766  45.097122017771326  0
-296.91665214610146  -42.936002333643295  45.545955064319969  0
Triangles
892
41 3 2  1
41 2 1  1
3 41 4  1
271 58 59  2
60 271 59  2
270 54 55  2
270 45 269  2
267 52 53  2
56 271 268  2
58 271 57  2
50 267 47  2
53 54 269  2
267 51 52  2
47 267 46  2
58 57 8  2
271 43 268  2
49 47 48  2
45 270 44  2
6 48 47  2
50 47 49  2
267 50 51  2
268 55 56  2
54 270 269  2
5 42 60  2
46 269 45  2
43 271 42  2
43 44 268  2
269 46 267  2
54 53 7  2
270 55 268  2
268 44 270  2
271 56 57  2
271 60 42  2
53 269 267  2
10 2 3  3
10 3 9  3
64 8 63  4
73 66 74  4
67 75 74  4
75 67 68  4
68 69 76  4
75 68 76  4
65 72 71  4
69 68 12  4
66 72 65  4
67 74 66  4
72 66 73  4
54 62 55  4
69 13 76  4
71 64 65  4
64 71 70  4
56 62 63  4
62 54 61  4
61 54 7  4
62 61 11  4
63 57 56  4
62 56 55  4
8 64 70  4
57 63 8  4
94 78 93  5
77 94 14  5
58 273 59  5
13 274 76  5
60 273 92  5
92 273 91  5
70 58 8  5
90 273 272  5
277 83 84  5
276 76 274  5
73 275 72  5
273 90 91  5
90 272 89  5
88 275 87  5
5 60 92  5
72 272 71  5
273 60 59  5
275 277 85  5
85 277 84  5
277 276 83  5
275 88 272  5
275 85 86  5
276 74 75  5
76 276 75  5
83 276 82  5
276 277 74  5
78 274 93  5
80 276 274  5
78 94 77  5
80 274 79  5
88 89 272  5
71 273 70  5
273 58 70  5
273 71 272  5
274 13 93  5
274 78 79  5
86 87 275  5
275 272 72  5
276 80 81  5
81 82 276  5
277 275 73  5
73 74 277  5
16 95 4  6
4 95 3  6
95 9 3  6
9 95 15  6
1 96 41  7
96 1 17  7
97 4 41  7
4 97 16  7
41 96 97  7
98 2 10  8
98 1 2  8
98 10 18  8
1 98 17  8
286 285 280  9
101 289 100  9
109 287 6  9
21 286 280  9
19 99 113  9
279 112 281  9
281 290 279  9
288 278 284  9
20 289 99  9
112 279 111  9
113 281 112  9
48 288 49  9
280 109 108  9
288 51 50  9
51 288 282  9
279 110 111  9
278 288 287  9
282 53 52  9
53 282 7  9
285 278 280  9
7 282 61  9
107 284 106  9
104 283 103  9
61 107 11  9
288 284 282  9
106 278 105  9
280 278 287  9
105 285 104  9
102 290 101  9
283 290 102  9
285 105 278  9
280 108 21  9
281 113 99  9
290 281 289  9
284 61 282  9
282 52 51  9
283 286 279  9
283 102 103  9
278 106 284  9
61 284 107  9
285 286 283  9
283 104 285  9
286 21 110  9
110 279 286  9
287 48 6  9
287 109 280  9
288 50 49  9
288 48 287  9
281 99 289  9
289 20 100  9
289 101 290  9
290 283 279  9
292 119 291  10
123 291 122  10
291 119 120  10
114 99 19  10
119 292 118  10
292 116 117  10
291 121 122  10
121 291 120  10
22 122 121  10
123 122 23  10
293 128 129  10
125 292 291  10
293 130 99  10
114 293 99  10
293 292 128  10
20 99 130  10
292 293 116  10
128 292 127  10
130 293 129  10
292 125 126  10
291 123 124  10
124 125 291  10
126 127 292  10
292 117 118  10
293 114 115  10
115 116 293  10
139 136 24  11
294 295 134  11
136 140 141  11
137 297 138  11
140 136 297  11
25 297 137  11
141 294 135  11
295 142 143  11
136 141 135  11
296 295 144  11
145 131 132  11
131 145 146  11
122 146 23  11
144 295 143  11
145 296 144  11
131 146 122  11
122 22 131  11
142 295 294  11
134 135 294  11
294 141 142  11
295 296 133  11
133 134 295  11
296 145 132  11
132 133 296  11
297 139 138  11
297 25 140  11
136 139 297  11
5 147 42  12
147 299 42  12
150 149 26  12
149 299 148  12
151 301 300  12
150 300 299  12
301 151 152  12
43 300 44  12
109 298 154  12
46 298 47  12
6 298 109  12
109 154 108  12
301 153 298  12
108 154 21  12
298 6 47  12
299 147 148  12
300 43 299  12
300 301 45  12
153 301 152  12
153 154 298  12
43 42 299  12
299 149 150  12
300 150 151  12
300 45 44  12
301 298 46  12
46 45 301  12
141 339 140  13
305 325 312  13
29 304 30  13
64 320 316  13
333 320 343  13
321 10 9  13
313 168 169  13
63 316 306  13
309 302 319  13
65 343 320  13
329 155 18  13
178 305 177  13
181 304 180  13
12 312 68  13
29 313 304  13
313 29 168  13
180 305 179  13
179 305 178  13
177 314 176  13
12 314 312  13
169 327 313  13
325 305 304  13
336 334 335  13
315 172 173  13
67 339 307  13
327 334 313  13
142 343 307  13
140 339 335  13
163 340 164  13
310 124 125  13
334 336 325  13
66 343 65  13
318 18 10  13
323 316 320  13
62 329 318  13
323 332 331  13
145 338 144  13
165 328 166  13
328 341 311  13
317 15 311  13
317 311 146  13
328 28 167  13
337 156 329  13
155 329 156  13
157 337 158  13
333 332 323  13
159 337 326  13
326 331 160  13
102 342 101  13
324 302 309  13
100 342 308  13
106 324 309  13
309 104 105  13
104 319 103  13
130 330 129  13
27 18 155  13
310 330 321  13
342 302 308  13
330 302 321  13
10 321 302  13
127 330 310  13
330 127 128  13
322 9 317  13
23 322 317  13
124 322 123  13
340 303 341  13
340 332 303  13
28 328 15  13
145 341 303  13
316 323 326  13
100 308 20  13
10 324 318  13
332 340 163  13
338 303 333  13
304 181 30  13
315 173 174  13
314 12 175  13
305 180 304  13
156 337 157  13
306 62 63  13
66 67 307  13
307 141 142  13
130 20 308  13
302 342 319  13
105 106 309  13
302 324 10  13
310 125 126  13
126 127 310  13
145 146 311  13
15 317 9  13
305 312 314  13
315 335 334  13
171 327 170  13
172 327 171  13
314 175 176  13
314 177 305  13
315 174 25  13
325 336 312  13
337 316 326  13
316 63 64  13
146 23 317  13
9 322 321  13
11 324 107  13
11 62 318  13
319 102 103  13
319 104 309  13
320 64 65  13
333 323 320  13
321 322 310  13
302 330 308  13
322 23 123  13
322 124 310  13
332 161 331  13
331 326 323  13
324 106 107  13
324 11 318  13
325 304 313  13
313 334 325  13
326 160 159  13
316 337 306  13
327 169 170  13
327 172 315  13
311 15 328  13
328 167 166  13
18 318 329  13
329 62 306  13
330 128 129  13
330 130 308  13
161 332 162  13
161 160 331  13
332 333 303  13
332 163 162  13
343 143 338  13
338 145 303  13
334 327 315  13
335 315 25  13
335 25 140  13
339 141 307  13
339 67 68  13
68 312 336  13
337 159 158  13
337 329 306  13
343 142 143  13
143 144 338  13
339 68 336  13
336 335 339  13
165 341 328  13
165 164 340  13
341 145 311  13
341 165 340  13
342 100 101  13
342 102 319  13
343 66 307  13
343 338 333  13
352 196 197  14
29 168 183  14
189 31 182  14
183 347 184  14
354 192 193  14
347 183 168  14
185 347 345  14
347 344 345  14
196 352 348  14
189 182 32  14
194 354 193  14
172 351 349  14
355 352 345  14
31 189 197  14
350 137 138  14
355 354 348  14
192 354 353  14
171 349 344  14
196 348 195  14
139 353 350  14
190 139 24  14
190 353 139  14
171 344 170  14
346 344 349  14
174 351 173  14
185 345 186  14
25 137 174  14
351 172 173  14
186 345 187  14
169 344 347  14
187 352 188  14
344 169 170  14
137 350 351  14
353 346 350  14
347 185 184  14
347 168 169  14
348 194 195  14
352 355 348  14
349 171 172  14
346 351 350  14
138 139 350  14
346 353 354  14
351 346 349  14
351 174 137  14
352 189 188  14
352 187 345  14
353 190 191  14
191 192 353  14
354 194 348  14
354 355 346  14
355 345 344  14
344 346 355  14
197 189 352  14
186 202 185  15
201 186 187  15
202 184 185  15
30 183 203  15
184 203 183  15
202 186 201  15
184 202 203  15
183 30 29  15
201 187 188  15
201 188 200  15
198 189 32  15
199 189 198  15
189 200 188  15
200 199 33  15
199 200 189  15
94 363 14  16
93 358 94  16
360 361 359  16
175 357 69  16
357 175 176  16
358 360 359  16
175 69 12  16
178 360 177  16
13 357 93  16
179 360 178  16
363 362 356  16
356 204 34  16
204 356 200  16
206 363 356  16
200 356 201  16
33 204 200  16
362 361 202  16
358 93 357  16
361 360 179  16
181 361 180  16
361 179 180  16
203 181 30  16
356 34 207  16
207 206 356  16
357 13 69  16
176 360 357  16
362 202 201  16
363 206 205  16
202 361 203  16
363 94 358  16
360 358 357  16
360 176 177  16
361 181 203  16
361 362 359  16
201 356 362  16
362 363 359  16
205 14 363  16
363 358 359  16
89 223 35  17
147 364 148  17
364 224 225  17
77 210 78  17
216 82 215  17
365 77 14  17
210 77 209  17
365 206 208  17
207 34 208  17
211 79 78  17
78 210 211  17
81 215 82  17
217 84 83  17
81 214 215  17
214 81 80  17
79 211 212  17
80 213 214  17
80 212 213  17
83 216 217  17
212 80 79  17
220 85 219  17
82 216 83  17
86 221 87  17
77 365 209  17
85 218 219  17
218 85 84  17
85 220 86  17
84 217 218  17
90 224 91  17
35 90 89  17
92 147 5  17
225 149 148  17
88 222 223  17
221 86 220  17
223 89 88  17
222 88 87  17
87 221 222  17
224 90 35  17
149 225 26  17
148 364 225  17
224 364 91  17
206 365 205  17
208 206 207  17
364 147 92  17
92 91 364  17
14 205 365  17
365 208 209  17
232 226 231  18
232 26 226  18
37 366 228  18
233 225 232  18
232 225 26  18
35 224 233  18
225 233 224  18
366 230 229  18
366 226 227  18
230 366 227  18
226 366 231  18
227 36 230  18
366 229 228  18
366 37 231  18
28 15 95  19
240 367 27  19
243 370 368  19
370 243 37  19
368 240 241  19
367 378 369  19
375 228 229  19
36 375 230  19
368 241 242  19
378 367 370  19
18 27 98  19
27 96 98  19
97 373 28  19
240 368 367  19
372 246 247  19
17 98 96  19
237 378 375  19
97 95 16  19
238 378 237  19
376 369 371  19
28 95 97  19
245 376 244  19
28 373 372  19
246 376 245  19
371 377 376  19
239 374 371  19
377 371 374  19
371 238 239  19
235 377 374  19
373 97 96  19
371 369 378  19
242 243 368  19
368 370 367  19
39 377 236  19
367 373 27  19
370 37 228  19
228 375 370  19
235 374 234  19
369 376 372  19
247 28 372  19
369 373 367  19
96 27 373  19
373 369 372  19
374 239 38  19
38 234 374  19
375 229 230  19
375 36 237  19
244 377 39  19
376 246 372  19
377 235 236  19
377 244 376  19
378 370 375  19
378 238 371  19
150 26 226  20
21 383 110  20
262 195 261  20
262 197 196  20
192 379 193  20
259 24 136  20
195 379 261  20
388 191 190  20
261 385 260  20
388 259 260  20
192 385 379  20
24 259 388  20
191 388 385  20
259 136 258  20
258 136 257  20
135 257 136  20
257 135 256  20
134 254 135  20
256 135 255  20
135 254 255  20
254 134 253  20
253 134 40  20
133 251 252  20
248 391 38  20
36 380 153  20
151 36 152  20
227 150 226  20
262 196 195  20
132 249 250  20
131 248 249  20
119 384 120  20
153 380 154  20
197 262 31  20
249 132 131  20
380 36 237  20
36 153 152  20
36 151 227  20
387 380 381  20
113 387 381  20
380 387 383  20
381 390 382  20
111 387 112  20
238 390 380  20
390 381 380  20
113 381 19  20
38 390 239  20
117 389 118  20
19 381 114  20
389 119 118  20
391 382 38  20
391 121 384  20
382 391 384  20
121 391 22  20
251 133 132  20
132 250 251  20
40 134 133  20
40 133 252  20
379 195 194  20
194 193 379  20
383 111 110  20
380 237 238  20
115 386 116  20
114 386 115  20
119 389 384  20
381 382 386  20
383 21 154  20
154 380 383  20
121 120 384  20
384 389 382  20
385 261 379  20
385 192 191  20
386 117 116  20
386 114 381  20
387 113 112  20
387 111 383  20
260 385 388  20
388 190 24  20
389 117 386  20
386 382 389  20
390 238 239  20
390 38 382  20
391 248 131  20
131 22 391  20
150 227 151  20
428 161 404  21
429 28 247  21
263 430 408  21
421 426 401  21
433 232 231  21
182 444 31  21
215 412 214  21
219 422 218  21
432 211 406  21
444 32 438  21
261 444 419  21
160 428 159  21
258 400 409  21
444 262 31  21
419 260 261  21
419 393 400  21
405 219 220  21
403 436 428  21
35 439 223  21
264 435 265  21
443 159 428  21
440 441 434  21
266 398 244  21
266 244 39  21
166 429 441  21
245 398 246  21
398 266 435  21
246 429 247  21
244 398 245  21
404 440 416  21
164 440 163  21
166 441 165  21
440 404 162  21
222 439 405  21
242 395 433  21
240 442 395  21
397 433 415  21
442 415 395  21
439 233 397  21
232 397 233  21
442 240 27  21
433 397 232  21
222 405 221  21
243 433 231  21
442 27 155  21
37 243 231  21
409 257 258  21
423 392 418  21
425 408 430  21
422 216 217  21
412 414 406  21
400 258 259  21
406 213 412  21
421 420 426  21
417 403 413  21
255 392 423  21
430 40 253  21
214 412 213  21
408 264 263  21
422 412 216  21
416 427 410  21
211 432 210  21
33 438 199  21
411 209 432  21
199 438 198  21
32 444 182  21
392 256 257  21
257 409 392  21
393 419 401  21
208 411 34  21
219 405 422  21
442 157 443  21
241 240 395  21
436 443 428  21
161 428 160  21
392 424 418  21
233 439 35  21
415 439 397  21
28 429 167  21
435 266 265  21
216 412 215  21
394 399 405  21
400 259 260  21
260 419 400  21
34 411 204  21
426 396 424  21
422 217 218  21
412 437 414  21
159 443 158  21
404 161 162  21
404 416 410  21
427 424 396  21
405 220 221  21
439 415 394  21
406 211 212  21
437 413 420  21
415 442 407  21
158 443 157  21
430 263 40  21
408 425 431  21
409 400 393  21
409 424 392  21
410 413 403  21
403 404 410  21
204 438 33  21
432 445 411  21
213 406 212  21
412 422 402  21
417 436 403  21
413 410 396  21
426 424 393  21
432 414 421  21
395 242 241  21
415 407 394  21
429 166 167  21
418 427 425  21
437 420 414  21
402 399 417  21
392 255 256  21
424 409 393  21
438 204 411  21
438 411 445  21
413 437 417  21
413 396 420  21
445 432 421  21
414 432 406  21
422 405 399  21
399 402 422  21
254 430 253  21
254 255 423  21
396 426 420  21
424 427 418  21
164 441 440  21
423 425 430  21
393 401 426  21
420 421 414  21
396 410 427  21
427 434 425  21
404 403 428  21
407 436 394  21
429 246 398  21
431 441 429  21
430 254 423  21
425 423 418  21
431 429 398  21
431 435 408  21
209 411 208  21
210 432 209  21
433 243 242  21
433 395 415  21
434 431 425  21
434 427 416  21
435 264 408  21
435 431 398  21
436 417 399  21
399 394 436  21
437 412 402  21
402 417 437  21
32 198 438  21
444 401 419  21
439 394 405  21
439 222 223  21
434 416 440  21
440 162 163  21
441 431 434  21
441 164 165  21
155 156 442  21
407 442 443  21
443 436 407  21
157 442 156  21
445 444 438  21
445 421 401  21
401 444 445  21
444 261 262  21
40 263 252  22
264 250 251  22
249 265 266  22
446 234 248  22
249 446 248  22
234 446 235  22
265 249 250  22
446 39 236  22
251 263 264  22
39 446 266  22
252 263 251  22
250 264 265  22
248 234 38  22
446 249 266  22
446 236 235  22
Edges
287
1 2  1
2 3  2
3 4  3
4 41  4
41 1  4
5 42  5
42 43  5
43 44  5
44 45  5
45 46  5
46 47  5
47 6  5
6 48  6
48 49  6
49 50  6
50 51  6
51 52  6
52 53  6
53 7  6
7 54  7
54 55  7
55 56  7
56 57  7
57 8  7
8 58  8
58 59  8
59 60  8
60 5  8
9 10  9
9 3  10
10 2  11
11 61  12
61 7  12
11 62  13
62 63  13
63 64  13
64 65  13
65 66  13
66 67  13
67 68  13
68 12  13
12 69  14
69 13  14
8 70  15
70 71  15
71 72  15
72 73  15
73 74  15
74 75  15
75 76  15
76 13  15
14 77  16
77 78  16
78 79  16
79 80  16
80 81  16
81 82  16
82 83  16
83 84  16
84 85  16
85 86  16
86 87  16
87 88  16
88 89  16
89 90  16
90 91  16
91 92  16
92 5  16
13 93  17
93 94  17
94 14  17
15 9  18
16 95  19
95 15  19
16 4  20
17 1  21
17 96  22
96 97  22
97 16  22
10 18  23
18 98  24
98 17  24
19 99  25
99 20  25
20 100  26
100 101  26
101 102  26
102 103  26
103 104  26
104 105  26
105 106  26
106 107  26
107 11  26
21 108  27
108 109  27
109 6  27
21 110  28
110 111  28
111 112  28
112 113  28
113 19  28
19 114  29
114 115  29
115 116  29
116 117  29
117 118  29
118 119  29
119 120  29
120 121  29
121 22  29
23 122  30
122 22  30
23 123  31
123 124  31
124 125  31
125 126  31
126 127  31
127 128  31
128 129  31
129 130  31
130 20  31
22 131  32
131 132  32
132 133  32
133 134  32
134 135  32
135 136  32
136 24  32
25 137  33
137 138  33
138 139  33
139 24  33
25 140  34
140 141  34
141 142  34
142 143  34
143 144  34
144 145  34
145 146  34
146 23  34
5 147  35
147 148  35
148 149  35
149 26  35
26 150  36
150 151  36
151 152  36
152 153  36
153 154  36
154 21  36
18 27  37
27 155  38
155 156  38
156 157  38
157 158  38
158 159  38
159 160  38
160 161  38
161 162  38
162 163  38
163 164  38
164 165  38
165 166  38
166 167  38
167 28  38
28 15  39
29 168  40
168 169  40
169 170  40
170 171  40
171 172  40
172 173  40
173 174  40
174 25  40
30 29  41
12 175  42
175 176  42
176 177  42
177 178  42
178 179  42
179 180  42
180 181  42
181 30  42
31 182  43
182 32  43
29 183  44
183 184  44
184 185  44
185 186  44
186 187  44
187 188  44
188 189  44
189 32  44
24 190  45
190 191  45
191 192  45
192 193  45
193 194  45
194 195  45
195 196  45
196 197  45
197 31  45
32 198  46
198 199  46
199 33  46
33 200  47
200 201  47
201 202  47
202 203  47
203 30  47
33 204  48
204 34  48
14 205  49
205 206  49
206 207  49
207 34  49
34 208  50
208 209  50
209 210  50
210 211  50
211 212  50
212 213  50
213 214  50
214 215  50
215 216  50
216 217  50
217 218  50
218 219  50
219 220  50
220 221  50
221 222  50
222 223  50
223 35  50
35 224  51
224 225  51
225 26  51
26 226  52
226 227  52
227 36  52
37 228  53
228 229  53
229 230  53
230 36  53
37 231  54
231 232  54
232 233  54
233 35  54
38 234  55
234 235  55
235 236  55
236 39  55
36 237  56
237 238  56
238 239  56
239 38  56
27 240  57
240 241  57
241 242  57
242 243  57
243 37  57
39 244  58
244 245  58
245 246  58
246 247  58
247 28  58
38 248  59
248 249  59
249 250  59
250 251  59
251 252  59
252 40  59
40 253  60
253 254  60
254 255  60
255 256  60
256 257  60
257 258  60
258 259  60
259 260  60
260 261  60
261 262  60
262 31  60
40 263  61
263 264  61
264 265  61
265 266  61
266 39  61
End
