MeshVersionFormatted 1

Dimension
3

Vertices
342
-1.68994741490559e-07  188.49999999999801  -15.9999999999987  0
-13.856406460391799  188.49999999999801  -8.0000000002717506  0
-13.856406537129001  188.49999999999801  7.9999998673614297  0
-6.5624277119159594e-08  188.49999999999801  15.9999999999987  0
13.856406460489399  188.49999999999801  8.0000000001038103  0
13.8564065362141  188.49999999999801  -7.9999998689433598  0
-5.6696176936392802e-14  188.5  -11  0
-5.8941288585067205e-14  188.5  11  0
-9.2376043070327007  187.07093764036799  -15.999999999999099  0
-9.2376043070336706  160.49522658769001  -16.0000000000007  0
-18.475208614067999  160.49522658769101  1.38193580935176e-12  0
-18.475208614068301  187.07093764036799  4.05022751278259e-13  0
-5.7384723690018596e-14  155.867789836551  10.6322101634522  0
-2.4630973999720301e-12  158.66167831519201  15.999999999999  0
-9.2376043070388505  160.495226587692  15.9999999999993  0
1.87152441082e-12  158.66167831519201  -15.999999999998799  0
-5.7446724985834797e-14  155.86778983655  -10.632210163451999  0
9.2376043070337097  187.07093764036799  -15.999999999999201  0
9.2376043070376106  160.495226587693  -16.000000000000099  0
18.4752086140678  160.49522658769101  -1.39664508011873e-12  0
18.475208614068102  187.07093764036799  -4.1568208408097298e-13  0
9.2376043070319493  160.49522658769001  16.000000000001201  0
9.2376043070325906  187.07093764036799  15.999999999999099  0
-9.2376043070338305  187.07093764036799  15.999999999999099  0
-5.7818732760729798e-14  156.853125000002  9.6468750000012893  0
-5.7818732760730202e-14  156.853125000002  -9.6468750000013106  0
-5.6637370318777e-14  187.14687499999999  -9.6468750000000103  0
-5.9000095202682994e-14  187.14687499999999  9.6468749999999908  0
-2.7783709813093265  188.5  -15.756924023749651  0
-5.4723223989821088  188.5  -15.035081894076924  0
-8.0000000730423206  188.5  -13.856406418380072  0
-10.284601797977222  188.5  -12.256711053828658  0
-12.256711107839799  188.5  -10.284601733609275  0
-15.035081923754444  188.49999999999997  -5.4723223174439068  0
-15.756924039293962  188.5  -2.7783708931533595  0
-16.000000000000036  188.50000000000003  -7.6734063922246648e-08  0
-15.756924065943668  188.5  2.7783707420151891  0
-15.035081976244674  188.49999999999997  5.4723221732280392  0
-12.256711181316708  188.49999999999997  10.284601646042804  0
-10.284601855542988  188.49999999999997  12.256711005525162  0
-8.0000001042051707  188.5  13.856406400388122  0
-5.4723223959975815  188.5  15.035081895163158  0
-2.7783709396166065  188.5  15.756924031101178  0
2.7783707708437455  188.5  15.756924060860372  0
5.4723222383595624  188.5  15.035081952538693  0
7.9999999620615663  188.5  13.856406482454769  0
10.284601732581438  188.49999999999997  12.256711108702152  0
12.256711080465566  188.50000000000003  10.284601766232498  0
15.035081923914014  188.50000000000006  5.4723223170053075  0
15.756924039422184  188.49999999999997  2.7783708924259058  0
15.999999999999993  188.50000000000003  7.5723452492297158e-08  0
15.756924065720902  188.50000000000003  -2.7783707432782507  0
15.035081975712941  188.5  -5.4723221746887694  0
12.256711152859809  188.5  -10.284601679956324  0
10.284601789114989  188.5  -12.256711061264822  0
7.9999999923492178  188.49999999999997  -13.856406464968154  0
5.4723222347419389  188.5  -15.035081953855391  0
2.7783707288192803  188.5  -15.756924068270422  0
1.9101299543361707  188.49999999999997  -10.832885283134287  0
3.7622215765822919  188.50000000000006  -10.336618828644992  0
5.4999999999999334  188.49999999999997  -9.526279441628823  0
7.0706637065518594  188.49999999999997  -8.4264888743087525  0
8.4264888743086814  188.5  -7.0706637065519224  0
9.5262794416287377  188.5  -5.4999999999999956  0
10.336618828644902  188.5  -3.7622215765823515  0
10.832885283134193  188.50000000000003  -1.9101299543362327  0
10.999999999999901  188.5  -1.22290247799277e-14  0
10.832885283134194  188.5  1.9101299543362182  0
10.3366188286449  188.5  3.7622215765823386  0
9.5262794416287342  188.49999999999997  5.4999999999999902  0
8.4264888743086725  188.49999999999997  7.0706637065519233  0
7.0706637065518549  188.5  8.4264888743087507  0
5.4999999999999281  188.49999999999997  9.5262794416288195  0
3.7622215765822888  188.5  10.33661882864499  0
1.9101299543361705  188.50000000000003  10.832885283134289  0
-1.9101299543362957  188.5  10.832885283134289  0
-3.7622215765824238  188.5  10.336618828644994  0
-5.5000000000000719  188.5  9.5262794416288283  0
-7.0706637065520104  188.50000000000003  8.4264888743087631  0
-8.4264888743088431  188.49999999999997  7.0706637065519375  0
-9.5262794416289136  188.5  5.5000000000000053  0
-10.336618828645086  188.5  3.7622215765823577  0
-10.832885283134386  188.5  1.9101299543362313  0
-11.000000000000099  188.5  -1.3576091769132299e-14  0
-10.832885283134386  188.5  -1.9101299543362518  0
-10.336618828645086  188.5  -3.7622215765823754  0
-9.5262794416289172  188.50000000000003  -5.5000000000000142  0
-8.4264888743088431  188.50000000000003  -7.0706637065519455  0
-7.0706637065520095  188.49999999999997  -8.4264888743087702  0
-5.5000000000000702  188.5  -9.5262794416288337  0
-3.7622215765824207  188.5  -10.336618828644994  0
-1.9101299543362942  188.5  -10.832885283134289  0
-11.522117997696839  188.11491768725293  -12.043206032217142  0
-4.6686623737512534  188.11491191400324  -16.000062802377055  0
-10.732775308525408  159.48241394768104  -13.410287859413483  0
-12.281170500566462  158.86774000514163  -10.728388716603137  0
-13.856406460551115  158.66167831519107  -8.0000000000003109  0
-15.431642420535583  158.86774000514137  -5.2716112833977942  0
-16.980037612576471  159.48241394768041  -2.5897121405877122  0
-18.475208614068976  167.13915435085926  8.3353147569968941e-13  0
-18.475208614068951  173.7830821140295  7.7402352157978102e-13  0
-18.475208614068926  180.42700987719977  7.1451556745987263e-13  0
-16.190718986527056  188.11478536651285  -3.9568521042657432  0
-9.2376043070336316  180.42700987720002  -16.000000000000725  0
-9.2376043070333349  173.78308211403001  -16.000000000001251  0
-9.2376043070330365  167.13915435086  -16.000000000001773  0
-5.8636313145884922e-14  157.12434045310133  13.389178755819952  0
-3.1506387425956643  158.8667775136017  15.999834075027357  0
-6.2480411596193282  159.47980539019937  16.000110070548558  0
-10.73248142040908  159.47980732435775  13.411016839338721  0
-12.280943682098744  158.86677618056373  10.728450404506502  0
-13.856406483558448  158.66167831519601  7.999999960154665  0
-15.431582151814874  158.86677751762664  5.2713838219482252  0
-16.980522371662573  159.47980539414635  2.5890926543241251  0
-6.2480409531433372  159.47980607832832  -16.000110036933584  0
-3.1506387568780516  158.86677704194153  -15.999834194998675  0
-5.4539438085361838e-14  157.1243404531013  -13.389178755820009  0
-1.8462639194550596  155.86778983654801  -10.470683000621346  0
-3.6364300439720441  155.86778983654801  -9.9910094332394657  0
-5.3161050817253281  155.86778983654801  -9.2077640999233221  0
-6.8342529566493599  155.86778983654801  -8.1447455137844589  0
-8.1447455137844624  155.86778983654801  -6.8342529566493537  0
-9.2077640999233221  155.86778983654801  -5.3161050817253139  0
-9.9910094332394657  155.86778983654801  -3.636430043972029  0
-10.470683000621344  155.86778983654804  -1.8462639194550436  0
-10.632210163450599  155.86778983654801  -1.35535718805968e-14  0
-10.470683000621346  155.86778983654798  1.8462639194549904  0
-9.9910094332394639  155.86778983654801  3.636430043971973  0
-9.2077640999233328  155.86778983654801  5.3161050817252287  0
-8.1447455137844749  155.86778983654801  6.834252956649264  0
-6.8342529566493679  155.86778983654801  8.1447455137843701  0
-5.3161050817253344  155.86778983654798  9.2077640999232298  0
-3.6364300439720481  155.86778983654801  9.9910094332393697  0
-1.8462639194550621  155.86778983654804  10.470683000621248  0
4.6686232920522501  188.11477608515355  -16  0
9.2376043070347595  180.42700987720028  -16  0
9.2376043070360794  173.78308211403049  -16  0
9.237604307037401  167.13915435086074  -16  0
3.1506387425954157  158.8667775136017  -15.999834075027376  0
6.2480411596189462  159.47980539019932  -16.000110070548661  0
10.732481420408643  159.47980732435801  -13.41101683933929  0
12.280943682098407  158.86677618056424  -10.728450404506912  0
13.856406483558182  158.66167831519601  -7.9999999601549936  0
15.431582151814695  158.8667775176261  -5.2713838219483984  0
16.980522371662403  159.4798053941463  -2.5890926543242569  0
11.522093971880452  188.11478537815822  -12.043147831122745  0
16.190719190328497  188.11478744198794  -3.9568517512737529  0
18.475208614069373  180.42700987720076  -8.9607379544023524e-13  0
18.475208614068848  173.78308211403152  -1.8133100742733201e-12  0
18.475208614068322  167.13915435086224  -2.7305463531064051e-12  0
16.980521983649854  159.47980732435559  2.5890931360454652  0
15.431582434589679  158.86677618056117  5.2713840088870541  0
13.856406437543187  158.661678315193  8.0000000398453199  0
12.280943378807704  158.86677751762326  10.728450253082618  0
10.73248119722288  159.47980539414399  13.411017416227491  0
16.190718986574474  188.11478536649594  3.9568521041833624  0
11.522093768145835  188.11478745287309  12.043148183998669  0
9.2376043070331662  178.21236728947667  16.0000000000013  0
9.2376043070327043  169.35379693858334  16.0000000000021  0
6.2480409531420351  159.47980607832832  16.00011003693356  0
3.1506387568773362  158.86677704194156  15.999834194998639  0
4.6686223068122326  188.11477021121391  16  0
-4.6686234192189033  188.11477607078996  16  0
-9.2376043070358804  180.42700987720028  16  0
-9.2376043070372003  173.78308211403049  16  0
-9.2376043070385201  167.13915435086074  16  0
-11.522093972599333  188.11478537193321  12.043147829877764  0
-16.190719190912557  188.11478744434578  3.9568517502623459  0
-5.5335343106642698e-14  156.36045741827749  10.139542581727794  0
1.6751622639310606  156.85312500000299  -9.5003172923422152  0
3.2994255701456403  156.85312500000302  -9.0650972511465131  0
4.8234375000012406  156.85312500000299  -8.3544388171352679  0
6.200891722196447  156.85312500000296  -7.3899349872153914  0
7.3899349872153248  156.85312500000299  -6.2008917221965154  0
8.3544388171351986  156.85312500000299  -4.8234375000013117  0
9.0650972511464438  156.85312500000302  -3.2994255701457118  0
9.5003172923421442  156.85312500000299  -1.6751622639311321  0
9.6468750000025398  156.85312500000299  -1.4674601937460001e-14  0
9.5003172923421442  156.85312500000299  1.6751622639311046  0
9.0650972511464438  156.85312500000302  3.2994255701456852  0
8.3544388171351986  156.85312500000299  4.8234375000012859  0
7.389934987215323  156.85312500000299  6.2008917221964923  0
6.200891722196447  156.85312500000299  7.389934987215371  0
4.8234375000012406  156.85312500000299  8.3544388171352466  0
3.2994255701456412  156.85312500000302  9.0650972511464918  0
1.6751622639310608  156.85312500000299  9.5003172923421939  0
-5.9060427587773604e-14  156.36045741827749  -10.139542581727856  0
1.8462639194549424  155.86778983654804  10.470683000621248  0
3.6364300439719281  155.86778983654801  9.9910094332393733  0
5.3161050817252136  155.86778983654801  9.2077640999232333  0
6.8342529566492498  155.86778983654801  8.1447455137843772  0
8.1447455137843594  155.86778983654801  6.83425295664928  0
9.2077640999232226  155.86778983654801  5.3161050817252464  0
9.991009433239368  155.86778983654801  3.6364300439719619  0
10.470683000621248  155.86778983654801  1.846263919454979  0
10.6322101634505  155.86778983654801  -1.09495174563295e-14  0
10.470683000621246  155.86778983654801  -1.8462639194550137  0
9.9910094332393662  155.86778983654801  -3.6364300439719957  0
9.2077640999232138  155.86778983654801  -5.3161050817252917  0
8.1447455137843487  155.86778983654801  -6.8342529566493244  0
6.8342529566492427  155.86778983654801  -8.1447455137844287  0
5.3161050817252109  155.86778983654801  -9.2077640999232901  0
3.6364300439719286  155.86778983654798  -9.9910094332394408  0
1.8462639194549464  155.86778983654798  -10.470683000621332  0
-1.6751622639311781  156.85312500000299  9.5003172923421921  0
-3.2994255701457584  156.85312500000302  9.0650972511464936  0
-4.823437500001357  156.85312500000302  8.3544388171352502  0
-6.2008917221965651  156.85312500000302  7.3899349872153737  0
-7.3899349872154438  156.85312500000299  6.2008917221964968  0
-8.3544388171353177  156.85312500000299  4.8234375000012921  0
-9.0650972511465628  156.85312500000299  3.2994255701456914  0
-9.5003172923422667  156.85312500000299  1.6751622639311119  0
-9.6468750000026606  156.85312500000299  -1.2311877053553301e-14  0
-9.500317292342265  156.85312500000299  -1.6751622639311317  0
-9.0650972511465628  156.85312500000302  -3.2994255701457122  0
-8.3544388171353212  156.85312500000302  -4.8234375000013081  0
-7.3899349872154438  156.85312500000302  -6.2008917221965154  0
-6.2008917221965669  156.85312500000299  -7.3899349872153914  0
-4.8234375000013605  156.85312500000299  -8.3544388171352679  0
-3.2994255701457607  156.85312500000299  -9.0650972511465113  0
-1.6751622639311796  156.85312500000296  -9.5003172923422152  0
-5.5456007876823898e-14  166.95104166666732  -9.6468750000000103  0
-5.5456007876823898e-14  177.04895833333367  -9.6468750000000103  0
-1.6751622639307275  187.14687499999997  9.500317292339636  0
-3.2994255701448703  187.14687500000002  9.0650972511440493  0
-4.8234375000000593  187.14687500000002  8.3544388171329995  0
-6.2008917221948954  187.14687499999999  7.3899349872133833  0
-7.3899349872134525  187.14687500000002  6.2008917221948243  0
-8.3544388171330652  187.14687500000002  4.8234374999999909  0
-9.0650972511441203  187.14687499999999  3.2994255701448019  0
-9.5003172923397035  187.14687500000002  1.6751622639306589  0
-9.64687500000006  187.14687499999999  -1.34932394955065e-14  0
-9.5003172923397035  187.14687499999999  -1.6751622639306827  0
-9.0650972511441203  187.14687499999997  -3.2994255701448241  0
-8.3544388171330688  187.14687500000002  -4.8234375000000096  0
-7.3899349872134534  187.14687499999999  -6.2008917221948447  0
-6.2008917221948954  187.14687499999999  -7.3899349872134028  0
-4.8234375000000593  187.14687499999999  -8.3544388171330173  0
-3.2994255701448711  187.14687499999999  -9.0650972511440706  0
-1.6751622639307278  187.14687499999997  -9.5003172923396537  0
-5.9000095202682994e-14  166.95104166666732  9.6468749999999908  0
-5.9000095202682994e-14  177.04895833333364  9.6468749999999908  0
1.6751622639306121  187.14687499999997  -9.5003172923396537  0
3.2994255701447535  187.14687500000002  -9.0650972511440706  0
4.8234374999999421  187.14687500000002  -8.3544388171330173  0
6.2008917221947764  187.14687499999999  -7.3899349872134028  0
7.3899349872133335  187.14687500000002  -6.2008917221948447  0
8.3544388171329498  187.14687500000002  -4.8234375000000105  0
9.0650972511439996  187.14687499999997  -3.2994255701448214  0
9.5003172923395862  187.14687500000002  -1.6751622639306791  0
9.6468749999999392  187.14687499999999  -1.11305146116005e-14  0
9.5003172923395827  187.14687499999997  1.6751622639306576  0
9.0650972511440013  187.14687500000002  3.2994255701447988  0
8.3544388171329498  187.14687500000002  4.8234374999999901  0
7.3899349872133335  187.14687499999999  6.2008917221948252  0
6.2008917221947755  187.14687499999997  7.3899349872133824  0
4.8234374999999403  187.14687499999999  8.3544388171329977  0
3.2994255701447526  187.14687499999999  9.0650972511440511  0
1.6751622639306103  187.14687499999997  9.5003172923396342  0
-5.5290303329572353e-14  187.82343750000001  -10.323437500000004  0
-5.9082947476308805e-14  187.82343750000001  10.323437499999995  0
-11.794640691915934  165.23793412941799  -11.571083064581815  0
-13.856356184408432  178.18629265084456  -8.0000870808333069  0
-15.918034483044952  165.23793412941788  -4.4291555187316192  0
-12.943860282393574  157.21707745965026  -4.0606825427712572  0
-7.8553962867118985  157.57822204974804  -11.862050820719924  0
-4.0291659159194397  157.28575850846326  -13.088718270720486  0
-12.968271369535705  157.22221777368085  4.0149818941522062  0
-14.18963899988317  157.55716024042673  -0.068763630725448666  0
-7.6050798888517415  157.55154153367104  11.967836187023689  0
-3.9074267306975701  157.31603188138186  13.184368080971216  0
-10.519474232317362  157.15699769755599  -8.3839048363447812  0
-10.434479506462385  157.17585186241337  8.5463010824599213  0
-3.4844368942568793  162.37705183240365  -16  0
-8.6207082869081507e-05  169.56972259226134  -16  0
3.4840360878181738  162.37705343582425  -16  0
-1.5092796481695412e-05  180.34747897040631  -16  0
15.598424582331905  162.3770530866023  -4.9827361053783292  0
13.856401455889831  180.34746430085983  -8.0000086683304534  0
13.856363745979847  169.56972040525704  -8.0000739838135999  0
12.114188113114842  162.37705153025928  -11.017610695645969  0
11.641976216221529  163.57472768605825  11.835505692993321  0
13.740455630370491  170.80521503370665  8.2008327290498126  0
14.49699289225093  181.13235511115371  6.8904717536535163  0
14.628364433400002  162.47818247542753  6.6629295697153976  0
-4.2280407352190386  164.99355632710149  15.999999999999867  0
-0.094042317902281874  177.30295837104524  15.999999999999867  0
3.3667761648707764  164.1717354530445  15.999999999999867  0
-15.598424582340908  162.37705308659056  4.9827361053650474  0
-12.114188113123854  162.3770515302476  11.017610695632587  0
-13.85640145617314  180.34746430036697  8.000008667841179  0
-13.856363746023808  169.56972040518284  8.0000739837393908  0
-9.6468705399515944  171.99233249830741  0.0092763699899730771  0
-6.4384207217769678  168.98567592054064  -7.1839359598355914  0
-6.4335238507131436  175.02355689140654  7.1883216488920931  0
-9.1514769523191735  165.00996316528273  -3.051666242693841  0
-6.9145354939813446  169.04163226354663  6.726915799093808  0
-3.0860121288376527  171.45925710757709  9.1399522102849158  0
-3.3332488745391355  164.28022099561221  -9.0527150184908152  0
-3.3284751765164975  179.72355557893408  9.0544712857758132  0
-6.9266493541627305  174.96314048324956  -6.7144415992771131  0
-9.1487836931628124  178.98998612626312  3.0597310668332076  0
-3.0938598487411375  172.54363585860273  -9.13729875302176  0
-7.1459827503064348  163.31230331138207  -6.4805190994201167  0
-7.14103372488161  180.69475968336994  6.4859721403756598  0
-8.9537630205595509  171.64543510739745  3.5905883970856802  0
-5.5663080225257859  163.91430321096195  7.8789854844383722  0
-8.6102257230104104  164.01982972466979  4.3504264462734925  0
-5.57061518105525  180.08167507217073  -7.8759408181005677  0
-8.9597241015239018  172.35495698243338  -3.5756875269237245  0
-9.6255959894671275  164.5747904213963  0.64038981345779922  0
-2.2283266971753699  163.45169583683418  9.3859872893734835  0
-2.2302678483766591  180.54880645250981  -9.3855262287270182  0
-8.6150442588216833  179.98429439567087  -4.3408766031954542  0
-9.6262295717988149  179.41750142621893  -0.63079433784092298  0
9.5871036549676969  171.89554872680318  -1.0722130266550876  0
7.9915050231852778  171.86074888481028  -5.4035215119428051  0
6.7028164124086871  171.45419458559445  6.9378994953205249  0
9.5491286648527485  164.59799158893588  1.3697952429875913  0
4.0230009588681357  164.62108365831125  8.7679906792018443  0
3.292775389558972  164.17303856116777  -9.0675149572272336  0
9.02096894499733  179.07133988033397  -3.4182329585646682  0
3.8705697636674947  171.95303173111691  -8.8363390026756949  0
9.1540177538474925  171.63796771118672  3.0440361738765138  0
2.9224236068403218  172.32524244985501  9.1935650064491803  0
9.6337760677591682  179.20475542943038  0.50254944223878362  0
9.2460583573124744  164.77854288397572  -2.7518361358911059  0
7.8062736049897046  164.57794505389393  5.6678293613750403  0
6.5592510859603097  178.71084409930543  -7.0737841681064113  0
3.0254325433103757  179.94626147430822  -9.160183141810176  0
6.0481570549879278  178.88959927766098  7.5154503194302276  0
8.6050336136919174  178.95395433443454  4.3606873050995203  0
6.9061770617843745  165.07004696392266  -6.7354966896961432  0
2.7291173503472481  180.33031121061703  9.2527896200906969  0
14.276593779079839  157.61563291614974  0.69550941701110669  0
9.5897045336497868  157.26119500990927  9.7123565210776892  0
5.7715451164967959  157.47235443181356  12.796208872338381  0
7.979031636067897  157.55598262565002  -11.731413783129794  0
13.422085722549909  157.31010407445922  -2.9394595693237835  0
11.022112509982279  157.11589042446957  -7.5728682293327942  0
12.691714939426271  157.18629881839905  4.6232335608810802  0
4.1094397322971403  157.30526108041224  -13.101829078625178  0
Triangles
684
79 41 40  1
1 7 92  1
37 84 83  1
34 87 86  1
46 74 73  1
41 78 42  1
88 33 32  1
70 49 5  1
84 37 36  1
33 87 2  1
32 89 88  1
89 32 31  1
29 92 91  1
30 90 31  1
92 29 1  1
29 91 30  1
58 7 1  1
59 57 60  1
83 38 37  1
34 86 35  1
36 85 84  1
87 34 2  1
87 33 88  1
82 3 38  1
3 82 81  1
39 81 80  1
39 80 40  1
38 83 82  1
79 40 80  1
81 39 3  1
78 41 79  1
43 77 76  1
43 76 4  1
85 36 35  1
35 86 85  1
77 43 42  1
42 78 77  1
4 76 8  1
44 8 75  1
8 44 4  1
73 47 46  1
74 46 45  1
45 75 74  1
75 45 44  1
47 73 72  1
72 48 47  1
5 71 70  1
57 59 58  1
50 69 68  1
69 50 49  1
49 70 69  1
71 5 48  1
48 72 71  1
64 54 6  1
50 68 51  1
89 31 90  1
90 30 91  1
67 52 51  1
52 67 66  1
63 55 54  1
52 66 53  1
53 66 65  1
51 68 67  1
6 65 64  1
65 6 53  1
56 60 57  1
54 64 63  1
7 58 59  1
60 56 61  1
61 56 62  1
55 63 62  1
55 62 56  1
30 9 31  2
94 29 1  2
32 93 33  2
93 2 33  2
29 94 30  2
9 30 94  2
9 32 31  2
32 9 93  2
263 105 104  3
263 262 105  3
263 93 2  3
105 262 106  3
11 264 100  3
264 101 100  3
264 11 99  3
95 262 96  3
93 263 104  3
103 263 2  3
102 103 12  3
263 264 262  3
93 104 9  3
96 262 97  3
10 262 95  3
97 264 98  3
262 10 106  3
264 263 101  3
263 103 102  3
102 101 263  3
264 99 98  3
264 97 262  3
270 111 273  4
116 117 267  4
10 266 95  4
266 272 96  4
118 117 17  4
115 267 266  4
123 272 122  4
15 270 109  4
120 121 266  4
125 265 124  4
117 116 16  4
266 96 95  4
267 118 119  4
123 124 265  4
99 265 269  4
272 121 122  4
121 272 266  4
97 96 272  4
118 267 117  4
11 269 114  4
128 129 268  4
125 126 269  4
114 268 113  4
107 108 271  4
131 132 270  4
111 270 110  4
107 134 13  4
108 107 14  4
269 265 125  4
112 273 111  4
127 269 126  4
129 273 268  4
268 269 127  4
131 273 130  4
273 131 270  4
134 271 133  4
132 271 270  4
271 134 107  4
265 99 98  4
98 97 265  4
266 10 115  4
120 267 119  4
267 120 266  4
267 115 116  4
112 113 268  4
268 127 128  4
269 268 114  4
269 11 99  4
109 271 108  4
270 15 110  4
271 109 270  4
271 132 133  4
272 123 265  4
265 97 272  4
273 112 268  4
273 129 130  4
277 105 275  5
135 136 18  5
277 137 136  5
137 277 275  5
275 138 137  5
274 10 115  5
274 115 116  5
135 277 136  5
104 94 9  5
94 277 1  5
276 19 138  5
10 274 106  5
274 116 16  5
276 138 275  5
16 276 274  5
19 276 140  5
274 276 275  5
106 275 105  5
105 277 104  5
275 106 274  5
276 16 139  5
139 140 276  5
277 135 1  5
277 94 104  5
137 279 136  6
147 279 148  6
279 149 148  6
280 279 137  6
138 281 280  6
146 279 6  6
150 280 278  6
144 278 143  6
136 146 18  6
279 280 149  6
147 148 21  6
19 281 138  6
281 19 141  6
145 278 144  6
138 280 137  6
20 278 145  6
143 281 142  6
278 20 150  6
279 147 6  6
279 146 136  6
281 143 278  6
280 150 149  6
141 142 281  6
281 278 280  6
285 150 283  7
283 158 159  7
284 149 148  7
22 282 159  7
283 284 158  7
282 22 155  7
151 285 152  7
149 284 283  7
157 284 5  7
158 157 23  7
285 151 150  7
156 284 148  7
156 148 21  7
282 285 283  7
150 151 20  7
282 155 154  7
154 285 282  7
159 282 283  7
283 150 149  7
284 156 5  7
284 157 158  7
285 154 153  7
153 152 285  7
14 288 286  8
286 15 109  8
287 159 158  8
15 286 166  8
286 287 165  8
163 287 4  8
162 287 158  8
164 163 24  8
286 165 166  8
287 162 4  8
287 288 159  8
162 158 23  8
286 109 108  8
160 288 161  8
22 288 160  8
286 108 14  8
288 287 286  8
287 163 164  8
164 165 287  8
288 14 161  8
288 22 159  8
165 291 164  9
168 291 102  9
291 101 102  9
100 292 289  9
292 291 165  9
290 15 110  9
167 291 3  9
15 290 166  9
113 289 112  9
164 167 24  9
291 292 101  9
168 102 12  9
290 112 289  9
114 289 113  9
11 289 114  9
112 290 111  9
289 11 100  9
292 166 290  9
166 292 165  9
290 110 111  9
291 168 3  9
291 167 164  9
292 290 289  9
292 100 101  9
38 168 3  10
168 38 37  10
37 12 168  10
12 37 36  10
35 12 36  10
12 35 103  10
103 35 34  10
2 103 34  10
43 163 4  11
42 24 163  11
24 42 41  11
3 167 39  11
42 163 43  11
40 39 167  11
40 24 41  11
24 40 167  11
48 157 5  12
23 47 46  12
4 162 44  12
45 23 46  12
47 157 48  12
45 44 162  12
47 23 157  12
23 45 162  12
52 147 53  13
53 147 6  13
52 21 147  13
21 50 156  13
50 21 51  13
5 156 49  13
50 49 156  13
21 52 51  13
57 18 135  14
55 54 146  14
57 135 58  14
58 135 1  14
18 57 56  14
6 146 54  14
55 18 56  14
18 55 146  14
178 196 195  15
184 189 185  15
198 175 199  15
197 177 176  15
174 199 175  15
187 170 26  15
175 198 176  15
179 195 180  15
176 198 197  15
177 196 178  15
171 202 172  15
190 184 191  15
191 183 182  15
180 193 181  15
178 195 179  15
185 188 186  15
173 202 201  15
191 184 183  15
186 188 169  15
186 169 25  15
182 192 191  15
194 180 195  15
169 188 13  15
189 184 190  15
188 185 189  15
193 182 181  15
193 180 194  15
192 182 193  15
171 203 202  15
200 174 173  15
173 201 200  15
196 177 197  15
199 174 200  15
170 204 203  15
202 173 172  15
203 171 170  15
204 170 187  15
187 17 204  15
211 127 212  16
221 118 187  16
126 212 127  16
128 210 129  16
207 131 208  16
169 205 25  16
210 128 211  16
129 209 130  16
214 125 215  16
213 126 125  16
121 218 217  16
221 119 118  16
125 214 213  16
123 217 216  16
120 218 121  16
119 221 220  16
221 187 26  16
206 133 207  16
205 134 206  16
120 220 219  16
217 122 121  16
217 123 122  16
220 120 119  16
120 219 218  16
187 118 17  16
123 216 215  16
123 215 124  16
215 125 124  16
209 129 210  16
130 209 208  16
212 126 213  16
127 211 128  16
208 131 130  16
132 207 133  16
134 205 169  16
134 169 13  16
131 207 132  16
133 206 134  16
212 308 211  17
299 303 294  17
229 228 305  17
300 298 295  17
216 217 304  17
218 304 217  17
296 216 304  17
214 215 296  17
214 311 213  17
297 298 307  17
303 299 222  17
235 234 314  17
295 302 305  17
306 297 308  17
307 206 207  17
307 308 297  17
314 315 310  17
307 298 312  17
25 312 241  17
26 299 221  17
221 299 220  17
305 226 300  17
28 300 224  17
224 300 225  17
302 229 305  17
308 307 209  17
296 310 293  17
300 28 242  17
231 315 232  17
231 230 302  17
293 315 302  17
304 219 299  17
309 239 238  17
209 307 208  17
239 313 240  17
299 26 222  17
294 296 304  17
309 314 301  17
309 303 313  17
27 313 223  17
308 209 210  17
311 308 212  17
227 305 228  17
206 312 205  17
298 300 242  17
212 213 311  17
304 299 294  17
306 295 297  17
301 303 309  17
315 314 233  17
297 295 298  17
238 237 309  17
219 304 218  17
219 220 299  17
226 305 227  17
226 225 300  17
236 309 237  17
314 309 236  17
305 300 295  17
311 293 306  17
301 294 303  17
239 309 313  17
306 302 295  17
216 296 215  17
311 214 296  17
229 302 230  17
293 311 296  17
302 306 293  17
206 307 312  17
207 208 307  17
210 211 308  17
308 311 306  17
303 222 223  17
298 242 241  17
233 232 315  17
233 314 234  17
310 296 294  17
310 294 301  17
298 241 312  17
312 25 205  17
303 223 313  17
313 27 240  17
310 301 314  17
314 236 235  17
315 231 302  17
315 293 310  17
321 170 171  18
180 328 319  18
26 321 222  18
177 327 176  18
327 178 319  18
320 325 318  18
330 245 244  18
181 182 328  18
172 333 321  18
183 328 182  18
179 180 319  18
319 178 179  18
333 172 173  18
186 320 185  18
319 316 327  18
327 317 333  18
327 175 176  18
248 329 322  18
321 26 170  18
321 323 222  18
25 241 186  18
322 250 249  18
27 330 243  18
250 326 251  18
320 183 184  18
184 185 320  18
326 250 322  18
247 246 329  18
331 318 325  18
317 316 322  18
258 334 259  18
328 324 319  18
332 255 254  18
175 327 333  18
328 183 320  18
320 186 241  18
28 334 242  18
332 318 331  18
334 257 331  18
331 325 334  18
254 253 332  18
252 251 326  18
330 329 245  18
329 317 322  18
325 320 241  18
326 322 316  18
328 320 318  18
334 28 259  18
329 248 247  18
245 329 246  18
171 172 321  18
333 323 321  18
249 248 322  18
244 243 330  18
323 333 317  18
317 329 323  18
255 331 256  18
332 331 255  18
318 332 324  18
222 323 223  18
319 324 316  18
253 326 332  18
178 327 177  18
316 317 327  18
325 242 334  18
328 180 181  18
325 241 242  18
329 330 323  18
330 27 223  18
223 323 330  18
257 334 258  18
257 256 331  18
326 253 252  18
326 324 332  18
174 175 333  18
333 173 174  18
324 328 318  18
316 324 326  18
243 59 260  19
244 60 243  19
258 74 73  19
72 255 256  19
257 73 72  19
254 71 70  19
247 64 63  19
67 250 251  19
252 69 68  19
251 68 67  19
71 254 255  19
63 246 247  19
246 62 245  19
62 246 63  19
60 244 61  19
28 261 259  19
245 61 244  19
243 260 27  19
249 64 248  19
250 65 249  19
253 70 69  19
61 245 62  19
7 260 59  19
59 243 60  19
250 66 65  19
66 250 67  19
64 249 65  19
64 247 248  19
255 72 71  19
68 251 252  19
69 252 253  19
73 257 258  19
75 261 8  19
70 253 254  19
72 256 257  19
75 259 261  19
258 75 74  19
75 258 259  19
84 231 232  20
224 261 28  20
224 77 76  20
237 89 236  20
86 233 234  20
232 85 84  20
234 87 86  20
233 86 85  20
85 232 233  20
227 80 79  20
226 79 78  20
230 83 82  20
82 229 230  20
229 82 81  20
81 228 229  20
225 78 77  20
88 236 89  20
235 88 87  20
224 76 261  20
80 227 228  20
79 226 227  20
78 225 226  20
261 76 8  20
80 228 81  20
77 224 225  20
238 90 237  20
83 230 231  20
83 231 84  20
236 88 235  20
239 91 238  20
240 92 239  20
87 234 235  20
260 240 27  20
89 237 90  20
91 239 92  20
90 238 91  20
92 240 260  20
92 260 7  20
341 195 335  21
153 341 152  21
195 196 335  21
107 161 14  21
337 107 188  21
192 193 336  21
341 336 193  21
107 337 161  21
195 341 194  21
336 190 191  21
161 337 160  21
190 336 337  21
107 13 188  21
155 336 154  21
337 188 189  21
155 160 337  21
20 335 145  21
160 155 22  21
335 152 341  21
152 335 151  21
338 19 141  21
339 143 144  21
342 140 338  21
143 339 340  21
199 200 340  21
196 339 335  21
204 342 203  21
201 202 338  21
117 204 17  21
117 16 139  21
198 339 197  21
340 198 199  21
202 342 338  21
340 339 198  21
201 340 200  21
142 338 141  21
342 202 203  21
19 338 140  21
144 145 339  21
335 20 151  21
153 154 336  21
336 191 192  21
337 189 190  21
336 155 337  21
340 201 338  21
140 342 139  21
145 335 339  21
339 196 197  21
340 338 142  21
142 143 340  21
336 341 153  21
341 193 194  21
342 204 117  21
117 139 342  21
Edges
281
1 29  1
29 30  1
30 31  1
31 32  1
32 33  1
33 2  1
2 34  2
34 35  2
35 36  2
36 37  2
37 38  2
38 3  2
3 39  3
39 40  3
40 41  3
41 42  3
42 43  3
43 4  3
4 44  4
44 45  4
45 46  4
46 47  4
47 48  4
48 5  4
5 49  5
49 50  5
50 51  5
51 52  5
52 53  5
53 6  5
6 54  6
54 55  6
55 56  6
56 57  6
57 58  6
58 1  6
7 59  7
59 60  7
60 61  7
61 62  7
62 63  7
63 64  7
64 65  7
65 66  7
66 67  7
67 68  7
68 69  7
69 70  7
70 71  7
71 72  7
72 73  7
73 74  7
74 75  7
75 8  7
8 76  8
76 77  8
77 78  8
78 79  8
79 80  8
80 81  8
81 82  8
82 83  8
83 84  8
84 85  8
85 86  8
86 87  8
87 88  8
88 89  8
89 90  8
90 91  8
91 92  8
92 7  8
9 93  9
93 2  9
1 94  10
94 9  10
10 95  11
95 96  11
96 97  11
97 98  11
98 99  11
99 11  11
11 100  12
100 101  12
101 102  12
102 12  12
12 103  13
103 2  13
9 104  14
104 105  14
105 106  14
106 10  14
13 107  15
107 14  15
14 108  16
108 109  16
109 15  16
15 110  17
110 111  17
111 112  17
112 113  17
113 114  17
114 11  17
10 115  18
115 116  18
116 16  18
17 117  19
117 16  19
17 118  20
118 119  20
119 120  20
120 121  20
121 122  20
122 123  20
123 124  20
124 125  20
125 126  20
126 127  20
127 128  20
128 129  20
129 130  20
130 131  20
131 132  20
132 133  20
133 134  20
134 13  20
1 135  21
135 18  21
18 136  22
136 137  22
137 138  22
138 19  22
16 139  23
139 140  23
140 19  23
19 141  24
141 142  24
142 143  24
143 144  24
144 145  24
145 20  24
18 146  25
146 6  25
6 147  26
147 21  26
21 148  27
148 149  27
149 150  27
150 20  27
20 151  28
151 152  28
152 153  28
153 154  28
154 155  28
155 22  28
21 156  29
156 5  29
5 157  30
157 23  30
23 158  31
158 159  31
159 22  31
22 160  32
160 161  32
161 14  32
23 162  33
162 4  33
4 163  34
163 24  34
24 164  35
164 165  35
165 166  35
166 15  35
24 167  36
167 3  36
3 168  37
168 12  37
25 169  38
169 13  38
26 170  39
170 171  39
171 172  39
172 173  39
173 174  39
174 175  39
175 176  39
176 177  39
177 178  39
178 179  39
179 180  39
180 181  39
181 182  39
182 183  39
183 184  39
184 185  39
185 186  39
186 25  39
17 187  40
187 26  40
13 188  41
188 189  41
189 190  41
190 191  41
191 192  41
192 193  41
193 194  41
194 195  41
195 196  41
196 197  41
197 198  41
198 199  41
199 200  41
200 201  41
201 202  41
202 203  41
203 204  41
204 17  41
25 205  42
205 206  42
206 207  42
207 208  42
208 209  42
209 210  42
210 211  42
211 212  42
212 213  42
213 214  42
214 215  42
215 216  42
216 217  42
217 218  42
218 219  42
219 220  42
220 221  42
221 26  42
26 222  43
222 223  43
223 27  43
28 224  44
224 225  44
225 226  44
226 227  44
227 228  44
228 229  44
229 230  44
230 231  44
231 232  44
232 233  44
233 234  44
234 235  44
235 236  44
236 237  44
237 238  44
238 239  44
239 240  44
240 27  44
25 241  45
241 242  45
242 28  45
27 243  46
243 244  46
244 245  46
245 246  46
246 247  46
247 248  46
248 249  46
249 250  46
250 251  46
251 252  46
252 253  46
253 254  46
254 255  46
255 256  46
256 257  46
257 258  46
258 259  46
259 28  46
27 260  47
260 7  47
8 261  48
261 28  48
End
