MeshVersionFormatted 1

Dimension
3

Vertices
921
35  -1.22460635382238e-15  -30  0
15  -6.9829626776862705e-14  -30  0
15  6.9829626776862705e-14  -50  0
35  -1.22460635382238e-15  -50  0
30  -6.1230317691118902e-16  30  0
20  3.4914813388431302e-14  30  0
20  6.1230317691118902e-16  50  0
30  0  50  0
47.071067811865497  -25  32.928932188134503  0
47.071067811865497  25  32.928932188134503  0
40  25  50  0
40  -25  50  0
-35  25  50  0
-35  -25  50  0
-45.606601717798199  25  45.606601717798199  0
-45.606601717798199  -25  45.606601717798199  0
-50  25  35  0
-50  -25  35  0
-50  25  -35  0
-50  -25  -35  0
-45.606601717798199  -25  -45.606601717798199  0
-45.606601717798199  25  -45.606601717798199  0
-35  25  -50  0
-35  -25  -50  0
40  -25  -50  0
40  25  -50  0
47.071067811865497  25  -32.928932188134503  0
47.071067811865497  -25  -32.928932188134503  0
40  25  -30  0
40  -25  -30  0
40  -25  30  0
40  25  30  0
0  25  -30  0
0  -25  -30  0
-30  -25  -8.3613214409611202e-14  0
0  -25  30  0
0  25  30  0
-30  25  9.0960852532545504e-14  0
34.848077530122083  -1.7364817766693033  -30  0
34.396926207859082  -3.420201433256687  -30  0
33.660254037844389  -4.9999999999999991  -30  0
32.660444431189781  -6.4278760968653925  -30  0
31.427876096865393  -7.6604444311897799  -30  0
30  -8.6602540378443855  -30  0
28.42020143325669  -9.3969262078590834  -30  0
26.736481776669304  -9.8480775301220795  -30  0
25  -10  -30  0
23.263518223330696  -9.8480775301220795  -30  0
21.579798566743314  -9.3969262078590852  -30  0
20  -8.6602540378443873  -30  0
18.572123903134607  -7.6604444311897799  -30  0
17.339555568810219  -6.4278760968653952  -30  0
16.339745962155611  -4.9999999999999991  -30  0
15.603073792140917  -3.4202014332566888  -30  0
15.15192246987792  -1.7364817766693073  -30  0
15  1.22460635382238e-15  -43.333333333333336  0
15  1.22460635382238e-15  -36.666666666666664  0
15.151922469877919  -1.7364817766693004  -50  0
15.603073792140915  -3.4202014332566866  -50  0
16.339745962155611  -4.9999999999999982  -50  0
17.339555568810219  -6.4278760968653925  -50  0
18.572123903134603  -7.660444431189779  -50  0
19.999999999999996  -8.6602540378443837  -50  0
21.579798566743314  -9.3969262078590852  -50  0
23.263518223330696  -9.8480775301220795  -50  0
24.999999999999996  -10  -50  0
26.736481776669301  -9.8480775301220813  -50  0
28.420201433256683  -9.3969262078590852  -50  0
30  -8.6602540378443855  -50  0
31.427876096865393  -7.6604444311897808  -50  0
32.660444431189781  -6.4278760968653961  -50  0
33.660254037844382  -5.0000000000000044  -50  0
34.396926207859082  -3.4202014332566861  -50  0
34.848077530122083  -1.7364817766693039  -50  0
35  -1.22460635382238e-15  -35  0
35  -1.22460635382238e-15  -40  0
35  -1.22460635382238e-15  -45  0
34.848077530122083  1.7364817766693033  -50  0
34.396926207859082  3.420201433256687  -50  0
33.660254037844389  4.9999999999999991  -50  0
32.660444431189781  6.4278760968653925  -50  0
31.427876096865393  7.6604444311897799  -50  0
30  8.6602540378443855  -50  0
28.42020143325669  9.3969262078590834  -50  0
26.736481776669304  9.8480775301220795  -50  0
25  10  -50  0
23.263518223330696  9.8480775301220795  -50  0
21.579798566743314  9.3969262078590852  -50  0
20  8.6602540378443873  -50  0
18.572123903134607  7.6604444311897799  -50  0
17.339555568810219  6.4278760968653952  -50  0
16.339745962155611  4.9999999999999991  -50  0
15.603073792140917  3.4202014332566888  -50  0
15.15192246987792  1.7364817766693073  -50  0
15.151922469877919  1.7364817766693004  -30  0
15.603073792140915  3.4202014332566866  -30  0
16.339745962155611  4.9999999999999982  -30  0
17.339555568810219  6.4278760968653925  -30  0
18.572123903134603  7.660444431189779  -30  0
19.999999999999996  8.6602540378443837  -30  0
21.579798566743314  9.3969262078590852  -30  0
23.263518223330696  9.8480775301220795  -30  0
24.999999999999996  10  -30  0
26.736481776669301  9.8480775301220813  -30  0
28.420201433256683  9.3969262078590852  -30  0
30  8.6602540378443855  -30  0
31.427876096865393  7.6604444311897808  -30  0
32.660444431189781  6.4278760968653961  -30  0
33.660254037844382  5.0000000000000044  -30  0
34.396926207859082  3.4202014332566861  -30  0
34.848077530122083  1.7364817766693039  -30  0
29.924038765061042  0.86824088833465163  30  0
29.698463103929541  1.7101007166283435  30  0
29.330127018922195  2.4999999999999996  30  0
28.83022221559489  3.2139380484326963  30  0
28.213938048432695  3.83022221559489  30  0
27.5  4.3301270189221928  30  0
26.710100716628343  4.6984631039295417  30  0
25.86824088833465  4.9240387650610398  30  0
25  5  30  0
24.13175911166535  4.9240387650610398  30  0
23.289899283371657  4.6984631039295426  30  0
22.5  4.3301270189221936  30  0
21.786061951567305  3.83022221559489  30  0
21.16977778440511  3.2139380484326976  30  0
20.669872981077805  2.4999999999999996  30  0
20.301536896070459  1.7101007166283444  30  0
20.075961234938958  0.86824088833465363  30  0
20  6.1230317691118902e-16  35  0
20  6.1230317691118902e-16  40  0
20  6.1230317691118902e-16  45  0
20.075961234938958  0.86824088833465018  50  0
20.301536896070459  1.7101007166283433  50  0
20.669872981077805  2.4999999999999991  50  0
21.16977778440511  3.2139380484326963  50  0
21.786061951567302  3.8302222155948895  50  0
22.499999999999996  4.3301270189221919  50  0
23.289899283371657  4.6984631039295426  50  0
24.13175911166535  4.9240387650610398  50  0
25  5  50  0
25.86824088833465  4.9240387650610407  50  0
26.71010071662834  4.6984631039295426  50  0
27.5  4.3301270189221928  50  0
28.213938048432695  3.8302222155948904  50  0
28.83022221559489  3.213938048432698  50  0
29.330127018922191  2.5000000000000022  50  0
29.698463103929541  1.7101007166283431  50  0
29.924038765061042  0.86824088833465196  50  0
30  -6.1230317691118902e-16  45  0
30  -6.1230317691118902e-16  40  0
30  -6.1230317691118902e-16  35  0
29.924038765061042  -0.86824088833465163  50  0
29.698463103929541  -1.7101007166283435  50  0
29.330127018922195  -2.4999999999999996  50  0
28.83022221559489  -3.2139380484326963  50  0
28.213938048432695  -3.83022221559489  50  0
27.5  -4.3301270189221928  50  0
26.710100716628343  -4.6984631039295417  50  0
25.86824088833465  -4.9240387650610398  50  0
25  -5  50  0
24.13175911166535  -4.9240387650610398  50  0
23.289899283371657  -4.6984631039295426  50  0
22.5  -4.3301270189221936  50  0
21.786061951567305  -3.83022221559489  50  0
21.16977778440511  -3.2139380484326976  50  0
20.669872981077805  -2.4999999999999996  50  0
20.301536896070459  -1.7101007166283444  50  0
20.075961234938958  -0.86824088833465363  50  0
20.075961234938958  -0.86824088833465018  30  0
20.301536896070459  -1.7101007166283433  30  0
20.669872981077805  -2.4999999999999991  30  0
21.16977778440511  -3.2139380484326963  30  0
21.786061951567302  -3.8302222155948895  30  0
22.499999999999996  -4.3301270189221919  30  0
23.289899283371657  -4.6984631039295426  30  0
24.13175911166535  -4.9240387650610398  30  0
25  -5  30  0
25.86824088833465  -4.9240387650610407  30  0
26.71010071662834  -4.6984631039295426  30  0
27.5  -4.3301270189221928  30  0
28.213938048432695  -3.8302222155948904  30  0
28.83022221559489  -3.213938048432698  30  0
29.330127018922191  -2.5000000000000022  30  0
29.698463103929541  -1.7101007166283431  30  0
29.924038765061042  -0.86824088833465196  30  0
47.071067811865497  -18.75  32.928932188134503  0
47.071067811865497  -12.5  32.928932188134503  0
47.071067811865497  -6.25  32.928932188134503  0
47.071067811865497  0  32.928932188134503  0
47.071067811865497  6.25  32.928932188134503  0
47.071067811865497  12.5  32.928932188134503  0
47.071067811865497  18.75  32.928932188134503  0
48.155608689592597  25  34.213287038201941  0
49.009688679024194  25  35.661162608824419  0
49.609173219450994  25  37.2316448857515  0
49.937122098932427  25  38.880355238966921  0
49.984268150178167  25  40.56070447237191  0
49.749279121818233  25  42.225209339563143  0
49.238795325112875  25  43.826834323650893  0
48.467241992282844  25  45.320320765153362  0
47.456421648831665  25  46.663465779520038  0
46.234898018587337  25  47.8183148246803  0
44.837188871052405  25  48.752234219087534  0
43.302790619551672  25  49.438833303083676  0
41.67506223304737  25  49.85871018518236  0
40  16.666666666666664  50  0
40  8.3333333333333321  50  0
40  -1.7763568394002505e-15  50  0
40  -8.3333333333333357  50  0
40  -16.666666666666671  50  0
41.675062233047356  -25  49.85871018518236  0
43.302790619551672  -25  49.438833303083676  0
44.83718887105239  -25  48.752234219087541  0
46.23489801858733  -25  47.8183148246803  0
47.45642164883165  -25  46.663465779520045  0
48.467241992282837  -25  45.320320765153369  0
49.238795325112868  -25  43.826834323650907  0
49.749279121818233  -25  42.22520933956315  0
49.984268150178167  -25  40.560704472371924  0
49.937122098932427  -25  38.880355238966928  0
49.609173219450994  -25  37.231644885751514  0
49.009688679024194  -25  35.661162608824419  0
48.155608689592604  -25  34.213287038201948  0
29.285714285714285  25  50  0
18.571428571428573  25  50  0
7.8571428571428594  25  50  0
-2.8571428571428541  25  50  0
-13.571428571428568  25  50  0
-24.285714285714281  25  50  0
-35  -16.666666666666664  50  0
-35  -8.3333333333333321  50  0
-35  1.7763568394002505e-15  50  0
-35  8.3333333333333357  50  0
-35  16.666666666666671  50  0
-24.285714285714285  -25  50  0
-13.571428571428573  -25  50  0
-2.8571428571428594  -25  50  0
7.8571428571428541  -25  50  0
18.571428571428569  -25  50  0
29.285714285714281  -25  50  0
-45.606601717798199  16.666666666666664  45.606601717798199  0
-45.606601717798199  8.3333333333333321  45.606601717798199  0
-45.606601717798199  -1.7763568394002505e-15  45.606601717798199  0
-45.606601717798199  -8.3333333333333357  45.606601717798199  0
-45.606601717798199  -16.666666666666671  45.606601717798199  0
-43.816778784387097  -25  47.135254915624216  0
-41.809857496093201  -25  48.365097862825522  0
-39.635254915624216  -25  49.265847744427305  0
-37.346516975603464  -25  49.81532510892707  0
-37.346516975603457  25  49.81532510892707  0
-39.635254915624209  25  49.265847744427305  0
-41.809857496093201  25  48.365097862825522  0
-43.816778784387097  25  47.135254915624216  0
-47.135254915624216  25  43.816778784387097  0
-48.365097862825522  25  41.809857496093201  0
-49.265847744427305  25  39.635254915624216  0
-49.81532510892707  25  37.346516975603464  0
-50  16.666666666666664  35  0
-50  8.3333333333333321  35  0
-50  -1.7763568394002505e-15  35  0
-50  -8.3333333333333357  35  0
-50  -16.666666666666671  35  0
-49.81532510892707  -25  37.346516975603457  0
-49.265847744427305  -25  39.635254915624209  0
-48.365097862825522  -25  41.809857496093201  0
-47.135254915624216  -25  43.816778784387097  0
-50  25  23.333333333333336  0
-50  25  11.666666666666668  0
-50  25  1.7763568394002505e-15  0
-50  25  -11.666666666666664  0
-50  25  -23.333333333333329  0
-50  -16.666666666666664  -35  0
-50  -8.3333333333333321  -35  0
-50  1.7763568394002505e-15  -35  0
-50  8.3333333333333357  -35  0
-50  16.666666666666671  -35  0
-50  -25  23.333333333333336  0
-50  -25  11.666666666666668  0
-50  -25  1.7763568394002505e-15  0
-50  -25  -11.666666666666664  0
-50  -25  -23.333333333333329  0
-45.606601717798199  -16.666666666666664  -45.606601717798199  0
-45.606601717798199  -8.3333333333333321  -45.606601717798199  0
-45.606601717798199  1.7763568394002505e-15  -45.606601717798199  0
-45.606601717798199  8.3333333333333357  -45.606601717798199  0
-45.606601717798199  16.666666666666671  -45.606601717798199  0
-47.135254915624216  -25  -43.816778784387097  0
-48.365097862825522  -25  -41.809857496093201  0
-49.265847744427305  -25  -39.635254915624216  0
-49.81532510892707  -25  -37.346516975603464  0
-49.81532510892707  25  -37.346516975603457  0
-49.265847744427305  25  -39.635254915624209  0
-48.365097862825522  25  -41.809857496093201  0
-47.135254915624216  25  -43.816778784387097  0
-43.816778784387097  25  -47.135254915624216  0
-41.809857496093201  25  -48.365097862825522  0
-39.635254915624216  25  -49.265847744427305  0
-37.346516975603464  25  -49.81532510892707  0
-35  16.666666666666664  -50  0
-35  8.3333333333333321  -50  0
-35  -1.7763568394002505e-15  -50  0
-35  -8.3333333333333357  -50  0
-35  -16.666666666666671  -50  0
-37.346516975603457  -25  -49.81532510892707  0
-39.635254915624209  -25  -49.265847744427305  0
-41.809857496093201  -25  -48.365097862825522  0
-43.816778784387097  -25  -47.135254915624216  0
40  -19.444444444444443  -50  0
40  -13.888888888888889  -50  0
40  -8.3333333333333339  -50  0
40  -2.7777777777777786  -50  0
40  2.7777777777777768  -50  0
40  8.3333333333333321  -50  0
40  13.888888888888888  -50  0
40  19.444444444444443  -50  0
29.285714285714285  -25  -50  0
18.571428571428573  -25  -50  0
7.8571428571428594  -25  -50  0
-2.8571428571428541  -25  -50  0
-13.571428571428568  -25  -50  0
-24.285714285714281  -25  -50  0
-26.666666666666664  25  -50  0
-18.333333333333332  25  -50  0
-9.9999999999999982  25  -50  0
-1.6666666666666643  25  -50  0
6.6666666666666696  25  -50  0
15.000000000000004  25  -50  0
23.333333333333336  25  -50  0
31.666666666666671  25  -50  0
47.071067811865497  18.75  -32.928932188134503  0
47.071067811865497  12.5  -32.928932188134503  0
47.071067811865497  6.25  -32.928932188134503  0
47.071067811865497  0  -32.928932188134503  0
47.071067811865497  -6.25  -32.928932188134503  0
47.071067811865497  -12.5  -32.928932188134503  0
47.071067811865497  -18.75  -32.928932188134503  0
48.155608689592597  -25  -34.213287038201941  0
49.009688679024194  -25  -35.661162608824419  0
49.609173219450994  -25  -37.2316448857515  0
49.937122098932427  -25  -38.880355238966921  0
49.984268150178167  -25  -40.56070447237191  0
49.749279121818233  -25  -42.225209339563143  0
49.238795325112875  -25  -43.826834323650893  0
48.467241992282844  -25  -45.320320765153362  0
47.456421648831665  -25  -46.663465779520038  0
46.234898018587337  -25  -47.8183148246803  0
44.837188871052405  -25  -48.752234219087534  0
43.302790619551672  -25  -49.438833303083676  0
41.67506223304737  -25  -49.85871018518236  0
41.675062233047356  25  -49.85871018518236  0
43.302790619551672  25  -49.438833303083676  0
44.83718887105239  25  -48.752234219087541  0
46.23489801858733  25  -47.8183148246803  0
47.45642164883165  25  -46.663465779520045  0
48.467241992282844  25  -45.320320765153369  0
49.238795325112868  25  -43.826834323650907  0
49.749279121818233  25  -42.225209339563143  0
49.984268150178167  25  -40.560704472371924  0
49.937122098932427  25  -38.880355238966928  0
49.609173219450994  25  -37.231644885751514  0
49.009688679024194  25  -35.661162608824419  0
48.155608689592604  25  -34.213287038201948  0
45.877852522924734  25  -31.909830056250524  0
44.539904997395467  25  -31.089934758116321  0
43.090169943749473  25  -30.489434837048464  0
41.564344650402312  25  -30.123116594048621  0
40  18.75  -30  0
40  12.5  -30  0
40  6.25  -30  0
40  0  -30  0
40  -6.25  -30  0
40  -12.5  -30  0
40  -18.75  -30  0
41.564344650402305  -25  -30.123116594048621  0
43.090169943749473  -25  -30.489434837048464  0
44.539904997395467  -25  -31.089934758116321  0
45.877852522924726  -25  -31.909830056250524  0
45.877852522924734  -25  31.909830056250527  0
44.539904997395467  -25  31.089934758116321  0
43.090169943749473  -25  30.489434837048464  0
41.564344650402312  -25  30.123116594048625  0
40  -18.75  30  0
40  -12.5  30  0
40  -6.25  30  0
40  0  30  0
40  6.25  30  0
40  12.5  30  0
40  18.75  30  0
41.564344650402305  25  30.123116594048621  0
43.090169943749473  25  30.489434837048464  0
44.539904997395467  25  31.089934758116321  0
45.877852522924726  25  31.909830056250524  0
8  25  -30  0
16  25  -30  0
24  25  -30  0
32  25  -30  0
0  12.500000000000002  -29.999999999999957  0
0  1.7157434800794737e-15  -30  0
0  -12.499999999999998  -30.000000000000043  0
30  -25  -30  0
20  -25  -30  0
10  -25  -30  0
-5.2094453300079095  -25  -29.544232590366331  0
-10.260604299770062  -25  -28.190778623577341  0
-14.999999999999995  -25  -25.980762113533249  0
-19.28362829059618  -25  -22.981333293569428  0
-22.981333293569335  -25  -19.283628290596273  0
-25.980762113533153  -25  -15.000000000000098  0
-28.190778623577248  -25  -10.260604299770153  0
-29.544232590366242  -25  -5.209445330008009  0
-29.544232590366242  -25  5.2094453300078136  0
-28.190778623577252  -25  10.260604299769973  0
-25.980762113533164  -25  14.999999999999906  0
-22.981333293569339  -25  19.283628290596088  0
-19.283628290596184  -25  22.981333293569246  0
-15.000000000000014  -25  25.980762113533064  0
-10.260604299770081  -25  28.190778623577156  0
-5.2094453300079095  -25  29.544232590366153  0
8  -25  30  0
16  -25  30  0
24  -25  30  0
32  -25  30  0
0  12.499999999999998  30.000000000000043  0
0  -1.7157434800794737e-15  30  0
0  -12.500000000000002  29.999999999999957  0
32  25  30  0
24  25  30  0
16  25  30  0
8  25  30  0
-5.2094453300079095  25  29.544232590366331  0
-10.260604299770062  25  28.190778623577341  0
-14.999999999999995  25  25.980762113533249  0
-19.28362829059618  25  22.981333293569428  0
-22.981333293569335  25  19.283628290596273  0
-25.980762113533153  25  15.000000000000098  0
-28.190778623577248  25  10.260604299770153  0
-29.544232590366242  25  5.209445330008009  0
-29.544232590366242  25  -5.2094453300078136  0
-28.190778623577252  25  -10.260604299769973  0
-25.980762113533164  25  -14.999999999999906  0
-22.981333293569339  25  -19.283628290596088  0
-19.283628290596184  25  -22.981333293569246  0
-15.000000000000014  25  -25.980762113533064  0
-10.260604299770081  25  -28.190778623577156  0
-5.2094453300079095  25  -29.544232590366153  0
-30  12.5  4.7317335797006255e-14  0
-30  -1.2827070695398701e-29  3.6738190614671302e-15  0
-30  -12.5  -3.9969697674071991e-14  0
20.02838865569074  -8.6765823133959525  -35.650101046760781  0
30.164785307921289  -8.5630013852083664  -36.993478459326141  0
26.671404385596936  -9.8593309803357005  -35.820516459355673  0
15.406098715233341  -2.8208257901105194  -44.125660972231302  0
17.428109718977979  -6.5319581728731411  -35.517232434467253  0
18.652813060665462  -7.7274328180283174  -44.090918280660347  0
32.430982766938541  -6.6918230040447408  -44.636357370758233  0
30.149275296104214  -8.5723371331819926  -45.90825311949844  0
23.246879481083138  -9.8451291736651516  -35.704684938924458  0
21.584010812424527  -9.3984582709276019  -44.238612974605438  0
15.694702093141586  -3.662162047836826  -35.648666156546561  0
24.91061762910762  -9.9996005316099339  -44.226263987086469  0
34.43153189334933  -3.3235833289891237  -43.791952385686621  0
16.633185748270378  -5.4768986915090956  -43.230513711852844  0
33.017598022201014  -5.9764640009288481  -35.764994224242635  0
27.901337864198954  -9.5698609497612583  -43.823904639985578  0
34.583829964376832  -2.8548560758666608  -34.936519384029488  0
34.471346385425626  3.2083637024634371  -35.822042214337273  0
15.438436331881285  2.9285662397344154  -35.767539422614547  0
19.85084647046402  8.5724102753698848  -45.911042380241476  0
33.146998693665743  5.7988285269879016  -42.536146116098152  0
32.884613770712562  6.1508426810226489  -34.273666151834028  0
22.409693846841719  9.6586911138575253  -33.989134043082935  0
22.416643576616039  9.6605522404136313  -42.937611990390067  0
17.0038592616297  6.0051422374640637  -36.08387087918377  0
15.747785238882472  3.7942748996559192  -44.290555079025417  0
17.586574888815388  6.7112687415165704  -44.85172423214977  0
19.534422703210723  8.374214280326342  -37.681072717319744  0
28.401891616843869  9.4035702489664743  -43.826591981824322  0
34.597663060076044  2.8079999617613476  -44.765552159499236  0
25.526145493361529  9.986148953416194  -37.309169727466298  0
30.935193242070962  8.0481973869479102  -37.282943964805447  0
28.40139320730205  9.4037505416360059  -34.736265066025389  0
25.230739551109529  9.9973376085612795  -45.678438873960616  0
31.221820127436949  7.8287262247328879  -45.607652584599599  0
20.991362797196878  2.9884490586762134  39.47612126678807  0
28.829735146074064  3.2145184259738002  34.002454303757865  0
23.360881874681009  4.7236947161359568  46.476517864026547  0
24.360972364755703  4.9589962372837189  42.201678801175937  0
21.750021131381057  3.7996891127472967  33.752805915444938  0
26.089609210578594  4.8798311208711205  39.992104409962884  0
25.370279077424836  4.9862704905391375  46.848851561033214  0
21.545113334885734  3.6143821230212545  46.35108404600858  0
20.203130400627018  1.4106885009141084  38.549246868174954  0
29.747323172547368  1.5693701588200204  34.143139406080238  0
29.747317185539426  1.5693882693208945  45.856532674314785  0
27.338481330887863  4.4194462396423519  46.11938122322023  0
28.82964912412374  3.2146209086139956  45.996209396504888  0
29.413170497039591  2.3503034195735926  39.999405749581911  0
27.339293026801748  4.4190166479383981  33.876484005068271  0
28.104551963119434  3.9194077496850559  39.997796692918534  0
20.299220418724616  1.7037227850399914  44.922145917964876  0
24.368873681874867  4.9600080212203101  37.756546855511864  0
23.400149262875665  4.7371381253793654  33.51224699325445  0
25.376558818071217  4.9858001821706424  33.142316941870696  0
20.480258008880249  2.1382077386701419  33.34736557659069  0
22.719359037562977  4.4495704062813006  39.932739942613047  0
28.209443513960263  -3.8339890884949583  40.0001167760621  0
29.751494610536867  -1.5566948853385163  45.855234268854133  0
25.830132439459305  -4.9306064670542655  33.638343219891603  0
21.139200212821116  -3.1771410109278242  45.986335510260574  0
24.169867560540695  -4.9306064670542646  46.361656780108405  0
28.860799787178884  -3.1771410109278255  34.013664489739433  0
22.533103234432389  -4.349071205215207  33.950221920438878  0
27.466896765567608  -4.3490712052152096  46.049778079561129  0
27.466900556559736  -4.3490690548720039  33.950352515166337  0
28.860798203737193  -3.1771429350943063  45.986478733914161  0
21.790556486039737  -3.8339890884949575  39.999883223937907  0
20.566485078398248  -2.3116975234521084  39.999909704761862  0
24.169874943200075  -4.9306077100163748  33.638292836752051  0
25.000002803528634  -4.999999999999214  37.879454149324822  0
26.452220109626104  -4.7844599228332489  40.000068844764691  0
29.433514921601752  -2.3116975234521102  40.000090295238145  0
22.533099443440264  -4.349069054872003  46.049647484833663  0
23.547779890373889  -4.7844599228332472  39.999931155235323  0
20.248505028048111  -1.5566937821922209  45.855159429803209  0
25.830125056799922  -4.9306077100163757  46.361707163247956  0
21.139201796262807  -3.1771429350943055  34.013521266085839  0
29.751494971951889  -1.5566937821922227  34.144840570196791  0
20.24850538946313  -1.5566948853385145  34.144765731145874  0
24.999997196471362  -4.999999999999214  42.120545850675185  0
49.553779522160212  -6.2293901384577097  42.953861344401965  0
48.45985666174321  5.4885962065431624  45.332056382181179  0
49.35479657752547  17.474109401067313  43.533805454905206  0
44.61850636917891  5.0448375362282141  48.869577155527423  0
47.166438584804197  17.347846913799067  46.974393020917994  0
49.984651074652284  -17.657854182051711  40.553843766278028  0
48.811131067722108  -18.562090970813426  44.729055857930021  0
49.028641296211305  6.2449591268729572  35.700740023638041  0
49.869115762768551  -5.939434655744332  38.387376652446903  0
49.972276769512433  18.546758764862332  39.255892459222011  0
42.866743010777583  -17.944138746926878  49.580281024592018  0
43.618547951974641  18.424261426250848  49.322344700731684  0
48.460611672336086  -6.0533487788241178  34.669141707948867  0
47.246438217292628  -6.643784933147848  46.891235967731831  0
46.076268732544136  -17.969669521064525  47.94222628045226  0
49.959136031570594  5.9318712318836422  40.903111014589221  0
43.638558077444259  -7.6405337356155671  49.314552867264489  0
48.819243245873352  18.720392478625335  35.286089885231448  0
49.167584702637967  -17.877602539784817  36.005580052127932  0
21.449281198226512  -4.7084992945502862  50  0
31.091186144546388  -5.6298331483737982  50  0
32.540666658333599  6.7124932449440697  50  0
22.908699096223803  -5.7360200708628009  50  0
30.747196552490148  4.1767577049707008  50  0
21.721644222390683  4.8189840139266353  50  0
35.243518468896433  2.6638579591047575  50  0
6.4110647488003414  -11.957891689660546  50  0
34.309867466921375  -3.0103174922120175  50  0
16.710628442735555  -0.084178293360869183  50  0
18.919933889230414  -15.631393941808957  50  0
27.015271596077788  5.654642087654393  50  0
29.520485147786239  -8.4587498297582844  50  0
25.417444165126362  -7.802998421113295  50  0
20.81285008541936  -7.6933280106578312  50  0
-25.404790736326269  12.517164580550382  50  0
30.560425443177262  -3.072255883536076  50  0
30.566853396950343  2.1542640887399331  50  0
24.061814845669733  5.6726697621638396  50  0
27.258906506648579  -7.1627258869699517  50  0
-25.404790736326269  -12.482835419449618  50  0
26.979248043199036  -5.4798424734781523  50  0
32.279704082858807  3.2819497247312146  50  0
8.9277402779743067  0.21326537124281184  50  0
29.011683835348936  -13.553875392053024  50  0
19.129268279356847  0.80107587833351035  50  0
33.074396738013803  14.795601583532051  50  0
23.572415973954097  -7.5529213613295862  50  0
-9.4762599289686964  0.17605346568577124  50  0
22.696782345827344  5.580501794671159  50  0
19.754596894518436  1.8364233159687759  50  0
29.43371305803911  3.5100071606650554  50  0
25.854553963705449  -6.1036669341039911  50  0
19.25585363785807  -0.88610855994732052  50  0
27.088955021613049  -9.4646545963307904  50  0
24.498441048091358  -6.1953968748771899  50  0
25.543955503854651  6.2287314639342508  50  0
34.002529446588049  -9.2850573487100512  50  0
28.591999946776568  -5.6062638614362523  50  0
19.08016042234317  3.0996638671192338  50  0
16.08265842449406  6.0774460792956102  50  0
32.384237013299291  0.7408283853799883  50  0
20.277379027644745  2.7236038095611872  50  0
29.469023093041692  -4.2793291101096598  50  0
22.240895113279457  13.360182376358992  50  0
8.745485247442172  13.541813352293721  50  0
27.582966680223272  8.513453138748531  50  0
31.099888374035121  -1.070710564873514  50  0
24.151726619836555  -10.293048001645024  50  0
19.431962349809922  -3.414813866826524  50  0
23.820118854628966  7.6170046318481539  50  0
20.806956936406419  4.0051443883832354  50  0
15.187957688820983  -6.4405639533355075  50  0
30.793236361791198  0.52772772661716649  50  0
28.985132444802531  5.2437239691978483  50  0
20.904106987842432  6.3623175822550095  50  0
-40.739707226513694  -11.787297784799705  48.858418414592137  0
-40.740044391124172  -20.730466369422658  48.858278767145791  0
-40.739639115328558  3.2581018180971118e-05  48.858446623838852  0
-40.740044681783679  20.730502855552679  48.858278646755771  0
-40.739707527001613  11.787364045988705  48.858418290139795  0
-48.85810732863218  -20.730502924053472  40.740458280321448  0
-48.857939328003532  -3.2711852717720774e-05  40.740863835815389  0
-48.857967540625651  11.787297677040039  40.740795732558844  0
-48.857967668914192  -11.787364178519653  40.740795422877298  0
-48.858107204493948  20.73046633344066  40.740458580004983  0
-50  8.4358478224109703  -21.476868501768035  0
-50  -10.820238340606975  -23.82790939420126  0
-50  -9.1869796373110066  -5.2919356006699703  0
-50  9.4760217889391463  25.151169883501559  0
-50  0.58520584461813641  10.942797759655813  0
-50  -9.2739762761789954  25.151169099847095  0
-50  12.474487402807373  -2.6427602848679945  0
-48.857967540625651  -11.787297677040039  -40.740795732558844  0
-48.857939328003532  3.2711852717720774e-05  -40.740863835815389  0
-48.858107204493948  -20.73046633344066  -40.740458580004983  0
-48.857967668914192  11.787364178519653  -40.740795422877298  0
-48.85810732863218  20.730502924053472  -40.740458280321448  0
-40.740044391124172  20.730466369422658  -48.858278767145791  0
-40.739707527001613  -11.787364045988705  -48.858418290139795  0
-40.739639115328558  -3.258101818129257e-05  -48.858446623838852  0
-40.739707226513694  11.787297784799705  -48.858418414592137  0
-40.740044681783665  -20.730502855552679  -48.858278646755778  0
14.576489874396504  7.6613365054841394  -50  0
23.151153948176859  11.849790823781051  -50  0
12.390576401561274  16.298867897187208  -50  0
23.011161014445083  17.831035444078466  -50  0
35.932259791876341  5.3781796227581404  -50  0
36.085380841316493  -5.3039383194525866  -50  0
-22.536977176469982  -12.522829621796125  -50  0
13.370892116247349  -16.220181185626732  -50  0
30.712489376269016  10.498826490896969  -50  0
12.602990317621808  -1.791451548038846  -50  0
9.7445718105527064  9.8818685659899952  -50  0
8.7223706220109651  1.0798532691976037  -50  0
17.340914471998392  8.8718509326366526  -50  0
12.038919621562657  4.9244169665606448  -50  0
27.089197831327557  12.123149632180473  -50  0
13.190903050344451  1.5556132161845739  -50  0
19.77776359745901  -10.811153301811741  -50  0
34.926687539183973  -17.258323137888947  -50  0
34.764380367904955  9.6657652706696187  -50  0
35.217201134196486  -10.073861846390709  -50  0
32.48224371105151  15.488670618095547  -50  0
18.879795541729312  11.964776922398437  -50  0
10.786371180909985  -9.5322537360077515  -50  0
13.051290473838629  -5.3072007301483399  -50  0
-1.3384873740924654  -13.007869275715649  -50  0
25.145667053367639  -12.261929720099648  -50  0
-1.2389377813153546  13.588711535560581  -50  0
7.4648488642686717  -4.6800991106512102  -50  0
28.381021790435444  -11.262991557645375  -50  0
-21.84955594635997  14.240313320980281  -50  0
21.802950665605042  -12.126613995271486  -50  0
14.598141798934362  10.923331037655863  -50  0
18.77687321434983  -13.35374572444131  -50  0
36.653520694520793  -1.2177172819028637  -50  0
31.419520725331811  -11.760434398316999  -50  0
-13.497377136709689  0.46204092987751377  -50  0
36.154960074043728  2.018609844525598  -50  0
6.0552306351201874  5.9888734669233408  -50  0
16.688055323723763  -10.52050849532599  -50  0
1.0200003580282024  0.55546793353316071  -50  0
28.563874215499752  -15.756134764473421  -50  0
22.223116417371131  -17.091301950318734  -50  0
15.470926911040635  -7.4077819195511889  -50  0
49.985965683862744  19.284555196472837  -39.470387537235361  0
49.182305751174198  -19.52036877694291  -36.039537767892071  0
47.082190549798653  14.433712327166031  -47.059927550360747  0
47.358391030874067  -0.91787111092144114  -46.771564179475234  0
49.800182706588913  6.8217575692671577  -41.989074889861037  0
49.611291462936904  -7.2437339014982642  -42.760991925825962  0
49.951369001809326  -18.765376397838292  -40.98501522314551  0
43.378329039579384  19.202080715508909  -49.412061033606541  0
43.556739843436674  -19.838107717340723  -49.346100881443022  0
43.315484824845207  -8.1597187926463803  -49.434381822685637  0
49.082661049260984  8.2605633540906496  -35.816070236698828  0
49.188964307320944  20.077553245676739  -43.944988587915276  0
48.84223357031555  19.113747878599128  -35.329357058392844  0
49.470040452974992  -6.1490790981569248  -36.787783659368934  0
42.831049218992291  5.8479904961705467  -49.59088944361487  0
47.759515847362756  -17.213336502482509  -46.307924683644082  0
43.826835366557994  -21.874263157011256  -30.761205106873462  0
43.82692077825358  3.2302645164634134  -30.761240486030008  0
43.826861352613676  19.164911069984903  -30.761215870696411  0
43.826848063232916  -15.623253798367495  -30.761210366020315  0
43.82690610386588  -3.1057913594575481  -30.761234407552376  0
43.826874895583224  -9.3705189586346496  -30.761221480436124  0
43.826904161042606  9.982982232747041  -30.761233602791183  0
43.8268343236509  -3.2121747477700948  30.761204674887132  0
43.8268343236509  9.9806429554591496  30.761204674887132  0
43.8268343236509  3.2121745822904679  30.761204674887132  0
43.8268343236509  19.164664119485927  30.761204674887132  0
43.8268343236509  -19.164664175656899  30.761204674887132  0
43.8268343236509  -9.9806430857120052  30.761204674887132  0
12.584315030225454  -2.0477235518641175  -30  0
9.0468190056148963  -14.783443947587079  -30  0
35.236341287220682  6.1417889144600926  -30  0
32.584633328422484  -17.994001099288948  -30  0
35.216119855390211  -12.917382851969272  -30  0
7.2290265271197756  -5.8403507298887973  -30  0
19.736217749540824  -11.579523207762399  -30  0
25.462204956078967  17.502540785933707  -30  0
32.573458129276183  -9.1300729949043724  -30  0
8.5006314393460212  1.3504959373010539  -30  0
24.423686382365023  12.056050605807458  -30  0
31.343216577428144  10.567589446985574  -30  0
13.239812033855022  -7.0587275217214227  -30  0
15.352858355497661  6.5631445094466567  -30  0
16.522857349542971  18.090558834026076  -30  0
28.081728196298645  12.561379718607066  -30  0
32.144163060920931  15.948571977613017  -30  0
6.5801184371720929  7.848757271787389  -30  0
15.670179768355244  -10.942081656247771  -30  0
13.350274356752529  2.3948018546597925  -30  0
21.130376435408827  13.865521116212802  -30  0
30.504213256448402  -11.951483680481134  -30  0
36.628495183771122  -2.350288765606956  -30  0
27.713599543753695  -14.340892171478377  -30  0
21.348651311786526  -14.812137735254305  -30  0
11.251096613762437  5.8099371638961399  -30  0
36.007636174628075  11.23728981484563  -30  0
7.2596979733177349  16.552945545357456  -30  0
17.913174987227055  10.931107760033107  -30  0
23.790772722497781  -12.413255336924335  -30  0
12.476354445955666  10.954153539655328  -30  0
27.027160012889436  -11.312904578874603  -30  0
21.376216609781874  10.784981909068525  -30  0
36.586621676030326  2.1656239846893701  -30  0
33.335084352363197  8.4181262875139478  -30  0
17.207330706934773  -17.174230028012545  -30  0
35.639944289295094  -7.2387986721047728  -30  0
24.663300774635694  -18.093312251049813  -30  0
16.230368303384086  -7.4154841670644185  -30  0
-40.144336733591324  -25  -39.28909533795045  0
-42.547555035361121  -25  -44.731917053912646  0
-43.494682009868193  -25  31.115863931098122  0
43.111998486617154  -25  43.52805022625347  0
-46.255837182133241  -25  -37.337831380895338  0
-21.76600835578687  -25  -35.451254784417706  0
46.791981202367083  -25  42.673497522922375  0
43.361832119640439  -25  38.369239876363039  0
-46.509008135370046  -25  36.865978933604929  0
40.794009475929613  -25  -44.786080892674875  0
-41.665138731208984  -25  36.73688896119549  0
-41.687388233168683  -25  45.594608734803288  0
-22.191477986738366  -25  35.536467797568918  0
-38.73132293261412  -25  41.020263320046212  0
-33.381046471704956  -25  -31.831101244055457  0
-44.863958634946862  -25  41.383721827587898  0
-0.011619662541750534  -25  -37.710483342229395  0
41.6984148385217  -25  -35.604687638899037  0
-38.0656422878886  -25  21.459595733981661  0
-32.053108018624179  -25  42.709047918106123  0
41.387975243238905  -25  -32.421300501371718  0
47.175629521477099  -25  35.950774386780637  0
32.078994518863198  -25  -41.134877634518922  0
-37.398338708153737  -25  46.398798757992523  0
37.594647439874826  -25  -34.779903920345447  0
42.019210878467561  -25  -48.198217448261168  0
44.442154648583298  -25  -33.511162490983047  0
-27.202262762332623  -25  24.593353175856908  0
-45.609440155456269  -25  -41.748686210145905  0
45.012137680721345  -25  33.836789974933218  0
-36.820004240648672  -25  -19.14709832838254  0
-32.151905830771703  -25  -42.135121903861531  0
48.081964580422337  -25  39.41369117049144  0
27.786387983118026  -25  38.398556694334836  0
-34.765916742822924  -25  33.308925416560605  0
-9.8161085493626459  -25  -36.705487531212441  0
40.44354973831372  -25  -39.509063992174283  0
-35.082184733594609  -25  11.211419425050085  0
-11.441223883899882  -25  34.733612814177654  0
42.289735178909474  -25  47.276777687323673  0
37.560849300042683  -25  43.294377750454075  0
-38.710790962243848  -25  3.6662830185875497  0
-26.693552632446284  -25  -23.956607891411416  0
45.592833411136098  -25  46.010829028908532  0
44.360836010587292  -25  -46.938074023314982  0
47.294711047255582  -25  -35.817273798314112  0
-42.756891238486176  -25  -30.992715818481198  0
37.123837918811176  -25  35.474704723022278  0
-2.4547281128460297  -25  39.173472027313501  0
44.648832507687594  -25  -37.793749422852017  0
-37.612455957077088  -25  -6.0946235171048126  0
48.159025901129901  -25  -39.353094303143138  0
-38.367659058053405  -25  -46.230834424927778  0
45.917146176309856  -25  -42.937742981948929  0
42.092397074949098  -25  32.769793536635319  0
22.904051067044783  -5.9561191718051596  30  0
25.797827221500217  -5.6690289442704191  30  0
12.597928907249745  -15.576835157276921  30  0
31.24011612611864  -4.7903507965243897  30  0
28.390551748778122  -4.4856968494589458  30  0
24.601048752658798  -6.702799165846927  30  0
19.179512478876688  9.0518019859462608  30  0
29.434898291412662  -6.9804553756589112  30  0
21.185343970399447  -4.6882240892632119  30  0
21.116818783919069  4.3250918938253919  30  0
19.686750265925074  -3.1785448960543099  30  0
25.23032197799585  8.7392276346613293  30  0
27.719561250984768  6.2568548208603003  30  0
34.761087966455861  3.0001926561602903  30  0
20.99727113740969  -6.8251158833996355  30  0
30.664318230030748  0.090170779365572093  30  0
12.942538271226329  13.742163961947309  30  0
29.438109688567828  -3.6935750108783187  30  0
34.366998202271958  9.0320086008345317  30  0
19.395337924917055  5.2767195707670211  30  0
15.831506243903066  5.4939189545725808  30  0
23.414075423764672  -16.81962689004947  30  0
18.095762127302322  -8.9687655454664394  30  0
23.534341497540417  -9.0436500429502509  30  0
30.931886973171309  5.8007329610670615  30  0
30.852162746171444  2.2804402711459861  30  0
19.246420875614046  1.5015382230081302  30  0
17.323872468796843  2.0272366159829862  30  0
18.38051263614712  3.4888444776812428  30  0
33.781992508253062  -8.4414225927731863  30  0
22.555363718675846  14.644475799556384  30  0
26.534848356529523  -7.4217700845904258  30  0
23.96538210571644  6.3602495659983873  30  0
34.720454109051872  -2.6001326941948499  30  0
14.586604025445675  0.37605770528821492  30  0
25.760168480603959  6.0001530286175635  30  0
29.220266274391854  -5.0884460854766864  30  0
21.723788659521716  6.1494221838671006  30  0
30.916775516267784  -1.9809413100681179  30  0
10.14242219455709  -5.1574133677546659  30  0
31.678875137034755  16.444696289929851  30  0
16.724214100739502  -3.8733591544070514  30  0
20.052431574939092  3.1451590661044877  30  0
27.643912992242178  -5.5171058035697351  30  0
29.064309188702349  4.0372822848656593  30  0
22.542216193218689  8.991465182677759  30  0
18.504350288222668  -0.71977651341347959  30  0
19.324574648995778  -5.5056726299308298  30  0
32.384679742402746  0.17127130478362251  30  0
28.758745335831655  10.157624125459115  30  0
28.255487942994549  -10.668076892003812  30  0
8.9310362290265708  4.4920483701931122  30  0
24.28103874561404  -5.4788093754055405  30  0
32.899848316335202  -15.355791695704355  30  0
-42.284331851356932  25  -32.153236604548489  0
-23.86883510945718  25  -26.859725397928347  0
-34.721319498457547  25  -20.095787237141451  0
44.382665432958227  25  38.217552336525166  0
48.095106362742044  25  38.277667270842656  0
-35.073237309280024  25  11.208088044778199  0
-46.508908172683924  25  36.86594077711429  0
42.846564090451743  25  -36.708518105188809  0
39.458692728908296  25  -33.277737235704912  0
-38.653461681640884  25  3.6404003243217344  0
43.368549573046444  25  -32.594446227322855  0
45.548026697853032  25  45.713704618317145  0
-0.24054665861489777  25  -38.319020535227992  0
38.65562713552459  25  36.316342537966001  0
47.367899616539653  25  -38.386415587379638  0
-19.329289498411057  25  -36.780014165325369  0
-11.441206640309945  25  34.733606278992468  0
25.567631484723279  25  -40.035215242619927  0
43.68153983389854  25  -41.132534420851961  0
42.448526090561579  25  42.250762526732963  0
-41.687354498969043  25  45.594595670035844  0
-44.863900289700972  25  41.383699427991068  0
-34.765539521892073  25  33.308784056627175  0
47.702921809567684  25  -42.3407824829129  0
-46.472332346098462  25  -38.373834628095445  0
44.947138081170039  25  33.110649624043567  0
46.442528960668724  25  35.352685413386297  0
-36.138070560493567  25  -45.819519441935434  0
46.238963489066094  25  -34.62517706163306  0
-40.601521199665484  25  -40.077084107185769  0
-27.201946099654453  25  24.593234723082386  0
43.361462997933536  25  35.062510819668169  0
-37.398292734089829  25  46.398781088685283  0
-32.052998333076189  25  42.709006427503525  0
27.903709565074326  25  38.62614899780548  0
47.246501755224728  25  42.048139510700729  0
43.201683577852187  25  -47.411878980276782  0
-31.939219052764972  25  -35.97908558687827  0
-22.191375979799293  25  35.53642939151932  0
36.73802430945301  25  44.057790746773911  0
-9.2797602369477072  25  -40.403048386930543  0
-38.064216158740258  25  21.459064114110504  0
-41.797853443088606  25  -45.551460127245242  0
-44.993218321212701  25  -42.547766474122248  0
-38.731185674203694  25  41.020211274893612  0
45.487815573287868  25  -44.971114162328035  0
-41.664935242965853  25  36.736812064923754  0
39.202316406868952  25  -46.940531221815945  0
-2.4547256953326855  25  39.173471100433098  0
-43.494331836022567  25  31.115732713715044  0
-37.299396795841332  25  -6.2321097615238505  0
41.711895623850594  25  -44.14228379980613  0
37.009678671380563  25  -40.27400971135441  0
42.320280386127926  25  32.314297682116617  0
42.084719195912719  25  47.152881385751122  0
-24.909751215621529  -8.3853069934094258  -16.718381930553051  0
-21.37597657202598  12.577316549055654  -21.049171612968397  0
-28.309291852799291  9.9273470391625196  -9.928947315452481  0
-8.6094081564516713  -12.632286708988493  -28.738094773238288  0
-28.81277225126199  -12.279061548679305  -8.3560849203983043  0
-10.197999703908168  9.6133776402345088  -28.213486173089052  0
-18.001159564295712  -10.545354083416402  -23.999130283007478  0
-21.639283928927249  -17.215384954054187  20.778387594884943  0
-28.152045485219787  -11.847113287757473  10.366404149854249  0
-24.263261007429229  17.412173686740573  17.643530408774954  0
-23.028254066156929  0.19732202170016463  19.227571730838168  0
-11.829114674619184  -8.8488889330126863  27.5694041650288  0
-17.514740634585344  11.94844005664638  24.356392600366892  0
-8.7666890833120803  12.94190151144717  28.690506487626521  0
-28.529211075739028  9.750399420073764  9.278152585290357  0
Triangles
1846
465 76 75  1
67 464 460  1
461 465 463  1
460 65 66  1
53 453 52  1
51 449 50  1
51 453 449  1
452 58 59  1
454 453 462  1
450 464 456  1
459 462 453  1
60 462 452  1
61 462 60  1
58 56 3  1
457 460 451  1
45 451 450  1
2 57 55  1
452 459 57  1
55 459 54  1
53 459 453  1
45 450 44  1
449 49 50  1
49 457 48  1
47 457 451  1
455 70 71  1
464 67 68  1
461 74 77  1
451 45 46  1
39 75 1  1
39 465 75  1
76 465 461  1
58 452 56  1
463 450 455  1
461 72 73  1
74 461 73  1
65 458 64  1
67 460 66  1
43 463 42  1
70 456 69  1
74 4 77  1
72 461 455  1
63 454 62  1
63 458 454  1
456 70 455  1
450 43 44  1
451 46 47  1
65 460 458  1
452 57 56  1
452 59 60  1
454 61 62  1
453 51 52  1
449 458 457  1
449 453 454  1
71 72 455  1
463 43 450  1
455 450 456  1
456 68 69  1
457 47 48  1
457 49 449  1
458 449 454  1
458 63 64  1
459 53 54  1
459 55 57  1
464 450 451  1
460 457 458  1
77 76 461  1
461 463 455  1
462 459 452  1
462 61 454  1
41 465 40  1
41 42 463  1
451 460 464  1
464 68 456  1
465 39 40  1
465 41 463  1
467 95 96  2
80 478 79  2
110 466 109  2
478 466 76  2
109 470 108  2
466 478 469  2
106 481 105  2
78 478 77  2
469 80 81  2
95 467 57  2
466 111 75  2
78 77 4  2
483 480 469  2
481 106 480  2
477 481 480  2
111 466 110  2
103 479 471  2
107 480 106  2
75 111 1  2
475 90 91  2
83 483 82  2
85 477 84  2
469 480 470  2
474 94 56  2
99 476 473  2
97 473 467  2
103 471 102  2
88 472 87  2
475 92 474  2
95 57 2  2
99 473 98  2
85 482 477  2
479 482 472  2
476 99 100  2
471 100 101  2
482 479 477  2
92 475 91  2
90 475 468  2
94 474 93  2
56 94 3  2
468 476 472  2
466 75 76  2
478 76 77  2
56 57 467  2
467 96 97  2
468 88 89  2
89 90 468  2
470 107 108  2
81 483 469  2
470 109 466  2
466 469 470  2
87 482 86  2
471 101 102  2
472 88 468  2
476 475 473  2
473 474 467  2
473 97 98  2
92 93 474  2
474 56 467  2
474 473 475  2
475 476 468  2
476 100 471  2
471 472 476  2
104 481 479  2
477 83 84  2
478 78 79  2
478 80 469  2
479 472 471  2
479 103 104  2
480 107 470  2
480 483 477  2
481 477 479  2
481 104 105  2
482 85 86  2
482 87 472  2
483 81 82  2
483 83 477  2
485 499 497  3
112 493 151  3
150 497 494  3
489 487 490  3
486 505 491  3
151 5 112  3
493 150 151  3
114 493 113  3
485 114 115  3
116 498 485  3
499 485 498  3
118 498 117  3
499 498 489  3
144 496 495  3
494 148 149  3
147 494 146  3
148 494 147  3
149 148 8  3
486 490 487  3
490 139 140  3
142 490 141  3
486 137 138  3
500 130 131  3
134 500 133  3
491 505 484  3
123 502 122  3
137 491 136  3
500 132 133  3
130 500 492  3
132 500 131  3
139 490 486  3
132 131 7  3
127 504 126  3
120 503 119  3
502 505 501  3
125 504 488  3
503 502 501  3
125 488 124  3
504 125 126  3
128 504 127  3
6 129 128  3
121 503 120  3
492 500 484  3
491 134 135  3
496 499 495  3
485 115 116  3
505 502 488  3
486 138 139  3
505 488 484  3
118 503 498  3
123 124 488  3
484 504 492  3
142 495 490  3
485 497 493  3
490 140 141  3
490 495 489  3
491 135 136  3
491 137 486  3
504 128 129  3
129 130 492  3
493 112 113  3
493 114 485  3
146 496 145  3
494 149 150  3
495 142 143  3
143 144 495  3
496 144 145  3
496 146 494  3
496 494 497  3
497 150 493  3
498 116 117  3
489 503 501  3
489 495 499  3
499 496 497  3
500 134 491  3
491 484 500  3
487 489 501  3
503 121 502  3
502 121 122  3
502 123 488  3
503 489 498  3
503 118 119  3
504 129 492  3
504 484 488  3
505 486 487  3
487 501 505  3
175 512 174  4
523 522 516  4
169 528 129  4
165 509 164  4
6 169 129  4
509 517 516  4
528 171 526  4
173 526 172  4
516 526 512  4
164 522 163  4
168 524 167  4
168 7 131  4
522 162 163  4
166 509 165  4
166 524 509  4
524 517 509  4
517 528 526  4
520 508 514  4
162 522 510  4
514 179 180  4
512 523 516  4
507 150 149  4
156 515 155  4
520 514 506  4
179 514 508  4
154 515 507  4
178 508 177  4
152 149 8  4
152 507 149  4
150 527 151  4
507 152 153  4
160 525 159  4
525 520 513  4
508 520 519  4
179 508 178  4
527 521 511  4
158 525 513  4
183 527 511  4
511 181 182  4
185 527 184  4
151 185 5  4
181 514 180  4
527 150 521  4
515 521 507  4
507 153 154  4
506 515 513  4
175 518 512  4
177 518 176  4
524 130 517  4
171 528 170  4
510 160 161  4
161 162 510  4
182 183 511  4
511 521 506  4
518 523 512  4
512 173 174  4
513 156 157  4
157 158 513  4
514 181 511  4
511 506 514  4
515 154 155  4
515 156 513  4
522 523 510  4
526 516 517  4
130 524 131  4
130 528 517  4
518 175 176  4
518 177 508  4
518 508 519  4
525 529 520  4
506 513 520  4
519 529 523  4
150 507 521  4
521 515 506  4
522 164 509  4
509 516 522  4
523 518 519  4
529 519 520  4
524 166 167  4
524 168 131  4
525 158 159  4
525 160 510  4
526 171 172  4
526 173 512  4
527 183 184  4
527 185 151  4
528 130 129  4
528 169 170  4
529 525 510  4
510 523 529  4
207 541 206  5
189 542 188  5
195 547 194  5
543 531 533  5
537 191 547  5
534 200 201  5
537 547 539  5
211 210 12  5
546 543 533  5
208 546 533  5
218 536 217  5
210 540 209  5
540 211 212  5
547 195 539  5
542 548 187  5
205 541 204  5
211 540 210  5
202 541 534  5
205 11 206  5
532 545 539  5
200 534 532  5
200 532 199  5
541 207 533  5
537 189 190  5
193 547 192  5
541 203 204  5
192 547 191  5
199 532 198  5
193 192 10  5
538 548 542  5
536 535 530  5
548 538 535  5
548 223 186  5
223 548 222  5
532 534 531  5
535 218 219  5
213 544 540  5
223 9 186  5
548 220 221  5
537 538 542  5
536 218 535  5
217 536 216  5
541 202 203  5
536 543 544  5
197 539 196  5
198 539 197  5
207 208 533  5
531 543 530  5
533 531 534  5
534 201 202  5
535 219 220  5
220 548 535  5
215 544 214  5
536 215 216  5
539 195 196  5
545 531 530  5
545 532 531  5
530 535 538  5
539 198 532  5
537 545 538  5
540 212 213  5
544 213 214  5
533 534 541  5
541 205 206  5
542 187 188  5
542 189 537  5
546 544 543  5
543 536 530  5
544 546 540  5
215 536 544  5
530 538 545  5
545 537 539  5
546 208 209  5
209 540 546  5
191 537 190  5
547 193 194  5
548 221 222  5
548 186 187  5
598 167 582  6
207 555 208  6
569 230 235  6
167 598 166  6
577 228 564  6
236 577 569  6
577 594 227  6
582 7 574  6
234 564 229  6
228 577 227  6
13 234 229  6
229 564 228  6
593 604 599  6
230 569 231  6
142 560 141  6
588 604 589  6
232 577 564  6
235 230 14  6
579 132 133  6
135 600 591  6
574 7 132  6
11 575 206  6
143 603 560  6
603 143 144  6
595 603 551  6
599 578 567  6
137 578 554  6
137 554 136  6
579 591 588  6
140 585 567  6
578 137 138  6
603 580 553  6
140 567 139  6
566 146 147  6
580 603 144  6
566 590 571  6
580 144 145  6
549 163 164  6
563 597 576  6
568 581 562  6
159 570 158  6
552 163 549  6
162 552 161  6
163 552 162  6
561 587 568  6
573 559 240  6
565 155 592  6
155 565 154  6
557 586 209  6
153 596 152  6
596 8 152  6
596 602 8  6
602 566 148  6
566 602 590  6
598 165 166  6
165 549 164  6
238 556 237  6
563 549 598  6
165 598 549  6
156 592 155  6
240 559 239  6
12 210 240  6
552 584 161  6
238 559 556  6
210 586 573  6
587 561 550  6
207 575 551  6
143 560 142  6
601 558 572  6
161 584 160  6
566 580 146  6
550 592 587  6
604 588 600  6
136 600 135  6
555 207 551  6
551 571 555  6
7 582 168  6
237 577 236  6
557 209 208  6
208 555 557  6
593 224 225  6
594 225 226  6
559 238 239  6
160 581 159  6
585 141 560  6
141 585 140  6
597 562 576  6
586 557 550  6
583 568 562  6
584 562 581  6
552 549 563  6
559 601 556  6
564 234 233  6
233 232 564  6
550 557 565  6
565 153 154  6
571 590 555  6
566 147 148  6
224 593 575  6
567 138 139  6
562 584 576  6
568 583 561  6
569 232 231  6
569 235 236  6
157 587 156  6
157 158 570  6
571 551 553  6
553 566 571  6
577 237 556  6
558 601 598  6
240 210 573  6
586 550 561  6
132 579 574  6
588 574 579  6
575 207 206  6
575 11 224  6
552 563 576  6
562 597 583  6
577 232 569  6
577 556 572  6
578 138 567  6
595 599 585  6
574 588 558  6
133 591 579  6
145 146 580  6
580 566 553  6
581 568 570  6
570 159 581  6
167 168 582  6
582 574 558  6
573 597 559  6
573 561 583  6
581 160 584  6
584 552 576  6
560 595 585  6
578 604 554  6
561 573 586  6
586 210 209  6
587 157 570  6
570 568 587  6
225 594 593  6
558 589 572  6
589 594 572  6
589 558 588  6
557 596 565  6
557 555 590  6
591 133 134  6
134 135 591  6
592 156 587  6
592 550 565  6
593 594 589  6
604 578 599  6
226 227 594  6
594 577 572  6
595 551 575  6
575 593 595  6
596 153 565  6
596 557 590  6
597 563 559  6
597 573 583  6
598 582 558  6
601 559 563  6
567 585 599  6
599 595 593  6
588 591 600  6
600 136 554  6
572 556 601  6
601 563 598  6
148 8 602  6
602 596 590  6
553 551 603  6
603 595 560  6
604 593 589  6
604 600 554  6
245 605 244  7
231 607 605  7
246 245 16  7
245 606 605  7
607 244 605  7
233 607 232  7
606 246 247  7
246 606 245  7
249 606 248  7
14 230 249  7
244 607 243  7
241 609 608  7
250 608 234  7
234 13 250  7
234 609 233  7
252 608 251  7
609 234 608  7
253 608 252  7
253 15 241  7
607 231 232  7
606 249 230  7
230 231 605  7
247 248 606  7
606 230 605  7
607 609 242  7
242 243 607  7
608 250 251  7
608 253 241  7
609 241 242  7
609 607 233  7
242 611 243  8
611 613 244  8
614 257 258  8
245 613 610  8
612 611 242  8
254 241 15  8
263 262 18  8
262 613 261  8
266 610 265  8
245 266 16  8
613 611 261  8
265 610 264  8
263 610 262  8
611 244 243  8
611 612 259  8
254 614 241  8
614 258 612  8
241 614 612  8
257 614 256  8
258 257 17  8
610 263 264  8
610 266 245  8
611 259 260  8
260 261 611  8
242 241 612  8
612 258 259  8
613 262 610  8
613 245 244  8
614 254 255  8
255 256 614  8
617 616 615  9
20 272 281  9
620 618 260  9
280 617 279  9
272 616 281  9
618 620 619  9
268 621 269  9
618 258 259  9
620 260 261  9
262 620 261  9
262 18 277  9
267 618 268  9
267 17 258  9
258 618 267  9
270 621 615  9
616 280 281  9
621 268 619  9
275 615 274  9
615 271 270  9
276 615 275  9
615 276 271  9
276 19 271  9
617 280 616  9
274 616 273  9
616 272 273  9
616 274 615  9
617 621 619  9
617 278 279  9
618 259 260  9
619 268 618  9
278 620 277  9
278 617 619  9
620 262 277  9
620 278 619  9
621 617 615  9
621 270 269  9
623 283 622  10
623 625 285  10
624 290 272  10
625 623 275  10
283 623 284  10
287 282 21  10
291 276 19  10
276 626 625  10
294 626 293  10
286 294 22  10
276 625 275  10
626 291 292  10
291 626 276  10
623 273 274  10
273 623 622  10
287 624 282  10
624 272 622  10
282 624 622  10
290 624 289  10
272 290 20  10
283 282 622  10
622 272 273  10
274 275 623  10
623 285 284  10
624 287 288  10
288 289 624  10
626 294 286  10
286 285 625  10
292 293 626  10
626 286 625  10
299 630 627  11
302 629 301  11
629 630 300  11
627 295 296  11
304 631 303  11
304 303 24  11
285 629 284  11
298 627 297  11
295 627 286  11
299 298 23  11
629 302 628  11
303 631 628  11
286 630 285  11
630 629 285  11
22 295 286  11
631 282 628  11
303 628 302  11
307 631 306  11
307 21 282  11
283 629 628  11
627 296 297  11
627 298 299  11
631 307 282  11
282 283 628  11
629 283 284  11
629 300 301  11
630 286 627  11
630 299 300  11
631 304 305  11
305 306 631  11
82 650 640  12
636 81 80  12
89 653 644  12
301 661 300  12
651 71 70  12
658 326 325  12
302 638 301  12
638 303 321  12
641 659 655  12
3 647 641  12
641 647 643  12
303 638 302  12
321 303 24  12
327 635 328  12
658 671 669  12
324 661 658  12
322 661 323  12
299 661 322  12
299 322 23  12
91 632 92  12
647 93 645  12
644 91 90  12
655 659 654  12
26 329 315  12
644 90 89  12
91 644 632  12
312 665 311  12
82 640 83  12
4 668 78  12
650 81 636  12
633 646 635  12
633 88 87  12
83 640 84  12
652 646 640  12
635 327 634  12
653 89 88  12
646 86 85  12
86 646 633  12
668 665 312  12
636 668 312  12
73 72 637  12
650 82 81  12
71 637 72  12
665 73 637  12
311 637 310  12
668 4 665  12
320 656 638  12
651 637 71  12
65 662 657  12
309 649 308  12
662 648 664  12
70 666 651  12
666 69 660  12
67 660 68  12
672 660 657  12
62 674 670  12
674 62 61  12
648 670 664  12
84 646 85  12
64 662 65  12
65 657 66  12
656 671 667  12
60 674 61  12
318 656 319  12
660 67 657  12
657 67 66  12
25 649 316  12
634 658 642  12
92 645 93  12
87 86 633  12
635 653 633  12
327 326 634  12
642 663 634  12
652 635 646  12
329 328 635  12
80 79 636  12
636 312 313  12
637 651 310  12
73 665 74  12
638 321 320  12
669 645 642  12
318 317 639  12
63 670 648  12
314 650 313  12
652 650 314  12
641 59 58  12
58 3 641  12
93 647 94  12
658 634 326  12
645 92 632  12
658 325 324  12
653 635 634  12
632 644 663  12
632 642 645  12
645 669 643  12
646 84 640  12
635 652 329  12
645 643 647  12
647 3 94  12
64 63 648  12
654 674 655  12
649 25 308  12
666 70 69  12
636 313 650  12
650 652 640  12
651 649 309  12
309 310 651  12
652 314 315  12
315 329 652  12
653 663 644  12
653 88 633  12
301 667 661  12
639 656 318  12
655 60 59  12
59 641 655  12
656 320 319  12
656 639 654  12
639 673 664  12
673 662 664  12
656 667 638  12
671 643 669  12
656 654 659  12
659 641 643  12
672 666 660  12
660 69 68  12
661 324 323  12
661 299 300  12
657 673 672  12
662 64 648  12
663 653 634  12
663 642 632  12
639 670 654  12
673 657 662  12
4 74 665  12
665 637 311  12
666 672 649  12
649 651 666  12
658 661 667  12
667 301 638  12
668 636 79  12
79 78 668  12
642 658 669  12
643 671 659  12
670 639 664  12
670 63 62  12
671 658 667  12
671 656 659  12
316 673 317  12
316 649 672  12
673 639 317  12
673 316 672  12
674 60 655  12
674 654 670  12
309 684 683  13
684 689 678  13
343 681 342  13
336 676 335  13
675 687 685  13
350 682 315  13
689 311 312  13
352 682 351  13
315 26 350  13
314 689 313  13
331 687 330  13
315 682 314  13
689 314 682  13
353 682 352  13
676 337 338  13
348 683 347  13
677 679 678  13
690 683 684  13
349 683 348  13
686 357 675  13
346 690 345  13
681 690 680  13
349 25 308  13
688 679 685  13
683 349 308  13
677 678 689  13
676 338 339  13
340 681 676  13
311 689 684  13
337 676 336  13
336 28 337  13
311 684 310  13
688 335 676  13
686 354 355  13
333 688 685  13
677 353 354  13
357 686 356  13
359 675 358  13
687 360 361  13
362 687 361  13
360 687 675  13
362 27 330  13
360 675 359  13
357 358 675  13
679 688 680  13
335 688 334  13
676 339 340  13
354 686 677  13
686 675 679  13
343 690 681  13
690 343 344  13
333 685 332  13
342 681 341  13
690 684 678  13
678 679 680  13
681 688 676  13
681 340 341  13
682 350 351  13
682 353 677  13
683 346 347  13
683 308 309  13
690 346 683  13
684 309 310  13
679 675 685  13
685 331 332  13
679 677 686  13
686 355 356  13
687 362 330  13
687 331 685  13
688 333 334  13
688 681 680  13
689 312 313  13
689 682 677  13
678 680 690  13
690 344 345  13
370 692 369  14
695 334 333  14
27 363 330  14
376 691 375  14
363 693 330  14
332 697 692  14
696 335 334  14
368 693 367  14
372 696 371  14
336 694 691  14
335 696 694  14
377 691 376  14
373 694 372  14
336 377 28  14
693 697 331  14
696 334 695  14
374 691 373  14
374 373 30  14
693 364 365  14
692 695 333  14
366 693 365  14
693 363 364  14
367 366 29  14
697 332 331  14
691 374 375  14
691 377 336  14
333 332 692  14
369 697 368  14
331 330 693  14
693 366 367  14
694 373 691  14
694 336 335  14
695 692 370  14
370 371 695  14
695 371 696  14
696 372 694  14
697 693 368  14
697 369 692  14
385 698 384  15
385 700 698  15
9 378 186  15
391 701 390  15
378 702 186  15
188 703 698  15
700 699 190  15
383 702 382  15
387 701 699  15
701 191 699  15
190 699 191  15
392 701 391  15
701 389 390  15
192 392 10  15
702 703 187  15
699 700 386  15
389 701 388  15
389 388 32  15
702 379 380  15
384 703 383  15
381 702 380  15
702 378 379  15
382 381 31  15
703 702 383  15
189 700 190  15
189 188 698  15
386 387 699  15
191 701 192  15
700 189 698  15
700 385 386  15
701 387 388  15
701 392 192  15
187 186 702  15
702 381 382  15
703 384 698  15
703 188 187  15
706 738 108  16
393 718 394  16
50 710 49  16
713 709 704  16
716 54 704  16
53 742 52  16
716 704 709  16
717 734 729  16
721 731 397  16
51 710 50  16
33 731 393  16
705 709 399  16
717 723 96  16
704 723 713  16
99 717 98  16
717 96 97  16
732 717 99  16
367 730 368  16
715 720 719  16
104 714 103  16
714 736 102  16
100 732 99  16
395 718 711  16
711 724 714  16
104 719 714  16
105 719 104  16
367 29 396  16
726 1 39  16
738 706 730  16
737 706 110  16
110 706 109  16
740 726 40  16
107 715 106  16
109 706 108  16
715 738 730  16
40 726 39  16
372 740 708  16
740 42 712  16
737 726 370  16
2 723 704  16
2 704 55  16
726 737 1  16
1 737 111  16
708 740 712  16
373 708 707  16
48 733 47  16
733 710 728  16
44 725 712  16
44 712 43  16
725 44 45  16
402 739 705  16
742 51 52  16
725 735 727  16
45 735 725  16
34 705 399  16
733 49 710  16
30 707 400  16
54 716 53  16
54 55 704  16
705 34 402  16
51 722 710  16
706 737 369  16
369 730 706  16
741 739 401  16
707 30 373  16
708 373 372  16
712 725 708  16
709 713 398  16
398 399 709  16
739 710 722  16
49 733 48  16
711 396 395  16
719 105 715  16
42 740 41  16
42 43 712  16
723 2 95  16
398 721 397  16
102 736 101  16
102 103 714  16
105 106 715  16
720 715 730  16
709 705 716  16
51 742 722  16
97 98 717  16
718 734 732  16
718 395 394  16
734 717 732  16
711 720 396  16
711 714 719  16
367 396 720  16
720 711 719  16
721 398 713  16
723 717 729  16
716 705 722  16
710 739 728  16
95 96 723  16
713 729 721  16
724 711 718  16
100 736 732  16
725 727 707  16
707 708 725  16
726 740 371  16
371 370 726  16
707 741 400  16
735 47 733  16
739 722 705  16
741 707 727  16
721 734 731  16
729 713 723  16
730 369 368  16
730 367 720  16
718 393 731  16
731 33 397  16
736 100 101  16
724 718 732  16
733 741 727  16
47 735 46  16
734 718 731  16
734 721 729  16
733 727 735  16
735 45 46  16
736 714 724  16
724 732 736  16
370 369 737  16
737 110 111  16
738 715 107  16
107 108 738  16
739 402 401  16
739 741 728  16
740 372 371  16
740 40 41  16
741 733 728  16
741 401 400  16
742 53 716  16
716 722 742  16
401 765 400  17
780 411 412  17
756 777 762  17
265 758 266  17
16 758 754  17
221 775 764  17
16 754 246  17
745 777 753  17
248 766 249  17
263 751 264  17
413 770 761  17
749 750 775  17
786 213 782  17
420 238 419  17
772 9 764  17
796 779 752  17
339 794 340  17
771 289 288  17
402 759 318  17
748 785 757  17
743 771 744  17
771 288 287  17
743 795 774  17
306 795 744  17
289 747 290  17
21 771 287  17
289 771 747  17
403 759 34  17
773 793 280  17
795 306 305  17
321 774 24  17
785 408 773  17
778 748 320  17
320 748 321  17
317 402 318  17
773 280 281  17
409 793 773  17
793 35 784  17
279 793 784  17
409 773 408  17
411 784 35  17
278 761 277  17
278 784 780  17
784 278 279  17
743 774 757  17
405 778 404  17
216 786 749  17
758 264 751  17
755 777 770  17
14 766 762  17
246 754 247  17
420 776 239  17
791 238 237  17
416 781 755  17
791 419 238  17
238 420 239  17
417 418 781  17
770 415 755  17
777 755 762  17
418 791 781  17
239 776 240  17
419 791 36  17
240 783 12  17
795 24 774  17
790 776 422  17
797 379 772  17
213 786 214  17
778 405 748  17
403 778 759  17
217 749 218  17
378 772 379  17
216 749 217  17
219 775 220  17
764 9 223  17
221 764 222  17
9 772 378  17
789 743 757  17
750 749 746  17
337 788 338  17
776 790 783  17
25 765 316  17
750 797 772  17
779 796 792  17
28 788 337  17
402 317 401  17
30 767 763  17
319 778 320  17
317 765 401  17
765 25 752  17
376 769 377  17
792 796 794  17
792 760 779  17
788 28 769  17
794 788 792  17
755 781 236  17
415 770 414  17
787 796 752  17
348 787 768  17
745 277 761  17
752 25 768  17
345 796 787  17
796 345 344  17
345 787 346  17
782 783 746  17
783 782 12  17
744 21 307  17
307 306 744  17
18 751 263  17
18 277 745  17
786 782 746  17
12 782 211  17
20 789 281  17
20 290 747  17
748 405 406  17
743 789 747  17
218 775 219  17
749 786 746  17
381 797 31  17
380 797 381  17
264 758 265  17
751 18 745  17
348 768 349  17
769 375 763  17
766 248 754  17
753 751 745  17
248 247 754  17
754 758 756  17
415 416 755  17
755 236 235  17
14 762 235  17
758 751 753  17
24 795 304  17
785 773 757  17
753 756 758  17
758 16 266  17
319 318 759  17
759 402 34  17
375 769 376  17
763 767 760  17
413 780 412  17
779 765 752  17
755 235 762  17
766 14 249  17
763 375 374  17
374 30 763  17
223 222 764  17
764 775 750  17
765 317 316  17
765 779 767  17
766 754 756  17
756 762 766  17
767 30 400  17
400 765 767  17
25 349 768  17
768 787 752  17
28 377 769  17
769 763 760  17
761 777 745  17
770 413 414  17
771 21 744  17
771 743 747  17
379 797 380  17
772 764 750  17
773 789 757  17
408 785 407  17
774 321 748  17
748 757 774  17
775 221 220  17
775 218 749  17
776 420 421  17
421 422 776  17
777 756 753  17
777 761 770  17
778 319 759  17
778 403 404  17
792 769 760  17
760 767 779  17
780 413 761  17
761 278 780  17
236 791 237  17
781 416 417  17
782 213 212  17
212 211 782  17
783 240 776  17
783 750 746  17
35 793 410  17
784 411 780  17
785 748 406  17
406 407 785  17
786 216 215  17
215 214 786  17
787 348 347  17
347 346 787  17
339 338 788  17
769 792 788  17
789 773 281  17
789 20 747  17
422 31 790  17
790 750 783  17
791 236 781  17
791 418 36  17
342 796 343  17
794 339 788  17
793 279 280  17
793 409 410  17
794 342 341  17
341 340 794  17
795 743 744  17
795 305 304  17
796 344 343  17
796 342 794  17
797 750 790  17
790 31 797  17
428 828 427  18
419 425 36  18
6 128 824  18
429 37 423  18
824 844 6  18
840 127 126  18
831 827 384  18
814 849 818  18
824 840 826  18
818 826 817  18
807 840 125  18
127 840 824  18
123 807 124  18
847 822 816  18
123 835 807  18
823 112 813  18
426 388 32  18
810 118 117  18
118 833 119  18
386 816 811  18
387 838 816  18
120 830 121  18
122 835 123  18
833 120 119  18
120 833 830  18
830 122 121  18
810 842 822  18
842 823 822  18
842 114 823  18
114 842 115  18
117 842 810  18
834 815 802  18
419 800 425  18
836 813 185  18
813 112 5  18
112 823 113  18
836 846 813  18
183 836 184  18
815 836 183  18
181 815 182  18
422 819 421  18
175 850 176  18
180 841 802  18
808 844 839  18
170 844 808  18
808 172 171  18
806 173 172  18
172 808 806  18
806 174 173  18
174 806 798  18
177 799 178  18
850 798 803  18
174 798 175  18
799 850 803  18
799 841 179  18
848 821 819  18
819 851 848  18
422 31 382  18
821 848 829  18
420 819 800  18
841 180 179  18
799 179 178  18
837 849 424  18
800 419 420  18
384 827 383  18
815 181 802  18
802 181 180  18
802 841 834  18
850 175 798  18
819 820 800  18
828 428 814  18
127 824 128  18
851 827 848  18
801 805 827  18
844 824 825  18
820 821 812  18
125 124 807  18
807 835 817  18
806 845 812  18
808 171 170  18
838 387 388  18
427 838 426  18
822 823 811  18
816 386 387  18
836 185 184  18
385 386 811  18
798 821 803  18
798 806 812  18
5 185 813  18
811 831 385  18
814 428 429  18
429 423 814  18
815 834 801  18
815 183 182  18
828 847 838  18
847 810 822  18
835 122 830  18
804 818 817  18
818 804 814  18
849 832 818  18
821 820 819  18
819 420 421  18
820 845 839  18
800 837 425  18
829 799 803  18
821 798 812  18
811 816 822  18
810 847 809  18
114 113 823  18
823 846 811  18
826 818 825  18
6 844 169  18
818 832 825  18
839 832 837  18
825 824 826  18
817 840 807  18
383 851 382  18
827 831 801  18
828 814 804  18
843 830 809  18
803 821 829  18
829 848 805  18
809 833 810  18
843 835 830  18
831 384 385  18
846 836 831  18
849 837 832  18
844 825 832  18
833 118 810  18
833 809 830  18
834 841 805  18
805 801 834  18
835 843 804  18
804 817 835  18
836 815 801  18
801 831 836  18
837 424 425  18
837 800 820  18
838 388 426  18
838 427 828  18
837 820 839  18
808 839 845  18
126 125 840  18
840 817 826  18
841 799 829  18
829 805 841  18
842 117 116  18
116 115 842  18
809 828 843  18
828 804 843  18
832 839 844  18
844 170 169  18
845 820 812  18
845 806 808  18
831 811 846  18
846 823 813  18
816 838 847  18
847 828 809  18
827 851 383  18
827 805 848  18
849 814 423  18
423 424 849  18
850 799 177  18
177 176 850  18
851 819 422  18
422 382 851  18
886 428 427  19
890 433 432  19
894 895 22  19
889 867 853  19
429 900 37  19
205 906 204  19
22 895 294  19
228 890 868  19
902 38 861  19
197 856 196  19
428 886 225  19
10 878 877  19
900 429 226  19
905 877 883  19
225 886 224  19
868 432 431  19
894 879 881  19
366 862 365  19
876 19 291  19
250 884 13  19
252 872 251  19
19 876 852  19
293 895 876  19
895 894 881  19
889 854 852  19
441 854 853  19
297 894 296  19
853 443 442  19
445 892 864  19
393 864 326  19
443 867 444  19
444 892 445  19
322 889 879  19
327 393 326  19
323 892 867  19
854 441 440  19
441 853 442  19
861 437 857  19
439 854 440  19
854 902 270  19
435 857 436  19
901 874 898  19
268 861 857  19
257 858 256  19
17 901 858  19
874 893 882  19
437 861 38  19
15 873 872  19
255 873 254  19
256 873 255  19
253 872 252  19
15 872 253  19
435 893 857  19
885 13 884  19
900 228 868  19
430 900 868  19
890 432 868  19
893 435 882  19
433 890 882  19
226 428 225  19
428 226 429  19
269 902 861  19
439 902 854  19
904 899 903  19
203 906 863  19
863 200 201  19
199 887 198  19
871 906 891  19
887 863 871  19
200 887 199  19
863 201 202  19
856 878 194  19
856 194 195  19
866 880 859  19
892 444 867  19
32 865 426  19
391 905 390  19
10 877 392  19
194 878 193  19
865 886 426  19
865 905 883  19
363 880 27  19
390 905 389  19
393 327 394  19
394 869 395  19
396 904 860  19
864 393 33  19
327 869 394  19
870 904 903  19
445 864 33  19
869 327 328  19
361 880 866  19
880 363 862  19
360 866 359  19
365 862 364  19
880 862 859  19
355 897 354  19
361 866 360  19
904 870 859  19
875 355 356  19
329 904 869  19
899 350 888  19
353 897 888  19
870 897 875  19
897 903 888  19
875 358 866  19
852 271 19  19
879 297 298  19
854 889 853  19
889 322 867  19
854 270 271  19
271 852 854  19
197 887 856  19
906 11 891  19
195 196 856  19
856 887 855  19
268 893 267  19
857 437 436  19
872 896 884  19
858 257 17  19
353 888 352  19
860 859 862  19
860 366 29  19
29 396 860  19
861 268 269  19
38 902 438  19
862 363 364  19
862 366 860  19
202 203 863  19
865 855 871  19
325 892 324  19
325 326 864  19
855 865 883  19
224 891 11  19
358 875 357  19
358 359 866  19
867 443 853  19
867 322 323  19
431 430 868  19
228 900 227  19
328 329 869  19
869 396 395  19
352 888 351  19
870 866 859  19
887 200 863  19
891 886 865  19
251 884 250  19
13 885 229  19
873 15 254  19
873 256 858  19
873 898 896  19
882 435 434  19
356 357 875  19
875 866 870  19
876 291 292  19
292 293 876  19
391 392 877  19
878 10 193  19
878 856 855  19
878 883 877  19
879 298 23  19
23 322 879  19
880 361 362  19
362 27 880  19
852 876 881  19
894 297 879  19
434 433 882  19
874 890 885  19
905 391 877  19
883 878 855  19
884 251 872  19
874 901 893  19
885 896 874  19
890 228 229  19
427 426 886  19
886 891 224  19
871 855 887  19
887 197 198  19
350 899 26  19
350 351 888  19
889 852 881  19
881 879 889  19
890 229 885  19
890 874 882  19
865 871 891  19
11 906 205  19
892 323 324  19
892 325 864  19
858 901 898  19
893 268 857  19
894 22 295  19
295 296 894  19
881 876 895  19
895 293 294  19
896 885 884  19
896 872 873  19
897 353 354  19
897 355 875  19
874 896 898  19
898 873 858  19
329 26 899  19
904 329 899  19
900 430 37  19
900 226 227  19
901 17 267  19
267 893 901  19
902 269 270  19
902 439 438  19
899 888 903  19
903 897 870  19
904 859 860  19
904 396 869  19
905 865 32  19
32 389 905  19
906 871 863  19
906 203 204  19
447 911 448  20
438 909 446  20
909 911 447  20
911 408 409  20
909 438 439  20
440 909 439  20
909 440 908  20
913 908 912  20
408 911 907  20
908 440 441  20
403 910 399  20
35 448 410  20
410 911 409  20
405 913 910  20
908 913 907  20
399 910 398  20
912 443 444  20
910 403 404  20
446 38 438  20
399 34 403  20
443 912 908  20
908 441 442  20
397 445 33  20
445 912 444  20
407 913 406  20
407 408 907  20
442 443 908  20
913 912 910  20
908 907 909  20
909 447 446  20
910 912 398  20
910 404 405  20
911 410 448  20
911 909 907  20
912 445 397  20
397 398 912  20
913 405 406  20
913 407 907  20
448 915 447  21
920 918 424  21
435 916 434  21
918 920 919  21
914 918 917  21
430 920 423  21
916 919 433  21
430 423 37  21
416 914 415  21
411 915 448  21
413 915 412  21
418 918 417  21
918 418 425  21
36 425 418  21
417 918 416  21
920 424 423  21
448 35 411  21
915 413 914  21
919 916 917  21
436 921 916  21
914 413 414  21
436 916 435  21
446 437 38  21
437 921 436  21
414 415 914  21
433 919 432  21
917 916 921  21
915 411 412  21
916 433 434  21
447 921 446  21
915 921 447  21
915 914 917  21
918 914 416  21
918 425 424  21
917 918 919  21
432 920 431  21
920 430 431  21
920 432 919  21
921 437 446  21
921 915 917  21
Edges
467
1 39  1
39 40  1
40 41  1
41 42  1
42 43  1
43 44  1
44 45  1
45 46  1
46 47  1
47 48  1
48 49  1
49 50  1
50 51  1
51 52  1
52 53  1
53 54  1
54 55  1
55 2  1
3 56  2
56 57  2
57 2  2
3 58  3
58 59  3
59 60  3
60 61  3
61 62  3
62 63  3
63 64  3
64 65  3
65 66  3
66 67  3
67 68  3
68 69  3
69 70  3
70 71  3
71 72  3
72 73  3
73 74  3
74 4  3
1 75  4
75 76  4
76 77  4
77 4  4
4 78  5
78 79  5
79 80  5
80 81  5
81 82  5
82 83  5
83 84  5
84 85  5
85 86  5
86 87  5
87 88  5
88 89  5
89 90  5
90 91  5
91 92  5
92 93  5
93 94  5
94 3  5
2 95  6
95 96  6
96 97  6
97 98  6
98 99  6
99 100  6
100 101  6
101 102  6
102 103  6
103 104  6
104 105  6
105 106  6
106 107  6
107 108  6
108 109  6
109 110  6
110 111  6
111 1  6
5 112  7
112 113  7
113 114  7
114 115  7
115 116  7
116 117  7
117 118  7
118 119  7
119 120  7
120 121  7
121 122  7
122 123  7
123 124  7
124 125  7
125 126  7
126 127  7
127 128  7
128 6  7
6 129  8
129 130  8
130 131  8
131 7  8
7 132  9
132 133  9
133 134  9
134 135  9
135 136  9
136 137  9
137 138  9
138 139  9
139 140  9
140 141  9
141 142  9
142 143  9
143 144  9
144 145  9
145 146  9
146 147  9
147 148  9
148 8  9
8 149  10
149 150  10
150 151  10
151 5  10
8 152  11
152 153  11
153 154  11
154 155  11
155 156  11
156 157  11
157 158  11
158 159  11
159 160  11
160 161  11
161 162  11
162 163  11
163 164  11
164 165  11
165 166  11
166 167  11
167 168  11
168 7  11
6 169  12
169 170  12
170 171  12
171 172  12
172 173  12
173 174  12
174 175  12
175 176  12
176 177  12
177 178  12
178 179  12
179 180  12
180 181  12
181 182  12
182 183  12
183 184  12
184 185  12
185 5  12
9 186  13
186 187  13
187 188  13
188 189  13
189 190  13
190 191  13
191 192  13
192 10  13
10 193  14
193 194  14
194 195  14
195 196  14
196 197  14
197 198  14
198 199  14
199 200  14
200 201  14
201 202  14
202 203  14
203 204  14
204 205  14
205 11  14
11 206  15
206 207  15
207 208  15
208 209  15
209 210  15
210 12  15
12 211  16
211 212  16
212 213  16
213 214  16
214 215  16
215 216  16
216 217  16
217 218  16
218 219  16
219 220  16
220 221  16
221 222  16
222 223  16
223 9  16
11 224  17
224 225  17
225 226  17
226 227  17
227 228  17
228 229  17
229 13  17
14 230  18
230 231  18
231 232  18
232 233  18
233 234  18
234 13  18
14 235  19
235 236  19
236 237  19
237 238  19
238 239  19
239 240  19
240 12  19
15 241  20
241 242  20
242 243  20
243 244  20
244 245  20
245 16  20
16 246  21
246 247  21
247 248  21
248 249  21
249 14  21
13 250  22
250 251  22
251 252  22
252 253  22
253 15  22
15 254  23
254 255  23
255 256  23
256 257  23
257 17  23
17 258  24
258 259  24
259 260  24
260 261  24
261 262  24
262 18  24
18 263  25
263 264  25
264 265  25
265 266  25
266 16  25
17 267  26
267 268  26
268 269  26
269 270  26
270 271  26
271 19  26
20 272  27
272 273  27
273 274  27
274 275  27
275 276  27
276 19  27
18 277  28
277 278  28
278 279  28
279 280  28
280 281  28
281 20  28
21 282  29
282 283  29
283 284  29
284 285  29
285 286  29
286 22  29
21 287  30
287 288  30
288 289  30
289 290  30
290 20  30
19 291  31
291 292  31
292 293  31
293 294  31
294 22  31
22 295  32
295 296  32
296 297  32
297 298  32
298 23  32
23 299  33
299 300  33
300 301  33
301 302  33
302 303  33
303 24  33
24 304  34
304 305  34
305 306  34
306 307  34
307 21  34
25 308  35
308 309  35
309 310  35
310 311  35
311 312  35
312 313  35
313 314  35
314 315  35
315 26  35
25 316  36
316 317  36
317 318  36
318 319  36
319 320  36
320 321  36
321 24  36
23 322  37
322 323  37
323 324  37
324 325  37
325 326  37
326 327  37
327 328  37
328 329  37
329 26  37
27 330  38
330 331  38
331 332  38
332 333  38
333 334  38
334 335  38
335 336  38
336 28  38
28 337  39
337 338  39
338 339  39
339 340  39
340 341  39
341 342  39
342 343  39
343 344  39
344 345  39
345 346  39
346 347  39
347 348  39
348 349  39
349 25  39
26 350  40
350 351  40
351 352  40
352 353  40
353 354  40
354 355  40
355 356  40
356 357  40
357 358  40
358 359  40
359 360  40
360 361  40
361 362  40
362 27  40
27 363  41
363 364  41
364 365  41
365 366  41
366 29  41
29 367  42
367 368  42
368 369  42
369 370  42
370 371  42
371 372  42
372 373  42
373 30  42
30 374  43
374 375  43
375 376  43
376 377  43
377 28  43
9 378  44
378 379  44
379 380  44
380 381  44
381 31  44
31 382  45
382 383  45
383 384  45
384 385  45
385 386  45
386 387  45
387 388  45
388 32  45
32 389  46
389 390  46
390 391  46
391 392  46
392 10  46
33 393  47
393 394  47
394 395  47
395 396  47
396 29  47
33 397  48
397 398  48
398 399  48
399 34  48
30 400  49
400 401  49
401 402  49
402 34  49
34 403  50
403 404  50
404 405  50
405 406  50
406 407  50
407 408  50
408 409  50
409 410  50
410 35  50
35 411  51
411 412  51
412 413  51
413 414  51
414 415  51
415 416  51
416 417  51
417 418  51
418 36  51
36 419  52
419 420  52
420 421  52
421 422  52
422 31  52
37 423  53
423 424  53
424 425  53
425 36  53
32 426  54
426 427  54
427 428  54
428 429  54
429 37  54
37 430  55
430 431  55
431 432  55
432 433  55
433 434  55
434 435  55
435 436  55
436 437  55
437 38  55
38 438  56
438 439  56
439 440  56
440 441  56
441 442  56
442 443  56
443 444  56
444 445  56
445 33  56
38 446  57
446 447  57
447 448  57
448 35  57
End
