MeshVersionFormatted 1

Dimension
3

Vertices
72
-36.928932188134503  -50  0  0
-50  -50  0  0
-50  -36.928932188134503  0  0
-50  36.928932188134503  0  0
-50  50  0  0
-36.928932188134503  50  0  0
50  50  0  0
50  36.928932188134503  0  0
36.928932188134503  50  0  0
14.142135623731001  -50  20  0
14.142135623731001  -50  -20  0
-2.48689957516035e-14  -35.857864376268999  20  0
-2.48689957516035e-14  -35.857864376268999  -20  0
-14.142135623731001  -50  20  0
-14.142135623731001  -50  -20  0
-36.928932188134503  -50  20  0
-50  -50  -20  0
-50  -36.928932188134503  20  0
-50  -14.142135623731001  20  0
-50  -14.142135623731001  -20  0
-35.857864376268999  2.48689957516035e-14  20  0
-35.857864376268999  2.48689957516035e-14  -20  0
-50  14.142135623731001  20  0
-50  14.142135623731001  -20  0
-50  36.928932188134503  20  0
-50  50  -20  0
-36.928932188134503  50  20  0
-14.142135623731001  50  20  0
-14.142135623731001  50  -20  0
2.48689957516035e-14  35.857864376268999  20  0
2.48689957516035e-14  35.857864376268999  -20  0
14.142135623731001  50  20  0
14.142135623731001  50  -20  0
36.928932188134503  50  20  0
50  50  -20  0
50  36.928932188134503  20  0
50  14.142135623731001  20  0
50  14.142135623731001  -20  0
35.857864376268999  -2.48689957516035e-14  20  0
35.857864376268999  -2.48689957516035e-14  -20  0
50  -14.142135623731001  20  0
50  -14.142135623731001  -20  0
50  -50  -20  0
50  -36.928932188134503  0  0
50  -50  0  0
36.928932188134503  -50  0  0
36.928932188134503  -50  20  0
50  -36.928932188134503  20  0
14.142135623730899  -50  0  0
-2.48689957516035e-14  -35.857864376268999  0  0
-14.142135623731001  -50  0  0
-50  -14.142135623731001  0  0
-35.857864376268999  2.48689957516035e-14  0  0
-50  14.142135623731001  0  0
-50  32.071067811865504  -20  0
-14.142135623731001  50  0  0
-32.071067811865504  50  -20  0
2.48689957516035e-14  35.857864376268999  0  0
14.142135623730899  50  0  0
50  14.142135623731001  0  0
35.857864376268999  -2.48689957516035e-14  0  0
50  -14.142135623731001  0  0
24.981821557311065  -24.991285416151261  -20  0
-0.13203047737250054  0.12283172724794458  -20  0
24.981821557311076  25.008714583848739  -20  0
-25.018178442688939  -24.99128541615125  -20  0
-26.02287552136168  26.014763642355817  -20  0
-26.703320405823483  -26.703320405823476  20  0
-26.703646798302735  26.69065928223781  20  0
26.690659282237799  -26.703646798302742  20  0
26.697608639661436  26.697608639661425  20  0
-0.013241375860898156  -0.013241375860898184  20  0
Triangles
140
3 2 1  1
5 4 6  2
7 9 8  3
13 49 50  4
49 12 50  4
12 49 10  4
49 13 11  4
51 12 14  5
12 51 50  5
51 13 50  5
13 51 15  5
16 51 14  6
1 2 17  6
51 16 1  6
1 15 51  6
15 1 17  6
3 1 18  7
18 1 16  7
18 52 19  8
3 2 17  8
52 18 3  8
3 20 52  8
20 3 17  8
20 52 22  9
22 52 53  9
52 21 53  9
21 52 19  9
24 22 54  10
54 53 21  10
53 54 22  10
54 21 23  10
54 25 23  11
25 54 4  11
54 55 4  11
4 26 5  11
55 54 24  11
26 4 55  11
6 25 27  12
25 6 4  12
27 56 28  13
26 6 5  13
56 27 6  13
6 26 57  13
57 56 6  13
56 57 29  13
28 30 56  14
29 58 31  14
58 29 56  14
56 30 58  14
31 59 33  15
59 31 58  15
59 58 30  15
59 30 32  15
32 9 34  16
9 32 59  16
9 59 33  16
33 35 9  16
7 9 35  16
34 36 9  17
9 36 8  17
36 37 60  18
60 8 36  18
8 60 38  18
38 35 8  18
7 8 35  18
39 60 37  19
60 39 61  19
60 61 40  19
60 40 38  19
39 62 61  20
40 62 42  20
62 40 61  20
62 39 41  20
64 65 31  21
35 65 38  21
55 67 57  21
66 64 22  21
29 67 31  21
66 17 15  21
63 42 40  21
55 57 26  21
24 67 55  21
17 66 20  21
63 43 42  21
65 40 38  21
67 64 31  21
43 63 11  21
65 64 40  21
40 64 63  21
64 66 13  21
13 11 63  21
64 67 22  21
64 13 63  21
65 35 33  21
33 31 65  21
22 20 66  21
66 15 13  21
67 29 57  21
67 24 22  21
44 46 45  22
10 46 47  23
46 10 49  23
46 49 11  23
11 43 46  23
45 46 43  23
16 68 18  24
18 68 19  24
68 16 14  24
23 21 69  24
41 39 70  24
68 72 21  24
21 72 69  24
27 69 28  24
69 27 25  24
72 39 71  24
39 37 71  24
72 68 12  24
71 34 32  24
36 71 37  24
34 71 36  24
70 47 48  24
47 70 10  24
30 72 71  24
14 12 68  24
68 21 19  24
69 30 28  24
69 25 23  24
70 12 10  24
70 48 41  24
71 32 30  24
39 72 70  24
12 70 72  24
72 30 69  24
48 62 41  25
44 45 43  25
62 48 44  25
44 42 62  25
42 44 43  25
48 47 46  26
48 46 44  26
Edges
86
1 2  1
3 1  2
2 3  3
4 5  4
6 4  5
5 6  6
7 8  7
9 7  8
8 9  9
10 49  10
49 11  10
12 10  11
12 50  12
50 13  12
11 13  13
14 12  14
15 51  15
51 14  15
13 15  16
16 1  17
2 17  18
15 17  19
16 14  20
18 16  21
3 18  22
19 18  23
19 52  24
52 20  24
17 20  25
21 19  26
21 53  27
53 22  27
20 22  28
23 21  29
24 54  30
54 23  30
22 24  31
25 4  32
5 26  33
24 55  34
55 26  34
25 23  35
27 25  36
6 27  37
28 27  38
28 56  39
56 29  39
26 57  40
57 29  40
30 28  41
30 58  42
58 31  42
29 31  43
32 30  44
33 59  45
59 32  45
31 33  46
34 9  47
7 35  48
33 35  49
34 32  50
8 36  51
36 34  52
37 36  53
37 60  54
60 38  54
35 38  55
39 37  56
39 61  57
61 40  57
38 40  58
41 39  59
42 62  60
62 41  60
40 42  61
42 43  62
43 11  63
44 45  64
46 44  65
45 46  66
46 47  67
10 47  68
45 43  69
47 48  70
48 41  71
48 44  72
End
