MeshVersionFormatted 1

Dimension
3

Vertices
781
30.886857720620899  -46.090085061297202  9.3989150667925294  0
59.701524826102897  -46.090085061297202  34.8775042468856  0
30.886857720621101  -46.090085061297202  90.710760746893996  0
59.701524826102997  -46.090085061297202  65.232171566800801  0
1.3897642708855  -46.090085061297202  9.3989150667925792  0
1.3897642708856499  -46.090085061297202  90.710760746894096  0
59.701524826102997  -46.090085061297202  64.808442559117793  0
59.701524826102897  -46.090085061297202  35.301233254568601  0
1.3897642708856499  -46.090085061297202  94.710760746894096  0
1.38976427088549  -46.090085061297202  5.39891506679258  0
63.701524826102897  -46.090085061297202  35.301233254568601  0
63.701524826102997  -46.090085061297202  64.808442559117793  0
34.023612912642903  -46.090085061297202  94.710760746893996  0
34.023612912642797  -46.090085061297202  5.3989150667925303  0
63.701524826102997  -46.090085061297202  68.808442559117793  0
63.701524826102897  -46.090085061297202  31.301233254568601  0
33.384355095486335  -46.090085061297209  15.670070188646179  0
37.00480682040682  -46.090085061297209  21.367193059651445  0
41.621833291078076  -46.090085061297209  26.291413431337908  0
47.074267332031567  -46.090085061297216  30.270840868653803  0
53.17178008130584  -46.090085061297209  33.166564952928532  0
30.886857720620927  -53.149911973839323  10.016569888095255  0
30.886857720620931  -59.995229618088665  11.850767222806383  0
30.886857720620938  -66.418046481322534  14.845775913059398  0
30.886857720620945  -72.22320852325376  18.910594135348514  0
30.886857720620956  -77.234328832791974  23.921714444886717  0
30.886857720620966  -81.299147055081079  29.726876486817925  0
30.886857720620981  -84.294155745334109  36.149693350051834  0
30.886857720620991  -86.12835308004523  42.995010994301154  0
30.886857720621006  -86.746007901347895  50.054837906843282  0
30.88685772062102  -86.128353080045244  57.114664819385411  0
30.88685772062103  -84.294155745334123  63.959982463634738  0
30.886857720621041  -81.299147055081079  70.38279932686865  0
30.886857720621052  -77.234328832791988  76.187961368799861  0
30.886857720621059  -72.223208523253788  81.199081678338061  0
30.886857720621066  -66.418046481322577  85.263899900627166  0
30.886857720621069  -59.995229618088672  88.25890859088021  0
30.886857720621073  -53.149911973839345  90.093105925591331  0
53.171780081305926  -46.090085061297195  66.943110860757798  0
47.074267332031653  -46.090085061297195  69.838834945032573  0
41.621833291078154  -46.090085061297202  73.818262382348493  0
37.004806820406912  -46.090085061297202  78.742482754034995  0
33.384355095486455  -46.090085061297202  84.439605625040286  0
59.701524826102869  -46.972568530272639  34.903181893302403  0
59.701524826102869  -47.85206595453262  34.980127947525396  0
59.701524826102869  -48.725601393191795  35.1080820484638  0
59.701524826102869  -49.590219078836867  35.28661123994295  0
59.701524826102869  -50.442993418907875  35.515111435690962  0
59.701524826102869  -51.281038894977392  35.792809463375455  0
59.701524826102876  -52.101519826431421  36.11876568077399  0
59.701524826102876  -52.901659965515051  36.491877155225886  0
59.701524826102876  -53.678751891275994  36.910881395607262  0
59.701524826102876  -54.430166170620147  37.37436062420133  0
59.701524826102876  -55.15336025548077  37.880746574009407  0
59.701524826102876  -55.845887085996402  38.428325795270055  0
59.701524826102876  -56.505403370586762  39.015245453230627  0
59.701524826102883  -57.129677514909766  39.63951959755363  0
59.701524826102883  -57.716597172870337  40.29903588214399  0
59.701524826102883  -58.264176394130985  40.991562712659622  0
59.701524826102883  -58.770562343939069  41.714756797520252  0
59.701524826102883  -59.23404157253313  42.466171076864384  0
59.70152482610289  -59.653045812914513  43.243263002625341  0
59.70152482610289  -60.026157287366409  44.043403141708971  0
59.70152482610289  -60.352113504764944  44.863884073163007  0
59.70152482610289  -60.629811532449438  45.701929549232503  0
59.70152482610289  -60.858311728197449  46.554703889303525  0
59.701524826102897  -61.0368409196766  47.419321574948597  0
59.701524826102897  -61.164795020615003  48.292857013607772  0
59.701524826102897  -61.241741074838004  49.172354437867746  0
59.701524826102897  -61.267418721254799  50.05483790684319  0
59.701524826102904  -61.241741074838004  50.937321375818634  0
59.701524826102904  -61.164795020615003  51.816818800078622  0
59.701524826102904  -61.0368409196766  52.69035423873779  0
59.701524826102904  -60.858311728197449  53.554971924382862  0
59.701524826102904  -60.629811532449438  54.407746264453877  0
59.701524826102911  -60.352113504764944  55.24579174052338  0
59.701524826102911  -60.026157287366416  56.066272671977416  0
59.701524826102911  -59.653045812914513  56.866412811061046  0
59.701524826102911  -59.234041572533137  57.643504736821995  0
59.701524826102911  -58.770562343939076  58.394919016166135  0
59.701524826102919  -58.264176394130992  59.118113101026765  0
59.701524826102919  -57.716597172870344  59.810639931542397  0
59.701524826102919  -57.129677514909773  60.470156216132764  0
59.701524826102919  -56.505403370586777  61.09443036045576  0
59.701524826102919  -55.845887085996409  61.681350018416332  0
59.701524826102919  -55.153360255480777  62.22892923967698  0
59.701524826102919  -54.430166170620147  62.735315189485064  0
59.701524826102926  -53.678751891276008  63.198794418079125  0
59.701524826102926  -52.901659965515059  63.617798658460501  0
59.701524826102926  -52.101519826431428  63.990910132912404  0
59.701524826102926  -51.281038894977399  64.316866350310931  0
59.701524826102926  -50.442993418907896  64.594564377995425  0
59.701524826102926  -49.590219078836874  64.823064573743437  0
59.701524826102926  -48.725601393191802  65.001593765222594  0
59.701524826102926  -47.852065954532627  65.129547866161005  0
59.701524826102926  -46.972568530272653  65.206493920383991  0
59.701524826102926  -45.207601592321765  65.206493920383991  0
59.701524826102926  -44.328104168061778  65.129547866161005  0
59.701524826102926  -43.454568729402602  65.001593765222594  0
59.701524826102926  -42.589951043757537  64.823064573743437  0
59.701524826102926  -41.737176703686522  64.594564377995425  0
59.701524826102926  -40.899131227617012  64.316866350310931  0
59.701524826102919  -40.078650296162976  63.990910132912404  0
59.701524826102919  -39.278510157079353  63.617798658460508  0
59.701524826102919  -38.501418231318404  63.198794418079132  0
59.701524826102919  -37.750003951974257  62.735315189485064  0
59.701524826102919  -37.026809867113627  62.228929239676987  0
59.701524826102919  -36.334283036598002  61.681350018416339  0
59.701524826102919  -35.674766752007642  61.094430360455767  0
59.701524826102911  -35.050492607684639  60.470156216132764  0
59.701524826102911  -34.463572949724067  59.810639931542397  0
59.701524826102911  -33.91599372846342  59.118113101026772  0
59.701524826102911  -33.409607778655335  58.394919016166142  0
59.701524826102911  -32.946128550061268  57.643504736822003  0
59.701524826102904  -32.527124309679891  56.866412811061053  0
59.701524826102904  -32.154012835227995  56.06627267197743  0
59.701524826102904  -31.828056617829461  55.245791740523394  0
59.701524826102904  -31.550358590144967  54.407746264453884  0
59.701524826102904  -31.321858394396955  53.554971924382869  0
59.701524826102897  -31.143329202917805  52.690354238737797  0
59.701524826102897  -31.015375101979402  51.816818800078622  0
59.701524826102897  -30.938429047756404  50.937321375818641  0
59.701524826102897  -30.912751401339602  50.054837906843197  0
59.70152482610289  -30.938429047756404  49.17235443786776  0
59.70152482610289  -31.015375101979402  48.292857013607772  0
59.70152482610289  -31.143329202917805  47.419321574948597  0
59.70152482610289  -31.321858394396955  46.554703889303532  0
59.70152482610289  -31.550358590144967  45.701929549232517  0
59.701524826102883  -31.828056617829461  44.863884073163007  0
59.701524826102883  -32.154012835227995  44.043403141708971  0
59.701524826102883  -32.527124309679891  43.243263002625348  0
59.701524826102883  -32.946128550061268  42.466171076864399  0
59.701524826102883  -33.409607778655335  41.714756797520252  0
59.701524826102876  -33.915993728463413  40.991562712659629  0
59.701524826102876  -34.46357294972406  40.299035882143997  0
59.701524826102876  -35.050492607684632  39.639519597553637  0
59.701524826102876  -35.674766752007635  39.015245453230634  0
59.701524826102876  -36.334283036597995  38.428325795270062  0
59.701524826102876  -37.026809867113627  37.880746574009414  0
59.701524826102876  -37.75000395197425  37.37436062420133  0
59.701524826102869  -38.501418231318404  36.910881395607262  0
59.701524826102869  -39.278510157079346  36.491877155225893  0
59.701524826102869  -40.078650296162976  36.11876568077399  0
59.701524826102869  -40.899131227617005  35.792809463375455  0
59.701524826102869  -41.737176703686515  35.515111435690962  0
59.701524826102869  -42.58995104375753  35.28661123994295  0
59.701524826102869  -43.454568729402602  35.1080820484638  0
59.701524826102869  -44.328104168061778  34.980127947525396  0
59.701524826102869  -45.207601592321758  34.903181893302403  0
30.886857720621069  -39.030258148755074  90.093105925591331  0
30.886857720621066  -32.18494050450574  88.25890859088021  0
30.886857720621059  -25.762123641271859  85.263899900627194  0
30.886857720621052  -19.956961599340641  81.199081678338075  0
30.886857720621041  -14.945841289802427  76.187961368799876  0
30.88685772062103  -10.881023067513318  70.38279932686865  0
30.886857720621016  -7.8860143772602882  63.959982463634773  0
30.886857720621006  -6.0518170425491675  57.114664819385439  0
30.886857720620991  -5.4341622212465026  50.054837906843304  0
30.886857720620977  -6.0518170425491675  42.995010994301168  0
30.886857720620966  -7.8860143772602882  36.149693350051834  0
30.886857720620956  -10.881023067513311  29.726876486817957  0
30.886857720620945  -14.94584128980242  23.921714444886732  0
30.886857720620938  -19.956961599340623  18.910594135348529  0
30.886857720620931  -25.762123641271852  14.845775913059406  0
30.886857720620927  -32.184940504505725  11.850767222806383  0
30.886857720620924  -39.030258148755046  10.016569888095262  0
1.3897642708854976  -53.149911973839323  10.016569888095255  0
1.389764270885502  -59.995229618088665  11.850767222806383  0
1.3897642708855087  -66.418046481322534  14.845775913059398  0
1.3897642708855171  -72.22320852325376  18.910594135348514  0
1.3897642708855271  -77.234328832791974  23.921714444886717  0
1.3897642708855384  -81.299147055081079  29.726876486817925  0
1.3897642708855509  -84.294155745334109  36.149693350051834  0
1.3897642708855638  -86.12835308004523  42.995010994301154  0
1.3897642708855766  -86.746007901347895  50.054837906843282  0
1.3897642708855895  -86.128353080045244  57.114664819385411  0
1.3897642708856019  -84.294155745334123  63.959982463634738  0
1.3897642708856133  -81.299147055081079  70.38279932686865  0
1.3897642708856233  -77.234328832791988  76.187961368799861  0
1.3897642708856315  -72.223208523253788  81.199081678338061  0
1.3897642708856381  -66.418046481322577  85.263899900627166  0
1.3897642708856426  -59.995229618088672  88.25890859088021  0
1.3897642708856448  -53.149911973839345  90.093105925591331  0
1.3897642708856424  -39.030258148755074  90.093105925591331  0
1.3897642708856379  -32.18494050450574  88.25890859088021  0
1.3897642708856313  -25.762123641271859  85.263899900627194  0
1.3897642708856228  -19.956961599340641  81.199081678338075  0
1.3897642708856128  -14.945841289802427  76.187961368799876  0
1.3897642708856015  -10.881023067513318  70.38279932686865  0
1.3897642708855891  -7.8860143772602882  63.959982463634773  0
1.3897642708855762  -6.0518170425491675  57.114664819385439  0
1.3897642708855633  -5.4341622212465026  50.054837906843304  0
1.3897642708855504  -6.0518170425491675  42.995010994301168  0
1.389764270885538  -7.8860143772602882  36.149693350051834  0
1.3897642708855267  -10.881023067513311  29.726876486817957  0
1.3897642708855167  -14.94584128980242  23.921714444886732  0
1.3897642708855085  -19.956961599340623  18.910594135348529  0
1.3897642708855018  -25.762123641271852  14.845775913059406  0
1.3897642708854974  -32.184940504505725  11.850767222806383  0
1.3897642708854951  -39.030258148755046  10.016569888095262  0
59.701524826102926  -45.446541864934616  64.794400396619963  0
59.701524826102926  -44.804223689622908  64.752300639180859  0
59.701524826102926  -44.164353224515764  64.682223426081592  0
59.701524826102926  -43.528148499411373  64.584302153280206  0
59.701524826102926  -42.896820566163491  64.458723219484966  0
59.701524826102926  -42.271571193375387  64.305725671333789  0
59.701524826102926  -41.653590578765005  64.125600748355382  0
59.701524826102919  -41.044055083555989  63.918691328578291  0
59.701524826102919  -40.444124993207204  63.685391275843003  0
59.701524826102919  -39.854942308743418  63.426144690059814  0
59.701524826102919  -39.277628572891466  63.141445061839377  0
59.701524826102919  -38.713282735159908  62.831834333105277  0
59.701524826102919  -38.16297905992618  62.497901865476791  0
59.701524826102919  -37.627765081513324  62.140283318385514  0
59.701524826102919  -37.108659610148806  61.759659439061558  0
59.701524826102919  -36.606650792601407  61.356754766692461  0
59.701524826102919  -36.122694231187637  60.932336253221671  0
59.701524826102911  -35.65771116472844  60.487211803411967  0
59.701524826102911  -35.212586714918729  60.022228736952769  0
59.701524826102911  -34.788168201447945  59.538272175538992  0
59.701524826102911  -34.385263529078841  59.036263357991594  0
59.701524826102911  -34.004639649754886  58.517157886627075  0
59.701524826102911  -33.647021102663615  57.98194390821422  0
59.701524826102911  -33.313088635035122  57.431640232980499  0
59.701524826102904  -33.003477906301022  56.86729439524894  0
59.701524826102904  -32.718778278080585  56.289980659396988  0
59.701524826102904  -32.459531692297404  55.700797974933202  0
59.701524826102904  -32.226231639562116  55.10086788458441  0
59.701524826102904  -32.019322219785018  54.491332389375401  0
59.701524826102904  -31.839197296806617  53.87335177476502  0
59.701524826102897  -31.68619974865544  53.248102401976908  0
59.701524826102897  -31.560620814860194  52.616774468729027  0
59.701524826102897  -31.462699542058807  51.980569743624642  0
59.701524826102897  -31.392622328959533  51.340699278517498  0
59.701524826102897  -31.35052257152044  50.69838110320579  0
59.701524826102897  -31.336480409022602  50.054837906843197  0
59.70152482610289  -31.35052257152044  49.411294710480611  0
59.70152482610289  -31.392622328959533  48.768976535168903  0
59.70152482610289  -31.462699542058807  48.129106070061759  0
59.70152482610289  -31.560620814860194  47.492901344957367  0
59.70152482610289  -31.68619974865544  46.861573411709486  0
59.70152482610289  -31.839197296806617  46.236324038921381  0
59.70152482610289  -32.019322219785018  45.618343424311007  0
59.701524826102883  -32.226231639562116  45.008807929101991  0
59.701524826102883  -32.459531692297404  44.408877838753199  0
59.701524826102883  -32.718778278080585  43.819695154289413  0
59.701524826102883  -33.003477906301022  43.242381418437461  0
59.701524826102883  -33.313088635035115  42.678035580705902  0
59.701524826102883  -33.647021102663608  42.127731905472181  0
59.701524826102883  -34.004639649754878  41.592517927059319  0
59.701524826102876  -34.385263529078841  41.073412455694807  0
59.701524826102876  -34.788168201447945  40.571403638147402  0
59.701524826102876  -35.212586714918729  40.087447076733632  0
59.701524826102876  -35.657711164728433  39.622464010274435  0
59.701524826102876  -36.12269423118763  39.177339560464731  0
59.701524826102876  -36.6066507926014  38.75292104699394  0
59.701524826102876  -37.108659610148806  38.350016374624843  0
59.701524826102876  -37.627765081513317  37.96939249530088  0
59.701524826102876  -38.16297905992618  37.61177394820961  0
59.701524826102876  -38.7132827351599  37.277841480581117  0
59.701524826102869  -39.277628572891459  36.968230751847017  0
59.701524826102869  -39.854942308743411  36.68353112362658  0
59.701524826102869  -40.444124993207197  36.424284537843391  0
59.701524826102869  -41.044055083555989  36.19098448510811  0
59.701524826102869  -41.653590578764998  35.984075065331012  0
59.701524826102869  -42.271571193375379  35.803950142352612  0
59.701524826102869  -42.896820566163484  35.650952594201435  0
59.701524826102869  -43.528148499411365  35.525373660406188  0
59.701524826102869  -44.164353224515757  35.427452387604802  0
59.701524826102869  -44.804223689622901  35.357375174505528  0
59.701524826102869  -45.446541864934609  35.315275417066431  0
59.701524826102869  -46.733628257659788  35.315275417066431  0
59.701524826102869  -47.375946432971496  35.357375174505528  0
59.701524826102869  -48.01581689807864  35.427452387604802  0
59.701524826102869  -48.652021623183025  35.525373660406188  0
59.701524826102869  -49.283349556430913  35.650952594201435  0
59.701524826102869  -49.908598929219025  35.803950142352612  0
59.701524826102869  -50.526579543829399  35.984075065331012  0
59.701524826102876  -51.136115039038408  36.190984485108103  0
59.701524826102876  -51.7360451293872  36.424284537843391  0
59.701524826102876  -52.325227813850987  36.68353112362658  0
59.701524826102876  -52.902541549702939  36.968230751847017  0
59.701524826102876  -53.466887387434497  37.27784148058111  0
59.701524826102876  -54.017191062668218  37.611773948209603  0
59.701524826102876  -54.55240504108108  37.96939249530088  0
59.701524826102876  -55.071510512445599  38.350016374624836  0
59.701524826102876  -55.573519329992997  38.752921046993933  0
59.701524826102876  -56.057475891406767  39.177339560464723  0
59.701524826102883  -56.522458957865965  39.622464010274427  0
59.701524826102883  -56.967583407675669  40.087447076733625  0
59.701524826102883  -57.392001921146459  40.571403638147395  0
59.701524826102883  -57.794906593515556  41.073412455694793  0
59.701524826102883  -58.175530472839512  41.592517927059312  0
59.701524826102883  -58.533149019930789  42.127731905472167  0
59.701524826102883  -58.867081487559282  42.678035580705888  0
59.70152482610289  -59.176692216293382  43.242381418437446  0
59.70152482610289  -59.461391844513813  43.819695154289398  0
59.70152482610289  -59.720638430297001  44.408877838753185  0
59.70152482610289  -59.953938483032289  45.008807929101984  0
59.70152482610289  -60.160847902809387  45.618343424311  0
59.70152482610289  -60.340972825787787  46.236324038921381  0
59.701524826102897  -60.493970373938964  46.861573411709486  0
59.701524826102897  -60.619549307734211  47.492901344957367  0
59.701524826102897  -60.717470580535597  48.129106070061752  0
59.701524826102897  -60.787547793634872  48.768976535168896  0
59.701524826102897  -60.829647551073961  49.411294710480604  0
59.701524826102897  -60.843689713571806  50.05483790684319  0
59.701524826102904  -60.829647551073961  50.698381103205783  0
59.701524826102904  -60.787547793634872  51.340699278517491  0
59.701524826102904  -60.717470580535597  51.980569743624635  0
59.701524826102904  -60.619549307734211  52.61677446872902  0
59.701524826102904  -60.493970373938964  53.248102401976901  0
59.701524826102904  -60.340972825787787  53.873351774765005  0
59.701524826102904  -60.160847902809394  54.491332389375387  0
59.701524826102911  -59.953938483032296  55.100867884584396  0
59.701524826102911  -59.720638430297008  55.700797974933188  0
59.701524826102911  -59.461391844513813  56.289980659396988  0
59.701524826102911  -59.176692216293382  56.86729439524894  0
59.701524826102911  -58.867081487559282  57.431640232980499  0
59.701524826102911  -58.533149019930796  57.98194390821422  0
59.701524826102911  -58.175530472839526  58.517157886627075  0
59.701524826102919  -57.794906593515563  59.036263357991587  0
59.701524826102919  -57.392001921146466  59.538272175538992  0
59.701524826102919  -56.967583407675676  60.022228736952762  0
59.701524826102919  -56.522458957865972  60.487211803411959  0
59.701524826102919  -56.057475891406774  60.932336253221663  0
59.701524826102919  -55.573519329993005  61.356754766692447  0
59.701524826102919  -55.071510512445599  61.759659439061551  0
59.701524826102919  -54.552405041081087  62.140283318385514  0
59.701524826102919  -54.017191062668232  62.497901865476784  0
59.701524826102919  -53.466887387434511  62.831834333105277  0
59.701524826102926  -52.902541549702953  63.141445061839377  0
59.701524826102926  -52.325227813851001  63.426144690059807  0
59.701524826102926  -51.736045129387215  63.685391275842996  0
59.701524826102926  -51.136115039038415  63.918691328578291  0
59.701524826102926  -50.526579543829399  64.125600748355382  0
59.701524826102926  -49.908598929219025  64.305725671333789  0
59.701524826102926  -49.283349556430913  64.458723219484966  0
59.701524826102926  -48.652021623183032  64.584302153280206  0
59.701524826102926  -48.015816898078647  64.682223426081592  0
59.701524826102926  -47.375946432971503  64.752300639180859  0
59.701524826102926  -46.733628257659795  64.794400396619963  0
1.3897642708856495  -38.335665438087354  94.032336937640167  0
1.3897642708856446  -30.816859931203062  92.017679074023846  0
1.3897642708856373  -23.762123641271859  88.728001515764944  0
1.3897642708856282  -17.385811160594482  84.26325945081399  0
1.389764270885617  -11.881663517326515  78.75911180754602  0
1.3897642708856046  -7.4169214523755613  72.38279932686865  0
1.3897642708855911  -4.1272438941166598  65.328063036937451  0
1.3897642708855769  -2.1125860305003314  57.809257530053159  0
1.3897642708855626  -1.4341622212465026  50.054837906843304  0
1.3897642708855484  -2.1125860305003314  42.300418283633448  0
1.3897642708855349  -4.1272438941166527  34.781612776749157  0
1.3897642708855225  -7.4169214523755542  27.726876486817957  0
1.3897642708855116  -11.881663517326515  21.350564006140573  0
1.3897642708855023  -17.385811160594468  15.84641636287261  0
1.3897642708854951  -23.762123641271852  11.381674297921649  0
1.3897642708854903  -30.816859931203048  8.0919967396627541  0
1.3897642708854878  -38.335665438087325  6.0773388760464258  0
1.3897642708854905  -53.844504684507044  6.0773388760464258  0
1.3897642708854954  -61.363310191391335  8.091996739662747  0
1.3897642708855027  -68.418046481322534  11.381674297921649  0
1.3897642708855118  -74.794358961999919  15.84641636287261  0
1.3897642708855229  -80.298506605267889  21.350564006140562  0
1.3897642708855353  -84.763248670218843  27.726876486817922  0
1.3897642708855489  -88.052926228477759  34.781612776749157  0
1.3897642708855631  -90.06758409209408  42.300418283633434  0
1.3897642708855773  -90.746007901347895  50.054837906843282  0
1.3897642708855915  -90.06758409209408  57.809257530053131  0
1.3897642708856051  -88.052926228477759  65.328063036937408  0
1.3897642708856175  -84.763248670218843  72.38279932686865  0
1.3897642708856284  -80.298506605267903  78.75911180754602  0
1.3897642708856377  -74.794358961999947  84.263259450813976  0
1.3897642708856448  -68.418046481322577  88.72800151576493  0
1.3897642708856497  -61.363310191391342  92.017679074023846  0
1.3897642708856521  -53.844504684507065  94.032336937640167  0
61.701524826102897  -46.090085061297202  35.301233254568601  0
63.701524826102869  -48.652021623183025  35.525373660406188  0
63.701524826102876  -51.136115039038408  36.190984485108103  0
63.701524826102876  -53.466887387434497  37.27784148058111  0
63.701524826102876  -55.573519329992997  38.752921046993933  0
63.701524826102883  -57.392001921146459  40.571403638147395  0
63.701524826102883  -58.867081487559282  42.678035580705888  0
63.70152482610289  -59.953938483032289  45.008807929101984  0
63.701524826102897  -60.619549307734211  47.492901344957367  0
63.701524826102897  -60.843689713571806  50.05483790684319  0
63.701524826102904  -60.619549307734211  52.61677446872902  0
63.701524826102911  -59.953938483032296  55.100867884584396  0
63.701524826102911  -58.867081487559282  57.431640232980499  0
63.701524826102919  -57.392001921146466  59.538272175538992  0
63.701524826102919  -55.573519329993005  61.356754766692447  0
63.701524826102919  -53.466887387434511  62.831834333105277  0
63.701524826102926  -51.136115039038415  63.918691328578291  0
63.701524826102926  -48.652021623183032  64.584302153280206  0
61.701524826102997  -46.090085061297202  64.808442559117793  0
63.701524826102926  -43.528148499411373  64.584302153280206  0
63.701524826102919  -41.044055083555989  63.918691328578291  0
63.701524826102919  -38.713282735159908  62.831834333105277  0
63.701524826102919  -36.606650792601407  61.356754766692461  0
63.701524826102911  -34.788168201447945  59.538272175538992  0
63.701524826102911  -33.313088635035122  57.431640232980499  0
63.701524826102904  -32.226231639562116  55.10086788458441  0
63.701524826102897  -31.560620814860194  52.616774468729027  0
63.701524826102897  -31.336480409022602  50.054837906843197  0
63.70152482610289  -31.560620814860194  47.492901344957367  0
63.701524826102883  -32.226231639562116  45.008807929101991  0
63.701524826102883  -33.313088635035115  42.678035580705902  0
63.701524826102876  -34.788168201447945  40.571403638147402  0
63.701524826102876  -36.6066507926014  38.75292104699394  0
63.701524826102876  -38.7132827351599  37.277841480581117  0
63.701524826102869  -41.044055083555989  36.19098448510811  0
63.701524826102869  -43.528148499411365  35.525373660406188  0
17.706688591764276  -46.090085061297202  94.710760746893996  0
34.023612912642982  -38.335665438087354  94.032336937640167  0
34.023612912642974  -30.816859931203062  92.017679074023846  0
34.023612912642967  -23.762123641271859  88.728001515764944  0
34.02361291264296  -17.385811160594482  84.26325945081399  0
34.023612912642953  -11.881663517326515  78.75911180754602  0
34.023612912642939  -7.4169214523755613  72.38279932686865  0
34.023612912642925  -4.1272438941166598  65.328063036937451  0
34.023612912642911  -2.1125860305003314  57.809257530053159  0
34.023612912642896  -1.4341622212465026  50.054837906843304  0
34.023612912642882  -2.1125860305003314  42.300418283633448  0
34.023612912642868  -4.1272438941166527  34.781612776749157  0
34.023612912642854  -7.4169214523755542  27.726876486817957  0
34.023612912642847  -11.881663517326515  21.350564006140573  0
34.023612912642832  -17.385811160594468  15.84641636287261  0
34.023612912642825  -23.762123641271852  11.381674297921649  0
34.023612912642825  -30.816859931203048  8.0919967396627541  0
34.023612912642818  -38.335665438087325  6.0773388760464258  0
17.706688591764145  -46.090085061297202  5.3989150667925498  0
34.023612912642825  -53.844504684507044  6.0773388760464258  0
34.023612912642832  -61.363310191391335  8.091996739662747  0
34.023612912642839  -68.418046481322534  11.381674297921649  0
34.023612912642847  -74.794358961999919  15.84641636287261  0
34.023612912642854  -80.298506605267889  21.350564006140562  0
34.023612912642868  -84.763248670218843  27.726876486817922  0
34.023612912642882  -88.052926228477759  34.781612776749157  0
34.023612912642896  -90.06758409209408  42.300418283633434  0
34.023612912642911  -90.746007901347895  50.054837906843282  0
34.023612912642925  -90.06758409209408  57.809257530053131  0
34.023612912642939  -88.052926228477759  65.328063036937408  0
34.023612912642953  -84.763248670218843  72.38279932686865  0
34.02361291264296  -80.298506605267903  78.75911180754602  0
34.023612912642974  -74.794358961999947  84.263259450813976  0
34.023612912642982  -68.418046481322577  88.72800151576493  0
34.023612912642982  -61.363310191391342  92.017679074023846  0
34.023612912642989  -53.844504684507065  94.032336937640167  0
63.701524826102933  -42.833555788743652  68.523533165329042  0
63.701524826102926  -39.675974510253319  67.677461811721912  0
63.701524826102926  -36.713282735159908  66.295935948243027  0
63.701524826102919  -34.035500353855255  64.420932539168376  0
63.701524826102919  -31.723990428972034  62.109422614285151  0
63.701524826102911  -29.848987019897365  59.431640232980499  0
63.701524826102904  -28.46746115641848  56.468948457887087  0
63.701524826102897  -27.621389802811361  53.311367179396754  0
63.701524826102897  -27.336480409022602  50.054837906843197  0
63.70152482610289  -27.621389802811361  46.798308634289647  0
63.701524826102883  -28.46746115641848  43.640727355799314  0
63.701524826102876  -29.848987019897365  40.678035580705902  0
63.701524826102876  -31.72399042897203  38.000253199401243  0
63.701524826102869  -34.035500353855241  35.688743274518032  0
63.701524826102869  -36.7132827351599  33.81373986544336  0
63.701524826102862  -39.675974510253312  32.432214001964475  0
63.701524826102862  -42.833555788743645  31.586142648357356  0
63.701524826102862  -49.346614333850745  31.586142648357356  0
63.701524826102869  -52.504195612341086  32.432214001964475  0
63.701524826102869  -55.466887387434497  33.813739865443353  0
63.701524826102876  -58.144669768739149  35.688743274518025  0
63.701524826102876  -60.456179693622367  38.000253199401243  0
63.701524826102883  -62.33118310269704  40.678035580705888  0
63.70152482610289  -63.712708966175924  43.640727355799314  0
63.701524826102897  -64.55878031978304  46.798308634289647  0
63.701524826102897  -64.843689713571806  50.05483790684319  0
63.701524826102904  -64.55878031978304  53.31136717939674  0
63.701524826102911  -63.712708966175924  56.468948457887073  0
63.701524826102919  -62.33118310269704  59.431640232980499  0
63.701524826102919  -60.456179693622374  62.109422614285151  0
63.701524826102926  -58.144669768739163  64.420932539168362  0
63.701524826102926  -55.466887387434511  66.295935948243027  0
63.701524826102933  -52.504195612341086  67.677461811721912  0
63.701524826102933  -49.346614333850759  68.523533165329042  0
35.465503221315927  -46.090085061297202  89.616556419119746  0
37.72440042727645  -46.090085061297202  84.828305297022794  0
40.738967890102046  -46.090085061297202  80.476024468832549  0
44.427349985725925  -46.090085061297202  76.677892966101211  0
48.689394761353157  -46.090085061297195  73.537042806366145  0
53.409373397107672  -46.090085061297195  71.138758612743572  0
58.459122631899476  -46.090085061297195  69.548161850179696  0
58.459122631899398  -46.090085061297209  30.561513963506631  0
53.409373397107601  -46.090085061297209  28.970917200942779  0
48.6893947613531  -46.090085061297209  26.572633007320231  0
44.427349985725868  -46.090085061297209  23.431782847585207  0
40.738967890101975  -46.090085061297209  19.633651344853892  0
37.724400427276365  -46.090085061297209  15.281370516663692  0
35.465503221315807  -46.090085061297209  10.493119394566751  0
43.804945638401435  -61.573779355891155  65.655162641973064  0
51.508579320593498  -56.910076239800119  36.247135501546303  0
38.20505730514958  -73.242406669360008  51.989335480386281  0
33.974249411031096  -78.73397344804404  56.523202067932431  0
50.29008623763832  -54.271817271135902  33.92872605780876  0
47.648041296213279  -61.792881068251866  61.531229229084474  0
49.27462488242287  -63.715155113286187  44.188486717616442  0
51.763887609641756  -59.659102216413032  39.105920105870354  0
43.738941902864212  -52.255833685701845  71.204154000281804  0
34.774886783586794  -65.938068969724654  75.040433648331444  0
38.459550691539128  -54.50998513189748  75.634190541180445  0
42.579674464661792  -52.184519748972136  27.933205778311724  0
37.439262585296362  -70.573495999078091  36.186183285906232  0
50.857694537440892  -63.888002426060318  51.024064291185837  0
51.867708728140215  -61.487099917595316  41.965195675414726  0
47.603505788357424  -59.610225884433326  36.037634993192434  0
37.503543487736039  -72.209180812171695  60.306998381291166  0
33.912991693428197  -76.835910181011855  37.03423130423409  0
34.039587271049641  -70.289778775830229  27.381925272863477  0
34.18480298474347  -60.23020155813844  20.343007354102017  0
49.580203684331693  -58.096530059791583  64.028482915017477  0
42.602736197119825  -62.694545685033447  34.245672411489728  0
47.467956303243696  -64.06711825709894  57.745506649312446  0
45.64690316088975  -56.382137555672848  67.991108826970191  0
47.059287084591375  -62.93069118867826  39.655144293710407  0
34.222092134785207  -57.718984772195967  80.766795059987786  0
42.120847688400566  -66.589102013887512  38.91522766037982  0
47.656914005764648  -65.444000243254578  48.180145458645661  0
37.785848783977805  -64.886752548435567  29.687107877403818  0
42.663857635227757  -65.91737930129743  61.466172535980817  0
34.526996932602032  -78.180890434119576  46.221672489074457  0
47.387701076263241  -51.419656308847266  31.193814452909137  0
42.971275790904073  -68.717564341266964  49.958244338581359  0
46.457337663406733  -65.904369111273354  53.770318220504677  0
44.428466244832393  -66.760972423530262  44.068691076485464  0
34.144109689548365  -73.749064073325428  68.01092142919353  0
52.517197157688393  -63.046937611987573  47.595420691366812  0
39.792107651921981  -58.750714338335094  27.921226929725425  0
37.102724786987991  -53.462774827189662  22.460831372673752  0
39.83434853436178  -60.306767630739074  71.170917454602602  0
39.07587107194  -71.671721435966703  44.175996694084773  0
41.961145875082394  -68.642785225412126  56.541949094990457  0
45.214188285257976  -56.794353670867949  32.023148611381643  0
38.490010447515623  -67.057976278689054  66.897916163531988  0
51.600127903712313  -63.0167643109734  54.511720123459867  0
49.399546122160906  -50.506008217926173  68.033422772581673  0
55.490093959078543  -60.968380950946639  56.285251558773183  0
52.211845524999404  -59.510073509750931  60.899428098596587  0
50.925516939001064  -54.250646682347195  65.867421372704257  0
54.658166821252962  -55.875260448256299  63.193750828680528  0
54.834903580094945  -54.43150367053336  36.019555787888073  0
55.691400676530989  -59.720089440294259  41.537509194240315  0
52.706752445975241  -50.980035371457511  33.709045233060841  0
55.137323109269488  -57.446118911553874  38.453253034730061  0
50.974329546623551  -48.374428153601094  32.429654505378878  0
53.890288457590778  -61.89046171548452  44.852786761708046  0
55.05653756170868  -62.348869124446658  50.099178005749785  0
56.500170939122214  -61.565875140640713  46.617177938308046  0
54.672737178719217  -50.926004771245459  65.702320084500073  0
55.508314581134556  -48.008475563196377  66.065185550232755  0
55.462515619140632  -62.095110512186125  52.123507038127535  0
57.042195337819209  -61.739649957867755  48.598790710248302  0
56.425271599946889  -61.435588736417586  54.110811750563357  0
51.91336319036396  -61.463989233222428  58.148354038099683  0
55.69883034007475  -57.61958421958407  61.249694731762752  0
56.029279838341864  -59.332213329664285  58.99641088907083  0
55.994948996552814  -53.308931597780074  64.319986010610492  0
56.059183793074489  -52.353885952207975  35.364370950556449  0
56.856960400797462  -55.712297238029201  37.569971643289556  0
56.539992644297492  -60.521311110367208  43.517916661323959  0
56.890568697501138  -58.343716116633004  40.153059744556565  0
56.469455938606487  -50.205300573709494  34.737031410861476  0
56.115058169561841  -47.814216097714848  34.193310274592825  0
43.900206474498674  -29.766687877418445  35.442495128799791  0
44.787455718458652  -30.998601947015484  65.036077023227548  0
38.864194667667135  -24.758524847979857  34.368130949663595  0
48.709588675000568  -28.131833097184693  44.269387885414979  0
51.362015086068645  -38.41581386959659  65.898364998093498  0
39.71541786917021  -21.412865190896738  56.779338114656582  0
34.098592242732437  -13.828460932438283  57.261188756171904  0
49.985705352123489  -34.494241480912166  64.116951742069659  0
45.34904590556809  -25.456111607751541  53.238653503898966  0
39.776519732719834  -25.769384420565558  65.484245894776734  0
47.47823461234546  -34.084087736355762  34.629409946251215  0
38.74775771719537  -20.640459085718412  42.293892203759604  0
52.700309670465771  -35.249758318356498  36.876539761537302  0
41.867682160722943  -22.544071550562052  49.747973290874533  0
36.405467799037666  -19.680105286967184  63.160162714881416  0
43.307683304996544  -39.510382197778341  71.426479907977679  0
33.978024252141324  -34.342153292717185  81.183560516311459  0
47.904277109658466  -29.604147988971373  40.010620933675497  0
49.572450430921826  -28.20487942426843  54.490801551595332  0
47.750802381491397  -26.734403629185  48.882634603876944  0
34.296862552221597  -33.67805237200411  19.790973565324339  0
51.800966087499745  -40.276549297641196  33.633298288417564  0
33.916794824438895  -19.444556707182297  70.164466854768122  0
34.610053336292097  -17.676807966158208  34.946411935712717  0
52.333116473047298  -30.522337958085693  42.727182542697854  0
48.643600716912999  -41.51290982588835  68.39431689940443  0
53.543828908787653  -42.719069690306924  66.46706044189969  0
44.085231140820227  -24.874000042831728  45.17213642912003  0
38.261294460427408  -37.32883756810002  75.758870810250784  0
38.527231074635118  -37.660198087090656  24.559345086754078  0
46.239144439338943  -29.014394797020849  61.026237155747509  0
50.740109944215689  -32.075991695354112  61.153876699458998  0
43.75816475784741  -25.815391711899775  58.634228535746836  0
51.796002016248849  -28.703440594479659  51.168377982458018  0
43.434923225272385  -40.241739189430334  28.574156457683806  0
48.376847620518298  -42.302050770185041  31.390604012778486  0
42.109228087781162  -33.236050203621758  30.573135961518901  0
46.884225334464091  -37.663142813772978  32.029480647307722  0
34.107434171650397  -13.561770968901563  44.256657962964404  0
37.405931811335748  -29.146508420961474  27.537698723971221  0
40.407412646944152  -31.782571468611629  70.419018460889845  0
35.273548619556834  -26.903685039068996  74.558317405268852  0
52.269034599724314  -28.994719604734527  47.894297401678848  0
50.116973554017946  -29.514877558619951  57.484497443408337  0
51.593165829285184  -37.385247816959314  34.865889062137242  0
43.074662684445016  -25.943477239429331  39.935521890007955  0
46.034526648661995  -35.828401642583444  67.717204924384887  0
49.981517787114441  -32.546403503021843  37.854500507054539  0
37.178987707184881  -17.627571484433471  50.42056636226895  0
33.955618575558098  -22.603795497389925  26.430855951732877  0
56.800172192970656  -32.788051297534984  58.537791660191985  0
54.587607068508348  -30.179447921831208  54.050672233313172  0
55.971554443341361  -39.116282740954588  64.448510949974619  0
56.005915332094801  -30.154133863446823  51.302042081259977  0
56.069312403813107  -37.633275010963295  36.510860456162852  0
56.172832898284675  -31.299355402609873  55.996041538365638  0
56.288014609716967  -41.418415513601687  65.262047820500015  0
54.933696105395228  -34.936645577816059  61.936460174416908  0
55.082152228427461  -36.835054777324451  63.413053045496056  0
55.63228576434588  -34.262838700223817  39.147070140156863  0
53.651395515647508  -30.042913485779042  45.3697128107829  0
53.182598438332022  -32.145743944135148  40.534549655084447  0
52.701916154525378  -43.312421490364962  33.219044441487434  0
56.308498876289214  -44.249495621925178  34.258532837458532  0
56.434496532884033  -31.844619495757254  43.060147820804119  0
55.767019033173703  -39.268999461421359  35.525272919321239  0
56.716573957936944  -36.133205805286984  37.789940600120772  0
56.116910781866032  -41.504351540001721  34.773616221429975  0
56.210711716092199  -30.289795277930455  48.032327077594083  0
55.702285329989095  -33.682162401725641  60.265917550120371  0
53.660433971049812  -31.515017352981193  58.235554548956017  0
56.866742966673847  -31.105249082258396  45.172511898817177  0
57.013819529977354  -33.163171429881288  41.102714071480989  0
16.138310995753386  -68.391702802836136  84.048100593535054  0
16.138310995753251  -86.067831797314781  42.659986462291329  0
16.138310995753397  -79.744603026350873  72.864429804026258  0
16.138310995753248  -80.24502434854972  28.001625345852279  0
16.138310995753226  -68.980307602644672  16.455109128417931  0
16.138310995753265  -85.906016020864939  58.276498554126867  0
16.138310995753216  -54.08736062873222  10.19323174910469  0
16.138310995753464  -53.852585337946877  89.962827726316391  0
16.138310995753347  -19.748456474309528  81.022928990430415  0
16.138310995753308  -8.9467475885328724  66.585916013261411  0
16.138310995753276  -20.978005519015262  18.081606555629158  0
16.138310995753272  -5.4460243593692468  49.072803470506315  0
16.138310995753272  -9.709264472455736  31.907112009125811  0
16.138310995753361  -36.274517068974539  89.508084756301002  0
16.138310995753315  -37.05193096013182  10.416272942660427  0
60.834347720464116  -53.426836088409182  37.254801399012834  0
60.830062923093934  -60.626405056493283  47.532091143317132  0
61.027745184527859  -52.079068890550353  36.571480649521753  0
60.855220353599833  -58.863932178464125  57.43709230931843  0
60.85522493110777  -59.956080060415815  55.094980059604012  0
60.833649017879331  -53.505763885424486  62.809309977964332  0
61.273993368645009  -47.412170479513307  35.360589359110001  0
61.174095087100071  -59.461386299142383  56.28999255147059  0
60.69056972743369  -60.661614223110874  52.365549511962385  0
61.177783429341034  -50.348644710656593  35.929204471543144  0
61.17156986778074  -56.527104368074689  39.627111489949975  0
61.146896340487046  -60.333018446423885  46.206760617798373  0
61.150579313545528  -58.154050126616333  58.547752432397914  0
61.01979285167193  -49.625519247022957  64.378578876087943  0
61.02686707463139  -60.808589359915153  49.037743296109433  0
61.17510173783198  -60.820363279372962  50.884147169845519  0
61.116338098470791  -47.659938890225973  64.724684845084113  0
61.027342627144208  -54.772346656228763  61.983257074226415  0
61.17157930134632  -54.546973358706573  37.965591008844996  0
60.690583818462336  -57.226580101778957  59.731992883846722  0
61.175181677705154  -56.193868465029368  60.805763967703498  0
60.832374940417189  -51.090216232965588  63.935311187741398  0
61.17509536911929  -59.261654809346119  43.408139432570323  0
61.150581122568077  -60.350594402979212  53.837260880469877  0
60.708550893603629  -48.902259889476348  35.571726260122588  0
60.858325922729065  -55.573494983562966  38.752900617958161  0
60.834287746232349  -57.421607977135388  40.606799028671034  0
61.027402383393138  -58.328601996472919  41.815447549357039  0
61.16776856412114  -52.324718593226734  63.426382131732062  0
60.690029240533754  -59.865117192593985  44.77115169195875  0
61.150952941884647  -39.888793367564197  36.667798220457833  0
61.175349495106197  -32.71878143081662  56.289987420456761  0
61.174743736764569  -37.628586838851319  62.14085867743448  0
61.191252599977922  -42.716151331211471  35.692198127867726  0
61.137772253569345  -44.540884321730871  35.382795536943028  0
61.174756938360964  -37.628543955696045  37.968847159128693  0
60.692919699809408  -41.284197044375546  36.105920722902809  0
60.692920217278669  -41.28427274776913  64.003781173010736  0
60.855354454132019  -31.559509208163753  52.610462216469685  0
60.859589684657301  -33.31311023946958  57.431677652832114  0
60.85541886872975  -38.718825725000634  37.274642836630875  0
60.858955419582578  -33.31248180851901  42.679086734914279  0
61.175348969462668  -35.657719093342394  39.622456081666499  0
61.150611672750657  -31.389415563920508  51.303503820735784  0
61.150941509301425  -39.888870188451321  63.441913178776716  0
61.174742080422021  -31.838952378421105  53.87243760962496  0
60.859485908749711  -36.606777513667048  38.752814716605108  0
61.191259180450274  -42.716208691426672  64.417491160210005  0
60.859480011822349  -32.226181076603716  55.100728961832282  0
61.17518993605637  -31.439564863180728  48.313830106688378  0
61.175374138797707  -34.004666543584442  58.517196294866253  0
61.171664217491816  -32.715896514789662  43.825878847892398  0
61.137776683297311  -44.540911537643616  64.726883150408582  0
60.859570258632878  -34.788135655672491  40.571442424827382  0
60.69059016015342  -31.338678244795034  49.800186832484407  0
60.834312201929059  -32.21048175374127  45.052292328789846  0
60.859599643881985  -34.788200261859735  59.53831038351877  0
60.855400147565469  -38.718893126505385  62.835071852122866  0
61.175271748925979  -34.004519778072307  41.59268912414457  0
61.027424487033123  -31.771594059339424  46.498201059697735  0
60.859483069149917  -36.606812474648834  61.356890432068084  0
61.175358833809  -35.657755597697758  60.487256236192039  0
17.706688591764305  -22.901047494910266  88.217908818933921  0
17.706688591764312  -34.371698085078606  93.145798111649043  0
17.706688591764216  -2.1019937207460657  42.360732051586844  0
17.70668859176428  -9.4809979418413022  75.626818373296217  0
17.706688591764248  -2.2000801515624673  58.290061869797967  0
17.706688591764156  -30.819555006913372  8.0910159103339439  0
17.706688591764191  -7.4142406547635673  27.731520408358389  0
17.70668859176417  -17.387955931521148  15.844616800948309  0
17.706688591764177  -61.362108842128599  8.0915595037647066  0
17.706688591764184  -74.792594267988562  15.844935686340548  0
17.706688591764312  -74.79542003154917  84.262369079703348  0
17.706688591764234  -90.067063290743633  42.297465252177503  0
17.706688591764287  -84.764292483596662  72.380991291461953  0
17.706688591764262  -90.068049244206975  57.806619058505561  0
17.706688591764326  -61.363948652133516  92.017446687817426  0
17.706688591764205  -84.761800537834034  27.724368435774327  0
45.473996329357888  -22.181046785750166  59.61086793513752  0
38.220332076588754  -16.456825390931474  66.607702195514491  0
54.440247623259054  -37.93599205489928  31.046383112019928  0
37.636093707319894  -35.228801785443501  83.250675129986732  0
38.70389053433442  -32.74870654947555  19.670609021270206  0
37.679902189115666  -24.836503956270519  77.674878810883058  0
54.50481524324195  -27.399630428535044  58.85805254224347  0
43.631680371154722  -26.842401528077492  69.473117974071528  0
44.834512293433669  -23.908595099434024  35.973447860050811  0
52.516456867278634  -25.979783795166803  42.551972675596581  0
53.390462604322607  -25.009474011613296  50.737104087479437  0
45.797817187175795  -33.655233272637524  27.801204777723754  0
52.993371050890737  -38.642189080482325  69.964551891281445  0
38.383951329474996  -14.440234551645762  38.535495267765427  0
38.247984699217156  -21.870241578084126  26.337851012687356  0
38.017852516019204  -11.924426506062268  52.793385244728803  0
52.507750744786193  -31.817263920744502  66.091352431581129  0
53.710302835559276  -30.912918191587991  35.594770352265513  0
44.019189636985644  -35.92920985388642  75.054253361337928  0
44.449742593863931  -19.545681699936019  48.282148058363582  0
54.868329743124917  -66.514469584589619  52.126647089951589  0
37.874908290951829  -71.577087423316783  26.779882625774139  0
47.839194417376646  -54.100081729188119  27.404310319477982  0
42.496054130739353  -72.294671435827325  61.145728095197789  0
37.093311189779804  -60.335030424435075  17.07938690886494  0
37.720164355510697  -80.648621952110176  53.98070267479055  0
43.514575219386586  -70.408561648684071  37.320104041910923  0
54.534199291978659  -54.420231495289173  68.949134932537277  0
37.480396578541075  -79.340224747785896  38.489726513946216  0
53.190175110766972  -61.163758162801983  64.925547297415449  0
55.268995663825812  -59.935462518511542  35.085112299133343  0
52.318961747974498  -64.966649311552786  39.652972999894757  0
49.553022928453323  -67.252540229075663  58.981388618482605  0
56.922398394807338  -65.319457968401736  45.00516635408998  0
37.626513182775348  -76.484760099134363  67.296383236695391  0
44.539337779925987  -65.658334127362011  67.962937701573978  0
56.636234657028041  -64.075104659437613  58.717638125321606  0
49.116090732575728  -68.981423209684337  46.140376169074756  0
38.162021522069587  -67.365493902048044  76.624101859259085  0
46.824769705129384  -62.95956243252369  31.980272150251121  0
41.941098499670957  -59.909566979526687  24.512110696157634  0
46.07588221298964  -56.905161964588807  72.902147503733516  0
38.857047839026279  -57.106083777718965  81.11239020774596  0
55.507449787774995  -53.563896439816581  31.168545567651929  0
44.884091861946686  -72.19073401950908  52.67554914126837  0
41.361904780765812  -75.5084295140596  46.073997500697544  0
Triangles
1562
538 529 499  1
543 78 77  1
562 82 81  1
566 64 63  1
515 514 509  1
564 52 51  1
26 515 25  1
92 91 555  1
85 561 546  1
502 560 519  1
505 536 507  1
87 563 88  1
81 80 562  1
501 498 547  1
17 535 18  1
535 534 508  1
19 535 508  1
22 516 17  1
565 53 547  1
17 1 22  1
512 504 498  1
559 73 557  1
537 514 527  1
62 566 63  1
567 60 59  1
564 51 50  1
88 563 89  1
52 564 547  1
549 501 564  1
47 568 48  1
501 549 528  1
44 569 45  1
568 46 569  1
53 565 54  1
504 521 511  1
59 58 567  1
498 504 550  1
498 539 512  1
56 565 550  1
49 48 568  1
60 567 548  1
61 566 62  1
566 554 64  1
533 510 553  1
533 552 503  1
558 67 554  1
70 558 553  1
27 515 26  1
67 558 68  1
524 530 510  1
543 562 78  1
76 559 543  1
502 526 497  1
2 569 44  1
557 71 553  1
29 527 514  1
500 30 31  1
561 84 83  1
561 85 84  1
90 89 563  1
501 547 564  1
520 542 545  1
520 536 505  1
497 520 517  1
555 93 92  1
95 94 556  1
4 556 39  1
505 542 520  1
542 39 556  1
556 93 555  1
556 96 95  1
556 4 96  1
36 522 506  1
522 38 43  1
540 532 506  1
73 559 74  1
499 500 513  1
500 532 513  1
562 561 82  1
522 36 37  1
38 522 37  1
3 43 38  1
532 500 32  1
34 532 33  1
20 551 21  1
516 25 515  1
30 527 29  1
531 537 529  1
31 32 500  1
526 513 540  1
564 49 568  1
528 539 501  1
79 562 80  1
78 562 79  1
46 568 47  1
515 27 514  1
21 569 2  1
537 531 523  1
41 507 42  1
41 40 505  1
506 34 35  1
35 36 506  1
42 522 43  1
507 41 505  1
508 20 19  1
534 539 508  1
500 499 527  1
531 529 524  1
548 567 504  1
533 524 510  1
61 60 548  1
518 523 521  1
539 518 512  1
521 504 512  1
532 32 33  1
529 537 499  1
514 27 28  1
28 29 514  1
518 539 534  1
25 516 24  1
516 22 23  1
23 24 516  1
502 497 517  1
86 85 546  1
518 509 523  1
509 525 515  1
77 76 543  1
541 530 519  1
91 563 555  1
561 562 544  1
503 511 521  1
521 512 518  1
522 42 507  1
522 536 506  1
503 531 524  1
509 518 525  1
519 538 526  1
524 533 503  1
534 516 525  1
516 515 525  1
526 540 497  1
526 502 519  1
514 537 509  1
527 30 500  1
551 549 569  1
528 20 508  1
538 530 529  1
530 524 529  1
538 519 530  1
530 541 510  1
531 503 521  1
521 523 531  1
532 34 506  1
532 540 513  1
69 68 558  1
65 554 66  1
516 534 535  1
525 518 534  1
535 19 18  1
535 17 516  1
536 522 507  1
536 520 497  1
523 509 537  1
537 527 499  1
499 513 538  1
513 526 538  1
539 498 501  1
539 528 508  1
540 506 536  1
536 497 540  1
75 74 559  1
504 511 548  1
517 545 546  1
93 556 94  1
559 557 541  1
541 560 543  1
502 517 544  1
82 561 83  1
67 66 554  1
64 554 65  1
546 87 86  1
53 52 547  1
568 569 549  1
557 73 72  1
558 554 533  1
57 567 58  1
565 56 55  1
57 56 550  1
547 498 565  1
551 20 528  1
528 549 551  1
566 61 548  1
511 503 552  1
71 557 72  1
71 70 553  1
554 566 552  1
552 533 554  1
563 546 545  1
545 542 555  1
556 555 542  1
545 517 520  1
553 510 557  1
510 541 557  1
533 553 558  1
558 70 69  1
541 543 559  1
559 76 75  1
560 541 519  1
560 502 544  1
544 517 561  1
517 546 561  1
562 543 560  1
560 544 562  1
545 555 563  1
563 91 90  1
546 563 87  1
498 550 565  1
565 55 54  1
548 511 566  1
511 552 566  1
567 57 550  1
550 504 567  1
549 564 568  1
49 564 50  1
46 45 569  1
569 21 551  1
40 542 505  1
542 40 39  1
41 598 585  2
114 113 620  2
137 636 138  2
120 621 623  2
103 626 622  2
623 123 122  2
579 600 571  2
581 615 597  2
624 142 141  2
115 625 116  2
98 596 99  2
163 619 162  2
641 638 630  2
158 608 576  2
165 590 164  2
610 616 585  2
592 579 611  2
43 586 42  2
616 610 571  2
150 586 43  2
43 3 150  2
571 610 579  2
117 116 625  2
119 118 621  2
158 576 157  2
156 157 576  2
574 596 595  2
626 99 596  2
102 101 626  2
577 601 627  2
99 626 100  2
110 639 111  2
98 39 596  2
628 105 622  2
108 627 109  2
110 109 627  2
108 628 627  2
639 112 111  2
628 108 107  2
112 639 620  2
105 628 106  2
600 613 601  2
112 620 113  2
623 122 121  2
584 575 579  2
603 578 589  2
154 592 153  2
579 602 600  2
121 120 623  2
124 638 125  2
578 603 588  2
620 115 114  2
130 641 634  2
612 573 630  2
573 594 630  2
617 582 629  2
617 580 582  2
135 642 629  2
615 573 597  2
132 642 133  2
617 570 580  2
570 617 587  2
20 632 605  2
572 606 570  2
142 635 143  2
635 142 624  2
21 633 632  2
607 606 604  2
146 637 633  2
633 149 148  2
632 637 591  2
619 164 590  2
608 160 593  2
608 593 581  2
131 130 634  2
144 635 637  2
590 166 17  2
166 590 165  2
166 1 17  2
593 162 619  2
18 599 590  2
613 588 621  2
162 593 161  2
611 598 586  2
152 611 586  2
160 608 159  2
606 607 580  2
589 573 612  2
125 638 126  2
574 626 596  2
595 616 574  2
587 615 570  2
588 602 578  2
583 589 578  2
156 592 155  2
107 106 628  2
577 616 571  2
597 589 583  2
123 638 124  2
598 611 610  2
575 584 576  2
19 604 599  2
635 144 143  2
575 618 583  2
593 160 161  2
140 636 624  2
139 138 636  2
578 575 583  2
581 618 608  2
155 592 154  2
592 156 576  2
40 595 39  2
40 41 585  2
586 150 151  2
151 152 586  2
642 634 631  2
634 642 132  2
118 625 621  2
602 613 600  2
589 597 573  2
612 623 603  2
164 619 163  2
590 17 18  2
145 144 637  2
141 140 624  2
611 152 153  2
592 576 584  2
572 619 609  2
572 581 593  2
641 127 638  2
573 587 594  2
595 40 585  2
147 146 633  2
100 626 101  2
596 39 595  2
583 581 597  2
573 615 587  2
598 41 42  2
42 586 598  2
599 18 19  2
606 580 570  2
625 620 640  2
571 601 577  2
627 628 577  2
601 571 600  2
602 579 575  2
575 578 602  2
623 638 123  2
603 621 588  2
604 19 20  2
591 607 605  2
604 20 605  2
637 635 591  2
599 609 590  2
599 604 606  2
604 605 607  2
580 614 582  2
618 581 583  2
608 158 159  2
609 599 606  2
606 572 609  2
585 598 610  2
579 592 584  2
611 153 592  2
611 579 610  2
127 126 638  2
612 603 589  2
639 640 620  2
613 602 588  2
614 580 607  2
607 591 614  2
615 581 572  2
572 570 615  2
616 577 574  2
616 595 585  2
629 636 137  2
587 631 594  2
618 575 576  2
576 608 618  2
619 590 609  2
619 572 593  2
640 639 601  2
620 625 115  2
629 137 136  2
134 133 642  2
622 105 104  2
104 103 622  2
621 120 119  2
621 603 623  2
636 629 582  2
582 614 624  2
613 621 625  2
625 118 117  2
626 574 622  2
626 103 102  2
634 630 594  2
641 130 129  2
628 622 574  2
574 577 628  2
630 634 641  2
136 135 629  2
623 612 638  2
129 128 641  2
631 587 617  2
617 629 631  2
591 605 632  2
632 20 21  2
633 148 147  2
594 631 634  2
634 132 131  2
624 614 635  2
614 591 635  2
582 624 636  2
636 140 139  2
637 632 633  2
637 146 145  2
612 630 638  2
127 641 128  2
639 110 627  2
627 601 639  2
640 601 613  2
613 625 640  2
39 97 4  2
39 98 97  2
631 629 642  2
642 135 134  2
2 633 21  2
633 2 149  2
648 175 644  3
178 645 179  3
5 649 167  3
647 168 649  3
26 647 25  3
649 1 22  3
644 646 28  3
23 647 649  3
171 647 646  3
177 645 178  3
168 647 169  3
647 171 170  3
647 23 24  3
647 26 646  3
28 646 27  3
643 182 181  3
646 173 172  3
646 644 173  3
173 644 174  3
175 648 176  3
32 648 31  3
644 175 174  3
645 180 179  3
648 30 31  3
35 645 34  3
38 650 37  3
645 35 643  3
37 643 36  3
3 650 38  3
643 650 182  3
30 648 644  3
645 648 32  3
180 645 643  3
645 32 33  3
650 6 183  3
180 643 181  3
649 5 1  3
35 36 643  3
644 28 29  3
29 30 644  3
33 34 645  3
6 650 3  3
172 171 646  3
646 26 27  3
170 169 647  3
647 24 25  3
648 645 177  3
177 176 648  3
22 23 649  3
649 168 167  3
183 182 650  3
650 643 37  3
159 655 654  4
157 652 156  4
194 655 195  4
154 651 153  4
188 652 189  4
151 152 656  4
185 656 186  4
652 188 651  4
656 3 150  4
652 154 155  4
191 654 192  4
154 652 651  4
3 656 6  4
186 651 187  4
160 161 655  4
651 656 152  4
652 654 191  4
189 652 190  4
655 159 160  4
654 652 157  4
193 655 194  4
196 653 197  4
655 653 196  4
656 651 186  4
162 655 161  4
166 657 165  4
657 5 200  4
198 657 199  4
655 193 654  4
159 654 158  4
653 162 163  4
653 655 162  4
657 198 653  4
1 657 166  4
164 657 653  4
188 187 651  4
651 152 153  4
155 156 652  4
652 191 190  4
163 164 653  4
653 198 197  4
193 192 654  4
654 157 158  4
655 196 195  4
184 656 185  4
656 150 151  4
657 1 5  4
657 164 165  4
200 199 657  4
6 656 184  4
57 289 290  5
281 51 50  5
273 45 44  5
44 272 273  5
301 66 65  5
292 59 58  5
300 64 299  5
60 294 61  5
73 310 311  5
67 302 303  5
74 313 75  5
324 83 82  5
338 94 93  5
89 333 90  5
330 88 87  5
340 94 339  5
253 136 135  5
213 105 212  5
209 103 102  5
96 341 342  5
280 49 279  5
148 270 149  5
250 133 249  5
135 251 252  5
249 132 248  5
59 293 60  5
62 297 63  5
296 62 61  5
294 60 293  5
293 59 292  5
289 57 56  5
57 290 58  5
53 285 54  5
288 55 287  5
289 56 288  5
292 58 291  5
58 290 291  5
281 50 280  5
55 288 56  5
52 282 283  5
55 286 287  5
52 284 53  5
284 52 283  5
282 52 51  5
51 281 282  5
49 280 50  5
46 274 275  5
49 278 279  5
277 47 276  5
278 49 48  5
48 277 278  5
47 277 48  5
2 272 44  5
45 273 274  5
272 2 8  5
46 276 47  5
45 274 46  5
276 46 275  5
296 61 295  5
61 294 295  5
64 298 299  5
297 62 296  5
298 64 63  5
302 67 66  5
64 300 65  5
63 297 298  5
301 65 300  5
70 306 307  5
69 305 306  5
66 301 302  5
304 68 67  5
67 303 304  5
305 69 68  5
68 304 305  5
309 72 71  5
72 309 310  5
69 306 70  5
285 53 284  5
71 308 309  5
308 71 70  5
70 307 308  5
312 74 73  5
73 311 312  5
72 310 73  5
80 320 321  5
318 319 79  5
75 314 76  5
317 77 316  5
78 318 79  5
76 314 315  5
314 75 313  5
313 74 312  5
316 77 76  5
76 315 316  5
77 317 78  5
318 78 317  5
87 329 330  5
81 321 322  5
320 80 79  5
79 319 320  5
81 322 82  5
321 81 80  5
329 87 86  5
333 89 332  5
88 330 331  5
86 328 329  5
328 86 85  5
83 325 84  5
326 85 84  5
326 84 325  5
325 83 324  5
328 85 327  5
85 326 327  5
324 82 323  5
82 322 323  5
332 89 88  5
88 331 332  5
91 334 335  5
93 337 338  5
334 91 90  5
90 333 334  5
341 96 95  5
91 336 92  5
337 93 92  5
336 91 335  5
337 92 336  5
94 338 339  5
341 95 340  5
4 7 201  5
94 340 95  5
4 342 7  5
342 4 96  5
97 202 98  5
201 97 4  5
202 97 201  5
205 99 204  5
98 202 203  5
99 203 204  5
203 99 98  5
99 205 100  5
206 101 100  5
100 205 206  5
103 209 210  5
207 102 101  5
101 206 207  5
102 208 209  5
102 207 208  5
210 104 103  5
105 211 212  5
211 105 104  5
104 210 211  5
111 219 220  5
111 221 112  5
219 111 110  5
214 106 213  5
109 218 110  5
219 110 218  5
218 109 217  5
222 112 221  5
217 108 216  5
108 215 216  5
108 217 109  5
106 214 107  5
105 213 106  5
215 108 107  5
107 214 215  5
113 222 223  5
223 114 113  5
222 113 112  5
286 55 54  5
54 285 286  5
115 225 226  5
221 111 220  5
226 116 115  5
225 114 224  5
117 228 229  5
118 229 230  5
229 118 117  5
117 227 228  5
227 117 116  5
116 226 227  5
225 115 114  5
114 223 224  5
119 230 231  5
230 119 118  5
231 120 119  5
233 121 120  5
120 232 233  5
120 231 232  5
234 121 233  5
238 124 237  5
121 234 122  5
235 122 234  5
123 235 236  5
235 123 122  5
241 126 240  5
123 237 124  5
239 126 125  5
238 125 124  5
237 123 236  5
125 238 239  5
127 242 128  5
126 239 240  5
128 243 129  5
126 241 127  5
129 243 244  5
246 130 245  5
129 244 245  5
243 128 242  5
242 127 241  5
131 246 247  5
245 130 129  5
132 249 133  5
130 246 131  5
247 132 131  5
132 247 248  5
271 149 270  5
270 148 269  5
2 271 8  5
271 2 149  5
147 269 148  5
267 147 146  5
269 147 268  5
147 267 268  5
146 266 267  5
145 265 266  5
266 146 145  5
265 144 264  5
261 141 260  5
265 145 144  5
144 263 264  5
142 261 262  5
143 263 144  5
143 262 263  5
141 259 260  5
262 143 142  5
141 261 142  5
259 141 140  5
139 258 140  5
255 137 254  5
257 139 138  5
259 140 258  5
258 139 257  5
253 135 252  5
136 254 137  5
133 250 134  5
137 255 138  5
254 136 253  5
257 138 256  5
138 255 256  5
251 135 134  5
134 250 251  5
175 367 174  6
192 352 351  6
368 176 369  6
179 371 178  6
184 9 6  6
375 182 183  6
194 354 353  6
362 170 363  6
363 171 364  6
171 363 170  6
362 169 170  6
360 168 361  6
362 168 169  6
358 198 199  6
360 5 167  6
168 362 361  6
168 360 167  6
365 171 172  6
171 365 364  6
173 365 172  6
367 173 174  6
180 372 179  6
371 179 372  6
173 367 366  6
367 175 368  6
365 173 366  6
177 371 370  6
370 176 177  6
371 177 178  6
176 370 369  6
372 180 373  6
176 368 175  6
373 181 374  6
375 181 182  6
375 183 376  6
181 375 374  6
181 373 180  6
188 346 187  6
344 185 345  6
343 184 344  6
185 344 184  6
186 346 345  6
345 185 186  6
9 183 6  6
183 9 376  6
9 184 343  6
346 188 347  6
346 186 187  6
350 192 351  6
189 348 347  6
347 188 189  6
349 189 190  6
348 189 349  6
349 191 350  6
192 350 191  6
191 349 190  6
194 353 352  6
355 197 356  6
354 194 195  6
194 352 193  6
352 192 193  6
10 5 360  6
357 198 358  6
358 200 359  6
198 357 356  6
356 197 198  6
10 200 5  6
200 10 359  6
200 358 199  6
354 195 355  6
197 355 196  6
355 195 196  6
672 386 673  7
321 670 322  7
305 672 306  7
277 682 667  7
312 666 681  7
672 307 306  7
316 665 317  7
672 304 659  7
302 669 659  7
676 381 683  7
302 659 303  7
670 320 661  7
297 296 680  7
681 387 388  7
666 312 311  7
385 672 659  7
286 683 287  7
342 395 7  7
667 378 379  7
312 681 313  7
683 286 676  7
380 660 379  7
282 660 658  7
284 676 285  7
682 277 276  7
274 682 275  7
687 300 299  7
384 687 680  7
288 668 289  7
273 664 274  7
279 660 280  7
275 682 276  7
8 377 272  7
660 282 281  7
279 667 660  7
667 279 278  7
272 664 273  7
380 676 658  7
284 658 676  7
288 683 668  7
285 676 286  7
683 288 287  7
685 295 294  7
382 685 684  7
384 680 383  7
685 292 684  7
300 669 301  7
291 684 292  7
685 382 383  7
669 384 385  7
295 680 296  7
300 687 669  7
297 687 298  7
295 685 680  7
309 673 666  7
307 673 308  7
673 307 672  7
388 665 662  7
314 681 662  7
304 303 659  7
387 681 666  7
318 665 661  7
677 322 670  7
320 670 321  7
677 670 390  7
323 677 324  7
318 661 319  7
678 327 326  7
327 675 328  7
330 675 663  7
327 678 675  7
332 686 333  7
675 330 329  7
336 671 337  7
675 392 663  7
392 686 663  7
322 677 323  7
674 339 671  7
336 679 671  7
339 674 340  7
686 392 393  7
674 342 341  7
342 674 395  7
12 674 394  7
320 319 661  7
670 389 390  7
334 686 679  7
673 309 308  7
678 390 391  7
674 341 340  7
334 679 335  7
392 675 391  7
283 282 658  7
660 380 658  7
666 311 310  7
290 684 291  7
660 281 280  7
665 389 661  7
665 388 389  7
686 332 663  7
315 314 662  7
662 316 315  7
663 332 331  7
331 330 663  7
664 272 377  7
664 378 682  7
665 318 317  7
665 316 662  7
310 309 666  7
387 673 386  7
667 278 277  7
11 664 377  7
381 382 668  7
668 290 289  7
669 385 659  7
669 302 301  7
658 284 283  7
671 339 338  7
393 394 671  7
671 338 337  7
304 672 305  7
672 385 386  7
687 384 669  7
673 387 666  7
671 394 674  7
674 12 395  7
675 329 328  7
678 325 677  7
676 380 381  7
389 670 661  7
325 678 326  7
325 324 677  7
390 678 677  7
391 675 678  7
393 671 679  7
679 336 335  7
379 660 667  7
682 274 664  7
668 382 684  7
681 314 313  7
378 664 11  7
378 667 682  7
381 668 683  7
681 388 662  7
292 685 293  7
684 290 668  7
685 383 680  7
685 294 293  7
686 393 679  7
686 334 333  7
687 299 298  7
687 297 680  7
405 717 707  8
266 694 691  8
261 698 688  8
217 719 218  8
400 719 399  8
715 213 212  8
694 266 265  8
716 408 711  8
688 263 262  8
264 694 265  8
261 688 262  8
236 712 237  8
11 692 412  8
255 704 256  8
717 243 242  8
704 257 256  8
711 253 252  8
401 708 400  8
271 377 8  8
206 705 695  8
702 211 210  8
201 710 202  8
710 204 203  8
718 215 690  8
213 690 214  8
227 706 228  8
240 717 241  8
204 710 705  8
695 208 207  8
395 201 7  8
209 702 210  8
12 710 395  8
710 396 705  8
695 209 208  8
705 206 205  8
267 266 691  8
693 410 698  8
211 715 212  8
714 221 220  8
690 215 214  8
690 399 718  8
213 715 690  8
215 718 216  8
689 227 226  8
399 719 718  8
219 714 220  8
231 703 696  8
225 697 689  8
225 689 226  8
221 714 708  8
223 708 697  8
697 225 224  8
708 223 222  8
231 696 232  8
229 706 703  8
703 231 230  8
706 229 228  8
402 703 706  8
234 701 235  8
235 712 236  8
709 247 246  8
700 255 254  8
717 240 707  8
238 712 707  8
404 707 712  8
249 716 250  8
690 398 399  8
245 713 709  8
713 245 244  8
406 717 405  8
253 711 700  8
699 249 248  8
247 709 699  8
253 700 254  8
407 716 699  8
257 693 258  8
698 261 260  8
693 259 258  8
271 692 377  8
268 692 269  8
411 691 694  8
412 692 691  8
692 271 270  8
263 694 264  8
251 716 711  8
701 403 404  8
707 404 405  8
259 698 260  8
257 704 693  8
411 688 410  8
408 716 407  8
408 700 711  8
688 411 694  8
697 224 223  8
401 689 697  8
243 717 713  8
717 242 241  8
204 705 205  8
691 268 267  8
692 270 269  8
692 268 691  8
700 409 704  8
409 693 704  8
691 411 412  8
694 263 688  8
207 206 695  8
397 705 396  8
233 701 234  8
233 232 696  8
692 11 377  8
689 401 402  8
698 259 693  8
410 688 698  8
248 247 699  8
406 709 713  8
704 255 700  8
712 238 237  8
701 233 696  8
710 203 202  8
209 695 702  8
702 398 715  8
717 406 713  8
703 230 229  8
693 409 410  8
409 700 408  8
710 12 396  8
705 397 695  8
703 402 403  8
706 227 689  8
707 240 239  8
239 238 707  8
708 222 221  8
400 708 714  8
716 251 250  8
709 246 245  8
403 701 696  8
710 201 395  8
711 252 251  8
708 401 697  8
712 235 701  8
701 404 712  8
709 406 407  8
713 244 243  8
714 219 719  8
719 400 714  8
715 211 702  8
398 702 397  8
716 249 699  8
709 407 699  8
398 690 715  8
703 403 696  8
397 702 695  8
718 217 216  8
719 219 218  8
719 217 718  8
689 402 706  8
720 721 415  9
723 349 348  9
721 720 344  9
414 721 413  9
414 413 13  9
346 723 347  9
724 422 722  9
417 720 416  9
417 723 720  9
723 346 720  9
420 723 419  9
344 720 345  9
724 723 420  9
343 721 344  9
9 413 343  9
351 724 722  9
722 422 423  9
422 724 421  9
424 722 423  9
349 724 350  9
723 724 349  9
347 723 348  9
353 726 354  9
355 727 356  9
726 355 354  9
359 725 431  9
359 431 10  9
725 428 429  9
357 725 358  9
727 355 726  9
727 426 427  9
424 726 722  9
357 727 725  9
426 726 425  9
428 727 427  9
431 430 14  9
426 727 726  9
430 725 429  9
346 345 720  9
720 415 416  9
721 343 413  9
721 414 415  9
722 353 352  9
352 351 722  9
723 417 418  9
418 419 723  9
420 421 724  9
724 351 350  9
725 430 431  9
725 359 358  9
726 353 722  9
726 424 425  9
727 428 725  9
727 357 356  9
733 370 369  10
730 444 445  10
366 731 367  10
440 731 439  10
728 362 361  10
729 362 728  10
434 729 728  10
432 728 431  10
376 734 413  10
436 735 729  10
364 735 365  10
434 728 433  10
436 729 435  10
735 438 731  10
360 728 361  10
362 729 363  10
431 360 10  10
731 368 367  10
368 733 369  10
735 366 365  10
432 431 14  10
366 735 731  10
446 734 730  10
372 732 730  10
370 733 732  10
732 444 730  10
374 734 375  10
734 448 413  10
376 413 9  10
370 732 371  10
440 733 731  10
444 732 443  10
733 442 732  10
442 733 441  10
734 446 447  10
446 730 445  10
413 448 13  10
448 734 447  10
728 360 431  10
728 432 433  10
729 434 435  10
729 364 363  10
730 374 373  10
373 372 730  10
438 735 437  10
438 439 731  10
442 443 732  10
732 372 371  10
733 368 731  10
733 440 441  10
734 376 375  10
734 374 730  10
735 364 729  10
735 436 437  10
464 412 465  11
408 462 461  11
391 478 390  11
389 478 477  11
479 392 480  11
396 449 12  11
481 393 394  11
474 386 475  11
470 383 471  11
469 381 470  11
382 470 381  11
469 380 381  11
380 469 468  11
466 378 467  11
380 468 467  11
410 463 462  11
380 467 379  11
467 378 379  11
384 473 472  11
383 470 382  11
383 472 471  11
472 383 384  11
473 384 385  11
473 386 474  11
476 387 388  11
386 473 385  11
389 477 476  11
476 388 389  11
387 476 475  11
475 386 387  11
478 389 390  11
478 391 479  11
392 481 480  11
481 392 393  11
481 394 482  11
392 479 391  11
399 453 452  11
450 398 451  11
449 396 450  11
397 450 396  11
398 450 397  11
15 394 12  11
394 15 482  11
15 12 449  11
399 452 451  11
451 398 399  11
453 399 400  11
401 453 400  11
401 454 453  11
457 404 458  11
455 403 456  11
402 455 401  11
454 401 455  11
456 404 457  11
406 458 405  11
403 455 402  11
458 406 459  11
459 407 460  11
462 408 409  11
404 456 403  11
407 461 460  11
407 459 406  11
458 404 405  11
16 412 11  11
463 410 464  11
16 378 466  11
410 462 409  11
412 464 411  11
411 464 410  11
412 16 465  11
378 16 11  11
461 407 408  11
416 741 739  12
418 741 417  12
752 453 452  12
487 754 748  12
484 739 485  12
737 743 741  12
483 739 484  12
752 736 742  12
739 414 415  12
453 752 742  12
736 752 743  12
485 754 486  12
427 750 426  12
739 483 414  12
450 748 451  12
449 748 450  12
456 746 457  12
451 752 452  12
15 489 449  12
748 449 489  12
420 751 737  12
746 458 457  12
453 742 454  12
458 746 745  12
744 753 745  12
428 750 427  12
745 460 459  12
755 744 745  12
738 464 463  12
747 753 744  12
490 738 491  12
465 490 16  12
465 738 490  12
491 738 492  12
738 465 464  12
483 13 414  12
740 496 495  12
492 747 493  12
493 740 494  12
751 423 749  12
755 736 751  12
753 460 745  12
430 14 496  12
429 740 428  12
751 420 421  12
424 749 423  12
496 740 430  12
425 750 749  12
430 740 429  12
425 749 424  12
743 737 736  12
420 737 419  12
418 419 737  12
737 751 736  12
738 463 462  12
462 753 738  12
739 415 416  12
754 741 743  12
740 495 494  12
493 747 740  12
741 416 417  12
741 418 737  12
742 456 455  12
455 454 742  12
487 748 488  12
741 754 739  12
750 744 749  12
460 753 461  12
745 459 458  12
744 755 749  12
746 456 742  12
742 736 746  12
747 750 740  12
747 492 738  12
748 489 488  12
754 752 748  12
423 751 422  12
750 747 744  12
750 425 426  12
750 428 740  12
736 755 746  12
751 421 422  12
752 451 748  12
752 754 743  12
753 747 738  12
753 462 461  12
754 487 486  12
754 485 739  12
751 749 755  12
755 745 746  12
773 767 762  13
769 474 473  13
493 776 758  13
471 769 472  13
496 760 495  13
493 758 492  13
776 493 494  13
432 496 14  13
434 760 433  13
437 757 436  13
781 761 780  13
474 769 756  13
766 471 470  13
760 494 495  13
468 766 469  13
779 490 491  13
468 779 766  13
469 766 470  13
466 779 467  13
779 466 490  13
490 466 16  13
760 496 432  13
437 764 757  13
757 764 762  13
767 773 769  13
475 772 476  13
440 761 439  13
478 772 765  13
770 761 442  13
441 761 440  13
489 763 488  13
482 763 489  13
488 763 487  13
778 486 777  13
489 15 482  13
772 475 756  13
763 482 481  13
763 481 480  13
770 774 771  13
442 761 441  13
774 444 445  13
771 759 770  13
772 478 477  13
771 768 759  13
444 774 770  13
778 446 447  13
446 778 774  13
448 778 447  13
483 778 448  13
448 13 483  13
475 474 756  13
773 781 780  13
435 760 434  13
435 436 757  13
758 491 492  13
776 757 775  13
479 765 763  13
765 772 768  13
760 432 433  13
760 435 757  13
761 770 759  13
761 764 439  13
767 471 766  13
757 776 760  13
487 777 486  13
763 480 479  13
764 437 438  13
438 439 764  13
486 778 485  13
765 479 478  13
758 766 779  13
775 757 762  13
767 775 762  13
472 769 473  13
768 780 759  13
768 771 765  13
769 471 767  13
769 773 756  13
770 442 443  13
443 444 770  13
774 445 446  13
765 777 763  13
477 476 772  13
772 756 768  13
761 781 764  13
756 780 768  13
778 777 774  13
774 777 771  13
775 767 766  13
766 758 775  13
775 758 776  13
776 494 760  13
777 487 763  13
777 765 771  13
778 483 484  13
484 485 778  13
779 468 467  13
779 491 758  13
761 759 780  13
780 756 773  13
781 773 762  13
762 764 781  13
Edges
506
1 17  1
17 18  1
18 19  1
19 20  1
20 21  1
21 2  1
1 22  2
22 23  2
23 24  2
24 25  2
25 26  2
26 27  2
27 28  2
28 29  2
29 30  2
30 31  2
31 32  2
32 33  2
33 34  2
34 35  2
35 36  2
36 37  2
37 38  2
38 3  2
4 39  3
39 40  3
40 41  3
41 42  3
42 43  3
43 3  3
2 44  4
44 45  4
45 46  4
46 47  4
47 48  4
48 49  4
49 50  4
50 51  4
51 52  4
52 53  4
53 54  4
54 55  4
55 56  4
56 57  4
57 58  4
58 59  4
59 60  4
60 61  4
61 62  4
62 63  4
63 64  4
64 65  4
65 66  4
66 67  4
67 68  4
68 69  4
69 70  4
70 71  4
71 72  4
72 73  4
73 74  4
74 75  4
75 76  4
76 77  4
77 78  4
78 79  4
79 80  4
80 81  4
81 82  4
82 83  4
83 84  4
84 85  4
85 86  4
86 87  4
87 88  4
88 89  4
89 90  4
90 91  4
91 92  4
92 93  4
93 94  4
94 95  4
95 96  4
96 4  4
4 97  5
97 98  5
98 99  5
99 100  5
100 101  5
101 102  5
102 103  5
103 104  5
104 105  5
105 106  5
106 107  5
107 108  5
108 109  5
109 110  5
110 111  5
111 112  5
112 113  5
113 114  5
114 115  5
115 116  5
116 117  5
117 118  5
118 119  5
119 120  5
120 121  5
121 122  5
122 123  5
123 124  5
124 125  5
125 126  5
126 127  5
127 128  5
128 129  5
129 130  5
130 131  5
131 132  5
132 133  5
133 134  5
134 135  5
135 136  5
136 137  5
137 138  5
138 139  5
139 140  5
140 141  5
141 142  5
142 143  5
143 144  5
144 145  5
145 146  5
146 147  5
147 148  5
148 149  5
149 2  5
3 150  6
150 151  6
151 152  6
152 153  6
153 154  6
154 155  6
155 156  6
156 157  6
157 158  6
158 159  6
159 160  6
160 161  6
161 162  6
162 163  6
163 164  6
164 165  6
165 166  6
166 1  6
5 167  7
167 168  7
168 169  7
169 170  7
170 171  7
171 172  7
172 173  7
173 174  7
174 175  7
175 176  7
176 177  7
177 178  7
178 179  7
179 180  7
180 181  7
181 182  7
182 183  7
183 6  7
1 5  8
6 3  9
6 184  10
184 185  10
185 186  10
186 187  10
187 188  10
188 189  10
189 190  10
190 191  10
191 192  10
192 193  10
193 194  10
194 195  10
195 196  10
196 197  10
197 198  10
198 199  10
199 200  10
200 5  10
7 201  11
201 202  11
202 203  11
203 204  11
204 205  11
205 206  11
206 207  11
207 208  11
208 209  11
209 210  11
210 211  11
211 212  11
212 213  11
213 214  11
214 215  11
215 216  11
216 217  11
217 218  11
218 219  11
219 220  11
220 221  11
221 222  11
222 223  11
223 224  11
224 225  11
225 226  11
226 227  11
227 228  11
228 229  11
229 230  11
230 231  11
231 232  11
232 233  11
233 234  11
234 235  11
235 236  11
236 237  11
237 238  11
238 239  11
239 240  11
240 241  11
241 242  11
242 243  11
243 244  11
244 245  11
245 246  11
246 247  11
247 248  11
248 249  11
249 250  11
250 251  11
251 252  11
252 253  11
253 254  11
254 255  11
255 256  11
256 257  11
257 258  11
258 259  11
259 260  11
260 261  11
261 262  11
262 263  11
263 264  11
264 265  11
265 266  11
266 267  11
267 268  11
268 269  11
269 270  11
270 271  11
271 8  11
8 272  12
272 273  12
273 274  12
274 275  12
275 276  12
276 277  12
277 278  12
278 279  12
279 280  12
280 281  12
281 282  12
282 283  12
283 284  12
284 285  12
285 286  12
286 287  12
287 288  12
288 289  12
289 290  12
290 291  12
291 292  12
292 293  12
293 294  12
294 295  12
295 296  12
296 297  12
297 298  12
298 299  12
299 300  12
300 301  12
301 302  12
302 303  12
303 304  12
304 305  12
305 306  12
306 307  12
307 308  12
308 309  12
309 310  12
310 311  12
311 312  12
312 313  12
313 314  12
314 315  12
315 316  12
316 317  12
317 318  12
318 319  12
319 320  12
320 321  12
321 322  12
322 323  12
323 324  12
324 325  12
325 326  12
326 327  12
327 328  12
328 329  12
329 330  12
330 331  12
331 332  12
332 333  12
333 334  12
334 335  12
335 336  12
336 337  12
337 338  12
338 339  12
339 340  12
340 341  12
341 342  12
342 7  12
9 343  13
343 344  13
344 345  13
345 346  13
346 347  13
347 348  13
348 349  13
349 350  13
350 351  13
351 352  13
352 353  13
353 354  13
354 355  13
355 356  13
356 357  13
357 358  13
358 359  13
359 10  13
10 360  14
360 361  14
361 362  14
362 363  14
363 364  14
364 365  14
365 366  14
366 367  14
367 368  14
368 369  14
369 370  14
370 371  14
371 372  14
372 373  14
373 374  14
374 375  14
375 376  14
376 9  14
11 377  15
377 8  15
11 378  16
378 379  16
379 380  16
380 381  16
381 382  16
382 383  16
383 384  16
384 385  16
385 386  16
386 387  16
387 388  16
388 389  16
389 390  16
390 391  16
391 392  16
392 393  16
393 394  16
394 12  16
7 395  17
395 12  17
12 396  18
396 397  18
397 398  18
398 399  18
399 400  18
400 401  18
401 402  18
402 403  18
403 404  18
404 405  18
405 406  18
406 407  18
407 408  18
408 409  18
409 410  18
410 411  18
411 412  18
412 11  18
13 413  19
413 9  19
13 414  20
414 415  20
415 416  20
416 417  20
417 418  20
418 419  20
419 420  20
420 421  20
421 422  20
422 423  20
423 424  20
424 425  20
425 426  20
426 427  20
427 428  20
428 429  20
429 430  20
430 14  20
10 431  21
431 14  21
14 432  22
432 433  22
433 434  22
434 435  22
435 436  22
436 437  22
437 438  22
438 439  22
439 440  22
440 441  22
441 442  22
442 443  22
443 444  22
444 445  22
445 446  22
446 447  22
447 448  22
448 13  22
15 449  23
449 450  23
450 451  23
451 452  23
452 453  23
453 454  23
454 455  23
455 456  23
456 457  23
457 458  23
458 459  23
459 460  23
460 461  23
461 462  23
462 463  23
463 464  23
464 465  23
465 16  23
16 466  24
466 467  24
467 468  24
468 469  24
469 470  24
470 471  24
471 472  24
472 473  24
473 474  24
474 475  24
475 476  24
476 477  24
477 478  24
478 479  24
479 480  24
480 481  24
481 482  24
482 15  24
13 483  25
483 484  25
484 485  25
485 486  25
486 487  25
487 488  25
488 489  25
489 15  25
16 490  26
490 491  26
491 492  26
492 493  26
493 494  26
494 495  26
495 496  26
496 14  26
End
