MeshVersionFormatted 1

Dimension
3

Vertices
548
256.05683493094301  -422.568645954565  0  0
422.46113696881901  -256.23417221311303  0  0
422.46113696881901  -256.23417221311303  39.370078740157503  0
256.05683493094301  -422.568645954565  39.370078740157503  0
-422.568645954565  -256.05683493094301  0  0
-256.23417221311303  -422.46113696881901  0  0
-256.23417221311303  -422.46113696881901  39.370078740157503  0
-422.568645954565  -256.05683493094301  39.370078740157503  0
-256.05683493094301  422.568645954565  0  0
-422.46113696881901  256.23417221311303  0  0
-422.46113696881901  256.23417221311303  39.370078740157503  0
-256.05683493094301  422.568645954565  39.370078740157503  0
256.23417221311303  422.46113696881901  39.370078740157503  0
422.568645954565  256.05683493094301  39.370078740157503  0
422.568645954565  256.05683493094301  0  0
256.23417221311303  422.46113696881901  0  0
347.94152113049699  -4.2609139753503003e-14  227.55905511811  0
-347.94152113049699  0  227.55905511811  0
413.87971995840201  -5.0683973477928498e-14  39.370078740157503  0
376.33548132854702  172.24409448818901  39.370078740157503  0
378.38921444300598  172.24409448818901  0  0
172.24409448818901  378.38921444300598  0  0
172.24409448818901  325.51931306090898  192.91338582677199  0
-172.24409448818901  325.51931306090898  192.91338582677199  0
-172.24409448818901  378.38921444300598  0  0
-378.38921444300598  172.24409448818901  0  0
-376.33548132854702  172.24409448818901  39.370078740157503  0
-413.87971995840201  5.0683973477928498e-14  39.370078740157503  0
-376.33548132854702  -172.24409448818901  39.370078740157503  0
-378.38921444300598  -172.24409448818901  0  0
-172.24409448818901  -378.38921444300598  0  0
-172.24409448818901  -325.51931306090898  192.91338582677199  0
172.24409448818901  -325.51931306090898  192.91338582677199  0
172.24409448818901  -378.38921444300598  0  0
378.38921444300598  -172.24409448818901  0  0
376.33548132854702  -172.24409448818901  39.370078740157503  0
419.42158156075601  -172.24409448818901  39.370078740157503  0
421.26531566096497  -172.24409448818901  0  0
394.116603021061  -227.60623341228501  0  0
393.97244094488201  -227.46062992125999  13.411632143176201  0
393.97244094488201  -227.46062992125999  39.370078740157503  0
393.97244094488201  -224.42862326564801  39.370078740157503  0
224.42862326564699  -393.97244094488201  39.370078740157503  0
227.46062992125999  -393.97244094488201  39.370078740157503  0
227.46062992125999  -393.97244094488201  13.411632143176201  0
227.605319683456  -394.11713070707901  0  0
172.24409448818901  -421.26531566096497  0  0
172.24409448818901  -374.49818657475902  192.91338582677199  0
-172.24409448818901  -374.49818657475902  192.91338582677199  0
-172.24409448818901  -421.26531566096497  0  0
-227.60623341228501  -394.116603021061  0  0
-227.46062992125999  -393.97244094488201  13.411632143176201  0
-227.46062992125999  -393.97244094488201  39.370078740157503  0
-224.42862326564801  -393.97244094488201  39.370078740157503  0
-393.97244094488201  -224.42862326564699  39.370078740157503  0
-393.97244094488201  -227.46062992125999  39.370078740157503  0
-393.97244094488201  -227.46062992125999  13.411632143176201  0
-394.11713070707901  -227.605319683456  0  0
-421.26531566096497  -172.24409448818901  0  0
-419.42158156075601  -172.24409448818901  39.370078740157503  0
-394.14384518693299  0  227.55905511811  0
394.14384518693299  -4.8267105713590199e-14  227.55905511811  0
-453.41205449897598  5.55251282839104e-14  39.370078740157503  0
-419.42158156075601  172.24409448818901  39.370078740157503  0
-421.26531566096497  172.24409448818901  0  0
-394.116603021061  227.60623341228501  0  0
-393.97244094488201  227.46062992125999  13.411632143176201  0
-393.97244094488201  227.46062992125999  39.370078740157503  0
-393.97244094488201  224.42862326564801  39.370078740157503  0
-224.42862326564699  393.97244094488201  39.370078740157503  0
-227.46062992125999  393.97244094488201  39.370078740157503  0
-227.46062992125999  393.97244094488201  13.411632143176201  0
-227.605319683456  394.11713070707901  0  0
-172.24409448818901  421.26531566096497  0  0
-172.24409448818901  374.49818657475902  192.91338582677199  0
172.24409448818901  374.49818657475902  192.91338582677199  0
172.24409448818901  421.26531566096497  0  0
227.60623341228501  394.116603021061  0  0
227.46062992125999  393.97244094488201  13.411632143176201  0
227.46062992125999  393.97244094488201  39.370078740157503  0
224.42862326564801  393.97244094488201  39.370078740157503  0
393.97244094488201  224.42862326564699  39.370078740157503  0
393.97244094488201  227.46062992125999  39.370078740157503  0
393.97244094488201  227.46062992125999  13.411632143176201  0
394.11713070707901  227.605319683456  0  0
421.26531566096497  172.24409448818901  0  0
419.42158156075601  172.24409448818901  39.370078740157503  0
453.41205449897598  -5.55251282839104e-14  39.370078740157503  0
289.06115605868428  -400.71562399879434  0  0
320.21026193246394  -376.29078039711391  0  0
349.30423535430066  -349.45087554944473  0  0
376.1563491138474  -320.36816989218437  0  0
400.5942644170334  -289.22931831835803  0  0
422.46113696881901  -256.23417221311303  19.685039370078751  0
388.6872597918337  -305.0435662888857  39.370078740157503  0
349.30423535430106  -349.45087554944433  39.370078740157503  0
304.88040022519976  -388.81525795324467  39.370078740157503  0
-400.71562399879434  -289.06115605868428  0  0
-376.29078039711391  -320.21026193246394  0  0
-349.45087554944473  -349.30423535430066  0  0
-320.36816989218437  -376.1563491138474  0  0
-289.22931831835803  -400.5942644170334  0  0
-256.23417221311303  -422.46113696881901  19.685039370078751  0
-305.04356628888593  -388.68725979183353  39.370078740157503  0
-349.45087554944456  -349.30423535430083  39.370078740157503  0
-388.81525795324484  -304.88040022519959  39.370078740157503  0
-295.44597163055295  396.03161629597793  0  0
-332.10523267284549  365.83531498481841  0  0
-365.69589208439703  332.25875123361794  0  0
-395.90757730221475  295.61216736362024  0  0
-422.46113696881901  256.23417221311303  19.685039370078751  0
-388.68725979183353  305.04356628888593  39.370078740157503  0
-349.30423535430083  349.45087554944456  39.370078740157503  0
-304.88040022519959  388.81525795324484  39.370078740157503  0
305.04356628888593  388.68725979183353  39.370078740157503  0
349.45087554944456  349.30423535430083  39.370078740157503  0
388.81525795324484  304.88040022519959  39.370078740157503  0
400.71562399879434  289.06115605868428  0  0
376.29078039711391  320.21026193246394  0  0
349.45087554944473  349.30423535430066  0  0
320.36816989218437  376.1563491138474  0  0
289.22931831835803  400.5942644170334  0  0
256.23417221311303  422.46113696881901  19.685039370078751  0
342.65550760417449  60.419411078970427  227.55905511811  0
326.95807987135225  119.00300892600376  227.55905511811  0
301.32619633041043  173.97076056524853  227.55905511811  0
266.53866879238171  223.65249867817064  227.55905511811  0
223.65249867817073  266.53866879238166  227.55905511811  0
173.97076056524836  301.32619633041054  227.55905511811  0
119.00300892600372  326.95807987135225  227.55905511811  0
60.419411078970533  342.65550760417443  227.55905511811  0
6.3915820521438638e-14  347.94152113049699  227.55905511811  0
-60.419411078970413  342.65550760417449  227.55905511811  0
-119.00300892600387  326.9580798713522  227.55905511811  0
-173.97076056524853  301.32619633041043  227.55905511811  0
-223.65249867817064  266.53866879238171  227.55905511811  0
-266.53866879238183  223.65249867817053  227.55905511811  0
-301.32619633041054  173.97076056524838  227.55905511811  0
-326.95807987135225  119.00300892600373  227.55905511811  0
-342.65550760417443  60.419411078970555  227.55905511811  0
379.99683552388296  -4.6534653921494494e-14  168.66781164373486  0
402.16846254972  -4.92498054545365e-14  105.38953184849933  0
397.05013757326071  116.82298937238332  39.370078740157503  0
409.65071850364876  59.014501796503943  39.370078740157503  0
377.87543235419167  172.24409448818901  19.711804329586368  0
224.51296145168769  349.91478367317319  0  0
272.17999342226631  314.26816076959767  0  0
314.26816076959756  272.17999342226648  0  0
349.91478367317308  224.51296145168786  0  0
172.24409448818901  354.57696152335041  132.1119826649485  0
172.24409448818901  372.38857094250596  67.120412976927952  0
-117.40548200860789  349.06561568855312  192.91338582677199  0
-59.483770727536218  363.44536354414555  192.91338582677199  0
-6.7652111277003697e-14  368.28094067125198  192.91338582677199  0
59.483770727536076  363.44536354414561  192.91338582677199  0
117.40548200860778  349.06561568855318  192.91338582677199  0
-172.24409448818901  372.38857094250602  67.120412976927781  0
-172.24409448818901  354.57696152335052  132.11198266494833  0
-355.17624465823479  216.09317648487732  0  0
-326.9050496734169  256.86477802702228  0  0
-293.97825233582387  293.97825233582375  0  0
-256.86477802702245  326.90504967341678  0  0
-216.09317648487752  355.17624465823468  0  0
-377.87543235419167  172.24409448818901  19.711804329586553  0
-409.65071850364882  59.014501796503794  39.370078740157503  0
-397.05013757326077  116.82298937238319  39.370078740157503  0
-402.16846254971995  4.9249805454536493e-14  105.3895318484994  0
-379.99683552388302  4.65346539214945e-14  168.66781164373469  0
-397.05013757326071  -116.82298937238336  39.370078740157503  0
-409.65071850364876  -59.014501796503993  39.370078740157503  0
-377.87543235419167  -172.24409448818901  19.711804329586368  0
-216.09317648487732  -355.17624465823479  0  0
-256.86477802702228  -326.9050496734169  0  0
-293.97825233582375  -293.97825233582387  0  0
-326.90504967341678  -256.86477802702245  0  0
-355.17624465823468  -216.09317648487752  0  0
-172.24409448818901  -354.57696152335041  132.1119826649485  0
-172.24409448818901  -372.38857094250596  67.120412976927952  0
117.40548200860795  -349.06561568855312  192.91338582677199  0
59.48377072753626  -363.44536354414555  192.91338582677199  0
1.1275351879500631e-13  -368.28094067125198  192.91338582677199  0
-59.483770727536033  -363.44536354414561  192.91338582677199  0
-117.40548200860772  -349.06561568855318  192.91338582677199  0
172.24409448818901  -372.38857094250602  67.120412976927781  0
172.24409448818901  -354.57696152335052  132.11198266494833  0
355.17624465823479  -216.09317648487732  0  0
326.9050496734169  -256.86477802702228  0  0
293.97825233582387  -293.97825233582375  0  0
256.86477802702245  -326.90504967341678  0  0
216.09317648487752  -355.17624465823468  0  0
377.87543235419167  -172.24409448818901  19.711804329586553  0
409.65071850364882  -59.014501796503829  39.370078740157503  0
397.05013757326077  -116.8229893723832  39.370078740157503  0
-342.65550760417443  -60.419411078970548  227.55905511811  0
-326.9580798713522  -119.00300892600379  227.55905511811  0
-301.32619633041043  -173.9707605652485  227.55905511811  0
-266.53866879238171  -223.6524986781707  227.55905511811  0
-223.65249867817064  -266.53866879238171  227.55905511811  0
-173.97076056524847  -301.32619633041048  227.55905511811  0
-119.00300892600373  -326.95807987135225  227.55905511811  0
-60.419411078970498  -342.65550760417449  227.55905511811  0
5.5953264089289427e-14  -347.94152113049699  227.55905511811  0
60.419411078970604  -342.65550760417443  227.55905511811  0
119.00300892600384  -326.9580798713522  227.55905511811  0
173.97076056524858  -301.32619633041043  227.55905511811  0
223.6524986781707  -266.53866879238171  227.55905511811  0
266.53866879238171  -223.65249867817062  227.55905511811  0
301.32619633041054  -173.97076056524836  227.55905511811  0
326.95807987135225  -119.00300892600369  227.55905511811  0
342.65550760417443  -60.419411078970519  227.55905511811  0
420.8041296910867  -172.24409448818901  19.706613454868997  0
403.56478100364757  -237.14887967922724  0  0
413.01295898623351  -246.69152594616986  0  0
394.08056039924907  -227.56983041573608  6.7065986130208985  0
393.97244094488201  -227.46062992125999  18.60332146257246  0
393.97244094488201  -227.46062992125999  23.79501078196872  0
393.97244094488201  -227.46062992125999  28.986700101364981  0
393.97244094488201  -227.46062992125999  34.178389420761242  0
408.21678895685062  -241.8474010671863  39.370078740157503  0
393.97244094488195  -225.14055977753358  35.070477384533383  0
393.97244094488195  -225.77013230910339  30.758046070096693  0
393.97244094488195  -226.31711054157472  26.434362429097519  0
393.97244094488195  -226.78129437193459  22.101008210264769  0
393.97244094488195  -227.16251398614358  17.759568700150215  0
360.5135640607885  -274.97720140617128  39.370078740157503  0
320.61073840795035  -320.61073840795041  39.370078740157503  0
274.97720140617088  -360.51356406078884  39.370078740157503  0
227.46062992125999  -393.97244094488201  18.60332146257246  0
227.46062992125999  -393.97244094488201  23.79501078196872  0
227.46062992125999  -393.97244094488201  28.986700101364981  0
227.46062992125999  -393.97244094488201  34.178389420761242  0
227.16251398614347  -393.97244094488201  17.759568700150105  0
226.78129437193442  -393.97244094488201  22.101008210264858  0
226.31711054157461  -393.97244094488201  26.434362429097408  0
225.77013230910325  -393.97244094488201  30.758046070096583  0
225.14055977753344  -393.97244094488201  35.070477384533476  0
227.56914513811316  -394.08095616173512  6.7065965101242089  0
241.83107730719976  -408.34288833082178  0  0
413.05314971948752  -191.10099364419756  0  0
403.99741406033934  -209.56761127986294  0  0
200.38499068025183  -408.62984444979594  0  0
172.24409448818901  -418.29013596510521  49.97827861407665  0
172.24409448818901  -409.40662119756166  99.250615607807291  0
172.24409448818901  -394.74025072623721  147.12104076412675  0
105.43328304501929  -398.49810872849611  192.91338582677199  0
35.495354587186029  -410.67870609098958  192.91338582677199  0
-35.495354587185773  -410.67870609098958  192.91338582677199  0
-105.43328304501902  -398.49810872849616  192.91338582677199  0
-172.24409448818901  -394.74025072623715  147.12104076412695  0
-172.24409448818901  -409.40662119756161  99.250615607807489  0
-172.24409448818901  -418.29013596510521  49.978278614076849  0
-237.14887967922724  -403.56478100364757  0  0
-246.69152594616986  -413.01295898623351  0  0
-227.56983041573608  -394.08056039924907  6.7065986130208977  0
-227.46062992125999  -393.97244094488201  19.901243792421525  0
-227.46062992125999  -393.97244094488201  26.390855441666851  0
-227.46062992125999  -393.97244094488201  32.880467090912177  0
-241.8474010671863  -408.21678895685062  39.370078740157503  0
-225.04389150545074  -393.97244094488201  35.68552839742091  0
-225.59867292602513  -393.97244094488201  31.991386574147871  0
-226.09281841439881  -393.97244094488201  28.288646173931973  0
-226.52619515519683  -393.97244094488201  24.578302411474805  0
-226.89868666633922  -393.97244094488201  20.861352545092707  0
-227.2101928303486  -393.97244094488201  17.138795608677402  0
-274.97720140617128  -360.5135640607885  39.370078740157503  0
-320.61073840795041  -320.61073840795035  39.370078740157503  0
-360.51356406078884  -274.97720140617088  39.370078740157503  0
-393.97244094488201  -227.46062992125999  18.60332146257246  0
-393.97244094488201  -227.46062992125999  23.79501078196872  0
-393.97244094488201  -227.46062992125999  28.986700101364981  0
-393.97244094488201  -227.46062992125999  34.178389420761242  0
-393.97244094488201  -227.21019283034855  17.138795608677292  0
-393.97244094488201  -226.89868666633913  20.861352545092593  0
-393.97244094488201  -226.52619515519675  24.578302411474692  0
-393.97244094488201  -226.09281841439869  28.288646173932065  0
-393.97244094488201  -225.59867292602505  31.991386574147963  0
-393.97244094488201  -225.04389150545066  35.685528397420995  0
-394.08095616173512  -227.56914513811316  6.7065965101242089  0
-403.60096912290737  -237.08915809928533  0  0
-413.08480753873619  -246.57299651511417  0  0
-403.99773797049386  -209.56698685554764  0  0
-413.05329740355131  -191.10067443377181  0  0
-200.38546436812788  -408.62961216113399  0  0
-420.8041296910867  -172.24409448818901  19.706613454868791  0
-388.15591454213506  -68.442360455347639  227.55905511811  0
-370.37406285034439  -134.80513442176502  227.55905511811  0
-341.33858267716488  -197.0719225934665  227.55905511811  0
-301.93170239499676  -253.35078012037008  227.55905511811  0
-253.35078012037005  -301.93170239499682  227.55905511811  0
-197.07192259346644  -341.33858267716494  227.55905511811  0
-134.80513442176496  -370.37406285034444  227.55905511811  0
-68.442360455347583  -388.15591454213512  227.55905511811  0
6.3383164467574875e-14  -394.14384518693299  227.55905511811  0
68.442360455347696  -388.15591454213506  227.55905511811  0
134.8051344217651  -370.37406285034439  227.55905511811  0
197.07192259346658  -341.33858267716488  227.55905511811  0
253.35078012037008  -301.93170239499676  227.55905511811  0
301.93170239499682  -253.35078012036999  227.55905511811  0
341.33858267716505  -197.07192259346633  227.55905511811  0
370.37406285034444  -134.8051344217649  227.55905511811  0
388.15591454213506  -68.442360455347597  227.55905511811  0
388.15591454213512  68.442360455347497  227.55905511811  0
370.37406285034444  134.80513442176499  227.55905511811  0
341.33858267716488  197.07192259346655  227.55905511811  0
301.93170239499676  253.35078012037005  227.55905511811  0
253.35078012037013  301.93170239499671  227.55905511811  0
197.07192259346635  341.33858267716499  227.55905511811  0
134.80513442176493  370.37406285034444  227.55905511811  0
68.442360455347625  388.15591454213506  227.55905511811  0
7.2403049761771106e-14  394.14384518693299  227.55905511811  0
-68.442360455347483  388.15591454213512  227.55905511811  0
-134.8051344217651  370.37406285034439  227.55905511811  0
-197.07192259346655  341.33858267716488  227.55905511811  0
-253.35078012037005  301.93170239499682  227.55905511811  0
-301.93170239499688  253.3507801203699  227.55905511811  0
-341.33858267716499  197.07192259346635  227.55905511811  0
-370.37406285034444  134.80513442176496  227.55905511811  0
-388.15591454213506  68.442360455347639  227.55905511811  0
-444.83327897182704  -87.782943013748749  39.370078740157503  0
-444.8332789718271  87.782943013748479  39.370078740157503  0
-420.8041296910867  172.24409448818901  19.706613454868869  0
-403.56478100364757  237.14887967922724  0  0
-413.01295898623351  246.69152594616986  0  0
-394.08056039924907  227.56983041573608  6.7065986130208985  0
-393.97244094488201  227.46062992125999  18.60332146257246  0
-393.97244094488201  227.46062992125999  23.79501078196872  0
-393.97244094488201  227.46062992125999  28.986700101364981  0
-393.97244094488201  227.46062992125999  34.178389420761242  0
-408.21678895685062  241.8474010671863  39.370078740157503  0
-393.97244094488201  225.14055977753353  35.070477384533383  0
-393.97244094488201  225.77013230910333  30.758046070096693  0
-393.97244094488201  226.31711054157466  26.434362429097519  0
-393.97244094488201  226.78129437193454  22.101008210264769  0
-393.97244094488201  227.16251398614352  17.759568700150215  0
-360.5135640607885  274.97720140617128  39.370078740157503  0
-320.61073840795035  320.61073840795041  39.370078740157503  0
-274.97720140617088  360.51356406078884  39.370078740157503  0
-227.46062992125999  393.97244094488201  18.60332146257246  0
-227.46062992125999  393.97244094488201  23.79501078196872  0
-227.46062992125999  393.97244094488201  28.986700101364981  0
-227.46062992125999  393.97244094488201  34.178389420761242  0
-227.21019283034857  393.97244094488201  17.138795608677292  0
-226.89868666633916  393.97244094488201  20.861352545092593  0
-226.52619515519677  393.97244094488201  24.578302411474692  0
-226.09281841439872  393.97244094488201  28.288646173932065  0
-225.59867292602507  393.97244094488201  31.991386574147963  0
-225.04389150545069  393.97244094488201  35.685528397420995  0
-227.56914513811316  394.08095616173512  6.7065965101242089  0
-246.57299651511428  413.08480753873624  0  0
-237.08915809928541  403.60096912290737  0  0
-413.05314971948752  191.10099364419756  0  0
-403.99741406033934  209.56761127986294  0  0
-200.38499068025183  408.62984444979594  0  0
-172.24409448818901  418.29013596510521  49.97827861407665  0
-172.24409448818901  409.40662119756166  99.250615607807291  0
-172.24409448818901  394.74025072623721  147.12104076412675  0
-105.43328304501924  398.49810872849611  192.91338582677199  0
-35.495354587185972  410.67870609098958  192.91338582677199  0
35.49535458718583  410.67870609098958  192.91338582677199  0
105.43328304501908  398.49810872849616  192.91338582677199  0
172.24409448818901  394.74025072623715  147.12104076412695  0
172.24409448818901  409.40662119756161  99.250615607807489  0
172.24409448818901  418.29013596510521  49.978278614076849  0
246.69152594617  413.01295898623329  0  0
237.14887967922735  403.56478100364734  0  0
227.56983041573608  394.08056039924907  6.7065986130208977  0
227.46062992125999  393.97244094488201  18.60332146257246  0
227.46062992125999  393.97244094488201  23.79501078196872  0
227.46062992125999  393.97244094488201  28.986700101364981  0
227.46062992125999  393.97244094488201  34.178389420761242  0
241.8474010671863  408.21678895685062  39.370078740157503  0
225.1405597775335  393.97244094488201  35.070477384533383  0
225.7701323091033  393.97244094488201  30.758046070096693  0
226.31711054157464  393.97244094488201  26.434362429097519  0
226.78129437193451  393.97244094488201  22.101008210264769  0
227.16251398614349  393.97244094488201  17.759568700150215  0
274.97720140617128  360.5135640607885  39.370078740157503  0
320.61073840795041  320.61073840795035  39.370078740157503  0
360.51356406078884  274.97720140617088  39.370078740157503  0
393.97244094488201  227.46062992125999  19.901243792421525  0
393.97244094488201  227.46062992125999  26.390855441666851  0
393.97244094488201  227.46062992125999  32.880467090912177  0
393.97244094488207  227.21019283034849  17.138795608677292  0
393.97244094488207  226.89868666633907  20.861352545092593  0
393.97244094488207  226.52619515519669  24.578302411474692  0
393.97244094488207  226.09281841439864  28.288646173932065  0
393.97244094488207  225.59867292602499  31.991386574147963  0
393.97244094488207  225.0438915054506  35.685528397420995  0
394.08095616173512  227.56914513811316  6.7065965101242089  0
403.60096912290737  237.08915809928533  0  0
413.08480753873619  246.57299651511417  0  0
403.99773797049386  209.56698685554764  0  0
413.05329740355131  191.10067443377181  0  0
200.38546436812788  408.62961216113399  0  0
420.8041296910867  172.24409448818901  19.706613454868663  0
444.83327897182704  87.782943013748692  39.370078740157503  0
444.8332789718271  -87.782943013748508  39.370078740157503  0
442.89599350445752  -5.4237324772803421e-14  104.76465626674168  0
422.99945506636868  -5.1800782033767938e-14  167.94033249503872  0
-422.99945506636868  5.1800782033767938e-14  167.94033249503875  0
-442.89599350445746  5.4237324772803414e-14  104.76465626674198  0
302.47273904656021  238.4148930595149  156.57268789269401  0
258.07657788955788  322.86583859299503  44.72757435082368  0
-256.03827096684716  287.70787771490677  156.57268789269401  0
362.54445733476336  113.83809320261359  168.66781164373486  0
-394.05138049063572  80.39267257051327  105.3895318484993  0
-216.85061393110448  343.38408887167026  88.935956959641871  0
349.2365003542572  199.43254270533797  105.38953184849929  0
334.89985235843858  179.55412526160737  168.66781164373486  0
-258.07657788955811  322.86583859299486  44.727574350823609  0
-302.47273904656043  238.41489305951467  156.57268789269395  0
-353.48034100934137  139.46054470022955  168.66781164373486  0
375.60840081932304  57.584062396775636  168.66781164373486  0
348.58736814605317  220.8804058002768  50.449170413045124  0
-373.30885738997517  70.97951818909533  168.66781164373486  0
-296.78576790924569  280.00293085368338  79.768366992925834  0
-349.23650035425726  199.43254270533785  105.3895318484993  0
296.78576790924546  280.00293085368367  79.768366992925863  0
-363.8113440257606  197.47190714426958  38.633891077990405  0
376.37991594019985  141.69555796302731  105.3895318484993  0
394.05138049063572  80.392672570513383  105.3895318484993  0
216.85061393110445  343.38408887167031  88.935956959642027  0
-348.97299310033583  218.99436842885871  55.729187827292328  0
-376.37991594019991  141.6955579630272  105.3895318484993  0
365.0410208880773  195.99399680162506  34.319556809001732  0
256.03827096684734  287.70787771490672  156.57268789269392  0
216.85061393110425  -343.38408887167043  88.935956959641871  0
375.60840081932298  -57.584062396775806  168.66781164373486  0
-216.85061393110439  -343.38408887167031  88.935956959642027  0
-296.78576790924529  -280.00293085368384  79.768366992925849  0
296.78576790924529  -280.00293085368378  79.768366992925834  0
376.37991594019985  -141.69555796302723  105.3895318484993  0
-302.47273904656015  -238.41489305951501  156.57268789269395  0
256.03827096684711  -287.70787771490694  156.57268789269395  0
-334.89985235843864  -179.55412526160731  168.66781164373486  0
348.9729931003356  -218.99436842885908  55.729187827292328  0
-360.24161854454462  -178.78883784513042  105.3895318484993  0
363.81134402576043  -197.47190714426995  38.633891077990405  0
-258.07657788955754  -322.86583859299526  44.72757435082368  0
258.07657788955777  -322.86583859299515  44.727574350823609  0
-362.54445733476336  -113.83809320261354  168.66781164373489  0
-331.73646067334414  -227.19710958525559  105.72993780798106  0
-394.05138049063572  -80.392672570513355  105.3895318484993  0
-355.0404583460035  -209.68991177762368  53.13040117487899  0
302.47273904656026  -238.41489305951484  156.57268789269395  0
362.54445733476336  -113.83809320261351  168.66781164373489  0
334.89985235843864  -179.55412526160731  168.66781164373486  0
349.23650035425715  -199.43254270533805  105.3895318484993  0
394.05138049063578  -80.392672570513142  105.3895318484993  0
-256.03827096684716  -287.70787771490689  156.57268789269395  0
-375.60840081932304  -57.584062396775657  168.66781164373484  0
-367.81517394593817  -190.50240309046291  35.598566329690662  0
401.20632481309201  -234.76684229550804  12.771355816016083  0
398.79193765601104  -232.32831471548812  27.528163925564321  0
411.02833639326445  -244.6870599620413  23.124711247036096  0
235.06506850464643  -401.57687952826848  20.589637399339519  0
231.908398385167  -398.42020940878905  8.1438251055046464  0
375.76873284116033  -260.55924758885845  0  0
258.25399028930997  -383.40904836079926  0  0
401.60282518115503  -252.95035462663702  0  0
-236.49290915198563  -402.91530431559511  15.679094159301666  0
-400.36189373919586  -233.85008271557382  18.333851165999331  0
-381.37650503255475  -256.24320898441323  0  0
-252.95035462663702  -401.60282518115503  0  0
-260.55924758885845  -375.76873284116033  0  0
-401.20632481309201  234.76684229550804  12.771355816016083  0
-398.79193765601104  232.32831471548812  27.528163925564321  0
-411.02833639326445  244.6870599620413  23.124711247036096  0
-233.85008271557385  400.36189373919586  18.333851165999306  0
-400.35197495789748  254.48186391936824  0  0
-372.98744656569943  263.83050988872463  0  0
-247.9984042263452  387.33858436265785  0  0
234.76684229550852  401.20632481309156  12.771355816016055  0
232.3283147154886  398.79193765601053  27.528163925564311  0
244.68705996204176  411.02833639326394  23.124711247036071  0
397.28118424432415  230.76937322070211  9.769130945910284  0
403.89484859791912  237.38303757429705  18.626989742731304  0
378.8213228558788  259.62351545508221  0  0
253.5902808488016  401.120262583613  0  0
264.59912926515045  372.7397693332253  0  0
-241.12644042378241  -367.4762329337654  118.11753562597771  0
-406.95191474980317  -200.76898168065935  34.848950362514572  0
-366.73579981499199  -210.79229616023204  167.94033249503875  0
-303.51890546269283  -322.54167961525434  104.76465626674204  0
225.33930213295596  -365.94883718771098  149.78698788674396  0
-401.27046193464264  -214.4291262147126  11.604329991103898  0
384.41114051122122  -219.96576122924799  104.76465626674202  0
-399.1763362616299  -206.90343661372128  70.581263456834094  0
-339.64404497164986  -284.25126873524476  104.76465626674202  0
284.25126873524522  -339.64404497164946  104.76465626674204  0
-373.92746308344528  -237.35019151936473  104.76465626674201  0
271.69028179170607  -324.21124250461804  167.94033249503869  0
339.64404497164963  -284.25126873524505  104.76465626674204  0
435.08652919822481  -82.804427252066091  104.76465626674204  0
-223.44001918743893  -353.02138238889529  180.50749476611577  0
-400.98440775685873  -212.74681369760788  32.905808945923184  0
353.56035861946583  -232.21458136671703  167.94033249503869  0
402.00341804400125  -213.1091493586685  10.499362149851869  0
-404.39874521222657  -124.05722009307459  167.94033249503869  0
-429.53578239691689  -107.96236706820058  104.76465626674202  0
-401.77710652031004  -186.36528039972436  104.76465626674201  0
-271.69028179170618  -324.21124250461799  167.94033249503869  0
408.22529858955727  -198.09077166267585  35.279541359567709  0
-324.21124250461821  -271.69028179170596  167.94033249503869  0
411.93354058954452  -162.68871872278808  104.76465626674207  0
400.98439426625833  -212.74683978420401  32.905804681624133  0
-416.06650976637445  -76.270560751002293  167.94033249503869  0
416.06650976637439  -76.270560751002634  167.94033249503869  0
395.49493529643382  -150.0409782070036  167.94033249503872  0
324.21124250461821  -271.69028179170596  167.94033249503869  0
200.42954998916855  -406.42791345869807  42.152590878111901  0
-212.38303913977211  -402.1670226691233  16.95950554102248  0
226.81309789312252  -383.56975298420025  92.534088231059002  0
339.64404497164963  284.25126873524505  104.76465626674204  0
375.40204563083455  194.94061434865142  167.94033249503875  0
-284.25126873524528  339.64404497164941  104.76465626674205  0
435.08652919822487  82.804427252065892  104.76465626674202  0
225.33930213295588  365.94883718771098  149.78698788674401  0
404.39874521222657  124.05722009307462  167.94033249503869  0
271.69028179170624  324.21124250461799  167.94033249503863  0
384.41114051122116  219.96576122924813  104.76465626674204  0
-230.33648902332499  374.33386684488306  118.11753562597761  0
-408.22529858955727  198.09077166267599  35.279541359567681  0
303.51890546269254  322.54167961525457  104.76465626674205  0
-223.44001918743885  353.02138238889535  180.50749476611571  0
-402.00341804400136  213.10914935866828  10.499362149851772  0
-355.59716239164783  264.02181569201531  104.76465626674199  0
416.06650976637445  76.27056075100225  167.94033249503869  0
-416.06650976637445  76.270560751002392  167.94033249503863  0
406.95191474980317  200.76898168065944  34.848950362514643  0
411.93354058954458  162.68871872278794  104.76465626674209  0
-384.41114051122105  219.9657612292483  104.76465626674204  0
-324.21124250461833  271.69028179170573  167.94033249503869  0
-411.93354058954458  162.68871872278802  104.76465626674199  0
-435.08652919822487  82.804427252065835  104.76465626674199  0
400.98440775685867  212.74681369760796  32.905808945923212  0
401.27046193464264  214.4291262147126  11.604329991103894  0
344.77216928953567  245.07282646150838  167.94033249503875  0
-366.73579981499199  210.79229616023215  167.94033249503866  0
307.49183723576266  290.47772551405745  167.94033249503875  0
-395.49493529643371  150.04097820700392  167.94033249503863  0
-271.69028179170607  324.21124250461799  167.94033249503875  0
260.04631261417762  361.14192882171238  95.314829946297607  0
-400.98439426625822  212.74683978420416  32.905804681624119  0
-200.3762337633749  406.42059418809902  42.475402618303072  0
197.78286909219696  407.64469653116242  42.89792942164452  0
-217.36980137490539  391.26769896357405  82.416330074647249  0
215.30608636092737  388.96360132124801  97.381211165887564  0
Triangles
1096
4 89 97  1
97 89 90  1
94 93 2  1
89 4 1  1
90 96 97  1
96 92 95  1
96 90 91  1
92 96 91  1
93 3 95  1
3 93 94  1
95 92 93  1
99 105 106  2
106 98 99  2
105 101 104  2
98 8 5  2
8 98 106  2
105 99 100  2
101 105 100  2
103 102 6  2
102 7 104  2
7 102 103  2
104 101 102  2
113 108 109  3
111 112 110  3
113 109 112  3
108 113 114  3
107 114 12  3
107 12 9  3
114 107 108  3
112 111 11  3
112 109 110  3
111 110 10  3
119 116 117  4
118 14 15  4
116 121 115  4
14 118 117  4
117 118 119  4
116 119 120  4
121 116 120  4
13 122 123  4
122 115 121  4
123 122 16  4
122 13 115  4
151 146 22  5
417 27 424  5
420 20 408  5
125 409 126  5
127 426 128  5
21 425 145  5
408 425 414  5
425 408 20  5
142 421 413  5
405 421 420  5
126 402 127  5
146 403 147  5
133 152 134  5
124 413 405  5
426 150 23  5
148 418 414  5
17 413 124  5
402 409 408  5
130 23 156  5
131 156 155  5
150 426 422  5
156 131 130  5
416 417 411  5
131 155 132  5
137 411 138  5
128 23 129  5
418 426 402  5
23 130 129  5
146 422 403  5
410 163 162  5
24 134 152  5
134 24 135  5
153 132 154  5
140 168 18  5
24 404 136  5
132 155 154  5
152 133 153  5
24 136 135  5
132 153 133  5
406 165 167  5
160 423 416  5
142 19 144  5
166 424 27  5
415 424 406  5
165 406 166  5
158 407 404  5
163 157 25  5
163 407 157  5
164 419 159  5
161 416 410  5
164 159 26  5
410 162 161  5
423 159 419  5
159 423 160  5
167 165 28  5
426 418 422  5
149 414 425  5
147 418 148  5
422 146 151  5
404 137 136  5
404 24 158  5
125 124 405  5
421 143 420  5
167 415 406  5
415 167 168  5
407 158 157  5
163 410 407  5
409 402 126  5
20 420 143  5
409 125 405  5
409 420 408  5
404 416 411  5
407 416 404  5
138 412 139  5
411 137 404  5
139 415 140  5
412 138 411  5
413 17 141  5
141 142 413  5
149 148 414  5
408 418 402  5
415 168 140  5
415 139 412  5
416 407 410  5
416 161 160  5
424 166 406  5
412 411 417  5
418 408 414  5
418 147 403  5
419 164 27  5
27 417 419  5
420 409 405  5
143 421 144  5
421 405 413  5
421 142 144  5
418 403 422  5
422 151 150  5
419 417 423  5
417 416 423  5
424 415 412  5
412 417 424  5
425 20 145  5
425 21 149  5
426 23 128  5
426 127 402  5
33 434 206  6
170 167 28  6
437 169 29  6
437 444 442  6
444 29 452  6
430 450 433  6
18 451 194  6
443 437 441  6
450 32 198  6
30 452 171  6
196 435 433  6
172 439 173  6
31 178 172  6
443 441 451  6
429 178 177  6
177 450 429  6
200 32 183  6
183 201 200  6
195 441 435  6
197 450 198  6
442 435 437  6
198 32 199  6
179 204 203  6
201 183 182  6
204 179 33  6
32 200 199  6
174 439 430  6
429 172 178  6
210 446 428  6
193 432 36  6
202 182 181  6
203 180 179  6
180 202 181  6
182 202 201  6
204 33 205  6
202 180 203  6
205 33 206  6
431 188 187  6
445 448 447  6
441 195 194  6
436 186 438  6
17 428 141  6
142 449 192  6
207 445 208  6
185 434 33  6
184 427 185  6
184 34 190  6
436 187 186  6
190 427 184  6
209 447 446  6
187 436 431  6
19 142 192  6
193 449 432  6
191 438 186  6
188 440 189  6
35 191 186  6
190 440 427  6
431 427 440  6
428 142 141  6
428 17 210  6
450 177 32  6
174 430 175  6
175 444 176  6
439 172 429  6
434 431 445  6
427 431 434  6
449 446 432  6
432 447 448  6
197 196 433  6
444 437 29  6
434 207 206  6
434 185 427  6
435 196 195  6
169 443 170  6
36 448 438  6
431 448 445  6
435 442 433  6
438 191 36  6
438 448 436  6
429 430 439  6
439 174 173  6
440 190 189  6
440 188 431  6
194 451 441  6
430 444 175  6
430 433 442  6
167 451 168  6
167 170 443  6
29 171 452  6
444 430 442  6
447 432 446  6
445 207 434  6
446 449 428  6
446 210 209  6
447 209 208  6
208 445 447  6
448 431 436  6
448 36 432  6
449 193 192  6
449 142 428  6
450 197 433  6
450 430 429  6
451 18 168  6
451 167 443  6
452 30 176  6
176 444 452  6
441 437 435  6
437 443 169  6
191 211 37  7
211 191 35  7
37 36 191  7
211 35 38  7
213 94 2  8
215 454 453  8
453 213 212  8
213 455 94  8
214 453 212  8
454 216 217  8
454 455 453  8
218 454 217  8
41 454 218  8
453 214 40  8
3 455 219  8
212 39 214  8
453 40 215  8
454 215 216  8
454 41 219  8
455 454 219  8
455 213 453  8
455 3 94  8
216 223 222  9
215 224 223  9
215 40 224  9
216 222 217  9
223 216 215  9
221 217 222  9
218 220 41  9
217 221 218  9
41 220 42  9
220 218 221  9
226 96 95  10
4 227 44  10
227 43 44  10
227 97 226  10
97 227 4  10
3 225 95  10
225 219 41  10
42 225 41  10
96 226 97  10
226 95 225  10
225 3 219  10
235 230 231  11
228 233 232  11
230 235 234  11
234 229 230  11
44 236 231  11
236 44 43  11
233 228 229  11
235 231 236  11
45 228 232  11
229 234 233  11
456 230 229  12
238 456 457  12
45 457 456  12
44 456 4  12
228 456 229  12
456 231 230  12
45 456 228  12
1 456 238  12
457 45 237  12
456 44 231  12
46 457 237  12
457 46 238  12
456 1 4  12
459 90 189  13
241 34 47  13
92 187 188  13
92 458 187  13
238 459 46  13
1 459 238  13
241 190 34  13
190 459 189  13
190 241 46  13
189 90 188  13
458 92 93  13
186 458 39  13
186 240 35  13
240 186 39  13
35 239 38  13
239 35 240  13
460 2 213  13
188 91 92  13
93 460 458  13
2 460 93  13
90 459 89  13
91 188 90  13
39 460 212  13
458 186 187  13
459 190 46  13
459 1 89  13
213 212 460  13
460 39 458  13
243 184 185  14
243 185 244  14
34 242 47  14
244 185 48  14
48 185 33  14
184 243 242  14
242 34 184  14
183 248 182  15
248 183 49  15
49 183 32  15
48 179 245  15
247 182 248  15
180 246 245  15
180 245 179  15
246 181 247  15
179 48 33  15
182 247 181  15
181 246 180  15
31 251 50  16
49 177 32  16
250 178 177  16
177 49 249  16
177 249 250  16
178 250 251  16
251 31 178  16
461 254 52  17
461 253 252  17
256 258 461  17
103 258 7  17
254 252 51  17
258 257 53  17
253 103 6  17
254 461 252  17
253 461 103  17
461 52 255  17
257 258 256  17
461 258 103  17
256 461 255  17
261 256 262  18
256 263 262  18
263 256 255  18
257 261 260  18
257 259 53  18
256 261 257  18
263 255 264  18
255 52 264  18
259 257 260  18
54 53 259  18
106 267 8  19
266 104 265  19
106 266 267  19
8 267 56  19
267 55 56  19
266 106 105  19
7 265 104  19
265 258 53  19
54 265 53  19
265 7 258  19
104 266 105  19
274 269 273  20
268 57 272  20
270 276 271  20
268 272 273  20
268 273 269  20
271 277 56  20
269 274 270  20
275 270 274  20
56 277 55  20
277 271 276  20
276 270 275  20
278 462 57  21
268 462 269  21
58 279 278  21
462 278 279  21
271 462 8  21
462 279 280  21
8 280 5  21
57 462 268  21
462 271 270  21
271 8 56  21
280 8 462  21
462 270 269  21
176 463 175  22
279 463 58  22
465 51 172  22
30 282 281  22
280 98 463  22
100 174 99  22
281 176 30  22
99 463 98  22
282 30 59  22
463 99 175  22
176 281 58  22
6 464 102  22
99 174 175  22
174 100 101  22
31 283 50  22
174 101 173  22
51 465 464  22
101 465 173  22
465 101 102  22
51 464 252  22
283 172 51  22
172 283 31  22
463 176 58  22
98 280 5  22
464 6 253  22
253 252 464  22
102 464 465  22
465 172 173  22
280 463 279  22
284 171 60  23
284 30 171  23
30 284 59  23
60 171 29  23
140 318 61  24
134 312 313  24
129 307 308  24
309 132 131  24
299 207 298  24
204 296 205  24
285 195 194  24
288 198 197  24
197 287 288  24
290 198 289  24
198 288 289  24
290 199 198  24
290 200 199  24
293 201 292  24
292 200 291  24
200 290 291  24
200 292 201  24
286 195 285  24
139 316 317  24
139 318 140  24
136 313 314  24
316 137 315  24
195 286 287  24
195 287 196  24
287 197 196  24
61 194 18  24
194 61 285  24
318 139 317  24
140 61 18  24
134 313 135  24
315 136 314  24
134 311 312  24
136 315 137  24
132 309 310  24
313 136 135  24
130 309 131  24
309 130 308  24
310 133 132  24
129 308 130  24
305 128 127  24
128 305 306  24
128 306 307  24
307 129 128  24
127 304 305  24
304 125 303  24
62 124 17  24
124 302 303  24
300 210 209  24
124 303 125  24
125 304 126  24
304 127 126  24
62 210 301  24
137 316 138  24
316 139 138  24
210 300 301  24
124 62 302  24
300 208 299  24
133 310 311  24
311 134 133  24
210 62 17  24
207 299 208  24
208 300 209  24
295 204 294  24
203 293 294  24
203 294 204  24
205 296 206  24
297 207 206  24
296 204 295  24
201 293 202  24
293 203 202  24
297 206 296  24
207 297 298  24
165 320 63  25
60 169 319  25
64 166 27  25
320 165 166  25
170 63 319  25
166 64 320  25
165 63 28  25
63 170 28  25
170 319 169  25
169 60 29  25
321 164 64  26
321 26 164  26
26 321 65  26
64 164 27  26
468 467 329  27
467 326 327  27
467 325 326  27
325 467 466  27
467 68 329  27
323 111 10  27
11 468 329  27
323 468 111  27
466 324 67  27
322 66 324  27
324 466 322  27
328 467 327  27
466 323 322  27
466 67 325  27
68 467 328  27
467 468 466  27
468 323 466  27
468 11 111  27
327 331 332  28
327 332 326  28
331 328 330  28
326 333 325  28
328 331 327  28
68 330 328  28
68 69 330  28
325 333 334  28
333 326 332  28
67 325 334  28
11 335 112  29
69 335 68  29
335 329 68  29
112 336 113  29
114 336 337  29
337 70 71  29
12 337 71  29
335 11 329  29
337 12 114  29
336 114 113  29
336 112 335  29
344 339 343  30
338 72 342  30
345 340 344  30
340 346 341  30
338 342 343  30
338 343 339  30
341 347 71  30
339 344 340  30
71 347 70  30
347 341 346  30
346 340 345  30
469 348 350  31
338 469 339  31
348 469 72  31
348 73 350  31
469 340 339  31
469 341 340  31
349 12 469  31
72 469 338  31
341 469 12  31
469 350 349  31
12 349 9  31
341 12 71  31
470 10 323  32
110 470 471  32
26 351 65  32
107 162 472  32
66 471 470  32
108 161 162  32
26 352 351  32
162 107 108  32
109 471 160  32
10 470 110  32
66 470 322  32
349 472 350  32
352 26 159  32
472 9 107  32
352 159 66  32
353 163 25  32
25 74 353  32
472 163 73  32
163 353 73  32
163 472 162  32
161 108 109  32
109 160 161  32
470 323 322  32
471 66 159  32
471 159 160  32
471 109 110  32
472 73 350  32
9 472 349  32
158 75 24  33
75 158 356  33
355 158 157  33
158 355 356  33
157 354 355  33
25 354 157  33
354 25 74  33
154 358 153  34
153 358 357  34
76 156 23  34
358 154 359  34
357 152 153  34
359 155 360  34
152 357 75  34
152 75 24  34
360 155 156  34
155 359 154  34
156 76 360  34
150 76 23  35
362 150 151  35
76 150 361  35
150 362 361  35
363 151 22  35
151 363 362  35
363 22 77  35
473 79 367  36
366 365 78  36
13 475 371  36
474 475 473  36
474 368 369  36
80 474 370  36
367 474 473  36
364 475 123  36
366 473 365  36
473 366 79  36
364 123 16  36
370 474 369  36
474 80 371  36
473 364 365  36
475 474 371  36
474 367 368  36
475 364 473  36
475 13 123  36
373 370 372  37
80 372 370  37
370 373 369  37
374 368 369  37
368 375 367  37
372 80 81  37
374 369 373  37
367 375 376  37
375 368 374  37
79 367 376  37
13 377 115  38
81 377 80  38
116 378 117  38
377 371 80  38
377 13 371  38
115 378 116  38
378 115 377  38
14 379 83  38
117 378 379  38
379 82 83  38
379 14 117  38
386 381 382  39
386 382 387  39
388 382 83  39
83 82 388  39
381 386 385  39
381 384 380  39
382 388 387  39
84 380 383  39
383 380 384  39
384 381 385  39
477 15 14  40
477 390 391  40
84 476 380  40
389 476 84  40
477 381 380  40
477 83 382  40
477 380 476  40
85 476 389  40
477 382 381  40
476 85 390  40
390 477 476  40
15 477 391  40
83 477 14  40
78 479 365  41
78 480 479  41
78 22 146  41
479 480 122  41
22 78 394  41
22 394 77  41
480 78 146  41
121 480 147  41
120 148 119  41
16 479 122  41
119 478 118  41
390 478 85  41
121 147 120  41
391 118 478  41
148 120 147  41
393 21 86  41
118 391 15  41
149 392 85  41
85 478 149  41
392 149 21  41
478 119 148  41
148 149 478  41
479 16 364  41
364 365 479  41
146 147 480  41
480 121 122  41
392 21 393  41
391 478 390  41
21 395 145  42
145 87 20  42
395 21 86  42
87 145 395  42
192 397 88  43
87 143 396  43
88 144 19  43
144 88 396  43
144 396 143  43
143 87 20  43
193 397 192  43
88 19 192  43
37 193 36  43
397 193 37  43
482 282 486  44
55 496 277  44
241 45 232  44
244 513 485  44
506 220 221  44
505 503 37  44
513 244 243  44
58 486 281  44
233 241 232  44
223 506 222  44
277 496 276  44
482 486 496  44
285 507 499  44
500 499 507  44
319 401 63  44
495 249 49  44
60 501 500  44
491 55 267  44
491 504 483  44
486 57 272  44
486 278 57  44
55 491 488  44
274 496 486  44
274 486 273  44
486 272 273  44
486 58 278  44
52 512 264  44
51 512 254  44
284 59 282  44
264 512 263  44
261 512 260  44
254 512 52  44
283 251 512  44
262 512 261  44
263 512 262  44
512 54 259  44
251 283 50  44
54 250 481  44
259 260 512  44
249 495 481  44
266 489 267  44
248 291 49  44
481 250 249  44
285 499 286  44
504 484 502  44
484 504 489  44
499 483 286  44
286 483 287  44
400 285 61  44
247 293 292  44
294 246 245  44
291 248 292  44
291 290 49  44
248 247 292  44
251 54 512  44
245 48 295  44
245 295 294  44
296 492 297  44
295 48 296  44
246 294 293  44
293 247 246  44
250 54 251  44
485 296 48  44
397 505 37  44
503 239 211  44
226 493 490  44
494 88 398  44
62 301 399  44
503 505 487  44
490 227 226  44
513 511 43  44
511 234 235  44
511 233 234  44
224 498 223  44
511 241 233  44
237 241 46  44
39 498 214  44
239 503 498  44
45 241 237  44
513 227 490  44
42 506 503  44
222 506 221  44
506 42 220  44
40 498 224  44
214 498 40  44
227 513 43  44
493 487 497  44
493 226 225  44
490 485 513  44
487 509 497  44
494 509 505  44
487 225 42  44
88 494 397  44
211 239 38  44
481 502 484  44
265 484 266  44
47 511 242  44
496 274 275  44
287 504 288  44
501 60 488  44
265 481 484  44
289 504 502  44
492 485 490  44
485 48 244  44
284 482 60  44
512 51 283  44
498 503 506  44
509 299 497  44
511 513 243  44
488 496 55  44
489 266 484  44
504 287 483  44
492 490 493  44
492 296 485  44
491 501 488  44
491 267 489  44
298 497 299  44
297 510 298  44
493 225 487  44
497 298 510  44
398 508 494  44
508 398 399  44
495 49 290  44
290 289 495  44
275 276 496  44
496 488 482  44
299 509 300  44
510 297 492  44
498 39 240  44
236 43 511  44
401 507 400  44
60 500 319  44
401 319 500  44
500 501 499  44
501 491 483  44
483 499 501  44
502 481 495  44
495 289 502  44
503 211 37  44
239 498 240  44
504 289 288  44
504 491 489  44
505 397 494  44
509 494 508  44
506 223 498  44
511 243 242  44
507 285 400  44
507 401 500  44
508 399 301  44
301 300 508  44
508 300 509  44
509 487 505  44
492 493 510  44
493 497 510  44
482 488 60  44
511 235 236  44
503 487 42  44
511 47 241  44
282 482 284  44
486 282 281  44
54 481 265  44
536 82 530  45
395 530 87  45
530 531 87  45
388 536 387  45
393 395 86  45
384 537 383  45
545 344 345  45
538 521 514  45
545 70 547  45
75 525 313  45
545 353 344  45
74 545 354  45
533 316 315  45
342 353 72  45
526 523 544  45
393 530 395  45
82 536 388  45
398 528 399  45
88 517 398  45
523 532 69  45
302 528 519  45
375 546 374  45
304 538 305  45
385 537 384  45
394 79 366  45
537 393 392  45
537 85 389  45
354 547 355  45
537 389 84  45
394 376 79  45
394 366 78  45
374 546 373  45
373 546 372  45
376 394 375  45
546 375 394  45
515 531 521  45
77 546 394  45
546 77 363  45
81 543 377  45
520 543 518  45
306 540 520  45
521 538 515  45
362 546 363  45
543 81 548  45
517 531 519  45
81 372 546  45
76 360 308  45
514 540 538  45
76 518 361  45
62 399 302  45
307 518 76  45
359 309 360  45
309 359 310  45
308 360 309  45
308 307 76  45
377 524 378  45
525 356 522  45
531 530 521  45
75 312 357  45
312 75 313  45
358 311 310  45
310 359 358  45
522 542 525  45
357 312 311  45
311 358 357  45
334 526 333  45
529 401 400  45
320 534 64  45
318 400 61  45
535 534 320  45
539 534 541  45
69 527 335  45
85 537 392  45
545 345 346  45
356 355 522  45
72 353 348  45
343 353 342  45
73 348 353  45
66 526 324  45
324 526 67  45
544 333 526  45
332 544 331  45
526 66 352  45
534 523 64  45
534 539 532  45
67 526 334  45
527 539 533  45
337 547 70  45
69 532 527  45
544 69 330  45
336 527 516  45
65 321 351  45
63 535 320  45
344 353 343  45
522 355 547  45
379 521 82  45
379 378 514  45
304 303 515  45
396 531 517  45
337 336 516  45
314 533 315  45
302 519 303  45
517 88 396  45
361 548 362  45
307 520 518  45
515 303 519  45
528 302 399  45
548 546 362  45
520 307 306  45
547 516 522  45
521 379 514  45
516 547 337  45
356 525 75  45
523 321 64  45
69 544 523  45
524 540 514  45
514 378 524  45
314 542 533  45
314 313 525  45
547 354 545  45
333 544 332  45
539 527 532  45
527 336 335  45
528 398 517  45
517 519 528  45
529 400 318  45
318 317 529  45
545 346 347  45
347 70 545  45
531 515 519  45
531 396 87  45
523 534 532  45
541 535 529  45
542 314 525  45
516 527 533  45
351 526 352  45
535 541 534  45
535 63 401  45
401 529 535  45
536 385 386  45
386 387 536  45
537 84 383  45
537 385 536  45
540 524 520  45
538 304 515  45
316 541 317  45
316 533 539  45
540 306 305  45
305 538 540  45
541 529 317  45
541 316 539  45
542 522 516  45
516 533 542  45
543 520 524  45
524 377 543  45
545 74 353  45
544 330 331  45
546 548 81  45
521 530 82  45
530 537 536  45
351 523 526  45
523 351 321  45
530 393 537  45
518 543 548  45
548 361 518  45
Edges
445
1 89  1
89 90  1
90 91  1
91 92  1
92 93  1
93 2  1
2 94  2
94 3  2
3 95  3
95 96  3
96 97  3
97 4  3
4 1  4
5 98  5
98 99  5
99 100  5
100 101  5
101 102  5
102 6  5
6 103  6
103 7  6
7 104  7
104 105  7
105 106  7
106 8  7
8 5  8
9 107  9
107 108  9
108 109  9
109 110  9
110 10  9
10 111  10
111 11  10
11 112  11
112 113  11
113 114  11
114 12  11
12 9  12
13 115  13
115 116  13
116 117  13
117 14  13
14 15  14
15 118  15
118 119  15
119 120  15
120 121  15
121 122  15
122 16  15
16 123  16
123 13  16
17 124  17
124 125  17
125 126  17
126 127  17
127 128  17
128 129  17
129 130  17
130 131  17
131 132  17
132 133  17
133 134  17
134 135  17
135 136  17
136 137  17
137 138  17
138 139  17
139 140  17
140 18  17
17 141  18
141 142  18
142 19  18
20 143  19
143 144  19
144 19  19
21 145  20
145 20  20
22 146  21
146 147  21
147 148  21
148 149  21
149 21  21
23 150  22
150 151  22
151 22  22
24 152  23
152 153  23
153 154  23
154 155  23
155 156  23
156 23  23
25 157  24
157 158  24
158 24  24
26 159  25
159 160  25
160 161  25
161 162  25
162 163  25
163 25  25
27 164  26
164 26  26
28 165  27
165 166  27
166 27  27
28 167  28
167 168  28
168 18  28
29 169  29
169 170  29
170 28  29
30 171  30
171 29  30
31 172  31
172 173  31
173 174  31
174 175  31
175 176  31
176 30  31
32 177  32
177 178  32
178 31  32
33 179  33
179 180  33
180 181  33
181 182  33
182 183  33
183 32  33
34 184  34
184 185  34
185 33  34
35 186  35
186 187  35
187 188  35
188 189  35
189 190  35
190 34  35
36 191  36
191 35  36
19 192  37
192 193  37
193 36  37
18 194  38
194 195  38
195 196  38
196 197  38
197 198  38
198 199  38
199 200  38
200 201  38
201 202  38
202 203  38
203 204  38
204 205  38
205 206  38
206 207  38
207 208  38
208 209  38
209 210  38
210 17  38
37 36  39
37 211  40
211 38  40
35 38  41
39 212  42
212 213  42
213 2  42
40 214  43
214 39  43
40 215  44
215 216  44
216 217  44
217 218  44
218 41  44
3 219  45
219 41  45
41 42  46
42 220  47
220 221  47
221 222  47
222 223  47
223 224  47
224 40  47
42 225  48
225 226  48
226 227  48
227 43  48
43 44  49
44 4  50
45 228  51
228 229  51
229 230  51
230 231  51
231 44  51
45 232  52
232 233  52
233 234  52
234 235  52
235 236  52
236 43  52
46 237  53
237 45  53
46 238  54
238 1  54
38 239  55
239 240  55
240 39  55
46 241  56
241 47  56
47 34  57
47 242  58
242 243  58
243 244  58
244 48  58
33 48  59
48 245  60
245 246  60
246 247  60
247 248  60
248 49  60
49 32  61
49 249  62
249 250  62
250 251  62
251 50  62
31 50  63
51 252  64
252 253  64
253 6  64
52 254  65
254 51  65
52 255  66
255 256  66
256 257  66
257 53  66
7 258  67
258 53  67
53 54  68
54 259  69
259 260  69
260 261  69
261 262  69
262 263  69
263 264  69
264 52  69
54 265  70
265 266  70
266 267  70
267 55  70
55 56  71
56 8  72
57 268  73
268 269  73
269 270  73
270 271  73
271 56  73
57 272  74
272 273  74
273 274  74
274 275  74
275 276  74
276 277  74
277 55  74
58 278  75
278 57  75
58 279  76
279 280  76
280 5  76
58 281  77
281 282  77
282 59  77
59 30  78
50 283  79
283 51  79
59 284  80
284 60  80
29 60  81
61 285  82
285 286  82
286 287  82
287 288  82
288 289  82
289 290  82
290 291  82
291 292  82
292 293  82
293 294  82
294 295  82
295 296  82
296 297  82
297 298  82
298 299  82
299 300  82
300 301  82
301 62  82
62 302  83
302 303  83
303 304  83
304 305  83
305 306  83
306 307  83
307 308  83
308 309  83
309 310  83
310 311  83
311 312  83
312 313  83
313 314  83
314 315  83
315 316  83
316 317  83
317 318  83
318 61  83
60 319  84
319 63  84
63 320  85
320 64  85
64 27  86
64 321  87
321 65  87
26 65  88
66 322  89
322 323  89
323 10  89
67 324  90
324 66  90
67 325  91
325 326  91
326 327  91
327 328  91
328 68  91
11 329  92
329 68  92
68 69  93
69 330  94
330 331  94
331 332  94
332 333  94
333 334  94
334 67  94
69 335  95
335 336  95
336 337  95
337 70  95
70 71  96
71 12  97
72 338  98
338 339  98
339 340  98
340 341  98
341 71  98
72 342  99
342 343  99
343 344  99
344 345  99
345 346  99
346 347  99
347 70  99
73 348  100
348 72  100
9 349  101
349 350  101
350 73  101
65 351  102
351 352  102
352 66  102
73 353  103
353 74  103
74 25  104
74 354  105
354 355  105
355 356  105
356 75  105
24 75  106
75 357  107
357 358  107
358 359  107
359 360  107
360 76  107
76 23  108
76 361  109
361 362  109
362 363  109
363 77  109
22 77  110
16 364  111
364 365  111
365 78  111
79 366  112
366 78  112
79 367  113
367 368  113
368 369  113
369 370  113
370 80  113
13 371  114
371 80  114
80 81  115
81 372  116
372 373  116
373 374  116
374 375  116
375 376  116
376 79  116
81 377  117
377 378  117
378 379  117
379 82  117
82 83  118
83 14  119
84 380  120
380 381  120
381 382  120
382 83  120
84 383  121
383 384  121
384 385  121
385 386  121
386 387  121
387 388  121
388 82  121
85 389  122
389 84  122
85 390  123
390 391  123
391 15  123
85 392  124
392 393  124
393 86  124
86 21  125
77 394  126
394 78  126
86 395  127
395 87  127
20 87  128
87 396  129
396 88  129
88 397  130
397 37  130
88 398  131
398 399  131
399 62  131
61 400  132
400 401  132
401 63  132
End
