MeshVersionFormatted 1

Dimension
3

Vertices
630
-7.6199999999999992  0  -12.191999999999998  0
-7.6199999999999992  0  9.1439999999999984  0
7.6199999999999992  0  9.1439999999999984  0
7.6199999999999992  0  -12.191999999999998  0
4.7624999999999993  0  0  0
-4.7624999999999993  0  0  0
4.7624999999999993  1.27  0  0
-4.7624999999999993  1.27  0  0
-7.6199999999999992  1.27  -12.191999999999998  0
-7.6199999999999992  1.27  9.1439999999999984  0
7.6199999999999992  1.27  -12.191999999999998  0
7.6199999999999992  1.27  9.1439999999999984  0
-2.1431250046311821  0.92368773664445392  -16.256  0
-3.4289999999999998  3.6004499999999995  -16.256  0
0  7.0294499999999998  -26.923999999999999  0
0  7.0294499999999998  -16.256  0
0  0.17144999999999999  -26.923999999999999  0
0  0.17144999999999999  -16.256  0
3.4289999999999998  3.6004499999999995  -16.256  0
2.1431250046311821  0.92368773664445392  -16.256  0
0  5.88645  -26.923999999999999  0
0  1.3144499999999999  -26.923999999999999  0
0  1.3144499999999999  -16.256  0
0  5.88645  -16.256  0
-7.6199999999999992  0  -8.6359999999999992  0
-7.6199999999999992  0  -5.0799999999999992  0
-7.6199999999999992  0  -1.5239999999999991  0
-7.6199999999999992  0  2.032  0
-7.6199999999999992  0  5.5879999999999992  0
-5.7149999999999999  0  9.1439999999999984  0
-3.8099999999999996  0  9.1439999999999984  0
-1.9049999999999994  0  9.1439999999999984  0
0  0  9.1439999999999984  0
1.9049999999999994  0  9.1439999999999984  0
3.8100000000000005  0  9.1439999999999984  0
5.7149999999999999  0  9.1439999999999984  0
7.6199999999999992  0  6.0959999999999983  0
7.6199999999999992  0  3.0479999999999992  0
7.6199999999999992  0  0  0
7.6199999999999992  0  -3.048  0
7.6199999999999992  0  -6.0960000000000001  0
7.6199999999999992  0  -9.1439999999999984  0
-3.8099999999999996  0  -12.191999999999998  0
0  0  -12.191999999999998  0
3.8100000000000005  0  -12.191999999999998  0
4.6901469237206399  0  0.82699944613875553  0
4.4752861064928879  0  1.6288709325884969  0
4.1244459855233888  0  2.3812499999999992  0
3.6482866603541324  0  3.0612759911321428  0
3.0612759911321432  0  3.6482866603541324  0
2.3812500000000001  0  4.1244459855233879  0
1.6288709325884976  0  4.4752861064928879  0
0.82699944613875598  0  4.6901469237206399  0
2.9161901904696346e-16  0  4.7624999999999993  0
-0.82699944613875542  0  4.6901469237206399  0
-1.6288709325884969  0  4.4752861064928879  0
-2.3812499999999988  0  4.1244459855233888  0
-3.0612759911321432  0  3.6482866603541324  0
-3.6482866603541315  0  3.0612759911321437  0
-4.1244459855233888  0  2.3812499999999992  0
-4.4752861064928879  0  1.6288709325884978  0
-4.6901469237206399  0  0.82699944613875742  0
-4.6901469237206399  0  -0.82699944613875553  0
-4.4752861064928879  0  -1.6288709325884969  0
-4.1244459855233888  0  -2.3812499999999992  0
-3.6482866603541324  0  -3.0612759911321428  0
-3.0612759911321432  0  -3.6482866603541324  0
-2.3812500000000001  0  -4.1244459855233879  0
-1.6288709325884976  0  -4.4752861064928879  0
-0.82699944613875598  0  -4.6901469237206399  0
-2.9161901904696346e-16  0  -4.7624999999999993  0
0.82699944613875542  0  -4.6901469237206399  0
1.6288709325884969  0  -4.4752861064928879  0
2.3812499999999988  0  -4.1244459855233888  0
3.0612759911321432  0  -3.6482866603541324  0
3.6482866603541315  0  -3.0612759911321437  0
4.1244459855233888  0  -2.3812499999999992  0
4.4752861064928879  0  -1.6288709325884978  0
4.6901469237206399  0  -0.82699944613875742  0
4.6901469237206399  1.27  0.82699944613875553  0
4.4752861064928879  1.27  1.6288709325884969  0
4.1244459855233888  1.27  2.3812499999999992  0
3.6482866603541324  1.27  3.0612759911321428  0
3.0612759911321432  1.27  3.6482866603541324  0
2.3812500000000001  1.27  4.1244459855233879  0
1.6288709325884976  1.27  4.4752861064928879  0
0.82699944613875598  1.27  4.6901469237206399  0
2.9161901904696346e-16  1.27  4.7624999999999993  0
-0.82699944613875542  1.27  4.6901469237206399  0
-1.6288709325884969  1.27  4.4752861064928879  0
-2.3812499999999988  1.27  4.1244459855233888  0
-3.0612759911321432  1.27  3.6482866603541324  0
-3.6482866603541315  1.27  3.0612759911321437  0
-4.1244459855233888  1.27  2.3812499999999992  0
-4.4752861064928879  1.27  1.6288709325884978  0
-4.6901469237206399  1.27  0.82699944613875742  0
-4.6901469237206399  1.27  -0.82699944613875553  0
-4.4752861064928879  1.27  -1.6288709325884969  0
-4.1244459855233888  1.27  -2.3812499999999992  0
-3.6482866603541324  1.27  -3.0612759911321428  0
-3.0612759911321432  1.27  -3.6482866603541324  0
-2.3812500000000001  1.27  -4.1244459855233879  0
-1.6288709325884976  1.27  -4.4752861064928879  0
-0.82699944613875598  1.27  -4.6901469237206399  0
-2.9161901904696346e-16  1.27  -4.7624999999999993  0
0.82699944613875542  1.27  -4.6901469237206399  0
1.6288709325884969  1.27  -4.4752861064928879  0
2.3812499999999988  1.27  -4.1244459855233888  0
3.0612759911321432  1.27  -3.6482866603541324  0
3.6482866603541315  1.27  -3.0612759911321437  0
4.1244459855233888  1.27  -2.3812499999999992  0
4.4752861064928879  1.27  -1.6288709325884978  0
4.6901469237206399  1.27  -0.82699944613875742  0
-7.6199999999999992  1.27  -8.6359999999999992  0
-7.6199999999999992  1.27  -5.0799999999999992  0
-7.6199999999999992  1.27  -1.5239999999999991  0
-7.6199999999999992  1.27  2.032  0
-7.6199999999999992  1.27  5.5879999999999992  0
-5.0800000000000001  1.27  -12.191999999999998  0
-2.54  1.27  -12.191999999999998  0
0  1.27  -12.191999999999998  0
2.5399999999999991  1.27  -12.191999999999998  0
5.0799999999999983  1.27  -12.191999999999998  0
7.6199999999999992  1.27  5.5879999999999992  0
7.6199999999999992  1.27  2.0319999999999991  0
7.6199999999999992  1.27  -1.5240000000000009  0
7.6199999999999992  1.27  -5.0800000000000001  0
7.6199999999999992  1.27  -8.6359999999999992  0
-5.7149999999999999  1.27  9.1439999999999984  0
-3.8099999999999996  1.27  9.1439999999999984  0
-1.9049999999999994  1.27  9.1439999999999984  0
0  1.27  9.1439999999999984  0
1.9049999999999994  1.27  9.1439999999999984  0
3.8100000000000005  1.27  9.1439999999999984  0
5.7149999999999999  1.27  9.1439999999999984  0
-3.5123437529497807  0.69276580144944566  -15.239999999529349  0
-4.881562501966517  0.46184386763302643  -14.223999999686212  0
-6.2507812509832519  0.23092193381660731  -13.207999999843077  0
-4.2672000000005612  3.1343600000017795  -15.443199999999559  0
-5.1054000000004951  2.6682700000013684  -14.630399999999726  0
-5.943600000000429  2.2021800000009573  -13.817599999999894  0
-6.7818000000003629  1.7360900000005464  -13.004800000000062  0
-2.5857679537323039  1.3483742709333559  -16.256  0
-2.9456588246440645  1.8451337638771321  -16.256  0
-3.2112800651257492  2.3980684701493598  -16.256  0
-3.3741310246725895  2.9894828745816975  -16.256  0
0  7.0294499999999998  -24.256999999999998  0
0  7.0294499999999998  -21.59  0
0  7.0294499999999998  -18.923000000000002  0
-0.59543960121990402  6.9773557850788608  -26.923999999999999  0
-1.1727870714637179  6.8226559966748788  -26.923999999999999  0
-1.7144999999999997  6.5700511095768395  -26.923999999999999  0
-2.2041187136151428  6.2272163954549749  -26.923999999999999  0
-2.6267663954549754  5.8045687136151427  -26.923999999999999  0
-2.96960110957684  5.3149499999999996  -26.923999999999999  0
-3.2222059966748793  4.7732370714637176  -26.923999999999999  0
-3.3769057850788613  4.1958896012199034  -26.923999999999999  0
-3.4289999999999998  3.6004499999999995  -26.923999999999999  0
-3.3769057850788613  3.0050103987800956  -26.923999999999999  0
-3.2222059966748797  2.4276629285362814  -26.923999999999999  0
-2.96960110957684  1.8859500000000002  -26.923999999999999  0
-2.6267663954549754  1.3963312863848563  -26.923999999999999  0
-2.2041187136151437  0.97368360454502456  -26.923999999999999  0
-1.7144999999999997  0.6308488904231595  -26.923999999999999  0
-1.1727870714637185  0.3782440033251202  -26.923999999999999  0
-0.59543960121990536  0.22354421492113818  -26.923999999999999  0
0  0.17144999999999999  -24.256999999999998  0
0  0.17144999999999999  -21.59  0
0  0.17144999999999999  -18.923000000000002  0
-0.5760125162269637  0.22017625647716432  -16.256  0
-1.1356547008122055  0.36497022096828102  -16.256  0
-1.6630214685288132  0.6017168349430837  -16.256  0
-0.48799758043909475  6.9945477242097169  -16.256  0
-0.96606093740926224  6.8905514065241107  -16.256  0
-1.4244580795834683  6.7195781120706428  -16.256  0
-1.853857363055244  6.4851083640781191  -16.256  0
-2.2455174566983827  6.1919152904607504  -16.256  0
-2.5914652904607514  5.8459674566983821  -16.256  0
-2.88465836407812  5.4543073630552437  -16.256  0
-3.1191281120706433  5.0249080795834677  -16.256  0
-3.2901014065241112  4.5665109374092623  -16.256  0
-3.3940977242097179  4.0884475804390945  -16.256  0
0.48799758043909475  6.9945477242097169  -16.256  0
0.96606093740926224  6.8905514065241107  -16.256  0
1.4244580795834683  6.7195781120706428  -16.256  0
1.853857363055244  6.4851083640781191  -16.256  0
2.2455174566983827  6.1919152904607504  -16.256  0
2.5914652904607514  5.8459674566983821  -16.256  0
2.88465836407812  5.4543073630552437  -16.256  0
3.1191281120706433  5.0249080795834677  -16.256  0
3.2901014065241112  4.5665109374092623  -16.256  0
3.3940977242097179  4.0884475804390945  -16.256  0
-3.3082018250270631  4.0686574532447333  -16.256  0
-3.1238007280630748  4.5156548288402805  -16.256  0
-2.8793419730335015  4.9328482317605813  -16.256  0
-2.5795254821160971  5.3122167730562486  -16.256  0
-2.2301154758426565  5.6464667780926332  -16.256  0
-1.8378296511817944  5.9291720134898149  -16.256  0
-1.4102100282469596  6.1548972367855264  -16.256  0
-0.95547794870877767  6.3193026934763239  -16.256  0
-0.48237601368741984  6.4192275523947915  -16.256  0
-2.5922865609964531e-14  6.4527506753085007  -16.256  0
0.48237601368736954  6.4192275523947986  -16.256  0
0.9554779487087286  6.3193026934763372  -16.256  0
1.410210028246913  6.1548972367855477  -16.256  0
1.8378296511817513  5.9291720134898416  -16.256  0
2.2301154758426174  5.6464667780926661  -16.256  0
2.5795254821160629  5.3122167730562859  -16.256  0
2.8793419730334735  4.932848231760623  -16.256  0
3.1238007280630522  4.5156548288403267  -16.256  0
3.3082018250270466  4.0686574532447821  -16.256  0
3.3741310246738752  2.9894828745888007  -16.256  0
3.2112800651276561  2.3980684701544535  -16.256  0
2.9456588246459376  1.8451337638802761  -16.256  0
2.5857679537335381  1.3483742709347735  -16.256  0
1.6630214685287479  0.60171683494304729  -16.256  0
1.1356547008121585  0.36497022096826459  -16.256  0
0.57601251622693916  0.22017625647716033  -16.256  0
0.59543960121990402  6.9773557850788608  -26.923999999999999  0
1.1727870714637179  6.8226559966748788  -26.923999999999999  0
1.7144999999999997  6.5700511095768395  -26.923999999999999  0
2.2041187136151428  6.2272163954549749  -26.923999999999999  0
2.6267663954549754  5.8045687136151427  -26.923999999999999  0
2.96960110957684  5.3149499999999996  -26.923999999999999  0
3.2222059966748793  4.7732370714637176  -26.923999999999999  0
3.3769057850788613  4.1958896012199034  -26.923999999999999  0
3.4289999999999998  3.6004499999999995  -26.923999999999999  0
3.3769057850788613  3.0050103987800956  -26.923999999999999  0
3.2222059966748797  2.4276629285362814  -26.923999999999999  0
2.96960110957684  1.8859500000000002  -26.923999999999999  0
2.6267663954549754  1.3963312863848563  -26.923999999999999  0
2.2041187136151437  0.97368360454502456  -26.923999999999999  0
1.7144999999999997  0.6308488904231595  -26.923999999999999  0
1.1727870714637185  0.3782440033251202  -26.923999999999999  0
0.59543960121990536  0.22354421492113818  -26.923999999999999  0
-0.39695973414660263  5.8517205233859064  -26.923999999999999  0
-0.78185804764247846  5.7485873311165854  -26.923999999999999  0
-1.1429999999999993  5.5801840730512264  -26.923999999999999  0
-1.4694124757434284  5.3516275969699834  -26.923999999999999  0
-1.7511775969699834  5.0698624757434283  -26.923999999999999  0
-1.9797340730512261  4.7434500000000002  -26.923999999999999  0
-2.1481373311165859  4.3823080476424785  -26.923999999999999  0
-2.2512705233859069  3.9974097341466028  -26.923999999999999  0
-2.2859999999999996  3.6004499999999999  -26.923999999999999  0
-2.2512705233859074  3.2034902658533975  -26.923999999999999  0
-2.1481373311165863  2.8185919523575218  -26.923999999999999  0
-1.9797340730512274  2.457450000000001  -26.923999999999999  0
-1.7511775969699841  2.1310375242565716  -26.923999999999999  0
-1.4694124757434297  1.8492724030300172  -26.923999999999999  0
-1.1430000000000005  1.6207159269487734  -26.923999999999999  0
-0.7818580476424799  1.4523126688834136  -26.923999999999999  0
-0.39695973414660451  1.3491794766140925  -26.923999999999999  0
0.39695973414660263  5.8517205233859064  -26.923999999999999  0
0.78185804764247846  5.7485873311165854  -26.923999999999999  0
1.1429999999999993  5.5801840730512264  -26.923999999999999  0
1.4694124757434284  5.3516275969699834  -26.923999999999999  0
1.7511775969699834  5.0698624757434283  -26.923999999999999  0
1.9797340730512261  4.7434500000000002  -26.923999999999999  0
2.1481373311165859  4.3823080476424785  -26.923999999999999  0
2.2512705233859069  3.9974097341466028  -26.923999999999999  0
2.2859999999999996  3.6004499999999999  -26.923999999999999  0
2.2512705233859074  3.2034902658533975  -26.923999999999999  0
2.1481373311165863  2.8185919523575218  -26.923999999999999  0
1.9797340730512274  2.457450000000001  -26.923999999999999  0
1.7511775969699841  2.1310375242565716  -26.923999999999999  0
1.4694124757434297  1.8492724030300172  -26.923999999999999  0
1.1430000000000005  1.6207159269487734  -26.923999999999999  0
0.7818580476424799  1.4523126688834136  -26.923999999999999  0
0.39695973414660451  1.3491794766140925  -26.923999999999999  0
-0.39695973414660263  1.3491794766140925  -16.256  0
-0.78185804764247846  1.4523126688834131  -16.256  0
-1.1429999999999993  1.620715926948773  -16.256  0
-1.4694124757434284  1.8492724030300158  -16.256  0
-1.7511775969699834  2.1310375242565707  -16.256  0
-1.9797340730512261  2.4574499999999988  -16.256  0
-2.1481373311165859  2.81859195235752  -16.256  0
-2.2512705233859069  3.2034902658533961  -16.256  0
-2.2859999999999996  3.600449999999999  -16.256  0
-2.2512705233859074  3.9974097341466015  -16.256  0
-2.1481373311165863  4.3823080476424767  -16.256  0
-1.9797340730512274  4.7434499999999975  -16.256  0
-1.7511775969699841  5.0698624757434274  -16.256  0
-1.4694124757434297  5.3516275969699816  -16.256  0
-1.1430000000000005  5.5801840730512255  -16.256  0
-0.7818580476424799  5.7485873311165854  -16.256  0
-0.39695973414660451  5.8517205233859064  -16.256  0
0  5.88645  -18.923000000000002  0
0  5.88645  -21.59  0
0  5.88645  -24.256999999999998  0
0  1.3144499999999999  -18.923000000000002  0
0  1.3144499999999999  -21.59  0
0  1.3144499999999999  -24.256999999999998  0
0.39695973414660263  5.8517205233859064  -16.256  0
0.78185804764247846  5.7485873311165854  -16.256  0
1.1429999999999993  5.5801840730512264  -16.256  0
1.4694124757434284  5.3516275969699834  -16.256  0
1.7511775969699834  5.0698624757434283  -16.256  0
1.9797340730512261  4.7434500000000002  -16.256  0
2.1481373311165859  4.3823080476424785  -16.256  0
2.2512705233859069  3.9974097341466028  -16.256  0
2.2859999999999996  3.6004499999999999  -16.256  0
2.2512705233859074  3.2034902658533975  -16.256  0
2.1481373311165863  2.8185919523575218  -16.256  0
1.9797340730512274  2.457450000000001  -16.256  0
1.7511775969699841  2.1310375242565716  -16.256  0
1.4694124757434297  1.8492724030300172  -16.256  0
1.1430000000000005  1.6207159269487734  -16.256  0
0.7818580476424799  1.4523126688834136  -16.256  0
0.39695973414660451  1.3491794766140925  -16.256  0
3.2385000031464335  0.73895018821272951  -15.443199999497976  0
4.3338750023598225  0.55421264115959412  -14.630399999623467  0
5.4292500015732106  0.36947509410645879  -13.817599999748959  0
6.5246250007865996  0.18473754705332346  -13.00479999987445  0
4.4767500000005453  3.0178375000016766  -15.239999999999601  0
5.5245000000004625  2.4352250000011626  -14.22399999999981  0
6.5722500000003796  1.852612500000649  -13.208000000000018  0
4.0596129152393692  0  -7.335956208009244  0
-4.9785131575918378  0  7.0394067603448569  0
0.10347141215643876  0  -8.8485423416118358  0
-1.5800261631785555  0  5.5460930202947045  0
-4.9090935396734334  0  3.8291770687783848  0
2.990755627733459  0  5.0098640243500094  0
-5.7513012250569222  0  0.013681689199497653  0
-3.3927610226935778  0  -7.9865793859012761  0
4.5128678961795741  0  4.2855116040632355  0
4.4299179019771247  0  6.7435554811873857  0
5.9719808635759675  0  -0.81458093965277756  0
-1.4052949499934535  0  -6.7732964893916385  0
1.5861868512504911  0  -6.061202095724382  0
-5.2604199063874058  0  1.7807450902097501  0
-1.0863843905616941  0  -5.3930746000238496  0
-5.6026316655238944  0  -2.1806371607948334  0
-4.9697242979682112  0  -5.9129301623162025  0
5.8356778830500513  0  1.1068646165037546  0
0.0020265130232503281  0  -6.0849142163635994  0
-2.9643975865103669  0  5.1364833292312362  0
-3.6059688143114648  0  -4.3600206594507203  0
-2.6401758332329064  0  -5.5754955135045119  0
-2.2146204631729747  0  7.3218193554209892  0
4.7874210700262978  0  -4.0797498531999183  0
-4.9300447538897307  0  -3.8314709563100164  0
5.2805416166294119  0  -2.1302992879271372  0
5.6993565879440267  0  3.0874899785902596  0
-0.26763619971312436  0  6.1327046435664734  0
1.9170059372979142  0  6.8066111711155006  0
2.9139491369740718  0  -4.9514983881722419  0
4.397581214291467  1.27  3.0454638462513572  0
2.3924075412323673  1.27  5.2437172120368061  0
0.3248525008434418  1.27  6.309780564582983  0
4.3502332863041584  1.27  6.8332925423293389  0
-4.5545104292026952  1.27  -4.5711201744191179  0
-1.1833992727828324  1.27  -8.3539311955760898  0
-4.4584030016332878  1.27  4.1919457634573103  0
-1.9472019794954516  1.27  7.2882981754043019  0
-2.7149179636379408  1.27  5.1265402492239396  0
5.7618032331350788  1.27  0.10465712471198377  0
1.381035380330734  1.27  -5.8679731822046319  0
4.5023982769294033  1.27  -8.0381072277048986  0
-5.3991469427586738  1.27  -2.6798712799568309  0
-5.4845849584072166  1.27  1.1306179644791996  0
-3.3083616703435235  1.27  -5.2075508326525703  0
0.26209497066203846  1.27  -6.2937498836427999  0
-5.6339115438490808  1.27  2.8223110312351216  0
-5.7228763984012421  1.27  -0.50357506395486629  0
-4.2706813115563325  1.27  -7.7691549709898746  0
-4.3805483610525666  1.27  6.7429546643596208  0
-0.93972418377729561  1.27  -5.750666897901751  0
-2.2823763807469555  1.27  -5.9440941326810028  0
2.7019820533110477  1.27  -5.5396459541897398  0
5.5409713709868775  1.27  -2.2317009815320223  0
4.4616054412017965  1.27  -4.2825771412309654  0
-1.1333840420028043  1.27  5.437975106453826  0
1.4622304781492002  1.27  -8.3518686585644524  0
4.4115543039265424  1.27  4.2690634670469203  0
2.1322966342757526  1.27  7.6331576395476439  0
5.3907406128026452  1.27  2.4816490531272595  0
-6.5373757972829489  0.99669944876533312  -13.163542212920818  0
-5.5119035189490093  1.1531818780351917  -14.034987203825047  0
-4.3870410718561619  1.5879250678829426  -15.054917035310066  0
-3.1957296963341499  2.3573278386787395  -18.948314207559633  0
-3.1956306617871126  2.35707327774481  -24.157258348048991  0
-3.1796918286202245  4.8840390600210686  -24.14123238600677  0
-2.4061905540769568  6.0434579855519965  -17.742259882699571  0
-3.428956698096111  3.6176826022936917  -25.096536072678276  0
-2.4169444874460755  6.032819286231847  -25.33590339998527  0
-1.2466272188151932  6.7948140333107139  -24.024853066965555  0
-3.1379508159002931  4.9829497927633417  -18.927736448001646  0
-2.3976365384562373  1.1490463144639778  -17.805646445192291  0
-3.4256204504259835  3.7526522654998291  -17.772691813235344  0
-3.428466184388852  3.6609530784518118  -21.507607744571494  0
-1.248003680045018  6.7942765160453042  -18.754808142320019  0
-1.2333038378631063  0.40091837122804241  -19.092694329281194  0
-2.4246063500716462  1.1757180463209438  -25.358324080373301  0
-2.4196796608288014  1.1708016017803278  -21.573944804363034  0
-1.2494854494798604  0.40720288905820601  -24.080544596158092  0
-2.3983936154076533  6.0511129849026162  -21.488103110323479  0
1.3200599828499211  0.43572526604946793  -23.295246684428044  0
2.4420329860030701  1.1932699287812034  -18.923881726737775  0
3.207053683641429  4.8140593565237282  -23.140481075148447  0
3.428587458480695  3.5472612836318889  -21.563506848533216  0
3.1390933363442923  4.9803536291418533  -19.77853146330072  0
3.1861230768633662  2.3329087820986976  -19.773067969427608  0
1.3181319142969163  6.7659782744767805  -21.615275933468958  0
3.4289987195507319  3.5974866708854041  -24.274591553019164  0
2.4722047938384231  5.97663274914248  -21.746825377569099  0
1.330008802722354  0.43989346915277361  -19.861509866544075  0
3.4272034346204112  3.7114347634860492  -18.955194360562615  0
1.4512324939001804  6.7072112152607186  -24.1408398547625  0
2.5880234039952303  5.8499334652366173  -24.308524241452993  0
2.4198195270102913  1.1709409021162953  -24.248629683166961  0
3.1688693748337702  2.2903706568911062  -23.340042248050267  0
2.4601344769317279  1.2117726765819006  -21.57303407535715  0
1.2381656667739667  6.7981033241773057  -19.051395688430862  0
2.3551320465826913  6.092716848304816  -19.088823224699091  0
-2.1219556259526291  1.8003483618596152  -26.923999999999999  0
2.2884881316016714  1.9987379629852067  -26.923999999999999  0
-1.3906066606487739  1.1959162120616269  -26.923999999999999  0
2.627896571871283  2.6726899086421523  -26.923999999999999  0
2.676264729751304  4.427112225217158  -26.923999999999999  0
-2.2969397367915687  5.2087845185148831  -26.923999999999999  0
-1.2786008485511229  6.0920822996106665  -26.923999999999999  0
-2.7933754222808824  3.8448386824215177  -26.923999999999999  0
0.48264521010781203  6.3347663034221187  -26.923999999999999  0
-2.5810518394728836  2.5136752263987745  -26.923999999999999  0
1.3783407371314442  6.0175646845762136  -26.923999999999999  0
0.97780549526504035  0.99022796673435887  -26.923999999999999  0
1.7723316880325475  1.4489854814010377  -26.923999999999999  0
2.0546478099656871  5.5042431737806945  -26.923999999999999  0
-0.51246593904829307  0.86263564028104955  -26.923999999999999  0
-0.46735314705646147  6.3431023378641642  -26.923999999999999  0
0.24307930208827816  0.81817409073292391  -26.923999999999999  0
2.7847333606501734  3.5871255715374564  -26.923999999999999  0
-2.110084598318001  4.4798469456059973  -21.691442497461921  0
-1.5912380825078962  5.2417169998438977  -24.224563604837769  0
-0.72216414911797999  5.7693840565652756  -19.089968068705257  0
-2.253420252073278  3.9850188072972133  -18.203384979146065  0
-1.9368768642899463  4.8146592128535106  -18.104356257214963  0
-2.0189892036551327  2.5283126041761195  -20.157652712266113  0
-1.0480965110968623  1.5688767910246049  -25.200453560917783  0
-1.9162007204257303  2.3538663489601221  -17.444575384363198  0
-1.6156558272979171  1.9832140098865343  -22.456374059308047  0
-1.367995629945898  5.4319477358568919  -17.535717311572458  0
-1.8001964662965784  2.1915182476665835  -25.345530202221273  0
-1.4986112812267045  5.3267061304105638  -20.530824302234578  0
-1.4365662774358854  1.8222280423878456  -19.001357705203013  0
-2.1231219672202601  2.7530132104358631  -23.184694818166065  0
-2.1880195931972364  2.9383576652120196  -25.80561500494359  0
-2.2846574229987517  3.6787855572948867  -24.413211722108294  0
-0.82612389118463048  5.7319554108338462  -22.537357699357898  0
-2.0826028590321406  4.5430853120646129  -25.432272647765025  0
-0.91572897028877287  5.6950230956387884  -25.530780708000954  0
-2.2785565813841417  3.4161244580070047  -20.930001379202103  0
-0.67559411231451294  1.4165615881515454  -18.590183825155826  0
-0.83398152101824896  1.472006713792898  -21.849155504584772  0
-2.2336914889305644  3.1142213168897204  -17.929120307050283  0
0.0015339085995296597  1.6750101930875034  -16.256  0
-1.0891681688486428  2.2433299514966141  -16.256  0
0.53882775742673017  5.381331545967809  -16.256  0
0.68580224080277341  1.8492413280231674  -16.256  0
-0.38648156109132048  5.2467127088208283  -16.256  0
1.0540071781728639  3.5383082007352935  -16.256  0
-1.8712092837398586  3.3793562028124966  -16.256  0
-0.57816311398260978  4.2126351647784537  -16.256  0
1.2982555861230414  4.9478743357394075  -16.256  0
0.53891722052502389  4.4036416332225636  -16.256  0
-0.58371269980320839  1.7898194092926001  -16.256  0
0.17839183311569914  3.3934765922212682  -16.256  0
-0.95199732744222398  3.207354728994448  -16.256  0
1.1011499324490586  2.6009833337839545  -16.256  0
1.7839609674130519  3.1891602614343708  -16.256  0
-1.2694789046294548  4.9038217215014095  -16.256  0
-0.093899410427936369  2.3947238515976212  -16.256  0
-1.6318452834232053  2.7064604291384455  -16.256  0
-1.5785160970691556  4.1185122010248145  -16.256  0
1.6674896412036142  4.100908956126788  -16.256  0
0.84277626864027344  1.4754737269520448  -20.547415740506878  0
2.1327932914916796  4.4232432764480301  -25.252716033916471  0
2.1926690090241219  2.9539218746526381  -22.359135602185759  0
1.765330898822425  5.0528283314490769  -17.71686470701443  0
1.5795019347243429  5.2530145640040979  -25.510364361477052  0
1.005293778740767  5.6535404554902362  -17.7673827270511  0
0.80396116107672277  1.4604868107184252  -17.763472666239409  0
2.0744640237833623  4.5608639805461699  -19.9019753525229  0
1.51106910985448  1.8850881882402799  -25.435659469111364  0
0.83802946083266949  5.7273027506098071  -25.568385893506864  0
1.8469382359615238  4.947526520671091  -22.694656819947465  0
2.1830868024378978  4.2786299267314476  -17.376427850361328  0
2.02798499247996  2.5454273129093123  -19.892106710981842  0
1.4658453639571851  5.3546145786428436  -20.203885237342998  0
1.5270642734976321  1.8993119384050132  -18.3422745508337  0
2.2818008967248815  3.4619557123722258  -18.991791797505197  0
2.2537942318241684  3.9828209724810519  -22.427513307831784  0
2.061948316007475  2.6134519543515111  -17.464364420667174  0
0.977789714834707  5.6667808722379043  -22.870822782245792  0
0.82464066034394989  1.4683703154414012  -24.363087947326669  0
0.7163071664110181  5.7713254094485045  -20.271064386580228  0
1.9986916298519357  2.4909330921703754  -25.176233952017753  0
2.2794320361024525  3.4272865142709747  -25.364015707048676  0
1.6487782280214405  2.0169960679885639  -22.302370159377762  0
-2.2419131347495891  0.24637318691521848  -14.710502661308414  0
3.5440317139421604  0.21921439511277313  -13.909067408266484  0
-3.1060331819874745  0.10235820536560769  -13.277551786069829  0
-0.358000541458108  0.13913412856384469  -14.923514486177055  0
0.91083604691617126  0.10161836022291401  -14.039817444083903  0
4.8624389820957701  0.12026766871610745  -13.005512288358283  0
2.2157812779517481  0.17000940215342533  -14.198969953687071  0
-1.1485958990332676  0.070466459284290267  -13.447842082773771  0
5.8084139439812965  1.3499392262463497  -13.842848355049277  0
6.9167933109179769  0.9809621170346573  -12.835179860768378  0
4.5345075195026938  1.7491697158082802  -14.98919888986722  0
-1.6567373404727979  2.7570684473379834  -13.52168420805241  0
-2.455678565351886  2.4304098338201383  -13.267611397924307  0
-0.71389258666625355  1.6856697231477005  -12.553737622978709  0
-0.012049391348592262  2.2101143538857522  -13.006262611784438  0
-3.6729372808932554  1.544842926214945  -12.463706681665791  0
5.0672589492005704  1.8423022914553451  -12.863330214061902  0
0.51503984020522631  1.6649446761249775  -12.534915754225024  0
1.6960045225925671  2.4335501023161061  -13.231847493151523  0
-2.5535660455609901  1.8184575038998452  -12.69880453223894  0
2.5775788003949152  2.4192472729667935  -13.264987834848599  0
3.3439981279851105  2.1410293317436766  -13.046121653113456  0
1.3608749411178411  1.5956242233057685  -12.478902702452046  0
-3.707933370936356  2.4296826364565942  -13.382904647476572  0
4.3655199451996172  1.5448954123676828  -12.480982033102697  0
3.9575345361685867  2.5184472466700649  -13.520253444952271  0
3.5327291255191029  1.6101160526512925  -12.525269577639284  0
-1.7422335320813003  2.1664473041520411  -12.993219223194894  0
-1.5532513799097083  1.5988160078950262  -12.483244445978432  0
-6.4744226167585435  1.4750664340665769  -12.483990779202772  0
-0.89778611582828016  2.384748133671776  -13.165779491919714  0
0.95826223103345953  2.2023096905064174  -13.007126505824406  0
-0.91016161474177415  3.0523786205124153  -13.751210101367024  0
2.2293177209849993  2.9575761422935516  -13.747370083754795  0
-4.5073898876524296  1.5677586384380902  -12.510032096662691  0
6.4672720080650699  1.511299033826593  -12.538360778784101  0
-3.2112161815241107  2.0780607218710623  -12.974646929147051  0
-3.0236806831348511  2.7057245365547375  -13.586270607567956  0
1.4050186693934112  3.1006179792463096  -13.81662585749474  0
0.70435375205349637  2.7511713192516338  -13.482089464802248  0
-0.13094648728118802  2.8531572007052599  -13.563489202903316  0
4.2270366771326549  2.0467479858378637  -13.019859589940722  0
0.59674598341004592  3.3378309143343254  -13.991080386971953  0
2.3128929264193392  1.8692370328867927  -12.739378234629839  0
-0.20141855016094753  3.4565639804042836  -14.086837362065788  0
-5.963993204238287  1.8219986642186077  -12.959819062592784  0
-5.7174858864505387  1.4894623027907883  -12.464593754609279  0
-3.9973859914003023  1.9692052541838037  -12.915445869569053  0
3.13884294705678  2.7504409846380082  -13.646748478905044  0
-0.98666713899041092  3.6370783172781538  -14.269471532649796  0
0.42409554419276929  3.879295835821277  -14.457711434216447  0
-2.332443447803175  3.0216273402919995  -13.818458844473223  0
-1.6427612399438316  3.3341838464153737  -14.044299473429311  0
1.9928779208714162  3.5276060759024315  -14.259811566831502  0
1.2229629272760438  3.7402722775219557  -14.376951656674526  0
-5.1887967435312881  1.8568179739505064  -12.895048237381422  0
5.5424641392729104  2.1813017796504881  -13.455919597010785  0
3.6314901655346921  3.0173808052175115  -14.035386461546219  0
0.7352848174197989  4.3468051571868012  -14.879635624254332  0
1.2835717733649981  4.2975262928345952  -14.884408055055411  0
-1.6906695717811815  3.8690419079695046  -14.541195139313478  0
-3.5977348292441809  2.8958550591703736  -13.884638705010458  0
-1.1193287796110307  4.1590129791918384  -14.742816907254364  0
2.784319732610617  3.2821419292804692  -14.139488701511599  0
-0.38499899452873321  3.9827250973984807  -14.546578828704412  0
-2.2860478856522986  3.5651111649274672  -14.337738705821367  0
1.8477953037577555  4.0853235594805239  -14.767473505783352  0
4.7917171381847314  2.3076870311538498  -13.425579737976735  0
-4.5413125123421487  2.1200791544674717  -13.140947949023477  0
5.7185454998731151  1.4959609267850347  -12.472966899354857  0
-5.0018715347407756  2.3211506756559168  -13.500866941252667  0
5.8973574194313541  1.83784797205093  -12.972493519256947  0
1.1005209031980705  4.8787009037557212  -15.387506484761472  0
-1.714555835598589  4.3716708436497527  -15.016424131115793  0
-1.2259469839612367  4.6547337109613087  -15.201466710814838  0
4.4754108584769412  2.7543410921421212  -13.969193402067404  0
0.06954709097525423  4.3769032025305368  -14.883185342378667  0
2.169229082373298  4.4574670162386552  -15.207648992289478  0
-2.9337474590860828  3.2502730751272204  -14.134685601188181  0
-0.6087968771422555  4.47401719336208  -14.98368857352763  0
-2.2633323664812757  4.0814236903771528  -14.847429367287114  0
1.6313332933423101  4.7020057293334192  -15.314485995872158  0
3.1608031688042737  3.5712685685442263  -14.550563904462056  0
2.495249817733693  3.8552794456691437  -14.67131425279703  0
4.5619523327636289  3.0632525775998602  -14.903259033047368  0
-4.2788982227651919  2.5646873076367567  -13.642488883143544  0
-4.9909227564703071  2.6158751672501781  -14.011984857084929  0
0.47982817172738473  4.809438706444257  -15.269849199496834  0
1.1747347013039187  5.4222897266833199  -15.896018728441209  0
3.8868758132410406  3.2590259764244971  -14.44979339844863  0
-3.543358060036804  3.2872071127805711  -14.338357091634503  0
4.3252812988958311  3.1794169882549519  -14.662534968494763  0
-0.7404159720974679  4.924830611196664  -15.388941342483891  0
2.7840561881077033  4.1667209085575001  -15.111725780969042  0
2.1276268326073211  4.9762801863899044  -15.746272377454781  0
1.6186891236112988  5.2249795401432326  -15.817563134206257  0
-0.15102061934197716  4.8412165693449634  -15.286359169303109  0
-4.2592243036440438  2.9038537669063684  -14.100964436875225  0
3.7997372523185859  3.6748423312412215  -15.663898872832636  0
-4.3240908004136793  3.2391995898543842  -15.156257613666357  0
5.2541030730527893  2.5027903580848854  -13.967213471293309  0
-5.7576501033341652  2.1306333917372586  -13.450752688670022  0
-2.8177523150080432  3.7494119778409325  -14.644684413847836  0
-1.2548605333448579  5.1188802786775778  -15.631188977513647  0
0.70580316729550585  5.2452180213360391  -15.668577855236594  0
0.17093035072889182  5.2436083981870381  -15.635576846680269  0
-0.34064904215348507  5.2825413595781452  -15.675172214786302  0
-1.7093586770055165  4.8822653120072168  -15.506537207279239  0
3.4491839528598045  3.8074799338791059  -15.013640579053662  0
-2.6972626606925378  4.2789210103891051  -15.206469855151205  0
-4.0593891973086977  3.2828096387009484  -14.60334581319993  0
3.6647717019926183  3.8550656536759904  -15.468071751843965  0
-3.3196430276413778  3.7051657731838792  -14.784007420891559  0
-2.156542969730352  4.5713855008599813  -15.322287896993922  0
2.6546694199724521  4.6628194631572448  -15.669113814544712  0
-0.1740782013066777  5.6764768331165936  -16.01103609037218  0
-0.81236822342982318  5.3318129109016947  -15.756904591599483  0
0.28015391645136678  5.6578699649827096  -15.998784297442011  0
-3.3028649982604508  3.9942642625784037  -15.195350066294218  0
-3.9642897485054029  3.5303600736543888  -15.058402682783901  0
-3.7268694780636338  3.7288761625190667  -15.755461742212859  0
-2.6237259511749533  4.7229847470090274  -15.728392359415047  0
-4.8564932030814951  2.8325196404040436  -14.468774017844298  0
0.73518050395608936  5.6536517554717882  -16.033611381100055  0
-0.62958167321323777  5.6871298103386643  -16.050880706220532  0
-1.13972385571057  5.5645870751296176  -16.020310344451602  0
-1.6267844604119475  5.3523926784314213  -15.946287394682944  0
3.1813585642100959  4.2802684139199965  -15.582211856883058  0
-2.1272175909898601  5.0364611189831736  -15.813160943215623  0
-3.1220195989207253  4.3687798573355989  -15.679987298703891  0
-3.5471018033351958  3.9831964936443076  -15.634885929313437  0
Triangles
1260
53 344 54  1
322 52 51  1
25 333 26  1
335 72 71  1
72 335 329  1
337 333 338  1
331 71 70  1
66 337 67  1
332 323 27  1
66 341 337  1
64 332 65  1
63 332 64  1
323 63 6  1
323 332 63  1
28 321 29  1
330 62 61  1
62 323 6  1
330 323 62  1
336 321 58  1
336 56 320  1
339 33 32  1
2 318 30  1
30 318 31  1
26 341 332  1
343 334 38  1
56 336 57  1
58 321 59  1
321 336 318  1
321 318 29  1
43 25 1  1
50 325 322  1
55 344 320  1
33 345 34  1
37 326 325  1
345 33 344  1
53 345 344  1
35 345 326  1
345 53 52  1
343 37 325  1
37 3 36  1
343 47 334  1
319 335 328  1
334 327 39  1
327 5 79  1
5 334 46  1
334 5 327  1
47 343 48  1
48 325 49  1
79 342 327  1
43 324 25  1
40 340 41  1
342 340 40  1
340 342 77  1
340 77 76  1
73 346 74  1
75 346 340  1
41 317 42  1
75 340 76  1
45 319 44  1
335 71 331  1
4 42 45  1
45 42 317  1
346 73 329  1
31 339 32  1
318 2 29  1
319 43 44  1
319 45 317  1
56 55 320  1
339 344 33  1
60 330 61  1
60 59 321  1
51 50 322  1
35 326 36  1
323 330 28  1
28 27 323  1
324 43 319  1
69 338 331  1
326 37 36  1
325 50 49  1
326 345 322  1
322 325 326  1
327 342 40  1
40 39 327  1
324 338 333  1
324 319 328  1
319 317 329  1
329 73 72  1
330 60 321  1
321 28 330  1
70 69 331  1
331 338 328  1
27 26 332  1
65 341 66  1
333 25 324  1
341 65 332  1
39 38 334  1
334 47 46  1
331 328 335  1
335 319 329  1
336 339 318  1
336 58 57  1
338 69 68  1
68 67 337  1
338 324 328  1
338 68 337  1
339 31 318  1
339 336 320  1
346 329 317  1
317 41 340  1
341 26 333  1
333 337 341  1
342 79 78  1
78 77 342  1
37 343 38  1
325 48 343  1
344 339 320  1
344 55 54  1
345 52 322  1
345 35 34  1
317 340 346  1
346 75 74  1
57 90 91  2
95 60 94  2
55 90 56  2
95 62 61  2
62 8 6  2
60 95 61  2
58 91 92  2
58 92 93  2
85 50 84  2
93 59 58  2
93 60 59  2
89 54 88  2
60 93 94  2
62 95 96  2
8 62 96  2
86 53 52  2
91 58 57  2
90 57 56  2
90 55 89  2
50 85 51  2
87 54 53  2
84 50 83  2
80 46 5  2
83 49 82  2
52 85 86  2
80 5 7  2
46 80 81  2
53 86 87  2
81 47 46  2
54 87 88  2
85 52 51  2
54 89 55  2
49 83 50  2
47 81 82  2
47 82 48  2
82 49 48  2
72 106 107  3
112 79 78  3
76 110 77  3
106 72 105  3
75 108 109  3
79 112 113  3
72 107 73  3
73 107 74  3
71 104 105  3
75 109 110  3
75 110 76  3
108 75 74  3
111 77 110  3
77 112 78  3
112 77 111  3
7 79 113  3
70 103 104  3
74 107 108  3
79 7 5  3
103 70 69  3
104 71 70  3
101 67 100  3
102 67 101  3
69 102 103  3
97 63 6  3
100 66 99  3
67 102 68  3
97 6 8  3
63 97 98  3
102 69 68  3
99 64 98  3
105 72 71  3
66 100 67  3
63 98 64  3
64 99 65  3
99 66 65  3
367 105 104  4
118 363 353  4
98 359 99  4
120 365 119  4
106 362 357  4
101 361 102  4
106 357 107  4
361 101 351  4
351 365 361  4
100 351 101  4
8 360 364  4
115 359 116  4
359 364 116  4
100 359 351  4
119 365 114  4
355 372 354  4
98 364 359  4
95 363 360  4
95 360 96  4
117 364 360  4
364 98 97  4
129 10 118  4
372 90 89  4
90 355 91  4
366 118 353  4
92 355 353  4
132 354 349  4
372 355 90  4
354 366 355  4
353 94 93  4
363 95 94  4
114 9 119  4
348 374 350  4
375 132 349  4
84 348 85  4
374 83 347  4
132 375 133  4
348 349 87  4
134 350 135  4
134 375 350  4
376 374 347  4
135 124 12  4
348 350 375  4
82 376 347  4
376 124 374  4
376 80 356  4
370 356 113  4
80 376 81  4
113 356 7  4
356 370 126  4
107 369 108  4
370 371 127  4
370 113 112  4
127 358 128  4
371 111 110  4
111 371 370  4
358 371 369  4
121 373 352  4
362 106 105  4
108 369 109  4
373 121 122  4
11 128 123  4
83 374 84  4
83 82 347  4
348 87 86  4
86 85 348  4
88 372 89  4
88 87 349  4
124 376 125  4
124 135 350  4
115 365 351  4
102 368 103  4
120 121 352  4
105 367 362  4
93 92 353  4
118 366 129  4
354 132 131  4
131 130 354  4
355 366 353  4
355 92 91  4
126 125 356  4
356 80 7  4
373 357 362  4
369 107 357  4
358 122 123  4
123 128 358  4
359 115 351  4
359 100 99  4
8 96 360  4
363 94 353  4
365 115 114  4
103 368 367  4
362 367 352  4
357 373 369  4
363 118 117  4
117 360 363  4
364 117 116  4
364 97 8  4
365 120 352  4
365 368 361  4
366 354 130  4
130 129 366  4
104 103 367  4
368 102 361  4
368 365 352  4
352 367 368  4
369 373 358  4
109 371 110  4
127 126 370  4
370 112 111  4
371 109 369  4
371 358 127  4
372 88 349  4
349 354 372  4
362 352 373  4
373 122 358  4
374 124 350  4
374 348 84  4
375 134 133  4
375 349 348  4
376 82 81  4
376 356 125  4
26 114 115  5
29 10 2  5
29 117 118  5
114 26 25  5
27 115 116  5
117 29 28  5
27 117 28  5
115 27 26  5
117 27 116  5
10 29 118  5
114 25 1  5
114 1 9  5
136 143 13  6
137 379 136  6
145 139 146  6
139 145 379  6
141 378 377  6
140 379 378  6
9 377 1  6
378 138 377  6
1 377 138  6
379 140 139  6
378 141 140  6
146 139 14  6
144 136 379  6
138 378 137  6
377 142 141  6
145 144 379  6
377 9 142  6
136 144 143  6
379 137 378  6
386 396 391  7
180 387 181  7
387 396 382  7
157 382 156  7
143 388 13  7
170 392 169  7
169 18 170  7
393 161 162  7
164 393 163  7
144 388 143  7
172 392 171  7
392 170 171  7
395 394 393  7
146 389 380  7
395 164 165  7
146 380 145  7
161 393 381  7
166 395 165  7
17 167 166  7
164 395 393  7
394 395 392  7
382 390 387  7
157 384 382  7
390 380 389  7
159 384 158  7
383 177 176  7
154 385 153  7
152 386 151  7
168 395 167  7
386 150 151  7
148 391 149  7
150 386 147  7
182 389 14  7
150 147 15  7
174 391 175  7
173 391 174  7
389 146 14  7
391 176 175  7
176 391 383  7
387 390 389  7
383 178 177  7
383 179 178  7
179 387 180  7
173 16 149  7
381 159 160  7
380 144 145  7
160 161 381  7
394 392 388  7
155 385 154  7
155 156 382  7
391 173 149  7
382 396 385  7
384 157 158  7
384 159 381  7
385 152 153  7
385 155 382  7
148 147 386  7
386 152 385  7
181 389 182  7
387 179 383  7
388 172 13  7
388 144 380  7
389 181 387  7
380 390 381  7
390 382 384  7
384 381 390  7
391 148 386  7
396 387 383  7
168 169 392  7
392 172 388  7
381 394 380  7
393 162 163  7
388 380 394  7
394 381 393  7
395 166 167  7
395 168 392  7
383 391 396  7
396 386 385  7
175 199 200  8
194 180 181  8
193 181 182  8
178 196 197  8
180 194 195  8
177 197 198  8
195 179 180  8
198 176 177  8
178 197 177  8
206 186 205  8
173 201 202  8
201 174 200  8
183 202 203  8
200 174 175  8
202 16 173  8
174 201 173  8
196 178 179  8
179 195 196  8
199 175 176  8
176 198 199  8
181 193 194  8
182 14 193  8
185 205 186  8
184 203 204  8
185 204 205  8
16 202 183  8
203 184 183  8
204 185 184  8
186 206 187  8
207 187 206  8
187 207 188  8
188 208 189  8
190 210 191  8
191 211 192  8
209 190 189  8
208 188 207  8
211 191 210  8
189 208 209  8
19 192 211  8
210 190 209  8
192 407 191  9
185 413 184  9
228 411 229  9
413 186 414  9
407 402 400  9
184 413 183  9
189 414 188  9
414 189 401  9
408 222 221  9
401 191 407  9
405 414 401  9
400 401 407  9
413 414 403  9
230 410 231  9
226 399 404  9
149 183 413  9
408 403 405  9
399 409 405  9
222 408 409  9
219 408 220  9
224 409 399  9
409 408 405  9
147 219 15  9
402 412 411  9
404 399 400  9
410 233 232  9
230 411 410  9
397 234 233  9
235 397 167  9
406 412 398  9
235 167 17  9
397 235 234  9
167 397 168  9
399 226 225  9
212 407 19  9
19 407 192  9
402 212 213  9
216 406 398  9
217 406 216  9
397 406 168  9
218 406 217  9
402 411 400  9
218 18 169  9
216 398 20  9
233 410 397  9
20 398 215  9
214 402 213  9
214 215 398  9
225 224 399  9
190 401 189  9
407 212 402  9
411 228 404  9
187 414 186  9
188 414 187  9
402 214 398  9
412 397 410  9
147 403 408  9
148 413 403  9
404 228 227  9
227 226 404  9
403 147 148  9
405 401 399  9
406 218 169  9
169 168 406  9
401 400 399  9
191 401 190  9
408 221 220  9
408 219 147  9
409 224 223  9
223 222 409  9
412 406 397  9
410 232 231  9
411 230 229  9
411 404 400  9
410 411 412  9
412 402 398  9
413 148 149  9
183 149 16  9
414 405 403  9
186 413 185  9
419 258 259  10
418 230 229  10
222 428 223  10
425 254 255  10
423 430 21  10
153 420 239  10
228 432 418  10
231 427 232  10
415 424 161  10
417 429 251  10
417 251 250  10
429 22 252  10
415 417 249  10
165 417 164  10
251 429 252  10
431 269 22  10
159 422 158  10
424 415 247  10
159 424 245  10
245 424 246  10
240 420 241  10
161 424 160  10
247 415 248  10
422 156 157  10
239 420 240  10
422 242 156  10
420 156 242  10
422 245 244  10
422 159 245  10
156 420 155  10
242 422 243  10
421 239 238  10
420 153 154  10
163 415 162  10
249 417 250  10
237 421 238  10
237 430 421  10
430 236 21  10
153 421 152  10
239 421 153  10
430 151 421  10
15 423 219  10
423 21 253  10
430 237 236  10
428 425 256  10
224 428 258  10
254 425 423  10
254 423 253  10
256 425 255  10
425 428 222  10
258 419 224  10
226 432 227  10
432 226 419  10
224 419 225  10
258 428 257  10
427 231 416  10
230 418 416  10
418 264 416  10
228 418 229  10
432 262 418  10
260 432 419  10
264 418 263  10
269 426 268  10
427 233 232  10
265 427 416  10
267 427 266  10
233 427 426  10
429 431 22  10
431 426 269  10
17 429 166  10
426 431 235  10
426 235 234  10
249 248 415  10
415 161 162  10
231 230 416  10
416 264 265  10
417 415 163  10
163 164 417  10
262 432 261  10
262 263 418  10
226 225 419  10
419 259 260  10
154 155 420  10
420 242 241  10
151 430 150  10
151 152 421  10
157 158 422  10
422 244 243  10
220 425 221  10
220 219 423  10
247 246 424  10
424 159 160  10
425 222 221  10
425 220 423  10
234 233 426  10
426 267 268  10
427 265 266  10
427 267 426  10
256 257 428  10
428 224 223  10
429 417 165  10
165 166 429  10
430 423 15  10
15 150 430  10
431 429 17  10
17 235 431  10
432 228 227  10
432 260 261  10
276 440 275  11
434 433 444  11
289 451 449  11
247 447 246  11
448 452 433  11
270 453 290  11
290 23 270  11
292 454 439  11
445 273 440  11
273 445 272  11
445 454 453  11
452 455 436  11
453 272 445  11
450 433 434  11
252 439 251  11
252 22 292  11
452 436 433  11
446 448 447  11
250 439 249  11
454 445 441  11
251 439 250  11
437 444 433  11
441 446 443  11
447 443 446  11
435 449 444  11
289 449 288  11
239 451 238  11
437 280 281  11
288 435 287  11
240 450 434  11
236 451 289  11
249 443 248  11
236 289 21  11
280 436 279  11
282 442 437  11
446 441 438  11
276 455 440  11
442 282 283  11
285 442 284  11
286 435 285  11
24 287 286  11
240 434 239  11
280 437 436  11
450 240 241  11
238 451 237  11
433 450 448  11
284 442 283  11
435 286 287  11
278 455 277  11
278 279 436  11
433 436 437  11
437 281 282  11
440 273 274  11
455 276 277  11
439 252 292  11
445 440 438  11
274 275 440  11
440 455 438  11
443 249 439  11
439 454 441  11
442 285 435  11
442 444 437  11
247 248 443  11
443 439 441  11
444 442 435  11
434 444 449  11
438 441 445  11
272 453 271  11
244 448 243  11
447 247 443  11
447 244 245  11
245 246 447  11
243 450 242  11
448 244 447  11
449 435 288  11
434 449 451  11
450 241 242  11
450 243 448  11
451 236 237  11
451 239 434  11
452 448 446  11
446 438 452  11
453 291 290  11
453 270 271  11
454 292 291  11
291 453 454  11
455 278 436  11
455 452 438  11
475 465 461  12
465 464 458  12
295 464 296  12
281 474 471  12
272 457 273  12
272 466 457  12
460 286 285  12
273 457 274  12
274 473 275  12
24 458 293  12
277 462 278  12
460 24 286  12
284 471 460  12
281 471 282  12
24 460 458  12
460 285 284  12
276 462 277  12
279 474 280  12
474 468 463  12
298 475 299  12
296 464 297  12
472 457 466  12
475 301 300  12
468 467 463  12
301 475 470  12
304 469 305  12
23 456 270  12
459 472 456  12
304 470 469  12
469 472 459  12
456 23 309  12
309 459 456  12
470 304 303  12
459 309 308  12
270 466 271  12
459 308 307  12
276 473 462  12
457 472 468  12
458 295 294  12
294 293 458  12
459 307 306  12
306 469 459  12
460 471 463  12
471 474 463  12
301 470 302  12
465 475 464  12
279 278 462  12
462 473 468  12
467 469 461  12
460 465 458  12
464 298 297  12
464 295 458  12
465 460 463  12
465 467 461  12
466 272 271  12
466 270 456  12
467 465 463  12
468 472 467  12
468 474 462  12
457 468 473  12
469 306 305  12
469 470 461  12
303 302 470  12
470 475 461  12
471 284 283  12
283 282 471  12
466 456 472  12
472 469 467  12
473 276 275  12
473 274 457  12
474 281 280  12
474 279 462  12
475 300 299  12
475 298 464  12
498 263 262  13
487 298 299  13
291 495 476  13
482 309 290  13
293 481 287  13
287 24 293  13
486 494 489  13
496 494 288  13
296 481 295  13
494 480 485  13
498 260 477  13
301 491 487  13
497 498 478  13
498 262 261  13
479 487 483  13
480 258 257  13
255 485 480  13
253 485 254  13
289 253 21  13
255 480 256  13
263 498 497  13
477 260 259  13
258 480 477  13
265 484 266  13
485 255 254  13
267 495 268  13
493 305 490  13
481 293 294  13
495 269 268  13
495 499 476  13
269 495 292  13
265 497 484  13
269 292 22  13
302 493 491  13
490 499 488  13
258 477 259  13
260 498 261  13
301 487 300  13
305 493 304  13
307 490 306  13
309 482 308  13
23 290 309  13
493 302 303  13
476 290 291  13
491 493 488  13
298 487 479  13
491 301 302  13
263 497 264  13
479 296 297  13
297 298 479  13
480 257 256  13
289 494 485  13
481 294 295  13
481 296 479  13
307 308 482  13
482 290 476  13
492 491 478  13
479 489 481  13
499 497 478  13
484 267 266  13
485 253 289  13
480 494 486  13
483 486 489  13
486 477 480  13
299 300 487  13
478 491 488  13
476 490 482  13
488 499 478  13
481 496 287  13
489 479 483  13
490 305 306  13
490 307 482  13
491 492 483  13
483 487 491  13
492 477 486  13
486 483 492  13
303 304 493  13
493 490 488  13
494 289 288  13
494 496 489  13
495 291 292  13
495 267 484  13
288 287 496  13
496 481 489  13
497 499 484  13
497 265 264  13
498 477 492  13
492 478 498  13
499 490 476  13
499 495 484  13
500 507 502  14
218 503 18  14
43 137 502  14
171 136 172  14
137 500 502  14
313 505 312  14
136 171 500  14
170 500 171  14
136 13 172  14
311 506 310  14
4 505 313  14
501 312 505  14
504 45 44  14
43 507 44  14
310 217 216  14
218 506 504  14
503 218 504  14
310 506 217  14
310 216 20  14
137 43 138  14
500 170 503  14
506 311 501  14
45 501 505  14
500 137 136  14
507 43 502  14
503 170 18  14
45 506 501  14
504 44 507  14
45 504 506  14
312 501 311  14
505 4 45  14
138 43 1  14
506 218 217  14
507 500 503  14
503 504 507  14
315 510 314  15
214 213 510  15
213 314 510  15
4 509 11  15
509 4 313  15
316 508 315  15
11 509 316  15
510 315 508  15
212 19 314  15
310 214 510  15
215 310 20  15
508 316 509  15
314 213 212  15
508 313 312  15
311 510 508  15
313 508 509  15
508 312 311  15
510 311 310  15
214 310 215  15
38 124 37  16
125 39 126  16
37 12 3  16
125 38 39  16
128 41 42  16
124 38 125  16
12 37 124  16
127 40 41  16
42 11 128  16
11 42 4  16
41 128 127  16
40 127 126  16
126 39 40  16
131 33 132  17
129 31 130  17
133 33 34  17
131 31 32  17
31 129 30  17
31 131 130  17
2 129 10  17
129 2 30  17
133 35 134  17
134 35 135  17
33 133 132  17
135 3 12  17
33 131 32  17
35 133 34  17
3 135 36  17
135 35 36  17
589 557 575  18
522 518 531  18
554 558 550  18
123 516 524  18
315 591 600  18
530 513 514  18
514 517 531  18
531 539 514  18
541 526 524  18
521 541 525  18
591 315 584  18
512 551 537  18
563 533 548  18
543 122 526  18
545 570 601  18
574 579 592  18
566 554 553  18
546 555 545  18
529 545 142  18
585 570 568  18
141 622 140  18
557 589 582  18
550 564 544  18
530 540 532  18
566 559 554  18
557 563 548  18
538 542 539  18
565 560 580  18
578 551 565  18
584 315 314  18
314 19 211  18
587 596 576  18
14 139 193  18
574 592 603  18
515 120 519  18
527 519 528  18
121 513 528  18
544 542 550  18
549 552 532  18
615 605 617  18
513 530 527  18
534 119 515  18
119 546 529  18
541 567 525  18
575 591 589  18
120 528 519  18
121 522 517  18
518 533 538  18
522 121 122  18
512 519 527  18
539 531 518  18
521 520 543  18
540 530 514  18
520 548 533  18
123 526 122  18
518 543 520  18
517 514 513  18
618 619 610  18
536 537 523  18
569 11 535  18
516 569 571  18
121 528 120  18
548 521 525  18
122 543 522  18
123 524 526  18
511 527 530  18
513 527 528  18
519 512 536  18
513 121 517  18
547 515 536  18
529 9 119  18
511 532 552  18
527 511 512  18
531 517 522  18
518 522 543  18
564 562 549  18
532 511 530  18
538 533 553  18
558 554 559  18
537 536 512  18
555 119 534  18
535 11 316  18
526 541 521  18
515 547 534  18
515 519 536  18
568 534 547  18
11 569 123  18
533 518 520  18
554 550 542  18
120 515 119  18
518 538 539  18
514 539 540  18
532 544 549  18
571 535 316  18
516 556 567  18
542 544 540  18
540 539 542  18
543 526 521  18
521 548 520  18
573 574 607  18
544 532 540  18
525 575 557  18
9 529 142  18
545 529 546  18
119 555 546  18
523 585 568  18
561 523 537  18
525 557 548  18
567 541 516  18
542 538 554  18
552 549 560  18
558 587 576  18
604 572 588  18
537 578 561  18
551 512 511  18
551 552 565  18
551 511 552  18
533 563 553  18
614 577 593  18
538 553 554  18
544 564 549  18
547 536 523  18
601 142 545  18
600 316 315  18
316 600 556  18
629 630 619  18
628 626 198  18
566 581 559  18
576 550 558  18
581 566 577  18
595 572 581  18
615 201 624  18
560 565 552  18
523 568 547  18
570 545 555  18
560 562 573  18
560 549 562  18
553 583 566  18
583 582 593  18
550 576 564  18
604 605 587  18
587 558 572  18
578 537 551  18
583 553 563  18
594 581 577  18
556 516 571  18
556 575 567  18
140 599 139  18
534 568 555  18
516 123 569  18
535 571 569  18
142 601 141  18
610 590 612  18
524 516 541  18
316 556 571  18
559 572 558  18
572 595 588  18
607 603 626  18
573 580 560  18
573 562 574  18
579 574 562  18
563 582 583  18
575 525 567  18
603 616 625  18
564 579 562  18
583 577 566  18
581 594 595  18
612 602 609  18
585 523 561  18
579 564 576  18
579 596 592  18
613 580 573  18
565 602 578  18
572 604 587  18
572 559 581  18
557 582 563  18
582 608 593  18
593 577 583  18
602 565 580  18
584 611 591  18
314 211 598  18
597 561 590  18
580 613 609  18
630 195 194  18
586 601 570  18
590 610 597  18
627 591 611  18
205 204 588  18
591 627 608  18
621 629 618  18
589 591 608  18
561 597 585  18
585 597 570  18
211 210 598  18
209 611 210  18
592 596 606  18
606 624 616  18
611 209 627  18
607 613 573  18
626 625 199  18
193 139 620  18
595 205 588  18
594 206 595  18
624 606 615  18
596 579 576  18
622 141 586  18
586 570 597  18
605 604 617  18
622 619 599  18
194 193 620  18
599 140 622  18
591 575 600  18
575 556 600  18
570 555 568  18
601 586 141  18
590 578 602  18
590 561 578  18
625 624 200  18
603 607 574  18
588 623 604  18
617 604 623  18
596 587 605  18
203 202 617  18
596 605 606  18
202 201 615  18
584 598 611  18
611 598 210  18
207 614 208  18
209 208 627  18
613 621 609  18
607 628 613  18
630 629 195  18
586 610 622  18
577 614 594  18
614 627 208  18
602 612 590  18
610 612 618  18
203 617 623  18
580 609 602  18
593 608 614  18
608 582 589  18
615 617 202  18
605 615 606  18
603 592 616  18
592 606 616  18
619 618 629  18
198 197 628  18
595 206 205  18
139 599 620  18
194 620 630  18
619 622 610  18
618 609 621  18
621 197 196  18
629 621 196  18
609 618 612  18
610 586 597  18
598 584 314  18
623 588 204  18
204 203 623  18
201 200 624  18
624 625 616  18
200 199 625  18
625 626 603  18
626 628 607  18
199 198 626  18
614 207 594  18
594 207 206  18
197 621 628  18
621 613 628  18
196 195 629  18
627 614 608  18
599 619 630  18
620 599 630  18
Edges
331
1 25  1
25 26  1
26 27  1
27 28  1
28 29  1
29 2  1
2 30  2
30 31  2
31 32  2
32 33  2
33 34  2
34 35  2
35 36  2
36 3  2
3 37  3
37 38  3
38 39  3
39 40  3
40 41  3
41 42  3
42 4  3
1 43  4
43 44  4
44 45  4
45 4  4
5 46  5
46 47  5
47 48  5
48 49  5
49 50  5
50 51  5
51 52  5
52 53  5
53 54  5
54 55  5
55 56  5
56 57  5
57 58  5
58 59  5
59 60  5
60 61  5
61 62  5
62 6  5
6 63  6
63 64  6
64 65  6
65 66  6
66 67  6
67 68  6
68 69  6
69 70  6
70 71  6
71 72  6
72 73  6
73 74  6
74 75  6
75 76  6
76 77  6
77 78  6
78 79  6
79 5  6
5 7  7
7 80  8
80 81  8
81 82  8
82 83  8
83 84  8
84 85  8
85 86  8
86 87  8
87 88  8
88 89  8
89 90  8
90 91  8
91 92  8
92 93  8
93 94  8
94 95  8
95 96  8
96 8  8
6 8  9
8 97  10
97 98  10
98 99  10
99 100  10
100 101  10
101 102  10
102 103  10
103 104  10
104 105  10
105 106  10
106 107  10
107 108  10
108 109  10
109 110  10
110 111  10
111 112  10
112 113  10
113 7  10
9 114  11
114 115  11
115 116  11
116 117  11
117 118  11
118 10  11
9 119  12
119 120  12
120 121  12
121 122  12
122 123  12
123 11  12
12 124  13
124 125  13
125 126  13
126 127  13
127 128  13
128 11  13
10 129  14
129 130  14
130 131  14
131 132  14
132 133  14
133 134  14
134 135  14
135 12  14
1 9  15
2 10  16
13 136  17
136 137  17
137 138  17
138 1  17
14 139  18
139 140  18
140 141  18
141 142  18
142 9  18
13 143  19
143 144  19
144 145  19
145 146  19
146 14  19
15 147  20
147 148  20
148 149  20
149 16  20
15 150  21
150 151  21
151 152  21
152 153  21
153 154  21
154 155  21
155 156  21
156 157  21
157 158  21
158 159  21
159 160  21
160 161  21
161 162  21
162 163  21
163 164  21
164 165  21
165 166  21
166 17  21
17 167  22
167 168  22
168 169  22
169 18  22
18 170  23
170 171  23
171 172  23
172 13  23
16 173  24
173 174  24
174 175  24
175 176  24
176 177  24
177 178  24
178 179  24
179 180  24
180 181  24
181 182  24
182 14  24
16 183  25
183 184  25
184 185  25
185 186  25
186 187  25
187 188  25
188 189  25
189 190  25
190 191  25
191 192  25
192 19  25
14 193  26
193 194  26
194 195  26
195 196  26
196 197  26
197 198  26
198 199  26
199 200  26
200 201  26
201 202  26
202 203  26
203 204  26
204 205  26
205 206  26
206 207  26
207 208  26
208 209  26
209 210  26
210 211  26
211 19  26
19 212  27
212 213  27
213 214  27
214 215  27
215 20  27
20 216  28
216 217  28
217 218  28
218 18  28
15 219  29
219 220  29
220 221  29
221 222  29
222 223  29
223 224  29
224 225  29
225 226  29
226 227  29
227 228  29
228 229  29
229 230  29
230 231  29
231 232  29
232 233  29
233 234  29
234 235  29
235 17  29
21 236  30
236 237  30
237 238  30
238 239  30
239 240  30
240 241  30
241 242  30
242 243  30
243 244  30
244 245  30
245 246  30
246 247  30
247 248  30
248 249  30
249 250  30
250 251  30
251 252  30
252 22  30
21 253  31
253 254  31
254 255  31
255 256  31
256 257  31
257 258  31
258 259  31
259 260  31
260 261  31
261 262  31
262 263  31
263 264  31
264 265  31
265 266  31
266 267  31
267 268  31
268 269  31
269 22  31
23 270  32
270 271  32
271 272  32
272 273  32
273 274  32
274 275  32
275 276  32
276 277  32
277 278  32
278 279  32
279 280  32
280 281  32
281 282  32
282 283  32
283 284  32
284 285  32
285 286  32
286 24  32
24 287  33
287 288  33
288 289  33
289 21  33
23 290  34
290 291  34
291 292  34
292 22  34
24 293  35
293 294  35
294 295  35
295 296  35
296 297  35
297 298  35
298 299  35
299 300  35
300 301  35
301 302  35
302 303  35
303 304  35
304 305  35
305 306  35
306 307  35
307 308  35
308 309  35
309 23  35
20 310  36
310 311  36
311 312  36
312 313  36
313 4  36
19 314  37
314 315  37
315 316  37
316 11  37
4 11  38
3 12  39
End
