MeshVersionFormatted 1

Dimension
3

Vertices
434
-100.393700787402  -129.92125984251999  0  0
-100.393700787402  -146.88976377952801  0  0
-100.393700787402  -129.92125984251999  -52.755905511811001  0
-100.393700787402  -162.908282532551  -52.755905511811001  0
-129.92125984251999  -129.92125984251999  -52.755905511811001  0
-129.92125984251999  -162.908282532551  -52.755905511811001  0
-129.92125984251999  -129.92125984251999  0  0
88.582677165354298  -162.908282532551  -52.755905511811001  0
88.582677165354298  -129.92125984251999  -52.755905511811001  0
-88.582677165354298  -129.92125984251999  -52.755905511811001  0
-88.582677165354298  -162.908282532551  -52.755905511811001  0
-88.582677165354298  -129.92125984251999  0  0
-88.582677165354298  -146.88976377952801  0  0
88.582677165354298  -129.92125984251999  0  0
88.582677165354298  -146.88976377952801  0  0
100.393700787402  -129.92125984251999  -52.755905511811001  0
100.393700787402  -162.908282532551  -52.755905511811001  0
100.393700787402  -129.92125984251999  0  0
100.393700787402  -146.88976377952801  0  0
129.92125984251999  -129.92125984251999  -52.755905511811001  0
129.92125984251999  -162.908282532551  -52.755905511811001  0
129.92125984251999  -129.92125984251999  0  0
-100.393700787402  129.92125984251999  -52.755905511811001  0
-100.393700787402  162.908282532551  -52.755905511811001  0
-100.393700787402  129.92125984251999  0  0
-100.393700787402  146.88976377952801  -4.3709567898628204e-15  0
-129.92125984251999  129.92125984251999  -52.755905511811001  0
-129.92125984251999  162.908282532551  -52.755905511811001  0
-129.92125984251999  129.92125984251999  0  0
-88.582677165354298  162.908282532551  -52.755905511811001  0
-88.582677165354298  129.92125984251999  -52.755905511811001  0
88.582677165354298  129.92125984251999  -52.755905511811001  0
88.582677165354298  162.908282532551  -52.755905511811001  0
-88.582677165354298  129.92125984251999  0  0
-88.582677165354298  146.88976377952801  0  0
88.582677165354298  129.92125984251999  0  0
88.582677165354298  146.88976377952801  -4.3709567898628204e-15  0
100.393700787402  129.92125984251999  0  0
100.393700787402  146.88976377952801  0  0
100.393700787402  129.92125984251999  -52.755905511811001  0
100.393700787402  162.908282532551  -52.755905511811001  0
129.92125984251999  129.92125984251999  -52.755905511811001  0
129.92125984251999  162.908282532551  -52.755905511811001  0
129.92125984251999  129.92125984251999  0  0
35.433070866141698  166.37497688954801  -64.173228346456696  0
35.433070866141698  88.188976377952798  -64.173228346456696  0
-35.433070866141698  88.188976377952798  -64.173228346456696  0
-35.433070866141698  166.37497688954801  -64.173228346456696  0
-108.976377952756  -184.05511811023601  -137.71653543307099  0
-124.036561049093  -184.05511811023601  -122.40157480315  0
-93.661417322834694  -184.05511811023601  -122.40157480315  0
108.976377952756  -184.05511811023601  -137.71653543307099  0
93.661417322834694  -184.05511811023601  -122.40157480315  0
124.036561049093  -184.05511811023601  -122.40157480315  0
-129.92125984251999  -182.23809210242999  -116.417322834646  0
-35.433070866141698  -166.37497688954801  -64.173228346456696  0
35.433070866141698  -166.374976889549  -64.173228346456696  0
129.92125984251999  -182.23809210243101  -116.417322834646  0
-129.92125984251999  182.23809210243101  -116.417322834646  0
129.92125984251999  182.23809210243101  -116.417322834646  0
124.036561049093  184.05511811023601  -122.40157480315  0
93.661417322834694  184.05511811023601  -122.40157480315  0
-93.661417322834694  184.05511811023601  -122.40157480315  0
-124.036561049093  184.05511811023601  -122.40157480315  0
108.976377952756  184.05511811023601  -137.71653543307099  0
-108.976377952756  184.05511811023601  -137.71653543307099  0
-122.04724409448799  -122.04724409448799  0  0
-122.04724409448799  122.04724409448799  0  0
122.04724409448799  122.04724409448799  0  0
122.04724409448799  -122.04724409448799  0  0
-35.433070866141698  -88.188976377952798  -64.173228346456696  0
35.433070866141698  -88.188976377952798  -64.173228346456696  0
-112.59842519685  88.188976377952798  -64.173228346456696  0
-112.59842519685  -88.188976377952798  -64.173228346456696  0
112.59842519685  -88.188976377952798  -64.173228346456696  0
112.59842519685  88.188976377952798  -64.173228346456696  0
-112.59842519685  88.188976377952798  -44.488188976377899  0
112.59842519685  88.188976377952798  -44.488188976377899  0
-112.59842519685  -88.188976377952798  -44.488188976377899  0
-112.59842519685  112.59842519685  -44.488188976377899  0
-112.59842519685  112.59842519685  -29.133858267716501  0
-112.59842519685  -112.59842519685  -29.133858267716501  0
-112.59842519685  -112.59842519685  -44.488188976377899  0
112.59842519685  -88.188976377952798  -44.488188976377899  0
112.59842519685  -112.59842519685  -44.488188976377899  0
112.59842519685  -112.59842519685  -29.133858267716501  0
112.59842519685  112.59842519685  -29.133858267716501  0
112.59842519685  112.59842519685  -44.488188976377899  0
122.04724409448799  122.04724409448799  -29.133858267716501  0
-122.04724409448799  122.04724409448799  -29.133858267716501  0
-122.04724409448799  -122.04724409448799  -29.133858267716501  0
122.04724409448799  -122.04724409448799  -29.133858267716501  0
-100.393700787402  -129.92125984251999  -26.3779527559055  0
-100.393700787402  -154.89902315603936  -26.377952755905536  0
-115.15748031496099  -129.92125984251999  0  0
-129.92125984251999  -129.92125984251999  -26.3779527559055  0
53.149606299212579  -129.92125984251999  -52.755905511811001  0
17.71653543307086  -129.92125984251999  -52.755905511811001  0
-17.71653543307086  -129.92125984251999  -52.755905511811001  0
-53.149606299212579  -129.92125984251999  -52.755905511811001  0
59.05511811023618  -162.908282532551  -52.755905511811001  0
29.527559055118104  -162.908282532551  -52.755905511811001  0
0  -162.908282532551  -52.755905511811001  0
-29.52755905511809  -162.908282532551  -52.755905511811001  0
-59.05511811023618  -162.908282532551  -52.755905511811001  0
-88.582677165354298  -129.92125984251999  -26.3779527559055  0
-88.582677165354298  -154.89902315603936  -26.377952755905536  0
88.582677165354298  -129.92125984251999  -26.3779527559055  0
88.582677165354298  -154.89902315603936  -26.377952755905536  0
-66.43700787401572  -129.92125984251999  0  0
-44.291338582677149  -129.92125984251999  0  0
-22.145669291338574  -129.92125984251999  0  0
0  -129.92125984251999  0  0
22.145669291338574  -129.92125984251999  0  0
44.291338582677149  -129.92125984251999  0  0
66.43700787401572  -129.92125984251999  0  0
100.393700787402  -129.92125984251999  -26.3779527559055  0
100.393700787402  -154.89902315603936  -26.377952755905536  0
129.92125984251999  -129.92125984251999  -26.3779527559055  0
115.15748031496099  -129.92125984251999  0  0
-100.393700787402  129.92125984251999  -26.3779527559055  0
-100.393700787402  154.89902315603936  -26.377952755905543  0
-129.92125984251999  129.92125984251999  -26.3779527559055  0
-115.15748031496099  129.92125984251999  0  0
-29.527559055118097  129.92125984251999  -52.755905511811001  0
29.527559055118104  129.92125984251999  -52.755905511811001  0
-59.055118110236208  162.908282532551  -52.755905511811001  0
-29.527559055118104  162.908282532551  -52.755905511811001  0
-2.8421709430404007e-14  162.908282532551  -52.755905511811001  0
29.527559055118076  162.908282532551  -52.755905511811001  0
59.05511811023618  162.908282532551  -52.755905511811001  0
-88.582677165354298  129.92125984251999  -26.3779527559055  0
-88.582677165354298  154.89902315603936  -26.377952755905536  0
88.582677165354298  129.92125984251999  -26.3779527559055  0
88.582677165354298  154.89902315603936  -26.377952755905543  0
53.149606299212579  129.92125984251999  0  0
17.71653543307086  129.92125984251999  0  0
-17.71653543307086  129.92125984251999  0  0
-53.149606299212579  129.92125984251999  0  0
100.393700787402  129.92125984251999  -26.3779527559055  0
100.393700787402  154.89902315603936  -26.377952755905536  0
115.15748031496099  129.92125984251999  0  0
129.92125984251999  129.92125984251999  -26.3779527559055  0
35.433070866141698  127.2819766337504  -64.173228346456696  0
-35.433070866141698  127.2819766337504  -64.173228346456696  0
-11.811023622047234  166.37497688954801  -64.173228346456696  0
11.81102362204723  166.37497688954801  -64.173228346456696  0
-108.84898918596384  -184.05511811023601  -122.40157480315  0
108.8489891859638  -184.05511811023601  -122.40157480315  0
-129.92125984251999  -175.79482224580426  -95.196850393700856  0
-129.92125984251999  -169.35155238917767  -73.976377952755911  0
-64.547244094488207  -175.21504749989251  -93.287401574803198  0
11.811023622047234  -166.37497688954801  -64.173228346456696  0
-11.81102362204723  -166.37497688954801  -64.173228346456696  0
64.547244094488263  -175.21504749989253  -93.287401574803269  0
129.92125984251999  -169.3515523891777  -73.97637795275601  0
129.92125984251999  -175.79482224580431  -95.196850393701027  0
-129.92125984251999  169.35155238917707  -73.976377952756181  0
-129.92125984251999  175.79482224580366  -95.196850393701212  0
129.92125984251999  175.79482224580366  -95.196850393701212  0
129.92125984251999  169.35155238917707  -73.976377952756181  0
108.8489891859638  184.05511811023601  -122.40157480315  0
64.547244094488065  175.21504749989271  -93.287401574803269  0
-64.547244094488065  175.21504749989273  -93.287401574803269  0
-108.84898918596384  184.05511811023601  -122.40157480315  0
-122.04724409448799  -103.27074500302831  0  0
-122.04724409448799  -84.494245911568612  0  0
-122.04724409448799  -65.717746820108914  0  0
-122.04724409448799  -46.94124772864923  0  0
-122.04724409448799  -28.16474863718954  0  0
-122.04724409448799  -9.3882495457298489  0  0
-122.04724409448799  9.3882495457298418  0  0
-122.04724409448799  28.164748637189533  0  0
-122.04724409448799  46.941247728649223  0  0
-122.04724409448799  65.717746820108914  0  0
-122.04724409448799  84.494245911568612  0  0
-122.04724409448799  103.2707450030283  0  0
-104.61192350956114  122.04724409448799  0  0
-87.176602924634281  122.04724409448799  0  0
-69.741282339707425  122.04724409448799  0  0
-52.305961754780569  122.04724409448799  0  0
-34.870641169853712  122.04724409448799  0  0
-17.435320584926856  122.04724409448799  0  0
0  122.04724409448799  0  0
17.435320584926856  122.04724409448799  0  0
34.870641169853712  122.04724409448799  0  0
52.305961754780569  122.04724409448799  0  0
69.741282339707425  122.04724409448799  0  0
87.176602924634281  122.04724409448799  0  0
104.61192350956114  122.04724409448799  0  0
122.04724409448799  103.27074500302831  0  0
122.04724409448799  84.494245911568612  0  0
122.04724409448799  65.717746820108914  0  0
122.04724409448799  46.94124772864923  0  0
122.04724409448799  28.16474863718954  0  0
122.04724409448799  9.3882495457298489  0  0
122.04724409448799  -9.3882495457298418  0  0
122.04724409448799  -28.164748637189533  0  0
122.04724409448799  -46.941247728649223  0  0
122.04724409448799  -65.717746820108914  0  0
122.04724409448799  -84.494245911568612  0  0
122.04724409448799  -103.2707450030283  0  0
103.27074500302831  -122.04724409448799  0  0
84.494245911568612  -122.04724409448799  0  0
65.717746820108914  -122.04724409448799  0  0
46.94124772864923  -122.04724409448799  0  0
28.16474863718954  -122.04724409448799  0  0
9.3882495457298489  -122.04724409448799  0  0
-9.3882495457298418  -122.04724409448799  0  0
-28.164748637189533  -122.04724409448799  0  0
-46.941247728649223  -122.04724409448799  0  0
-65.717746820108914  -122.04724409448799  0  0
-84.494245911568612  -122.04724409448799  0  0
-103.2707450030283  -122.04724409448799  0  0
-129.92125984251999  108.26771653543332  0  0
-129.92125984251999  86.614173228346658  0  0
-129.92125984251999  64.960629921259994  0  0
-129.92125984251999  43.307086614173329  0  0
-129.92125984251999  21.653543307086665  0  0
-129.92125984251999  0  0  0
-129.92125984251999  -21.653543307086665  0  0
-129.92125984251999  -43.307086614173329  0  0
-129.92125984251999  -64.960629921259994  0  0
-129.92125984251999  -86.61417322834663  0  0
-129.92125984251999  -108.26771653543332  0  0
129.92125984251999  103.93700787401599  0  0
129.92125984251999  77.952755905511992  0  0
129.92125984251999  51.968503937007995  0  0
129.92125984251999  25.984251968503997  0  0
129.92125984251999  0  0  0
129.92125984251999  -25.984251968503997  0  0
129.92125984251999  -51.968503937007995  0  0
129.92125984251999  -77.952755905512021  0  0
129.92125984251999  -103.93700787401596  0  0
-129.92125984251999  151.86507675202591  -116.417322834646  0
-129.92125984251999  121.49206140162084  -116.417322834646  0
-129.92125984251999  91.119046051215761  -116.417322834646  0
-129.92125984251999  60.746030700810678  -116.417322834646  0
-129.92125984251999  30.373015350405609  -116.417322834646  0
-129.92125984251999  5.1159076974727213e-13  -116.417322834646  0
-129.92125984251999  -30.373015350404586  -116.417322834646  0
-129.92125984251999  -60.746030700809655  -116.417322834646  0
-129.92125984251999  -91.119046051214724  -116.417322834646  0
-129.92125984251999  -121.49206140161979  -116.417322834646  0
-129.92125984251999  -151.86507675202492  -116.417322834646  0
-108.976377952756  147.24409448818881  -137.71653543307099  0
-108.976377952756  110.43307086614161  -137.71653543307099  0
-108.976377952756  73.622047244094404  -137.71653543307099  0
-108.976377952756  36.811023622047202  -137.71653543307099  0
-108.976377952756  0  -137.71653543307099  0
-108.976377952756  -36.811023622047202  -137.71653543307099  0
-108.976377952756  -73.622047244094432  -137.71653543307099  0
-108.976377952756  -110.43307086614161  -137.71653543307099  0
-108.976377952756  -147.24409448818878  -137.71653543307099  0
-35.433070866141698  29.396325459317609  -64.173228346456696  0
-35.433070866141698  -29.39632545931758  -64.173228346456696  0
-35.433070866141698  -127.28197663375042  -64.173228346456696  0
35.433070866141698  -127.28197663375087  -64.173228346456696  0
35.433070866141698  -29.396325459317609  -64.173228346456696  0
35.433070866141698  29.39632545931758  -64.173228346456696  0
108.976377952756  147.24409448818881  -137.71653543307099  0
108.976377952756  110.43307086614161  -137.71653543307099  0
108.976377952756  73.622047244094404  -137.71653543307099  0
108.976377952756  36.811023622047202  -137.71653543307099  0
108.976377952756  0  -137.71653543307099  0
108.976377952756  -36.811023622047202  -137.71653543307099  0
108.976377952756  -73.622047244094432  -137.71653543307099  0
108.976377952756  -110.43307086614161  -137.71653543307099  0
108.976377952756  -147.24409448818878  -137.71653543307099  0
129.92125984251999  151.86507675202586  -116.417322834646  0
129.92125984251999  121.49206140162067  -116.417322834646  0
129.92125984251999  91.119046051215506  -116.417322834646  0
129.92125984251999  60.746030700810337  -116.417322834646  0
129.92125984251999  30.373015350405154  -116.417322834646  0
129.92125984251999  0  -116.417322834646  0
129.92125984251999  -30.373015350405154  -116.417322834646  0
129.92125984251999  -60.746030700810337  -116.417322834646  0
129.92125984251999  -91.11904605121552  -116.417322834646  0
129.92125984251999  -121.4920614016207  -116.417322834646  0
129.92125984251999  -151.86507675202583  -116.417322834646  0
-74.01574803149586  88.188976377952798  -64.173228346456696  0
-112.59842519685  44.094488188976399  -64.173228346456696  0
-112.59842519685  0  -64.173228346456696  0
-112.59842519685  -44.094488188976399  -64.173228346456696  0
-74.015748031495846  -88.188976377952798  -64.173228346456696  0
74.01574803149586  -88.188976377952798  -64.173228346456696  0
112.59842519685  -29.396325459317602  -64.173228346456696  0
112.59842519685  29.396325459317595  -64.173228346456696  0
74.015748031495846  88.188976377952798  -64.173228346456696  0
-75.065616797899992  88.188976377952798  -44.488188976377899  0
-37.532808398949996  88.188976377952798  -44.488188976377899  0
7.1054273576010019e-15  88.188976377952798  -44.488188976377899  0
37.53280839895001  88.188976377952798  -44.488188976377899  0
75.06561679790002  88.188976377952798  -44.488188976377899  0
-112.59842519685  -95.27559055118077  -29.133858267716501  0
-112.59842519685  -77.952755905511538  -29.133858267716501  0
-112.59842519685  -60.629921259842305  -29.133858267716501  0
-112.59842519685  -43.307086614173073  -29.133858267716501  0
-112.59842519685  -25.984251968503841  -29.133858267716501  0
-112.59842519685  -8.661417322834609  -29.133858267716501  0
-112.59842519685  8.6614173228346232  -29.133858267716501  0
-112.59842519685  25.984251968503855  -29.133858267716501  0
-112.59842519685  43.307086614173087  -29.133858267716501  0
-112.59842519685  60.62992125984232  -29.133858267716501  0
-112.59842519685  77.952755905511552  -29.133858267716501  0
-112.59842519685  95.275590551180784  -29.133858267716501  0
75.065616797899992  -88.188976377952798  -44.488188976377899  0
37.532808398949996  -88.188976377952798  -44.488188976377899  0
-7.1054273576010019e-15  -88.188976377952798  -44.488188976377899  0
-37.53280839895001  -88.188976377952798  -44.488188976377899  0
-75.06561679790002  -88.188976377952798  -44.488188976377899  0
112.59842519685  90.078740157479999  -29.133858267716501  0
112.59842519685  67.559055118109995  -29.133858267716501  0
112.59842519685  45.039370078740006  -29.133858267716501  0
112.59842519685  22.519685039370003  -29.133858267716501  0
112.59842519685  3.5527136788005009e-15  -29.133858267716501  0
112.59842519685  -22.519685039369996  -29.133858267716501  0
112.59842519685  -45.039370078739992  -29.133858267716501  0
112.59842519685  -67.559055118109995  -29.133858267716501  0
112.59842519685  -90.078740157479999  -29.133858267716501  0
84.448818897637494  112.59842519685  -44.488188976377899  0
56.299212598425001  112.59842519685  -44.488188976377899  0
28.1496062992125  112.59842519685  -44.488188976377899  0
0  112.59842519685  -44.488188976377899  0
-28.1496062992125  112.59842519685  -44.488188976377899  0
-56.299212598425001  112.59842519685  -44.488188976377899  0
-84.448818897637494  112.59842519685  -44.488188976377899  0
-95.27559055118077  112.59842519685  -29.133858267716501  0
-77.952755905511538  112.59842519685  -29.133858267716501  0
-60.629921259842305  112.59842519685  -29.133858267716501  0
-43.307086614173073  112.59842519685  -29.133858267716501  0
-25.984251968503841  112.59842519685  -29.133858267716501  0
-8.661417322834609  112.59842519685  -29.133858267716501  0
8.6614173228346232  112.59842519685  -29.133858267716501  0
25.984251968503855  112.59842519685  -29.133858267716501  0
43.307086614173087  112.59842519685  -29.133858267716501  0
60.62992125984232  112.59842519685  -29.133858267716501  0
77.952755905511552  112.59842519685  -29.133858267716501  0
95.275590551180784  112.59842519685  -29.133858267716501  0
-84.448818897637494  -112.59842519685  -44.488188976377899  0
-56.299212598425001  -112.59842519685  -44.488188976377899  0
-28.1496062992125  -112.59842519685  -44.488188976377899  0
0  -112.59842519685  -44.488188976377899  0
28.1496062992125  -112.59842519685  -44.488188976377899  0
56.299212598425001  -112.59842519685  -44.488188976377899  0
84.448818897637494  -112.59842519685  -44.488188976377899  0
95.27559055118077  -112.59842519685  -29.133858267716501  0
77.952755905511538  -112.59842519685  -29.133858267716501  0
60.629921259842305  -112.59842519685  -29.133858267716501  0
43.307086614173073  -112.59842519685  -29.133858267716501  0
25.984251968503841  -112.59842519685  -29.133858267716501  0
8.661417322834609  -112.59842519685  -29.133858267716501  0
-8.6614173228346232  -112.59842519685  -29.133858267716501  0
-25.984251968503855  -112.59842519685  -29.133858267716501  0
-43.307086614173087  -112.59842519685  -29.133858267716501  0
-60.62992125984232  -112.59842519685  -29.133858267716501  0
-77.952755905511552  -112.59842519685  -29.133858267716501  0
-95.275590551180784  -112.59842519685  -29.133858267716501  0
101.70603674540666  122.04724409448799  -29.133858267716501  0
81.36482939632532  122.04724409448799  -29.133858267716501  0
61.02362204724399  122.04724409448799  -29.133858267716501  0
40.68241469816266  122.04724409448799  -29.133858267716501  0
20.341207349081326  122.04724409448799  -29.133858267716501  0
-7.1054273576010019e-15  122.04724409448799  -29.133858267716501  0
-20.341207349081341  122.04724409448799  -29.133858267716501  0
-40.682414698162674  122.04724409448799  -29.133858267716501  0
-61.023622047244004  122.04724409448799  -29.133858267716501  0
-81.364829396325348  122.04724409448799  -29.133858267716501  0
-101.70603674540668  122.04724409448799  -29.133858267716501  0
-122.04724409448799  103.27074500302831  -29.133858267716501  0
-122.04724409448799  84.494245911568612  -29.133858267716501  0
-122.04724409448799  65.717746820108914  -29.133858267716501  0
-122.04724409448799  46.94124772864923  -29.133858267716501  0
-122.04724409448799  28.16474863718954  -29.133858267716501  0
-122.04724409448799  9.3882495457298489  -29.133858267716501  0
-122.04724409448799  -9.3882495457298418  -29.133858267716501  0
-122.04724409448799  -28.164748637189533  -29.133858267716501  0
-122.04724409448799  -46.941247728649223  -29.133858267716501  0
-122.04724409448799  -65.717746820108914  -29.133858267716501  0
-122.04724409448799  -84.494245911568612  -29.133858267716501  0
-122.04724409448799  -103.2707450030283  -29.133858267716501  0
-103.27074500302831  -122.04724409448799  -29.133858267716501  0
-84.494245911568612  -122.04724409448799  -29.133858267716501  0
-65.717746820108914  -122.04724409448799  -29.133858267716501  0
-46.94124772864923  -122.04724409448799  -29.133858267716501  0
-28.16474863718954  -122.04724409448799  -29.133858267716501  0
-9.3882495457298489  -122.04724409448799  -29.133858267716501  0
9.3882495457298418  -122.04724409448799  -29.133858267716501  0
28.164748637189533  -122.04724409448799  -29.133858267716501  0
46.941247728649223  -122.04724409448799  -29.133858267716501  0
65.717746820108914  -122.04724409448799  -29.133858267716501  0
84.494245911568612  -122.04724409448799  -29.133858267716501  0
103.2707450030283  -122.04724409448799  -29.133858267716501  0
122.04724409448799  -94.925634295712882  -29.133858267716501  0
122.04724409448799  -67.804024496937771  -29.133858267716501  0
122.04724409448799  -40.68241469816266  -29.133858267716501  0
122.04724409448799  -13.560804899387549  -29.133858267716501  0
122.04724409448799  13.560804899387563  -29.133858267716501  0
122.04724409448799  40.682414698162674  -29.133858267716501  0
122.04724409448799  67.804024496937785  -29.133858267716501  0
122.04724409448799  94.925634295712896  -29.133858267716501  0
-5.9114881878485904e-16  127.29061561637586  -64.173228346456696  0
-115.07222910989202  -180.96010955651997  -112.20837396257207  0
-104.03788843444343  -175.5819565709655  -94.495791725189832  0
104.03788843444343  -175.58195657096553  -94.495791725189918  0
115.07222910989199  -180.96010955652  -112.20837396257215  0
-91.091584748344985  -168.14240983471242  -69.994148925390192  0
91.091584748344957  -168.14240983471242  -69.994148925390235  0
104.03788843444337  175.58195657096522  -94.495791725190031  0
-104.0378884344434  175.58195657096522  -94.495791725190031  0
-115.07222910989202  180.96010955651968  -112.20837396257227  0
115.07222910989199  180.96010955651968  -112.20837396257227  0
-91.091584748344957  168.14240983471211  -69.994148925390334  0
91.091584748344928  168.14240983471211  -69.994148925390334  0
-129.92125984251999  30.813152193641177  -49.286409548259556  0
-129.92125984251999  87.752070979431693  -45.176547190701967  0
-129.92125984251999  -87.823078379448219  -45.208427361161178  0
-129.92125984251999  -30.948978099744298  -49.27739770384116  0
-78.668315624986988  -44.729788030996929  -107.40847310530219  0
-79.30416567014143  -118.87370601033248  -108.04432315045663  0
-78.69565593604689  117.52071786401416  -107.43581341636209  0
-73.785094002899655  33.947186554081327  -102.52525148321486  0
1.1822976375697181e-15  -127.29061561637594  -64.173228346456696  0
78.75281376427084  66.90287445013746  -107.49297124458583  0
78.665747413309163  1.3382349241462634  -107.40590489362415  0
75.069601725784835  128.45497549389984  -103.80975920609983  0
78.757628642415639  -120.44559914345032  -107.49778612273064  0
74.349996486328976  -57.800067524239154  -103.09015396664397  0
129.92125984251999  84.155451708094787  -46.073477689864283  0
129.92125984251999  -28.20849015924016  -56.455521170765849  0
129.92125984251999  28.075504628942682  -56.463860966463564  0
129.92125984251999  -84.232705132436521  -46.105330994482991  0
-81.695648737954514  5.6236216698984454e-15  -64.173228346456696  0
74.01574803149586  7.1054273576010019e-15  -64.173228346456696  0
Triangles
868
93 2 94  1
3 94 4  1
2 93 1  1
94 3 93  1
5 4 3  2
4 5 6  2
96 95 7  3
95 93 1  3
93 95 96  3
93 96 5  3
93 5 3  3
99 103 98  4
105 10 11  4
9 101 8  4
98 102 97  4
100 104 99  4
10 105 100  4
104 100 105  4
103 99 104  4
101 9 97  4
102 98 103  4
97 102 101  4
106 13 107  5
10 107 11  5
13 106 12  5
107 10 106  5
108 15 109  6
15 108 14  6
9 109 8  6
109 9 108  6
12 106 110  7
111 100 99  7
100 110 106  7
99 113 112  7
113 99 98  7
111 99 112  7
110 100 111  7
100 106 10  7
113 98 114  7
114 98 115  7
116 97 108  7
97 116 115  7
116 108 14  7
97 115 98  7
108 97 9  7
117 19 118  8
16 118 17  8
19 117 18  8
118 16 117  8
16 17 20  9
20 17 21  9
117 120 18  10
120 119 22  10
119 120 117  10
119 117 16  10
119 16 20  10
26 121 122  11
121 26 25  11
122 121 23  11
122 23 24  11
28 27 24  12
24 27 23  12
29 123 124  13
124 121 25  13
121 124 123  13
23 123 27  13
123 23 121  13
131 32 33  14
125 129 128  14
129 126 130  14
127 31 125  14
126 131 130  14
125 128 127  14
131 126 32  14
31 127 30  14
126 129 125  14
133 31 30  15
132 35 34  15
31 133 132  15
35 132 133  15
37 134 135  16
134 37 36  16
135 134 32  16
135 32 33  16
139 125 138  17
125 139 132  17
138 125 137  17
132 139 34  17
126 134 136  17
125 132 31  17
126 136 137  17
134 36 136  17
134 126 32  17
137 125 126  17
141 40 41  18
140 39 38  18
40 141 140  18
39 140 141  18
41 42 43  19
42 41 40  19
38 140 142  20
142 143 44  20
143 142 140  20
42 140 40  20
140 42 143  20
48 145 146  21
45 147 144  21
146 402 147  21
402 46 144  21
47 402 145  21
402 47 46  21
144 147 402  21
402 146 145  21
50 49 148  22
148 49 51  22
53 52 149  23
52 54 149  23
153 102 57  24
156 408 17  24
404 150 151  24
105 104 56  24
4 107 11  24
102 153 103  24
104 154 56  24
407 151 4  24
4 151 6  24
404 51 403  24
150 404 403  24
2 13 94  24
407 4 11  24
51 404 152  24
50 403 148  24
403 50 55  24
58 406 157  24
105 56 152  24
53 406 149  24
57 102 101  24
408 156 405  24
154 103 153  24
54 406 58  24
405 157 406  24
17 408 8  24
101 408 155  24
107 4 94  24
94 13 107  24
118 17 109  24
156 17 21  24
101 155 57  24
103 154 104  24
109 15 19  24
109 17 8  24
109 19 118  24
51 148 403  24
403 55 150  24
151 407 404  24
105 407 11  24
405 156 157  24
405 53 155  24
406 54 149  24
406 53 405  24
407 105 152  24
152 404 407  24
405 155 408  24
408 101 8  24
131 414 33  25
35 122 133  25
28 158 24  25
158 413 24  25
64 411 59  25
410 159 411  25
63 411 165  25
45 131 130  25
48 128 127  25
127 164 48  25
24 413 30  25
128 48 146  25
413 158 410  25
133 24 30  25
127 413 164  25
24 133 122  25
128 146 129  25
26 122 35  25
59 411 159  25
414 41 33  25
130 147 45  25
39 135 141  25
161 409 160  25
43 41 161  25
135 41 141  25
135 39 37  25
62 412 409  25
414 161 41  25
147 130 129  25
129 146 147  25
412 61 60  25
163 131 45  25
62 409 163  25
41 135 33  25
61 412 162  25
412 62 162  25
161 414 409  25
410 158 159  25
410 63 164  25
411 64 165  25
411 63 410  25
412 60 160  25
160 409 412  25
410 164 413  25
413 127 30  25
414 131 163  25
163 409 414  25
62 65 162  26
65 61 162  26
64 66 165  27
66 63 165  27
210 111 112  28
214 12 213  28
231 197 198  28
184 137 138  28
186 136 137  28
186 137 185  28
69 142 190  28
139 180 181  28
189 38 36  28
136 186 187  28
137 184 185  28
116 204 205  28
36 188 189  28
120 203 18  28
229 195 196  28
112 209 210  28
13 1 2  28
67 166 225  28
233 200 201  28
225 7 67  28
95 214 67  28
7 95 67  28
213 110 212  28
214 95 1  28
166 224 225  28
224 166 167  28
124 29 68  28
110 213 12  28
12 214 1  28
1 13 12  28
110 211 212  28
211 110 111  28
209 113 208  28
111 210 211  28
170 222 169  28
207 115 206  28
197 230 196  28
223 169 222  28
167 223 224  28
222 170 221  28
221 171 220  28
221 170 171  28
169 223 168  28
223 167 168  28
176 216 217  28
220 172 219  28
217 174 175  28
216 176 177  28
174 217 218  28
218 173 174  28
172 220 171  28
217 175 176  28
173 218 219  28
219 172 173  28
216 177 215  28
177 68 215  28
178 124 68  28
29 215 68  28
124 178 25  28
180 34 179  28
25 35 26  28
36 39 37  28
25 178 179  28
142 38 190  28
184 138 183  28
139 34 180  28
183 138 182  28
182 139 181  28
139 182 138  28
136 187 188  28
36 136 188  28
142 69 44  28
192 226 191  28
39 36 38  28
38 189 190  28
226 69 191  28
69 226 44  28
229 196 230  28
226 192 227  28
228 193 194  28
116 206 115  28
229 194 195  28
35 25 34  28
25 179 34  28
194 229 228  28
193 228 227  28
227 192 193  28
230 197 231  28
232 199 200  28
232 200 233  28
199 232 231  28
199 231 198  28
113 209 112  28
208 114 207  28
115 207 114  28
208 113 114  28
14 203 204  28
206 116 205  28
116 14 204  28
234 70 22  28
201 234 233  28
70 203 120  28
234 201 202  28
14 15 18  28
19 18 15  28
203 14 18  28
120 22 70  28
70 234 202  28
123 416 27  29
215 416 123  29
224 417 223  29
215 123 29  29
245 5 151  29
5 245 244  29
243 417 5  29
245 151 150  29
225 417 224  29
5 244 243  29
242 418 417  29
245 150 55  29
151 5 6  29
417 225 96  29
418 220 221  29
7 96 225  29
418 223 417  29
220 415 219  29
223 418 222  29
222 418 221  29
415 238 416  29
220 418 415  29
217 416 216  29
416 215 216  29
416 217 415  29
27 158 28  29
27 235 158  29
415 217 218  29
240 418 241  29
235 27 236  29
236 27 237  29
158 235 159  29
238 415 239  29
235 59 159  29
218 219 415  29
415 240 239  29
416 238 237  29
237 27 416  29
417 96 5  29
417 243 242  29
418 242 241  29
418 240 415  29
245 254 244  30
250 240 241  30
245 50 254  30
250 239 240  30
243 253 252  30
242 251 241  30
239 250 249  30
249 238 239  30
237 248 247  30
248 237 238  30
235 64 59  30
247 236 237  30
64 235 246  30
236 246 235  30
243 252 242  30
246 236 247  30
50 245 55  30
238 249 248  30
253 243 244  30
64 246 66  30
250 241 251  30
251 242 252  30
244 254 253  30
254 50 49  30
422 421 248  31
248 421 247  31
250 422 249  31
421 47 145  31
419 71 256  31
419 422 250  31
49 51 254  31
256 422 419  31
71 420 257  31
63 421 164  31
63 66 246  31
421 63 246  31
252 420 419  31
47 422 255  31
254 420 253  31
421 422 47  31
164 145 48  31
51 420 254  31
420 252 253  31
152 56 257  31
419 420 71  31
419 250 251  31
251 252 419  31
420 51 152  31
152 257 420  31
145 164 421  31
421 246 247  31
248 249 422  31
422 256 255  31
72 423 258  32
423 153 258  32
71 423 72  32
154 257 56  32
153 423 154  32
258 153 57  32
423 71 257  32
257 154 423  32
426 46 424  33
426 424 262  33
425 264 424  33
262 424 263  33
424 264 263  33
425 424 260  33
425 428 266  33
62 426 261  33
261 426 262  33
267 427 268  33
163 45 144  33
155 258 57  33
62 261 65  33
264 425 265  33
72 428 259  33
427 428 72  33
427 72 258  33
428 427 267  33
53 427 155  33
427 53 269  33
269 53 52  33
46 426 144  33
46 260 424  33
260 259 425  33
425 266 265  33
426 62 163  33
163 144 426  33
258 155 427  33
427 269 268  33
267 266 428  33
428 425 259  33
263 273 272  34
272 262 263  34
268 278 267  34
264 274 273  34
280 54 58  34
268 279 278  34
265 275 274  34
273 263 264  34
61 270 60  34
54 269 52  34
261 271 270  34
274 264 265  34
270 61 261  34
265 276 275  34
271 261 262  34
262 272 271  34
266 277 276  34
279 268 269  34
279 269 280  34
276 265 266  34
54 280 269  34
277 266 267  34
267 278 277  34
261 61 65  34
432 232 233  35
228 431 429  35
432 234 119  35
278 432 20  35
277 432 278  35
20 280 279  35
280 20 156  35
20 279 278  35
280 156 157  35
430 230 231  35
234 432 233  35
275 430 276  35
20 21 156  35
230 431 229  35
232 432 430  35
234 22 119  35
431 275 274  35
143 429 42  35
431 230 430  35
226 429 143  35
429 272 42  35
226 143 44  35
43 42 161  35
228 429 227  35
270 161 42  35
161 270 160  35
275 431 430  35
270 42 271  35
157 58 280  35
271 42 272  35
270 60 160  35
272 429 273  35
429 226 227  35
273 431 274  35
231 232 430  35
430 277 276  35
431 273 429  35
431 228 229  35
432 119 20  35
432 277 430  35
282 433 255  36
284 433 283  36
281 255 47  36
73 282 281  36
255 281 282  36
433 284 256  36
285 284 74  36
256 284 285  36
256 285 71  36
256 255 433  36
433 282 283  36
289 260 288  37
260 289 46  37
434 259 287  37
286 259 72  37
259 434 260  37
288 76 289  37
286 287 259  37
287 286 75  37
287 288 434  37
288 260 434  37
291 47 292  38
281 291 290  38
292 46 293  38
291 281 47  38
290 73 281  38
73 290 77  38
294 76 78  38
293 289 294  38
46 292 47  38
76 294 289  38
289 293 46  38
302 283 282  39
297 284 298  39
79 284 297  39
282 304 303  39
82 83 295  39
83 79 295  39
79 297 296  39
298 284 299  39
284 79 74  39
299 283 300  39
283 302 301  39
77 282 73  39
282 77 304  39
306 77 80  39
304 77 305  39
296 295 79  39
77 306 305  39
282 303 302  39
306 80 81  39
283 301 300  39
283 299 284  39
310 71 309  40
74 311 79  40
71 310 285  40
309 72 308  40
311 74 285  40
308 286 307  40
285 310 311  40
307 75 84  40
286 308 72  40
72 309 71  40
75 307 286  40
317 287 316  41
288 314 315  41
85 320 86  41
288 316 287  41
319 287 318  41
75 319 84  41
319 75 287  41
287 317 318  41
320 85 84  41
84 319 320  41
88 312 78  41
313 288 76  41
78 312 313  41
288 313 314  41
312 88 87  41
313 76 78  41
316 288 315  41
77 327 80  42
290 326 327  42
326 290 291  42
291 325 326  42
325 292 324  42
327 77 290  42
292 325 291  42
323 293 322  42
78 321 294  42
324 292 323  42
322 294 321  42
321 78 88  42
293 323 292  42
294 322 293  42
332 325 333  43
324 334 333  43
329 326 330  43
335 323 336  43
327 329 328  43
326 329 327  43
327 328 80  43
334 324 323  43
330 326 331  43
331 325 332  43
80 328 81  43
323 335 334  43
325 331 326  43
338 321 339  43
337 322 338  43
336 322 337  43
333 325 324  43
322 336 323  43
339 88 87  43
321 338 322  43
88 339 321  43
353 343 352  44
345 348 349  44
343 353 342  44
347 85 86  44
355 342 354  44
342 353 354  44
358 340 357  44
341 355 356  44
358 83 340  44
355 341 342  44
83 358 82  44
341 357 340  44
357 341 356  44
350 345 349  44
348 346 347  44
351 344 350  44
348 345 346  44
352 344 351  44
344 352 343  44
85 347 346  44
345 350 344  44
310 341 342  45
341 311 340  45
344 309 343  45
79 340 311  45
340 79 83  45
341 310 311  45
309 342 343  45
309 344 308  45
342 309 310  45
345 307 308  45
307 345 346  45
307 346 84  45
308 344 345  45
84 346 85  45
380 296 379  46
387 354 386  46
378 297 298  46
381 91 82  46
373 304 372  46
86 393 92  46
368 328 329  46
335 362 363  46
389 351 388  46
316 397 398  46
393 86 347  46
380 295 296  46
382 82 91  46
383 357 358  46
295 380 381  46
381 82 295  46
358 82 382  46
357 383 384  46
358 382 383  46
385 356 384  46
357 384 356  46
356 385 355  46
355 385 386  46
298 377 378  46
377 298 299  46
297 378 379  46
379 296 297  46
375 302 374  46
299 376 377  46
376 300 375  46
300 376 299  46
374 303 373  46
367 329 330  46
303 374 302  46
306 371 305  46
355 386 354  46
354 387 353  46
302 375 301  46
375 300 301  46
305 372 304  46
304 373 303  46
81 328 369  46
372 305 371  46
371 306 370  46
306 81 370  46
368 329 367  46
369 90 81  46
90 370 81  46
331 367 330  46
328 368 369  46
367 331 366  46
365 333 364  46
332 366 331  46
366 332 365  46
364 334 363  46
334 364 333  46
333 365 332  46
362 335 336  46
363 334 335  46
361 338 360  46
336 361 362  46
361 336 337  46
338 361 337  46
339 360 338  46
360 339 359  46
87 312 401  46
312 400 401  46
339 87 359  46
359 87 89  46
351 389 350  46
401 89 87  46
400 312 313  46
397 316 317  46
400 314 399  46
400 313 314  46
398 315 316  46
315 399 314  46
399 315 398  46
317 396 397  46
396 317 318  46
349 390 391  46
396 318 395  46
390 349 350  46
353 387 388  46
350 389 390  46
353 388 352  46
388 351 352  46
320 86 394  46
394 395 320  46
393 347 392  46
92 394 86  46
391 348 349  46
320 395 319  46
395 318 319  46
348 391 392  46
392 347 348  46
181 366 182  47
185 363 186  47
365 183 182  47
367 181 180  47
179 368 180  47
367 180 368  47
90 178 68  47
365 182 366  47
368 179 369  47
178 90 369  47
183 365 364  47
183 364 184  47
369 179 178  47
364 185 184  47
366 181 367  47
359 190 189  47
361 188 187  47
190 359 89  47
189 360 359  47
190 89 69  47
360 189 188  47
188 361 360  47
187 362 361  47
363 185 364  47
362 187 186  47
186 363 362  47
378 168 379  48
167 379 168  48
171 376 172  48
380 167 381  48
381 166 91  48
167 380 379  48
377 171 170  48
166 381 167  48
91 166 67  48
169 378 170  48
171 377 376  48
168 378 169  48
170 378 377  48
173 375 374  48
177 371 370  48
371 176 175  48
177 370 90  48
173 374 174  48
177 90 68  48
371 177 176  48
371 175 372  48
175 373 372  48
375 173 172  48
172 376 375  48
373 175 174  48
174 374 373  48
210 386 387  49
206 390 205  49
210 387 209  49
386 211 385  49
213 384 212  49
214 91 382  49
384 213 383  49
383 214 382  49
385 212 384  49
209 388 208  49
211 386 210  49
214 383 213  49
91 214 67  49
207 390 206  49
212 385 211  49
390 207 389  49
203 393 92  49
205 391 204  49
203 92 70  49
208 389 207  49
388 209 387  49
393 203 204  49
391 205 390  49
393 204 392  49
204 391 392  49
389 208 388  49
395 199 200  50
397 198 396  50
394 202 92  50
395 201 394  50
194 399 400  50
198 397 197  50
197 397 196  50
199 396 198  50
199 395 396  50
202 394 201  50
195 398 399  50
201 395 200  50
92 202 70  50
400 193 194  50
191 89 69  50
192 401 191  50
89 191 401  50
400 192 193  50
399 194 195  50
398 195 196  50
401 192 400  50
196 397 398  50
Edges
449
1 2  1
1 93  2
93 3  2
4 3  3
2 94  4
94 4  4
3 5  5
5 6  6
4 6  7
7 95  8
95 1  8
7 96  9
96 5  9
8 9  10
9 97  11
97 98  11
98 99  11
99 100  11
100 10  11
10 11  12
8 101  13
101 102  13
102 103  13
103 104  13
104 105  13
105 11  13
12 106  14
106 10  14
13 12  15
11 107  16
107 13  16
14 15  17
14 108  18
108 9  18
15 109  19
109 8  19
12 110  20
110 111  20
111 112  20
112 113  20
113 114  20
114 115  20
115 116  20
116 14  20
16 17  21
18 117  22
117 16  22
19 18  23
17 118  24
118 19  24
20 21  25
20 16  26
21 17  27
22 119  28
119 20  28
18 120  29
120 22  29
23 24  30
25 121  31
121 23  31
26 25  32
24 122  33
122 26  33
27 28  34
27 23  35
28 24  36
29 123  37
123 27  37
25 124  38
124 29  38
30 31  39
31 125  40
125 126  40
126 32  40
32 33  41
30 127  42
127 128  42
128 129  42
129 130  42
130 131  42
131 33  42
34 35  43
34 132  44
132 31  44
35 133  45
133 30  45
36 134  46
134 32  46
37 36  47
33 135  48
135 37  48
36 136  49
136 137  49
137 138  49
138 139  49
139 34  49
38 39  50
38 140  51
140 40  51
41 40  52
39 141  53
141 41  53
40 42  54
42 43  55
41 43  56
44 142  57
142 38  57
44 143  58
143 42  58
45 144  59
144 46  59
46 47  60
48 145  61
145 47  61
48 146  62
146 147  62
147 45  62
49 50  63
51 49  64
50 148  65
148 51  65
52 53  66
54 52  67
53 149  68
149 54  68
55 150  69
150 151  69
151 6  69
50 55  70
56 152  71
152 51  71
57 153  72
153 154  72
154 56  72
53 155  73
155 57  73
58 54  74
21 156  75
156 157  75
157 58  75
15 19  76
2 13  77
28 158  78
158 159  78
159 59  78
35 26  79
39 37  80
60 160  81
160 161  81
161 43  81
61 60  82
62 162  83
162 61  83
45 163  84
163 62  84
63 164  85
164 48  85
64 165  86
165 63  86
59 64  87
62 65  88
65 61  89
64 66  90
66 63  91
67 166  92
166 167  92
167 168  92
168 169  92
169 170  92
170 171  92
171 172  92
172 173  92
173 174  92
174 175  92
175 176  92
176 177  92
177 68  92
68 178  93
178 179  93
179 180  93
180 181  93
181 182  93
182 183  93
183 184  93
184 185  93
185 186  93
186 187  93
187 188  93
188 189  93
189 190  93
190 69  93
69 191  94
191 192  94
192 193  94
193 194  94
194 195  94
195 196  94
196 197  94
197 198  94
198 199  94
199 200  94
200 201  94
201 202  94
202 70  94
70 203  95
203 204  95
204 205  95
205 206  95
206 207  95
207 208  95
208 209  95
209 210  95
210 211  95
211 212  95
212 213  95
213 214  95
214 67  95
29 215  96
215 216  96
216 217  96
217 218  96
218 219  96
219 220  96
220 221  96
221 222  96
222 223  96
223 224  96
224 225  96
225 7  96
44 226  97
226 227  97
227 228  97
228 229  97
229 230  97
230 231  97
231 232  97
232 233  97
233 234  97
234 22  97
59 235  98
235 236  98
236 237  98
237 238  98
238 239  98
239 240  98
240 241  98
241 242  98
242 243  98
243 244  98
244 245  98
245 55  98
66 246  99
246 247  99
247 248  99
248 249  99
249 250  99
250 251  99
251 252  99
252 253  99
253 254  99
254 49  99
47 255  100
255 256  100
256 71  100
71 257  101
257 56  101
71 72  102
72 258  103
258 57  103
72 259  104
259 260  104
260 46  104
65 261  105
261 262  105
262 263  105
263 264  105
264 265  105
265 266  105
266 267  105
267 268  105
268 269  105
269 52  105
60 270  106
270 271  106
271 272  106
272 273  106
273 274  106
274 275  106
275 276  106
276 277  106
277 278  106
278 279  106
279 280  106
280 58  106
47 281  107
281 73  107
73 282  108
282 283  108
283 284  108
284 74  108
74 285  109
285 71  109
72 286  110
286 75  110
75 287  111
287 288  111
288 76  111
76 289  112
289 46  112
77 73  113
78 76  114
77 290  115
290 291  115
291 292  115
292 293  115
293 294  115
294 78  115
79 74  116
80 77  117
81 80  118
82 295  119
295 296  119
296 297  119
297 298  119
298 299  119
299 300  119
300 301  119
301 302  119
302 303  119
303 304  119
304 305  119
305 306  119
306 81  119
82 83  120
79 83  121
84 75  122
84 307  123
307 308  123
308 309  123
309 310  123
310 311  123
311 79  123
85 84  124
86 85  125
87 312  126
312 313  126
313 314  126
314 315  126
315 316  126
316 317  126
317 318  126
318 319  126
319 320  126
320 86  126
87 88  127
78 88  128
88 321  129
321 322  129
322 323  129
323 324  129
324 325  129
325 326  129
326 327  129
327 80  129
81 328  130
328 329  130
329 330  130
330 331  130
331 332  130
332 333  130
333 334  130
334 335  130
335 336  130
336 337  130
337 338  130
338 339  130
339 87  130
83 340  131
340 341  131
341 342  131
342 343  131
343 344  131
344 345  131
345 346  131
346 85  131
86 347  132
347 348  132
348 349  132
349 350  132
350 351  132
351 352  132
352 353  132
353 354  132
354 355  132
355 356  132
356 357  132
357 358  132
358 82  132
89 359  133
359 360  133
360 361  133
361 362  133
362 363  133
363 364  133
364 365  133
365 366  133
366 367  133
367 368  133
368 369  133
369 90  133
90 370  134
370 371  134
371 372  134
372 373  134
373 374  134
374 375  134
375 376  134
376 377  134
377 378  134
378 379  134
379 380  134
380 381  134
381 91  134
91 382  135
382 383  135
383 384  135
384 385  135
385 386  135
386 387  135
387 388  135
388 389  135
389 390  135
390 391  135
391 392  135
392 393  135
393 92  135
92 394  136
394 395  136
395 396  136
396 397  136
397 398  136
398 399  136
399 400  136
400 401  136
401 89  136
69 89  137
68 90  138
67 91  139
70 92  140
End
