MeshVersionFormatted 1

Dimension
3

Vertices
795
-9.7440944881889795  10.8267716535433  8.4645669291338592  0
-17.618110236220499  10.8267716535433  8.4645669291338592  0
-17.618110236220499  10.8267716535433  0  0
-9.7440944881889795  10.8267716535433  0  0
-2.9921259842519699  6.4960629921259896  6.2992125984251999  0
-8.6220472440944906  6.4960629921259896  6.2992125984251999  0
-8.6220472440944906  6.4960629921259896  0  0
-2.9921259842519699  6.4960629921259896  0  0
-5.8070866141732296  9.3110236220472409  0  0
-7.0659752786711403  9.0138403211218101  6.2992125984251999  0
-17.618110236220499  13.582677165354299  0  0
-17.618110236220499  13.582677165354299  9.4133858267716501  0
-9.7440944881889795  13.582677165354299  9.4133858267716501  0
-9.7440944881889795  13.582677165354299  0  0
-4.5275590551181102  13.582677165354299  0  0
0  9.0551181102362204  0  0
0  0  0  0
-27.362204724409398  0  0  0
-27.362204724409398  9.0551181102362204  0  0
-22.834645669291302  13.582677165354299  0  0
-21.555118110236201  9.3110236220472409  0  0
-18.740157480314899  6.4960629921259896  0  0
-24.370078740157499  6.4960629921259896  0  0
-5.8070866141732296  10.7874015748031  6.2992125984251999  0
-1.5157480314960601  6.4960629921259896  6.2992125984251999  0
-10.0984251968504  6.4960629921259896  6.2992125984251999  0
-18.740157480314899  6.4960629921259896  6.2992125984251999  0
-24.370078740157499  6.4960629921259896  6.2992125984251999  0
-22.8140067747341  9.0138403211218101  6.2992125984251999  0
-27.362204724409398  9.0551181102362204  11.6141732283465  0
-22.834645669291302  13.582677165354299  11.6141732283465  0
-4.5275590551181102  13.582677165354299  11.6141732283465  0
0  9.0551181102362204  11.6141732283465  0
0  0  11.6141732283465  0
-27.362204724409398  0  11.6141732283465  0
-1.5157480314960601  6.4960629921259896  11.6141732283465  0
-10.0984251968504  6.4960629921259896  11.6141732283465  0
-5.8070866141732296  10.7874015748031  11.6141732283465  0
-21.555118110236201  10.7874015748031  6.2992125984251999  0
-17.263779527558999  6.4960629921259896  6.2992125984251999  0
-25.846456692913399  6.4960629921259896  6.2992125984251999  0
-21.555118110236201  10.7874015748031  11.6141732283465  0
-17.263779527558999  6.4960629921259896  11.6141732283465  0
-25.846456692913399  6.4960629921259896  11.6141732283465  0
-11.056430446194232  10.8267716535433  8.4645669291338592  0
-12.368766404199485  10.8267716535433  8.4645669291338592  0
-13.681102362204738  10.8267716535433  8.4645669291338592  0
-14.993438320209993  10.8267716535433  8.4645669291338592  0
-16.305774278215246  10.8267716535433  8.4645669291338592  0
-9.8039064842038783  10.143117410760112  8.4645669291338592  0
-9.9815251150160798  9.4802356561981505  8.4645669291338592  0
-10.271553528407695  8.8582677165354262  8.4645669291338592  0
-10.665179357799271  8.2961117728876328  8.4645669291338592  0
-11.15044248154903  7.810848649137875  8.4645669291338592  0
-11.712598425196822  7.4172228197462982  8.4645669291338592  0
-12.334566364859546  7.1271944063546826  8.4645669291338592  0
-12.997448119421508  6.9495757755424794  8.4645669291338592  0
-13.681102362204697  6.8897637795275504  8.4645669291338592  0
-14.364756604987887  6.9495757755424794  8.4645669291338592  0
-15.027638359549849  7.1271944063546808  8.4645669291338592  0
-15.649606299212573  7.4172228197462964  8.4645669291338592  0
-16.211762242860367  7.8108486491378724  8.4645669291338592  0
-16.697025366610124  8.296111772887631  8.4645669291338592  0
-17.090651196001701  8.8582677165354227  8.4645669291338592  0
-17.380679609393315  9.4802356561981469  8.4645669291338592  0
-17.55829824020552  10.143117410760109  8.4645669291338592  0
-17.618110236220499  10.8267716535433  2.1161417322834648  0
-17.618110236220499  10.8267716535433  4.2322834645669296  0
-17.618110236220499  10.8267716535433  6.3484251968503944  0
-9.8039064842038783  10.143117410760112  0  0
-9.9815251150160798  9.4802356561981505  0  0
-10.271553528407695  8.8582677165354262  0  0
-10.665179357799271  8.2961117728876328  0  0
-11.15044248154903  7.810848649137875  0  0
-11.712598425196822  7.4172228197462982  0  0
-12.334566364859546  7.1271944063546826  0  0
-12.997448119421508  6.9495757755424794  0  0
-13.681102362204697  6.8897637795275504  0  0
-14.364756604987887  6.9495757755424794  0  0
-15.027638359549849  7.1271944063546808  0  0
-15.649606299212573  7.4172228197462964  0  0
-16.211762242860367  7.8108486491378724  0  0
-16.697025366610124  8.296111772887631  0  0
-17.090651196001701  8.8582677165354227  0  0
-17.380679609393315  9.4802356561981469  0  0
-17.55829824020552  10.143117410760109  0  0
-9.7440944881889795  10.8267716535433  6.3484251968503944  0
-9.7440944881889795  10.8267716535433  4.2322834645669296  0
-9.7440944881889795  10.8267716535433  2.1161417322834648  0
-3.0348915614026435  6.007250208536008  6.2992125984251999  0
-3.1618888824333689  5.5332897540242048  6.2992125984251999  0
-3.3692591980083719  5.0885826771653599  6.2992125984251999  0
-3.65070166602335  4.6866411774571874  6.2992125984251999  0
-3.9976647995044283  4.3396780439761091  6.2992125984251999  0
-4.3996062992125999  4.0582355759611328  6.2992125984251999  0
-4.8443133760714447  3.8508652603861293  6.2992125984251999  0
-5.3182738305832489  3.7238679393554035  6.2992125984251999  0
-5.8070866141732305  3.6811023622047294  6.2992125984251999  0
-6.2958993977632112  3.7238679393554035  6.2992125984251999  0
-6.7698598522750135  3.8508652603861289  6.2992125984251999  0
-7.2145669291338592  4.0582355759611319  6.2992125984251999  0
-7.6165084288420317  4.3396780439761109  6.2992125984251999  0
-7.9634715623231092  4.6866411774571883  6.2992125984251999  0
-8.2449140303380872  5.0885826771653591  6.2992125984251999  0
-8.4522843459130907  5.5332897540242074  6.2992125984251999  0
-8.5792816669438157  6.0072502085360098  6.2992125984251999  0
-8.6220472440944906  6.4960629921259896  2.0997375328083998  0
-8.6220472440944906  6.4960629921259896  4.1994750656167996  0
-3.0348915614026435  6.0072502085360089  0  0
-3.1618888824333689  5.5332897540242056  0  0
-3.3692591980083724  5.0885826771653599  0  0
-3.6507016660233504  4.6866411774571883  0  0
-3.997664799504427  4.3396780439761109  0  0
-4.3996062992125999  4.0582355759611328  0  0
-4.8443133760714447  3.8508652603861293  0  0
-5.3182738305832489  3.7238679393554035  0  0
-5.8070866141732287  3.6811023622047294  0  0
-6.2958993977632094  3.7238679393554035  0  0
-6.7698598522750135  3.8508652603861289  0  0
-7.2145669291338592  4.0582355759611319  0  0
-7.6165084288420308  4.3396780439761109  0  0
-7.9634715623231092  4.6866411774571866  0  0
-8.2449140303380855  5.0885826771653582  0  0
-8.4522843459130907  5.5332897540242056  0  0
-8.5792816669438157  6.007250208536008  0  0
-2.9921259842519699  6.4960629921259896  4.7244094488188999  0
-2.9921259842519699  6.4960629921259896  3.1496062992125999  0
-2.9921259842519699  6.4960629921259896  1.5748031496063  0
-5.3182738305832489  9.2682580448965766  0  0
-4.8443133760714456  9.1412607238658499  0  0
-4.3996062992125999  8.9338904082908464  0  0
-3.9976647995044283  8.6524479402758683  0  0
-3.6507016660233504  8.3054848067947908  0  0
-3.3692591980083728  7.9035433070866201  0  0
-3.1618888824333693  7.4588362302277744  0  0
-3.0348915614026435  6.9848757757159712  0  0
-8.5792816669438157  6.9848757757159694  0  0
-8.4522843459130907  7.4588362302277718  0  0
-8.2449140303380872  7.9035433070866201  0  0
-7.9634715623231092  8.3054848067947908  0  0
-7.6165084288420326  8.6524479402758683  0  0
-7.214566929133861  8.9338904082908464  0  0
-6.7698598522750135  9.1412607238658499  0  0
-6.2958993977632112  9.2682580448965766  0  0
-8.5742592157091782  7.0125503020528344  6.2992125984251999  0
-8.4325176723626605  7.5115013736642418  6.2992125984251999  0
-8.2016351494949156  7.9759753746660724  6.2992125984251999  0
-7.8894507766761413  8.3902020690499217  6.2992125984251999  0
-7.5065641164800612  8.7401172622272352  6.2992125984251999  0
-6.623112086395472  9.1901501801529779  6.2992125984251999  0
-6.1568501692804505  9.2892097486580312  6.2992125984251999  0
-5.6805591275077125  9.308178591301246  6.2992125984251999  0
-5.2078961365077525  9.2465127952457848  6.2992125984251999  0
-4.7524143409367472  9.1059805663173456  6.2992125984251999  0
-4.3271742316331467  8.8906115274476765  6.2992125984251999  0
-3.9443691489361399  8.6065811732150337  6.2992125984251999  0
-3.614975650688633  8.2620337936335719  6.2992125984251999  0
-3.3484387702771174  7.866848944677189  6.2992125984251999  0
-3.1524011896234017  7.4323581617650296  6.2992125984251999  0
-3.0324840928253276  6.9710200391697867  6.2992125984251999  0
-17.618110236220499  13.582677165354299  4.7066929133858251  0
-11.712598425196859  13.582677165354299  9.4133858267716501  0
-13.68110236220474  13.582677165354299  9.4133858267716501  0
-15.649606299212619  13.582677165354299  9.4133858267716501  0
-9.7440944881889795  13.582677165354299  4.7066929133858251  0
-7.1358267716535444  13.582677165354299  0  0
-0.068783795417167504  9.8413204894368871  0  0
-0.27304522085120109  10.603634507183143  0  0
-0.60657789625155711  11.318897637795276  0  0
-1.05924760005187  11.965376972990237  0  0
-1.6173001923640919  12.523429565302459  0  0
-2.2637795275590524  12.976099269102772  0  0
-2.9790426581711849  13.309631944503129  0  0
-3.7413566759174408  13.513893369937161  0  0
0  6.7913385826771648  0  0
0  4.5275590551181102  0  0
0  2.2637795275590551  0  0
-3.040244969378822  0  0  0
-6.0804899387576441  0  0  0
-9.1207349081364661  0  0  0
-12.160979877515288  0  0  0
-15.20122484689411  0  0  0
-18.241469816272932  0  0  0
-21.281714785651754  0  0  0
-24.321959755030576  0  0  0
-27.362204724409398  3.0183727034120733  0  0
-27.362204724409398  6.0367454068241466  0  0
-23.620848048491968  13.513893369937163  0  0
-24.383162066238224  13.309631944503129  0  0
-25.098425196850357  12.976099269102773  0  0
-25.744904532045318  12.523429565302461  0  0
-26.30295712435754  11.965376972990239  0  0
-26.755626828157855  11.318897637795278  0  0
-27.089159503558211  10.603634507183145  0  0
-27.293420928992244  9.8413204894368889  0  0
-20.2263779527559  13.582677165354299  0  0
-21.066305326646219  9.2682580448965766  0  0
-20.592344872134419  9.1412607238658499  0  0
-20.147637795275571  8.9338904082908464  0  0
-19.745696295567399  8.6524479402758683  0  0
-19.398733162086323  8.3054848067947908  0  0
-19.117290694071343  7.9035433070866201  0  0
-18.909920378496341  7.4588362302277744  0  0
-18.782923057465617  6.9848757757159712  0  0
-24.327313163006785  6.9848757757159694  0  0
-24.200315841976064  7.4588362302277718  0  0
-23.992945526401058  7.9035433070866201  0  0
-23.711503058386079  8.3054848067947908  0  0
-23.364539924905003  8.6524479402758683  0  0
-22.962598425196834  8.9338904082908464  0  0
-22.517891348337983  9.1412607238658499  0  0
-22.043930893826182  9.2682580448965766  0  0
-18.782923057465617  6.0072502085360089  0  0
-18.909920378496341  5.5332897540242056  0  0
-19.117290694071343  5.0885826771653599  0  0
-19.398733162086323  4.6866411774571883  0  0
-19.745696295567399  4.3396780439761109  0  0
-20.147637795275571  4.0582355759611328  0  0
-20.592344872134415  3.8508652603861293  0  0
-21.066305326646219  3.7238679393554035  0  0
-21.555118110236201  3.6811023622047294  0  0
-22.043930893826182  3.7238679393554035  0  0
-22.517891348337983  3.8508652603861289  0  0
-22.96259842519683  4.0582355759611319  0  0
-23.364539924905003  4.3396780439761109  0  0
-23.711503058386079  4.6866411774571866  0  0
-23.992945526401058  5.0885826771653582  0  0
-24.20031584197606  5.5332897540242056  0  0
-24.327313163006785  6.007250208536008  0  0
-5.0619034895395512  10.722206499146887  6.2992125984251999  0
-4.3393623770670118  10.528602191561585  6.2992125984251999  0
-3.6614173228346454  10.212471220964726  6.2992125984251999  0
-3.0486673442585501  9.7834190669279071  6.2992125984251999  0
-2.5197305393713125  9.2544822620406695  6.2992125984251999  0
-2.0906783853344928  8.6417322834645756  6.2992125984251999  0
-1.7745474147376346  7.9637872292322083  6.2992125984251999  0
-1.5809431071523319  7.2412461167596689  6.2992125984251999  0
-10.033230121194126  7.2412461167596662  6.2992125984251999  0
-9.8396258136088264  7.9637872292322047  6.2992125984251999  0
-9.5234948430119672  8.6417322834645738  6.2992125984251999  0
-9.0944426889751462  9.2544822620406695  6.2992125984251999  0
-8.5655058840879104  9.7834190669279053  6.2992125984251999  0
-7.9527559055118164  10.212471220964726  6.2992125984251999  0
-7.2748108512794474  10.528602191561585  6.2992125984251999  0
-6.552269738806908  10.722206499146887  6.2992125984251999  0
-1.5809431071523319  5.7508798674923121  6.2992125984251999  0
-1.7745474147376337  5.0283387550197718  6.2992125984251999  0
-2.0906783853344924  4.3503937007874054  6.2992125984251999  0
-2.5197305393713125  3.7376437222113097  6.2992125984251999  0
-3.0486673442585492  3.208706917324073  6.2992125984251999  0
-3.6614173228346445  2.7796547632872524  6.2992125984251999  0
-4.3393623770670109  2.4635237926903946  6.2992125984251999  0
-5.0619034895395512  2.2699194851050919  6.2992125984251999  0
-5.8070866141732287  2.2047244094488194  6.2992125984251999  0
-6.5522697388069062  2.2699194851050919  6.2992125984251999  0
-7.2748108512794474  2.4635237926903937  6.2992125984251999  0
-7.9527559055118129  2.7796547632872519  6.2992125984251999  0
-8.5655058840879086  3.2087069173240725  6.2992125984251999  0
-9.0944426889751462  3.7376437222113092  6.2992125984251999  0
-9.5234948430119655  4.3503937007874018  6.2992125984251999  0
-9.8396258136088264  5.0283387550197727  6.2992125984251999  0
-10.033230121194126  5.7508798674923112  6.2992125984251999  0
-18.782923057465613  6.0072502085360089  6.2992125984251999  0
-18.909920378496341  5.5332897540242048  6.2992125984251999  0
-19.117290694071343  5.0885826771653599  6.2992125984251999  0
-19.398733162086323  4.6866411774571874  6.2992125984251999  0
-19.745696295567399  4.33967804397611  6.2992125984251999  0
-20.147637795275571  4.0582355759611319  6.2992125984251999  0
-20.592344872134415  3.8508652603861289  6.2992125984251999  0
-21.066305326646219  3.7238679393554035  6.2992125984251999  0
-21.555118110236201  3.6811023622047294  6.2992125984251999  0
-22.043930893826182  3.7238679393554031  6.2992125984251999  0
-22.517891348337987  3.8508652603861289  6.2992125984251999  0
-22.96259842519683  4.0582355759611328  6.2992125984251999  0
-23.364539924905003  4.33967804397611  6.2992125984251999  0
-23.711503058386079  4.6866411774571866  6.2992125984251999  0
-23.992945526401058  5.0885826771653582  6.2992125984251999  0
-24.200315841976064  5.5332897540242056  6.2992125984251999  0
-24.327313163006789  6.0072502085360089  6.2992125984251999  0
-24.370078740157499  6.4960629921259896  1.5748031496063  0
-24.370078740157499  6.4960629921259896  3.1496062992125999  0
-24.370078740157499  6.4960629921259896  4.7244094488188999  0
-18.740157480314899  6.4960629921259896  4.7244094488188999  0
-18.740157480314899  6.4960629921259896  3.1496062992125999  0
-18.740157480314899  6.4960629921259896  1.5748031496063  0
-24.322290711772148  7.0125503020528352  6.2992125984251999  0
-24.180549168425632  7.5115013736642435  6.2992125984251999  0
-23.949666645557887  7.975975374666076  6.2992125984251999  0
-23.63748227273911  8.390202069049927  6.2992125984251999  0
-23.254595612543028  8.7401172622272387  6.2992125984251999  0
-22.371143582458437  9.1901501801529797  6.2992125984251999  0
-21.904881665343414  9.2892097486580312  6.2992125984251999  0
-21.428590623570678  9.3081785913012443  6.2992125984251999  0
-20.955927632570717  9.2465127952457831  6.2992125984251999  0
-20.500445836999713  9.1059805663173421  6.2992125984251999  0
-20.075205727696115  8.8906115274476747  6.2992125984251999  0
-19.692400644999108  8.6065811732150319  6.2992125984251999  0
-19.363007146751603  8.2620337936335702  6.2992125984251999  0
-19.096470266340088  7.8668489446771863  6.2992125984251999  0
-18.900432685686372  7.4323581617650278  6.2992125984251999  0
-18.780515588888299  6.9710200391697859  6.2992125984251999  0
-27.362204724409398  9.0551181102362204  2.9035433070866254  0
-27.362204724409398  9.0551181102362204  5.80708661417325  0
-27.362204724409398  9.0551181102362204  8.7106299212598746  0
-27.293420928992244  9.8413204894368871  11.6141732283465  0
-27.089159503558211  10.603634507183143  11.6141732283465  0
-26.755626828157855  11.318897637795276  11.6141732283465  0
-26.30295712435754  11.965376972990237  11.6141732283465  0
-25.744904532045318  12.523429565302459  11.6141732283465  0
-25.098425196850361  12.976099269102772  11.6141732283465  0
-24.383162066238228  13.309631944503129  11.6141732283465  0
-23.620848048491972  13.513893369937161  11.6141732283465  0
-22.834645669291302  13.582677165354299  2.903543307086625  0
-22.834645669291302  13.582677165354299  5.80708661417325  0
-22.834645669291302  13.582677165354299  8.7106299212598746  0
-19.783464566929105  13.582677165354299  11.6141732283465  0
-16.732283464566905  13.582677165354299  11.6141732283465  0
-13.681102362204706  13.582677165354299  11.6141732283465  0
-10.629921259842508  13.582677165354299  11.6141732283465  0
-7.5787401574803095  13.582677165354299  11.6141732283465  0
-4.5275590551181102  13.582677165354299  2.9035433070866254  0
-4.5275590551181102  13.582677165354299  5.80708661417325  0
-4.5275590551181102  13.582677165354299  8.7106299212598746  0
-3.7413566759174435  13.513893369937163  11.6141732283465  0
-2.9790426581711875  13.309631944503129  11.6141732283465  0
-2.2637795275590546  12.976099269102773  11.6141732283465  0
-1.6173001923640937  12.523429565302461  11.6141732283465  0
-1.0592476000518718  11.965376972990239  11.6141732283465  0
-0.606577896251558  11.318897637795278  11.6141732283465  0
-0.27304522085120109  10.603634507183145  11.6141732283465  0
-0.068783795417168392  9.8413204894368889  11.6141732283465  0
0  9.0551181102362204  2.903543307086625  0
0  9.0551181102362204  5.80708661417325  0
0  9.0551181102362204  8.7106299212598746  0
0  0  3.8713910761155002  0
0  0  7.7427821522310003  0
0  7.2440944881889759  11.6141732283465  0
0  5.4330708661417324  11.6141732283465  0
0  3.6220472440944884  11.6141732283465  0
0  1.8110236220472444  11.6141732283465  0
-27.362204724409398  0  3.8713910761155002  0
-27.362204724409398  0  7.7427821522310003  0
-1.9544431946006711  0  11.6141732283465  0
-3.9088863892013421  0  11.6141732283465  0
-5.8633295838020132  0  11.6141732283465  0
-7.8177727784026843  0  11.6141732283465  0
-9.7722159730033553  0  11.6141732283465  0
-11.726659167604028  0  11.6141732283465  0
-13.681102362204699  0  11.6141732283465  0
-15.63554555680537  0  11.6141732283465  0
-17.58998875140604  0  11.6141732283465  0
-19.544431946006711  0  11.6141732283465  0
-21.498875140607385  0  11.6141732283465  0
-23.453318335208056  0  11.6141732283465  0
-25.407761529808727  0  11.6141732283465  0
-27.362204724409398  1.811023622047244  11.6141732283465  0
-27.362204724409398  3.622047244094488  11.6141732283465  0
-27.362204724409398  5.4330708661417315  11.6141732283465  0
-27.362204724409398  7.2440944881889759  11.6141732283465  0
-1.5809431071523319  5.7508798674923121  11.6141732283465  0
-1.7745474147376337  5.0283387550197718  11.6141732283465  0
-2.0906783853344924  4.3503937007874054  11.6141732283465  0
-2.5197305393713125  3.7376437222113097  11.6141732283465  0
-3.0486673442585492  3.208706917324073  11.6141732283465  0
-3.6614173228346445  2.7796547632872524  11.6141732283465  0
-4.3393623770670109  2.4635237926903946  11.6141732283465  0
-5.0619034895395512  2.2699194851050919  11.6141732283465  0
-5.8070866141732287  2.2047244094488194  11.6141732283465  0
-6.5522697388069062  2.2699194851050919  11.6141732283465  0
-7.2748108512794474  2.4635237926903937  11.6141732283465  0
-7.9527559055118129  2.7796547632872519  11.6141732283465  0
-8.5655058840879086  3.2087069173240725  11.6141732283465  0
-9.0944426889751462  3.7376437222113092  11.6141732283465  0
-9.5234948430119655  4.3503937007874018  11.6141732283465  0
-9.8396258136088264  5.0283387550197727  11.6141732283465  0
-10.033230121194126  5.7508798674923112  11.6141732283465  0
-10.0984251968504  6.4960629921259896  8.9566929133858508  0
-1.5157480314960601  6.4960629921259896  8.9566929133858508  0
-10.033230121194126  7.2412461167596662  11.6141732283465  0
-9.8396258136088264  7.9637872292322047  11.6141732283465  0
-9.5234948430119672  8.6417322834645738  11.6141732283465  0
-9.0944426889751462  9.2544822620406695  11.6141732283465  0
-8.5655058840879104  9.7834190669279053  11.6141732283465  0
-7.9527559055118164  10.212471220964726  11.6141732283465  0
-7.2748108512794474  10.528602191561585  11.6141732283465  0
-6.552269738806908  10.722206499146887  11.6141732283465  0
-5.0619034895395512  10.722206499146887  11.6141732283465  0
-4.3393623770670118  10.528602191561585  11.6141732283465  0
-3.6614173228346454  10.212471220964726  11.6141732283465  0
-3.0486673442585501  9.7834190669279071  11.6141732283465  0
-2.5197305393713125  9.2544822620406695  11.6141732283465  0
-2.0906783853344928  8.6417322834645756  11.6141732283465  0
-1.7745474147376346  7.9637872292322083  11.6141732283465  0
-1.5809431071523319  7.2412461167596689  11.6141732283465  0
-20.809934985602524  10.722206499146887  6.2992125984251999  0
-20.087393873129983  10.528602191561585  6.2992125984251999  0
-19.409448818897616  10.212471220964726  6.2992125984251999  0
-18.796698840321522  9.7834190669279071  6.2992125984251999  0
-18.267762035434284  9.2544822620406695  6.2992125984251999  0
-17.838709881397463  8.6417322834645756  6.2992125984251999  0
-17.522578910800604  7.9637872292322083  6.2992125984251999  0
-17.328974603215304  7.2412461167596689  6.2992125984251999  0
-25.781261617257098  7.2412461167596662  6.2992125984251999  0
-25.587657309671798  7.9637872292322047  6.2992125984251999  0
-25.271526339074939  8.6417322834645738  6.2992125984251999  0
-24.842474185038117  9.2544822620406695  6.2992125984251999  0
-24.313537380150883  9.7834190669279053  6.2992125984251999  0
-23.700787401574789  10.212471220964726  6.2992125984251999  0
-23.022842347342419  10.528602191561585  6.2992125984251999  0
-22.300301234869881  10.722206499146887  6.2992125984251999  0
-17.328974603215304  5.7508798674923121  6.2992125984251999  0
-17.522578910800604  5.0283387550197718  6.2992125984251999  0
-17.838709881397463  4.3503937007874054  6.2992125984251999  0
-18.267762035434284  3.7376437222113097  6.2992125984251999  0
-18.796698840321522  3.208706917324073  6.2992125984251999  0
-19.409448818897616  2.7796547632872524  6.2992125984251999  0
-20.087393873129983  2.4635237926903946  6.2992125984251999  0
-20.809934985602524  2.2699194851050919  6.2992125984251999  0
-21.555118110236201  2.2047244094488194  6.2992125984251999  0
-22.300301234869877  2.2699194851050919  6.2992125984251999  0
-23.022842347342419  2.4635237926903937  6.2992125984251999  0
-23.700787401574786  2.7796547632872519  6.2992125984251999  0
-24.31353738015088  3.2087069173240725  6.2992125984251999  0
-24.842474185038117  3.7376437222113092  6.2992125984251999  0
-25.271526339074939  4.3503937007874018  6.2992125984251999  0
-25.587657309671798  5.0283387550197727  6.2992125984251999  0
-25.781261617257098  5.7508798674923112  6.2992125984251999  0
-20.809934985602524  10.722206499146887  11.6141732283465  0
-20.087393873129983  10.528602191561585  11.6141732283465  0
-19.409448818897616  10.212471220964726  11.6141732283465  0
-18.796698840321522  9.7834190669279071  11.6141732283465  0
-18.267762035434284  9.2544822620406695  11.6141732283465  0
-17.838709881397463  8.6417322834645756  11.6141732283465  0
-17.522578910800604  7.9637872292322083  11.6141732283465  0
-17.328974603215304  7.2412461167596689  11.6141732283465  0
-17.328974603215304  5.7508798674923121  11.6141732283465  0
-17.522578910800604  5.0283387550197718  11.6141732283465  0
-17.838709881397463  4.3503937007874054  11.6141732283465  0
-18.267762035434284  3.7376437222113097  11.6141732283465  0
-18.796698840321522  3.208706917324073  11.6141732283465  0
-19.409448818897616  2.7796547632872524  11.6141732283465  0
-20.087393873129983  2.4635237926903946  11.6141732283465  0
-20.809934985602524  2.2699194851050919  11.6141732283465  0
-21.555118110236201  2.2047244094488194  11.6141732283465  0
-22.300301234869877  2.2699194851050919  11.6141732283465  0
-23.022842347342419  2.4635237926903937  11.6141732283465  0
-23.700787401574786  2.7796547632872519  11.6141732283465  0
-24.31353738015088  3.2087069173240725  11.6141732283465  0
-24.842474185038117  3.7376437222113092  11.6141732283465  0
-25.271526339074939  4.3503937007874018  11.6141732283465  0
-25.587657309671798  5.0283387550197727  11.6141732283465  0
-25.781261617257098  5.7508798674923112  11.6141732283465  0
-25.781261617257098  7.2412461167596662  11.6141732283465  0
-25.587657309671798  7.9637872292322047  11.6141732283465  0
-25.271526339074939  8.6417322834645738  11.6141732283465  0
-24.842474185038117  9.2544822620406695  11.6141732283465  0
-24.313537380150883  9.7834190669279053  11.6141732283465  0
-23.700787401574789  10.212471220964726  11.6141732283465  0
-23.022842347342419  10.528602191561585  11.6141732283465  0
-22.300301234869881  10.722206499146887  11.6141732283465  0
-25.846456692913399  6.4960629921259896  8.9566929133858508  0
-17.263779527558999  6.4960629921259896  8.9566929133858508  0
-12.226351932342315  8.9480497874003948  8.4645669291338592  0
-13.073869938744743  7.719196356101329  8.4645669291338592  0
-10.909687900031283  9.6256491754373723  8.4645669291338592  0
-16.026199187387796  9.3498275455675959  8.4645669291338592  0
-14.309431459270808  7.6410864291353544  8.4645669291338592  0
-14.253012309763063  9.0591960805646146  8.4645669291338592  0
-15.453939479910133  8.1003909476291209  8.4645669291338592  0
-15.71503711808993  7.4558459040103759  6.291960004945393  0
-14.250231755897586  6.9311173139879045  6.0064521352296136  0
-12.414141147351291  7.0991933136396046  2.2438917521869994  0
-10.491437338422047  8.5189440958346161  2.3907664996127846  0
-13.719671668361558  6.8899527081656249  2.1995194084875083  0
-11.924167175476404  7.3035331220643389  6.0248499165482956  0
-15.25607423402513  7.2185179757877487  2.4494693207878258  0
-11.351978533016821  7.6526240217575312  2.7860998927129499  0
-13.026964396767895  6.9444869496303827  7.0203439325781538  0
-16.403615958317584  7.9828393901019741  3.818607205446348  0
-9.9645099123545151  9.5279369597586694  5.8127409799402194  0
-10.744680092374814  8.2042813764766471  6.0581911739449179  0
-16.787435687401405  8.4079446087064049  6.3763481824861827  0
-17.440731311681784  9.6583448640884146  6.4351507432383892  0
-13.052107874888451  6.9403340900427901  4.6985913552157399  0
-16.460748368165664  8.0386541736642219  1.2804385787223977  0
-17.306614260785388  9.2919444732679928  2.6954067377808864  0
-9.9052451237076422  9.7119025515625346  2.0788300475601957  0
-5.2632279674914972  3.7341395463302498  4.4890351154997852  0
-7.9672279196215605  4.6911272900848662  4.3189585105751673  0
-7.1990703329334487  4.0493540444345868  4.9010003271035805  0
-7.8623187855364698  4.5725183293223841  1.4807815759406304  0
-8.3995816059359907  5.3992617039740765  1.7669315487369397  0
-4.2298924188653046  4.1644408490046638  0.98871291820868379  0
-3.7213188265953399  4.605672533964202  4.8469236812396232  0
-3.1544914209183372  5.5538623294602614  4.4234749666148634  0
-6.3387946479535202  3.7317746723553844  4.8166190105781084  0
-4.3951771981020826  4.0607980889139519  5.2408595365028265  0
-3.1112244209967508  5.6859207926274049  1.6146599267286115  0
-4.3292965694399106  4.1002040789815215  3.2122948306251811  0
-6.1090405007569366  3.6973441426550946  2.1914739141911364  0
-3.5747609797354438  4.7812085931058759  2.1550303851730375  0
-5.1075203629073034  3.7694147918448393  1.5543824701582853  0
-8.4911124821533583  5.6475298531029949  4.4689708550304124  0
-7.0493647835868192  3.9700486814370897  1.2432515318596793  0
-6.8411923417605314  3.8779284096077729  3.2376653589306246  0
-7.4169118776145657  4.1868497128482325  3.0363103415075652  0
-3.5719469279619771  8.2072479415485127  2.1282985927234503  0
-4.2285151910591274  8.8267529350686829  2.9340912350993138  0
-7.5165624910888074  8.7325100794165458  4.4412400734304676  0
-4.2143987775143827  8.8171292994437405  0.9917673309412065  0
-8.4973560177557363  7.3245881179698102  4.4492368621023459  0
-3.1111232322358915  7.3058683954542758  1.6119028812204963  0
-3.7927211706768831  8.462362869574612  4.9289621432159851  0
-8.4194613673051784  7.5446341614824073  1.7795124145791039  0
-8.1266691154148454  8.0909110626143299  4.1680176532312245  0
-3.1551297840098069  7.440058923767789  4.4301801452694116  0
-5.6691074095404108  9.3076399672585559  4.5475073419492649  0
-5.1007234163713235  9.2209582893434376  1.8789486263598669  0
-7.916916579681696  8.3595599372936604  1.7391921369154886  0
-6.2194611300487823  9.2806546330426798  1.8157709793053862  0
-7.1646512859249221  8.9620357231225061  1.7850044500036786  0
-4.6932958817556738  9.0813044803408651  4.7411755377652129  0
-6.6527843758841545  9.180983595019832  4.4982493616368826  0
-18.784430031561183  3.6779790481267907  0  0
-25.902706038955539  8.0053635278578863  0  0
-12.591519430622157  5.6437464910036477  0  0
-24.639593974489529  10.447268348996852  0  0
-2.3858272006086207  2.2401758376083647  0  0
-9.0138744263015766  8.7621678314201219  0  0
-17.199104581651607  2.2182242080676455  0  0
-22.618597599604843  3.0289217424664989  0  0
-5.3698029730880474  10.426070038336068  0  0
-4.977026517576232  3.1992952996353643  0  0
-2.9738321210523897  10.680157658263497  0  0
-8.9388708248220308  9.8466898052954157  0  0
-15.88526059393554  5.8671894101450839  0  0
-8.2791447626760402  9.0244945559044449  0  0
-8.5684687271242783  2.9768572001547673  0  0
-4.2429809607843625  11.73918705318971  0  0
-25.273049363904462  3.7992689218140092  0  0
-10.162069548859771  7.264657900218543  0  0
-17.093699780410791  4.2939502643346543  0  0
-7.8655658307071521  9.5635282738221807  0  0
-3.369524852898738  9.2188856797959229  0  0
-2.7687194676281521  12.289108730930707  0  0
-24.506136448370956  8.8088230225376769  0  0
-7.0684114481781135  3.3608117129938759  0  0
-16.905012686427593  7.0884809045233261  0  0
-4.3611936132679885  9.9147823152668142  0  0
-18.981183571987319  9.4853103347886627  0  0
-24.206785098679124  4.3710932784870336  0  0
-8.5117490133153311  4.1891367327809554  0  0
-18.507987469758366  4.8427690649254451  0  0
-14.436760071155479  3.3853499755444796  0  0
-23.282094882009901  10.954106196491232  0  0
-24.708166936422096  7.6231349671525654  0  0
-24.615972055662464  12.023868888444222  0  0
-6.4834929938895582  10.175586777508881  0  0
-1.4045771882502038  7.9941382015425999  0  0
-23.577531834134064  9.5850269375606718  0  0
-1.5381415233693412  9.6364717784138048  0  0
-23.466103415391292  12.57004013825407  0  0
-6.9163379164671088  1.8984209030545276  0  0
-4.7659731769965257  1.9700954339542598  0  0
-9.4182463851119529  7.9350540030323158  0  0
-5.880004908395744  3.0798934691763638  0  0
-1.5496888199901999  11.28753797270716  0  0
-20.010275021692905  9.7657939129058349  0  0
-21.791818602407346  3.0416632581399354  0  0
-22.065414223539737  12.021986376062554  0  0
-10.746293653002434  5.1284995980795589  0  0
-18.157545859993466  6.6854712082109176  0  0
-17.748689066936393  5.7614102161609697  0  0
-20.685270152476662  11.120773834663847  0  0
-5.8572638606382919  9.6891013867483622  0  0
-2.5592610492800687  7.4195070243558359  0  0
-19.438516860711573  1.9395217046884299  0  0
-9.4498873989370384  5.9321793048193854  0  0
-9.1150388100673663  7.0100006898218181  0  0
-20.966325125107012  9.820205583269912  0  0
-22.45288583353879  1.7790216826630421  0  0
-17.985572372052172  7.7678805730997151  0  0
-21.900895514518147  10.31567051647782  0  0
-2.3153757143729137  5.604155638110476  0  0
-25.366005615572224  2.0829178126193488  0  0
-26.156053112253879  9.932623895979253  0  0
-24.712210359047614  4.9250583902290215  0  0
-3.115307315212835  3.9348239648069101  0  0
-25.323590374941741  6.5619701784961322  0  0
-24.187432637208342  3.3958195003666933  0  0
-2.6039105429245635  6.5266548645265461  0  0
-14.33291592752766  5.9790354090677136  0  0
-1.1385467722733391  5.5418592159333642  0  0
-8.6884642926684421  4.9676662561623282  0  0
-11.165135637607003  6.6169683991740378  0  0
-4.0709693881172244  3.3708517103633477  0  0
-23.223074506240131  3.4932680865573165  0  0
-11.019514932085039  3.0732665926204485  0  0
-1.6930810553313984  4.1358729096075981  0  0
-20.112864519105223  3.4158027620283939  0  0
-2.8854117163485675  4.8313847159284524  0  0
-2.651095228779349  8.4135937708323638  0  0
-25.701913248814542  11.370981495991625  0  0
-7.8260482680055823  3.9358184086762122  0  0
-24.79029352208569  5.7570206284875178  0  0
-21.022135219850526  2.3167109446574643  0  0
-7.8887552120406816  11.142178285005363  0  0
-9.4997459067657424  4.3776977986853174  0  0
-18.217457628074779  8.8470179632206918  0  0
-7.246751338876555  9.7913583599150087  0  0
-18.956420655047697  11.214022132232197  0  0
-22.713515646743197  9.7016143239458419  0  0
-23.694145325980369  2.2954844113384576  0  0
-5.9427282155399794  11.774326783104412  0  0
-25.805664870988377  5.0145478276369273  0  0
-1.6728356123878594  6.6464219868751675  0  0
-2.8198832197292774  4.7727041104997676  6.2992125984251999  0
-8.7413644868382949  4.5061065215158029  6.2992125984251999  0
-9.1662438851962182  7.4178681315187855  6.2992125984251999  0
-5.1602532910413048  9.9039069912388484  6.2992125984251999  0
-2.4071191444872491  7.0852797026710208  6.2992125984251999  0
-2.4104518391681578  5.8970732918927284  6.2992125984251999  0
-3.587513698305572  3.854711194338353  6.2992125984251999  0
-3.4815282548378383  8.9432788059716639  6.2992125984251999  0
-7.2855429480900797  9.5229787565226598  6.2992125984251999  0
-2.7994236621690258  8.1812309537086865  6.2992125984251999  0
-9.0767764873233272  5.6131312510998432  6.2992125984251999  0
-5.6348849845950761  3.0182477302344526  6.2992125984251999  0
-7.2806220894714357  3.3360559677326429  6.2992125984251999  0
-8.2528047555747008  9.0656652303505112  6.2992125984251999  0
-4.6050819978689921  3.2528008387492751  6.2992125984251999  0
-6.3182508222129332  9.9069275894927884  6.2992125984251999  0
-4.1106523356338345  9.6241520215913727  6.2992125984251999  0
-21.037916610743356  3.7290237880435737  1.8120705097785186  0
-22.959664056372201  4.0565437703940468  3.1471713537898682  0
-24.204656805215325  5.5453011650551849  4.4219187339480532  0
-21.937404356410312  3.707181392991167  4.1551395965757658  0
-18.902801326091566  5.5530788859230498  1.8759189450486236  0
-20.872575476471408  3.765103654988192  4.7524262898407006  0
-19.324503096001962  4.778984075395754  4.1448579787963498  0
-24.249594264008081  5.6813227852125294  1.6125991614515884  0
-23.110867986040695  4.1500779811037534  0.96126303523191914  0
-22.805869731786473  3.9742335511851357  5.3355331398181045  0
-18.859412830252836  5.685398825237816  4.6846804233191905  0
-20.149094329966694  4.0573952252246954  1.0591585842131797  0
-19.471386120114243  4.6034287587493754  1.4528637733715557  0
-22.186220322246175  3.752759628295657  1.4394800786020119  0
-23.772640803720972  4.7621089985359779  2.1417823247307961  0
-23.611630020747175  4.5738865928501067  4.8491909183221882  0
-19.981596832014951  4.1619605661404337  5.3120109689943193  0
-20.086160673862306  4.0947784612699456  3.0891283192795957  0
-18.859242672423925  7.3061611169276466  1.6130394336406981  0
-20.121922131237469  8.9188615049595583  3.1574539723847419  0
-20.910965081573103  9.2363312679834557  1.4508982103411632  0
-24.204904714489189  7.4461336736692756  1.8732034014669241  0
-21.125395813415349  9.2780302988392993  4.1902655782999663  0
-22.068334952276302  9.2638440205046955  1.8435186264744814  0
-23.02873221840111  8.8944926467592111  3.1010343485542444  0
-24.242320843594044  7.3344810369227558  4.6816640187197853  0
-19.469031359638237  8.3861014618366809  4.8520495841626152  0
-23.165433227909627  8.8049347013812067  5.1774242003095372  0
-19.992010980545725  8.8371523644305796  0.96467963283356806  0
-19.328060496056441  8.217753362410571  2.1442662032781628  0
-23.769267532783211  8.2343223751414953  4.1264622034686216  0
-22.26089968803543  9.2211089940213569  4.9387327485939343  0
-23.636007704666124  8.3918219018505251  1.4525611421930267  0
-18.899378029090919  7.4293624989324289  4.4226205067769122  0
-22.960716777171989  8.9349758104766224  1.0663147428840587  0
-20.242023748430295  8.9860000485593918  5.3423846959412611  0
-25.443269748803683  12.755641236683369  10.004381072179889  0
-26.271906085650841  12.00198624907614  2.339740945344873  0
-26.435894767584227  11.799165473097583  9.0544504917624078  0
-27.131819587270613  10.480981819087919  2.409232398604519  0
-25.543285687839465  12.68307349137053  6.1048293445802901  0
-27.143413280787868  10.445554253214448  9.1755472660705291  0
-24.064567393530488  13.412420435049878  5.0561485836422477  0
-24.765207761263163  13.150447279744238  2.0504065549333004  0
-26.836011682461827  11.173575338085254  5.8149089290280624  0
-24.144378794999497  13.389098975099913  8.4157728179969773  0
-0.82703592867096321  11.663742189748604  10.004381072179889  0
-3.1016953462664123  13.352292028215533  2.4092323986045194  0
-2.4091018272690787  13.056484123406747  5.8149089290280624  0
-1.5806909162781935  12.492378526595761  2.339740945344873  0
-0.19357819025441891  10.364851235944418  8.4157728179969773  0
-0.89960367398380114  11.763758128784385  6.1048293445802901  0
-1.7835116922567482  12.656367208529145  9.0544504917624078  0
-0.43222988561009323  10.985680202208082  2.0504065549333004  0
-0.17025673030445265  10.285039834475407  5.0561485836422477  0
-3.1371229121398825  13.363885721732785  9.1755472660705291  0
0  3.2256874223809606  8.3469086151216505  0
0  5.181363038062881  3.6556638075138799  0
0  6.5323946287639423  8.2946033849331489  0
-22.696332480218082  0  3.8918213215383042  0
-5.2758669959738222  0  4.4469983367079617  0
-4.1752166429853421  0  9.3994406359173084  0
-8.0527005591780618  0  9.3581348849435333  0
-11.749814988489451  0  5.1886782817026278  0
-17.779318998150682  0  6.4021503570196909  0
-22.533462230490116  0  9.2149840514719141  0
-14.692243053770547  0  9.6760711858945658  0
-27.362204724409398  4.6694955103240803  4.7894988070113911  0
-27.362204724409398  3.675246787498057  9.3379152716405311  0
-27.362204724409398  6.5211439163027984  8.6465938991517923  0
-7.3190963630749524  2.4799189022806249  8.9566929133859787  0
-1.7909020726357721  4.9841606938642053  8.9566929133858135  0
-9.8233248625617193  4.9843033672665813  8.9566929133857833  0
-5.8072957201269944  2.2047244145434188  8.9566929133856732  0
-4.2954310816144385  2.479785563703234  8.9566929133858757  0
-8.8416113510635306  3.4617185073361454  8.9566929133850017  0
-2.7727405075035545  3.4615398770200443  8.9566929133854014  0
-1.7909053720716122  8.0079740549087237  8.9566929133858757  0
-9.8374753941125626  7.9696820452441415  8.9566929133853623  0
-9.0633533662189123  9.2911146322027101  8.956692913386  0
-5.8486296088168936  10.787200488264951  8.9566929133854725  0
-2.773197246959116  9.5310427513136595  8.9566929133858508  0
-7.6199402866787977  10.385683589723753  8.9566929133851723  0
-4.300528983989615  10.514255488523995  8.9566929133857407  0
-23.417256679330801  9.3844684541757335  6.2992125984251999  0
-18.308504254821745  7.663405328116383  6.2992125984251999  0
-21.251233753025353  3.0226488952149757  6.2992125984251999  0
-22.192475411930964  9.7884661418202228  6.2992125984251999  0
-19.79700695056448  9.4619973693628712  6.2992125984251999  0
-18.311916583767193  5.3180433086451266  6.2992125984251999  0
-23.028653585534407  3.3360559677326429  6.2992125984251999  0
-18.892576675360402  4.2879103030832901  6.2992125984251999  0
-24.87208373905284  5.6083728253176641  6.2992125984251999  0
-24.995079040161368  6.9039432546014128  6.2992125984251999  0
-19.666783594397732  3.5703923040218748  6.2992125984251999  0
-24.400107033494535  8.6136746768033241  6.2992125984251999  0
-18.895265641044841  8.6934731300267458  6.2992125984251999  0
-18.105474278001616  6.4935391334047079  6.2992125984251999  0
-24.33916711772401  4.4313106293912021  6.2992125984251999  0
-20.916244851491015  9.8692326923270777  6.2992125984251999  0
-24.211936572467248  11.957574446482576  11.6141732283465  0
-26.285044772410885  9.171505463618935  11.6141732283465  0
-16.275921272755877  7.1831728058620641  11.6141732283465  0
-22.647334955719241  11.842252377416559  11.6141732283465  0
-13.744686990989289  7.5505801393380789  11.6141732283465  0
-18.752212716512975  10.564669244651158  11.6141732283465  0
-2.1248082064857337  11.337604637147495  11.6141732283465  0
-16.230182220595452  1.8397296953193436  11.6141732283465  0
-10.871445949048191  4.227413382834686  11.6141732283465  0
-8.2978994599512941  11.568354114331607  11.6141732283465  0
-3.7870976598174448  1.5567059500617961  11.6141732283465  0
-1.6818335005895595  3.4091864172986703  11.6141732283465  0
-16.87748595881752  7.7040309999125363  11.6141732283465  0
-25.696420171739678  1.6710687437712886  11.6141732283465  0
-10.281038786926295  9.5534040805779767  11.6141732283465  0
-22.348638153316234  1.4355100838470056  11.6141732283465  0
-11.079154450935333  7.2708325725505869  11.6141732283465  0
-9.6475353570346236  10.700121177032626  11.6141732283465  0
-15.348677835083345  10.560478691432939  11.6141732283465  0
-25.77320239662463  3.3501671740997736  11.6141732283465  0
-10.504243295626267  5.4574631679222003  11.6141732283465  0
-13.738676570430766  3.8696784379197204  11.6141732283465  0
-23.986949326284694  1.65146763166044  11.6141732283465  0
-16.514811810086702  3.9888809498397131  11.6141732283465  0
-8.6135475770594088  10.567129831080859  11.6141732283465  0
-16.054338851406634  5.6915025097826071  11.6141732283465  0
-8.6196686682183365  1.8722163245818628  11.6141732283465  0
-20.651549733027778  1.461762400697435  11.6141732283465  0
-20.971915966580827  11.801974543045809  11.6141732283465  0
-17.113123521003153  9.5177606155680152  11.6141732283465  0
-11.673575961547996  5.8071979971460737  11.6141732283465  0
-11.087380153284768  8.5902111215127981  11.6141732283465  0
-9.6424329937537667  3.2119283490282098  11.6141732283465  0
-25.471712212704283  10.756639223133227  11.6141732283465  0
-17.728420314984291  3.1636867196832417  11.6141732283465  0
-6.3974532925750491  11.802166489858537  11.6141732283465  0
-12.059431560306429  10.584849440232611  11.6141732283465  0
-2.3578948641498929  2.1265906882128252  11.6141732283465  0
-17.72565474541754  10.691144288601626  11.6141732283465  0
-3.4076903872874635  11.95996760807588  11.6141732283465  0
-18.750897694185905  1.8638868456724302  11.6141732283465  0
-16.388099527990537  8.4408471475025859  11.6141732283465  0
-11.153870932163478  1.8817140161370494  11.6141732283465  0
-4.753276775072754  11.842515000286044  11.6141732283465  0
-6.738354294366637  1.4369603569243792  11.6141732283465  0
-5.199243811116415  1.2460543158958648  11.6141732283465  0
-1.3430521399616731  9.977690559067824  11.6141732283465  0
-19.067734251829751  11.566920319269304  11.6141732283465  0
-17.538933568698745  4.9841606938642053  8.9566929133858135  0
-21.555327216189966  2.2047244145434188  8.9566929133856732  0
-23.067127859137923  2.4799189022806249  8.9566929133859787  0
-20.04346257767741  2.479785563703234  8.9566929133858757  0
-25.571356358624691  4.9843033672665813  8.9566929133857833  0
-24.589642847126502  3.4617185073361454  8.9566929133850017  0
-18.520772003566528  3.4615398770200443  8.9566929133854014  0
-24.811384862281884  9.2911146322027101  8.956692913386  0
-23.367971782741769  10.385683589723753  8.9566929133851723  0
-21.596661104879864  10.787200488264951  8.9566929133854725  0
-20.048560480052586  10.514255488523995  8.9566929133857407  0
-25.585506890175534  7.9696820452441397  8.9566929133853623  0
-17.538936868134584  8.0079740549087237  8.9566929133858757  0
-18.521228743022085  9.5310427513136595  8.9566929133858508  0
Triangles
1594
466 65 64  1
468 464 463  1
469 467 468  1
63 469 466  1
469 63 62  1
464 468 467  1
47 463 46  1
65 466 49  1
49 66 65  1
469 60 467  1
66 49 2  1
51 465 52  1
50 1 45  1
50 465 51  1
53 465 463  1
59 467 60  1
466 468 48  1
46 465 45  1
58 467 59  1
465 46 463  1
53 463 54  1
54 463 55  1
56 464 57  1
55 464 56  1
58 57 464  1
464 55 463  1
465 53 52  1
465 50 45  1
48 49 466  1
466 64 63  1
60 469 61  1
467 58 464  1
468 463 47  1
47 48 468  1
468 466 469  1
469 62 61  1
485 81 476  2
470 482 479  2
86 486 67  2
60 471 59  2
3 86 67  2
479 476 470  2
68 483 69  2
483 64 65  2
486 485 479  2
485 486 84  2
66 483 65  2
66 2 69  2
81 485 82  2
62 482 470  2
64 483 482  2
471 476 474  2
67 486 68  2
471 60 470  2
470 60 61  2
476 471 470  2
59 471 58  2
88 487 89  2
475 484 472  2
481 473 480  2
56 478 475  2
52 480 51  2
473 74 73  2
50 87 1  2
50 480 87  2
473 481 477  2
87 480 88  2
75 477 472  2
484 471 474  2
471 484 478  2
487 480 473  2
77 474 78  2
75 472 76  2
72 487 473  2
475 472 477  2
70 487 71  2
89 70 4  2
477 75 74  2
61 62 470  2
485 476 479  2
79 476 80  2
58 478 57  2
472 77 76  2
56 475 55  2
73 72 473  2
52 481 480  2
474 79 78  2
474 77 472  2
54 481 53  2
54 55 475  2
476 81 80  2
476 79 474  2
477 74 473  2
477 481 475  2
478 56 57  2
478 58 471  2
482 62 63  2
84 486 85  2
480 487 88  2
480 50 51  2
481 52 53  2
481 54 475  2
63 64 482  2
486 482 483  2
483 66 69  2
482 486 479  2
474 472 484  2
484 475 478  2
485 84 83  2
83 82 485  2
486 483 68  2
486 86 85  2
487 72 71  2
487 70 89  2
92 495 91  3
493 114 113  3
495 90 91  3
98 496 488  3
503 107 492  3
101 490 100  3
102 490 101  3
489 492 491  3
107 503 108  3
500 488 496  3
490 506 505  3
503 492 489  3
504 506 491  3
125 107 7  3
119 504 120  3
117 502 500  3
6 108 106  3
489 102 103  3
106 503 105  3
104 503 489  3
94 497 494  3
121 504 491  3
490 102 489  3
496 98 99  3
495 501 498  3
115 502 116  3
112 501 493  3
98 488 97  3
90 126 5  3
90 495 126  3
495 92 494  3
125 492 107  3
493 115 114  3
112 493 113  3
109 498 110  3
496 505 500  3
502 493 499  3
498 111 110  3
499 493 501  3
109 8 128  3
111 501 112  3
96 497 95  3
96 97 488  3
103 104 489  3
123 492 124  3
506 504 505  3
100 496 99  3
491 123 122  3
122 121 491  3
492 125 124  3
492 123 491  3
94 494 93  3
497 96 488  3
92 93 494  3
499 494 497  3
127 498 128  3
127 126 495  3
496 100 490  3
488 502 499  3
501 495 494  3
497 94 95  3
498 109 128  3
498 127 495  3
497 488 499  3
493 502 115  3
118 504 119  3
118 117 500  3
501 111 498  3
501 494 499  3
502 488 500  3
502 117 116  3
503 104 105  3
503 106 108  3
504 121 120  3
504 118 500  3
504 500 505  3
505 496 490  3
506 490 489  3
489 491 506  3
133 510 507  4
158 516 513  4
9 520 518  4
160 516 159  4
158 513 157  4
512 127 128  4
513 522 155  4
127 516 126  4
507 513 516  4
516 158 159  4
151 523 150  4
512 516 127  4
514 137 107  4
155 522 154  4
136 128 8  4
136 512 128  4
126 160 5  4
153 517 152  4
523 151 517  4
513 155 156  4
520 523 517  4
510 518 508  4
518 510 130  4
507 510 508  4
522 518 517  4
511 107 108  4
519 139 514  4
10 509 149  4
145 108 6  4
145 511 108  4
511 145 146  4
148 515 147  4
521 143 142  4
7 107 137  4
518 522 508  4
10 523 509  4
521 523 520  4
139 519 140  4
141 521 142  4
137 514 138  4
509 519 515  4
134 512 135  4
134 133 507  4
130 510 131  4
153 522 517  4
143 521 520  4
509 148 149  4
510 133 132  4
132 131 510  4
511 146 147  4
147 515 511  4
512 136 135  4
512 134 507  4
507 508 513  4
513 156 157  4
139 138 514  4
514 107 511  4
514 511 515  4
515 148 509  4
516 160 126  4
516 512 507  4
9 518 129  4
517 151 152  4
518 130 129  4
518 520 517  4
141 140 519  4
519 514 515  4
520 9 144  4
144 143 520  4
521 141 519  4
519 509 521  4
522 153 154  4
522 513 508  4
523 521 509  4
523 10 150  4
161 69 68  5
161 68 67  5
69 12 2  5
69 161 12  5
67 11 161  5
11 67 3  5
164 48 163  6
49 164 12  6
46 163 47  6
163 46 162  6
49 12 2  6
48 164 49  6
163 48 47  6
162 45 13  6
45 162 46  6
13 45 1  6
89 165 88  7
14 89 4  7
87 13 1  7
165 87 88  7
87 165 13  7
165 89 14  7
173 545 172  8
131 549 130  8
573 548 572  8
580 568 574  8
613 597 590  8
583 21 580  8
212 612 211  8
581 569 531  8
15 614 539  8
116 566 533  8
592 554 526  8
16 561 559  8
180 563 538  8
168 561 167  8
168 567 561  8
18 585 186  8
600 217 218  8
80 592 79  8
217 600 524  8
217 524 216  8
81 548 536  8
213 572 22  8
216 553 215  8
214 573 213  8
220 606 600  8
524 600 577  8
569 222 531  8
220 600 219  8
223 597 531  8
222 569 221  8
605 228 229  8
589 615 605  8
546 560 527  8
615 589 187  8
556 205 206  8
23 605 229  8
205 589 23  8
19 586 195  8
207 556 206  8
603 191 192  8
586 525 546  8
574 583 580  8
555 612 583  8
20 570 196  8
210 612 560  8
580 198 568  8
562 189 557  8
586 193 194  8
586 603 193  8
191 603 557  8
189 562 188  8
11 611 3  8
191 557 190  8
550 611 568  8
535 529 537  8
14 607 166  8
200 568 199  8
84 609 582  8
609 201 202  8
86 609 85  8
568 611 574  8
609 84 85  8
201 609 550  8
201 550 200  8
582 204 572  8
582 572 548  8
554 536 542  8
548 81 82  8
81 536 80  8
84 582 83  8
83 548 82  8
78 592 526  8
181 554 182  8
579 138 565  8
78 526 77  8
122 604 121  8
73 565 72  8
139 565 138  8
72 565 529  8
607 610 558  8
535 71 529  8
140 537 529  8
138 579 137  8
72 529 71  8
607 535 543  8
227 587 551  8
227 551 226  8
590 225 551  8
597 223 224  8
544 561 534  8
567 168 169  8
136 591 576  8
610 142 143  8
545 171 172  8
144 575 558  8
543 141 142  8
171 567 170  8
129 549 532  8
142 610 543  8
539 549 534  8
549 539 532  8
576 134 135  8
544 131 132  8
561 602 559  8
602 133 134  8
602 134 576  8
109 110 584  8
591 136 8  8
110 601 584  8
593 599 176  8
113 588 112  8
601 112 588  8
578 595 571  8
564 566 563  8
115 596 114  8
177 599 528  8
528 596 564  8
604 552 538  8
566 547 563  8
596 113 114  8
113 596 588  8
595 76 526  8
119 547 118  8
120 604 547  8
7 578 125  8
579 578 7  8
594 123 124  8
120 547 119  8
598 526 554  8
595 578 541  8
598 554 181  8
17 528 178  8
577 530 524  8
530 577 183  8
19 187 525  8
589 205 556  8
76 595 75  8
76 77 526  8
209 546 208  8
560 546 209  8
533 115 116  8
528 17 177  8
139 140 529  8
71 535 70  8
530 183 182  8
554 542 530  8
222 223 531  8
590 551 540  8
129 575 9  8
174 545 173  8
564 563 179  8
528 564 178  8
567 171 545  8
549 129 130  8
4 70 535  8
141 543 537  8
213 573 572  8
554 592 536  8
537 140 141  8
537 543 535  8
180 598 181  8
604 122 552  8
539 174 15  8
614 558 532  8
551 587 540  8
186 615 187  8
541 73 74  8
74 595 541  8
524 542 553  8
524 530 542  8
558 143 144  8
535 607 4  8
544 132 133  8
133 602 544  8
545 174 539  8
539 534 545  8
586 19 525  8
546 207 208  8
547 538 563  8
118 566 117  8
548 573 536  8
536 573 542  8
549 131 544  8
544 534 549  8
86 611 550  8
199 568 198  8
225 597 224  8
225 226 551  8
122 594 552  8
594 122 123  8
553 214 215  8
553 216 524  8
530 182 554  8
526 598 571  8
527 555 557  8
612 212 583  8
556 207 546  8
546 525 556  8
557 189 190  8
557 603 527  8
575 144 9  8
558 614 607  8
175 616 593  8
175 16 559  8
555 527 560  8
560 209 210  8
561 16 167  8
561 567 534  8
20 188 562  8
562 557 555  8
563 180 179  8
547 566 118  8
179 178 564  8
596 115 533  8
565 139 529  8
565 73 541  8
566 564 533  8
566 116 117  8
169 170 567  8
567 545 534  8
198 580 197  8
568 200 550  8
569 581 606  8
569 220 221  8
570 20 562  8
562 555 570  8
538 608 598  8
578 608 594  8
204 582 203  8
204 22 572  8
573 214 553  8
553 542 573  8
611 86 3  8
196 570 574  8
575 129 532  8
532 558 575  8
135 136 576  8
616 576 591  8
184 606 581  8
184 183 577  8
578 124 125  8
578 579 541  8
7 137 579  8
579 565 541  8
21 583 212  8
21 197 580  8
185 613 585  8
185 184 581  8
548 83 582  8
582 202 203  8
583 574 570  8
570 555 583  8
599 601 588  8
109 591 8  8
540 186 585  8
585 18 185  8
546 527 586  8
586 194 195  8
587 227 228  8
228 605 587  8
584 599 593  8
112 601 111  8
589 556 525  8
525 187 589  8
540 585 590  8
531 613 581  8
591 109 584  8
576 616 559  8
592 78 79  8
592 80 536  8
176 175 593  8
584 616 591  8
124 578 594  8
594 608 552  8
595 74 75  8
595 526 571  8
533 564 596  8
596 528 588  8
597 225 590  8
597 613 531  8
598 180 538  8
608 578 571  8
588 528 599  8
599 177 176  8
218 219 600  8
600 606 577  8
601 599 584  8
601 110 111  8
576 559 602  8
602 561 544  8
192 193 603  8
603 586 527  8
538 547 604  8
604 120 121  8
605 23 589  8
605 615 587  8
606 184 577  8
606 220 569  8
607 614 166  8
607 14 4  8
571 598 608  8
608 538 552  8
609 86 550  8
609 202 582  8
143 558 610  8
610 607 543  8
611 11 196  8
196 574 611  8
612 555 560  8
612 210 211  8
590 585 613  8
613 185 581  8
532 539 614  8
614 15 166  8
615 186 540  8
540 587 615  8
616 584 593  8
616 175 559  8
150 625 10  9
258 618 259  9
146 619 145  9
240 630 241  9
630 240 147  9
149 630 148  9
631 253 252  9
621 626 159  9
150 632 625  9
627 26 262  9
629 100 101  9
629 99 100  9
617 249 248  9
102 629 101  9
255 629 256  9
99 628 98  9
255 628 99  9
99 629 255  9
629 102 258  9
104 618 103  9
26 619 238  9
618 627 261  9
102 618 258  9
104 627 618  9
618 102 103  9
627 262 261  9
627 6 26  9
6 627 106  9
147 619 146  9
619 147 240  9
619 6 145  9
619 26 6  9
243 630 625  9
630 147 148  9
632 150 151  9
244 632 245  9
625 630 149  9
233 633 624  9
153 620 152  9
24 632 620  9
620 633 231  9
632 152 620  9
154 155 633  9
620 231 230  9
624 633 155  9
620 154 633  9
231 633 232  9
234 626 235  9
626 234 624  9
622 5 90  9
236 621 237  9
5 621 160  9
621 159 160  9
159 626 158  9
157 626 624  9
617 623 249  9
157 624 156  9
626 157 158  9
249 623 250  9
91 622 90  9
95 623 94  9
623 631 251  9
93 617 92  9
25 622 246  9
622 621 5  9
247 617 248  9
631 97 628  9
631 623 95  9
253 628 254  9
623 617 93  9
628 255 254  9
253 631 628  9
617 622 91  9
91 92 617  9
618 261 260  9
260 259 618  9
619 240 239  9
239 238 619  9
230 24 620  9
152 632 151  9
621 622 25  9
25 237 621  9
622 617 247  9
247 246 622  9
93 94 623  9
623 251 250  9
234 233 624  9
624 155 156  9
244 243 625  9
625 149 10  9
626 621 236  9
236 235 626  9
627 104 105  9
105 106 627  9
97 631 96  9
97 98 628  9
629 258 257  9
257 256 629  9
630 243 242  9
242 241 630  9
252 251 631  9
631 95 96  9
632 24 245  9
632 244 625  9
633 233 232  9
154 620 153  9
636 279 282  10
227 641 228  10
272 643 637  10
277 649 276  10
229 641 280  10
649 277 636  10
227 648 641  10
280 23 229  10
649 643 275  10
281 641 636  10
648 227 226  10
217 646 645  10
648 635 649  10
223 642 224  10
279 636 278  10
278 636 277  10
282 279 28  10
647 634 637  10
271 639 270  10
275 643 274  10
215 646 216  10
637 643 635  10
263 283 27  10
634 221 220  10
650 639 651  10
270 639 269  10
265 644 264  10
263 644 283  10
644 638 284  10
638 644 640  10
646 638 640  10
650 269 639  10
221 647 222  10
638 213 285  10
647 642 223  10
219 634 220  10
219 645 634  10
214 638 215  10
640 265 266  10
213 638 214  10
285 213 22  10
217 645 218  10
650 266 267  10
269 650 268  10
643 649 635  10
642 226 225  10
636 282 281  10
642 635 648  10
647 221 634  10
637 271 272  10
638 285 284  10
644 284 283  10
639 271 637  10
637 634 639  10
646 215 638  10
266 650 640  10
641 281 280  10
641 229 228  10
225 224 642  10
642 647 635  10
643 272 273  10
273 274 643  10
644 263 264  10
644 265 640  10
634 651 639  10
645 219 218  10
646 651 645  10
646 217 216  10
637 635 647  10
647 223 222  10
648 636 641  10
648 226 642  10
649 275 276  10
649 636 648  10
651 646 640  10
650 267 268  10
651 634 645  10
651 640 650  10
660 298 299  11
285 652 284  11
652 204 203  11
662 198 654  11
662 653 663  11
660 297 298  11
663 202 201  11
297 669 296  11
667 299 300  11
29 665 661  11
299 667 660  11
204 652 285  11
301 667 300  11
283 301 27  11
294 656 293  11
21 657 654  11
202 663 652  11
204 285 22  11
654 657 656  11
198 662 199  11
654 197 21  11
669 297 660  11
662 654 653  11
665 29 291  11
288 664 659  11
657 665 656  11
207 666 208  11
286 659 282  11
281 659 655  11
664 666 655  11
286 282 28  11
664 655 659  11
658 657 668  11
666 664 658  11
654 198 197  11
657 21 212  11
211 668 657  11
655 205 280  11
205 655 206  11
206 655 207  11
205 23 280  11
209 668 210  11
667 663 660  11
652 203 202  11
294 669 656  11
669 294 295  11
292 665 291  11
293 665 292  11
655 280 281  11
288 659 287  11
656 669 653  11
653 654 656  11
657 212 211  11
661 665 658  11
668 209 666  11
289 664 288  11
659 281 282  11
659 286 287  11
652 667 284  11
660 663 653  11
661 289 290  11
290 29 661  11
662 201 200  11
200 199 662  11
663 667 652  11
663 201 662  11
664 289 661  11
661 658 664  11
665 293 656  11
665 657 658  11
666 209 208  11
666 207 655  11
667 301 283  11
283 284 667  11
668 211 210  11
668 666 658  11
295 296 669  11
669 660 653  11
678 675 672  12
305 304 30  12
675 303 304  12
677 188 189  12
671 678 674  12
308 672 307  12
305 675 304  12
678 671 673  12
307 675 306  12
670 308 309  12
19 302 195  12
193 671 192  12
195 673 194  12
193 673 671  12
314 679 315  12
188 313 20  12
188 677 313  12
313 677 676  12
31 315 312  12
311 679 670  12
312 679 311  12
311 670 310  12
310 670 309  12
191 677 190  12
674 670 679  12
674 672 670  12
671 191 192  12
303 673 302  12
675 678 303  12
672 308 670  12
673 193 194  12
673 195 302  12
679 314 676  12
677 189 190  12
675 305 306  12
675 307 672  12
314 313 676  12
674 677 671  12
677 191 671  12
677 674 676  12
673 303 678  12
678 672 674  12
679 312 315  12
679 676 674  12
164 317 12  13
161 313 196  13
13 319 162  13
11 161 196  13
20 196 313  13
315 316 31  13
313 161 314  13
323 13 322  13
162 318 163  13
161 12 314  13
12 315 314  13
316 315 12  13
12 317 316  13
318 164 163  13
164 318 317  13
323 320 13  13
318 162 319  13
322 13 165  13
319 13 320  13
320 323 32  13
165 321 322  13
15 321 166  13
165 166 321  13
166 165 14  13
683 172 681  14
324 323 32  14
682 689 686  14
687 685 688  14
685 686 680  14
681 174 321  14
324 689 323  14
322 689 682  14
689 322 323  14
169 687 168  14
15 321 174  14
683 681 682  14
174 681 173  14
173 681 172  14
684 688 685  14
167 332 16  14
167 687 332  14
687 683 685  14
33 334 331  14
330 684 680  14
331 684 330  14
330 680 329  14
329 680 328  14
327 686 326  14
685 680 684  14
680 327 328  14
172 683 171  14
681 321 322  14
681 322 682  14
686 685 682  14
170 687 169  14
170 171 683  14
684 331 334  14
334 333 684  14
687 170 683  14
683 682 685  14
326 689 325  14
686 327 680  14
332 688 333  14
687 167 168  14
688 684 333  14
688 332 687  14
689 324 325  14
689 326 686  14
335 691 690  15
177 691 335  15
692 691 333  15
339 690 338  15
691 332 333  15
340 690 339  15
340 34 336  15
335 690 336  15
337 692 334  15
175 691 176  15
334 33 337  15
175 16 332  15
335 17 177  15
691 175 332  15
692 337 338  15
690 340 336  15
691 692 690  15
691 177 176  15
333 334 692  15
692 338 690  15
183 698 693  16
183 693 184  16
352 699 698  16
351 700 350  16
699 355 342  16
350 700 349  16
352 698 351  16
700 351 698  16
35 342 355  16
185 341 18  16
182 698 183  16
699 352 353  16
696 346 347  16
355 699 354  16
694 178 335  16
178 694 179  16
348 697 696  16
336 694 335  16
696 345 346  16
343 336 34  16
343 695 336  16
694 336 695  16
185 693 341  16
694 180 179  16
17 335 178  16
348 700 697  16
180 697 181  16
693 342 341  16
693 185 184  16
345 695 344  16
345 696 695  16
695 343 344  16
695 696 694  16
347 348 696  16
697 180 694  16
697 182 181  16
697 694 696  16
698 699 693  16
698 182 697  16
353 354 699  16
699 342 693  16
698 697 700  16
700 348 349  16
302 701 187  17
701 186 187  17
187 19 302  17
702 703 358  17
186 701 341  17
703 359 358  17
356 342 702  17
356 702 357  17
303 703 701  17
359 304 30  17
359 703 304  17
701 302 303  17
341 18 186  17
702 358 357  17
342 341 701  17
342 356 35  17
342 701 702  17
703 702 701  17
703 303 304  17
255 704 256  18
707 369 704  18
371 709 704  18
369 707 368  18
706 376 377  18
374 709 373  18
262 706 377  18
257 709 258  18
367 708 366  18
706 374 375  18
260 709 706  18
376 706 375  18
262 377 26  18
709 372 373  18
377 376 37  18
709 371 372  18
709 257 704  18
709 374 706  18
371 704 370  18
251 708 252  18
710 251 250  18
708 367 707  18
362 710 705  18
710 365 708  18
253 707 254  18
705 246 378  18
705 248 247  18
360 705 378  18
378 36 360  18
255 707 704  18
708 253 252  18
253 708 707  18
251 710 708  18
246 705 247  18
249 710 250  18
378 246 25  18
710 248 705  18
248 710 249  18
257 256 704  18
704 369 370  18
705 360 361  18
361 362 705  18
706 262 261  18
261 260 706  18
707 255 254  18
707 367 368  18
365 710 364  18
365 366 708  18
709 260 259  18
259 258 709  18
710 362 363  18
363 364 710  18
235 715 711  19
394 711 393  19
715 392 711  19
715 389 390  19
237 711 378  19
392 393 711  19
378 25 237  19
235 711 236  19
232 715 233  19
383 716 713  19
711 394 378  19
715 235 234  19
378 394 36  19
232 717 715  19
387 717 714  19
387 714 38  19
245 714 24  19
717 230 714  19
389 717 388  19
717 387 388  19
716 242 713  19
381 713 712  19
243 716 244  19
383 713 382  19
712 240 239  19
379 712 377  19
379 377 37  19
712 238 377  19
716 386 714  19
245 716 714  19
713 381 382  19
386 716 385  19
716 245 244  19
230 717 231  19
240 713 241  19
713 240 712  19
26 377 238  19
238 712 239  19
711 237 236  19
392 715 391  19
712 379 380  19
380 381 712  19
242 716 243  19
242 241 713  19
386 38 714  19
714 230 24  19
390 391 715  19
715 234 233  19
716 383 384  19
384 385 716  19
717 389 715  19
717 232 231  19
728 417 416  20
398 730 399  20
409 721 410  20
731 301 27  20
407 718 408  20
721 39 410  20
729 287 288  20
731 719 301  20
423 732 424  20
726 278 279  20
724 272 273  20
420 724 421  20
275 724 274  20
724 420 272  20
724 273 274  20
720 420 419  20
724 275 423  20
727 726 28  20
425 726 426  20
287 727 286  20
277 732 276  20
732 275 276  20
275 732 423  20
726 277 278  20
726 732 277  20
726 727 41  20
729 404 287  20
727 287 404  20
41 727 403  20
28 726 279  20
404 729 405  20
289 729 288  20
407 729 718  20
29 721 718  20
718 729 289  20
718 721 409  20
718 289 290  20
293 721 292  20
722 733 295  20
297 722 296  20
722 730 398  20
721 733 39  20
39 733 395  20
733 722 396  20
733 396 395  20
396 722 397  20
295 733 294  20
402 731 40  20
263 731 27  20
299 730 298  20
723 731 263  20
719 731 402  20
299 300 719  20
730 719 400  20
301 719 300  20
400 719 401  20
725 415 414  20
730 400 399  20
265 723 264  20
725 728 415  20
723 263 264  20
725 723 265  20
723 725 413  20
728 725 267  20
267 725 266  20
720 417 269  20
728 269 417  20
272 720 271  20
720 269 270  20
269 728 268  20
420 720 272  20
417 720 418  20
290 29 718  20
718 409 408  20
719 402 401  20
719 730 299  20
419 418 720  20
720 270 271  20
721 29 291  20
291 292 721  20
295 296 722  20
722 398 397  20
723 413 412  20
412 411 723  20
724 423 422  20
422 421 724  20
414 413 725  20
725 265 266  20
726 41 427  20
427 426 726  20
28 286 727  20
727 404 403  20
416 415 728  20
728 267 268  20
729 407 406  20
406 405 729  20
730 722 297  20
297 298 730  20
731 723 411  20
411 40 731  20
732 726 425  20
425 424 732  20
733 721 293  20
293 294 733  20
448 756 447  21
35 747 356  21
735 359 454  21
459 734 458  21
767 735 456  21
780 390 391  21
388 777 387  21
390 780 740  21
764 37 750  21
364 745 363  21
446 749 445  21
372 766 760  21
775 434 746  21
355 756 747  21
452 358 451  21
756 446 447  21
358 44 359  21
43 759 736  21
442 774 441  21
440 774 768  21
761 444 749  21
749 446 756  21
445 749 444  21
749 756 354  21
774 442 761  21
738 759 755  21
438 757 437  21
353 761 749  21
768 438 439  21
352 774 761  21
774 741 768  21
753 448 449  21
448 753 747  21
451 753 450  21
450 753 449  21
357 451 358  21
44 358 452  21
456 735 455  21
735 306 305  21
359 735 30  21
359 44 453  21
438 768 757  21
759 43 436  21
767 456 457  21
454 359 453  21
767 306 735  21
306 767 307  21
309 734 310  21
312 737 31  21
309 767 734  21
459 737 734  21
429 781 762  21
31 762 316  21
762 781 316  21
429 762 428  21
42 737 460  21
734 312 311  21
767 458 734  21
769 386 38  21
42 762 737  21
317 781 772  21
317 752 318  21
775 433 434  21
431 772 739  21
752 317 772  21
770 319 318  21
772 432 763  21
751 382 383  21
382 748 381  21
37 754 376  21
381 765 380  21
380 765 750  21
742 764 755  21
743 769 320  21
385 769 743  21
385 743 384  21
382 751 748  21
38 777 769  21
769 385 386  21
324 773 325  21
777 388 773  21
389 773 388  21
324 777 773  21
326 773 740  21
329 780 330  21
326 740 327  21
740 389 390  21
338 36 360  21
392 780 391  21
780 33 331  21
338 361 339  21
33 392 393  21
33 393 337  21
33 780 392  21
36 338 337  21
394 337 393  21
337 394 36  21
340 771 343  21
361 745 339  21
361 338 360  21
745 361 362  21
738 755 764  21
759 738 736  21
375 754 742  21
374 766 373  21
766 374 742  21
346 760 347  21
760 370 371  21
779 778 345  21
776 349 348  21
364 771 745  21
347 776 348  21
349 776 755  21
368 778 779  21
744 343 771  21
344 779 345  21
778 368 369  21
345 778 346  21
779 344 744  21
367 744 366  21
34 340 343  21
343 744 344  21
311 310 734  21
458 767 457  21
305 30 735  21
735 454 455  21
435 746 434  21
435 43 736  21
737 312 734  21
737 459 460  21
380 750 379  21
770 738 765  21
430 781 429  21
430 431 739  21
740 329 328  21
328 327 740  21
741 351 350  21
350 349 741  21
349 755 741  21
742 374 375  21
320 319 743  21
383 758 751  21
365 771 364  21
365 366 744  21
340 339 745  21
745 362 363  21
433 775 763  21
746 435 736  21
356 753 357  21
747 35 355  21
758 383 384  21
319 770 751  21
444 761 443  21
749 354 353  21
37 379 750  21
738 750 765  21
743 319 751  21
751 770 748  21
772 431 432  21
738 775 736  21
753 451 357  21
753 356 747  21
754 375 376  21
37 764 754  21
757 768 741  21
755 776 742  21
756 448 747  21
756 355 354  21
741 755 757  21
437 759 436  21
384 743 758  21
743 751 758  21
759 437 757  21
757 755 759  21
370 760 778  21
371 372 760  21
442 443 761  21
761 353 352  21
762 31 737  21
762 42 428  21
432 433 763  21
763 775 752  21
764 742 754  21
764 750 738  21
765 381 748  21
738 770 752  21
776 347 760  21
766 372 373  21
767 309 308  21
308 307 767  21
439 440 768  21
741 774 351  21
769 777 32  21
32 320 769  21
318 752 770  21
770 765 748  21
771 340 745  21
771 365 744  21
739 772 781  21
772 763 752  21
773 389 740  21
773 326 325  21
774 440 441  21
774 352 351  21
746 736 775  21
775 738 752  21
776 760 766  21
766 742 776  21
777 324 32  21
777 38 387  21
369 370 778  21
778 760 346  21
779 744 367  21
367 368 779  21
780 331 330  21
780 329 740  21
781 317 316  21
781 430 739  21
784 420 783  22
783 443 444  22
447 787 784  22
445 784 783  22
786 452 461  22
450 787 449  22
427 786 461  22
784 445 446  22
443 785 442  22
786 450 451  22
425 787 786  22
452 786 451  22
427 461 41  22
787 425 424  22
461 452 44  22
787 447 448  22
787 422 784  22
787 450 786  22
447 784 446  22
416 785 417  22
788 416 415  22
785 443 783  22
438 788 782  22
788 441 785  22
418 783 419  22
782 411 462  22
782 413 412  22
436 782 462  22
462 43 436  22
420 784 421  22
785 418 417  22
418 785 783  22
416 788 785  22
411 782 412  22
414 788 415  22
462 411 40  22
788 413 782  22
413 788 414  22
782 436 437  22
437 438 782  22
444 445 783  22
783 420 419  22
422 787 423  22
422 421 784  22
441 788 440  22
441 442 785  22
786 427 426  22
426 425 786  22
424 423 787  22
787 448 449  22
788 438 439  22
439 440 788  22
428 792 791  23
428 791 42  23
397 795 398  23
460 790 459  23
402 794 462  23
795 397 792  23
400 795 794  23
462 40 402  23
795 399 398  23
430 795 792  23
794 435 462  23
433 795 432  23
435 794 434  23
795 433 794  23
462 435 43  23
400 794 401  23
795 400 399  23
791 460 42  23
792 395 791  23
792 428 429  23
457 790 789  23
457 789 456  23
790 407 789  23
455 793 454  23
408 790 409  23
793 453 454  23
453 793 461  23
461 44 453  23
793 405 404  23
410 791 39  23
407 790 408  23
460 791 790  23
790 457 458  23
395 792 396  23
405 793 789  23
405 789 406  23
41 461 403  23
403 793 404  23
407 406 789  23
789 455 456  23
458 459 790  23
790 410 409  23
791 395 39  23
791 410 790  23
429 430 792  23
792 397 396  23
793 403 461  23
793 455 789  23
433 434 794  23
794 402 401  23
795 430 431  23
431 432 795  23
Edges
481
1 45  1
45 46  1
46 47  1
47 48  1
48 49  1
49 2  1
1 50  2
50 51  2
51 52  2
52 53  2
53 54  2
54 55  2
55 56  2
56 57  2
57 58  2
58 59  2
59 60  2
60 61  2
61 62  2
62 63  2
63 64  2
64 65  2
65 66  2
66 2  2
3 67  3
67 68  3
68 69  3
69 2  3
4 70  4
70 71  4
71 72  4
72 73  4
73 74  4
74 75  4
75 76  4
76 77  4
77 78  4
78 79  4
79 80  4
80 81  4
81 82  4
82 83  4
83 84  4
84 85  4
85 86  4
86 3  4
1 87  5
87 88  5
88 89  5
89 4  5
5 90  6
90 91  6
91 92  6
92 93  6
93 94  6
94 95  6
95 96  6
96 97  6
97 98  6
98 99  6
99 100  6
100 101  6
101 102  6
102 103  6
103 104  6
104 105  6
105 106  6
106 6  6
7 107  7
107 108  7
108 6  7
8 109  8
109 110  8
110 111  8
111 112  8
112 113  8
113 114  8
114 115  8
115 116  8
116 117  8
117 118  8
118 119  8
119 120  8
120 121  8
121 122  8
122 123  8
123 124  8
124 125  8
125 7  8
5 126  9
126 127  9
127 128  9
128 8  9
9 129  10
129 130  10
130 131  10
131 132  10
132 133  10
133 134  10
134 135  10
135 136  10
136 8  10
7 137  11
137 138  11
138 139  11
139 140  11
140 141  11
141 142  11
142 143  11
143 144  11
144 9  11
6 145  12
145 146  12
146 147  12
147 148  12
148 149  12
149 10  12
10 150  13
150 151  13
151 152  13
152 153  13
153 154  13
154 155  13
155 156  13
156 157  13
157 158  13
158 159  13
159 160  13
160 5  13
3 11  14
11 161  15
161 12  15
12 2  16
13 1  17
13 162  18
162 163  18
163 164  18
164 12  18
14 165  19
165 13  19
14 4  20
14 166  21
166 15  21
16 167  22
167 168  22
168 169  22
169 170  22
170 171  22
171 172  22
172 173  22
173 174  22
174 15  22
16 175  23
175 176  23
176 177  23
177 17  23
17 178  24
178 179  24
179 180  24
180 181  24
181 182  24
182 183  24
183 184  24
184 185  24
185 18  24
18 186  25
186 187  25
187 19  25
20 188  26
188 189  26
189 190  26
190 191  26
191 192  26
192 193  26
193 194  26
194 195  26
195 19  26
20 196  27
196 11  27
21 197  28
197 198  28
198 199  28
199 200  28
200 201  28
201 202  28
202 203  28
203 204  28
204 22  28
23 205  29
205 206  29
206 207  29
207 208  29
208 209  29
209 210  29
210 211  29
211 212  29
212 21  29
22 213  30
213 214  30
214 215  30
215 216  30
216 217  30
217 218  30
218 219  30
219 220  30
220 221  30
221 222  30
222 223  30
223 224  30
224 225  30
225 226  30
226 227  30
227 228  30
228 229  30
229 23  30
24 230  31
230 231  31
231 232  31
232 233  31
233 234  31
234 235  31
235 236  31
236 237  31
237 25  31
26 238  32
238 239  32
239 240  32
240 241  32
241 242  32
242 243  32
243 244  32
244 245  32
245 24  32
25 246  33
246 247  33
247 248  33
248 249  33
249 250  33
250 251  33
251 252  33
252 253  33
253 254  33
254 255  33
255 256  33
256 257  33
257 258  33
258 259  33
259 260  33
260 261  33
261 262  33
262 26  33
27 263  34
263 264  34
264 265  34
265 266  34
266 267  34
267 268  34
268 269  34
269 270  34
270 271  34
271 272  34
272 273  34
273 274  34
274 275  34
275 276  34
276 277  34
277 278  34
278 279  34
279 28  34
23 280  35
280 281  35
281 282  35
282 28  35
27 283  36
283 284  36
284 285  36
285 22  36
28 286  37
286 287  37
287 288  37
288 289  37
289 290  37
290 29  37
29 291  38
291 292  38
292 293  38
293 294  38
294 295  38
295 296  38
296 297  38
297 298  38
298 299  38
299 300  38
300 301  38
301 27  38
19 302  39
302 303  39
303 304  39
304 30  39
30 305  40
305 306  40
306 307  40
307 308  40
308 309  40
309 310  40
310 311  40
311 312  40
312 31  40
20 313  41
313 314  41
314 315  41
315 31  41
31 316  42
316 317  42
317 318  42
318 319  42
319 320  42
320 32  42
15 321  43
321 322  43
322 323  43
323 32  43
32 324  44
324 325  44
325 326  44
326 327  44
327 328  44
328 329  44
329 330  44
330 331  44
331 33  44
16 332  45
332 333  45
333 334  45
334 33  45
17 335  46
335 336  46
336 34  46
33 337  47
337 338  47
338 339  47
339 340  47
340 34  47
18 341  48
341 342  48
342 35  48
34 343  49
343 344  49
344 345  49
345 346  49
346 347  49
347 348  49
348 349  49
349 350  49
350 351  49
351 352  49
352 353  49
353 354  49
354 355  49
355 35  49
35 356  50
356 357  50
357 358  50
358 359  50
359 30  50
36 360  51
360 361  51
361 362  51
362 363  51
363 364  51
364 365  51
365 366  51
366 367  51
367 368  51
368 369  51
369 370  51
370 371  51
371 372  51
372 373  51
373 374  51
374 375  51
375 376  51
376 37  51
26 377  52
377 37  52
36 378  53
378 25  53
37 379  54
379 380  54
380 381  54
381 382  54
382 383  54
383 384  54
384 385  54
385 386  54
386 38  54
38 387  55
387 388  55
388 389  55
389 390  55
390 391  55
391 392  55
392 393  55
393 394  55
394 36  55
39 395  56
395 396  56
396 397  56
397 398  56
398 399  56
399 400  56
400 401  56
401 402  56
402 40  56
41 403  57
403 404  57
404 405  57
405 406  57
406 407  57
407 408  57
408 409  57
409 410  57
410 39  57
40 411  58
411 412  58
412 413  58
413 414  58
414 415  58
415 416  58
416 417  58
417 418  58
418 419  58
419 420  58
420 421  58
421 422  58
422 423  58
423 424  58
424 425  58
425 426  58
426 427  58
427 41  58
42 428  59
428 429  59
429 430  59
430 431  59
431 432  59
432 433  59
433 434  59
434 435  59
435 43  59
43 436  60
436 437  60
437 438  60
438 439  60
439 440  60
440 441  60
441 442  60
442 443  60
443 444  60
444 445  60
445 446  60
446 447  60
447 448  60
448 449  60
449 450  60
450 451  60
451 452  60
452 44  60
44 453  61
453 454  61
454 455  61
455 456  61
456 457  61
457 458  61
458 459  61
459 460  61
460 42  61
41 461  62
461 44  62
43 462  63
462 40  63
End
