MeshVersionFormatted 1

Dimension
3

Vertices
318
-27.819681108400001  0.42370292775700003  5.4363299999999999  0
-7.976546275424  0.42370292775700003  5.4363299999999999  0
-10.503013963040001  0.42370292775700003  2.9363299999999999  0
-25.29321342079  0.42370292775700003  2.9363299999999999  0
-25.29321342079  -2.0762970722429999  2.9363299999999999  0
-10.503013963040001  -2.0762970722429999  2.9363299999999999  0
-7.976546275424  -2.0762970722429999  5.4363299999999999  0
-17.898113691910002  -2.0762970722429999  7.7314500387229996  0
-27.819681108400001  -2.0762970722429999  5.4363299999999999  0
-10.39811369191  -0.82629707224299997  2.9363299999999999  0
-17.898113691910002  -10.826297072239999  5.4363299999999999  0
-12.89811369191  -0.82629707224299997  0.43633  0
-12.89811369191  -0.82629707224299997  -33.643569999999997  0
-13.81821369191  -0.82629707224299997  -34.563670000000002  0
-25.04034000005954  0.42370292775700003  6.3252829273890789  0
-22.216179309205263  0.42370292775700003  7.0593670146497729  0
-19.351027004296157  0.42370292775700003  7.6101535022081679  0
-17.898113691910002  0.42370292775700003  7.7314500387229996  0
-16.445200379527819  0.42370292775700003  7.6101535022083588  0
-13.580048074618849  0.42370292775700003  7.0593670146491574  0
-10.755887383764243  0.42370292775700003  6.3252829273897895  0
-9.2388299471553967  0.42370292775700003  4.1853696600011183  0
-12.615899599861429  0.42370292775700003  2.9363299999999999  0
-14.728785236682857  0.42370292775700003  2.9363299999999999  0
-16.841670873504285  0.42370292775700003  2.9363299999999999  0
-18.954556510325713  0.42370292775700003  2.9363299999999999  0
-21.067442147147144  0.42370292775700003  2.9363299999999999  0
-23.180327783968572  0.42370292775700003  2.9363299999999999  0
-26.557397436671746  0.42370292775700008  4.1853696600009771  0
-23.444438488571251  -2.0762970722429999  2.9363299999999999  0
-21.595663556352498  -2.0762970722429999  2.9363299999999999  0
-19.746888624133749  -2.0762970722429999  2.9363299999999999  0
-17.898113691915  -2.0762970722429999  2.9363299999999999  0
-16.049338759696251  -2.0762970722429999  2.9363299999999999  0
-14.200563827477502  -2.0762970722429999  2.9363299999999999  0
-12.35178889525875  -2.0762970722429999  2.9363299999999999  0
-9.238829947155395  -2.0762970722429999  4.1853696600011165  0
-12.870145110091986  -2.0762970722429999  6.8910096760485553  0
-15.3656208371328  -2.0762970722429999  7.4310996554090565  0
-20.430606546688274  -2.0762970722429999  7.4310996554096977  0
-22.926082273730056  -2.0762970722429999  6.8910096760490491  0
-25.390340710986219  -2.0762970722429999  6.2224336808114513  0
-26.557397436671742  -2.0762970722429994  4.1853696600009771  0
-10.424384770997833  -0.19910012014499712  2.9363299999999999  0
-10.424384770997833  -1.4534940243409995  2.9363299999999999  0
-25.398113691910002  -0.82629707224300086  2.9363299999999999  0
-17.898113691910002  -6.4986718336836846  6.7645033012922866  0
-19.695134188544809  -10.663507923631435  5.4363300000000017  0
-21.433647597842675  -10.180440539177877  5.4363300000000017  0
-23.057051696253716  -9.3928225445297695  5.4363300000000017  0
-24.512491969571375  -8.3262970722430918  5.4363300000000017  0
-25.752582441205966  -7.0155878770390627  5.4363300000000017  0
-26.73694845674175  -5.5033688057106103  5.4363300000000008  0
-27.433541195060478  -3.8388744292848771  5.4363300000000008  0
-8.3626861887596533  -3.8388744292852914  5.4363300000000008  0
-9.0592789270784291  -5.5033688057109416  5.4363300000000008  0
-10.043644942614232  -7.0155878770393105  5.4363300000000017  0
-11.283735414248817  -8.326297072243257  5.4363300000000017  0
-12.739175687566442  -9.3928225445298636  5.4363300000000017  0
-14.362579785977445  -10.180440539177921  5.4363300000000017  0
-16.101093195275254  -10.663507923631446  5.4363300000000017  0
-27.465021030259681  2.0847652732644022  5.436329999999999  0
-26.834364105124543  3.6618460351370365  5.436329999999999  0
-25.945904229594223  5.109447823013225  5.436329999999999  0
-24.825272688226363  6.3858086008425854  5.4363299999999981  0
-23.504798713563872  7.4541064848284853  5.4363299999999981  0
-22.022576816262447  8.2835220223305512  5.4363299999999981  0
-20.421367792024444  8.8501273059173364  5.4363299999999981  0
-18.747365110320857  9.1375762724120371  5.4363299999999981  0
-17.048862273499644  9.1375762724120797  5.4363299999999981  0
-15.374859591796042  8.8501273059174643  5.4363299999999981  0
-13.773650567558013  8.2835220223307573  5.4363299999999981  0
-12.291428670256538  7.4541064848287624  5.4363299999999981  0
-10.970954695594001  6.3858086008429327  5.4363299999999981  0
-9.8503231542260785  5.1094478230136282  5.436329999999999  0
-8.9618632786956827  3.6618460351374806  5.436329999999999  0
-8.3312063535604661  2.0847652732648774  5.436329999999999  0
-12.974074926848962  -1.6945379605776516  0.43633000000000016  0
-13.199650587980459  -2.5363977888713434  0.43633000000000038  0
-13.567986672987807  -3.3262970722429994  0.43633000000000055  0
-14.067891476315111  -4.0402351206756961  0.43633000000000072  0
-14.684175643477305  -4.6565192878378898  0.43633000000000083  0
-15.398113691910002  -5.1564240911651931  0.43633000000000094  0
-16.188012975281659  -5.524760176172542  0.43633000000000105  0
-17.029872803575351  -5.7503358373040401  0.43633000000000111  0
-17.898113691910002  -5.8262970722430003  0.43633000000000111  0
-18.766354580244652  -5.7503358373040401  0.43633000000000111  0
-19.608214408538345  -5.5247601761725429  0.43633000000000105  0
-20.398113691910002  -5.156424091165194  0.43633000000000094  0
-21.1120517403427  -4.6565192878378898  0.43633000000000083  0
-21.728335907504892  -4.0402351206756979  0.43633000000000072  0
-22.228240710832196  -3.3262970722429994  0.43633000000000055  0
-22.596576795839542  -2.5363977888713443  0.43633000000000038  0
-22.82215245697104  -1.6945379605776536  0.43633000000000016  0
-22.898113691910002  -0.82629707224300064  0.43633  0
-22.822152456971043  0.04194381609165021  0.43632999999999983  0
-22.596576795839546  0.88380364438534331  0.43632999999999961  0
-22.228240710832196  1.6737029277569992  0.43632999999999944  0
-21.728335907504892  2.3876409761896964  0.43632999999999927  0
-21.1120517403427  3.0039251433518896  0.43632999999999916  0
-20.398113691910005  3.503829946679192  0.43632999999999905  0
-19.608214408538348  3.8721660316865409  0.43632999999999894  0
-18.766354580244652  4.0977416928180395  0.43632999999999889  0
-17.898113691910002  4.1737029277569997  0.43632999999999889  0
-17.029872803575351  4.0977416928180403  0.43632999999999889  0
-16.188012975281662  3.8721660316865427  0.43632999999999894  0
-15.398113691910002  3.5038299466791929  0.43632999999999905  0
-14.684175643477305  3.0039251433518905  0.43632999999999916  0
-14.067891476315113  2.3876409761896982  0.43632999999999927  0
-13.567986672987811  1.6737029277570024  0.43632999999999944  0
-13.199650587980461  0.88380364438534709  0.43632999999999961  0
-12.974074926848962  0.041943816091651986  0.43632999999999983  0
-12.974074926848962  -1.6945379605776516  -33.643569999999997  0
-13.199650587980459  -2.5363977888713434  -33.643569999999997  0
-13.567986672987807  -3.3262970722429994  -33.643569999999997  0
-14.067891476315111  -4.0402351206756961  -33.643569999999997  0
-14.684175643477305  -4.6565192878378898  -33.643569999999997  0
-15.398113691910002  -5.1564240911651931  -33.643569999999997  0
-16.188012975281659  -5.524760176172542  -33.643569999999997  0
-17.029872803575351  -5.7503358373040401  -33.643569999999997  0
-17.898113691910002  -5.8262970722430003  -33.643569999999997  0
-18.766354580244652  -5.7503358373040401  -33.643569999999997  0
-19.608214408538345  -5.5247601761725429  -33.643569999999997  0
-20.398113691910002  -5.156424091165194  -33.643569999999997  0
-21.1120517403427  -4.6565192878378898  -33.643569999999997  0
-21.728335907504892  -4.0402351206756979  -33.643569999999997  0
-22.228240710832196  -3.3262970722429994  -33.643569999999997  0
-22.596576795839542  -2.5363977888713443  -33.643569999999997  0
-22.82215245697104  -1.6945379605776536  -33.643569999999997  0
-22.898113691910002  -0.82629707224300064  -33.643569999999997  0
-22.822152456971043  0.04194381609165021  -33.643569999999997  0
-22.596576795839546  0.88380364438534331  -33.643569999999997  0
-22.228240710832196  1.6737029277569992  -33.643569999999997  0
-21.728335907504892  2.3876409761896964  -33.643569999999997  0
-21.1120517403427  3.0039251433518896  -33.643569999999997  0
-20.398113691910005  3.503829946679192  -33.643569999999997  0
-19.608214408538348  3.8721660316865409  -33.643569999999997  0
-18.766354580244652  4.0977416928180395  -33.643569999999997  0
-17.898113691910002  4.1737029277569997  -33.643569999999997  0
-17.029872803575351  4.0977416928180403  -33.643569999999997  0
-16.188012975281662  3.8721660316865427  -33.643569999999997  0
-15.398113691910002  3.5038299466791929  -33.643569999999997  0
-14.684175643477305  3.0039251433518905  -33.643569999999997  0
-14.067891476315113  2.3876409761896982  -33.643569999999997  0
-13.567986672987811  1.6737029277570024  -33.643569999999997  0
-13.199650587980461  0.88380364438534709  -33.643569999999997  0
-12.974074926848962  0.041943816091651986  -33.643569999999997  0
-12.89811369191  -0.82629707224299676  -2.185200769230768  0
-12.89811369191  -0.82629707224299731  -4.8067315384615359  0
-12.89811369191  -0.82629707224299798  -7.4282623076923038  0
-12.89811369191  -0.82629707224299853  -10.049793076923073  0
-12.89811369191  -0.82629707224299909  -12.671323846153843  0
-12.89811369191  -0.82629707224299964  -15.292854615384611  0
-12.89811369191  -0.82629707224300031  -17.914385384615379  0
-12.89811369191  -0.82629707224300086  -20.535916153846149  0
-12.89811369191  -0.82629707224300142  -23.157446923076918  0
-12.89811369191  -0.82629707224300197  -25.778977692307684  0
-12.89811369191  -0.82629707224300264  -28.400508461538454  0
-12.89811369191  -0.82629707224300319  -31.022039230769224  0
-13.880196540395493  -1.5347642723063091  -34.563670000000002  0
-14.064261768365574  -2.221705054997396  -34.563670000000002  0
-14.364816647009871  -2.8662470722429996  -34.563670000000002  0
-14.772728968428883  -3.4488062410031115  -34.563670000000002  0
-15.275604523149889  -3.9516817957241184  -34.563670000000002  0
-15.858163691910001  -4.3595941171431312  -34.563670000000002  0
-16.502705709155606  -4.660148995787428  -34.563670000000002  0
-17.189646491846691  -4.8442142237575085  -34.563670000000002  0
-17.898113691910002  -4.9061970722430006  -34.563670000000002  0
-18.606580891973312  -4.8442142237575085  -34.563670000000002  0
-19.293521674664397  -4.660148995787428  -34.563670000000002  0
-19.938063691910003  -4.3595941171431321  -34.563670000000002  0
-20.520622860670112  -3.9516817957241184  -34.563670000000002  0
-21.023498415391121  -3.4488062410031124  -34.563670000000002  0
-21.431410736810133  -2.8662470722429996  -34.563670000000002  0
-21.731965615454428  -2.2217050549973965  -34.563670000000002  0
-21.916030843424508  -1.5347642723063106  -34.563670000000002  0
-21.97801369191  -0.82629707224300053  -34.563670000000002  0
-21.916030843424508  -0.1178298721796921  -34.563670000000002  0
-21.731965615454431  0.56911091051139573  -34.563670000000002  0
-21.431410736810133  1.2136529277569994  -34.563670000000002  0
-21.023498415391121  1.7962120965171118  -34.563670000000002  0
-20.520622860670116  2.2990876512381182  -34.563670000000002  0
-19.938063691910003  2.7069999726571305  -34.563670000000002  0
-19.293521674664401  3.0075548513014274  -34.563670000000002  0
-18.606580891973312  3.1916200792715084  -34.563670000000002  0
-17.898113691910002  3.2536029277570004  -34.563670000000002  0
-17.189646491846695  3.1916200792715084  -34.563670000000002  0
-16.50270570915561  3.0075548513014287  -34.563670000000002  0
-15.858163691910001  2.7069999726571314  -34.563670000000002  0
-15.275604523149891  2.2990876512381191  -34.563670000000002  0
-14.772728968428884  1.7962120965171131  -34.563670000000002  0
-14.364816647009871  1.2136529277570021  -34.563670000000002  0
-14.064261768365576  0.56911091051139884  -34.563670000000002  0
-13.880196540395493  -0.11782987217969065  -34.563670000000002  0
-16.830637141721386  0.42370292775700003  5.5457264602300302  0
-11.032926007108578  -0.82555300841824575  2.9363299999999999  0
-22.444756914322376  -5.2538315972892198  6.5831557052409977  0
-20.354446564251408  -7.276705610379187  6.4265773558625767  0
-13.726734969191693  -5.5258948129449434  6.6003409466690428  0
-15.704582095446655  -7.2747980770316767  6.4526086952155239  0
-11.244475230034233  -3.989024490273251  6.2908170984505603  0
-17.438478212034962  3.0214509370246239  7.2036809963146808  0
-17.652630063482537  5.9262954961408747  6.4680820814651838  0
-12.262147124392445  3.0518974585551306  6.4440325641472  0
-20.793583971151964  5.7558578136906302  6.3428086988811998  0
-23.557264872095409  3.2916059729531244  6.3987505599986321  0
-20.693686836098383  3.0655200895844428  6.9877007007221934  0
-14.681744438394871  4.28083691955079  6.6679126183234914  0
-25.3407810240749  2.7411498577230184  3.6898125749880677  0
-10.498215002012778  2.8391232916639235  3.6942841694731854  0
-23.760037785958414  4.7304093334684856  3.5134049757499408  0
-25.483617993403989  -4.1843098907001126  3.7318785410635194  0
-12.355175358059793  -6.9520085755229939  3.6975954475277906  0
-22.416062492586484  -7.7374057645709486  3.6931626083879383  0
-21.923226212459841  4.4698580504612284  2.0884567191028527  0
-14.53787351764193  -6.6410862172159506  2.1522057306424038  0
-14.507420537839156  -8.3988279891035305  3.7333188846560841  0
-11.775119743251441  -3.5979388162004238  2.1574201535634927  0
-23.788357848179736  -3.8486944044093301  2.0567425138939477  0
-20.334884368671169  -7.6696110444559809  2.7005434779754989  0
-23.687443846244161  2.4730012998715885  2.0997910664646326  0
-12.769744050972326  -5.2621801416985097  2.216981427418089  0
-12.498740640273329  3.2937482527914148  2.2280899214969505  0
-16.064645290779389  5.60571923559485  2.1245614674663145  0
-10.587488720302892  -4.7611076916321915  3.7386171599444644  0
-22.165106656114709  -5.9192910464813693  2.0805618275606097  0
-14.004119487804074  4.7955811261370949  2.2750948986646549  0
-17.38023111120777  6.8760846478141966  3.1561024402391986  0
-14.550119889498646  6.7292735073646606  3.7004518096450649  0
-18.506977418998055  -8.4985793579749007  3.1327337387814396  0
-16.573930856601613  -7.9797175103570579  2.7112790820174215  0
-24.099725395904446  -5.9491546902701007  3.4801883964365921  0
-12.083752631731322  5.1073395316147892  3.7438469506296261  0
-19.419517837803546  7.3277014769989064  3.7310489775432423  0
-19.516394272048501  5.6212842932506613  2.0838962840533668  0
-21.601832377809536  6.3374236021072017  3.5008464768024936  0
-11.748800582862641  -1.7801542639718457  1.6591826622014523  0
-11.733810255470903  1.4674544125323812  2.0135583471512639  0
-17.57489790038413  -5.815839290934842  -17.146372648192365  0
-16.002484619822482  3.8004285972836285  -6.6727537103483794  0
-22.811860316525703  0.098415915163266754  -19.708188852800891  0
-21.152910970604282  2.9692654255436355  -8.936822214646952  0
-18.956103120777314  4.0604869795036107  -13.352217134651269  0
-17.994139802530935  -5.825374885808122  -26.189845452065832  0
-21.987616228396625  2.0505013225127846  -17.154221184517777  0
-14.395644396686279  2.7419950733099743  -19.512256088831023  0
-19.41692805354721  3.9374412638628526  -20.157817781460459  0
-13.315647374371462  1.173953524213545  -19.920062354877476  0
-22.49819079001735  1.1331137298779503  -25.529642661443248  0
-22.612505450374996  0.83938907698120102  -13.259108316971092  0
-15.159938002300629  -5.0098833200490915  -25.58018285581953  0
-14.318046550194431  -4.3167296042952241  -13.149828219837319  0
-22.897343751304277  -0.73855419077262918  -26.033868129325104  0
-20.332195533362523  3.5412246036174744  -25.897118957881588  0
-13.937649894042847  2.2257066148097628  -26.213701440367373  0
-22.734172214740553  -2.096154530290157  -19.875686519580832  0
-13.159408328776113  -2.4214997181178544  -27.50873703170689  0
-16.647173269088821  -5.6672833414398003  -9.0875978251103167  0
-22.605425859790287  -2.511886629082452  -26.623676426379802  0
-13.235900184061261  -2.6328864575856548  -21.771712777433681  0
-19.754298970980553  -5.4689876940443023  -6.8389687519514712  0
-22.557377429545046  -2.6404804761906591  -12.821861501064182  0
-16.937714340262364  4.0805994097866343  -13.009166900395945  0
-13.285582469183705  1.1036137338242309  -6.6599293757071649  0
-22.165483424973264  1.7793804905677955  -7.4530863279899116  0
-22.896765004896999  -0.94242222530364184  -13.666671553627101  0
-13.93998904212971  -3.8813337752633847  -26.552645615235456  0
-13.854110749975028  2.1141178994270349  -13.084168694841026  0
-17.704226058208747  4.1699422720536399  -19.496552659452803  0
-15.721537182289232  -5.3276873794444395  -16.596073223262461  0
-13.991934110416128  -3.9474765091098289  -6.5174874252531296  0
-15.165957260832664  3.3612226275462151  -12.929061316514675  0
-14.373252623458599  2.7198775495312377  -6.595108694179773  0
-20.599672439619148  -5.0336216773425653  -26.39081960155665  0
-17.913903737254952  4.173677995141639  -6.8780242403043506  0
-13.258853817930561  -2.6910404384154765  -11.090971450357241  0
-22.825955682433211  0.020091323492824831  -6.8143968924071903  0
-15.267208094869229  -5.0781596922554959  -7.5649318550148301  0
-13.160430720776874  0.77193947628014647  -26.514688846982626  0
-22.796892843057293  -1.8272780052705069  -6.6531164331333912  0
-21.840970844415214  -3.9010129086965892  -24.480821176841935  0
-18.576145071528234  4.1275169582039419  -26.488510906454131  0
-21.58354655627214  2.5526945824195959  -24.833544199628534  0
-19.269669073267561  -5.6345021256770922  -22.889335751199049  0
-20.985637174508749  -4.7591330393793472  -9.834847767816477  0
-21.896446032612403  -3.8285193313859289  -16.446640147177714  0
-20.725794202716997  3.2973206269141708  -16.643458136881701  0
-16.804448287785785  4.0526265778894546  -26.175823237033615  0
-14.276099351767568  -4.2731814799077794  -19.845864059445528  0
-18.143813341960385  -5.8202565916989899  -8.0671706586341898  0
-19.778278915689217  3.8067341958676821  -7.237865700981958  0
-15.19566551158027  3.3804562878474758  -26.169219454757233  0
-16.511720396104163  -5.6302447852541073  -24.322341752889493  0
-19.302304698351847  -5.6250727095725708  -14.569983299947602  0
-22.03572440933036  -3.6334624665666344  -7.0954429528787752  0
-15.925811102055205  3.7682673787199037  -19.417693654596132  0
-20.706105300575281  -4.9633471233863711  -18.315880128319357  0
-13.32149903151695  -2.8399003723682736  -16.403203225652323  0
-13.165425565503314  -2.4392642443110351  -5.5789122709867005  0
-13.127007414383462  0.66921116529594549  -13.440742843086433  0
-18.041372930248006  0.78394355765559631  -34.563670000000002  0
-19.467889961643525  -0.23273608481395541  -34.563670000000002  0
-20.638732830011875  -2.7813538960575341  -34.563670000000002  0
-19.670353682417375  1.6667300204819333  -34.563670000000002  0
-16.258820702532578  -1.8199072783947907  -34.563670000000002  0
-14.802242920354511  -0.61704785139386098  -34.563670000000002  0
-16.459615285073259  0.030710195712208194  -34.563670000000002  0
-18.184641457087416  2.4338876700550309  -34.563670000000002  0
-17.873668550016021  -1.1363908233127715  -34.563670000000002  0
-19.34413930000996  -2.0900341631416697  -34.563670000000002  0
-14.861872193300368  -2.2761048191901811  -34.563670000000002  0
-16.588402928310174  1.9366682985317145  -34.563670000000002  0
-15.190400131583333  1.0334648149774475  -34.563670000000002  0
-20.985615995594998  -1.1583441462970598  -34.563670000000002  0
-17.665920178455636  -3.4961014208818071  -34.563670000000002  0
-15.885649693154203  -3.4296376069993069  -34.563670000000002  0
-19.429957648677991  -3.7399274919662511  -34.563670000000002  0
-20.889946220658349  0.53444349760653054  -34.563670000000002  0
Triangles
632
17 195 18  1
24 195 25  1
15 4 28  1
27 17 16  1
29 15 1  1
4 15 29  1
16 28 27  1
195 17 26  1
17 27 26  1
15 28 16  1
3 21 23  1
21 22 2  1
20 195 24  1
20 23 21  1
195 20 19  1
23 20 24  1
22 21 3  1
19 18 195  1
195 26 25  1
40 31 32  2
32 8 40  2
31 40 41  2
35 39 34  2
31 41 30  2
5 42 43  2
30 42 5  2
43 42 9  2
35 38 39  2
42 30 41  2
38 37 7  2
38 35 36  2
8 34 39  2
38 6 37  2
6 38 36  2
34 8 33  2
8 32 33  2
33 26 32  3
4 46 28  3
31 28 30  3
26 33 25  3
46 30 28  3
44 196 10  3
30 46 5  3
32 27 31  3
24 34 35  3
27 32 26  3
28 31 27  3
23 35 36  3
35 23 24  3
3 196 44  3
34 24 25  3
196 45 10  3
25 33 34  3
196 6 45  3
6 196 36  3
196 3 23  3
23 36 196  3
52 197 51  4
8 198 197  4
42 197 53  4
48 198 47  4
8 197 40  4
48 47 11  4
198 8 47  4
51 197 50  4
42 54 9  4
42 53 54  4
53 197 52  4
197 42 41  4
50 198 49  4
197 41 40  4
198 48 49  4
198 50 197  4
7 201 38  5
57 201 56  5
8 200 47  5
55 56 201  5
61 200 60  5
38 199 39  5
201 57 199  5
199 58 59  5
199 57 58  5
47 61 11  5
59 200 199  5
200 59 60  5
199 8 39  5
200 61 47  5
200 8 199  5
199 38 201  5
201 7 55  5
202 19 18  6
205 202 207  6
208 74 204  6
18 207 202  6
63 15 62  6
65 206 64  6
62 15 1  6
206 66 205  6
206 205 207  6
15 206 16  6
21 77 2  6
207 18 17  6
206 15 63  6
21 204 76  6
71 208 203  6
68 203 205  6
208 71 72  6
76 204 75  6
21 76 77  6
202 208 19  6
208 72 73  6
204 74 75  6
74 208 73  6
203 68 69  6
68 205 67  6
203 69 70  6
70 71 203  6
204 21 20  6
20 208 204  6
202 205 203  6
205 66 67  6
16 207 17  6
206 63 64  6
207 16 206  6
66 206 65  6
208 20 19  6
208 202 203  6
54 212 53  7
100 215 101  7
221 215 99  7
225 6 37  7
228 69 70  7
210 233 75  7
97 221 98  7
84 231 85  7
209 29 62  7
22 210 77  7
9 43 54  7
211 236 215  7
228 229 224  7
73 233 229  7
6 225 218  7
57 225 56  7
213 217 216  7
230 87 86  7
80 222 81  7
59 213 58  7
225 37 55  7
82 216 83  7
214 49 50  7
212 43 5  7
55 37 7  7
87 230 220  7
214 232 226  7
231 11 230  7
49 220 48  7
220 89 88  7
222 82 81  7
237 79 78  7
10 237 12  7
79 218 80  7
231 84 216  7
83 216 84  7
45 6 237  7
61 231 217  7
220 88 87  7
79 237 218  7
51 214 50  7
226 220 214  7
43 212 54  7
219 94 93  7
95 4 96  7
51 232 214  7
89 226 90  7
5 219 212  7
230 48 220  7
5 95 94  7
94 219 5  7
209 62 63  7
96 4 97  7
71 228 70  7
236 211 66  7
235 103 102  7
215 221 211  7
210 75 76  7
223 108 227  7
105 224 106  7
223 233 210  7
3 112 238  7
210 238 223  7
238 110 223  7
233 73 74  7
238 210 3  7
112 3 44  7
104 235 228  7
46 95 5  7
224 104 228  7
4 95 46  7
64 211 209  7
235 215 236  7
29 1 62  7
64 209 63  7
66 211 65  7
29 209 4  7
69 234 68  7
229 72 73  7
77 210 76  7
22 77 2  7
229 71 72  7
107 227 108  7
99 215 100  7
4 221 97  7
210 22 3  7
109 223 110  7
221 4 209  7
211 64 65  7
232 51 52  7
53 232 52  7
82 222 216  7
213 57 58  7
91 226 219  7
226 89 220  7
235 104 103  7
101 235 102  7
216 222 213  7
217 213 59  7
217 59 60  7
60 61 217  7
218 237 6  7
225 213 222  7
219 93 92  7
92 91 219  7
48 230 11  7
220 49 214  7
209 211 221  7
221 99 98  7
222 80 218  7
213 225 57  7
111 238 112  7
110 238 111  7
107 106 224  7
71 229 228  7
222 218 225  7
225 55 56  7
219 232 212  7
226 91 90  7
108 223 109  7
227 107 224  7
104 224 105  7
69 228 234  7
229 233 227  7
227 224 229  7
86 231 230  7
11 231 61  7
231 86 85  7
231 216 217  7
232 53 212  7
232 219 226  7
74 75 233  7
233 223 227  7
228 235 234  7
67 234 236  7
235 101 215  7
234 67 68  7
236 66 67  7
236 234 235  7
78 12 237  7
237 10 45  7
12 44 10  7
112 44 12  7
154 298 260  8
260 289 267  8
284 239 294  8
276 153 152  8
78 149 148  8
79 299 78  8
251 118 117  8
13 159 113  8
257 158 157  8
283 135 134  8
127 281 259  8
99 265 98  8
253 256 241  8
85 258 84  8
158 113 159  8
12 78 148  8
291 103 275  8
103 291 102  8
293 120 119  8
105 275 104  8
149 78 299  8
299 151 150  8
123 284 274  8
273 107 108  8
299 271 276  8
82 271 81  8
153 276 298  8
154 260 155  8
270 258 239  8
119 251 293  8
120 293 244  8
270 278 258  8
123 274 124  8
90 295 285  8
85 290 258  8
294 290 261  8
240 105 106  8
260 267 257  8
124 274 125  8
281 127 126  8
278 270 252  8
113 158 257  8
117 267 251  8
267 116 115  8
113 257 114  8
290 85 86  8
83 278 82  8
87 290 86  8
89 285 261  8
92 295 91  8
129 259 253  8
256 286 262  8
261 87 88  8
255 143 292  8
300 264 151  8
243 269 247  8
291 101 102  8
242 99 100  8
279 156 157  8
145 279 146  8
279 255 248  8
248 255 246  8
107 273 240  8
156 279 248  8
147 159 13  8
147 158 159  8
158 147 279  8
101 291 242  8
277 97 265  8
154 300 153  8
131 249 132  8
280 95 277  8
253 259 256  8
110 273 109  8
151 264 150  8
245 241 250  8
93 295 92  8
97 277 96  8
133 283 134  8
249 133 132  8
287 254 283  8
264 149 150  8
282 137 254  8
288 296 292  8
282 254 247  8
139 288 140  8
140 288 141  8
275 103 104  8
143 255 144  8
273 108 109  8
149 112 148  8
240 273 272  8
12 148 112  8
112 149 264  8
112 264 111  8
111 264 110  8
122 284 123  8
120 244 121  8
106 107 240  8
296 263 272  8
131 253 249  8
280 277 266  8
100 101 242  8
254 287 247  8
288 282 269  8
242 287 245  8
122 121 244  8
239 244 293  8
265 245 250  8
135 283 254  8
300 151 152  8
246 296 272  8
137 282 138  8
287 283 245  8
248 154 155  8
155 156 248  8
249 253 241  8
241 245 249  8
95 280 94  8
245 265 242  8
267 117 116  8
156 260 257  8
298 154 153  8
271 278 252  8
253 131 130  8
130 129 253  8
254 137 136  8
136 135 254  8
279 145 255  8
145 144 255  8
285 89 90  8
250 241 266  8
115 257 267  8
257 157 156  8
84 278 83  8
239 258 290  8
259 129 128  8
128 127 259  8
260 156 155  8
252 298 276  8
88 89 261  8
125 281 126  8
295 93 280  8
256 266 241  8
240 275 105  8
263 296 269  8
264 300 268  8
273 110 264  8
265 97 98  8
265 99 242  8
266 256 262  8
277 95 96  8
257 115 114  8
251 289 270  8
300 152 153  8
154 248 300  8
269 282 247  8
269 243 263  8
270 293 251  8
289 251 267  8
80 299 79  8
80 81 271  8
263 240 272  8
268 272 273  8
273 264 268  8
272 268 246  8
281 297 286  8
297 281 274  8
275 240 263  8
263 243 275  8
271 252 276  8
151 299 276  8
277 265 250  8
250 266 277  8
271 82 278  8
278 84 258  8
279 157 158  8
279 147 146  8
266 262 280  8
280 93 94  8
256 259 281  8
281 125 274  8
288 139 282  8
139 138 282  8
283 133 249  8
249 245 283  8
284 122 244  8
244 239 284  8
295 286 285  8
285 297 294  8
286 295 262  8
286 256 281  8
287 291 243  8
243 247 287  8
292 143 142  8
141 292 142  8
298 289 260  8
252 270 289  8
290 87 261  8
290 294 239  8
291 275 243  8
291 287 242  8
246 255 292  8
292 141 288  8
251 119 118  8
293 270 239  8
294 261 285  8
297 274 284  8
295 90 91  8
295 280 262  8
296 246 292  8
296 288 269  8
284 294 297  8
297 285 286  8
276 152 151  8
289 298 252  8
299 80 271  8
299 150 149  8
248 268 300  8
268 248 246  8
115 162 161  9
144 190 143  9
175 127 128  9
161 114 115  9
163 115 116  9
181 134 182  9
163 117 164  9
192 144 145  9
170 122 123  9
166 118 119  9
113 161 160  9
120 168 167  9
14 113 160  9
118 165 164  9
120 166 119  9
172 126 173  9
174 126 127  9
126 172 125  9
176 128 129  9
127 175 174  9
131 178 130  9
179 132 133  9
172 124 125  9
124 171 123  9
168 121 122  9
168 120 121  9
161 113 114  9
128 176 175  9
162 115 163  9
178 131 179  9
166 120 167  9
165 118 166  9
190 144 191  9
171 124 172  9
126 174 173  9
123 171 170  9
176 129 130  9
176 130 177  9
168 122 169  9
122 170 169  9
177 130 178  9
179 133 180  9
180 133 181  9
185 138 186  9
182 136 183  9
136 184 183  9
188 142 189  9
184 137 138  9
138 185 184  9
193 146 194  9
189 142 190  9
113 14 13  9
192 146 193  9
194 147 14  9
142 188 141  9
186 139 187  9
135 182 134  9
132 179 131  9
134 181 133  9
182 135 136  9
137 184 136  9
139 186 138  9
118 164 117  9
117 163 116  9
187 139 140  9
140 188 187  9
188 140 141  9
143 190 142  9
146 192 145  9
147 194 146  9
13 14 147  9
144 192 191  9
303 317 310  10
304 184 183  10
181 318 304  10
313 190 312  10
301 309 307  10
317 169 315  10
314 175 303  10
181 304 182  10
178 318 179  10
172 317 303  10
311 306 305  10
304 318 302  10
318 314 302  10
184 308 185  10
309 301 302  10
308 184 304  10
175 314 176  10
187 312 188  10
308 187 186  10
190 313 191  10
303 175 174  10
188 312 189  10
306 14 194  10
306 313 307  10
193 313 306  10
306 160 14  10
169 317 170  10
160 311 161  10
166 315 167  10
166 316 315  10
316 166 165  10
311 160 306  10
163 316 164  10
167 315 168  10
312 187 308  10
318 178 314  10
314 178 177  10
310 302 314  10
303 174 173  10
173 172 303  10
302 301 304  10
304 183 182  10
316 163 311  10
313 312 307  10
194 193 306  10
312 190 189  10
307 309 305  10
305 306 307  10
186 185 308  10
308 304 301  10
302 310 309  10
315 169 168  10
317 315 310  10
309 315 305  10
311 163 162  10
162 161 311  10
312 308 301  10
301 307 312  10
313 193 192  10
192 191 313  10
314 177 176  10
314 303 310  10
315 316 305  10
315 309 310  10
165 164 316  10
316 311 305  10
317 172 171  10
171 170 317  10
318 181 180  10
180 179 318  10
Edges
202
1 15  1
15 16  1
16 17  1
17 18  1
18 19  1
19 20  1
20 21  1
21 2  1
2 22  2
22 3  2
3 23  3
23 24  3
24 25  3
25 26  3
26 27  3
27 28  3
28 4  3
4 29  4
29 1  4
5 30  5
30 31  5
31 32  5
32 33  5
33 34  5
34 35  5
35 36  5
36 6  5
6 37  6
37 7  6
7 38  7
38 39  7
39 8  7
8 40  8
40 41  8
41 42  8
42 9  8
9 43  9
43 5  9
3 44  10
44 10  10
10 45  11
45 6  11
5 46  12
46 4  12
8 47  13
47 11  13
11 48  14
48 49  14
49 50  14
50 51  14
51 52  14
52 53  14
53 54  14
54 9  14
7 55  15
55 56  15
56 57  15
57 58  15
58 59  15
59 60  15
60 61  15
61 11  15
1 62  16
62 63  16
63 64  16
64 65  16
65 66  16
66 67  16
67 68  16
68 69  16
69 70  16
70 71  16
71 72  16
72 73  16
73 74  16
74 75  16
75 76  16
76 77  16
77 2  16
10 12  17
12 78  18
78 79  18
79 80  18
80 81  18
81 82  18
82 83  18
83 84  18
84 85  18
85 86  18
86 87  18
87 88  18
88 89  18
89 90  18
90 91  18
91 92  18
92 93  18
93 94  18
94 95  18
95 96  18
96 97  18
97 98  18
98 99  18
99 100  18
100 101  18
101 102  18
102 103  18
103 104  18
104 105  18
105 106  18
106 107  18
107 108  18
108 109  18
109 110  18
110 111  18
111 112  18
112 12  18
13 113  19
113 114  19
114 115  19
115 116  19
116 117  19
117 118  19
118 119  19
119 120  19
120 121  19
121 122  19
122 123  19
123 124  19
124 125  19
125 126  19
126 127  19
127 128  19
128 129  19
129 130  19
130 131  19
131 132  19
132 133  19
133 134  19
134 135  19
135 136  19
136 137  19
137 138  19
138 139  19
139 140  19
140 141  19
141 142  19
142 143  19
143 144  19
144 145  19
145 146  19
146 147  19
147 13  19
12 148  20
148 149  20
149 150  20
150 151  20
151 152  20
152 153  20
153 154  20
154 155  20
155 156  20
156 157  20
157 158  20
158 159  20
159 13  20
14 160  21
160 161  21
161 162  21
162 163  21
163 164  21
164 165  21
165 166  21
166 167  21
167 168  21
168 169  21
169 170  21
170 171  21
171 172  21
172 173  21
173 174  21
174 175  21
175 176  21
176 177  21
177 178  21
178 179  21
179 180  21
180 181  21
181 182  21
182 183  21
183 184  21
184 185  21
185 186  21
186 187  21
187 188  21
188 189  21
189 190  21
190 191  21
191 192  21
192 193  21
193 194  21
194 14  21
13 14  22
End
