MeshVersionFormatted 1

Dimension
3

Vertices
522
15  -6.1230317691114603e-16  25  0
15  3.4914813388431403e-14  35  0
30  -3.4914813388431302e-14  35  0
30  -6.1230317691113903e-16  25  0
-30  -9.1845476536670899e-16  22.5  0
-30  5.23722200826476e-14  37.5  0
-15  -5.2372220082646899e-14  37.5  0
-15  -9.1845476536670307e-16  22.5  0
30  -15.000000000000099  15  0
30  -15.000000000000099  40  0
30  14.999999999999901  15  0
30  14.999999999999901  40  0
15  14.999999999999799  47.696960070847297  0
15  -15.000000000000201  47.696960070847197  0
15  -15.000000000000099  15  0
15  14.999999999999901  15  0
-15  -15.000000000000099  15  0
-15  14.999999999999901  15  0
-15  -15.000000000000201  47.696960070847197  0
-15  14.999999999999799  47.696960070847297  0
-30  14.999999999999901  40  0
-30  -15.000000000000099  40  0
-30  -15.000000000000099  15  0
-30  14.999999999999901  15  0
-47.696960070847297  -15.000000000000099  15  0
-47.696960070847297  14.999999999999901  15  0
-50  -15  -4.7594900050024097e-14  0
-50  15  5.7149540115269803e-14  0
-29.999999999999901  15.000000000000099  -40  0
-30.000000000000099  -15  -40  0
30.000000000000099  -15  -40  0
29.999999999999901  15.000000000000099  -40  0
50  -15  -5.2372220082646899e-14  0
47.696960070847297  -15.000000000000099  15  0
47.696960070847297  14.999999999999901  15  0
50  15  5.2372220082646899e-14  0
14.999999999999982  0.86824088833465163  25.075961234938958  0
14.999999999999984  1.7101007166283435  25.301536896070459  0
14.999999999999984  2.4999999999999996  25.669872981077805  0
14.999999999999986  3.2139380484326963  26.16977778440511  0
14.999999999999989  3.83022221559489  26.786061951567305  0
14.999999999999991  4.3301270189221928  27.5  0
14.999999999999995  4.6984631039295417  28.289899283371657  0
14.999999999999996  4.9240387650610398  29.13175911166535  0
15  5  30  0
15.000000000000004  4.9240387650610398  30.86824088833465  0
15.000000000000005  4.6984631039295426  31.710100716628343  0
15.000000000000009  4.3301270189221936  32.5  0
15.000000000000011  3.83022221559489  33.213938048432695  0
15.000000000000014  3.2139380484326976  33.830222215594887  0
15.000000000000016  2.4999999999999996  34.330127018922191  0
15.000000000000016  1.7101007166283444  34.698463103929541  0
15.000000000000018  0.86824088833465363  34.924038765061042  0
18.75  6.1230317691134305e-16  35.000000000000021  0
22.5  6.1230317691134305e-16  35.000000000000007  0
26.25  6.1230317691134305e-16  34.999999999999993  0
30.000000000000018  0.86824088833465018  34.924038765061042  0
30.000000000000018  1.7101007166283433  34.698463103929541  0
30.000000000000014  2.4999999999999991  34.330127018922198  0
30.000000000000014  3.2139380484326963  33.830222215594887  0
30.000000000000011  3.8302222155948895  33.213938048432695  0
30.000000000000007  4.3301270189221919  32.5  0
30.000000000000007  4.6984631039295426  31.710100716628343  0
30.000000000000004  4.9240387650610398  30.86824088833465  0
30  5  30  0
29.999999999999996  4.9240387650610407  29.13175911166535  0
29.999999999999993  4.6984631039295426  28.28989928337166  0
29.999999999999993  4.3301270189221928  27.5  0
29.999999999999989  3.8302222155948904  26.786061951567305  0
29.999999999999986  3.213938048432698  26.16977778440511  0
29.999999999999986  2.5000000000000022  25.669872981077809  0
29.999999999999982  1.7101007166283431  25.301536896070459  0
29.999999999999982  0.86824088833465196  25.075961234938958  0
26.25  -6.12303176911141e-16  24.999999999999996  0
22.5  -6.12303176911141e-16  25.000000000000007  0
18.75  -6.12303176911141e-16  25.000000000000021  0
29.999999999999982  -0.86824088833465163  25.075961234938958  0
29.999999999999982  -1.7101007166283435  25.301536896070459  0
29.999999999999986  -2.4999999999999996  25.669872981077805  0
29.999999999999986  -3.2139380484326963  26.16977778440511  0
29.999999999999989  -3.83022221559489  26.786061951567305  0
29.999999999999993  -4.3301270189221928  27.5  0
29.999999999999993  -4.6984631039295417  28.289899283371657  0
29.999999999999996  -4.9240387650610398  29.13175911166535  0
30  -5  30  0
30.000000000000004  -4.9240387650610398  30.86824088833465  0
30.000000000000007  -4.6984631039295426  31.710100716628343  0
30.000000000000007  -4.3301270189221936  32.5  0
30.000000000000011  -3.83022221559489  33.213938048432695  0
30.000000000000014  -3.2139380484326976  33.830222215594887  0
30.000000000000014  -2.4999999999999996  34.330127018922191  0
30.000000000000018  -1.7101007166283444  34.698463103929541  0
30.000000000000018  -0.86824088833465363  34.924038765061042  0
15.000000000000018  -0.86824088833465018  34.924038765061042  0
15.000000000000016  -1.7101007166283433  34.698463103929541  0
15.000000000000016  -2.4999999999999991  34.330127018922198  0
15.000000000000014  -3.2139380484326963  33.830222215594887  0
15.000000000000011  -3.8302222155948895  33.213938048432695  0
15.000000000000009  -4.3301270189221919  32.5  0
15.000000000000005  -4.6984631039295426  31.710100716628343  0
15.000000000000004  -4.9240387650610398  30.86824088833465  0
15  -5  30  0
14.999999999999996  -4.9240387650610407  29.13175911166535  0
14.999999999999995  -4.6984631039295426  28.28989928337166  0
14.999999999999991  -4.3301270189221928  27.5  0
14.999999999999989  -3.8302222155948904  26.786061951567305  0
14.999999999999986  -3.213938048432698  26.16977778440511  0
14.999999999999984  -2.5000000000000022  25.669872981077809  0
14.999999999999984  -1.7101007166283431  25.301536896070459  0
14.999999999999982  -0.86824088833465196  25.075961234938958  0
-30.000000000000025  1.3023613325019774  22.613941852408438  0
-30.000000000000025  2.565151074942515  22.952305344105689  0
-30.000000000000021  3.7499999999999987  23.50480947161671  0
-30.000000000000021  4.8209070726490442  24.254666676607663  0
-30.000000000000018  5.7453333233923347  25.179092927350954  0
-30.000000000000014  6.4951905283832883  26.249999999999996  0
-30.000000000000011  7.0476946558943121  27.434848925057484  0
-30.000000000000004  7.3860581475915605  28.697638667498019  0
-30  7.5  29.999999999999996  0
-29.999999999999996  7.3860581475915605  31.302361332501974  0
-29.999999999999989  7.0476946558943139  32.565151074942513  0
-29.999999999999986  6.4951905283832927  33.749999999999993  0
-29.999999999999982  5.7453333233923374  34.820907072649042  0
-29.999999999999979  4.8209070726490486  35.74533332339233  0
-29.999999999999979  3.7500000000000027  36.49519052838329  0
-29.999999999999975  2.5651510749425199  37.047694655894311  0
-29.999999999999975  1.3023613325019836  37.386058147591562  0
-25  9.1845476536690896e-16  37.5  0
-20  9.1845476536690896e-16  37.499999999999986  0
-14.999999999999973  1.3023613325019752  37.386058147591562  0
-14.999999999999975  2.565151074942515  37.047694655894311  0
-14.999999999999977  3.7499999999999982  36.49519052838329  0
-14.99999999999998  4.8209070726490442  35.745333323392337  0
-14.999999999999984  5.7453333233923338  34.820907072649049  0
-14.999999999999988  6.4951905283832883  33.75  0
-14.999999999999991  7.0476946558943112  32.56515107494252  0
-14.999999999999995  7.3860581475915605  31.302361332501977  0
-15  7.5  30  0
-15.000000000000005  7.3860581475915605  28.697638667498026  0
-15.000000000000009  7.0476946558943139  27.434848925057487  0
-15.000000000000012  6.4951905283832927  26.250000000000004  0
-15.000000000000016  5.74533332339234  25.179092927350961  0
-15.00000000000002  4.8209070726490468  24.254666676607666  0
-15.000000000000023  3.7500000000000036  23.50480947161671  0
-15.000000000000025  2.5651510749425208  22.952305344105689  0
-15.000000000000027  1.3023613325019845  22.613941852408441  0
-20  -9.1845476536670702e-16  22.499999999999982  0
-25  -9.1845476536670702e-16  22.5  0
-15.000000000000027  -1.3023613325019774  22.613941852408438  0
-15.000000000000025  -2.565151074942515  22.952305344105689  0
-15.000000000000023  -3.7499999999999987  23.50480947161671  0
-15.00000000000002  -4.8209070726490442  24.254666676607663  0
-15.000000000000016  -5.7453333233923347  25.179092927350954  0
-15.000000000000012  -6.4951905283832883  26.249999999999996  0
-15.000000000000009  -7.0476946558943121  27.434848925057484  0
-15.000000000000005  -7.3860581475915605  28.697638667498019  0
-15  -7.5  29.999999999999996  0
-14.999999999999995  -7.3860581475915605  31.302361332501974  0
-14.999999999999991  -7.0476946558943139  32.565151074942513  0
-14.999999999999988  -6.4951905283832927  33.749999999999993  0
-14.999999999999984  -5.7453333233923374  34.820907072649042  0
-14.99999999999998  -4.8209070726490486  35.74533332339233  0
-14.999999999999977  -3.7500000000000027  36.49519052838329  0
-14.999999999999975  -2.5651510749425199  37.047694655894311  0
-14.999999999999973  -1.3023613325019836  37.386058147591562  0
-29.999999999999975  -1.3023613325019752  37.386058147591562  0
-29.999999999999975  -2.565151074942515  37.047694655894311  0
-29.999999999999979  -3.7499999999999982  36.49519052838329  0
-29.999999999999979  -4.8209070726490442  35.745333323392337  0
-29.999999999999982  -5.7453333233923338  34.820907072649049  0
-29.999999999999986  -6.4951905283832883  33.75  0
-29.999999999999989  -7.0476946558943112  32.56515107494252  0
-29.999999999999996  -7.3860581475915605  31.302361332501977  0
-30  -7.5  30  0
-30.000000000000004  -7.3860581475915605  28.697638667498026  0
-30.000000000000011  -7.0476946558943139  27.434848925057487  0
-30.000000000000014  -6.4951905283832927  26.250000000000004  0
-30.000000000000018  -5.74533332339234  25.179092927350961  0
-30.000000000000021  -4.8209070726490468  24.254666676607666  0
-30.000000000000021  -3.7500000000000036  23.50480947161671  0
-30.000000000000025  -2.5651510749425208  22.952305344105689  0
-30.000000000000025  -1.3023613325019845  22.613941852408441  0
30  -15.000000000000112  23.333333333333336  0
30  -15.00000000000014  31.666666666666668  0
30  -7.5000000000000995  15  0
30  -9.9475983006413976e-14  15  0
30  7.4999999999999005  15  0
30  14.999999999999853  33.75  0
30  14.999999999999874  27.5  0
30  14.999999999999897  21.25  0
30  -10.000000000000099  39.999999999999964  0
30  -5.0000000000000986  39.999999999999986  0
30  -9.8803046247519245e-14  40  0
30  4.9999999999999014  40.000000000000014  0
30  9.9999999999999005  40.000000000000036  0
22.826756199316929  14.999999999999845  44.485269487965908  0
15  7.4999999999998002  47.696960070847325  0
15  -2.0028382595551376e-13  47.696960070847297  0
15  -7.5000000000001998  47.696960070847268  0
22.826756199316929  -15.000000000000155  44.485269487965809  0
15  -15.000000000000174  41.157568056677761  0
15  -15.000000000000151  34.618176042508317  0
15  -15.000000000000128  28.07878402833888  0
15  -15.000000000000105  21.53939201416944  0
15  14.99999999999989  23.174240017711824  0
15  14.999999999999861  31.348480035423648  0
15  14.999999999999833  39.522720053135473  0
15  7.4999999999999005  15  0
15  -9.9475983006413976e-14  15  0
15  -7.5000000000000995  15  0
0  -15.000000000000099  15  0
0  14.999999999999901  15  0
-15  -9.0000000000000995  15  0
-15  -3.0000000000000995  15  0
-15  2.9999999999999005  15  0
-15  8.9999999999999005  15  0
-15  -15.00000000000011  23.174240017711799  0
-15  -15.000000000000139  31.348480035423599  0
-15  -15.000000000000167  39.522720053135401  0
-15  14.999999999999822  42.247466725706076  0
-15  14.999999999999842  36.797973380564862  0
-15  14.999999999999861  31.348480035423648  0
-15  14.999999999999879  25.898986690282431  0
-15  14.999999999999899  20.449493345141214  0
-15  -9.0000000000002007  47.696960070847268  0
-15  -3.0000000000002003  47.69696007084729  0
-15  2.9999999999997997  47.696960070847304  0
-15  8.9999999999997993  47.696960070847325  0
-30  9.9999999999999005  40.000000000000036  0
-30  4.9999999999999014  40.000000000000014  0
-30  -9.8803046247519245e-14  40  0
-30  -5.0000000000000986  39.999999999999986  0
-30  -10.000000000000099  39.999999999999964  0
-22.826756199316936  -15.000000000000155  44.485269487965809  0
-22.826756199316986  14.999999999999845  44.48526948796588  0
-30  -15.000000000000147  33.75  0
-30  -15.000000000000126  27.5  0
-30  -15.000000000000103  21.25  0
-30  14.999999999999901  20  0
-30  14.999999999999883  25  0
-30  14.999999999999865  30  0
-30  14.999999999999849  35  0
-30  7.4999999999999005  15  0
-30  -9.9475983006413976e-14  15  0
-30  -7.5000000000000995  15  0
-47.696960070847297  -1.0033385474645366e-13  15  0
-50  7.6540424946712199e-16  4.77732003262289e-15  0
-49.420886290830332  -15.000000000000027  7.5878849641265376  0
-49.420886290830339  14.999999999999973  7.5878849641265864  0
-36.861460216820156  15.000000000000117  -33.782136561854429  0
-42.458698236836717  15.000000000000092  -26.405661211816604  0
-46.599747911555319  15.000000000000064  -18.123561862379422  0
-49.142585379575657  15.000000000000032  -9.219886236343493  0
-30  4.9065054744312232e-14  -40  0
-49.142585379575664  -14.999999999999968  -9.2198862363435392  0
-46.599747911555355  -14.999999999999936  -18.123561862379436  0
-42.458698236836796  -14.999999999999908  -26.405661211816586  0
-36.861460216820284  -14.999999999999883  -33.782136561854387  0
30  4.9065054744312232e-14  -40  0
-15.00000000000005  -14.999999999999901  -40  0
0  -14.999999999999901  -40  0
15.00000000000005  -14.999999999999901  -40  0
14.99999999999995  15.000000000000099  -40  0
0  15.000000000000099  -40  0
-14.99999999999995  15.000000000000099  -40  0
36.861460216820255  -14.999999999999883  -33.782136561854415  0
42.458698236836781  -14.999999999999908  -26.405661211816604  0
46.599747911555333  -14.999999999999936  -18.123561862379493  0
49.142585379575657  -14.999999999999968  -9.2198862363435783  0
49.420886290830332  -15.000000000000027  7.5878849641265305  0
47.696960070847297  -1.0033385474645366e-13  15  0
49.420886290830332  14.999999999999973  7.5878849641266273  0
49.142585379575657  15.000000000000032  -9.2198862363434948  0
46.599747911555312  15.000000000000064  -18.123561862379432  0
42.458698236836717  15.000000000000092  -26.405661211816597  0
36.861460216820149  15.000000000000117  -33.782136561854429  0
50  7.6540424946716202e-16  -6.5536768720231397e-15  0
27.079517718167608  4.7181185060437185  31.655100529553344  0
22.300534147638391  4.7343833565513469  28.392015474822728  0
17.660318255588951  4.3491984379223609  27.533327555678792  0
27.19256907392381  4.1327908345822664  27.185743452065385  0
18.91322875743591  1.8316157729106175  25.347561536094773  0
19.053549560757613  1.7651477201094001  34.678060872433448  0
27.377383141768913  4.9736427862424044  29.487284255304264  0
25.943591532180385  1.7652477004481057  34.678023146165764  0
27.250198836433064  3.6055265023987513  33.464127399577009  0
17.53673729499371  4.9787192259127657  29.539180220122262  0
17.739819367870634  3.6048601431221474  33.464820824881073  0
22.444379287921109  4.9669179889188975  30.574217459986951  0
26.271772033581936  2.0961075592898633  25.460580092138652  0
22.494254258346182  3.1176989805931221  33.908958053805215  0
21.589081922485459  3.5865459565351685  26.516225021379661  0
22.482827585795835  4.2970931632003522  32.556362718155782  0
17.193962673320563  3.2995963292051336  26.243317412357573  0
17.886517019955111  4.7156017617478962  31.662257508510706  0
25.877643600846181  -1.8662011645785528  34.638673648072867  0
22.539258808246977  -4.4198650620983368  27.662310364303586  0
25.954059210665726  -1.7916043184246786  25.332007501483954  0
27.31286227777878  -3.6721146137221501  26.606539485467927  0
27.494330040569313  -4.8563899771365051  31.189737950125181  0
17.683289115458216  -4.0439020218852102  32.940553763731053  0
17.921320499058051  -4.9150834108981192  30.917581093917132  0
27.493705792755641  -4.8343803640121594  28.723768635374569  0
19.054111695979614  -1.7911397380422258  25.331829219190258  0
18.578988059417142  -2.0570635775641595  34.557245817142096  0
22.399672071726783  -3.394692216926698  33.670975994519353  0
22.51491559288511  -3.1950959722892129  26.154046057496114  0
22.56567680935413  -4.5445144204513266  32.085039251983034  0
27.292235347389173  -3.7320815345600566  33.327396492664469  0
17.713308737107653  -3.669072128745003  26.603250124889023  0
17.597150850828385  -4.825234172006728  28.689612581982534  0
22.602145032114567  -4.9983460733862062  29.871405557411322  0
-25.653151453302151  6.4785288806377874  26.221288110646423  0
-26.543858967711515  6.1389387434400753  34.308530039850069  0
-24.827389390442487  7.4170189967136393  28.887422271304608  0
-19.65675059284262  6.9063255058679083  27.075505512571706  0
-19.159221104496222  7.3818674185725097  31.325908524226911  0
-17.553019243678012  6.5794336327641725  33.600146257036158  0
-19.407058335404898  3.8117034893874226  23.540826948517946  0
-25.152104210317887  4.2758854067388956  36.161720862586797  0
-25.738207618447714  2.6378207527368214  22.979180840070661  0
-25.735703351056483  4.8282981420670712  24.260876630415439  0
-19.35056309395733  5.7141652095617461  25.142190209792652  0
-26.039459367374505  7.2982027633540261  31.728073038089441  0
-19.413728202517614  5.2658124916285036  35.340526079236859  0
-20.024253268278592  1.7537722279471195  22.707930131130006  0
-21.742562215248117  6.7101457423788125  33.350215532773291  0
-18.107547993963308  7.4166573189966121  28.885013806106084  0
-19.315053186087646  2.8454992456844237  36.939245927534856  0
-25.638270706750372  2.1579649227509603  37.182839786057912  0
-26.631459773458904  -7.316285950497619  31.649836322351756  0
-25.588034967177833  -2.111719497194092  22.803428540952972  0
-27.48513798878146  -6.5242102889424212  33.69928102550454  0
-19.215265968083528  -3.8072865103868732  36.461777574926721  0
-19.322060916182888  -7.344799258033734  28.482131804408837  0
-19.116369061593897  -6.4552813887377329  26.181709519665063  0
-25.570449183874512  -2.6515088705092968  37.015661102819216  0
-19.158849073977915  -5.6109413804317949  34.976679297017029  0
-17.458317760272024  -6.7795464586640879  33.207452231104163  0
-24.960177661242607  -6.8990596784032938  27.058405950198114  0
-19.224998720480329  -2.7392995677398386  23.018149394452742  0
-20.293325851399356  -7.4229674764203004  31.07217248799174  0
-24.891065556310853  -4.0905227011436445  23.71369551871463  0
-25.886404493485287  -7.4552518816193309  29.181941700359069  0
-19.255079932070593  -1.5081485549690297  37.346801204343599  0
-25.437548744388238  -5.7442139574228861  25.177759233370022  0
-19.095697761008015  -4.8759323452100549  24.301291044022811  0
-25.52322429359204  -5.098617852525666  35.500372350478337  0
-22.757897631807825  -6.656937647742355  33.454733152367986  0
30  -6.1142160594254014  31.0012506346667  0
30  -3.7199619065222325  25.343685238126636  0
30  4.4730343597620674  25.270343476182703  0
30  -6.5286727098225477  36.787686685417739  0
30  -10.286171762793263  35.509052013268807  0
30  5.0166826755476901  26.850989469832701  0
30  -4.1112039939874796  19.963073307954549  0
30  0.022798445629273252  35.855768763120494  0
30  -7.0005328256416162  25.793578768320256  0
30  -9.1148123378102728  31.237963052704785  0
30  -10.353852884541235  27.05003544490803  0
30  -2.0506450362682247  35.618077271209486  0
30  2.062200178158935  35.383805393351459  0
30  6.6083114399413754  25.421935633295597  0
30  -6.1094316151724177  33.354611471741897  0
30  9.7298874287417494  23.111491223616408  0
30  2.4045674943894308  22.068637453253466  0
30  6.664051348337428  29.744261851853626  0
30  1.0057632543317554  23.837417455038793  0
30  1.6343830444302139  37.483473782064294  0
30  -0.14581865714175696  21.069179153272724  0
30  7.9805449192317486  35.184487361293577  0
30  2.9978604824407746  19.039303893165322  0
30  -4.001637202148661  34.874676759546858  0
30  -3.8146280736400158  36.98754826522066  0
30  5.0130658385360425  33.573710671935181  0
30  -1.5285013249833797  37.657455256729925  0
30  9.0344313078842848  27.426928879427258  0
30  -5.2542339348064058  23.705756455106609  0
30  6.1585030550768538  27.814465563974021  0
30  10.042149030145774  30.942454589781647  0
30  -0.71984110085893194  23.981244615827695  0
30  -5.4541502658845191  27.614860744820703  0
30  -4.9309557787689604  26.12584976816898  0
30  6.5568106403510402  32.006575687967498  0
30  3.4738402276407196  34.389991445043648  0
30  -6.8494332483375802  28.834034962397496  0
30  5.2353236982815474  22.038938029875677  0
30  -2.5944139915788913  23.579295624486356  0
30  2.9339253912759427  24.340442533279823  0
30  -9.173349168751832  21.409921108620026  0
30  4.2011777489951134  36.003247034509606  0
24.070882508532652  4.6875570584628008  43.824566344236857  0
24.070882578880934  -4.687528373597428  43.824566305597656  0
15  -2.9608663562186646  25.059588243841368  0
15  -5.9412890195047234  19.927254875066026  0
15  -5.0361985922712904  25.877639822274883  0
15  1.9118366324194025  35.683049653636751  0
15  -5.9677593897025893  27.988957445963734  0
15  -7.807611597874474  26.464434152924035  0
15  -3.812357083987099  37.467642627786219  0
15  3.9871699424609441  25.37038956960015  0
15  -4.0059134693263845  42.310885832317581  0
15  1.7308680166165225  23.814097519058002  0
15  7.6109301329104841  33.509121171365848  0
15  3.7136454691522931  19.829810910590052  0
15  0.28138826888259921  35.687681501432351  0
15  -10.115432050796434  32.769841943703767  0
15  -1.1018634177982212  36.487877213461203  0
15  5.5299173185094057  41.53084799092565  0
15  -0.96685766121547889  20.984012987589459  0
15  5.9522938573157456  31.92569087199092  0
15  6.6242533918957314  28.174233564174827  0
15  0.89368802579224027  37.118762688776464  0
15  -4.9484103484175925  33.060606048560565  0
15  6.6340750712773797  25.213398839946329  0
15  -3.8956565213616474  34.583423362632772  0
15  7.3142034612891296  36.540964135440618  0
15  -8.8279529875124449  38.665740155671344  0
15  5.0137928302804466  26.888175579861304  0
15  3.272904639806169  37.703511205201004  0
15  -4.0494953549312456  23.28451108357757  0
15  -6.5752628278843712  31.679286112514937  0
15  -2.603918470480072  35.508668705005491  0
15  5.0110206279109208  23.067951350624035  0
15  3.8914506236370836  35.321093378242942  0
15  -1.2594091148294477  24.06998901559928  0
15  9.002637563491998  21.131652964361813  0
15  -6.3623814082503651  34.700668813160924  0
15  -10.973760086450499  25.753330895476466  0
15  -8.134348935070367  23.800575479026801  0
15  6.0517208944196819  30.164855083487087  0
15  0.11046079427304981  40.040471804195406  0
15  8.8803854898783694  30.878603119589403  0
15  -6.0527322181244703  29.760899441439669  0
15  10.188161288192706  26.653350382773269  0
15  10.757353679587478  34.36159629504359  0
15  -8.9272357810602774  28.919267455837723  0
15  5.1603957134212166  33.835225535676202  0
-8.3827787012275063  -6.259708193036075  15  0
-9.2098972483628163  4.6479253956821207  15  0
3.9149025044483423  -0.2271082612316225  15  0
-15  12.451855813100188  33.101835124907062  0
-15  -0.28609658023920054  42.676032813333798  0
-15  -10.060522416334333  20.017393978718296  0
-15  -8.6563015261846292  24.70389754013458  0
-15  -7.2160738898081451  36.13334579972031  0
-15  -6.1620379284452982  22.675332828482002  0
-15  -10.781862403880963  35.552474828571853  0
-15  2.9975835922826839  20.673099471431886  0
-15  -0.30998288842456451  17.986518452453257  0
-15  9.3730704617540219  34.1488395719444  0
-15  -4.8736160009882763  42.878119140029661  0
-15  -0.67717070573655036  20.896044046016382  0
-15  -6.5272723427321679  19.511010748792657  0
-15  -10.0619163733448  28.150228664017074  0
-15  5.6514784709927151  22.84409193265715  0
-15  -0.52864039777215566  39.346753056838097  0
-15  7.8619862949044013  23.93063375219679  0
-15  -9.5518601770131433  41.132667132592211  0
-15  10.431068457134668  30.130889413299862  0
-15  8.720635363365151  19.52150448261278  0
-15  -2.4254965539271316  39.628687365959117  0
-15  -9.8134568769444481  31.647003260699382  0
-15  -5.0257549355908528  38.43732060502677  0
-15  4.4170367795028493  41.941856902044741  0
-15  6.854390418407327  36.006288025417867  0
-15  -8.1240359403280262  33.493484352803257  0
-15  1.3437444044931344  39.542841475239342  0
-15  11.189977925547138  23.267266598919178  0
-15  9.294447940734365  39.549924369353477  0
-15  3.1293127674746093  38.406283792517861  0
-15  9.3464566256000765  26.518001225682305  0
-15  -3.8477273092298194  18.323773107931132  0
-15  5.3828002353102722  38.024053290167416  0
-15  -3.5501628052054732  21.502839016806142  0
-23.917907600616832  5.3986243558513314  43.908241777693142  0
-22.965843814598983  -4.2016536829791722  44.413624237202754  0
-30  10.624093925920608  28.065597872956847  0
-30  -8.1400411733918467  33.804736915177124  0
-30  -9.2690533594777378  20.483104053734152  0
-30  -0.00017598071562917214  20.404510399073626  0
-30  -3.6929771206864102  19.864773057133334  0
-30  -10.25097630590065  35.889745636949797  0
-30  -11.823244858639592  29.212816444759881  0
-30  9.2185166403875751  20.043501392594642  0
-30  7.2381039093248907  24.081972410124575  0
-30  3.6854944879014386  19.786997561399286  0
-30  -11.154045415572236  25.141754261383628  0
-30  -9.4562605257586956  31.800176778001077  0
-30  -7.3198390388736314  24.538634972377412  0
-30  -5.2340835894653948  22.598196550573196  0
-30  11.705766499252169  36.521245833360041  0
-30  5.2129692943363253  22.443890634470531  0
-30  -8.5201397931245921  27.882287625025398  0
-30  10.8935001522447  23.942089549940345  0
-30  10.309093537905813  32.349920723983963  0
-30  -6.7157106947868872  36.853246983165022  0
-30  8.2807156310417511  26.417753797719534  0
-30  -7.4672490450240625  35.023270719508602  0
-30  8.2216246409698055  35.28907318044697  0
-30  6.2522402611441672  37.053585483895951  0
-46.812259795021696  5.9560656623723726e-14  -17.567365564688259  0
-39.892652635131924  8.984935471967858e-14  -30.142598854987636  0
14.31968829474172  -15  -15.682019079723139  0
36.445316644437369  -15  1.0955930789263104  0
-36.042994391178112  -15  -18.830717140450147  0
36.033171851764564  -15  -18.836394335769164  0
26.439796192794553  -15  -29.66710471204718  0
-0.0033835506248746728  -15  2.7227693288338415  0
-26.447656849553965  -15  -29.664958918939785  0
-14.330286518214182  -15  -15.678458563629095  0
-36.45591324602514  -15  1.0971968954889921  0
-29.449460365237918  15  -25.597967148562535  0
-21.800034963224832  15  19.707784166640373  0
-42.931201739644067  15  3.7327424754552196  0
39.439525464025486  15  0.70421254577884607  0
27.675734049479395  15  -19.683600010196624  0
-31.28907583707219  15  -5.9777429952724628  0
-3.8971954206183272  15  -14.893975177547535  0
-16.998091988950755  15  7.2966351306375836  0
-22.400367003621867  15  29.099051860740168  0
44.721359549995789  7.0992942670554157e-14  -22.360679774997909  0
Triangles
1048
290 70 71  1
37 282 76  1
76 282 75  1
295 46 47  1
281 67 68  1
76 1 37  1
282 37 38  1
75 290 74  1
281 292 279  1
294 41 280  1
292 280 279  1
280 287 279  1
67 284 66  1
70 290 281  1
284 289 278  1
74 73 4  1
73 290 72  1
72 290 71  1
39 294 282  1
43 287 280  1
50 288 49  1
64 284 278  1
286 59 60  1
283 291 288  1
66 284 65  1
295 287 46  1
285 57 58  1
57 285 56  1
48 295 47  1
57 56 3  1
288 48 49  1
55 285 283  1
286 293 291  1
287 295 289  1
283 53 54  1
51 288 50  1
287 43 44  1
293 288 291  1
52 283 51  1
53 283 52  1
2 54 53  1
62 286 61  1
278 62 63  1
63 64 278  1
284 67 281  1
43 280 42  1
41 294 40  1
41 42 280  1
281 68 69  1
69 70 281  1
282 38 39  1
294 280 292  1
283 54 55  1
59 286 285  1
284 64 65  1
284 281 279  1
285 55 56  1
285 58 59  1
286 60 61  1
286 62 278  1
287 44 45  1
45 46 287  1
288 51 283  1
295 48 288  1
289 284 279  1
279 287 289  1
290 73 74  1
290 75 282  1
291 283 285  1
285 286 291  1
292 281 290  1
290 282 292  1
293 286 278  1
278 289 293  1
292 282 294  1
294 39 40  1
295 288 293  1
293 289 295  1
296 93 56  2
55 305 296  2
90 309 89  2
300 309 308  2
94 305 54  2
305 94 95  2
91 309 90  2
305 306 296  2
99 301 98  2
301 308 306  2
312 311 297  2
56 93 3  2
2 94 54  2
88 300 87  2
92 296 91  2
85 303 84  2
93 296 92  2
97 305 96  2
300 85 86  2
309 300 88  2
302 100 101  2
105 311 104  2
311 310 297  2
75 304 76  2
303 82 83  2
79 299 298  2
310 108 304  2
81 299 80  2
298 77 78  2
74 298 75  2
77 298 74  2
74 4 77  2
108 310 107  2
104 311 103  2
307 297 310  2
82 303 299  2
102 311 302  2
100 301 99  2
76 110 1  2
110 304 109  2
109 304 108  2
107 310 106  2
296 56 55  2
305 97 301  2
311 105 310  2
82 299 81  2
298 78 79  2
299 307 298  2
299 79 80  2
299 303 297  2
86 87 300  2
100 302 301  2
306 305 301  2
301 97 98  2
101 102 302  2
302 312 308  2
303 83 84  2
303 85 300  2
304 110 76  2
304 75 298  2
305 55 54  2
305 95 96  2
300 312 303  2
309 91 296  2
304 298 307  2
307 299 297  2
309 88 89  2
308 301 302  2
309 296 306  2
306 308 309  2
310 105 106  2
310 304 307  2
311 312 302  2
311 102 103  2
297 303 312  2
312 300 308  2
138 317 137  3
330 329 320  3
314 121 122  3
325 314 320  3
111 148 5  3
113 322 321  3
326 145 146  3
117 313 116  3
117 315 313  3
318 136 317  3
323 313 316  3
8 147 146  3
115 322 114  3
111 321 148  3
322 323 319  3
328 315 317  3
145 326 319  3
143 323 142  3
145 319 144  3
141 316 140  3
138 328 317  3
121 324 120  3
319 143 144  3
321 319 326  3
137 317 136  3
320 124 125  3
132 329 131  3
330 129 329  3
130 329 129  3
130 129 7  3
329 325 320  3
124 320 314  3
128 127 6  3
127 330 126  3
315 117 118  3
315 328 316  3
124 314 123  3
315 324 317  3
119 324 315  3
125 330 320  3
141 323 316  3
313 115 116  3
122 123 314  3
134 325 133  3
140 328 139  3
315 118 119  3
313 323 322  3
313 315 316  3
324 119 120  3
136 318 135  3
327 317 324  3
318 134 135  3
113 321 112  3
322 319 321  3
329 132 325  3
325 327 314  3
148 326 147  3
321 111 112  3
322 113 114  3
322 115 313  3
323 141 142  3
323 143 319  3
324 121 314  3
317 327 318  3
325 132 133  3
325 134 318  3
326 146 147  3
326 148 321  3
324 314 327  3
327 325 318  3
328 138 139  3
328 140 316  3
129 330 128  3
329 130 131  3
330 125 126  3
330 127 128  3
171 333 170  4
151 347 341  4
342 157 158  4
166 337 128  4
172 333 171  4
334 162 163  4
160 339 159  4
345 164 165  4
155 336 154  4
338 349 339  4
162 338 161  4
128 6 166  4
164 334 163  4
348 349 338  4
7 345 165  4
334 348 338  4
345 128 337  4
164 345 334  4
348 168 169  4
157 335 156  4
349 348 333  4
335 344 340  4
179 346 178  4
154 336 153  4
180 343 179  4
147 332 148  4
147 341 332  4
149 341 147  4
149 147 8  4
177 346 340  4
176 344 175  4
344 335 342  4
177 340 176  4
174 344 331  4
174 331 173  4
347 343 341  4
5 148 182  4
346 336 340  4
182 332 181  4
181 332 180  4
172 173 331  4
157 342 335  4
332 182 148  4
341 343 332  4
170 348 169  4
333 172 331  4
168 337 167  4
168 348 337  4
344 176 340  4
335 155 156  4
153 347 152  4
336 155 335  4
128 345 129  4
337 166 167  4
161 339 160  4
338 162 334  4
339 158 159  4
339 161 338  4
346 347 336  4
336 335 340  4
341 149 150  4
150 151 341  4
342 158 339  4
331 349 333  4
343 180 332  4
347 346 343  4
344 342 331  4
344 174 175  4
345 7 129  4
345 337 334  4
346 177 178  4
346 179 343  4
347 151 152  4
347 153 336  4
348 334 337  4
348 170 333  4
349 331 342  4
342 339 349  4
63 375 62  5
81 383 351  5
383 82 382  5
351 79 80  5
10 354 191  5
79 388 78  5
357 376 361  5
361 91 92  5
91 373 90  5
386 85 350  5
373 89 90  5
9 390 183  5
362 57 58  5
350 85 86  5
89 364 88  5
87 364 350  5
85 386 84  5
386 350 359  5
82 383 81  5
89 373 364  5
364 373 353  5
382 82 83  5
84 386 382  5
64 384 63  5
384 64 367  5
194 371 195  5
66 367 65  5
380 384 367  5
380 367 377  5
385 61 375  5
391 362 385  5
381 4 77  5
4 381 368  5
57 362 357  5
59 385 362  5
59 362 58  5
3 57 357  5
93 361 92  5
379 363 377  5
195 188 12  5
388 79 351  5
368 72 73  5
355 69 352  5
389 368 366  5
368 381 370  5
68 355 67  5
379 66 67  5
368 389 72  5
70 389 352  5
69 355 68  5
352 387 363  5
387 389 366  5
190 187 11  5
86 87 350  5
364 354 359  5
80 81 351  5
358 390 378  5
363 387 365  5
352 69 70  5
373 361 374  5
192 191 353  5
353 191 354  5
354 10 184  5
189 365 190  5
66 379 367  5
390 356 378  5
185 186 356  5
369 391 194  5
357 93 3  5
184 360 359  5
378 383 358  5
354 364 353  5
354 184 359  5
360 184 183  5
360 390 358  5
361 93 357  5
376 369 193  5
375 391 385  5
369 376 357  5
355 352 363  5
187 387 372  5
364 359 350  5
364 87 88  5
187 190 365  5
365 377 363  5
72 389 71  5
388 370 381  5
189 380 377  5
367 64 65  5
73 4 368  5
368 370 366  5
194 193 369  5
369 357 362  5
356 186 370  5
370 372 366  5
63 384 375  5
371 188 195  5
372 370 186  5
186 187 372  5
373 91 361  5
353 374 192  5
192 376 193  5
374 353 373  5
61 385 60  5
61 62 375  5
376 192 374  5
374 361 376  5
363 379 355  5
377 365 189  5
356 390 185  5
78 388 381  5
377 367 379  5
379 67 355  5
380 189 188  5
188 371 380  5
77 78 381  5
370 388 356  5
83 84 382  5
358 386 360  5
382 358 383  5
383 378 351  5
384 380 371  5
371 375 384  5
362 391 369  5
385 59 60  5
359 360 386  5
386 358 382  5
366 372 387  5
387 187 365  5
388 351 378  5
378 356 388  5
389 387 352  5
389 70 71  5
390 360 183  5
390 9 185  5
391 375 371  5
371 194 391  5
195 392 194  6
193 393 192  6
196 195 12  6
198 393 392  6
393 198 199  6
392 196 197  6
200 393 199  6
191 200 10  6
191 393 200  6
200 199 14  6
392 195 196  6
197 196 13  6
197 198 392  6
392 193 194  6
393 191 192  6
393 193 392  6
433 436 404  7
422 437 434  7
394 109 108  7
426 1 110  7
403 426 410  7
202 418 201  7
107 396 394  7
437 398 434  7
103 434 398  7
398 105 104  7
105 398 396  7
396 107 106  7
199 418 402  7
406 413 408  7
414 100 99  7
201 199 14  7
394 426 109  7
400 428 416  7
423 416 96  7
98 416 414  7
416 423 400  7
210 204 15  7
408 423 95  7
100 422 101  7
101 434 102  7
397 53 52  7
53 406 2  7
50 438 425  7
425 397 51  7
408 95 94  7
406 53 397  7
197 207 13  7
413 406 397  7
397 425 420  7
51 397 52  7
433 411 431  7
411 438 48  7
209 395 210  7
431 44 412  7
46 431 411  7
43 412 44  7
44 431 45  7
403 424 401  7
405 427 424  7
426 403 1  7
1 403 37  7
37 403 38  7
39 403 401  7
43 419 412  7
419 401 415  7
39 401 40  7
403 39 38  7
16 427 208  7
108 107 394  7
109 426 110  7
396 106 105  7
204 210 395  7
203 407 202  7
204 430 429  7
438 411 404  7
198 409 197  7
203 437 407  7
398 104 103  7
396 430 421  7
396 398 399  7
96 416 97  7
198 432 409  7
41 419 42  7
41 40 401  7
198 199 402  7
402 418 400  7
405 403 410  7
424 403 405  7
436 433 206  7
48 438 49  7
209 410 395  7
209 208 405  7
408 94 406  7
406 94 2  7
437 422 407  7
434 101 422  7
432 420 409  7
400 432 402  7
425 51 50  7
409 207 197  7
410 421 395  7
410 209 405  7
411 48 47  7
47 46 411  7
427 405 208  7
435 412 415  7
420 432 413  7
432 400 408  7
99 98 414  7
416 428 414  7
412 435 433  7
401 419 41  7
428 400 418  7
416 98 97  7
417 436 207  7
207 409 417  7
418 199 201  7
418 202 407  7
415 412 419  7
419 43 42  7
417 409 420  7
420 413 397  7
394 396 421  7
421 430 395  7
422 100 414  7
422 428 407  7
96 95 423  7
423 408 400  7
427 435 415  7
415 401 424  7
417 438 404  7
417 420 425  7
426 394 421  7
421 410 426  7
427 16 205  7
427 415 424  7
418 407 428  7
428 422 414  7
203 204 429  7
430 204 395  7
430 396 399  7
399 429 430  7
411 433 404  7
431 46 45  7
432 198 402  7
432 408 413  7
433 431 412  7
206 435 205  7
398 437 399  7
434 103 102  7
435 427 205  7
435 206 433  7
206 207 436  7
436 417 404  7
437 203 429  7
429 399 437  7
438 417 425  7
438 50 49  7
441 208 212  8
440 18 216  8
211 441 439  8
208 441 209  8
210 441 211  8
18 440 212  8
212 208 16  8
441 212 440  8
213 439 214  8
17 439 213  8
210 211 15  8
214 440 215  8
439 17 211  8
440 216 215  8
440 214 439  8
440 439 441  8
441 210 209  8
149 475 453  9
146 453 449  9
455 217 445  9
453 475 473  9
447 445 444  9
444 454 447  9
446 467 160  9
157 463 455  9
447 153 445  9
475 151 447  9
157 455 156  9
155 445 154  9
464 164 462  9
155 455 445  9
464 162 163  9
19 459 225  9
470 451 221  9
158 467 463  9
463 467 448  9
162 464 446  9
467 158 159  9
226 452 443  9
443 462 457  9
446 160 161  9
462 165 457  9
17 444 217  9
465 474 470  9
7 468 457  9
443 465 227  9
451 460 442  9
133 474 132  9
132 474 471  9
130 471 468  9
468 471 465  9
451 470 466  9
135 466 134  9
228 220 20  9
442 460 222  9
139 472 460  9
223 472 469  9
453 473 450  9
456 144 449  9
153 447 152  9
458 142 456  9
460 223 222  9
460 451 137  9
137 451 136  9
142 458 141  9
461 469 458  9
472 139 140  9
449 461 456  9
449 453 450  9
146 449 145  9
144 456 143  9
18 461 216  9
215 461 449  9
222 221 442  9
136 451 135  9
227 226 443  9
443 468 465  9
445 153 154  9
444 17 213  9
217 455 218  9
217 444 445  9
161 162 446  9
225 459 452  9
151 475 150  9
151 152 447  9
448 459 219  9
219 218 448  9
144 145 449  9
215 450 214  9
454 475 447  9
450 215 449  9
442 221 451  9
134 466 133  9
452 226 225  9
459 464 452  9
453 146 8  9
8 149 453  9
454 444 213  9
213 473 454  9
455 155 156  9
218 463 448  9
456 461 458  9
456 142 143  9
165 462 164  9
165 7 457  9
472 141 458  9
141 472 140  9
459 19 219  9
459 448 446  9
460 137 138  9
138 139 460  9
461 215 216  9
461 18 224  9
462 443 452  9
164 464 163  9
463 218 455  9
463 157 158  9
462 452 464  9
464 459 446  9
228 470 220  9
228 227 465  9
466 135 451  9
470 221 220  9
159 160 467  9
467 446 448  9
468 443 457  9
468 7 130  9
469 461 224  9
224 223 469  9
470 228 465  9
474 133 466  9
471 130 131  9
131 132 471  9
472 458 469  9
472 223 460  9
473 213 214  9
214 450 473  9
466 470 474  9
474 465 471  9
475 454 473  9
475 149 150  9
229 235 21  10
228 476 227  10
225 477 234  10
477 227 476  10
225 234 19  10
227 477 226  10
229 476 235  10
477 231 232  10
233 477 232  10
234 233 22  10
231 476 230  10
231 477 476  10
235 228 20  10
476 228 235  10
476 229 230  10
477 233 234  10
477 225 226  10
22 483 233  11
238 488 237  11
181 491 482  11
177 490 178  11
491 490 480  11
182 482 481  11
490 494 488  11
23 480 238  11
489 174 173  11
490 491 179  11
479 172 171  11
231 166 6  11
127 230 231  11
168 232 497  11
497 170 169  11
499 171 170  11
172 489 173  11
232 166 231  11
489 494 174  11
236 489 483  11
171 499 479  11
494 177 176  11
177 494 490  11
485 495 486  11
229 500 492  11
119 496 120  11
242 496 241  11
121 500 122  11
500 121 496  11
501 123 500  11
229 501 500  11
494 176 175  11
230 127 126  11
230 126 125  11
127 231 6  11
167 232 168  11
241 496 478  11
21 492 242  11
496 119 478  11
482 244 481  11
24 485 243  11
485 487 243  11
182 481 5  11
244 482 245  11
113 493 114  11
239 495 485  11
118 498 478  11
498 116 486  11
498 118 117  11
112 493 113  11
485 493 487  11
486 114 493  11
244 487 481  11
240 241 478  11
478 119 118  11
483 499 497  11
233 497 232  11
480 23 245  11
491 181 180  11
111 487 112  11
111 5 481  11
482 182 181  11
482 480 245  11
483 22 236  11
483 489 479  11
236 237 484  11
174 494 175  11
485 24 239  11
114 486 115  11
116 498 117  11
116 115 486  11
487 111 481  11
487 244 243  11
484 237 488  11
488 238 480  11
489 172 479  11
489 236 484  11
488 480 490  11
490 179 178  11
480 482 491  11
491 180 179  11
492 21 229  11
500 496 492  11
493 112 487  11
493 485 486  11
494 489 484  11
484 488 494  11
495 239 240  11
240 478 495  11
496 242 492  11
496 121 120  11
230 125 501  11
497 233 483  11
498 486 495  11
495 478 498  11
170 497 499  11
499 483 479  11
123 501 124  11
123 122 500  11
501 229 230  11
501 125 124  11
166 232 167  11
168 497 169  11
243 26 246  12
26 243 24  12
243 246 244  12
246 245 244  12
245 246 25  12
245 25 23  12
246 248 25  13
249 246 26  13
248 247 27  13
247 248 246  13
249 247 246  13
247 249 28  13
29 254 250  14
503 502 251  14
253 502 247  14
251 502 252  14
502 257 256  14
253 247 28  14
255 27 247  14
255 502 256  14
254 30 258  14
502 503 257  14
258 503 254  14
250 503 251  14
502 255 247  14
502 253 252  14
503 250 254  14
503 258 257  14
260 265 254  15
265 29 254  15
260 254 30  15
265 261 264  15
264 261 263  15
263 259 32  15
261 265 260  15
262 263 261  15
259 263 262  15
262 31 259  15
17 512 511  16
258 510 506  16
9 204 15  16
255 512 27  16
17 511 509  16
512 25 248  16
17 238 23  16
512 17 23  16
258 506 257  16
511 506 510  16
237 217 218  16
25 512 23  16
506 255 256  16
217 237 238  16
219 19 234  16
236 234 22  16
219 236 218  16
236 237 218  16
203 183 184  16
234 236 219  16
201 200 14  16
238 17 217  16
505 15 504  16
183 203 204  16
509 15 211  16
15 509 504  16
184 202 203  16
202 184 10  16
202 200 201  16
200 202 10  16
204 9 183  16
270 505 33  16
507 269 505  16
34 505 270  16
33 505 269  16
15 505 9  16
266 508 31  16
262 508 504  16
507 266 267  16
508 266 507  16
260 511 510  16
261 262 504  16
269 507 268  16
505 34 9  16
506 256 257  16
511 512 506  16
267 268 507  16
507 505 504  16
507 504 508  16
508 262 31  16
211 17 509  16
511 260 261  16
510 258 30  16
30 260 510  16
511 261 504  16
504 509 511  16
512 248 27  16
512 255 506  16
187 35 11  17
185 271 186  17
271 187 186  17
187 271 35  17
34 185 9  17
271 185 34  17
241 240 521  18
235 242 221  18
24 514 239  18
29 513 250  18
223 514 224  18
520 24 518  18
252 518 253  18
253 518 515  18
250 513 251  18
26 515 24  18
520 514 24  18
212 520 519  18
515 26 249  18
222 521 223  18
242 235 21  18
521 221 242  18
221 521 222  18
235 221 220  18
13 207 196  18
235 220 20  18
514 521 240  18
18 224 514  18
205 190 189  18
189 206 205  18
513 519 518  18
16 517 516  18
206 189 188  18
188 207 206  18
207 188 196  18
196 188 12  18
16 516 11  18
32 517 263  18
190 16 11  18
190 205 16  18
35 516 272  18
272 516 36  18
16 519 517  18
36 516 273  18
275 517 276  18
265 519 513  18
517 274 516  18
274 517 275  18
519 263 517  18
513 252 251  18
513 29 265  18
514 240 239  18
514 520 18  18
515 249 28  18
28 253 515  18
274 273 516  18
516 35 11  18
263 519 264  18
517 32 276  18
24 515 518  18
518 252 513  18
519 265 264  18
519 16 212  18
518 519 520  18
520 212 18  18
521 514 223  18
521 242 241  18
269 277 33  19
522 269 268  19
522 273 277  19
269 522 277  19
522 266 259  19
266 522 267  19
276 522 259  19
276 259 32  19
259 266 31  19
522 276 275  19
36 277 273  19
273 522 274  19
268 267 522  19
522 275 274  19
277 271 270  20
271 277 272  20
277 270 33  20
272 277 36  20
272 35 271  20
270 271 34  20
Edges
295
1 37  1
37 38  1
38 39  1
39 40  1
40 41  1
41 42  1
42 43  1
43 44  1
44 45  1
45 46  1
46 47  1
47 48  1
48 49  1
49 50  1
50 51  1
51 52  1
52 53  1
53 2  1
2 54  2
54 55  2
55 56  2
56 3  2
3 57  3
57 58  3
58 59  3
59 60  3
60 61  3
61 62  3
62 63  3
63 64  3
64 65  3
65 66  3
66 67  3
67 68  3
68 69  3
69 70  3
70 71  3
71 72  3
72 73  3
73 4  3
4 74  4
74 75  4
75 76  4
76 1  4
4 77  5
77 78  5
78 79  5
79 80  5
80 81  5
81 82  5
82 83  5
83 84  5
84 85  5
85 86  5
86 87  5
87 88  5
88 89  5
89 90  5
90 91  5
91 92  5
92 93  5
93 3  5
2 94  6
94 95  6
95 96  6
96 97  6
97 98  6
98 99  6
99 100  6
100 101  6
101 102  6
102 103  6
103 104  6
104 105  6
105 106  6
106 107  6
107 108  6
108 109  6
109 110  6
110 1  6
5 111  7
111 112  7
112 113  7
113 114  7
114 115  7
115 116  7
116 117  7
117 118  7
118 119  7
119 120  7
120 121  7
121 122  7
122 123  7
123 124  7
124 125  7
125 126  7
126 127  7
127 6  7
6 128  8
128 129  8
129 7  8
7 130  9
130 131  9
131 132  9
132 133  9
133 134  9
134 135  9
135 136  9
136 137  9
137 138  9
138 139  9
139 140  9
140 141  9
141 142  9
142 143  9
143 144  9
144 145  9
145 146  9
146 8  9
8 147  10
147 148  10
148 5  10
8 149  11
149 150  11
150 151  11
151 152  11
152 153  11
153 154  11
154 155  11
155 156  11
156 157  11
157 158  11
158 159  11
159 160  11
160 161  11
161 162  11
162 163  11
163 164  11
164 165  11
165 7  11
6 166  12
166 167  12
167 168  12
168 169  12
169 170  12
170 171  12
171 172  12
172 173  12
173 174  12
174 175  12
175 176  12
176 177  12
177 178  12
178 179  12
179 180  12
180 181  12
181 182  12
182 5  12
9 183  13
183 184  13
184 10  13
9 185  14
185 186  14
186 187  14
187 11  14
12 188  15
188 189  15
189 190  15
190 11  15
10 191  16
191 192  16
192 193  16
193 194  16
194 195  16
195 12  16
13 196  17
196 12  17
13 197  18
197 198  18
198 199  18
199 14  18
10 200  19
200 14  19
14 201  20
201 202  20
202 203  20
203 204  20
204 15  20
16 205  21
205 206  21
206 207  21
207 13  21
16 208  22
208 209  22
209 210  22
210 15  22
15 211  23
211 17  23
18 212  24
212 16  24
17 213  25
213 214  25
214 215  25
215 216  25
216 18  25
17 217  26
217 218  26
218 219  26
219 19  26
20 220  27
220 221  27
221 222  27
222 223  27
223 224  27
224 18  27
19 225  28
225 226  28
226 227  28
227 228  28
228 20  28
21 229  29
229 230  29
230 231  29
231 232  29
232 233  29
233 22  29
19 234  30
234 22  30
21 235  31
235 20  31
22 236  32
236 237  32
237 238  32
238 23  32
24 239  33
239 240  33
240 241  33
241 242  33
242 21  33
24 243  34
243 244  34
244 245  34
245 23  34
23 25  35
26 24  36
25 246  37
246 26  37
27 247  38
247 28  38
25 248  39
248 27  39
28 249  40
249 26  40
29 250  41
250 251  41
251 252  41
252 253  41
253 28  41
29 254  42
254 30  42
27 255  43
255 256  43
256 257  43
257 258  43
258 30  43
31 259  44
259 32  44
30 260  45
260 261  45
261 262  45
262 31  45
32 263  46
263 264  46
264 265  46
265 29  46
31 266  47
266 267  47
267 268  47
268 269  47
269 33  47
33 270  48
270 34  48
34 9  49
35 271  50
271 34  50
11 35  51
35 272  52
272 36  52
36 273  53
273 274  53
274 275  53
275 276  53
276 32  53
36 277  54
277 33  54
End
