MeshVersionFormatted 1

Dimension
3

Vertices
920
0.22500000000000001  0.58999999999999997  0.070000000000000007  0
0.22500000000000001  0.28999999999999998  0.070000000000000007  0
0.17499999999999999  0.28999999999999998  0.070000000000000007  0
0.17499999999999999  0.58999999999999997  0.070000000000000007  0
0.17499999999999999  -0.28999999999999998  0.070000000000000007  0
0.17499999999999999  -0.58999999999999997  0.070000000000000007  0
0.22500000000000001  -0.28999999999999998  0.070000000000000007  0
0.22500000000000001  -0.58999999999999997  0.070000000000000007  0
0.17499999999999999  -0.58999999999999997  0.089999999999999997  0
0.22500000000000001  -0.58999999999999997  0.089999999999999997  0
0.17499999999999999  -0.68000000000000005  0.089999999999999997  0
0.22500000000000001  -0.68000000000000005  0.089999999999999997  0
0.074999999999999997  -0.68000000000000005  0.14999999999999999  0
0.074999999999999997  -0.55000000000000004  0.14999999999999999  0
0.17499999999999999  -0.55000000000000004  0.14999999999999999  0
0.17499999999999999  -0.68000000000000005  0.14999999999999999  0
0.074999999999999997  -0.68000000000000005  0.089999999999999997  0
0.074999999999999997  -0.55000000000000004  0.089999999999999997  0
0.17499999999999999  -0.55000000000000004  0.089999999999999997  0
0.17499999999999999  -0.28999999999999998  0.089999999999999997  0
0.22500000000000001  -0.28999999999999998  0.089999999999999997  0
0.17499999999999999  0.28999999999999998  0.089999999999999997  0
0.22500000000000001  0.28999999999999998  0.089999999999999997  0
0.17499999999999999  0.58999999999999997  0.089999999999999997  0
0.22500000000000001  0.58999999999999997  0.089999999999999997  0
-0.0044999999999999901  0.19  0.089999999999999997  0
-0.16550000000000001  0.19  0.089999999999999997  0
-0.16550000000000001  0.19  0.17999999999999999  0
-0.0044999999999999901  0.19  0.17999999999999999  0
0.22500000000000001  0.68000000000000005  0.17999999999999999  0
-0.22500000000000001  0.68000000000000005  0.17999999999999999  0
0.22500000000000001  0.68000000000000005  0.089999999999999997  0
-0.22500000000000001  0.68000000000000005  0.089999999999999997  0
0.22500000000000001  -0.68000000000000005  0.17999999999999999  0
-0.22500000000000001  -0.68000000000000005  0.089999999999999997  0
-0.22500000000000001  -0.68000000000000005  0.17999999999999999  0
0.096500000000000002  0.16200000000000001  0.089999999999999997  0
0.072999999999999995  0.13850000000000001  0.089999999999999997  0
0.072999999999999995  0.13850000000000001  0.17999999999999999  0
0.096500000000000002  0.16200000000000001  0.17999999999999999  0
0.072999999999999995  -0.13850000000000001  0.17999999999999999  0
0.072999999999999995  -0.13850000000000001  0.089999999999999997  0
0.096500000000000002  -0.16200000000000001  0.17999999999999999  0
0.096500000000000002  -0.16200000000000001  0.089999999999999997  0
0.12  -0.13850000000000001  0.089999999999999997  0
0.12  -0.13850000000000001  0.17999999999999999  0
0.12  0.13850000000000001  0.17999999999999999  0
0.12  0.13850000000000001  0.089999999999999997  0
-0.0044999999999999901  -0.19  0.089999999999999997  0
-0.16550000000000001  -0.19  0.089999999999999997  0
-0.0044999999999999997  -0.19  0.17999999999999999  0
-0.16550000000000001  -0.19  0.17999999999999999  0
0.22500000000000001  0.53000000000000003  0.070000000000000007  0
0.22500000000000001  0.46999999999999997  0.070000000000000007  0
0.22500000000000001  0.40999999999999998  0.070000000000000007  0
0.22500000000000001  0.34999999999999998  0.070000000000000007  0
0.17499999999999999  0.55999999999999994  0.070000000000000007  0
0.17499999999999999  0.53000000000000003  0.070000000000000007  0
0.17499999999999999  0.5  0.070000000000000007  0
0.17499999999999999  0.46999999999999997  0.070000000000000007  0
0.17499999999999999  0.43999999999999995  0.070000000000000007  0
0.17499999999999999  0.40999999999999998  0.070000000000000007  0
0.17499999999999999  0.38  0.070000000000000007  0
0.17499999999999999  0.34999999999999998  0.070000000000000007  0
0.17499999999999999  0.31999999999999995  0.070000000000000007  0
0.17499999999999999  -0.32749999999999996  0.070000000000000007  0
0.17499999999999999  -0.36499999999999999  0.070000000000000007  0
0.17499999999999999  -0.40249999999999997  0.070000000000000007  0
0.17499999999999999  -0.43999999999999995  0.070000000000000007  0
0.17499999999999999  -0.47749999999999998  0.070000000000000007  0
0.17499999999999999  -0.5149999999999999  0.070000000000000007  0
0.17499999999999999  -0.55249999999999999  0.070000000000000007  0
0.22500000000000001  -0.33285714285714285  0.070000000000000007  0
0.22500000000000001  -0.37571428571428567  0.070000000000000007  0
0.22500000000000001  -0.41857142857142854  0.070000000000000007  0
0.22500000000000001  -0.46142857142857141  0.070000000000000007  0
0.22500000000000001  -0.50428571428571423  0.070000000000000007  0
0.22500000000000001  -0.54714285714285715  0.070000000000000007  0
0.074999999999999997  -0.64750000000000008  0.14999999999999999  0
0.074999999999999997  -0.61499999999999999  0.14999999999999999  0
0.074999999999999997  -0.58250000000000002  0.14999999999999999  0
0.075759612349389605  -0.54131759111665356  0.14999999999999997  0
0.078015368960704573  -0.53289899283371656  0.14999999999999997  0
0.081698729810778054  -0.52500000000000002  0.14999999999999997  0
0.086697777844051097  -0.51786061951567308  0.14999999999999997  0
0.092860619515673037  -0.51169777784405113  0.14999999999999997  0
0.099999999999999992  -0.50669872981077813  0.14999999999999999  0
0.10789899283371655  -0.50301536896070465  0.14999999999999999  0
0.11631759111665348  -0.50075961234938959  0.14999999999999999  0
0.125  -0.5  0.14999999999999999  0
0.13368240888334651  -0.50075961234938959  0.14999999999999999  0
0.14210100716628343  -0.50301536896070465  0.14999999999999999  0
0.14999999999999999  -0.50669872981077813  0.14999999999999999  0
0.15713938048432696  -0.51169777784405113  0.15000000000000002  0
0.16330222215594889  -0.51786061951567308  0.15000000000000002  0
0.16830127018922195  -0.52500000000000002  0.15000000000000002  0
0.17198463103929543  -0.53289899283371656  0.15000000000000002  0
0.1742403876506104  -0.54131759111665356  0.15000000000000002  0
0.17499999999999999  -0.59333333333333338  0.14999999999999999  0
0.17499999999999999  -0.63666666666666671  0.14999999999999999  0
0.074999999999999997  -0.63666666666666671  0.089999999999999997  0
0.074999999999999997  -0.59333333333333338  0.089999999999999997  0
0.074999999999999997  -0.55000000000000004  0.12  0
0.075759612349389605  -0.54131759111665356  0.089999999999999997  0
0.078015368960704573  -0.53289899283371656  0.089999999999999997  0
0.081698729810778054  -0.52500000000000002  0.089999999999999997  0
0.086697777844051097  -0.51786061951567308  0.089999999999999997  0
0.092860619515673037  -0.51169777784405113  0.089999999999999997  0
0.099999999999999992  -0.50669872981077813  0.089999999999999997  0
0.10789899283371655  -0.50301536896070465  0.089999999999999997  0
0.11631759111665348  -0.50075961234938959  0.089999999999999997  0
0.125  -0.5  0.089999999999999997  0
0.13368240888334651  -0.50075961234938959  0.089999999999999997  0
0.14210100716628343  -0.50301536896070465  0.089999999999999997  0
0.14999999999999999  -0.50669872981077813  0.089999999999999997  0
0.15713938048432696  -0.51169777784405113  0.089999999999999997  0
0.16330222215594889  -0.51786061951567308  0.089999999999999997  0
0.16830127018922195  -0.52500000000000002  0.089999999999999997  0
0.17198463103929543  -0.53289899283371656  0.089999999999999997  0
0.1742403876506104  -0.54131759111665356  0.089999999999999997  0
0.17499999999999999  -0.55000000000000004  0.12  0
0.17499999999999999  -0.33333333333333331  0.089999999999999997  0
0.17499999999999999  -0.37666666666666665  0.089999999999999997  0
0.17499999999999999  -0.42000000000000004  0.089999999999999997  0
0.17499999999999999  -0.46333333333333337  0.089999999999999997  0
0.17499999999999999  -0.50666666666666671  0.089999999999999997  0
0.17499999999999999  0.55999999999999994  0.089999999999999997  0
0.17499999999999999  0.53000000000000003  0.089999999999999997  0
0.17499999999999999  0.5  0.089999999999999997  0
0.17499999999999999  0.46999999999999997  0.089999999999999997  0
0.17499999999999999  0.43999999999999995  0.089999999999999997  0
0.17499999999999999  0.40999999999999998  0.089999999999999997  0
0.17499999999999999  0.38  0.089999999999999997  0
0.17499999999999999  0.34999999999999998  0.089999999999999997  0
0.17499999999999999  0.31999999999999995  0.089999999999999997  0
-0.005722975882517245  0.20397867830218788  0.089999999999999969  0
-0.0093547440267343768  0.21753262153771633  0.089999999999999969  0
-0.015284954995352679  0.23024999999999998  0.089999999999999969  0
-0.023333422328922278  0.24174440257976643  0.089999999999999969  0
-0.033255597420233575  0.2516665776710777  0.089999999999999983  0
-0.04474999999999997  0.25971504500464726  0.089999999999999983  0
-0.057467378462283621  0.2656452559732656  0.089999999999999983  0
-0.071021321697812112  0.26927702411748278  0.089999999999999997  0
-0.084999999999999992  0.27050000000000002  0.089999999999999997  0
-0.098978678302187872  0.26927702411748278  0.089999999999999997  0
-0.11253262153771629  0.26564525597326566  0.090000000000000011  0
-0.12524999999999994  0.25971504500464737  0.090000000000000011  0
-0.13674440257976636  0.25166657767107781  0.090000000000000011  0
-0.14666657767107771  0.24174440257976643  0.090000000000000024  0
-0.15471504500464728  0.23025000000000004  0.090000000000000024  0
-0.16064525597326562  0.21753262153771638  0.090000000000000024  0
-0.16427702411748274  0.20397867830218797  0.090000000000000024  0
-0.16550000000000001  0.19  0.13500000000000001  0
-0.005722975882517245  0.20397867830218788  0.17999999999999997  0
-0.0093547440267343768  0.21753262153771633  0.17999999999999997  0
-0.015284954995352679  0.23024999999999998  0.17999999999999997  0
-0.023333422328922278  0.24174440257976643  0.17999999999999997  0
-0.033255597420233575  0.2516665776710777  0.17999999999999997  0
-0.04474999999999997  0.25971504500464726  0.17999999999999997  0
-0.057467378462283621  0.2656452559732656  0.17999999999999999  0
-0.071021321697812112  0.26927702411748278  0.17999999999999999  0
-0.084999999999999992  0.27050000000000002  0.17999999999999999  0
-0.098978678302187872  0.26927702411748278  0.17999999999999999  0
-0.11253262153771629  0.26564525597326566  0.17999999999999999  0
-0.12524999999999994  0.25971504500464737  0.17999999999999999  0
-0.13674440257976636  0.25166657767107781  0.18000000000000002  0
-0.14666657767107771  0.24174440257976643  0.18000000000000002  0
-0.15471504500464728  0.23025000000000004  0.18000000000000002  0
-0.16064525597326562  0.21753262153771638  0.18000000000000002  0
-0.16427702411748274  0.20397867830218797  0.18000000000000002  0
-0.0044999999999999997  0.19  0.13500000000000001  0
-0.16427702411748274  0.17602132169781212  0.18000000000000002  0
-0.16064525597326562  0.16246737846228368  0.18000000000000002  0
-0.15471504500464733  0.14975000000000002  0.18000000000000002  0
-0.14666657767107774  0.13825559742023358  0.18000000000000002  0
-0.13674440257976644  0.12833342232892228  0.18000000000000002  0
-0.12525000000000003  0.1202849549953527  0.18000000000000002  0
-0.11253262153771637  0.11435474402673439  0.17999999999999999  0
-0.098978678302187928  0.11072297588251725  0.17999999999999999  0
-0.085000000000000034  0.1095  0.17999999999999999  0
-0.07102132169781214  0.11072297588251724  0.17999999999999999  0
-0.057467378462283711  0.11435474402673436  0.17999999999999999  0
-0.044750000000000047  0.12028495499535266  0.17999999999999999  0
-0.03325559742023361  0.12833342232892225  0.17999999999999997  0
-0.023333422328922312  0.13825559742023355  0.17999999999999997  0
-0.015284954995352706  0.14974999999999997  0.17999999999999997  0
-0.0093547440267343906  0.16246737846228362  0.17999999999999997  0
-0.0057229758825172727  0.17602132169781204  0.17999999999999997  0
-0.16427702411748274  0.17602132169781212  0.090000000000000024  0
-0.16064525597326562  0.16246737846228368  0.090000000000000024  0
-0.15471504500464733  0.14975000000000002  0.090000000000000024  0
-0.14666657767107774  0.13825559742023358  0.090000000000000024  0
-0.13674440257976644  0.12833342232892228  0.090000000000000011  0
-0.12525000000000003  0.1202849549953527  0.090000000000000011  0
-0.11253262153771637  0.11435474402673439  0.090000000000000011  0
-0.098978678302187928  0.11072297588251725  0.089999999999999997  0
-0.085000000000000034  0.1095  0.089999999999999997  0
-0.07102132169781214  0.11072297588251724  0.089999999999999997  0
-0.057467378462283711  0.11435474402673436  0.089999999999999983  0
-0.044750000000000047  0.12028495499535266  0.089999999999999983  0
-0.03325559742023361  0.12833342232892225  0.089999999999999983  0
-0.023333422328922312  0.13825559742023355  0.089999999999999969  0
-0.015284954995352706  0.14974999999999997  0.089999999999999969  0
-0.0093547440267343906  0.16246737846228362  0.089999999999999969  0
-0.0057229758825172727  0.17602132169781204  0.089999999999999969  0
0.1125  0.68000000000000005  0.17999999999999999  0
0  0.68000000000000005  0.17999999999999999  0
-0.11250000000000002  0.68000000000000005  0.17999999999999999  0
-0.1125  0.68000000000000005  0.089999999999999997  0
0  0.68000000000000005  0.089999999999999997  0
0.11250000000000002  0.68000000000000005  0.089999999999999997  0
0.22500000000000001  0.58285714285714285  0.17999999999999999  0
0.22500000000000001  0.48571428571428577  0.17999999999999999  0
0.22500000000000001  0.38857142857142857  0.17999999999999999  0
0.22500000000000001  0.29142857142857143  0.17999999999999999  0
0.22500000000000001  0.19428571428571428  0.17999999999999999  0
0.22500000000000001  0.097142857142857086  0.17999999999999999  0
0.22500000000000001  0  0.17999999999999999  0
0.22500000000000001  -0.097142857142857197  0.17999999999999999  0
0.22500000000000001  -0.19428571428571439  0.17999999999999999  0
0.22500000000000001  -0.29142857142857148  0.17999999999999999  0
0.22500000000000001  -0.38857142857142868  0.17999999999999999  0
0.22500000000000001  -0.48571428571428588  0.17999999999999999  0
0.22500000000000001  -0.58285714285714307  0.17999999999999999  0
0.22500000000000001  0.21749999999999997  0.089999999999999997  0
0.22500000000000001  0.14499999999999999  0.089999999999999997  0
0.22500000000000001  0.072500000000000009  0.089999999999999997  0
0.22500000000000001  0  0.089999999999999997  0
0.22500000000000001  -0.072500000000000009  0.089999999999999997  0
0.22500000000000001  -0.14499999999999996  0.089999999999999997  0
0.22500000000000001  -0.21749999999999997  0.089999999999999997  0
-0.125  -0.68000000000000005  0.089999999999999997  0
-0.025000000000000022  -0.68000000000000005  0.089999999999999997  0
0.1125  -0.68000000000000005  0.17999999999999999  0
0  -0.68000000000000005  0.17999999999999999  0
-0.11250000000000002  -0.68000000000000005  0.17999999999999999  0
-0.22500000000000001  0.60444444444444445  0.089999999999999997  0
-0.22500000000000001  0.52888888888888896  0.089999999999999997  0
-0.22500000000000001  0.45333333333333337  0.089999999999999997  0
-0.22500000000000001  0.37777777777777782  0.089999999999999997  0
-0.22500000000000001  0.30222222222222228  0.089999999999999997  0
-0.22500000000000001  0.22666666666666668  0.089999999999999997  0
-0.22500000000000001  0.1511111111111112  0.089999999999999997  0
-0.22500000000000001  0.075555555555555598  0.089999999999999997  0
-0.22500000000000001  0  0.089999999999999997  0
-0.22500000000000001  -0.075555555555555487  0.089999999999999997  0
-0.22500000000000001  -0.15111111111111108  0.089999999999999997  0
-0.22500000000000001  -0.22666666666666668  0.089999999999999997  0
-0.22500000000000001  -0.30222222222222217  0.089999999999999997  0
-0.22500000000000001  -0.37777777777777766  0.089999999999999997  0
-0.22500000000000001  -0.45333333333333325  0.089999999999999997  0
-0.22500000000000001  -0.52888888888888885  0.089999999999999997  0
-0.22500000000000001  -0.60444444444444445  0.089999999999999997  0
-0.22500000000000001  0.60444444444444445  0.17999999999999999  0
-0.22500000000000001  0.52888888888888896  0.17999999999999999  0
-0.22500000000000001  0.45333333333333337  0.17999999999999999  0
-0.22500000000000001  0.37777777777777782  0.17999999999999999  0
-0.22500000000000001  0.30222222222222228  0.17999999999999999  0
-0.22500000000000001  0.22666666666666668  0.17999999999999999  0
-0.22500000000000001  0.1511111111111112  0.17999999999999999  0
-0.22500000000000001  0.075555555555555598  0.17999999999999999  0
-0.22500000000000001  0  0.17999999999999999  0
-0.22500000000000001  -0.075555555555555487  0.17999999999999999  0
-0.22500000000000001  -0.15111111111111108  0.17999999999999999  0
-0.22500000000000001  -0.22666666666666668  0.17999999999999999  0
-0.22500000000000001  -0.30222222222222217  0.17999999999999999  0
-0.22500000000000001  -0.37777777777777766  0.17999999999999999  0
-0.22500000000000001  -0.45333333333333325  0.17999999999999999  0
-0.22500000000000001  -0.52888888888888885  0.17999999999999999  0
-0.22500000000000001  -0.60444444444444445  0.17999999999999999  0
0.092419267824827137  0.16164298219578691  0.089999999999999997  0
0.088462526631846783  0.16058277658846887  0.089999999999999997  0
0.084750000000000006  0.15885159698893431  0.089999999999999997  0
0.081394491172366329  0.15650204441329599  0.089999999999999997  0
0.078497955586704027  0.15360550882763369  0.089999999999999997  0
0.076148403011065693  0.15025000000000002  0.089999999999999997  0
0.074417223411531161  0.14653747336815323  0.089999999999999997  0
0.073357017804213109  0.14258073217517286  0.089999999999999997  0
0.072999999999999995  0.13850000000000001  0.16200000000000001  0
0.072999999999999995  0.13850000000000001  0.14399999999999999  0
0.072999999999999995  0.13850000000000001  0.126  0
0.072999999999999995  0.13850000000000001  0.108  0
0.092419267824827137  0.16164298219578691  0.17999999999999999  0
0.088462526631846783  0.16058277658846887  0.17999999999999999  0
0.084750000000000006  0.15885159698893431  0.17999999999999999  0
0.081394491172366329  0.15650204441329599  0.17999999999999999  0
0.078497955586704027  0.15360550882763369  0.17999999999999999  0
0.076148403011065693  0.15025000000000002  0.17999999999999999  0
0.074417223411531161  0.14653747336815323  0.17999999999999999  0
0.073357017804213109  0.14258073217517286  0.17999999999999999  0
0.096500000000000002  0.16200000000000001  0.16200000000000001  0
0.096500000000000002  0.16200000000000001  0.14399999999999999  0
0.096500000000000002  0.16200000000000001  0.126  0
0.096500000000000002  0.16200000000000001  0.108  0
0.072999999999999995  0.10772222222222223  0.17999999999999999  0
0.072999999999999995  0.076944444444444454  0.17999999999999999  0
0.072999999999999995  0.046166666666666675  0.17999999999999999  0
0.072999999999999995  0.015388888888888896  0.17999999999999999  0
0.072999999999999995  -0.015388888888888896  0.17999999999999999  0
0.072999999999999995  -0.046166666666666661  0.17999999999999999  0
0.072999999999999995  -0.076944444444444426  0.17999999999999999  0
0.072999999999999995  -0.10772222222222222  0.17999999999999999  0
0.072999999999999995  -0.13850000000000001  0.16200000000000001  0
0.072999999999999995  -0.13850000000000001  0.14399999999999999  0
0.072999999999999995  -0.13850000000000001  0.126  0
0.072999999999999995  -0.13850000000000001  0.108  0
0.072999999999999995  0.10772222222222223  0.089999999999999997  0
0.072999999999999995  0.076944444444444454  0.089999999999999997  0
0.072999999999999995  0.046166666666666675  0.089999999999999997  0
0.072999999999999995  0.015388888888888896  0.089999999999999997  0
0.072999999999999995  -0.015388888888888896  0.089999999999999997  0
0.072999999999999995  -0.046166666666666661  0.089999999999999997  0
0.072999999999999995  -0.076944444444444426  0.089999999999999997  0
0.072999999999999995  -0.10772222222222222  0.089999999999999997  0
0.073357017804213109  -0.14258073217517286  0.17999999999999999  0
0.074417223411531147  -0.14653747336815323  0.17999999999999999  0
0.076148403011065693  -0.15025000000000002  0.17999999999999999  0
0.078497955586704027  -0.15360550882763369  0.17999999999999999  0
0.081394491172366329  -0.15650204441329599  0.17999999999999999  0
0.084749999999999992  -0.15885159698893431  0.17999999999999999  0
0.088462526631846783  -0.16058277658846887  0.17999999999999999  0
0.092419267824827137  -0.16164298219578691  0.17999999999999999  0
0.073357017804213109  -0.14258073217517286  0.089999999999999997  0
0.074417223411531147  -0.14653747336815323  0.089999999999999997  0
0.076148403011065693  -0.15025000000000002  0.089999999999999997  0
0.078497955586704027  -0.15360550882763369  0.089999999999999997  0
0.081394491172366329  -0.15650204441329599  0.089999999999999997  0
0.084749999999999992  -0.15885159698893431  0.089999999999999997  0
0.088462526631846783  -0.16058277658846887  0.089999999999999997  0
0.092419267824827137  -0.16164298219578691  0.089999999999999997  0
0.096500000000000002  -0.16200000000000001  0.108  0
0.096500000000000002  -0.16200000000000001  0.126  0
0.096500000000000002  -0.16200000000000001  0.14399999999999999  0
0.096500000000000002  -0.16200000000000001  0.16199999999999998  0
0.10058073217517287  -0.16164298219578691  0.089999999999999997  0
0.10453747336815322  -0.16058277658846887  0.089999999999999997  0
0.10825  -0.15885159698893431  0.089999999999999997  0
0.11160550882763368  -0.15650204441329599  0.089999999999999997  0
0.11450204441329598  -0.15360550882763369  0.089999999999999997  0
0.11685159698893431  -0.15025000000000002  0.089999999999999997  0
0.11858277658846884  -0.14653747336815323  0.089999999999999997  0
0.1196429821957869  -0.14258073217517286  0.089999999999999997  0
0.12  -0.13850000000000001  0.16200000000000001  0
0.12  -0.13850000000000001  0.14399999999999999  0
0.12  -0.13850000000000001  0.126  0
0.12  -0.13850000000000001  0.108  0
0.10058073217517287  -0.16164298219578691  0.17999999999999999  0
0.10453747336815322  -0.16058277658846887  0.17999999999999999  0
0.10825  -0.15885159698893431  0.17999999999999999  0
0.11160550882763368  -0.15650204441329599  0.17999999999999999  0
0.11450204441329598  -0.15360550882763369  0.17999999999999999  0
0.11685159698893431  -0.15025000000000002  0.17999999999999999  0
0.11858277658846884  -0.14653747336815323  0.17999999999999999  0
0.1196429821957869  -0.14258073217517286  0.17999999999999999  0
0.12  -0.10387500000000001  0.17999999999999999  0
0.12  -0.069250000000000006  0.17999999999999999  0
0.12  -0.034625000000000003  0.17999999999999999  0
0.12  0  0.17999999999999999  0
0.12  0.034625000000000017  0.17999999999999999  0
0.12  0.069250000000000006  0.17999999999999999  0
0.12  0.103875  0.17999999999999999  0
0.12  0.13850000000000001  0.16200000000000001  0
0.12  0.13850000000000001  0.14399999999999999  0
0.12  0.13850000000000001  0.126  0
0.12  0.13850000000000001  0.108  0
0.12  -0.11080000000000001  0.089999999999999997  0
0.12  -0.083100000000000007  0.089999999999999997  0
0.12  -0.055400000000000005  0.089999999999999997  0
0.12  -0.027700000000000002  0.089999999999999997  0
0.12  0  0.089999999999999997  0
0.12  0.027700000000000002  0.089999999999999997  0
0.12  0.055400000000000005  0.089999999999999997  0
0.12  0.083100000000000007  0.089999999999999997  0
0.12  0.11080000000000001  0.089999999999999997  0
0.1196429821957869  0.14258073217517286  0.17999999999999999  0
0.11858277658846886  0.14653747336815323  0.17999999999999999  0
0.11685159698893431  0.15025000000000002  0.17999999999999999  0
0.11450204441329598  0.15360550882763369  0.17999999999999999  0
0.11160550882763368  0.15650204441329599  0.17999999999999999  0
0.10825000000000001  0.15885159698893431  0.17999999999999999  0
0.10453747336815322  0.16058277658846887  0.17999999999999999  0
0.10058073217517287  0.16164298219578691  0.17999999999999999  0
0.1196429821957869  0.14258073217517286  0.089999999999999997  0
0.11858277658846886  0.14653747336815323  0.089999999999999997  0
0.11685159698893431  0.15025000000000002  0.089999999999999997  0
0.11450204441329598  0.15360550882763369  0.089999999999999997  0
0.11160550882763368  0.15650204441329599  0.089999999999999997  0
0.10825000000000001  0.15885159698893431  0.089999999999999997  0
0.10453747336815322  0.16058277658846887  0.089999999999999997  0
0.10058073217517287  0.16164298219578691  0.089999999999999997  0
-0.005722975882517245  -0.17602132169781212  0.089999999999999969  0
-0.0093547440267343768  -0.16246737846228368  0.089999999999999969  0
-0.015284954995352679  -0.14975000000000002  0.089999999999999969  0
-0.023333422328922278  -0.13825559742023358  0.089999999999999969  0
-0.033255597420233575  -0.12833342232892228  0.089999999999999983  0
-0.04474999999999997  -0.12028495499535272  0.089999999999999983  0
-0.057467378462283621  -0.11435474402673439  0.089999999999999983  0
-0.071021321697812112  -0.11072297588251725  0.089999999999999997  0
-0.084999999999999992  -0.1095  0.089999999999999997  0
-0.098978678302187872  -0.11072297588251724  0.089999999999999997  0
-0.11253262153771629  -0.11435474402673436  0.090000000000000011  0
-0.12524999999999994  -0.12028495499535266  0.090000000000000011  0
-0.13674440257976636  -0.12833342232892223  0.090000000000000011  0
-0.14666657767107771  -0.13825559742023358  0.090000000000000024  0
-0.15471504500464728  -0.14974999999999997  0.090000000000000024  0
-0.16064525597326562  -0.16246737846228362  0.090000000000000024  0
-0.16427702411748274  -0.17602132169781204  0.090000000000000024  0
-0.16427702411748274  -0.20397867830218788  0.090000000000000024  0
-0.16064525597326562  -0.21753262153771633  0.090000000000000024  0
-0.15471504500464733  -0.23024999999999998  0.090000000000000024  0
-0.14666657767107774  -0.24174440257976643  0.090000000000000024  0
-0.13674440257976644  -0.25166657767107775  0.090000000000000011  0
-0.12525000000000003  -0.25971504500464732  0.090000000000000011  0
-0.11253262153771637  -0.2656452559732656  0.090000000000000011  0
-0.098978678302187928  -0.26927702411748278  0.089999999999999997  0
-0.085000000000000034  -0.27050000000000002  0.089999999999999997  0
-0.07102132169781214  -0.26927702411748278  0.089999999999999997  0
-0.057467378462283711  -0.26564525597326566  0.089999999999999983  0
-0.044750000000000047  -0.25971504500464737  0.089999999999999983  0
-0.03325559742023361  -0.25166657767107775  0.089999999999999983  0
-0.023333422328922312  -0.24174440257976645  0.089999999999999969  0
-0.015284954995352706  -0.23025000000000004  0.089999999999999969  0
-0.0093547440267343906  -0.21753262153771638  0.089999999999999969  0
-0.0057229758825172727  -0.20397867830218797  0.089999999999999969  0
-0.005722975882517245  -0.17602132169781212  0.17999999999999997  0
-0.0093547440267343768  -0.16246737846228368  0.17999999999999997  0
-0.015284954995352679  -0.14975000000000002  0.17999999999999997  0
-0.023333422328922278  -0.13825559742023358  0.17999999999999997  0
-0.033255597420233575  -0.12833342232892228  0.17999999999999997  0
-0.04474999999999997  -0.12028495499535272  0.17999999999999997  0
-0.057467378462283621  -0.11435474402673439  0.17999999999999999  0
-0.071021321697812112  -0.11072297588251725  0.17999999999999999  0
-0.084999999999999992  -0.1095  0.17999999999999999  0
-0.098978678302187872  -0.11072297588251724  0.17999999999999999  0
-0.11253262153771629  -0.11435474402673436  0.17999999999999999  0
-0.12524999999999994  -0.12028495499535266  0.17999999999999999  0
-0.13674440257976636  -0.12833342232892223  0.18000000000000002  0
-0.14666657767107771  -0.13825559742023358  0.18000000000000002  0
-0.15471504500464728  -0.14974999999999997  0.18000000000000002  0
-0.16064525597326562  -0.16246737846228362  0.18000000000000002  0
-0.16427702411748274  -0.17602132169781204  0.18000000000000002  0
-0.16427702411748274  -0.20397867830218788  0.18000000000000002  0
-0.16064525597326562  -0.21753262153771633  0.18000000000000002  0
-0.15471504500464733  -0.23024999999999998  0.18000000000000002  0
-0.14666657767107774  -0.24174440257976643  0.18000000000000002  0
-0.13674440257976644  -0.25166657767107775  0.18000000000000002  0
-0.12525000000000003  -0.25971504500464732  0.18000000000000002  0
-0.11253262153771637  -0.2656452559732656  0.17999999999999999  0
-0.098978678302187928  -0.26927702411748278  0.17999999999999999  0
-0.085000000000000034  -0.27050000000000002  0.17999999999999999  0
-0.07102132169781214  -0.26927702411748278  0.17999999999999999  0
-0.057467378462283711  -0.26564525597326566  0.17999999999999999  0
-0.044750000000000047  -0.25971504500464737  0.17999999999999999  0
-0.03325559742023361  -0.25166657767107775  0.17999999999999997  0
-0.023333422328922312  -0.24174440257976645  0.17999999999999997  0
-0.015284954995352706  -0.23025000000000004  0.17999999999999997  0
-0.0093547440267343906  -0.21753262153771638  0.17999999999999997  0
-0.0057229758825172727  -0.20397867830218797  0.17999999999999997  0
-0.16550000000000001  -0.19  0.13500000000000001  0
-0.0044999999999999997  -0.19  0.13500000000000001  0
0.14100617212501151  -0.53931602629756703  0.14999999999999999  0
0.12285890695766233  -0.52885486649954894  0.14999999999999999  0
0.12716958761070915  -0.50953123241564591  0.14999999999999999  0
0.14256893218784941  -0.51800230298502659  0.14999999999999999  0
0.091328819561087224  -0.52623611930893044  0.14999999999999999  0
0.10786346983722384  -0.51519250861986987  0.14999999999999999  0
0.087664674945339124  -0.54628830440922282  0.14999999999999999  0
0.14760821232299517  -0.56346103039241013  0.14999999999999999  0
0.15791094970482833  -0.52675143024524296  0.14999999999999999  0
0.10471556814266376  -0.53460446791121163  0.14999999999999999  0
0.11951628335777578  -0.59929288862792762  0.14999999999999999  0
0.16126459236394378  -0.54231771232478543  0.14999999999999999  0
0.1140194713430146  -0.55635556698087563  0.14999999999999999  0
0.17033667351236265  -0.52891479108869355  0.12000000000000041  0
0.078019458726654445  -0.53288776047200503  0.11999999999997257  0
0.14164825773262829  -0.50285304342305881  0.12000000000000732  0
0.10048713037904373  -0.50642111494145359  0.12000000000000424  0
0.15751560661620184  -0.5120166440874373  0.12000000000000269  0
0.12065259985052348  -0.50018935744300896  0.12000000000000882  0
0.086746620510716604  -0.51780250075473455  0.12000000000001751  0
-0.14608859458793519  0.24242550535064872  0.13500000000000098  0
-0.16060614354684766  0.21763984547665688  0.13499999999999152  0
-0.08588641985732709  0.27049511947836674  0.13499999999999782  0
-0.11902356060154048  0.26295647554530921  0.13499999999999668  0
-0.057470620553910466  0.26564643591943526  0.13499999999999956  0
-0.012003569127753203  0.22393775301803723  0.13499999999999995  0
-0.03257645489273938  0.25109027679088558  0.13499999999999998  0
-0.032650327001315607  0.12884640863423624  0.13499999999999951  0
-0.16063878747787017  0.16244961290875221  0.13500000000000784  0
-0.012008074760760309  0.15605255753566635  0.13499999999999987  0
-0.12446639034841658  0.11983837207656588  0.13499999999999832  0
-0.092000025744717565  0.10980492758546015  0.1349999999999987  0
-0.14658834031406356  0.1381625006644891  0.13499999999999659  0
-0.058197016861765101  0.11409314856423371  0.13499999999999884  0
0.22500000000000001  0.53160556343153176  0.11802790480218725  0
0.22500000000000001  -0.52868840281617224  0.11000069421117194  0
0.22500000000000001  -0.3356760532146506  0.11788960986586627  0
0.078882500839021527  0.15405228997006304  0.12117786314268414  0
0.075310406608149721  0.1486612564128682  0.14074172148979106  0
0.079561653031002849  0.15478933399368633  0.16671260366847482  0
0.074214384664535143  0.14595663121789548  0.16477985828445751  0
0.088501588676229981  0.16059695491002748  0.16511104325036619  0
0.07545225868244243  0.14895191778714223  0.10131500108528667  0
0.074239581289078149  0.14603151769661601  0.1194487585884844  0
0.088439459302921131  0.16057436711823775  0.12060206814779913  0
0.081754846949921661  0.15679837319353188  0.10188383727960035  0
0.088531717691272646  0.16060783745752677  0.10008180461920733  0
0.083642352836448317  0.15817055945868372  0.14305966583249075  0
0.072999999999999995  0.12099404651547467  0.14348612645593747  0
0.072999999999999995  -0.12068660167867044  0.11520159922044494  0
0.072999999999999995  0.12099404649346349  0.11520041209941986  0
0.072999999999999995  -0.080096631139522603  0.13372213638950564  0
0.072999999999999995  0.08166675924643442  0.13371603880095381  0
0.072999999999999995  -0.12068660168527379  0.14348731352740027  0
0.072999999999999995  -0.017679756830142286  0.13480988193393945  0
0.072999999999999995  0.031163224539278094  0.13475503715753939  0
0.078201626806468139  -0.15324515305007835  0.10188383727960033  0
0.086048082212857771  -0.15954774131755758  0.10131500108528667  0
0.074425632881762266  -0.14656054069707888  0.12060206814779913  0
0.076829440541316282  -0.15135764716355168  0.14305966583249075  0
0.088968482303384  -0.16076041871092187  0.1194487585884844  0
0.080947710029936989  -0.1561174991609785  0.12117786314268414  0
0.089043368782104518  -0.16078561533546487  0.16477985828445751  0
0.080210666006313686  -0.15543834696899717  0.16671260366847482  0
0.086338743587131811  -0.15968959339185029  0.14074172148979106  0
0.07440304508997253  -0.14649841132377003  0.16511104325036619  0
0.074392162542473259  -0.14646828230872738  0.10008180461920733  0
0.10446828230872736  -0.16060783745752677  0.10008180461920733  0
0.11878561533546486  -0.14595663121789548  0.16477985828445751  0
0.11343834696899716  -0.15478933399368633  0.16671260366847482  0
0.10449841132377002  -0.16059695491002748  0.16511104325036619  0
0.11411749916097848  -0.15405228997006304  0.12117786314268414  0
0.11754774131755756  -0.14895191778714223  0.10131500108528667  0
0.11876041871092186  -0.14603151769661601  0.1194487585884844  0
0.11124515305007834  -0.15679837319353188  0.10188383727960035  0
0.10456054069707887  -0.16057436711823775  0.12060206814779913  0
0.10935764716355167  -0.15817055945868375  0.14305966583249075  0
0.11768959339185028  -0.1486612564128682  0.14074172148979106  0
0.12  0.11582652535774959  0.14349860440690315  0
0.12  0.10890152535786657  0.11521289012118875  0
0.12  0.066543990991906207  0.13371772156134448  0
0.12  -0.11577458031908307  0.14347306036805296  0
0.12  -0.10884958032429  0.115187346082469  0
0.12  -0.066491152410653537  0.13369932436149684  0
0.12  1.7914764514527878e-05  0.13467796555050493  0
0.11278933399368632  0.15543834696899717  0.16671260366847482  0
0.11859695491002749  0.14649841132377001  0.16511104325036619  0
0.10666125641286819  0.15968959339185029  0.14074172148979106  0
0.11860783745752675  0.14646828230872735  0.10008180461920733  0
0.10695191778714223  0.15954774131755758  0.10131500108528667  0
0.11617055945868372  0.15135764716355168  0.14305966583249075  0
0.104031517696616  0.16076041871092187  0.1194487585884844  0
0.11857436711823774  0.14656054069707888  0.12060206814779914  0
0.11205228997006302  0.1561174991609785  0.12117786314268414  0
0.11479837319353187  0.15324515305007835  0.10188383727960033  0
0.10395663121789549  0.16078561533546487  0.16477985828445751  0
0.081513444634387144  0.16648478438926917  0.089999999999999997  0
0.1334634212383308  0.14121135683885186  0.089999999999999997  0
-0.080936536210753154  -0.089684417627103052  0.089999999999999997  0
-0.10177522661581566  0.30900893784553457  0.089999999999999997  0
0.076704387970132709  -0.36848320369350562  0.089999999999999997  0
-0.0242511819635612  0.29344172976475241  0.089999999999999997  0
0.073713329263558725  -0.1577666875774448  0.089999999999999997  0
0.14164432424179649  -0.18311531734641062  0.089999999999999997  0
0.12514895582852678  0.15152208210443205  0.089999999999999997  0
0.082338888509249225  -0.50069952985382116  0.089999999999999997  0
-0.1538657165917264  0.61901398070800528  0.089999999999999997  0
0.073822447270591007  0.21001091562638283  0.089999999999999997  0
-0.17569532505490656  0.12622469781774803  0.089999999999999997  0
-0.18082409843925254  0.24482118212984152  0.089999999999999997  0
0.0026680654620006637  0.24267013671142881  0.089999999999999997  0
-0.056377601464063461  -0.59070801225677261  0.089999999999999997  0
0.064624977028927222  -0.13561711166349616  0.089999999999999997  0
0.091647342442709889  -0.16690633962447327  0.089999999999999997  0
0.05813258677377544  0.14404287660564327  0.089999999999999997  0
0.11427826902360859  0.17920135916212165  0.089999999999999997  0
-0.032055657210134647  0.10268904537074089  0.089999999999999997  0
-0.027680335027590923  -0.057468901807069449  0.089999999999999997  0
0.11663536366821288  -0.15731990581050692  0.089999999999999997  0
0.15286253886042914  0.09118818140996672  0.089999999999999997  0
0.16121231420363175  -0.038806508362792418  0.089999999999999997  0
0.051733194172339812  -0.15892056806027849  0.089999999999999997  0
-0.055961723821725658  0.28094207427445322  0.089999999999999997  0
0.098001423343817687  -0.47441819549531855  0.089999999999999997  0
0.14820476711928268  -0.15937965721703304  0.089999999999999997  0
0.073410464008659346  -0.52144503166135825  0.089999999999999997  0
-0.18537436301380239  0.1999470286574562  0.089999999999999997  0
0.084356703112848055  -0.21582790698131984  0.089999999999999997  0
0.015492561244867458  0.3608640036397836  0.089999999999999997  0
-0.17945130276034754  -0.17026272058054259  0.089999999999999997  0
0.11375740119735869  0.20574265661010951  0.089999999999999997  0
0.11501984701222363  -0.19038612484152642  0.089999999999999997  0
-0.14912450771358909  0.33255234897743191  0.089999999999999997  0
-0.024314411010216013  -0.42540238601758379  0.089999999999999997  0
0.030558245254872652  -0.61512804461067205  0.089999999999999997  0
0.04903847340225756  -0.54509292700800815  0.089999999999999997  0
0.046708576817461309  0.14530570974955201  0.089999999999999997  0
-0.11675262963786831  0.41410842975471684  0.089999999999999997  0
0.070409611808703948  0.17005258247460073  0.089999999999999997  0
0.1101337587803196  -0.16216070891536891  0.089999999999999997  0
0.032010373905973367  -0.095521154436489036  0.089999999999999997  0
-0.059533976985556014  0.089216910212405409  0.089999999999999997  0
0.014585788736830462  0.18241957943129017  0.089999999999999997  0
0.018252747428890822  -0.55754273791167597  0.089999999999999997  0
-0.050218147267960714  -0.10069790592673079  0.089999999999999997  0
0.1495689023753862  -0.45807277425583481  0.089999999999999997  0
-0.16670418693152445  -0.11394580543209963  0.089999999999999997  0
0.062114830791867623  -0.16655656547622305  0.089999999999999997  0
0.15535330276358553  0.22014162904708898  0.089999999999999997  0
-0.11835275160809355  -0.4975430447245644  0.089999999999999997  0
0.030409338703070152  -0.29787356704951862  0.089999999999999997  0
0.03443831453860071  0.15939402346956974  0.089999999999999997  0
0.14110090169462292  -0.084373846456239202  0.089999999999999997  0
0.1758516014985152  -0.1778560848794955  0.089999999999999997  0
0.12223056650189647  -0.15324434273581528  0.089999999999999997  0
-0.012965707952651872  -0.50841749098392508  0.089999999999999997  0
-0.022702518562569898  0.12046083564052452  0.089999999999999997  0
0.043154566515363889  -0.17245133196075446  0.089999999999999997  0
0.10469148368433637  0.16367845988981622  0.089999999999999997  0
0.08278129582174551  -0.16177174390317994  0.089999999999999997  0
0.095601236411037807  0.18590746646544007  0.089999999999999997  0
-0.0055631956772610527  -0.25888119493053535  0.089999999999999997  0
0.14163807126454775  0.15698007947627457  0.089999999999999997  0
0.035998447103563959  -0.15293244853709559  0.089999999999999997  0
0.062199428077849755  -0.15561585436701827  0.089999999999999997  0
0.11055492473998929  0.45465535033001681  0.089999999999999997  0
-0.07239487331324275  -0.28105051090977268  0.089999999999999997  0
0.10522049505939322  -0.17210306679290449  0.089999999999999997  0
0.00706944202918805  0.15654355768641096  0.089999999999999997  0
-0.010081315780398867  -0.29415201076579056  0.089999999999999997  0
0.047194342130621417  -0.51832391436710989  0.089999999999999997  0
0.13614852662555568  0.12302304056055094  0.089999999999999997  0
0.10491461563130335  -0.4945090200883433  0.089999999999999997  0
0.054682609568468467  -0.14682319784334594  0.089999999999999997  0
0.16058687381301004  0.029631677143164777  0.089999999999999997  0
0.13734727386368326  0.18262143230379216  0.089999999999999997  0
-0.15804633752858532  0.086799384557310871  0.089999999999999997  0
-0.0065356807660375913  0.49719880708188396  0.089999999999999997  0
0.18647048843277789  0.12204924951587293  0.089999999999999997  0
-0.17210187680273176  -0.14764409765653594  0.089999999999999997  0
0.14575358374672795  -0.22232501927922696  0.089999999999999997  0
0.12460114653713841  0.1651729793884732  0.089999999999999997  0
-0.14495623229520951  0.53098476288334062  0.089999999999999997  0
-0.17584463942048886  0.16516453318015697  0.089999999999999997  0
0.1013903449823718  -0.16421083288376534  0.089999999999999997  0
-0.16200237700786974  0.28320809600808022  0.089999999999999997  0
0.014000618726124112  -0.1706179259403732  0.089999999999999997  0
-0.18940460634800774  -0.19406985812408839  0.089999999999999997  0
-0.081573683686891843  0.34584873584215636  0.089999999999999997  0
0.046940706260695922  0.25011112075220499  0.089999999999999997  0
0.089632280126303782  -0.18332820925930501  0.089999999999999997  0
0.077455901731658866  0.18009578657719907  0.089999999999999997  0
0.046862784489828752  0.59373389570752078  0.089999999999999997  0
-0.17049711421752575  -0.25913985139739354  0.089999999999999997  0
-0.10024315814018649  -0.28490367105447595  0.089999999999999997  0
0.1782742970172802  -0.099815704245835801  0.089999999999999997  0
0.10644700920159229  0.25633183906949131  0.089999999999999997  0
0.075983955478947734  0.16066145344446414  0.089999999999999997  0
0.064470109291740921  -0.53434790765468254  0.089999999999999997  0
0.12503676123531743  -0.48172878319446288  0.089999999999999997  0
0.030383439143016455  -0.20129075964494259  0.089999999999999997  0
0.069944493547459408  0.15543404117281304  0.089999999999999997  0
-0.0040758991270808424  0.10408532414129402  0.089999999999999997  0
0.060497413638837434  0.29493179370145156  0.089999999999999997  0
0.10292438981157502  0.1712190871842848  0.089999999999999997  0
-0.10786763291550888  -0.095474410169297877  0.089999999999999997  0
0.12213802705675042  -0.43431855844692147  0.089999999999999997  0
-0.024391120282927784  -0.33733600439501793  0.089999999999999997  0
0.091791680851624174  0.1691216399507624  0.089999999999999997  0
-0.16605991923954738  -0.31890931081731383  0.089999999999999997  0
0.1179014283559657  -0.15274227992332456  0.089999999999999997  0
0.055613357878828866  -0.46135863129374177  0.089999999999999997  0
0.17495865850141851  0.16822998496319985  0.089999999999999997  0
0.04469027683415934  -0.129645303829936  0.089999999999999997  0
-0.019882190911663419  -0.11141509603429484  0.089999999999999997  0
0.068512362664452334  -0.14793628972251857  0.089999999999999997  0
-0.1330575822048686  -0.2793193495358367  0.089999999999999997  0
0.1119835540551644  0.16448077142237119  0.089999999999999997  0
0.037124978213513314  0.099901965656630315  0.089999999999999997  0
0.12028900404972685  0.32298486036362006  0.089999999999999997  0
-0.080127272707221073  -0.31346876763581505  0.089999999999999997  0
-0.13130288115314115  0.29554039650147973  0.089999999999999997  0
0.024904171574294469  0.21233371486233574  0.089999999999999997  0
0.12386670737144562  -0.16586282192704069  0.089999999999999997  0
-0.07113887052618377  0.03064469219001326  0.089999999999999997  0
-0.13009568400359817  -0.10415527042870203  0.089999999999999997  0
-0.082677873391059184  0.28489161410023151  0.089999999999999997  0
-0.040920149736885313  -0.28267836241165939  0.089999999999999997  0
-0.15239352963209296  0.25368922369654273  0.089999999999999997  0
0.099350524546887128  0.16549926776108501  0.089999999999999997  0
0.056250321659631841  0.15642409988710662  0.089999999999999997  0
-0.09634942682025889  0.088800592722817692  0.089999999999999997  0
0.0060165916569148931  -0.2263963521087746  0.089999999999999997  0
0.11740488071464304  0.15688031322629697  0.089999999999999997  0
-0.1329861276818543  0.27030112274276208  0.089999999999999997  0
-0.05521198445948914  0.31253235561391596  0.089999999999999997  0
0.15086976856343173  -0.49142361184449279  0.089999999999999997  0
-0.17739269791641701  -0.22199269920803891  0.089999999999999997  0
0.1233981765813489  0.14396586766736374  0.089999999999999997  0
-0.16241076058911044  -0.59686155657927642  0.089999999999999997  0
0.13151304774998451  -0.13361869595594461  0.089999999999999997  0
-0.12289455329616483  -0.37984035674031624  0.089999999999999997  0
0.064436359240950578  -0.1848324596516015  0.089999999999999997  0
-0.13211731325795137  -0.052339271970310394  0.089999999999999997  0
0.14775046637336958  -0.11812012076615097  0.089999999999999997  0
-0.14474364681171845  0.11661254360142398  0.089999999999999997  0
0.15429102627667865  0.13370472910850364  0.089999999999999997  0
0.052020259814303409  0.1793069466306817  0.089999999999999997  0
0.07733866492743037  -0.17012208938703496  0.089999999999999997  0
0.0074358343671911244  -0.13890151853051969  0.089999999999999997  0
-0.12041217122757351  -0.31527013251722957  0.089999999999999997  0
0.10407839291750669  -0.28205325234812645  0.089999999999999997  0
0.027054818537046488  0.0058844043826169192  0.089999999999999997  0
0.054759190096404134  0.1303569279397338  0.089999999999999997  0
-0.15534720696621715  0.034811123561303059  0.089999999999999997  0
-0.093146886566402035  -0.10136469443254145  0.089999999999999997  0
-0.004176697174001316  0.068310612113866881  0.089999999999999997  0
0.030156730709562627  0.13674420680534899  0.089999999999999997  0
0.063249467871610593  -0.54767025769025202  0.089999999999999997  0
0.067669991914981492  0.14786248767420329  0.089999999999999997  0
0.065364956039637531  0.14057054768899821  0.089999999999999997  0
0.051877783485914458  -0.56804366788530081  0.089999999999999997  0
0.041586272943279143  -0.24697218996086917  0.089999999999999997  0
0.064939699728000913  0.1642803140973314  0.089999999999999997  0
-0.06185948976556585  0.60006209494814111  0.089999999999999997  0
-0.11013844567726309  0.28247493585421607  0.089999999999999997  0
0.0012082284670454149  0.12938421206913273  0.089999999999999997  0
-0.12632864296856663  0.099214612845182917  0.089999999999999997  0
0.13165715010302106  0.57987837290647071  0.089999999999999997  0
0.13513670870257277  0.38839144048806185  0.089999999999999997  0
-0.0182685008897246  0.26225780567396123  0.089999999999999997  0
0.10538881772953047  0.52585912160242465  0.089999999999999997  0
0.11971602386759631  -0.14948984584264816  0.089999999999999997  0
-0.12138660733801672  0.068082129292982241  0.089999999999999997  0
0.013744467021352015  0.28410056613881135  0.089999999999999997  0
0.1234005347079908  -0.1447701370680694  0.089999999999999997  0
0.13246051953958882  -0.14948244621799631  0.089999999999999997  0
0.14590753425712674  -0.14010961428800428  0.089999999999999997  0
0.17008802443696475  -0.14003370288062233  0.089999999999999997  0
-0.023534837769044522  -0.26485951144244158  0.17999999999999999  0
0.0019343559115071569  -0.15999827818496426  0.17999999999999999  0
0.1403238903715637  -0.18023190443270587  0.17999999999999999  0
0.12238269755364775  0.16997704614129588  0.17999999999999999  0
-0.1674265980734827  -0.31064356630008788  0.17999999999999999  0
-0.13562408511195895  -0.27577682862279346  0.17999999999999999  0
-0.17311555855972435  -0.12054460751385651  0.17999999999999999  0
-0.17852973940539077  0.12317498878207572  0.17999999999999999  0
0.073096113419038905  -0.19116358724280211  0.17999999999999999  0
0.077501919083156318  0.16253746266734201  0.17999999999999999  0
0.15785146532179881  0.17797375209689248  0.17999999999999999  0
0.13448422052184375  0.1669429588151374  0.17999999999999999  0
0.080224988100987771  -0.17499337786178806  0.17999999999999999  0
0.13161970400914605  0.15506919636991945  0.17999999999999999  0
0.012739226626837553  -0.19021195539520369  0.17999999999999999  0
-0.0031648682348412727  -0.30251543601027031  0.17999999999999999  0
0.069155736480556826  -0.14958844525150958  0.17999999999999999  0
-0.17205243367186868  0.072092934470577352  0.17999999999999999  0
0.14554269430970238  0.15049751560223523  0.17999999999999999  0
-0.18038161578891956  -0.0668308380285592  0.17999999999999999  0
0.10952879055853285  -0.16879063346986242  0.17999999999999999  0
0.052215119181041547  -0.45249555282463377  0.17999999999999999  0
-0.18631611666919376  -0.25994760807077016  0.17999999999999999  0
0.06566624401542423  -0.1732206410836451  0.17999999999999999  0
0.13065689141685655  0.14413120772151844  0.17999999999999999  0
0.050229567791932848  -0.27598490698124406  0.17999999999999999  0
-0.17805392404238757  0.16284546573584796  0.17999999999999999  0
0.025164118783139424  0.14417027007771852  0.17999999999999999  0
0.1219141228644241  0.15218266743040987  0.17999999999999999  0
-0.066102487743056784  -0.28900376934957911  0.17999999999999999  0
-0.069769600397189671  -0.58596372031991917  0.17999999999999999  0
0.1605676543909334  0.067340223672728086  0.17999999999999999  0
-0.16406915714060635  0.59511426185694549  0.17999999999999999  0
0.070104680863261118  0.2463469917083794  0.17999999999999999  0
-0.11646358399663272  0.27577455549545027  0.17999999999999999  0
0.014944381967182934  0.22725638424085259  0.17999999999999999  0
0.079662329964099388  0.17228663564705707  0.17999999999999999  0
-0.088766351889630765  -0.29215342189051802  0.17999999999999999  0
0.091873231410597639  0.17820383153091243  0.17999999999999999  0
0.12225300245658711  0.14484625504165832  0.17999999999999999  0
0.12215410270995417  -0.14450009128083552  0.17999999999999999  0
0.053309448159399205  0.19768809314536515  0.17999999999999999  0
0.087353206100109229  0.16594930474881658  0.17999999999999999  0
0.064723896439330825  0.17026837346988774  0.17999999999999999  0
0.091624928478863804  -0.19240701936134236  0.17999999999999999  0
0.1057365362302331  -0.18126967271713743  0.17999999999999999  0
0.14150073352276243  0.23372419565720212  0.17999999999999999  0
-0.17756169091889848  -0.15804465402711576  0.17999999999999999  0
-0.0396344705251543  -0.28274094886475365  0.17999999999999999  0
-0.10127494918085048  0.32347688966969174  0.17999999999999999  0
-0.10080435162376739  -0.084861689429509307  0.17999999999999999  0
-0.095421036827956482  0.085299365808181607  0.17999999999999999  0
0.083685754115502553  -0.16344316980365048  0.17999999999999999  0
0.12403969500385215  -0.15129572144476264  0.17999999999999999  0
-0.0066501717765478216  0.33651645207838199  0.17999999999999999  0
-0.16411865081634647  -0.23856116384886503  0.17999999999999999  0
0.10157217817604516  -0.16736510727649426  0.17999999999999999  0
-0.15929106714050922  0.31884026863310255  0.17999999999999999  0
0.037922308183042569  -0.080199186532866493  0.17999999999999999  0
-0.1317728492648812  0.39695901213230828  0.17999999999999999  0
0.049467172816413503  -0.18969120514763538  0.17999999999999999  0
0.030564885709508438  -0.15732567737904624  0.17999999999999999  0
-0.077954106044423668  0.2903920673591876  0.17999999999999999  0
-0.18029650589255367  -0.21934247586830793  0.17999999999999999  0
-0.14325045352763641  -0.5062406281720695  0.17999999999999999  0
-0.03625298989745878  -0.10856559524177557  0.17999999999999999  0
0.069311945842569195  0.15795453952357921  0.17999999999999999  0
0.093450010679719531  0.33714154472429986  0.17999999999999999  0
-0.067675282523739028  -0.031154033066641763  0.17999999999999999  0
-0.17763070537279016  0.22160858012927664  0.17999999999999999  0
-0.055307456926312761  0.27982094257601076  0.17999999999999999  0
-0.18742256299492133  -0.18869620559617672  0.17999999999999999  0
-0.13973952007532525  -0.041265671051678381  0.17999999999999999  0
-0.13852372438787647  0.2767451321615611  0.17999999999999999  0
-0.16683114298021096  -0.5975529815981131  0.17999999999999999  0
-0.01048884594503178  0.11357730390475988  0.17999999999999999  0
0.074788456369760906  -0.16000765250073856  0.17999999999999999  0
0.013887899309495223  0.18877066410224091  0.17999999999999999  0
0.022640208393121527  0.2803090092651187  0.17999999999999999  0
-0.12822026691648275  -0.3918654819626049  0.17999999999999999  0
0.048633445901019472  -0.57202533608135875  0.17999999999999999  0
-0.12318913451339855  0.29641161753477097  0.17999999999999999  0
-0.1904444598401335  0.19191248534837338  0.17999999999999999  0
-0.1384794266013154  -0.096664394270021728  0.17999999999999999  0
-0.17036697477042262  0.25873503339010073  0.17999999999999999  0
0.1259759489318848  -0.16395476438718973  0.17999999999999999  0
0.092526704450114128  -0.17037084015737106  0.17999999999999999  0
0.035012788892232728  0.11559719113987098  0.17999999999999999  0
0.057353949969672906  -0.35319751287368134  0.17999999999999999  0
-0.14818152795549419  0.11201023645328512  0.17999999999999999  0
-0.034050089333216814  0.092039551095693298  0.17999999999999999  0
0.078534760094991038  -0.22609301379834476  0.17999999999999999  0
0.076861277675760314  0.18404876637180997  0.17999999999999999  0
0.11259154542125652  0.17332364455334334  0.17999999999999999  0
0.0029648457173559119  -0.25142481103290187  0.17999999999999999  0
-0.017862565930537918  -0.073687121109549433  0.17999999999999999  0
0.10581993873377091  0.16525465800692332  0.17999999999999999  0
0.065348045526586615  0.57242061114020737  0.17999999999999999  0
-0.11566275761495914  -0.30466658256636436  0.17999999999999999  0
0.13791933734287531  -0.15397200687526275  0.17999999999999999  0
-0.13663268418805929  0.49940547905872423  0.17999999999999999  0
0.12909300205202298  0.46956217908717346  0.17999999999999999  0
0.032826225297991812  -0.22543734772661209  0.17999999999999999  0
0.12853012153734261  -0.14384814640209972  0.17999999999999999  0
0.058545604807578415  0.15176597134042896  0.17999999999999999  0
0.17005794108517436  -0.15347760303828376  0.17999999999999999  0
0.0070759831963691814  0.16053535279509776  0.17999999999999999  0
-0.042744803630555696  -0.315294337160475  0.17999999999999999  0
0.055450203794964889  -0.14724831899757909  0.17999999999999999  0
0.0030001834219597328  0.13706831918393309  0.17999999999999999  0
0.094720254510813104  0.20138934204964223  0.17999999999999999  0
0.13290716349652826  -0.29787678970866188  0.17999999999999999  0
0.12414522789248184  0.1866773015949319  0.17999999999999999  0
0.1153294028666533  0.16144267143965385  0.17999999999999999  0
-0.013676772735833252  0.44404600097258673  0.17999999999999999  0
-0.026003933629209431  0.28192664295517395  0.17999999999999999  0
0.023273143921015343  -0.0075400490646223475  0.17999999999999999  0
0.052922959760273058  -0.16522430626655757  0.17999999999999999  0
0.0030303349771225773  -0.21972640606359353  0.17999999999999999  0
-0.060268782151303039  0.57839263767701699  0.17999999999999999  0
0.11963769032883037  -0.2109379016452243  0.17999999999999999  0
-0.17254497489917142  0.18500696114369156  0.17999999999999999  0
0.037924407476730849  0.16514526888531711  0.17999999999999999  0
-0.049983361223490987  0.047614279596854298  0.17999999999999999  0
-0.044537364582242119  -0.48045615218225629  0.17999999999999999  0
0.10518228394834972  0.18267429957970224  0.17999999999999999  0
0.13872535585322299  -0.41607178359748276  0.17999999999999999  0
0.096738481845108568  0.16694987216970458  0.17999999999999999  0
0.042994932123356366  -0.12496477956971509  0.17999999999999999  0
-0.17435648352862071  -0.200383068220155  0.17999999999999999  0
0.07049356172276218  0.14967440168147136  0.17999999999999999  0
0.10996409006566377  -0.16166138666535651  0.17999999999999999  0
0.17611087178726872  0.13517424065503381  0.17999999999999999  0
0.058145580178069471  0.13322931642629321  0.17999999999999999  0
0.15486108445685084  -0.096550218387214379  0.17999999999999999  0
-0.078049076538647733  -0.32785034651205863  0.17999999999999999  0
-0.062413565011408628  -0.090383563249676016  0.17999999999999999  0
-0.15613772951207486  -0.26293831278072621  0.17999999999999999  0
0.075454239146959354  0.15513657757668495  0.17999999999999999  0
0.12519192567662435  0.16119385274857728  0.17999999999999999  0
0.11950959030876165  -0.17813953780810149  0.17999999999999999  0
-0.01004432736709835  0.25225750014273013  0.17999999999999999  0
-0.10046049600170948  0.28755243316901385  0.17999999999999999  0
0.062259232076153609  -0.13216738670158312  0.17999999999999999  0
0.15019481924076716  -0.60669778820076292  0.17999999999999999  0
0.14221099542676593  0.12330082290794307  0.17999999999999999  0
0.11814360197793601  -0.15658365171581459  0.17999999999999999  0
-0.12572923687704543  0.031808293044676604  0.17999999999999999  0
0.042929075233352793  0.14206864888079798  0.17999999999999999  0
0.17950735351155592  0.39453925756679464  0.17999999999999999  0
0.10246258346698529  0.17335157398160675  0.17999999999999999  0
-0.026745004878992545  -0.37471158929167425  0.17999999999999999  0
0.015610684064765006  0.069285418615287753  0.17999999999999999  0
-0.061616247249049544  0.36258382552463786  0.17999999999999999  0
0.16881878130005279  -0.22129597183156041  0.17999999999999999  0
0.13853387281583054  -0.13158346545784713  0.17999999999999999  0
-0.054785584185023176  0.31238206237263266  0.17999999999999999  0
-0.1298684476775627  0.089371123023689061  0.17999999999999999  0
-0.036080859482938994  0.11381339280320729  0.17999999999999999  0
-0.0014284305552795106  -0.12450756362021527  0.17999999999999999  0
0.13994696986990021  -0.51921230114032257  0.17999999999999999  0
-0.065566300687934023  0.093305348178743294  0.17999999999999999  0
0.15571184577840586  -0.024353796728753898  0.17999999999999999  0
0.11580222448429131  -0.16419314236373803  0.17999999999999999  0
0.063566705663021708  -0.15896185641632896  0.17999999999999999  0
0.066628303779814532  0.14322774840403946  0.17999999999999999  0
0.066712855587828968  -0.14211408713583476  0.17999999999999999  0
-0.032650327001315607  -0.25115359136576376  0.13499999999999951  0
-0.058197016861765101  -0.26590685143576631  0.13499999999999887  0
-0.16063878747787017  -0.2175503870912478  0.13500000000000781  0
-0.092000025744717565  -0.27019507241453988  0.13499999999999873  0
-0.012008074760760309  -0.22394744246433365  0.13499999999999987  0
-0.14658834031406356  -0.24183749933551091  0.13499999999999659  0
-0.12446639034841658  -0.26016162792343411  0.13499999999999832  0
-0.012003569127753203  -0.15606224698196278  0.13499999999999995  0
-0.11902356060154048  -0.11704352445469078  0.13499999999999665  0
-0.085886419857327104  -0.10950488052163326  0.13499999999999782  0
-0.14608859458793516  -0.13757449464935126  0.13500000000000098  0
-0.03257645489273938  -0.12890972320911445  0.13499999999999998  0
-0.16060614354684766  -0.16236015452334313  0.13499999999999152  0
-0.057470620553910466  -0.11435356408056475  0.13499999999999956  0
Triangles
1848
55 61 62  1
3 2 65  1
54 60 61  1
61 55 54  1
54 59 60  1
63 56 55  1
53 57 58  1
57 53 1  1
59 53 58  1
65 56 64  1
57 1 4  1
55 62 63  1
56 63 64  1
53 59 54  1
56 65 2  1
72 8 78  2
8 72 6  2
68 75 74  2
71 77 70  2
75 68 69  2
78 71 72  2
69 76 75  2
66 7 5  2
67 73 66  2
68 74 67  2
76 69 70  2
73 67 74  2
7 66 73  2
77 71 78  2
70 77 76  2
9 6 10  3
10 6 8  3
9 11 10  4
10 11 12  4
466 470 462  5
89 463 90  5
97 472 98  5
89 466 463  5
15 468 99  5
472 468 15  5
467 82 14  5
466 89 88  5
462 473 461  5
465 86 85  5
464 462 461  5
463 466 462  5
92 464 93  5
83 467 465  5
469 94 464  5
94 469 95  5
473 462 470  5
469 464 461  5
81 467 14  5
473 81 471  5
472 97 469  5
79 471 80  5
16 79 13  5
79 16 100  5
462 464 463  5
467 83 82  5
86 466 87  5
468 473 471  5
463 92 91  5
91 90 463  5
464 94 93  5
464 92 463  5
465 85 84  5
84 83 465  5
466 88 87  5
466 86 465  5
467 81 473  5
461 473 468  5
471 81 80  5
468 472 461  5
469 97 96  5
96 95 469  5
470 466 465  5
465 467 470  5
471 100 99  5
99 468 471  5
15 98 472  5
472 469 461  5
470 467 473  5
79 100 471  5
80 101 102  6
17 79 13  6
102 81 80  6
101 80 79  6
103 102 18  6
102 103 81  6
14 81 103  6
79 17 101  6
111 479 112  7
478 115 476  7
108 480 477  7
477 110 109  7
84 480 475  7
106 480 107  7
480 86 477  7
479 110 477  7
113 476 114  7
82 475 103  7
18 103 104  7
86 480 85  7
110 479 111  7
480 108 107  7
84 475 83  7
104 475 105  7
88 479 477  7
108 477 109  7
475 104 103  7
103 14 82  7
117 478 474  7
113 479 476  7
115 478 116  7
93 476 92  7
117 474 118  7
118 474 119  7
474 98 121  7
120 121 19  7
120 474 121  7
91 479 90  7
93 478 476  7
479 91 476  7
479 113 112  7
121 98 15  7
474 95 96  7
95 478 94  7
98 474 97  7
478 93 94  7
96 97 474  7
474 120 119  7
106 105 475  7
475 82 83  7
91 92 476  7
476 115 114  7
477 86 87  7
87 88 477  7
478 95 474  7
478 117 116  7
479 88 89  7
89 90 479  7
480 106 475  7
480 84 85  7
70 126 71  8
125 69 124  8
71 19 72  8
19 9 72  8
121 99 9  8
9 6 72  8
99 121 15  8
100 9 99  8
9 19 121  8
100 11 9  8
11 100 16  8
126 70 125  8
69 125 70  8
124 69 68  8
124 68 123  8
19 71 126  8
123 68 67  8
66 20 122  8
123 67 122  8
20 66 5  8
122 67 66  8
20 5 21  9
21 5 7  9
22 3 23  10
23 3 2  10
62 132 133  11
127 4 24  11
62 133 63  11
58 128 59  11
64 134 65  11
60 131 61  11
132 61 131  11
131 60 130  11
22 65 135  11
135 65 134  11
65 22 3  11
129 59 128  11
134 64 133  11
133 64 63  11
128 58 127  11
129 60 59  11
60 129 130  11
4 127 57  11
61 132 62  11
127 58 57  11
24 4 25  12
25 4 1  12
485 143 483  13
161 485 483  13
484 145 146  13
486 154 171  13
139 487 486  13
139 486 138  13
486 156 155  13
487 141 485  13
141 487 140  13
159 485 160  13
136 486 171  13
143 485 142  13
487 157 486  13
136 171 26  13
171 154 29  13
154 486 155  13
159 487 485  13
486 157 156  13
157 487 158  13
161 483 162  13
482 152 153  13
484 146 147  13
166 484 481  13
163 484 164  13
484 163 483  13
166 481 167  13
168 482 169  13
170 482 153  13
170 153 28  13
150 482 481  13
483 163 162  13
145 484 483  13
152 482 151  13
481 168 167  13
484 148 481  13
27 153 152  13
482 168 481  13
150 481 149  13
148 484 147  13
148 149 481  13
482 150 151  13
482 170 169  13
483 143 144  13
144 145 483  13
484 166 165  13
165 164 484  13
485 161 160  13
485 141 142  13
486 136 137  13
137 138 486  13
487 139 140  13
487 159 158  13
195 492 491  14
176 493 491  14
494 200 488  14
28 153 172  14
489 174 173  14
176 491 177  14
191 493 489  14
178 492 179  14
153 27 189  14
189 489 153  14
489 172 153  14
193 493 192  14
493 174 489  14
174 493 175  14
172 489 173  14
492 178 491  14
493 193 491  14
195 491 194  14
492 196 197  14
183 488 184  14
181 494 182  14
183 494 488  14
188 171 29  14
186 490 187  14
490 185 488  14
185 490 186  14
490 205 171  14
188 490 171  14
198 494 492  14
200 494 199  14
494 198 199  14
198 492 197  14
492 195 196  14
490 202 203  14
171 205 26  14
205 490 204  14
202 488 201  14
202 490 488  14
185 184 488  14
488 200 201  14
489 189 190  14
190 191 489  14
203 204 490  14
490 188 187  14
178 177 491  14
491 193 194  14
492 181 180  14
180 179 492  14
493 176 175  14
493 191 192  14
494 183 182  14
494 181 492  14
208 210 207  15
208 33 209  15
210 206 207  15
33 208 31  15
210 208 209  15
32 206 211  15
206 32 30  15
206 210 211  15
230 220 231  16
76 496 77  16
56 23 2  16
219 230 229  16
10 224 34  16
10 496 224  16
23 56 215  16
12 10 34  16
8 78 10  16
223 75 222  16
222 75 74  16
231 221 21  16
77 496 78  16
7 21 73  16
230 219 220  16
76 223 496  16
218 229 228  16
219 229 218  16
75 223 76  16
497 74 73  16
21 497 73  16
221 231 220  16
217 226 216  16
216 225 215  16
218 227 217  16
214 55 213  16
30 25 32  16
25 53 1  16
227 218 228  16
226 217 227  16
225 216 226  16
23 215 225  16
495 54 53  16
215 56 214  16
53 25 495  16
55 214 56  16
54 495 213  16
213 55 54  16
25 30 212  16
495 25 212  16
212 213 495  16
223 224 496  16
496 10 78  16
497 21 221  16
221 222 497  16
222 74 497  16
236 233 235  17
232 36 35  17
235 13 234  17
36 232 236  17
233 236 232  17
13 235 233  17
16 34 234  17
16 11 12  17
16 234 13  17
12 34 16  17
13 233 17  17
246 262 263  18
248 265 266  18
259 241 258  18
266 249 248  18
246 264 247  18
250 267 251  18
253 269 270  18
266 250 249  18
270 35 253  18
250 266 267  18
262 246 245  18
268 251 267  18
269 251 268  18
251 269 252  18
35 270 36  18
261 243 260  18
248 264 265  18
264 248 247  18
264 246 263  18
241 259 242  18
245 261 262  18
258 241 257  18
269 253 252  18
254 237 33  18
257 240 256  18
260 242 259  18
254 33 31  18
237 254 255  18
243 261 244  18
255 238 237  18
261 245 244  18
242 260 243  18
240 257 241  18
238 255 256  18
238 256 239  18
256 240 239  18
292 508 502  19
37 271 294  19
499 501 500  19
292 502 291  19
285 502 500  19
499 504 281  19
505 506 498  19
271 507 294  19
273 507 272  19
505 507 506  19
498 508 505  19
40 291 283  19
283 502 284  19
500 288 287  19
500 508 499  19
508 498 499  19
501 280 279  19
280 501 499  19
279 39 290  19
290 501 279  19
503 275 276  19
504 499 498  19
275 506 274  19
278 503 277  19
507 273 506  19
282 278 38  19
506 275 503  19
282 504 503  19
499 281 280  19
288 501 289  19
500 287 286  19
286 285 500  19
501 290 289  19
501 288 500  19
502 285 284  19
502 283 291  19
503 276 277  19
503 278 282  19
498 503 504  19
504 282 281  19
505 292 293  19
293 294 505  19
273 274 506  19
506 503 498  19
507 505 294  19
507 271 272  19
508 500 502  19
508 292 505  19
311 515 312  20
512 300 301  20
515 516 298  20
303 514 302  20
514 510 512  20
510 42 314  20
509 279 295  20
306 510 305  20
295 513 509  20
302 512 301  20
41 303 302  20
312 512 313  20
512 515 300  20
515 298 299  20
42 510 306  20
279 509 280  20
516 513 297  20
295 279 39  20
307 513 308  20
513 309 308  20
297 513 296  20
310 515 311  20
511 38 282  20
516 515 310  20
513 516 309  20
38 511 307  20
509 513 511  20
509 281 280  20
305 514 304  20
314 512 510  20
511 282 281  20
281 509 511  20
514 305 510  20
512 314 313  20
513 307 511  20
513 295 296  20
512 302 514  20
514 303 304  20
299 300 515  20
515 512 312  20
297 298 516  20
516 310 309  20
526 520 524  21
527 519 306  21
520 304 519  21
523 525 333  21
306 519 305  21
323 527 306  21
518 522 517  21
517 522 519  21
306 42 323  21
523 333 334  21
317 526 524  21
315 526 316  21
41 303 315  21
317 524 318  21
517 325 326  21
43 322 334  21
522 518 521  21
318 524 319  21
322 523 334  21
523 322 321  21
331 521 518  21
329 518 328  21
327 518 517  21
330 518 329  21
325 527 324  21
330 44 331  21
304 526 303  21
517 326 327  21
518 327 328  21
518 330 331  21
304 305 519  21
519 527 517  21
332 525 521  21
320 524 523  21
521 331 332  21
521 525 522  21
525 524 520  21
520 519 522  21
523 321 320  21
524 525 523  21
524 320 319  21
526 304 520  21
520 522 525  21
525 332 333  21
526 317 316  21
526 315 303  21
527 323 324  21
527 325 517  21
535 339 533  22
44 335 331  22
345 538 534  22
536 532 537  22
349 531 530  22
529 538 344  22
333 537 531  22
335 528 331  22
535 533 532  22
528 335 336  22
349 530 350  22
43 334 347  22
347 531 348  22
537 532 538  22
530 538 529  22
530 352 351  22
529 354 353  22
343 529 344  22
343 46 354  22
354 529 343  22
533 339 340  22
533 340 341  22
339 535 338  22
342 533 341  22
337 535 528  22
346 342 45  22
331 536 332  22
528 336 337  22
529 353 352  22
352 530 529  22
530 351 350  22
333 531 334  22
531 349 348  22
531 347 334  22
536 535 532  22
346 534 533  22
533 342 346  22
534 346 345  22
534 538 532  22
532 533 534  22
535 536 528  22
535 337 338  22
536 333 332  22
536 331 528  22
537 530 531  22
537 333 536  22
538 345 344  22
538 530 537  22
540 541 373  23
355 544 356  23
369 544 368  23
362 539 363  23
368 544 367  23
371 541 545  23
357 545 358  23
346 543 345  23
346 45 366  23
545 370 371  23
544 355 542  23
544 545 357  23
343 542 355  23
544 542 543  23
355 46 343  23
542 345 543  23
362 47 361  23
361 541 539  23
539 364 363  23
359 541 360  23
365 540 374  23
545 369 370  23
364 539 540  23
545 544 369  23
541 371 372  23
374 48 365  23
539 362 361  23
541 540 539  23
540 373 374  23
540 365 364  23
541 361 360  23
541 372 373  23
542 343 344  23
367 543 366  23
345 542 344  23
543 346 366  23
543 367 544  23
544 357 356  23
545 541 359  23
359 358 545  23
546 551 548  24
549 383 384  24
546 380 379  24
292 556 548  24
554 548 551  24
383 549 365  24
548 554 552  24
363 553 551  24
365 48 383  24
380 556 381  24
377 547 546  24
375 547 376  24
47 362 375  24
377 546 378  24
555 387 550  24
40 382 291  24
550 387 388  24
292 548 293  24
382 556 291  24
556 292 291  24
555 553 549  24
389 550 388  24
387 555 386  24
390 550 389  24
385 555 549  24
390 37 294  24
546 379 378  24
363 547 362  24
547 377 376  24
547 375 362  24
294 552 550  24
548 556 546  24
365 553 364  24
549 384 385  24
550 390 294  24
553 555 554  24
551 546 547  24
547 363 551  24
552 294 293  24
293 548 552  24
553 363 364  24
553 365 549  24
551 553 554  24
554 550 552  24
555 385 386  24
555 550 554  24
556 382 381  24
556 380 546  24
585 739 738  25
252 700 610  25
677 412 654  25
688 420 419  25
145 726 146  25
657 568 591  25
619 690 390  25
151 587 152  25
48 699 383  25
33 567 209  25
567 33 237  25
635 581 228  25
616 672 594  25
368 581 369  25
600 338 337  25
368 613 581  25
713 311 310  25
622 688 630  25
700 35 232  25
406 640 590  25
35 700 253  25
246 704 245  25
250 702 670  25
199 602 577  25
108 566 107  25
122 561 123  25
614 641 231  25
420 622 421  25
122 712 561  25
323 676 324  25
561 668 594  25
622 723 693  25
601 312 578  25
710 674 601  25
396 675 605  25
692 197 196  25
692 602 197  25
400 666 401  25
397 396 605  25
197 602 198  25
50 407 590  25
685 734 715  25
686 401 666  25
404 640 405  25
247 607 246  25
640 247 590  25
406 590 407  25
677 414 413  25
249 670 654  25
247 648 590  25
654 410 698  25
698 410 409  25
412 411 654  25
414 677 655  25
408 698 409  25
410 654 411  25
401 686 402  25
248 698 648  25
146 695 147  25
569 644 243  25
637 569 244  25
194 728 195  25
706 194 193  25
706 728 194  25
644 587 243  25
191 644 569  25
191 569 192  25
241 593 240  25
689 150 149  25
150 689 570  25
695 148 147  25
148 689 149  25
243 587 242  25
644 27 587  25
587 151 570  25
587 570 242  25
148 695 689  25
570 151 150  25
589 696 562  25
638 732 653  25
127 24 729  25
732 129 128  25
683 571 137  25
680 22 135  25
142 583 143  25
143 687 144  25
720 278 277  25
603 629 612  25
658 557 599  25
557 273 272  25
626 129 732  25
687 726 145  25
134 730 680  25
626 131 130  25
577 717 663  25
713 312 311  25
200 617 201  25
602 692 685  25
617 200 577  25
309 713 310  25
704 685 715  25
201 617 202  25
308 307 679  25
669 272 271  25
678 694 642  25
669 690 665  25
139 731 140  25
571 683 650  25
273 658 274  25
141 731 562  25
714 38 721  25
708 568 683  25
683 137 136  25
575 691 597  25
276 720 277  25
203 727 629  25
617 727 202  25
278 721 38  25
721 278 720  25
24 32 211  25
32 24 25  25
732 128 729  25
680 135 134  25
387 678 388  25
131 730 132  25
730 134 133  25
657 680 664  25
707 580 639  25
23 22 225  25
37 669 271  25
609 673 225  25
731 139 571  25
571 735 731  25
227 635 228  25
384 699 565  25
384 565 385  25
388 678 619  25
372 635 580  25
372 580 373  25
385 694 386  25
642 623 636  25
699 48 558  25
20 21 231  25
693 422 622  25
111 660 633  25
126 117 118  25
710 392 647  25
49 647 391  25
733 340 671  25
615 737 736  25
684 737 615  25
705 366 701  25
723 622 611  25
585 684 564  25
613 368 367  25
581 370 369  25
313 601 314  25
581 635 370  25
370 635 371  25
588 641 592  25
674 314 601  25
49 661 647  25
600 645 628  25
336 600 337  25
329 574 330  25
645 336 335  25
573 323 42  25
620 327 563  25
684 628 592  25
736 733 615  25
624 582 634  25
327 620 328  25
329 620 574  25
676 563 325  25
647 392 391  25
563 676 625  25
325 563 326  25
398 605 559  25
559 605 578  25
414 655 415  25
416 655 627  25
17 595 233  25
252 610 251  25
417 416 627  25
722 18 719  25
688 622 420  25
595 604 572  25
233 595 572  25
566 631 586  25
719 104 659  25
688 419 418  25
566 672 631  25
126 116 117  25
374 580 632  25
114 697 113  25
660 113 697  25
660 111 112  25
115 697 114  25
633 660 584  25
566 633 584  25
126 118 119  25
667 123 561  25
116 697 115  25
120 126 119  25
19 126 120  25
272 669 557  25
137 571 138  25
725 209 567  25
227 639 580  25
400 716 666  25
399 398 559  25
643 237 238  25
687 143 583  25
109 566 108  25
123 667 124  25
696 687 583  25
141 583 142  25
327 326 563  25
392 710 393  25
231 641 20  25
338 600 579  25
580 707 632  25
387 694 678  25
106 586 105  25
107 586 106  25
209 725 210  25
237 643 567  25
691 720 662  25
591 636 609  25
243 244 569  25
192 706 193  25
593 682 560  25
241 242 570  25
735 589 562  25
571 139 138  25
572 232 233  25
595 722 604  25
42 314 573  25
394 710 675  25
424 693 661  25
574 44 330  25
205 603 26  25
721 720 575  25
591 621 576  25
388 619 389  25
200 199 577  25
717 309 679  25
312 601 313  25
312 713 578  25
339 671 340  25
339 338 579  25
374 373 580  25
697 116 126  25
613 367 366  25
229 228 581  25
709 608 703  25
676 323 573  25
583 141 562  25
696 560 687  25
111 633 110  25
124 667 606  25
625 608 563  25
366 705 613  25
104 719 18  25
586 107 566  25
27 644 189  25
27 152 587  25
561 712 611  25
628 651 592  25
638 589 626  25
593 649 598  25
247 640 607  25
50 648 408  25
673 639 226  25
568 657 650  25
651 703 588  25
641 712 20  25
598 240 593  25
240 598 239  25
251 702 250  25
672 667 561  25
595 17 101  25
101 102 595  25
105 586 659  25
604 631 616  25
205 629 603  25
612 718 597  25
725 653 210  25
239 643 238  25
658 273 557  25
652 669 621  25
628 684 600  25
684 615 579  25
394 675 395  25
314 674 573  25
602 199 198  25
578 704 559  25
679 727 663  25
603 136 26  25
572 616 610  25
722 719 596  25
605 675 578  25
605 398 397  25
697 126 125  25
125 124 606  25
607 404 403  25
403 686 607  25
563 709 620  25
608 625 582  25
225 22 609  25
609 657 591  25
700 252 253  25
594 610 616  25
712 723 611  25
422 693 423  25
691 662 724  25
612 708 603  25
230 739 614  25
581 656 229  25
585 564 614  25
614 231 230  25
671 579 615  25
671 339 579  25
616 572 604  25
672 561 594  25
679 307 714  25
202 727 203  25
703 661 588  25
608 582 618  25
690 669 37  25
390 389 619  25
574 709 651  25
620 329 328  25
621 591 568  25
557 652 599  25
422 421 622  25
622 630 611  25
623 673 636  25
623 565 558  25
710 601 675  25
624 618 582  25
656 613 705  25
625 634 582  25
129 626 130  25
589 638 598  25
702 668 681  25
627 418 417  25
645 600 336  25
574 645 44  25
629 205 204  25
204 203 629  25
668 611 630  25
668 561 611  25
631 604 596  25
631 659 586  25
632 707 558  25
48 632 558  25
109 110 633  25
633 566 109  25
634 676 573  25
674 710 624  25
635 227 580  25
635 372 371  25
636 591 576  25
623 642 565  25
244 715 637  25
195 692 196  25
210 653 211  25
598 638 643  25
639 227 226  25
673 707 639  25
640 406 405  25
640 404 607  25
641 614 564  25
564 592 641  25
636 576 642  25
694 385 565  25
632 48 374  25
643 239 598  25
644 191 190  25
190 189 644  25
335 44 645  25
645 574 628  25
593 241 646  25
241 570 646  25
647 661 618  25
618 624 647  25
648 50 590  25
648 247 248  25
589 598 649  25
649 593 560  25
708 652 568  25
22 680 657  25
588 592 651  25
651 628 574  25
621 568 652  25
652 708 599  25
211 729 24  25
653 725 638  25
654 248 249  25
412 677 413  25
681 688 627  25
655 416 415  25
230 229 656  25
656 581 613  25
657 609 22  25
650 735 571  25
275 662 276  25
275 274 658  25
659 631 596  25
659 104 105  25
606 660 697  25
660 667 584  25
661 703 618  25
661 49 424  25
662 275 658  25
658 724 662  25
617 577 663  25
309 717 713  25
650 657 664  25
589 730 626  25
665 678 576  25
576 621 665  25
704 607 686  25
559 666 716  25
667 672 584  25
667 660 606  25
668 688 681  25
594 702 610  25
665 621 669  25
669 652 557  25
670 249 250  25
681 627 655  25
341 736 342  25
340 733 341  25
672 616 631  25
672 566 584  25
226 225 673  25
673 609 636  25
674 624 634  25
634 573 674  25
601 578 675  25
675 396 395  25
676 634 625  25
676 325 324  25
677 654 670  25
677 711 655  25
642 576 678  25
678 665 619  25
727 617 663  25
679 309 308  25
730 133 132  25
680 589 664  25
681 655 711  25
668 702 594  25
726 687 560  25
682 593 646  25
136 603 683  25
683 568 650  25
579 600 684  25
684 592 564  25
602 717 577  25
559 704 666  25
704 246 607  25
686 403 402  25
560 696 649  25
687 145 144  25
418 627 688  25
688 668 630  25
646 695 682  25
646 570 689  25
37 390 690  25
690 619 665  25
691 708 612  25
612 597 691  25
728 706 637  25
685 578 713  25
661 723 588  25
693 424 423  25
565 642 694  25
694 387 386  25
695 726 682  25
695 646 689  25
583 562 696  25
696 589 649  25
113 660 112  25
697 125 606  25
698 408 648  25
698 248 654  25
558 565 699  25
699 384 383  25
700 232 572  25
572 610 700  25
701 366 45  25
45 736 701  25
702 711 670  25
702 251 610  25
709 563 608  25
608 618 703  25
715 244 245  25
704 686 666  25
738 737 585  25
739 585 614  25
706 192 569  25
569 637 706  25
707 673 623  25
623 558 707  25
683 603 708  25
708 724 599  25
703 651 709  25
709 574 620  25
710 394 393  25
710 647 624  25
711 677 670  25
711 702 681  25
712 122 20  25
712 641 588  25
685 713 717  25
578 685 704  25
714 575 597  25
714 718 679  25
637 734 728  25
715 245 704  25
716 400 399  25
399 559 716  25
717 679 663  25
717 602 685  25
718 714 597  25
718 612 629  25
18 722 102  25
719 659 596  25
720 276 662  25
720 691 575  25
575 714 721  25
38 714 307  25
596 604 722  25
722 595 102  25
723 712 588  25
723 661 693  25
724 658 599  25
724 708 691  25
725 567 643  25
643 638 725  25
560 682 726  25
726 695 146  25
727 679 718  25
718 629 727  25
734 637 715  25
692 195 728  25
729 211 653  25
729 128 127  25
730 131 626  25
730 589 680  25
735 650 664  25
731 141 140  25
729 653 732  25
732 638 626  25
671 615 733  25
733 736 341  25
692 728 734  25
734 685 692  25
589 735 664  25
562 731 735  25
737 684 585  25
736 45 342  25
737 738 701  25
701 736 737  25
738 739 705  25
705 701 738  25
739 230 656  25
656 705 739  25
756 317 316  26
177 897 178  26
174 766 747  26
747 766 260  26
257 799 256  26
853 378 768  26
783 832 781  26
182 898 183  26
801 754 800  26
771 902 218  26
754 842 800  26
869 52 811  26
452 788 453  26
268 819 267  26
269 814 804  26
36 814 270  26
902 356 874  26
441 811 52  26
769 451 450  26
769 452 451  26
788 452 769  26
777 450 449  26
453 788 740  26
455 834 456  26
851 831 765  26
898 182 830  26
856 863 808  26
899 429 428  26
431 876 432  26
790 876 808  26
425 741 426  26
427 899 428  26
829 177 176  26
178 897 791  26
179 791 180  26
435 823 436  26
746 823 759  26
437 823 746  26
746 439 438  26
439 787 440  26
787 439 746  26
446 745 447  26
803 795 443  26
744 877 762  26
811 441 787  26
264 811 787  26
795 445 444  26
445 877 446  26
745 446 877  26
266 762 265  26
450 777 769  26
437 746 438  26
795 877 445  26
262 887 757  26
174 747 175  26
178 791 179  26
897 177 829  26
790 435 434  26
809 170 169  26
822 809 259  26
766 174 173  26
861 172 28  26
766 173 172  26
809 169 168  26
170 809 822  26
168 824 809  26
824 168 167  26
824 166 813  26
797 799 257  26
166 824 167  26
774 813 165  26
775 773 818  26
161 810 802  26
159 810 160  26
31 772 208  26
772 31 254  26
837 212 206  26
846 862 817  26
154 775 155  26
156 155 775  26
810 161 160  26
158 881 855  26
159 855 810  26
207 859 837  26
774 882 821  26
255 840 772  26
882 162 802  26
798 856 835  26
901 863 830  26
182 901 830  26
433 876 790  26
892 863 856  26
892 856 297  26
846 849 767  26
873 295 39  26
781 862 783  26
300 856 798  26
297 856 298  26
185 849 186  26
749 782 776  26
817 775 154  26
380 853 836  26
286 878 287  26
751 852 743  26
867 382 836  26
778 776 782  26
836 890 867  26
283 867 782  26
290 905 39  26
905 290 870  26
775 817 781  26
827 892 296  26
878 749 806  26
288 870 289  26
849 185 815  26
827 296 295  26
807 854 794  26
215 807 786  26
30 206 212  26
807 773 786  26
212 841 213  26
302 798 868  26
768 879 853  26
902 771 359  26
771 218 217  26
768 764 753  26
751 879 753  26
376 768 377  26
771 885 361  26
885 771 872  26
764 885 758  26
742 845 839  26
793 843 780  26
866 900 223  26
269 804 268  26
349 871 350  26
895 839 845  26
356 902 357  26
353 793 780  26
219 902 874  26
902 359 358  26
353 780 354  26
843 793 839  26
458 754 51  26
858 754 458  26
352 886 793  26
754 858 842  26
348 871 349  26
826 43 322  26
43 826 796  26
760 796 785  26
752 763 748  26
350 886 351  26
886 352 351  26
429 899 805  26
763 904 857  26
883 302 868  26
315 756 316  26
317 816 318  26
425 754 741  26
816 752 792  26
319 792 320  26
876 805 835  26
429 805 430  26
819 891 875  26
820 770 235  26
456 858 457  26
820 900 761  26
34 884 234  26
740 455 454  26
454 453 740  26
906 41 883  26
741 427 426  26
755 834 740  26
221 894 851  26
853 833 836  26
380 836 381  26
266 267 744  26
838 449 448  26
449 838 777  26
448 447 745  26
263 759 262  26
263 264 746  26
260 261 747  26
175 829 176  26
860 784 831  26
826 784 785  26
749 286 285  26
285 782 749  26
216 872 217  26
216 786 750  26
768 779 764  26
872 216 750  26
826 321 792  26
752 816 763  26
751 758 750  26
762 266 744  26
754 425 51  26
858 456 834  26
769 875 847  26
755 828 765  26
816 756 904  26
800 857 801  26
757 747 261  26
261 262 757  26
885 764 47  26
758 751 753  26
759 263 746  26
823 812 759  26
784 826 752  26
348 796 760  26
235 770 236  26
224 900 884  26
779 376 375  26
762 803 265  26
754 801 741  26
816 317 756  26
758 753 764  26
779 768 376  26
851 866 222  26
784 752 748  26
172 861 766  26
260 822 259  26
186 846 187  26
295 873 827  26
378 853 379  26
378 377 768  26
838 448 745  26
891 755 847  26
814 269 270  26
820 864 770  26
771 361 360  26
360 359 771  26
208 859 207  26
772 254 255  26
855 159 158  26
852 751 750  26
774 165 164  26
164 163 774  26
776 783 749  26
156 881 157  26
782 285 284  26
833 853 743  26
838 745 744  26
847 788 769  26
850 832 778  26
832 783 776  26
375 47 779  26
47 764 779  26
46 354 780  26
871 348 760  26
850 781 832  26
773 775 781  26
782 284 283  26
782 867 778  26
783 862 844  26
878 286 749  26
748 831 784  26
765 842 834  26
860 880 785  26
760 903 871  26
786 216 215  26
807 818 773  26
746 264 787  26
787 441 440  26
788 847 755  26
755 740 788  26
840 256 799  26
162 882 163  26
812 790 808  26
790 434 433  26
887 808 863  26
180 901 181  26
321 826 322  26
321 320 792  26
780 843 46  26
793 353 352  26
889 215 214  26
799 797 789  26
444 443 795  26
795 803 762  26
796 348 347  26
347 43 796  26
821 813 774  26
797 257 258  26
798 302 301  26
301 300 798  26
789 893 799  26
840 255 256  26
800 831 748  26
748 763 800  26
848 904 756  26
899 427 741  26
789 896 893  26
802 162 161  26
443 442 803  26
265 811 264  26
804 814 770  26
770 864 804  26
431 430 805  26
899 835 805  26
806 749 783  26
783 844 806  26
215 889 807  26
799 854 840  26
812 823 790  26
835 899 798  26
258 824 797  26
259 824 258  26
896 794 893  26
896 789 802  26
811 265 803  26
52 869 442  26
887 863 791  26
812 262 759  26
166 165 813  26
813 821 797  26
814 36 236  26
236 770 814  26
815 185 184  26
815 898 830  26
816 792 319  26
319 318 816  26
817 154 29  26
29 188 817  26
818 807 794  26
881 156 775  26
819 744 267  26
819 268 804  26
235 234 820  26
900 866 761  26
789 882 802  26
789 797 821  26
822 260 766  26
170 861 28  26
823 437 436  26
823 435 790  26
813 797 824  26
824 259 809  26
880 760 785  26
825 839 793  26
826 792 752  26
826 785 796  26
888 827 873  26
827 849 815  26
828 891 761  26
866 851 828  26
829 175 747  26
747 757 829  26
863 901 791  26
892 827 815  26
894 742 860  26
860 785 784  26
776 778 832  26
781 850 773  26
852 865 833  26
865 890 833  26
834 455 740  26
834 755 765  26
835 856 808  26
876 431 805  26
382 867 40  26
382 381 836  26
206 207 837  26
854 807 841  26
744 819 838  26
875 769 777  26
839 825 742  26
839 895 843  26
854 841 837  26
859 854 837  26
213 889 214  26
841 212 837  26
842 765 831  26
831 800 842  26
355 895 874  26
46 895 355  26
870 878 806  26
862 846 767  26
845 894 220  26
220 219 845  26
846 817 188  26
188 187 846  26
875 777 838  26
755 891 828  26
848 906 883  26
801 899 741  26
849 827 767  26
849 846 186  26
786 852 750  26
786 773 850  26
765 828 851  26
851 222 221  26
852 786 850  26
852 833 743  26
853 380 379  26
879 768 753  26
854 859 840  26
794 896 855  26
855 881 818  26
818 794 855  26
856 300 299  26
299 298 856  26
848 801 857  26
857 800 763  26
458 457 858  26
858 834 842  26
859 208 772  26
772 840 859  26
831 851 860  26
894 845 742  26
861 170 822  26
822 766 861  26
862 888 844  26
862 781 817  26
808 887 812  26
863 892 830  26
819 804 864  26
864 820 761  26
865 852 850  26
850 778 865  26
828 761 866  26
866 223 222  26
890 836 833  26
867 283 40  26
868 801 848  26
302 883 41  26
811 803 869  26
803 442 869  26
290 289 870  26
870 806 844  26
903 350 871  26
886 350 903  26
771 217 872  26
872 750 758  26
844 905 870  26
827 888 767  26
356 355 874  26
874 845 219  26
838 819 875  26
875 891 847  26
835 808 876  26
876 433 432  26
877 795 762  26
877 744 745  26
878 870 288  26
288 287 878  26
879 751 743  26
743 853 879  26
880 860 742  26
742 825 880  26
775 818 881  26
881 158 157  26
882 789 821  26
882 774 163  26
868 848 883  26
41 906 315  26
820 234 884  26
884 34 224  26
872 758 885  26
885 47 361  26
886 903 825  26
825 793 886  26
887 897 757  26
887 262 812  26
873 844 888  26
888 862 767  26
889 213 841  26
841 807 889  26
890 865 778  26
778 867 890  26
891 819 864  26
864 761 891  26
297 296 892  26
892 815 830  26
794 854 893  26
854 799 893  26
860 851 894  26
894 221 220  26
845 874 895  26
895 46 843  26
896 802 810  26
810 855 896  26
829 757 897  26
897 887 791  26
898 815 184  26
184 183 898  26
899 801 868  26
868 798 899  26
900 820 884  26
900 224 223  26
901 182 181  26
901 180 791  26
358 357 902  26
902 219 218  26
903 760 880  26
880 825 903  26
904 848 857  26
904 763 816  26
905 844 873  26
873 39 905  26
906 848 756  26
756 315 906  26
453 907 454  27
446 913 447  27
414 913 413  27
410 912 909  27
909 444 443  27
909 442 459  27
448 913 910  27
913 446 912  27
908 453 452  27
52 459 442  27
412 913 912  27
912 444 909  27
444 912 445  27
442 909 443  27
913 412 413  27
448 910 449  27
412 912 411  27
459 50 408  27
455 911 456  27
453 908 907  27
910 415 416  27
451 910 908  27
908 419 907  27
458 460 51  27
456 911 457  27
911 455 907  27
911 424 460  27
458 911 460  27
408 909 459  27
419 908 418  27
910 414 415  27
451 908 452  27
910 417 908  27
911 421 422  27
460 424 49  27
424 911 423  27
421 907 420  27
421 911 907  27
455 454 907  27
907 419 420  27
417 910 416  27
417 418 908  27
909 408 409  27
409 410 909  27
910 451 450  27
450 449 910  27
422 423 911  27
911 458 457  27
446 445 912  27
912 410 411  27
913 414 910  27
913 448 447  27
920 432 431  28
432 920 916  28
915 400 401  28
914 425 460  28
394 918 914  28
394 914 393  28
914 427 426  28
396 918 395  28
396 920 918  28
920 430 918  28
391 914 460  28
398 920 397  28
918 430 429  28
391 460 49  28
460 425 51  28
425 914 426  28
430 920 431  28
914 428 427  28
428 918 429  28
432 916 433  28
919 407 459  28
915 401 402  28
437 917 438  28
434 916 915  28
434 915 435  28
917 437 915  28
439 919 440  28
441 919 459  28
441 459 52  28
405 919 917  28
916 400 915  28
400 916 399  28
407 919 406  28
403 917 915  28
403 915 402  28
50 459 407  28
919 405 406  28
405 917 404  28
914 391 392  28
392 393 914  28
915 437 436  28
436 435 915  28
916 434 433  28
916 398 399  28
917 403 404  28
917 439 438  28
918 428 914  28
918 394 395  28
919 441 440  28
919 439 917  28
920 396 397  28
920 398 916  28
Edges
486
1 53  1
53 54  1
54 55  1
55 56  1
56 2  1
3 2  2
4 57  3
57 58  3
58 59  3
59 60  3
60 61  3
61 62  3
62 63  3
63 64  3
64 65  3
65 3  3
1 4  4
5 66  5
66 67  5
67 68  5
68 69  5
69 70  5
70 71  5
71 72  5
72 6  5
7 5  6
7 73  7
73 74  7
74 75  7
75 76  7
76 77  7
77 78  7
78 8  7
6 8  8
6 9  9
8 10  10
9 10  11
9 11  12
10 12  13
11 12  14
13 79  15
79 80  15
80 81  15
81 14  15
14 82  16
82 83  16
83 84  16
84 85  16
85 86  16
86 87  16
87 88  16
88 89  16
89 90  16
90 91  16
91 92  16
92 93  16
93 94  16
94 95  16
95 96  16
96 97  16
97 98  16
98 15  16
15 99  17
99 100  17
100 16  17
13 16  18
17 101  19
101 102  19
102 18  19
18 103  20
103 14  20
13 17  21
18 104  22
104 105  22
105 106  22
106 107  22
107 108  22
108 109  22
109 110  22
110 111  22
111 112  22
112 113  22
113 114  22
114 115  22
115 116  22
116 117  22
117 118  22
118 119  22
119 120  22
120 19  22
19 121  23
121 15  23
20 122  24
122 123  24
123 124  24
124 125  24
125 126  24
126 19  24
5 20  25
16 11  26
21 20  27
7 21  28
22 23  29
3 22  30
2 23  31
24 127  32
127 128  32
128 129  32
129 130  32
130 131  32
131 132  32
132 133  32
133 134  32
134 135  32
135 22  32
4 24  33
25 24  34
1 25  35
26 136  36
136 137  36
137 138  36
138 139  36
139 140  36
140 141  36
141 142  36
142 143  36
143 144  36
144 145  36
145 146  36
146 147  36
147 148  36
148 149  36
149 150  36
150 151  36
151 152  36
152 27  36
27 153  37
153 28  37
29 154  38
154 155  38
155 156  38
156 157  38
157 158  38
158 159  38
159 160  38
160 161  38
161 162  38
162 163  38
163 164  38
164 165  38
165 166  38
166 167  38
167 168  38
168 169  38
169 170  38
170 28  38
29 171  39
171 26  39
28 172  40
172 173  40
173 174  40
174 175  40
175 176  40
176 177  40
177 178  40
178 179  40
179 180  40
180 181  40
181 182  40
182 183  40
183 184  40
184 185  40
185 186  40
186 187  40
187 188  40
188 29  40
27 189  41
189 190  41
190 191  41
191 192  41
192 193  41
193 194  41
194 195  41
195 196  41
196 197  41
197 198  41
198 199  41
199 200  41
200 201  41
201 202  41
202 203  41
203 204  41
204 205  41
205 26  41
30 206  42
206 207  42
207 208  42
208 31  42
30 32  43
33 209  44
209 210  44
210 211  44
211 32  44
31 33  45
30 212  46
212 213  46
213 214  46
214 215  46
215 216  46
216 217  46
217 218  46
218 219  46
219 220  46
220 221  46
221 222  46
222 223  46
223 224  46
224 34  46
34 12  47
23 225  48
225 226  48
226 227  48
227 228  48
228 229  48
229 230  48
230 231  48
231 21  48
32 25  49
35 232  50
232 233  50
233 17  50
34 234  51
234 235  51
235 236  51
236 36  51
36 35  52
33 237  53
237 238  53
238 239  53
239 240  53
240 241  53
241 242  53
242 243  53
243 244  53
244 245  53
245 246  53
246 247  53
247 248  53
248 249  53
249 250  53
250 251  53
251 252  53
252 253  53
253 35  53
31 254  54
254 255  54
255 256  54
256 257  54
257 258  54
258 259  54
259 260  54
260 261  54
261 262  54
262 263  54
263 264  54
264 265  54
265 266  54
266 267  54
267 268  54
268 269  54
269 270  54
270 36  54
37 271  55
271 272  55
272 273  55
273 274  55
274 275  55
275 276  55
276 277  55
277 278  55
278 38  55
39 279  56
279 280  56
280 281  56
281 282  56
282 38  56
40 283  57
283 284  57
284 285  57
285 286  57
286 287  57
287 288  57
288 289  57
289 290  57
290 39  57
40 291  58
291 292  58
292 293  58
293 294  58
294 37  58
39 295  59
295 296  59
296 297  59
297 298  59
298 299  59
299 300  59
300 301  59
301 302  59
302 41  59
41 303  60
303 304  60
304 305  60
305 306  60
306 42  60
38 307  61
307 308  61
308 309  61
309 310  61
310 311  61
311 312  61
312 313  61
313 314  61
314 42  61
41 315  62
315 316  62
316 317  62
317 318  62
318 319  62
319 320  62
320 321  62
321 322  62
322 43  62
42 323  63
323 324  63
324 325  63
325 326  63
326 327  63
327 328  63
328 329  63
329 330  63
330 44  63
44 331  64
331 332  64
332 333  64
333 334  64
334 43  64
44 335  65
335 336  65
336 337  65
337 338  65
338 339  65
339 340  65
340 341  65
341 342  65
342 45  65
46 343  66
343 344  66
344 345  66
345 346  66
346 45  66
43 347  67
347 348  67
348 349  67
349 350  67
350 351  67
351 352  67
352 353  67
353 354  67
354 46  67
46 355  68
355 356  68
356 357  68
357 358  68
358 359  68
359 360  68
360 361  68
361 47  68
47 362  69
362 363  69
363 364  69
364 365  69
365 48  69
45 366  70
366 367  70
367 368  70
368 369  70
369 370  70
370 371  70
371 372  70
372 373  70
373 374  70
374 48  70
47 375  71
375 376  71
376 377  71
377 378  71
378 379  71
379 380  71
380 381  71
381 382  71
382 40  71
48 383  72
383 384  72
384 385  72
385 386  72
386 387  72
387 388  72
388 389  72
389 390  72
390 37  72
49 391  73
391 392  73
392 393  73
393 394  73
394 395  73
395 396  73
396 397  73
397 398  73
398 399  73
399 400  73
400 401  73
401 402  73
402 403  73
403 404  73
404 405  73
405 406  73
406 407  73
407 50  73
50 408  74
408 409  74
409 410  74
410 411  74
411 412  74
412 413  74
413 414  74
414 415  74
415 416  74
416 417  74
417 418  74
418 419  74
419 420  74
420 421  74
421 422  74
422 423  74
423 424  74
424 49  74
51 425  75
425 426  75
426 427  75
427 428  75
428 429  75
429 430  75
430 431  75
431 432  75
432 433  75
433 434  75
434 435  75
435 436  75
436 437  75
437 438  75
438 439  75
439 440  75
440 441  75
441 52  75
52 442  76
442 443  76
443 444  76
444 445  76
445 446  76
446 447  76
447 448  76
448 449  76
449 450  76
450 451  76
451 452  76
452 453  76
453 454  76
454 455  76
455 456  76
456 457  76
457 458  76
458 51  76
50 459  77
459 52  77
51 460  78
460 49  78
End
