MeshVersionFormatted 1

Dimension
3

Vertices
849
-1  22  -10  0
-1.8786796564403601  24.121320343559599  -10  0
-4  25  -10  0
-19  25  -10  0
-36.677669529663703  -17.677669529663699  -10  0
-19  -25  -10  0
-4  -25  -10  0
-1.8786796564403601  -24.121320343559599  -10  0
-1  -22  -10  0
4  25  -10  0
1.8786796564403601  24.121320343559599  -10  0
1  22  -10  0
1  -22  -10  0
1.8786796564403601  -24.121320343559599  -10  0
4  -25  -10  0
24  -25  -10  0
38.142135623730901  -19.142135623730901  -10  0
44  -5  -10  0
44  5  -10  0
38.142135623730901  19.142135623730901  -10  0
24  25  -10  0
44.142135623730901  24.142135623730901  15  0
44.142135623730901  24.142135623730901  -15  0
50  10  15  0
50  10  -15  0
50  -10  15  0
50  -10  -15  0
44.142135623730901  -24.142135623730901  15  0
44.142135623730901  -24.142135623730901  -15  0
30  -30  15  0
30  -30  -15  0
30  30  -15  0
30  30  15  0
-1  22  15  0
-1  -22  15  0
-1.8786796564403601  24.121320343559599  15  0
-4  25  15  0
-19  25  15  0
-36.677669529663703  -17.677669529663699  15  0
-19  -25  15  0
-4  -25  15  0
-1.8786796564403601  -24.121320343559599  15  0
4  25  15  0
24  25  15  0
1.8786796564403601  24.121320343559599  15  0
1  22  15  0
1  -22  15  0
1.8786796564403601  -24.121320343559599  15  0
4  -25  15  0
24  -25  15  0
38.142135623730901  -19.142135623730901  15  0
44  -5  15  0
44  5  15  0
38.142135623730901  19.142135623730901  15  0
-20  -30  15  0
-20  -30  -15  0
-41.213203435596398  -21.213203435596402  -15  0
-20  30  -15  0
-20  30  15  0
-41.213203435596398  -21.213203435596402  15  0
-1.0369349782145862  22.469303395120694  -10  0
-1.1468304511145391  22.927050983124843  -10  0
-1.3269804274348957  23.36197149921864  -10  0
-1.5729490168751572  23.76335575687742  -10  0
-2.2366442431225804  24.427050983124843  -10  0
-2.6380285007813598  24.673019572565103  -10  0
-3.0729490168751576  24.853169548885461  -10  0
-3.5306966048793074  24.963065021785415  -10  0
-16.5  25  -10  0
-14  25  -10  0
-11.5  25  -10  0
-9  25  -10  0
-6.5  25  -10  0
-23.187655582618397  24.646775462955901  -10  0
-27.256976548879173  23.597083257709194  -10  0
-31.092972177630983  21.880585547718852  -10  0
-34.587245046468333  19.545787061700747  -10  0
-37.641054122079126  16.658664448800113  -10  0
-40.168104980707099  13.300801912883419  -10  0
-42.096988312782159  9.5670858091272581  -10  0
-43.37319780454559  5.5630233489078664  -10  0
-43.960670375445417  1.4017611809298087  -10  0
-43.842805247331071  -2.7991119025826916  -10  0
-43.022933048627493  -6.9208877856212192  -10  0
-41.524221697560478  -10.847093477938948  -10  0
-39.389021723981514  -14.466782404495131  -10  0
-33.69463130731183  -20.225424859373689  -10  0
-30.349762493488669  -22.275163104709197  -10  0
-26.725424859373689  -23.776412907378841  -10  0
-22.910861626005772  -24.692208514878445  -10  0
-7.75  -25  -10  0
-11.5  -25  -10  0
-15.25  -25  -10  0
-3.5306966048793083  -24.963065021785415  -10  0
-3.0729490168751581  -24.853169548885461  -10  0
-2.6380285007813602  -24.673019572565103  -10  0
-2.2366442431225813  -24.427050983124843  -10  0
-1.5729490168751576  -23.76335575687742  -10  0
-1.3269804274348966  -23.36197149921864  -10  0
-1.1468304511145391  -22.927050983124843  -10  0
-1.0369349782145867  -22.469303395120694  -10  0
-1  18.333333333333332  -10  0
-1  14.666666666666668  -10  0
-1  11  -10  0
-1  7.3333333333333339  -10  0
-1  3.6666666666666674  -10  0
-1  8.8817841970012523e-16  -10  0
-1  -3.6666666666666656  -10  0
-1  -7.3333333333333321  -10  0
-1  -10.999999999999998  -10  0
-1  -14.666666666666664  -10  0
-1  -18.333333333333332  -10  0
3.5306966048793083  24.963065021785415  -10  0
3.0729490168751581  24.853169548885461  -10  0
2.6380285007813602  24.673019572565103  -10  0
2.2366442431225813  24.427050983124843  -10  0
1.5729490168751576  23.76335575687742  -10  0
1.3269804274348966  23.36197149921864  -10  0
1.1468304511145391  22.927050983124843  -10  0
1.0369349782145867  22.469303395120694  -10  0
1  -18  -10  0
1  -14  -10  0
1  -10  -10  0
1  -6  -10  0
1  -2  -10  0
1  2  -10  0
1  6  -10  0
1  10  -10  0
1  14  -10  0
1  18  -10  0
1.0369349782145862  -22.469303395120694  -10  0
1.1468304511145391  -22.927050983124843  -10  0
1.3269804274348957  -23.36197149921864  -10  0
1.5729490168751572  -23.76335575687742  -10  0
2.2366442431225804  -24.427050983124843  -10  0
2.6380285007813598  -24.673019572565103  -10  0
3.0729490168751576  -24.853169548885461  -10  0
3.5306966048793074  -24.963065021785415  -10  0
20.666666666666668  -25  -10  0
17.333333333333332  -25  -10  0
14  -25  -10  0
10.666666666666666  -25  -10  0
7.3333333333333321  -25  -10  0
27.128689300804599  -24.753766811902661  -10  0
30.180339887498917  -24.02113032590298  -10  0
33.079809994790892  -22.820130483767272  -10  0
35.755705045849396  -21.180339887498871  -10  0
40.180339887498874  -16.755705045849407  -10  0
41.820130483767272  -14.079809994790892  -10  0
43.021130325902973  -11.180339887498917  -10  0
43.753766811902658  -8.1286893008046022  -10  0
43.753766811902665  8.1286893008045986  -10  0
43.02113032590298  11.180339887498915  -10  0
41.820130483767272  14.079809994790889  -10  0
40.180339887498874  16.7557050458494  -10  0
35.75570504584941  21.180339887498871  -10  0
33.079809994790892  22.820130483767269  -10  0
30.180339887498917  24.021130325902977  -10  0
27.128689300804602  24.753766811902658  -10  0
7.3333333333333339  25  -10  0
10.666666666666668  25  -10  0
14  25  -10  0
17.333333333333336  25  -10  0
20.666666666666668  25  -10  0
44.142135623730901  24.142135623730901  7.5  0
44.142135623730901  24.142135623730901  0  0
44.142135623730901  24.142135623730901  -7.5  0
46.180339887498874  21.755705045849407  15  0
47.820130483767272  19.079809994790892  15  0
49.021130325902973  16.180339887498917  15  0
49.753766811902658  13.128689300804602  15  0
50  10  7.5  0
50  10  0  0
50  10  -7.5  0
49.753766811902665  13.128689300804599  -15  0
49.02113032590298  16.180339887498917  -15  0
47.820130483767272  19.079809994790889  -15  0
46.180339887498874  21.7557050458494  -15  0
50  -10  -7.5  0
50  -10  0  0
50  -10  7.5  0
50  0  -15  0
44.142135623730901  -24.142135623730901  7.5  0
44.142135623730901  -24.142135623730901  0  0
44.142135623730901  -24.142135623730901  -7.5  0
46.180339887498874  -21.755705045849407  -15  0
47.820130483767272  -19.079809994790892  -15  0
49.021130325902973  -16.180339887498917  -15  0
49.753766811902658  -13.128689300804602  -15  0
49.753766811902665  -13.128689300804599  15  0
49.02113032590298  -16.180339887498917  15  0
47.820130483767272  -19.079809994790889  15  0
46.180339887498874  -21.7557050458494  15  0
41.75570504584941  -26.180339887498871  15  0
39.079809994790892  -27.820130483767269  15  0
36.180339887498917  -29.021130325902977  15  0
33.128689300804602  -29.753766811902658  15  0
30  -30  7.5  0
30  -30  0  0
30  -30  -7.5  0
33.128689300804595  -29.753766811902661  -15  0
36.180339887498917  -29.02113032590298  -15  0
39.079809994790892  -27.820130483767272  -15  0
41.755705045849396  -26.180339887498871  -15  0
41.75570504584941  26.180339887498871  -15  0
39.079809994790892  27.820130483767269  -15  0
36.180339887498917  29.021130325902977  -15  0
33.128689300804602  29.753766811902658  -15  0
30  30  -7.5  0
30  30  0  0
30  30  7.5  0
33.128689300804595  29.753766811902661  15  0
36.180339887498917  29.02113032590298  15  0
39.079809994790892  27.820130483767272  15  0
41.755705045849396  26.180339887498871  15  0
-1  18.857142857142858  15  0
-1  15.714285714285715  15  0
-1  12.571428571428571  15  0
-1  9.4285714285714288  15  0
-1  6.2857142857142865  15  0
-1  3.1428571428571432  15  0
-1  4.4408920985006262e-16  15  0
-1  -3.1428571428571423  15  0
-1  -6.2857142857142847  15  0
-1  -9.428571428571427  15  0
-1  -12.571428571428571  15  0
-1  -15.714285714285714  15  0
-1  -18.857142857142858  15  0
-1  22  12.222222222222221  0
-1  22  9.4444444444444446  0
-1  22  6.666666666666667  0
-1  22  3.8888888888888893  0
-1  22  1.1111111111111116  0
-1  22  -1.6666666666666661  0
-1  22  -4.4444444444444429  0
-1  22  -7.2222222222222214  0
-1  -22  -7.2222222222222214  0
-1  -22  -4.4444444444444446  0
-1  -22  -1.666666666666667  0
-1  -22  1.1111111111111107  0
-1  -22  3.8888888888888884  0
-1  -22  6.6666666666666661  0
-1  -22  9.4444444444444429  0
-1  -22  12.222222222222221  0
-1.5729490168751576  23.76335575687742  15  0
-1.3269804274348966  23.36197149921864  15  0
-1.1468304511145391  22.927050983124843  15  0
-1.0369349782145867  22.469303395120694  15  0
-1.8786796564403601  24.121320343559599  -7.5  0
-1.8786796564403601  24.121320343559599  -5  0
-1.8786796564403601  24.121320343559599  -2.5  0
-1.8786796564403601  24.121320343559599  0  0
-1.8786796564403601  24.121320343559599  2.5  0
-1.8786796564403601  24.121320343559599  5  0
-1.8786796564403601  24.121320343559599  7.5  0
-1.8786796564403601  24.121320343559599  10  0
-1.8786796564403601  24.121320343559599  12.5  0
-4  25  -7.2222222222222214  0
-4  25  -4.4444444444444446  0
-4  25  -1.666666666666667  0
-4  25  1.1111111111111107  0
-4  25  3.8888888888888884  0
-4  25  6.6666666666666661  0
-4  25  9.4444444444444429  0
-4  25  12.222222222222221  0
-3.5306966048793083  24.963065021785415  15  0
-3.0729490168751581  24.853169548885461  15  0
-2.6380285007813602  24.673019572565103  15  0
-2.2366442431225813  24.427050983124843  15  0
-16.5  25  15  0
-14  25  15  0
-11.5  25  15  0
-9  25  15  0
-6.5  25  15  0
-19  25  8.75  0
-19  25  2.5  0
-19  25  -3.75  0
-39.389021723981507  -14.466782404495145  15  0
-41.524221697560478  -10.847093477938955  15  0
-43.022933048627493  -6.9208877856212387  15  0
-43.842805247331064  -2.7991119025827009  15  0
-43.960670375445417  1.4017611809297923  15  0
-43.373197804545597  5.5630233489078522  15  0
-42.096988312782173  9.5670858091272386  15  0
-40.168104980707106  13.300801912883408  15  0
-37.641054122079147  16.658664448800096  15  0
-34.58724504646834  19.545787061700739  15  0
-31.092972177631005  21.880585547718841  15  0
-27.256976548879191  23.597083257709187  15  0
-23.187655582618422  24.646775462955897  15  0
-36.677669529663703  -17.677669529663699  2.5  0
-19  -25  -3.75  0
-19  -25  2.5  0
-19  -25  8.75  0
-22.910861626005765  -24.692208514878445  15  0
-26.725424859373682  -23.776412907378841  15  0
-30.349762493488665  -22.2751631047092  15  0
-33.694631307311823  -20.225424859373689  15  0
-7  -25  15  0
-10  -25  15  0
-13  -25  15  0
-16  -25  15  0
-4  -25  12.222222222222221  0
-4  -25  9.4444444444444446  0
-4  -25  6.666666666666667  0
-4  -25  3.8888888888888893  0
-4  -25  1.1111111111111116  0
-4  -25  -1.6666666666666661  0
-4  -25  -4.4444444444444429  0
-4  -25  -7.2222222222222214  0
-2.2366442431225804  -24.427050983124843  15  0
-2.6380285007813598  -24.673019572565103  15  0
-3.0729490168751576  -24.853169548885461  15  0
-3.5306966048793074  -24.963065021785415  15  0
-1.8786796564403601  -24.121320343559599  12.5  0
-1.8786796564403601  -24.121320343559599  10  0
-1.8786796564403601  -24.121320343559599  7.5  0
-1.8786796564403601  -24.121320343559599  5  0
-1.8786796564403601  -24.121320343559599  2.5  0
-1.8786796564403601  -24.121320343559599  0  0
-1.8786796564403601  -24.121320343559599  -2.5  0
-1.8786796564403601  -24.121320343559599  -5  0
-1.8786796564403601  -24.121320343559599  -7.5  0
-1.0369349782145862  -22.469303395120694  15  0
-1.1468304511145391  -22.927050983124843  15  0
-1.3269804274348957  -23.36197149921864  15  0
-1.5729490168751572  -23.76335575687742  15  0
8  25  15  0
12  25  15  0
16  25  15  0
20  25  15  0
4  25  12.222222222222221  0
4  25  9.4444444444444446  0
4  25  6.666666666666667  0
4  25  3.8888888888888893  0
4  25  1.1111111111111116  0
4  25  -1.6666666666666661  0
4  25  -4.4444444444444429  0
4  25  -7.2222222222222214  0
24  25  -3.75  0
24  25  2.5  0
24  25  8.75  0
2.2366442431225804  24.427050983124843  15  0
2.6380285007813598  24.673019572565103  15  0
3.0729490168751576  24.853169548885461  15  0
3.5306966048793074  24.963065021785415  15  0
1.8786796564403601  24.121320343559599  12.5  0
1.8786796564403601  24.121320343559599  10  0
1.8786796564403601  24.121320343559599  7.5  0
1.8786796564403601  24.121320343559599  5  0
1.8786796564403601  24.121320343559599  2.5  0
1.8786796564403601  24.121320343559599  0  0
1.8786796564403601  24.121320343559599  -2.5  0
1.8786796564403601  24.121320343559599  -5  0
1.8786796564403601  24.121320343559599  -7.5  0
1  22  -7.2222222222222214  0
1  22  -4.4444444444444446  0
1  22  -1.666666666666667  0
1  22  1.1111111111111107  0
1  22  3.8888888888888884  0
1  22  6.6666666666666661  0
1  22  9.4444444444444429  0
1  22  12.222222222222221  0
1.0369349782145862  22.469303395120694  15  0
1.1468304511145391  22.927050983124843  15  0
1.3269804274348957  23.36197149921864  15  0
1.5729490168751572  23.76335575687742  15  0
1  -19.411764705882351  15  0
1  -16.823529411764707  15  0
1  -14.235294117647058  15  0
1  -11.647058823529411  15  0
1  -9.0588235294117645  15  0
1  -6.4705882352941169  15  0
1  -3.8823529411764697  15  0
1  -1.2941176470588225  15  0
1  1.2941176470588247  15  0
1  3.8823529411764719  15  0
1  6.4705882352941195  15  0
1  9.0588235294117663  15  0
1  11.647058823529413  15  0
1  14.235294117647062  15  0
1  16.823529411764707  15  0
1  19.411764705882355  15  0
1  -22  12.222222222222221  0
1  -22  9.4444444444444446  0
1  -22  6.666666666666667  0
1  -22  3.8888888888888893  0
1  -22  1.1111111111111116  0
1  -22  -1.6666666666666661  0
1  -22  -4.4444444444444429  0
1  -22  -7.2222222222222214  0
1.5729490168751576  -23.76335575687742  15  0
1.3269804274348966  -23.36197149921864  15  0
1.1468304511145391  -22.927050983124843  15  0
1.0369349782145867  -22.469303395120694  15  0
1.8786796564403601  -24.121320343559599  -7.5  0
1.8786796564403601  -24.121320343559599  -5  0
1.8786796564403601  -24.121320343559599  -2.5  0
1.8786796564403601  -24.121320343559599  0  0
1.8786796564403601  -24.121320343559599  2.5  0
1.8786796564403601  -24.121320343559599  5  0
1.8786796564403601  -24.121320343559599  7.5  0
1.8786796564403601  -24.121320343559599  10  0
1.8786796564403601  -24.121320343559599  12.5  0
4  -25  -7.2222222222222214  0
4  -25  -4.4444444444444446  0
4  -25  -1.666666666666667  0
4  -25  1.1111111111111107  0
4  -25  3.8888888888888884  0
4  -25  6.6666666666666661  0
4  -25  9.4444444444444429  0
4  -25  12.222222222222221  0
3.5306966048793083  -24.963065021785415  15  0
3.0729490168751581  -24.853169548885461  15  0
2.6380285007813602  -24.673019572565103  15  0
2.2366442431225813  -24.427050983124843  15  0
21.142857142857142  -25  15  0
18.285714285714285  -25  15  0
15.428571428571429  -25  15  0
12.571428571428571  -25  15  0
9.7142857142857135  -25  15  0
6.8571428571428568  -25  15  0
24  -25  8.75  0
24  -25  2.5  0
24  -25  -3.75  0
35.75570504584941  -21.180339887498871  15  0
33.079809994790892  -22.820130483767269  15  0
30.180339887498917  -24.021130325902977  15  0
27.128689300804602  -24.753766811902658  15  0
38.142135623730901  -19.142135623730901  -3.75  0
38.142135623730901  -19.142135623730901  2.5  0
38.142135623730901  -19.142135623730901  8.75  0
44  -5  -3.75  0
44  -5  2.5  0
44  -5  8.75  0
43.753766811902665  -8.1286893008045986  15  0
43.02113032590298  -11.180339887498915  15  0
41.820130483767272  -14.079809994790889  15  0
40.180339887498874  -16.7557050458494  15  0
44  5  8.75  0
44  5  2.5  0
44  5  -3.75  0
40.180339887498874  16.755705045849407  15  0
41.820130483767272  14.079809994790892  15  0
43.021130325902973  11.180339887498917  15  0
43.753766811902658  8.1286893008046022  15  0
38.142135623730901  19.142135623730901  -3.75  0
38.142135623730901  19.142135623730901  2.5  0
38.142135623730901  19.142135623730901  8.75  0
27.128689300804599  24.753766811902661  15  0
30.180339887498917  24.02113032590298  15  0
33.079809994790892  22.820130483767272  15  0
35.755705045849396  21.180339887498871  15  0
-14.444444444444445  -30  15  0
-8.8888888888888893  -30  15  0
-3.3333333333333339  -30  15  0
2.2222222222222214  -30  15  0
7.7777777777777768  -30  15  0
13.333333333333332  -30  15  0
18.888888888888886  -30  15  0
24.444444444444443  -30  15  0
-20  -30  -7.5  0
-20  -30  0  0
-20  -30  7.5  0
17.5  -30  -15  0
5  -30  -15  0
-7.5  -30  -15  0
-37.633557568774194  -24.270509831248425  -15  0
-33.619714992186402  -26.730195725651036  -15  0
-29.270509831248425  -28.531695488854609  -15  0
-24.693033951206928  -29.630650217854136  -15  0
-25.025186699142075  29.576130555547081  -15  0
-29.908371858655009  28.316499909251032  -15  0
-34.5115666131572  26.256702657262608  -15  0
-38.704694055762005  23.4549444740409  -15  0
-42.369264946494951  19.990397338560133  -15  0
-45.401725976848525  15.960962295460101  -15  0
-47.716385975338611  11.480502970952687  -15  0
-49.247837365454707  6.6756280186894381  -15  0
-49.952804450534501  1.6821134171157723  -15  0
-49.811366296797281  -3.358934283099229  -15  0
-48.827519658352983  -8.3050653427454897  -15  0
-47.029066037072582  -13.016512173526738  -15  0
-44.46682606877782  -17.360138885394157  -15  0
-7.5  30  -15  0
5  30  -15  0
17.5  30  -15  0
-20  30  0  0
25  30  15  0
20  30  15  0
15  30  15  0
10  30  15  0
5  30  15  0
0  30  15  0
-5  30  15  0
-10  30  15  0
-15  30  15  0
-44.466826068777813  -17.360138885394171  15  0
-47.029066037072575  -13.016512173526754  15  0
-48.827519658352983  -8.3050653427455003  15  0
-49.811366296797274  -3.3589342830992415  15  0
-49.952804450534501  1.6821134171157621  15  0
-49.247837365454714  6.6756280186894248  15  0
-47.716385975338611  11.480502970952676  15  0
-45.401725976848532  15.960962295460092  15  0
-42.369264946494965  19.990397338560125  15  0
-38.704694055762012  23.454944474040889  15  0
-34.511566613157214  26.256702657262601  15  0
-29.908371858655023  28.316499909251025  15  0
-25.02518669914209  29.576130555547078  15  0
-24.693033951206925  -29.630650217854136  15  0
-29.270509831248418  -28.531695488854609  15  0
-33.619714992186402  -26.73019572565104  15  0
-37.633557568774187  -24.270509831248425  15  0
-41.213203435596398  -21.213203435596402  5  0
-41.213203435596398  -21.213203435596402  -5  0
-5.1312076796097141  -16.705477363827978  -10  0
-3.1151271182266029  23.63267984354373  -10  0
-33.987940106083542  -12.16192583079326  -10  0
-18.414646544799218  1.9779622370743397  -10  0
-1.9296535970401558  -23.396270220873426  -10  0
-23.236438198337705  -9.964207083836067  -10  0
-1.939022684956099  -22.487167353770957  -10  0
-17.266395026308221  22.560732602966233  -10  0
-2.5078117932020216  24.11325134144726  -10  0
-39.418300010968736  -3.9266274002531318  -10  0
-30.968203865466236  11.296553341118269  -10  0
-7.8481722189605669  9.4165026520177353  -10  0
-10.577967910128283  -10.33667182315417  -10  0
-11.400796736283699  -19.659725293208723  -10  0
-27.070932700881212  -18.886734491570039  -10  0
-4.5755669975620163  16.548056865756301  -10  0
-4.8682917853296264  -23.360262378420295  -10  0
-3.3280631382980745  20.675977433738243  -10  0
-38.697110835299881  5.1297990304022161  -10  0
-2.0621529696071188  23.467648500408416  -10  0
-5.8481651644173445  -0.89998439424721788  -10  0
-3.5197917877465459  -24.216142388211619  -10  0
-3.0568363972060721  -23.09933707341591  -10  0
-30.799537086616802  -1.2778598396426466  -10  0
-4.3463476690448219  22.972520341593992  -10  0
-11.290509586197299  20.103256183230815  -10  0
-4.1007696607922366  24.31845772611495  -10  0
-19.548933771120296  15.630485773343587  -10  0
-2.6158024365726442  -24.101995025018105  -10  0
-27.785092847176291  19.430473843296241  -10  0
-18.502198089782276  -19.080637682586321  -10  0
-7.370993254663893  -21.809097604963117  -10  0
-3.1546535376451406  24.416564462654929  -10  0
-1.5171905166842001  22.787276681199838  -10  0
-6.507459065775719  21.704866796378493  -10  0
-2.55763312172569  22.579864558639706  -10  0
-3.4926902803619013  -21.107142787895853  -10  0
36.091216403564651  -6.842227852203381  -10  0
22.596004868501375  13.14077561574528  -10  0
34.706638705008551  13.29947579800973  -10  0
24.665255432840269  21.687433627523323  -10  0
9.7378949407824216  -21.054523562024894  -10  0
4.8077278443272879  -18.091170256104981  -10  0
8.6868734200924269  13.058524742754299  -10  0
25.23434936875756  -20.317416877340282  -10  0
30.836594983905574  -21.515016710590075  -10  0
1.9180390745168139  -22.482046058161941  -10  0
38.599777013681283  0.76580008413552936  -10  0
3.1284581207070543  21.339467821441573  -10  0
1.5010782069152935  -22.957565674902593  -10  0
2.8159187545814199  -20.991330307159604  -10  0
3.0855107081420909  -22.925989821785304  -10  0
3.4343458058707412  24.29799170759782  -10  0
5.0732365424784636  -22.42754822416207  -10  0
12.457681927857346  1.2864727372090063  -10  0
33.658207414784769  -16.005149963873457  -10  0
29.583086012973489  2.7691782694792733  -10  0
2.0571992730854349  -23.532238880028661  -10  0
2.9097234621480146  -24.187957510393769  -10  0
4.910778883080658  18.248473750172639  -10  0
5.9117993133307474  21.860658579526309  -10  0
2.7959259209126608  23.281676225726208  -10  0
9.7556130543110164  21.247557335383021  -10  0
39.750105807089241  -12.161943866092555  -10  0
4.4401830757726444  23.463164549876897  -10  0
1.8091680439147775  23.282445486510095  -10  0
31.297160462890108  19.32398850682732  -10  0
9.2094031196666144  -12.037977475831033  -10  0
16.810371329890927  20.587200232416311  -10  0
39.352043083611804  7.8900563039545135  -10  0
2.7295937825751957  24.2281398562018  -10  0
2.1725014207152973  23.847929586770931  -10  0
23.32565465461192  -10.139277932653677  -10  0
4.2774999286189788  -4.4624880453355082  -10  0
17.070542598652157  -19.798593958573729  -10  0
1.8226687972281896  22.545270896905311  -10  0
3.7223606536944018  -23.905730108782915  -10  0
48.112713007380393  18.481133621885057  3.862705990400269  0
49.062725907124801  16.050824818967161  -10.842882599582749  0
48.804689289388605  16.810555097020313  -3.8627059904002694  0
49.467838403991578  14.582932235596211  8.7000304465863607  0
47.757962018091973  19.200803495564884  10.842882599582749  0
47.006463012014841  20.525218088997832  -8.7000304465863607  0
49.062725907124801  -16.050824818967151  10.842882599582749  0
47.757962018091973  -19.200803495564884  -10.842882599582749  0
48.1127130073804  -18.481133621885046  -3.8627059904002694  0
47.006463012014848  -20.525218088997825  8.7000304465863607  0
48.804689289388605  -16.810555097020316  3.8627059904002694  0
49.467838403991578  -14.582932235596207  -8.7000304465863607  0
39.200803495564884  -27.75796201809197  10.842882599582749  0
40.525218088997832  -27.006463012014841  -8.7000304465863607  0
36.81055509702032  -28.804689289388609  -3.862705990400269  0
34.582932235596211  -29.467838403991575  8.7000304465863607  0
38.481133621885057  -28.112713007380396  3.8627059904002694  0
36.050824818967158  -29.062725907124801  -10.842882599582749  0
34.582932231266064  29.467838405010937  -8.7000264734408699  0
36.810555090806197  28.804689291639196  3.8627109186465871  0
36.05082481433714  29.062725908594448  10.842885924107573  0
39.200803491408422  27.757962020245525  -10.84287862686894  0
40.525218085084674  27.006463014436672  8.700033771370931  0
38.481133616008911  28.112713010131856  -3.862700587563197  0
-1  -7.4838890929043558  8.8401642267388745  0
-1  -2.1591827792144214  -3.2053408926328166  0
-1  -16.246158205516437  7.2681414935345305  0
-1  13.668748302973725  -6.2415886239189966  0
-1  -19.45948811884281  10.937903594753458  0
-1  11.185939245623386  10.030515488538752  0
-1  17.564248055571493  2.0136823696555317  0
-1  -12.019472323555112  -2.7070087217088976  0
-1  18.464110735500075  10.050847035035638  0
-1  19.253569413405103  -4.5902425671617149  0
-1  7.5929268190031562  -1.1467958635157851  0
-1  -18.792755536812351  0.4740693248836072  0
-1  1.9308728470437677  9.3230321670691811  0
-1  -18.537264105042794  -5.0769197055366773  0
-1.1671998337565266  22.987544033514936  1.1582158578383361  0
-1.2283580410369654  23.148042181853764  -2.1320280207548654  0
-1.2380415435827081  23.171147080867733  13.582006829792919  0
-1.2190981423005312  23.12542652263204  4.4067538830878776  0
-1.238078269598196  23.171233689378131  7.2282061552140942  0
-1.2378372498454966  23.170665170601275  -8.5801428015847012  0
-1.3001971654464914  23.308076700555759  10.353492202620485  0
-1.2986048616419374  23.304785157202296  -5.3396828718022942  0
-2.821379273270693  24.758777479704385  3.2437469253102509  0
-2.6526711476476668  24.680429996030291  1.0360185936910202  0
-2.994598255610522  24.826511512868574  9.2507950084150838  0
-2.734636831882117  24.72008383193803  12.99664130991885  0
-2.9589204892929608  24.813565967306612  -1.6763744571912227  0
-2.8315437965797292  24.763097917318294  -8.570475417280365  0
-2.8704250983232527  24.779219412263444  5.9251553805672561  0
-2.7103460202860434  24.708651438005258  -5.2729883221375449  0
-7.9170867666460838  25  11.444431176241881  0
-8.2550234482427971  25  -7.1120785070719661  0
-13.148552347344568  25  -6.9972454951959948  0
-10.981417678342076  25  6.2932483498858103  0
-13.317534185664435  25  11.919717405527425  0
-9.6027173713629086  25  -1.1295658989311688  0
-25.634118522958715  24.103702442225263  2.5000000000000338  0
-43.842835074783189  -2.7988471639448802  2.5000000000000462  0
-43.372570566005407  5.5657707467238566  2.5000000000000049  0
-40.15453660448398  13.322371449916393  2.4999999999999987  0
-34.420608306266942  19.677521171750548  2.4999999999999911  0
-41.524228334941753  -10.847079695263945  2.4999999999999076  0
-27.617783026960147  -23.467718587460467  7.3010279829599938  0
-32.016628140785045  -21.344024733974681  -4.0340997481337695  0
-25.504136758010826  -24.139101164564774  -3.9986661458687216  0
-9.7003096516325975  -25  -3.8219633592896272  0
-8.7549445785430002  -25  11.765333621206441  0
-14.754901430333197  -25  10.463329338444213  0
-8.5265728659599578  -25  5.2495085025030823  0
-2.821379273270693  -24.758777479704385  1.7562530746897491  0
-2.8315437965797292  -24.763097917318294  13.570475417280365  0
-2.7103460202860434  -24.708651438005258  10.272988322137547  0
-2.6526711476476668  -24.680429996030291  3.9639814063089798  0
-2.9589204892929608  -24.813565967306612  6.6763744571912236  0
-2.8704250983232527  -24.779219412263444  -0.9251553805672561  0
-2.994598255610522  -24.826511512868574  -4.2507950084150838  0
-2.734636831882117  -24.72008383193803  -7.9966413099188483  0
-1.237837370871167  -23.170665456159057  -8.5800280115920344  0
-1.2986019867949983  -23.30477920517307  -5.3395180465645691  0
-1.2283538972883759  -23.148032177825808  -2.1318694916217398  0
-1.2190991747290867  -23.125429073734793  4.406868670640594  0
-1.2380390011086049  -23.171141084841125  13.582100963015879  0
-1.3001967471093776  -23.308075837129184  10.353628937183338  0
-1.1671981278749231  -22.987539140127954  1.1583262993045667  0
-1.2380803188971314  -23.171238521880419  7.2283445667852293  0
16.111688316892909  25  8.1454283125121183  0
8.047544595568251  25  9.8348003193226319  0
16.618002644097128  25  -3.2817571377073391  0
8.6064655544661051  25  -5.5256725824610484  0
8.1796961308606306  25  2.3935141039995371  0
2.7103460202860434  24.708651438005258  10.272988322137547  0
2.9589204892929608  24.813565967306612  6.6763744571912236  0
2.6526711476476668  24.680429996030291  3.9639814063089798  0
2.734636831882117  24.72008383193803  -7.9966413099188483  0
2.8315437965797292  24.763097917318294  13.570475417280365  0
2.994598255610522  24.826511512868574  -4.2507950084150838  0
2.821379273270693  24.758777479704385  1.7562530746897491  0
2.8704250983232527  24.779219412263444  -0.9251553805672561  0
1.237837370871167  23.170665456159057  -8.5800280115920344  0
1.2986019867949983  23.30477920517307  -5.3395180465645691  0
1.2190991747290867  23.125429073734793  4.406868670640594  0
1.2380390011086049  23.171141084841125  13.582100963015879  0
1.3001967471093776  23.308075837129184  10.353628937183338  0
1.2283538972883759  23.148032177825808  -2.1318694916217398  0
1.1671981278749231  22.987539140127954  1.1583262993045667  0
1.2380803188971314  23.171238521880419  7.2283445667852293  0
1  10.462915738074324  12.560222489962225  0
1  -18.740827904644377  -5.8241814324073049  0
1  17.726873531947909  -5.0317172145021622  0
1  4.6242213201822802  11.311121909105768  0
1  8.4260614705243828  -4.1003006421467791  0
1  1.8308440544822786  4.2722885265994268  0
1  -13.909410493818926  6.062541145314567  0
1  17.669703964392216  2.1849613487642818  0
1  17.180819782813455  10.469082618117099  0
1  -14.429427565266467  -1.6388184130547296  0
1  10.031545495931795  6.1185005542881807  0
1  -11.484153033455398  11.345706407795323  0
1  -17.84206644867227  10.579489303126627  0
1  -18.698069435320562  4.4470468363815128  0
1  -1.5887962075048743  11.194345136693439  0
1  -3.40950033039748  -4.4831455848542499  0
1  -7.0854854352490388  5.5658452918993584  0
1  -6.5976629154842605  12.189107047506855  0
1.2380415435827081  -23.171147080867733  13.582006829792919  0
1.3001971654464914  -23.308076700555759  10.353492202620485  0
1.1671998337565266  -22.987544033514936  1.1582158578383361  0
1.2986048616419374  -23.304785157202296  -5.3396828718022924  0
1.2378372498454966  -23.170665170601275  -8.5801428015847012  0
1.2283580410369654  -23.148042181853764  -2.1320280207548654  0
1.238078269598196  -23.171233689378131  7.2282061552140942  0
1.2190981423005312  -23.12542652263204  4.4067538830878776  0
2.8704250983232527  -24.779219412263444  5.9251553805672561  0
2.734636831882117  -24.72008383193803  12.99664130991885  0
2.6526711476476668  -24.680429996030291  1.0360185936910198  0
2.8315437965797292  -24.763097917318294  -8.570475417280365  0
2.9589204892929608  -24.813565967306612  -1.6763744571912227  0
2.821379273270693  -24.758777479704385  3.2437469253102509  0
2.7103460202860434  -24.708651438005258  -5.2729883221375449  0
2.994598255610522  -24.826511512868574  9.2507950084150838  0
16.62003272775781  -25  -3.2992432783148504  0
8.1969601173596818  -25  2.4459333207022373  0
8.6086848912839873  -25  -5.5211521769018912  0
16.108326554091562  -25  7.951263619415462  0
8.1862313503494892  -25  10.462408781831568  0
19.831075386212515  -25  12.777799657715681  0
34.257732332003584  -22.169127159088912  8.7486442273022753  0
29.049887556529537  -24.351967229881417  6.4061925991273547  0
34.113096866225455  -22.254717377411229  -1.4061963190571047  0
28.887093568707265  -24.393718479205994  -3.7486471265632204  0
43.393718332802123  -9.8870941496896592  8.7486442273022753  0
43.351967037929285  -10.049888292120393  -1.4061963190571047  0
41.169126851795497  -15.257732846343346  -3.7486471265632204  0
41.254716993000599  -15.113097522097394  6.4061925991273547  0
41.254717377411225  15.113096866225455  -1.4061963190571047  0
41.169127159088916  15.257732332003583  8.7486442273022753  0
43.351967229881417  10.049887556529537  6.4061925991273547  0
43.393718479205994  9.8870935687072627  -3.7486471265632204  0
28.557340564355755  24.473845202744982  -3.9014205804502424  0
31.653668580697598  23.477590677813989  2.5000339488600472  0
34.54756151964726  21.992614454204872  8.9014643777955946  0
29.336315545136486  24.274951009087697  9.6637107262770101  0
33.856103563775648  22.402793526906109  -4.6636715475395274  0
19.355185186447805  -30  2.4565679325412808  0
-9.3480867877532763  -30  2.4592039295860175  0
5.004483890576946  -30  7.1305094981439385  0
16.698676835088314  16.341151513362156  -15  0
41.956454467517894  19.309697816569621  -15  0
44.072241766947272  -19.002865654854851  -15  0
-5.8223958293909988  -13.16663992497201  -15  0
38.484087021819143  -23.356804897456321  -15  0
46.633070287161274  14.32241966195585  -15  0
-38.01076062793458  5.8418927624566557  -15  0
41.231860305046126  8.2799733861300417  -15  0
28.200873382933349  3.7013880165078739  -15  0
35.940609459996359  24.661170701709768  -15  0
32.590976330703221  -25.710089094663864  -15  0
13.600457661284871  -18.125958996338106  -15  0
-40.333054540082365  -14.180361241758712  -15  0
39.914445840027739  -5.4080304458321322  -15  0
-40.756231033041928  15.994590205983922  -15  0
-32.303274580042661  19.240697981900624  -15  0
-33.103865202710942  -7.9521772077711663  -15  0
-20.573123161821385  22.98294240937653  -15  0
-43.873118544713293  -5.6127830061099528  -15  0
45.088585497044249  -13.176961606994862  -15  0
25.509252192840936  -22.464596383466304  -15  0
27.094793078096323  -11.294609874262893  -15  0
-22.602686562751291  -13.061448461839435  -15  0
-32.273683059754568  -19.927403052838635  -15  0
-20.31669890014345  -23.477124007422177  -15  0
32.290459585314586  -19.635894059508185  -15  0
-21.469462190961156  -0.76757964209200336  -15  0
27.533996693112936  24.471501336082838  -15  0
-23.605804566789075  11.840161811464068  -15  0
31.92745291662586  16.118316531366116  -15  0
12.35515855845693  -1.7788529807045743  -15  0
-5.616905554977671  11.92674892825679  -15  0
37.818882053184858  -15.316675675469716  -15  0
22.673448178949588  30  8.721159639907011  0
0.77073435033262627  30  2.4191417516121136  0
7.803594733159108  30  10.372171960929871  0
16.088110123707224  30  -0.13101990677919009  0
-10.962802388663096  30  6.7615222687599097  0
-2.5549797823181173  27.163376511804788  15  0
-1.6535224230592929  -25.174176195078164  15  0
1.0966739244559369  -24.093450238139777  15  0
-0.21898396475767967  -26.959607837335266  15  0
-1.2546646845229723  25.606872395708322  15  0
0.31712369888405895  26.447956902687086  15  0
0.0098369211251215921  -24.783427804631646  15  0
-0.42852787146156357  22.57321847238445  15  0
-2.5231606555510631  25.293392960654135  15  0
-3.1356451401599923  -26.484512643958894  15  0
-5.8095238683293164  26.869437102346048  15  0
0.019015222843762964  21.216814804272243  15  0
4.5841724749217541  26.625996448852092  15  0
2.2679004480227896  -26.669783783173525  15  0
-5.0707996435243849  -27.235990580595377  15  0
2.2103287782603873  25.483034382143614  15  0
1.3973383804025623  -25.180764994253014  15  0
0.5340320530163406  22.429357168994695  15  0
-0.95729267383606576  -23.944523726925937  15  0
-0.79498994273307944  23.589168285448665  15  0
3.2921045231032839  -25.625225622922304  15  0
1.0726287676112025  24.018195371923419  15  0
2.5766172097221252  27.382901012572585  15  0
-0.06137272229954429  24.626136516763061  15  0
3.331536057473278  25.72170631145795  15  0
-3.3509653783432616  25.204820960699095  15  0
-0.68564793579097949  -23.064585781741258  15  0
2.4852006361485177  -25.233794097294481  15  0
0.40353221470141926  23.36258548032518  15  0
-1.470853080572345  24.491521789720096  15  0
-0.0065534430178857076  -20.922563623019492  15  0
1.280762322870743  24.857384995432344  15  0
-3.6418194345243111  25.909119908407568  15  0
0.37185213648076848  -23.368231634608524  15  0
4.4034406446148813  -27.046830689746511  15  0
-3.6879652980355973  -26.098381381918525  15  0
-2.8788477225727842  -25.59135581318403  15  0
-0.041680959667606453  -22.327936488910861  15  0
-3.5338146880928845  -27.34436484495189  15  0
-2.4565385364796728  -26.92268947780018  15  0
-30.089849788228857  -28.252343818716671  -8.2360149961704803  0
-31.329045141530273  -27.77863812682633  6.5854549217708342  0
-45.402367291142475  15.959941604087874  8.2538577710439042e-12  0
-38.704370850086647  23.455202218323105  -1.8391368164346844e-11  0
-46.517096247827119  -14.030096456670313  -8.1084353502591336e-12  0
-29.908064993542389  28.316607284131692  1.9435382828560834e-11  0
-49.795149435184115  -3.4998671596287552  3.9129488732418377e-12  0
-49.251513851553192  6.6594997854487366  -4.7913654517473062e-12  0
Triangles
1694
551 534 541  1
85 526 84  1
540 519 522  1
79 535 527  1
535 79 80  1
109 537 529  1
531 547 522  1
535 80 81  1
540 522 520  1
83 526 82  1
74 544 524  1
546 74 75  1
74 524 4  1
77 546 76  1
106 537 107  1
82 535 81  1
524 70 69  1
84 526 83  1
528 544 520  1
70 542 71  1
534 551 532  1
104 532 528  1
544 528 542  1
550 63 536  1
536 2 525  1
62 550 61  1
518 549 543  1
549 518 525  1
66 549 525  1
2 536 64  1
5 519 86  1
64 536 63  1
90 547 531  1
87 531 519  1
61 550 1  1
1 534 102  1
519 531 522  1
532 104 103  1
529 520 522  1
528 106 105  1
92 548 530  1
537 109 108  1
9 553 523  1
553 9 112  1
110 529 517  1
537 528 520  1
517 112 111  1
517 111 110  1
548 92 91  1
538 7 94  1
7 533 91  1
7 538 533  1
87 519 5  1
521 98 99  1
100 523 521  1
553 548 533  1
100 521 99  1
545 95 96  1
98 521 8  1
529 547 530  1
92 530 93  1
68 549 67  1
73 543 3  1
85 86 519  1
547 529 522  1
537 106 528  1
74 546 544  1
8 545 97  1
523 100 101  1
519 540 526  1
90 531 89  1
539 538 545  1
523 101 9  1
69 4 524  1
544 542 524  1
525 2 65  1
65 66 525  1
532 102 534  1
526 85 519  1
527 77 78  1
78 79 527  1
528 105 104  1
542 72 71  1
93 547 6  1
529 110 109  1
548 91 533  1
517 529 530  1
531 87 88  1
88 89 531  1
532 103 102  1
541 73 551  1
545 8 521  1
553 533 539  1
536 552 550  1
532 551 542  1
535 82 526  1
527 540 520  1
63 550 62  1
536 525 518  1
520 529 537  1
537 108 107  1
538 94 95  1
95 545 538  1
533 538 539  1
539 521 523  1
540 527 535  1
535 526 540  1
552 536 518  1
542 70 524  1
542 528 532  1
541 518 543  1
68 543 549  1
527 544 546  1
527 520 544  1
545 96 97  1
545 521 539  1
546 75 76  1
546 77 527  1
547 90 6  1
547 93 530  1
548 553 517  1
517 530 548  1
549 66 67  1
543 68 3  1
541 534 552  1
1 552 534  1
551 73 72  1
72 542 551  1
552 1 550  1
552 518 541  1
539 523 553  1
553 112 517  1
543 73 541  1
560 571 555  2
127 571 560  2
579 576 560  2
151 580 150  2
16 561 139  2
576 579 577  2
579 160 577  2
158 583 157  2
581 160 10  2
18 564 554  2
557 158 159  2
567 121 13  2
562 145 146  2
133 566 132  2
135 574 14  2
574 133 134  2
133 574 566  2
590 125 124  2
566 574 563  2
584 122 559  2
578 592 565  2
568 563 574  2
135 575 574  2
131 132 566  2
593 138 15  2
122 584 123  2
590 126 125  2
123 590 124  2
591 558 141  2
558 591 584  2
560 585 579  2
584 559 558  2
576 129 560  2
116 587 115  2
589 571 584  2
117 588 11  2
582 117 118  2
119 592 582  2
587 114 115  2
588 116 11  2
160 581 577  2
114 587 569  2
569 10 113  2
585 560 555  2
583 158 557  2
585 557 164  2
20 556 155  2
583 20 156  2
153 586 152  2
20 583 556  2
19 586 564  2
155 556 154  2
150 580 149  2
564 573 554  2
573 586 556  2
148 580 572  2
144 561 16  2
148 572 17  2
144 562 561  2
147 572 562  2
562 144 145  2
554 151 18  2
571 127 126  2
164 557 21  2
127 560 128  2
154 586 153  2
555 583 557  2
159 21 557  2
557 585 555  2
558 143 142  2
142 141 558  2
122 121 559  2
568 570 567  2
129 576 130  2
129 128 560  2
139 591 140  2
572 561 562  2
146 147 562  2
572 589 561  2
121 567 559  2
575 135 136  2
564 18 19  2
586 573 564  2
592 119 120  2
12 565 592  2
138 575 137  2
131 563 13  2
559 570 558  2
563 131 566  2
567 563 568  2
138 593 575  2
113 114 569  2
581 10 569  2
570 559 567  2
15 570 593  2
589 572 554  2
126 590 571  2
572 147 17  2
554 572 580  2
573 556 555  2
555 571 573  2
574 134 14  2
574 575 568  2
136 137 575  2
575 593 568  2
160 579 161  2
565 581 578  2
565 576 577  2
116 588 587  2
592 120 12  2
162 585 163  2
162 161 579  2
580 148 149  2
580 151 554  2
569 578 581  2
581 565 577  2
582 118 119  2
567 13 563  2
583 555 556  2
583 156 157  2
591 141 140  2
571 589 573  2
585 164 163  2
585 162 579  2
586 19 152  2
586 154 556  2
587 588 578  2
578 569 587  2
588 117 582  2
582 578 588  2
589 591 561  2
589 554 573  2
590 123 584  2
584 571 590  2
591 139 561  2
591 589 584  2
565 12 130  2
592 578 582  2
570 15 143  2
570 568 593  2
570 143 558  2
565 130 576  2
177 599 595  3
178 599 177  3
175 174 25  3
177 595 176  3
596 174 595  3
168 598 165  3
597 173 594  3
174 596 173  3
167 178 23  3
175 595 174  3
165 22 168  3
598 170 597  3
598 597 594  3
171 597 170  3
172 171 24  3
173 597 172  3
166 599 167  3
166 165 594  3
595 175 176  3
596 595 599  3
596 166 594  3
594 173 596  3
170 598 169  3
597 171 172  3
594 165 598  3
598 168 169  3
599 178 167  3
599 166 596  3
172 181 180  4
172 180 173  4
181 172 24  4
179 182 174  4
181 24 26  4
173 180 174  4
174 180 179  4
182 179 27  4
25 174 182  4
605 180 602  5
186 185 29  5
601 186 187  5
184 604 603  5
602 185 601  5
190 181 26  5
189 605 188  5
185 602 184  5
179 189 27  5
186 601 185  5
190 600 181  5
181 604 180  5
604 184 602  5
192 600 191  5
28 183 193  5
193 603 192  5
600 190 191  5
192 603 600  5
601 187 188  5
188 605 601  5
180 605 179  5
184 603 183  5
603 604 600  5
603 193 183  5
602 180 604  5
604 181 600  5
602 601 605  5
605 189 179  5
184 607 185  6
204 607 203  6
201 200 31  6
200 608 199  6
611 203 607  6
194 606 183  6
610 199 608  6
611 607 608  6
185 204 29  6
201 611 200  6
183 28 194  6
196 606 195  6
183 610 184  6
197 609 196  6
198 197 30  6
609 610 606  6
606 194 195  6
196 609 606  6
203 611 202  6
607 204 185  6
607 184 608  6
199 609 198  6
609 197 198  6
199 610 609  6
608 184 610  6
610 183 606  6
608 200 611  6
611 201 202  6
612 617 615  7
205 167 23  7
207 615 206  7
166 616 165  7
210 612 209  7
212 211 33  7
208 612 207  7
613 166 617  7
209 208 32  7
205 615 167  7
212 614 211  7
613 211 614  7
210 617 612  7
214 614 213  7
22 165 215  7
215 616 214  7
167 617 166  7
612 208 209  7
210 211 613  7
214 616 614  7
614 212 213  7
616 166 613  7
615 205 206  7
615 207 612  7
613 614 616  7
616 215 165  7
617 167 615  7
617 210 613  7
622 227 228  8
109 625 110  8
226 618 225  8
244 622 228  8
625 111 110  8
625 620 629  8
241 620 242  8
237 631 238  8
239 629 240  8
223 630 222  8
239 631 629  8
631 237 112  8
241 629 620  8
620 226 227  8
227 622 620  8
112 237 9  8
244 228 35  8
618 223 224  8
226 620 618  8
222 630 221  8
624 628 621  8
630 619 628  8
232 624 233  8
220 623 219  8
621 105 104  8
626 231 230  8
626 624 231  8
626 229 216  8
229 626 230  8
216 229 34  8
623 630 628  8
231 624 232  8
220 630 623  8
627 624 621  8
619 109 108  8
106 628 619  8
102 627 621  8
628 106 105  8
102 621 103  8
103 621 104  8
236 627 102  8
102 1 236  8
224 225 618  8
625 109 619  8
619 108 107  8
107 106 619  8
242 622 243  8
618 625 619  8
624 627 234  8
628 624 623  8
622 244 243  8
622 242 620  8
623 217 218  8
218 219 623  8
624 234 233  8
624 626 623  8
625 618 620  8
111 625 631  8
626 216 217  8
217 623 626  8
627 236 235  8
235 234 627  8
619 630 618  8
628 105 621  8
629 241 240  8
629 631 625  8
630 220 221  8
630 223 618  8
631 239 238  8
631 112 111  8
254 636 635  9
255 638 636  9
231 635 636  9
638 255 256  9
635 231 232  9
245 634 257  9
257 36 245  9
634 245 246  9
236 639 235  9
63 637 62  9
632 234 633  9
234 632 233  9
64 637 63  9
249 64 2  9
639 251 633  9
632 232 233  9
632 635 232  9
249 639 637  9
235 633 234  9
61 236 1  9
639 633 235  9
236 61 637  9
638 257 634  9
248 634 247  9
229 638 634  9
636 638 230  9
248 229 634  9
252 633 251  9
252 253 632  9
251 639 250  9
633 252 632  9
634 246 247  9
229 248 34  9
635 632 253  9
253 254 635  9
636 254 255  9
636 230 231  9
637 64 249  9
257 638 256  9
638 229 230  9
639 236 637  9
639 249 250  9
637 61 62  9
642 646 263  10
262 646 640  10
265 642 264  10
643 266 267  10
642 265 643  10
640 646 254  10
640 641 261  10
65 249 2  10
251 647 644  10
645 65 66  10
644 252 251  10
645 66 67  10
68 258 645  10
258 647 645  10
65 645 249  10
641 640 253  10
647 251 250  10
252 644 641  10
647 249 645  10
643 267 268  10
646 262 263  10
266 265 37  10
36 257 269  10
642 263 264  10
269 643 268  10
254 253 640  10
640 261 262  10
253 252 641  10
261 644 260  10
256 643 257  10
256 255 642  10
643 269 257  10
643 256 642  10
644 259 260  10
644 261 641  10
249 647 250  10
258 68 3  10
646 642 255  10
255 254 646  10
647 258 259  10
259 644 647  10
265 266 643  10
68 645 67  10
652 270 275  11
265 648 264  11
277 69 650  11
274 648 265  11
653 277 650  11
648 274 273  11
648 652 651  11
270 652 271  11
38 275 270  11
652 648 272  11
653 260 261  11
69 277 4  11
262 653 261  11
265 37 274  11
263 651 262  11
649 258 259  11
72 649 71  11
653 259 260  11
276 653 651  11
73 649 72  11
277 653 276  11
258 73 3  11
649 73 258  11
263 264 648  11
648 273 272  11
71 650 70  11
259 653 649  11
650 69 70  11
650 71 649  11
651 263 648  11
651 275 276  11
272 271 652  11
652 275 651  11
650 649 653  11
653 262 651  11
654 275 276  12
4 74 277  12
656 82 655  12
290 654 289  12
659 84 85  12
82 656 81  12
282 655 281  12
286 657 285  12
80 657 79  12
280 659 279  12
657 284 285  12
659 278 279  12
86 659 85  12
278 659 291  12
84 659 655  12
291 86 5  12
655 82 83  12
658 286 287  12
282 656 655  12
74 654 277  12
78 658 77  12
658 288 654  12
286 658 657  12
277 654 276  12
278 291 39  12
654 288 289  12
654 290 275  12
38 275 290  12
284 657 656  12
284 656 283  12
288 658 287  12
76 658 654  12
654 74 75  12
75 76 654  12
83 84 655  12
655 280 281  12
656 282 283  12
656 80 81  12
657 78 79  12
657 80 656  12
658 76 77  12
658 78 657  12
659 86 291  12
659 280 655  12
294 660 293  13
6 292 90  13
40 295 294  13
661 5 87  13
88 662 661  13
662 660 661  13
662 293 660  13
90 662 89  13
295 660 294  13
5 661 291  13
298 291 660  13
660 295 296  13
293 662 292  13
660 296 297  13
291 298 39  13
660 291 661  13
661 87 88  13
662 88 89  13
662 90 292  13
298 660 297  13
304 666 305  14
303 664 304  14
41 299 303  14
293 665 294  14
664 299 300  14
307 663 308  14
301 665 664  14
40 665 302  14
305 666 306  14
307 666 663  14
6 93 292  14
666 304 664  14
91 663 92  14
664 303 299  14
663 309 308  14
310 663 91  14
91 7 310  14
666 665 293  14
663 310 309  14
93 663 292  14
663 293 292  14
663 93 92  14
664 300 301  14
665 301 302  14
665 40 294  14
665 666 664  14
666 293 663  14
666 307 306  14
308 673 672  15
307 672 667  15
310 673 309  15
674 94 95  15
673 310 674  15
667 672 320  15
667 670 306  15
311 315 42  15
669 303 304  15
668 311 312  15
671 306 670  15
668 312 313  15
314 303 668  15
303 669 668  15
311 668 315  15
306 671 305  15
304 671 669  15
318 671 670  15
669 315 668  15
674 95 96  15
672 307 308  15
94 310 7  15
8 323 97  15
673 308 309  15
97 674 96  15
320 319 667  15
667 306 307  15
315 669 316  15
303 314 41  15
669 671 317  15
317 316 669  15
670 667 319  15
319 318 670  15
671 318 317  15
671 304 305  15
321 673 322  15
321 320 672  15
322 674 323  15
673 321 672  15
674 97 323  15
674 322 673  15
310 94 674  15
314 668 313  15
677 238 239  16
676 677 321  16
239 681 677  16
676 237 238  16
681 678 319  16
98 675 323  16
323 8 98  16
675 98 99  16
244 680 243  16
326 679 325  16
682 318 678  16
242 678 241  16
327 679 326  16
315 327 42  16
317 680 316  16
241 681 240  16
681 241 678  16
315 680 679  16
682 243 680  16
324 244 35  16
680 244 679  16
244 324 679  16
237 101 9  16
101 237 675  16
237 676 675  16
238 677 676  16
323 676 322  16
675 99 100  16
676 321 322  16
676 323 675  16
677 681 320  16
320 321 677  16
318 682 317  16
318 319 678  16
101 675 100  16
679 327 315  16
680 315 316  16
243 682 242  16
319 320 681  16
681 239 240  16
678 242 682  16
682 680 317  16
679 324 325  16
10 160 339  17
686 339 160  17
685 687 686  17
334 687 684  17
337 687 336  17
339 686 338  17
331 683 342  17
329 683 330  17
332 684 328  17
687 685 683  17
334 684 333  17
43 332 328  17
342 683 341  17
328 684 329  17
687 335 336  17
342 44 331  17
687 334 335  17
686 162 685  17
164 685 163  17
162 686 161  17
340 164 21  17
685 164 340  17
341 685 340  17
683 331 330  17
683 329 684  17
684 332 333  17
162 163 685  17
685 341 683  17
686 337 338  17
686 160 161  17
683 684 687  17
687 337 686  17
693 695 337  18
336 695 694  18
693 339 691  18
691 113 114  18
339 693 338  18
694 695 352  18
335 694 690  18
343 347 45  18
688 689 349  18
692 343 344  18
335 689 334  18
692 344 345  18
346 332 692  18
347 688 348  18
343 692 347  18
690 689 335  18
333 689 688  18
689 333 334  18
688 347 692  18
691 114 115  18
695 336 337  18
113 339 10  18
11 355 116  18
693 337 338  18
116 691 115  18
349 348 688  18
688 332 333  18
689 690 350  18
350 349 689  18
690 694 351  18
351 350 690  18
691 116 355  18
355 354 691  18
332 346 43  18
332 688 692  18
693 691 354  18
354 353 693  18
352 351 694  18
694 335 336  18
695 693 353  18
353 352 695  18
339 113 691  18
346 692 345  18
361 698 360  19
698 361 703  19
697 356 357  19
702 358 359  19
360 702 359  19
696 117 118  19
702 360 698  19
701 702 352  19
117 696 355  19
367 699 366  19
366 699 365  19
349 700 348  19
355 11 117  19
347 367 45  19
363 700 362  19
697 701 353  19
347 700 699  19
703 362 700  19
364 363 46  19
700 363 699  19
356 120 12  19
363 364 699  19
120 356 696  19
356 697 696  19
357 701 697  19
358 702 701  19
355 697 354  19
696 118 119  19
697 353 354  19
697 355 696  19
350 703 349  19
350 351 698  19
120 696 119  19
699 367 347  19
700 347 348  19
362 703 361  19
352 353 701  19
701 357 358  19
702 698 351  19
351 352 702  19
703 700 349  19
703 350 698  19
699 364 365  19
363 712 362  20
13 121 391  20
718 721 720  20
717 386 387  20
386 716 385  20
391 705 390  20
390 705 389  20
370 715 371  20
361 712 711  20
705 391 121  20
721 374 373  20
122 713 705  20
713 720 710  20
716 370 369  20
720 713 719  20
370 716 715  20
368 716 369  20
716 368 384  20
374 721 718  20
47 384 368  20
123 719 713  20
376 718 707  20
715 721 372  20
378 707 704  20
707 718 709  20
711 358 359  20
707 378 377  20
381 712 382  20
712 383 382  20
361 711 360  20
383 712 363  20
704 381 380  20
383 363 46  20
706 711 708  20
126 719 125  20
707 714 704  20
706 357 358  20
378 704 379  20
708 714 709  20
130 706 129  20
706 356 357  20
128 708 127  20
356 706 130  20
130 12 356  20
704 380 379  20
714 707 709  20
389 713 388  20
705 121 122  20
129 708 128  20
358 711 706  20
707 377 376  20
708 719 126  20
708 126 127  20
708 129 706  20
720 719 709  20
719 123 124  20
717 716 386  20
713 717 388  20
711 359 360  20
712 714 711  20
712 361 362  20
712 381 704  20
713 389 705  20
713 122 123  20
714 708 711  20
714 712 704  20
372 371 715  20
715 716 710  20
716 384 385  20
716 717 710  20
387 388 717  20
717 713 710  20
718 376 375  20
375 374 718  20
719 124 125  20
719 708 709  20
709 718 720  20
720 715 710  20
373 372 721  20
721 715 720  20
728 729 401  21
723 728 402  21
386 729 728  21
723 384 385  21
729 386 387  21
392 722 404  21
404 48 392  21
722 392 393  21
726 725 391  21
133 726 132  21
727 725 398  21
389 724 388  21
134 726 133  21
396 134 14  21
398 725 397  21
724 387 388  21
724 729 387  21
725 726 396  21
727 390 725  21
131 391 13  21
390 727 389  21
391 131 726  21
384 395 47  21
395 722 394  21
384 723 722  21
385 728 723  21
395 384 722  21
723 404 722  21
722 393 394  21
723 402 403  21
404 723 403  21
399 727 398  21
399 400 724  21
390 391 725  21
725 396 397  21
726 134 396  21
727 399 724  21
724 389 727  21
401 402 728  21
728 385 386  21
729 724 400  21
400 401 729  21
726 131 132  21
410 737 730  22
730 735 409  22
737 412 731  22
731 413 414  22
412 737 411  22
735 408 409  22
408 735 732  22
135 396 14  22
398 736 734  22
733 135 136  22
734 406 407  22
733 136 137  22
138 405 733  22
405 736 733  22
135 733 396  22
732 735 400  22
736 398 397  22
399 734 732  22
736 396 733  22
731 414 415  22
402 737 403  22
413 412 49  22
48 404 416  22
737 402 730  22
416 731 415  22
402 401 730  22
730 409 410  22
731 416 404  22
404 403 731  22
400 399 732  22
408 734 407  22
396 736 397  22
405 138 15  22
734 408 732  22
734 399 398  22
735 730 401  22
401 400 735  22
736 405 406  22
406 734 736  22
737 410 411  22
737 731 403  22
412 413 731  22
138 733 137  22
407 739 408  23
409 739 410  23
139 738 140  23
140 738 141  23
15 143 405  23
738 139 425  23
405 740 406  23
739 740 738  23
420 742 741  23
741 424 423  23
141 740 142  23
422 742 421  23
412 742 422  23
742 420 421  23
738 741 739  23
412 422 49  23
741 738 424  23
743 50 417  23
50 743 423  23
743 419 741  23
740 407 406  23
425 139 16  23
407 740 739  23
740 405 143  23
738 425 424  23
408 739 409  23
420 741 419  23
410 742 411  23
740 143 142  23
740 141 738  23
419 743 418  23
741 742 739  23
742 412 411  23
742 410 739  23
741 423 743  23
743 417 418  23
146 747 145  24
144 747 425  24
745 747 746  24
747 146 746  24
426 744 432  24
428 744 427  24
747 745 424  24
147 746 146  24
51 426 432  24
147 17 430  24
425 16 144  24
423 424 745  24
432 744 431  24
50 423 429  24
428 745 744  24
429 745 428  24
431 746 430  24
744 426 427  24
744 746 431  24
745 429 423  24
746 147 430  24
746 744 745  24
747 424 425  24
747 144 145  24
751 750 749  25
148 430 17  25
148 750 430  25
438 751 748  25
750 150 749  25
438 748 437  25
750 751 431  25
151 749 150  25
436 748 435  25
151 18 433  25
749 151 433  25
436 435 52  25
435 748 434  25
751 749 748  25
439 751 438  25
51 432 439  25
150 750 149  25
748 436 437  25
749 433 434  25
434 748 749  25
750 431 430  25
750 148 149  25
751 439 432  25
432 431 751  25
435 53 52  26
433 441 434  26
53 435 440  26
441 435 434  26
441 433 442  26
435 441 440  26
19 433 18  26
433 19 442  26
752 155 447  27
152 755 442  27
755 754 441  27
754 752 753  27
443 753 449  27
445 753 444  27
755 441 442  27
155 752 154  27
54 443 449  27
155 20 447  27
442 19 152  27
754 755 752  27
448 753 752  27
53 440 446  27
445 754 753  27
446 754 445  27
154 755 153  27
752 447 448  27
753 448 449  27
753 443 444  27
754 446 440  27
440 441 754  27
755 152 153  27
755 154 752  27
760 448 447  28
156 447 20  28
156 760 447  28
452 759 451  28
760 158 756  28
757 756 341  28
448 760 757  28
159 756 158  28
450 759 342  28
159 21 340  28
756 159 340  28
450 342 44  28
341 759 757  28
759 758 757  28
453 758 452  28
54 449 453  28
158 760 157  28
756 340 341  28
759 452 758  28
448 758 449  28
758 453 449  28
758 448 757  28
759 341 342  28
759 450 451  28
760 156 157  28
760 756 757  28
763 456 762  29
462 762 463  29
457 763 458  29
761 461 460  29
454 762 455  29
762 464 463  29
464 454 55  29
455 762 456  29
467 462 56  29
762 454 464  29
466 763 762  29
198 761 199  29
761 466 465  29
461 198 30  29
461 761 198  29
200 761 465  29
459 763 761  29
465 31 200  29
456 763 457  29
761 200 199  29
761 460 459  29
762 462 467  29
467 466 762  29
763 466 761  29
763 459 458  29
777 771 772  30
205 773 765  30
25 771 182  30
486 764 487  30
770 782 780  30
776 483 484  30
477 778 476  30
776 787 780  30
470 787 469  30
794 785 772  30
787 57 468  30
479 770 478  30
782 480 481  30
480 782 770  30
483 782 482  30
779 778 770  30
480 770 479  30
779 475 778  30
470 788 787  30
475 779 474  30
764 795 794  30
770 792 779  30
58 781 485  30
474 779 473  30
486 795 764  30
765 793 771  30
781 795 485  30
773 205 206  30
176 769 175  30
205 765 23  30
23 765 178  30
773 206 207  30
765 771 769  30
773 207 208  30
784 789 785  30
793 764 772  30
768 796 789  30
204 768 203  30
766 187 188  30
487 791 32  30
764 793 791  30
796 785 789  30
201 774 31  30
29 768 204  30
766 186 187  30
766 29 186  30
203 768 202  30
466 767 467  30
466 775 767  30
177 769 176  30
177 178 765  30
202 774 201  30
188 783 766  30
790 795 792  30
467 788 56  30
465 784 775  30
768 29 766  30
25 175 769  30
769 177 765  30
478 778 477  30
469 787 468  30
182 777 27  30
771 25 769  30
789 784 774  30
771 777 182  30
208 791 773  30
791 487 764  30
31 784 465  30
774 202 768  30
794 772 764  30
775 466 465  30
776 484 57  30
57 787 776  30
796 768 766  30
27 783 189  30
475 476 778  30
778 478 770  30
472 781 58  30
473 781 472  30
782 483 776  30
780 790 770  30
795 486 485  30
781 473 779  30
481 482 782  30
782 776 780  30
783 188 189  30
783 27 777  30
785 794 775  30
784 31 774  30
777 772 785  30
785 775 784  30
788 470 471  30
788 471 56  30
787 788 786  30
786 780 787  30
788 467 767  30
767 786 788  30
774 768 789  30
785 796 777  30
790 780 786  30
786 767 790  30
793 765 773  30
791 208 32  30
781 779 792  30
792 770 790  30
772 771 793  30
793 773 791  30
767 795 790  30
767 775 794  30
795 781 792  30
795 767 794  30
796 766 783  30
783 777 796  30
485 488 58  31
495 798 494  31
801 495 496  31
59 801 497  31
495 801 798  31
799 494 798  31
497 801 496  31
489 797 211  31
800 209 210  31
489 211 33  31
211 797 210  31
800 799 798  31
491 800 797  31
800 491 799  31
494 799 493  31
486 800 798  31
209 800 487  31
487 32 209  31
797 489 490  31
490 491 797  31
485 801 488  31
485 486 798  31
799 491 492  31
492 493 799  31
800 486 487  31
800 210 797  31
801 59 488  31
801 485 798  31
505 284 285  32
496 812 495  32
59 290 38  32
506 285 286  32
810 831 806  32
273 812 496  32
379 220 378  32
272 496 497  32
267 827 266  32
512 297 513  32
228 369 227  32
420 459 419  32
439 192 438  32
28 439 51  32
282 501 281  32
500 281 501  32
39 60 514  32
298 513 297  32
295 55 40  32
511 296 512  32
60 278 498  32
513 298 514  32
297 512 296  32
39 514 298  32
55 295 511  32
314 838 313  32
296 511 295  32
40 55 302  32
803 42 311  32
302 55 454  32
455 816 299  32
838 811 841  32
226 370 371  32
313 838 312  32
838 837 811  32
803 312 838  32
820 835 828  32
832 228 35  32
828 324 325  32
835 820 808  32
455 301 454  32
300 455 299  32
837 314 41  32
370 226 227  32
35 839 832  32
839 35 324  32
226 371 225  32
222 375 376  32
282 502 501  32
498 279 499  32
500 280 281  32
278 60 39  32
280 500 499  32
280 499 279  32
279 498 278  32
503 283 504  32
283 503 282  32
502 282 503  32
285 506 505  32
284 505 504  32
504 283 284  32
509 288 289  32
377 220 221  32
286 507 506  32
825 823 833  32
509 289 510  32
507 287 508  32
287 507 286  32
288 509 508  32
508 287 288  32
59 270 497  32
826 345 346  32
271 497 270  32
270 59 38  32
290 59 510  32
510 289 290  32
496 272 273  32
497 271 272  32
817 824 807  32
43 826 346  32
493 328 492  32
810 834 827  32
269 810 268  32
821 247 809  32
812 273 274  32
37 834 812  32
834 810 802  32
46 819 813  32
819 46 364  32
34 809 248  32
220 377 378  32
376 221 222  32
221 376 377  32
220 379 219  32
219 380 218  32
380 219 379  32
218 381 217  32
381 218 380  32
217 382 216  32
382 217 381  32
813 809 34  32
216 813 34  32
216 382 383  32
245 831 36  32
831 821 825  32
365 830 819  32
831 810 269  32
366 830 365  32
830 809 819  32
365 819 364  32
343 817 833  32
833 45 343  32
490 44 489  32
490 330 331  32
329 492 328  32
328 814 43  32
44 490 331  32
491 329 330  32
329 491 492  32
330 490 491  32
452 213 212  32
215 54 22  32
33 450 451  32
452 214 213  32
452 212 451  32
214 452 453  32
33 451 212  32
214 453 215  32
450 33 489  32
489 44 450  32
302 454 301  32
301 455 300  32
169 444 170  32
443 168 22  32
443 22 54  32
54 215 453  32
445 171 170  32
168 443 169  32
190 437 191  32
171 445 24  32
53 24 446  32
52 26 24  32
24 445 446  32
224 372 373  32
445 170 444  32
444 169 443  32
436 26 52  32
52 24 53  32
437 26 436  32
26 437 190  32
438 192 191  32
191 437 438  32
225 372 224  32
372 225 371  32
375 222 223  32
224 374 223  32
375 223 374  32
374 224 373  32
395 835 394  32
835 395 839  32
839 47 832  32
370 227 369  32
369 228 368  32
422 458 421  32
421 459 420  32
42 820 327  32
393 835 804  32
393 804 392  32
422 836 458  32
326 828 325  32
829 416 818  32
414 829 822  32
414 822 413  32
413 822 49  32
49 836 422  32
815 836 822  32
459 421 458  32
460 419 459  32
30 428 429  32
460 417 418  32
461 50 417  32
419 460 418  32
417 460 461  32
427 195 426  32
50 461 429  32
197 427 428  32
30 429 461  32
196 427 197  32
195 427 196  32
428 30 197  32
426 195 194  32
194 51 426  32
28 51 194  32
192 439 193  32
439 28 193  32
45 833 823  32
494 495 802  32
820 42 803  32
818 48 804  32
48 818 416  32
48 392 804  32
840 837 816  32
456 841 840  32
45 823 367  32
802 807 494  32
493 824 814  32
807 802 806  32
803 805 808  32
416 829 415  32
247 821 246  32
247 248 809  32
806 802 810  32
810 267 268  32
456 805 841  32
838 314 837  32
274 37 812  32
812 802 495  32
813 216 383  32
383 46 813  32
814 328 493  32
345 826 817  32
805 818 808  32
805 457 815  32
41 816 837  32
816 455 456  32
817 344 345  32
817 826 824  32
804 808 818  32
818 805 815  32
809 830 821  32
809 813 819  32
326 327 820  32
820 803 808  32
807 833 817  32
821 245 246  32
822 829 815  32
836 815 457  32
825 807 806  32
823 366 367  32
824 493 494  32
494 807 824  32
831 245 821  32
825 830 823  32
826 43 814  32
814 824 826  32
827 37 266  32
827 267 810  32
828 326 820  32
839 324 828  32
818 815 829  32
829 414 415  32
830 366 823  32
830 825 821  32
825 806 831  32
831 269 36  32
47 839 395  32
47 368 832  32
817 343 344  32
833 807 825  32
802 812 834  32
834 37 827  32
835 808 804  32
835 393 394  32
457 458 836  32
836 49 822  32
816 41 299  32
837 840 811  32
803 841 805  32
312 803 311  32
839 828 835  32
228 832 368  32
840 841 811  32
816 456 840  32
805 456 457  32
841 803 838  32
463 843 842  33
55 511 464  33
516 843 515  33
842 471 462  33
511 843 464  33
462 471 56  33
471 842 470  33
843 516 842  33
470 842 469  33
843 514 515  33
514 843 513  33
468 842 516  33
516 57 468  33
515 514 60  33
843 463 464  33
842 468 469  33
842 462 463  33
843 511 512  33
512 513 843  33
506 845 844  34
498 846 515  34
482 848 481  34
500 846 499  34
515 846 516  34
480 849 479  34
500 848 846  34
849 502 503  34
845 506 507  34
846 482 483  34
498 515 60  34
57 516 484  34
848 480 481  34
502 848 501  34
484 846 483  34
502 849 848  34
478 844 477  34
478 849 844  34
849 480 848  34
508 847 845  34
847 508 509  34
472 488 58  34
472 847 488  34
847 472 473  34
845 476 844  34
476 845 475  34
510 847 509  34
506 844 505  34
508 845 507  34
488 510 59  34
504 849 503  34
504 505 844  34
844 476 477  34
474 847 473  34
474 475 845  34
846 484 516  34
846 498 499  34
847 510 488  34
847 474 845  34
848 482 846  34
848 500 501  34
849 504 844  34
849 478 479  34
Edges
546
1 61  1
61 62  1
62 63  1
63 64  1
64 2  1
2 65  2
65 66  2
66 67  2
67 68  2
68 3  2
4 69  3
69 70  3
70 71  3
71 72  3
72 73  3
73 3  3
4 74  4
74 75  4
75 76  4
76 77  4
77 78  4
78 79  4
79 80  4
80 81  4
81 82  4
82 83  4
83 84  4
84 85  4
85 86  4
86 5  4
5 87  5
87 88  5
88 89  5
89 90  5
90 6  5
7 91  6
91 92  6
92 93  6
93 6  6
7 94  7
94 95  7
95 96  7
96 97  7
97 8  7
8 98  8
98 99  8
99 100  8
100 101  8
101 9  8
1 102  9
102 103  9
103 104  9
104 105  9
105 106  9
106 107  9
107 108  9
108 109  9
109 110  9
110 111  9
111 112  9
112 9  9
10 113  10
113 114  10
114 115  10
115 116  10
116 11  10
11 117  11
117 118  11
118 119  11
119 120  11
120 12  11
13 121  12
121 122  12
122 123  12
123 124  12
124 125  12
125 126  12
126 127  12
127 128  12
128 129  12
129 130  12
130 12  12
13 131  13
131 132  13
132 133  13
133 134  13
134 14  13
14 135  14
135 136  14
136 137  14
137 138  14
138 15  14
16 139  15
139 140  15
140 141  15
141 142  15
142 143  15
143 15  15
16 144  16
144 145  16
145 146  16
146 147  16
147 17  16
17 148  17
148 149  17
149 150  17
150 151  17
151 18  17
19 18  18
19 152  19
152 153  19
153 154  19
154 155  19
155 20  19
20 156  20
156 157  20
157 158  20
158 159  20
159 21  20
10 160  21
160 161  21
161 162  21
162 163  21
163 164  21
164 21  21
22 165  22
165 166  22
166 167  22
167 23  22
22 168  23
168 169  23
169 170  23
170 171  23
171 24  23
24 172  24
172 173  24
173 174  24
174 25  24
25 175  25
175 176  25
176 177  25
177 178  25
178 23  25
26 24  26
27 179  27
179 180  27
180 181  27
181 26  27
25 182  28
182 27  28
28 183  29
183 184  29
184 185  29
185 29  29
29 186  30
186 187  30
187 188  30
188 189  30
189 27  30
26 190  31
190 191  31
191 192  31
192 193  31
193 28  31
28 194  32
194 195  32
195 196  32
196 197  32
197 30  32
30 198  33
198 199  33
199 200  33
200 31  33
31 201  34
201 202  34
202 203  34
203 204  34
204 29  34
23 205  35
205 206  35
206 207  35
207 208  35
208 32  35
32 209  36
209 210  36
210 211  36
211 33  36
33 212  37
212 213  37
213 214  37
214 215  37
215 22  37
34 216  38
216 217  38
217 218  38
218 219  38
219 220  38
220 221  38
221 222  38
222 223  38
223 224  38
224 225  38
225 226  38
226 227  38
227 228  38
228 35  38
34 229  39
229 230  39
230 231  39
231 232  39
232 233  39
233 234  39
234 235  39
235 236  39
236 1  39
9 237  40
237 238  40
238 239  40
239 240  40
240 241  40
241 242  40
242 243  40
243 244  40
244 35  40
36 245  41
245 246  41
246 247  41
247 248  41
248 34  41
2 249  42
249 250  42
250 251  42
251 252  42
252 253  42
253 254  42
254 255  42
255 256  42
256 257  42
257 36  42
3 258  43
258 259  43
259 260  43
260 261  43
261 262  43
262 263  43
263 264  43
264 265  43
265 37  43
37 266  44
266 267  44
267 268  44
268 269  44
269 36  44
38 270  45
270 271  45
271 272  45
272 273  45
273 274  45
274 37  45
38 275  46
275 276  46
276 277  46
277 4  46
39 278  47
278 279  47
279 280  47
280 281  47
281 282  47
282 283  47
283 284  47
284 285  47
285 286  47
286 287  47
287 288  47
288 289  47
289 290  47
290 38  47
5 291  48
291 39  48
6 292  49
292 293  49
293 294  49
294 40  49
40 295  50
295 296  50
296 297  50
297 298  50
298 39  50
41 299  51
299 300  51
300 301  51
301 302  51
302 40  51
41 303  52
303 304  52
304 305  52
305 306  52
306 307  52
307 308  52
308 309  52
309 310  52
310 7  52
42 311  53
311 312  53
312 313  53
313 314  53
314 41  53
42 315  54
315 316  54
316 317  54
317 318  54
318 319  54
319 320  54
320 321  54
321 322  54
322 323  54
323 8  54
35 324  55
324 325  55
325 326  55
326 327  55
327 42  55
43 328  56
328 329  56
329 330  56
330 331  56
331 44  56
43 332  57
332 333  57
333 334  57
334 335  57
335 336  57
336 337  57
337 338  57
338 339  57
339 10  57
21 340  58
340 341  58
341 342  58
342 44  58
45 343  59
343 344  59
344 345  59
345 346  59
346 43  59
45 347  60
347 348  60
348 349  60
349 350  60
350 351  60
351 352  60
352 353  60
353 354  60
354 355  60
355 11  60
12 356  61
356 357  61
357 358  61
358 359  61
359 360  61
360 361  61
361 362  61
362 363  61
363 46  61
46 364  62
364 365  62
365 366  62
366 367  62
367 45  62
47 368  63
368 369  63
369 370  63
370 371  63
371 372  63
372 373  63
373 374  63
374 375  63
375 376  63
376 377  63
377 378  63
378 379  63
379 380  63
380 381  63
381 382  63
382 383  63
383 46  63
47 384  64
384 385  64
385 386  64
386 387  64
387 388  64
388 389  64
389 390  64
390 391  64
391 13  64
48 392  65
392 393  65
393 394  65
394 395  65
395 47  65
14 396  66
396 397  66
397 398  66
398 399  66
399 400  66
400 401  66
401 402  66
402 403  66
403 404  66
404 48  66
15 405  67
405 406  67
406 407  67
407 408  67
408 409  67
409 410  67
410 411  67
411 412  67
412 49  67
49 413  68
413 414  68
414 415  68
415 416  68
416 48  68
50 417  69
417 418  69
418 419  69
419 420  69
420 421  69
421 422  69
422 49  69
50 423  70
423 424  70
424 425  70
425 16  70
51 426  71
426 427  71
427 428  71
428 429  71
429 50  71
17 430  72
430 431  72
431 432  72
432 51  72
18 433  73
433 434  73
434 435  73
435 52  73
52 436  74
436 437  74
437 438  74
438 439  74
439 51  74
53 52  75
53 440  76
440 441  76
441 442  76
442 19  76
54 443  77
443 444  77
444 445  77
445 446  77
446 53  77
20 447  78
447 448  78
448 449  78
449 54  78
44 450  79
450 451  79
451 452  79
452 453  79
453 54  79
55 454  80
454 455  80
455 456  80
456 457  80
457 458  80
458 459  80
459 460  80
460 461  80
461 30  80
56 462  81
462 463  81
463 464  81
464 55  81
31 465  82
465 466  82
466 467  82
467 56  82
57 468  83
468 469  83
469 470  83
470 471  83
471 56  83
58 472  84
472 473  84
473 474  84
474 475  84
475 476  84
476 477  84
477 478  84
478 479  84
479 480  84
480 481  84
481 482  84
482 483  84
483 484  84
484 57  84
58 485  85
485 486  85
486 487  85
487 32  85
59 488  86
488 58  86
33 489  87
489 490  87
490 491  87
491 492  87
492 493  87
493 494  87
494 495  87
495 496  87
496 497  87
497 59  87
60 498  88
498 499  88
499 500  88
500 501  88
501 502  88
502 503  88
503 504  88
504 505  88
505 506  88
506 507  88
507 508  88
508 509  88
509 510  88
510 59  88
55 511  89
511 512  89
512 513  89
513 514  89
514 60  89
60 515  90
515 516  90
516 57  90
End
