205 3 0 0            
       1 -0.220736000000E+00 -0.808367000000E+00  0.817487000000E+00
       2 -0.496151000000E+00 -0.107715000000E+01  0.770684000000E+00
       3 -0.619006000000E+00 -0.108135000000E+01  0.869441000000E+00
       4 -0.378776000000E+00 -0.923515000000E+00  0.817289000000E+00
       5 -0.616266000000E+00 -0.115607000000E+01  0.796760000000E+00
       6 -0.498891000000E+00 -0.100243000000E+01  0.843365000000E+00
       7 -0.690361000000E-01 -0.663443000000E+00  0.922583000000E+00
       8 -0.318719000000E+00 -0.884057000000E+00  0.804251000000E+00
       9 -0.656931000000E+00 -0.111758000000E+01  0.843167000000E+00
      10 -0.556208000000E+00 -0.111661000000E+01  0.783722000000E+00
      11 -0.416701000000E+00 -0.959746000000E+00  0.791015000000E+00
      12 -0.558948000000E+00 -0.104189000000E+01  0.856403000000E+00
      13 -0.536816000000E+00 -0.103866000000E+01  0.817091000000E+00
      14 -0.106961000000E+00 -0.699674000000E+00  0.896309000000E+00
      15 -0.340851000000E+00 -0.887285000000E+00  0.843563000000E+00
      16 -0.302926000000E+00 -0.851054000000E+00  0.869837000000E+00
      17 -0.204944000000E+00 -0.775364000000E+00  0.883073000000E+00
      18 -0.676323000000E+00 -0.119553000000E+01  0.809798000000E+00
      19 -0.716988000000E+00 -0.115704000000E+01  0.856205000000E+00
      20 -0.644310000000E+00 -0.112735000000E+01  0.908431000000E+00
      21 -0.635658000000E+00 -0.123401000000E+01  0.763392000000E+00
      22 -0.575601000000E+00 -0.119456000000E+01  0.750354000000E+00
      23 -0.515544000000E+00 -0.115510000000E+01  0.737316000000E+00
      24 -0.423041000000E+00 -0.929971000000E+00  0.895913000000E+00
      25 -0.362983000000E+00 -0.890512000000E+00  0.882875000000E+00
      26 -0.395429000000E+00 -0.107618000000E+01  0.711240000000E+00
      27 -0.436094000000E+00 -0.103769000000E+01  0.757646000000E+00
      28 -0.476758000000E+00 -0.999205000000E+00  0.804053000000E+00
      29 -0.376036000000E+00 -0.998234000000E+00  0.744608000000E+00
      30 -0.325058000000E+00 -0.854282000000E+00  0.909149000000E+00
      31 -0.265001000000E+00 -0.814823000000E+00  0.896111000000E+00
      32 -0.280794000000E+00 -0.847826000000E+00  0.830525000000E+00
      33 -0.356644000000E+00 -0.920287000000E+00  0.777977000000E+00
      34 -0.296586000000E+00 -0.880829000000E+00  0.764939000000E+00
      35 -0.242869000000E+00 -0.811595000000E+00  0.856799000000E+00
      36 -0.315979000000E+00 -0.958775000000E+00  0.731570000000E+00
      37 -0.227076000000E+00 -0.778592000000E+00  0.922385000000E+00
      38 -0.182811000000E+00 -0.772136000000E+00  0.843761000000E+00
      39 -0.258661000000E+00 -0.844598000000E+00  0.791213000000E+00
      40 -0.198604000000E+00 -0.805139000000E+00  0.778175000000E+00
      41 -0.129093000000E+00 -0.702902000000E+00  0.935621000000E+00
      42  0.289463000000E-01 -0.587754000000E+00  0.935819000000E+00
      43 -0.848288000000E-01 -0.696446000000E+00  0.856997000000E+00
      44 -0.469037000000E-01 -0.660216000000E+00  0.883271000000E+00
      45 -0.897870000000E-02 -0.623985000000E+00  0.909545000000E+00
      46 -0.992971000000E-01 -0.693916000000E+00  0.794995000000E+00
      47 -0.613720000000E-01 -0.657685000000E+00  0.821269000000E+00
      48 -0.234470000000E-01 -0.621454000000E+00  0.847543000000E+00
      49 -0.438833000000E+00 -0.962974000000E+00  0.830327000000E+00
      50 -0.460966000000E+00 -0.966202000000E+00  0.869639000000E+00
      51 -0.607650000000E+00 -0.125247000000E+01  0.942921000000E+00
      52 -0.644945000000E+00 -0.118404000000E+01  0.930093000000E+00
      53 -0.572267000000E+00 -0.115435000000E+01  0.982319000000E+00
      54 -0.473650000000E+00 -0.102197000000E+01  0.973892000000E+00
      55 -0.321631372709E+00 -0.986878340559E+00  0.100252625007E+01
      56 -0.448346000000E+00 -0.975969000000E+00  0.934903000000E+00
      57 -0.375668000000E+00 -0.946278000000E+00  0.987128000000E+00
      58 -0.327712440399E+00 -0.111482732923E+01  0.887317797863E+00
      59 -0.282030646129E+00 -0.108689545731E+01  0.915903105453E+00
      60 -0.315474636457E+00 -0.113826454723E+01  0.811160851892E+00
      61 -0.302990000000E+00 -0.916586000000E+00  0.103935000000E+01
      62 -0.350363000000E+00 -0.900280000000E+00  0.948139000000E+00
      63 -0.283220318371E+00 -0.101188134603E+01  0.951635183870E+00
      64 -0.250778945274E+00 -0.959429853433E+00  0.101744371486E+01
      65 -0.384163409225E+00 -0.113844952723E+01  0.767154022928E+00
      66 -0.310132293140E+00 -0.117631923776E+01  0.753185350974E+00
      67 -0.249858365929E+00 -0.113042753812E+01  0.865903564931E+00
      68 -0.235772518204E+00 -0.114874837016E+01  0.786476191379E+00
      69 -0.377608061823E+00 -0.111206579083E+01  0.703037948567E+00
      70 -0.233012050176E+00 -0.101811196983E+01  0.901903145424E+00
      71 -0.169060672484E+00 -0.110297938642E+01  0.856101661694E+00
      72 -0.301503672163E+00 -0.111300111973E+01  0.698251597269E+00
      73 -0.147832124773E+00 -0.862787929018E+00  0.100550354868E+01
      74 -0.226693514897E+00 -0.843217648646E+00  0.984983645300E+00
      75 -0.247745797601E+00 -0.115553112876E+01  0.678116395205E+00
      76 -0.196896737850E+00 -0.116581362627E+01  0.730313835852E+00
      77 -0.190595177229E+00 -0.109427867313E+01  0.771506643179E+00
      78 -0.179703000000E+00 -0.794898000000E+00  0.101360000000E+01
      79 -0.294707000000E+00 -0.107521000000E+01  0.651795000000E+00
      80 -0.904300000000E-02 -0.689517000000E+00  0.107906000000E+01
      81  0.701352000000E-01 -0.680585000000E+00  0.108528000000E+01
      82 -0.365604299285E-01 -0.886132909442E+00  0.819921401308E+00
      83  0.456027165284E-01 -0.802722268911E+00  0.828223323136E+00
      84  0.180594076590E-01 -0.842990689089E+00  0.784872805031E+00
      85 -0.758403000000E-01 -0.655155000000E+00  0.759268000000E+00
      86 -0.112467721423E-01 -0.851285012334E+00  0.754964932747E+00
      87 -0.113765000000E+00 -0.691386000000E+00  0.732994000000E+00
      88 -0.630807426391E-01 -0.731905917817E+00  0.726786579971E+00
      89  0.658032747077E-01 -0.794278391231E+00  0.759387892062E+00
      90 -0.379152000000E-01 -0.618924000000E+00  0.785542000000E+00
      91  0.980000000000E-05 -0.582693000000E+00  0.811816000000E+00
      92  0.820088469968E-01 -0.759267958788E+00  0.772873817550E+00
      93 -0.523835000000E-01 -0.616394000000E+00  0.723540000000E+00
      94  0.944741114425E-01 -0.603167626950E+00  0.831249908712E+00
      95 -0.144585000000E-01 -0.580163000000E+00  0.749814000000E+00
      96  0.676363256645E-02 -0.721857634243E+00  0.699179820397E+00
      97  0.234666000000E-01 -0.543932000000E+00  0.776088000000E+00
      98  0.950221483605E-01 -0.669835169974E+00  0.765131675239E+00
      99 -0.289268000000E-01 -0.577632000000E+00  0.687812000000E+00
     100  0.899830000000E-02 -0.541401000000E+00  0.714086000000E+00
     101 -0.639028000000E+00 -0.126396000000E+01  0.822626000000E+00
     102 -0.679693000000E+00 -0.122547000000E+01  0.869033000000E+00
     103 -0.564109185407E+00 -0.119859123340E+01  0.922026325773E+00
     104 -0.535013269696E+00 -0.127200169720E+01  0.760096307993E+00
     105 -0.598363000000E+00 -0.130244000000E+01  0.776220000000E+00
     106 -0.510442310560E+00 -0.123998926672E+01  0.873979435681E+00
     107 -0.571633000000E+00 -0.109766000000E+01  0.960656000000E+00
     108 -0.546328000000E+00 -0.105166000000E+01  0.921667000000E+00
     109 -0.503634756541E+00 -0.115328152114E+01  0.943024495189E+00
     110 -0.594994000000E+00 -0.127250000000E+01  0.716985000000E+00
     111 -0.433084464417E+00 -0.109354831590E+01  0.996174159752E+00
     112 -0.462189456877E+00 -0.127480276477E+01  0.820663875106E+00
     113 -0.450069492805E+00 -0.118064367068E+01  0.876345141624E+00
     114 -0.534936000000E+00 -0.123304000000E+01  0.703947000000E+00
     115 -0.521023000000E+00 -0.100566000000E+01  0.882677000000E+00
     116 -0.411940085672E+00 -0.115396399642E+01  0.927640442064E+00
     117 -0.480288678005E+00 -0.123382607833E+01  0.741736985783E+00
     118 -0.428283062142E+00 -0.120555312383E+01  0.794366374416E+00
     119 -0.396868795930E+00 -0.113461811826E+01  0.857419618554E+00
     120 -0.405538722796E+00 -0.105886804549E+01  0.922051002655E+00
     121 -0.423722287041E+00 -0.967730072315E+00  0.937645635650E+00
     122 -0.356803651777E+00 -0.103494816352E+01  0.969203634575E+00
     123 -0.474879000000E+00 -0.119358000000E+01  0.690909000000E+00
     124 -0.386789735149E+00 -0.118384031228E+01  0.719286207464E+00
     125 -0.455486000000E+00 -0.111564000000E+01  0.724278000000E+00
     126 -0.414822000000E+00 -0.115413000000E+01  0.677871000000E+00
     127 -0.277685000000E+00 -0.870588000000E+00  0.100036000000E+01
     128 -0.247135551390E+00 -0.882263952390E+00  0.100766071783E+01
     129 -0.224413879853E+00 -0.949986101219E+00  0.960460146576E+00
     130 -0.354764000000E+00 -0.111467000000E+01  0.664833000000E+00
     131 -0.252381000000E+00 -0.824590000000E+00  0.961375000000E+00
     132 -0.335372000000E+00 -0.103672000000E+01  0.698202000000E+00
     133 -0.157208495689E+00 -0.906408575165E+00  0.951749966011E+00
     134 -0.154398000000E+00 -0.748900000000E+00  0.974611000000E+00
     135 -0.178836246353E+00 -0.964567295448E+00  0.888255427442E+00
     136 -0.178899047639E+00 -0.101731617284E+01  0.811980896893E+00
     137 -0.111066643532E+00 -0.800416003706E+00  0.990039450197E+00
     138 -0.785516608991E-01 -0.909896068814E+00  0.915356467035E+00
     139 -0.125065626197E+00 -0.103350882591E+01  0.857542152621E+00
     140 -0.817206000000E-01 -0.719209000000E+00  0.102684000000E+01
     141 -0.637748866862E-01 -0.808125456852E+00  0.990109074599E+00
     142 -0.275314000000E+00 -0.997262000000E+00  0.685164000000E+00
     143 -0.216877408725E+00 -0.102466935364E+01  0.733551287502E+00
     144 -0.102507415042E+00 -0.858332443671E+00  0.948194066441E+00
     145 -0.131058236145E-01 -0.861754006054E+00  0.988359514149E+00
     146 -0.943542910176E-01 -0.952022413902E+00  0.858904327559E+00
     147 -0.266356408236E-01 -0.743919171184E+00  0.996823128085E+00
     148 -0.996393735453E-01 -0.101018698429E+01  0.800787377527E+00
     149 -0.255922000000E+00 -0.919316000000E+00  0.718532000000E+00
     150 -0.169779430326E-02 -0.873479289519E+00  0.904346748054E+00
     151 -0.244611000000E+00 -0.958985000000E+00  0.657828000000E+00
     152  0.129756970087E-01 -0.796096843156E+00  0.974474566381E+00
     153  0.557219166193E-01 -0.738706641757E+00  0.104478873350E+01
     154 -0.129733131301E+00 -0.101842687377E+01  0.741867547572E+00
     155 -0.236529000000E+00 -0.841370000000E+00  0.751901000000E+00
     156 -0.109358873522E+00 -0.895694054659E+00  0.814509758436E+00
     157 -0.176265219523E+00 -0.951184501249E+00  0.710095026961E+00
     158  0.162618000000E-01 -0.643519000000E+00  0.104007000000E+01
     159  0.954400000000E-01 -0.634587000000E+00  0.104629000000E+01
     160 -0.225218000000E+00 -0.881039000000E+00  0.691197000000E+00
     161 -0.160679000000E+00 -0.768908000000E+00  0.804449000000E+00
     162  0.121546188334E+00 -0.724764156149E+00  0.104801830309E+01
     163 -0.564158000000E-01 -0.673211000000E+00  0.987847000000E+00
     164 -0.948427367647E-01 -0.965410964204E+00  0.737496958403E+00
     165 -0.213072000000E+00 -0.802609000000E+00  0.716173000000E+00
     166  0.415666000000E-01 -0.597521000000E+00  0.100108000000E+01
     167 -0.154392048529E+00 -0.924458231954E+00  0.654192246355E+00
     168  0.185853570778E-01 -0.798270853496E+00  0.890258610120E+00
     169 -0.725391911736E-01 -0.885906578801E+00  0.747415627808E+00
     170  0.990511643648E-01 -0.756599413890E+00  0.962776138120E+00
     171 -0.133009427250E+00 -0.817198226688E+00  0.737134025294E+00
     172 -0.122754000000E+00 -0.732677000000E+00  0.830723000000E+00
     173 -0.137222000000E+00 -0.730147000000E+00  0.768721000000E+00
     174  0.153580316821E+00 -0.774327874067E+00  0.922664805320E+00
     175  0.135377186472E+00 -0.661453822442E+00  0.986988830945E+00
     176  0.146467000000E+00 -0.555737000000E+00  0.972628000000E+00
     177  0.668714000000E-01 -0.551523000000E+00  0.962093000000E+00
     178  0.155976464690E+00 -0.698140907377E+00  0.931913067216E+00
     179  0.144781000000E-01 -0.585224000000E+00  0.873817000000E+00
     180  0.104998614294E+00 -0.764969323411E+00  0.842067979335E+00
     181  0.189012695059E+00 -0.644550015670E+00  0.949900751430E+00
     182  0.524031000000E-01 -0.548993000000E+00  0.900091000000E+00
     183 -0.523946371585E-01 -0.813978704323E+00  0.700015305413E+00
     184  0.159481239728E+00 -0.649427343314E+00  0.878759834644E+00
     185  0.379348000000E-01 -0.546462000000E+00  0.838090000000E+00
     186  0.110281235525E+00 -0.557872961582E+00  0.873750875556E+00
     187  0.129250788090E+00 -0.675643793014E+00  0.850427443248E+00
     188 -0.144886000000E+00 -0.735905000000E+00  0.870035000000E+00
     189 -0.400908000000E+00 -0.926743000000E+00  0.856601000000E+00
     190 -0.167018000000E+00 -0.739133000000E+00  0.909347000000E+00
     191 -0.311110000000E-01 -0.627213000000E+00  0.948857000000E+00
     192 -0.572902000000E+00 -0.121105000000E+01  0.100398000000E+01
     193 -0.327220922421E+00 -0.106409412027E+01  0.920615353962E+00
     194 -0.148395941218E+00 -0.110887652135E+01  0.764075061346E+00
     195 -0.191657263286E+00 -0.110874327393E+01  0.679568983806E+00
     196 -0.903086000000E-01 -0.652624000000E+00  0.697266000000E+00
     197 -0.176240771472E-01 -0.798883237322E+00  0.691859596910E+00
     198  0.963069460340E-01 -0.598207903863E+00  0.728223417305E+00
     199  0.309059359299E-01 -0.635789829167E+00  0.690811040460E+00
     200 -0.510656639462E+00 -0.107875889025E+01  0.987256221349E+00
     201 -0.149953195080E+00 -0.845449954726E+00  0.683336013778E+00
     202 -0.175147000000E+00 -0.766378000000E+00  0.742447000000E+00
     203  0.157637304843E+00 -0.726600545229E+00  0.860812222228E+00
     204  0.162675597197E+00 -0.581460826304E+00  0.881152074073E+00
     205 -0.596873000000E+00 -0.107812000000E+01  0.830129000000E+00
406 0
1
3       1       8      39
1
3       2      13      10
1
3       3       9      12
1
3       4      11       8
1
3       5      10     205
1
3       6      12     205
1
3       7      14      45
1
3       8       1      32
1
3       9       5     205
1
3      10      13     205
1
3      11      29      33
1
3      12       9     205
1
3      13       6     205
1
3      14      44      45
1
3       8      11      33
1
3      15      16     189
1
3      16      25     189
1
3      17      14     190
1
3      17     188      14
1
3      18       9      19
1
3      19      20      52
1
3      19       3      20
1
3       9       3      19
1
3      18      21       5
1
3      18       5       9
1
3      20       3     108
1
3      21      22       5
1
3       5      22      10
1
3       3     115     108
1
3       3      12     115
1
3      22      23      10
1
3      10      23       2
1
3      12      50     115
1
3      23     125       2
1
3      12       6      50
1
3       2     125      27
1
3      24      30      62
1
3      24      25      30
1
3      24      50      25
1
3      25      50     189
1
3      26      29      27
1
3      27      29      11
1
3      27      11      28
1
3      11       4      28
1
3      28       4      49
1
3      26     132      29
1
3       4      15      49
1
3      15     189      49
1
3      29      36      33
1
3      29     132      36
1
3      30      25      31
1
3      31      25      16
1
3      15       4      32
1
3      32       4       8
1
3      33      36      34
1
3      33      39       8
1
3      34      39      33
1
3      16      15      35
1
3      35      15      32
1
3      16      17      31
1
3      36     149      34
1
3      31     190      37
1
3      35      17      16
1
3      37      41     134
1
3      37     190      41
1
3      31      17     190
1
3      35      38     188
1
3      35     188      17
1
3      35      32      38
1
3      38      32       1
1
3      39      34      40
1
3      39     161       1
1
3       1     172      38
1
3      40     161      39
1
3      41     191     163
1
3      41       7     191
1
3      38      43     188
1
3       1     161     172
1
3      41     190       7
1
3       7     190      14
1
3      38     172      43
1
3       7      45      42
1
3      42     191       7
1
3      43      44     188
1
3      44      14     188
1
3      43      47      44
1
3      43      46      47
1
3      44      47      48
1
3      44      48      45
1
3      45     179      42
1
3      46      85      47
1
3      47      85      90
1
3      48     179      45
1
3      49      13      28
1
3      13       2      28
1
3      13      49       6
1
3      28       2      27
1
3      50       6     189
1
3       6      49     189
1
3      51      52     192
1
3      51     192     103
1
3      52      53     192
1
3      53     103     192
1
3      54      56     120
1
3      55      57      61
1
3      56      62      57
1
3      56      57     121
1
3      56      24      62
1
3      57      55      63
1
3     58     193      59
1
3      55      61      64
1
3      57     127      61
1
3      59     193      63
1
3      55      64      63
1
3      58      59      67
1
3      60      58      67
1
3      61     128      64
1
3      62     127      57
1
3      63      70      59
1
3      64     129      63
1
3      65      60      66
1
3      61     127     128
1
3      59      70      67
1
3      64     128     129
1
3     65      66      69
1
3     60      67      68
1
3      60      68      66
1
3      66      72      69
1
3      66      68      72
1
3      67      70      71
1
3      68      67      71
1
3      69      72     130
1
3      70     136      71
1
3      71     194      68
1
3      68     194      77
1
3      72      68      75
1
3      68      76      75
1
3      73      74      78
1
3      68      77      76
1
3      74      73     133
1
3      71     136     194
1
3      75      79      72
1
3      76     195      75
1
3      76      77     195
1
3      77     194     136
1
3      78     137      73
1
3      73     144     133
1
3      75     195      79
1
3      73     137     144
1
3      77     143     195
1
3      79     195     143
1
3      80      81     153
1
3      80     158      81
1
3      80     153     147
1
3      81     159     153
1
3      81     158     159
1
3      82      86     169
1
3      82      84      86
1
3      83      89      84
1
3      84      89      86
1
3      85      46      87
1
3      83      92      89
1
3      86      89     197
1
3      87     196      85
1
3      87      88     196
1
3      88     197      96
1
3      88      93     196
1
3      85     196      93
1
3      89      96     197
1
3      89      92      96
1
3      85      93      90
1
3      90      95      91
1
3      88      96      93
1
3      90      93      95
1
3      91      97      94
1
3      91      95      97
1
3      92      98      96
1
3      93      99      95
1
3      94      97     198
1
3      93      96     199
1
3      94     198      98
1
3      95     100      97
1
3      96      98     199
1
3      93     199      99
1
3      95      99     100
1
3      98     198     199
1
3      99     199     100
1
3     101      51     103
1
3      51     102      52
1
3     101     102      51
1
3     101      18     102
1
3     102      19      52
1
3     102      18      19
1
3      20      53      52
1
3     101      21      18
1
3     103     106     101
1
3      20     107      53
1
3      53     107     103
1
3     101     105      21
1
3      20     108     107
1
3     103     107     109
1
3     101     106     104
1
3     104     105     101
1
3     103     109     106
1
3      21     110      22
1
3     105     110      21
1
3     105     104     110
1
3     106     109     113
1
3     107     200     109
1
3     107      54     200
1
3     108      54     107
1
3     106     112     104
1
3     109     200     111
1
3     106     113     112
1
3     110     114      22
1
3     110     104     114
1
3     104     112     117
1
3     111     200      54
1
3     111     116     109
1
3     112     113     118
1
3     109     116     113
1
3     104     117     114
1
3     112     118     117
1
3     111     120     116
1
3      54     120     111
1
3     113     116     119
1
3     108      56      54
1
3     114      23      22
1
3     115      56     108
1
3     116     120     119
1
3     113     119     118
1
3     114     123      23
1
3     117     123     114
1
3     118     123     117
1
3     118     119      65
1
3      23     123     125
1
3     115      24      56
1
3     115      50      24
1
3     119     120      58
1
3     118     124     123
1
3      56     121     120
1
3     120     121     122
1
3     120     122     193
1
3     120     193      58
1
3     118      65     124
1
3     121      57     122
1
3      58      60     119
1
3     122      57      63
1
3     122      63     193
1
3     119      60      65
1
3     123     126     125
1
3     123     124     126
1
3      65      69     124
1
3     124      69     126
1
3     125      26      27
1
3     126      26     125
1
3     126     130      26
1
3      69     130     126
1
3      63     129      70
1
3     127      62     131
1
3     128     127     131
1
3      62      30     131
1
3     129     135      70
1
3      26     130     132
1
3     129     128      74
1
3     128     131      74
1
3     129      74     133
1
3     129     133     135
1
3      70     135     136
1
3     130      79     132
1
3     130      72      79
1
3      30      37     131
1
3      30      31      37
1
3     131      78      74
1
3     131     134      78
1
3     131      37     134
1
3     132      79     142
1
3     132     142      36
1
3      77     136     143
1
3     133     138     135
1
3      78     140     137
1
3     134     140      78
1
3      79     143     142
1
3     133     144     138
1
3      36     142     149
1
3     135     139     136
1
3     135     146     139
1
3     136     139     148
1
3     137     140     141
1
3     136     154     143
1
3     138     146     135
1
3     139     146     148
1
3     137     141     144
1
3     134     163     140
1
3     140      80     147
1
3     140     158      80
1
3     141     140     147
1
3     136     148     154
1
3     142     151     149
1
3     143     151     142
1
3     141     145     144
1
3     138     156     146
1
3     143     154     157
1
3     144     145     138
1
3     141     152     145
1
3     145     150     138
1
3     134      41     163
1
3     146     156     148
1
3     140     163     158
1
3     147     152     141
1
3     143     157     151
1
3     148     164     154
1
3     145     152     150
1
3     148     156     164
1
3     149     155      34
1
3      40      34     155
1
3     150      82     138
1
3     138      82     156
1
3     151     160     149
1
3     151     157     160
1
3     152     168     150
1
3     149     160     155
1
3     147     153     152
1
3     153     170     152
1
3     154     164     157
1
3     155     165      40
1
3     155     160     165
1
3     153     159     162
1
3     153     162     170
1
3     156     169     164
1
3     157     167     160
1
3     158     166     159
1
3     157     164     167
1
3     152     170     168
1
3     150     168      82
1
3     156      82     169
1
3     159     175     162
1
3     160     171     165
1
3     161     173     172
1
3     158     163     166
1
3     162     175     170
1
3     163     191     166
1
3     159     166     175
1
3     160     167     201
1
3     164     169     167
1
3     160     201     171
1
3      40     202     161
1
3     165     202      40
1
3     165     171     202
1
3      42     177     191
1
3     166     191     177
1
3     167     169     201
1
3     168      84      82
1
3     169     171     201
1
3     170     175     178
1
3     171     173     202
1
3     161     202     173
1
3     172      46      43
1
3     168     170     174
1
3     166     177     175
1
3     173      46     172
1
3     168      83      84
1
3     169     183     171
1
3     170     178     174
1
3     171     183     173
1
3     174     180     168
1
3     175     177     176
1
3     173      87      46
1
3     168     180      83
1
3      42     182     177
1
3     176     181     175
1
3     175     181     178
1
3     169      86     183
1
3     173      88      87
1
3     174     178     203
1
3     173     183      88
1
3     177     182     176
1
3      42     179     182
1
3     174     203     180
1
3      83     180      92
1
3     176     204     181
1
3     178     181     184
1
3     176     182     204
1
3     178     187     203
1
3     179     185     182
1
3      47      90      48
1
3      48      91     179
1
3     178     184     187
1
3      86     197     183
1
3     180     203     187
1
3     181     204     184
1
3     180     187      92
1
3     182     185     186
1
3     182     186     204
1
3      48      90      91
1
3     183     197      88
1
3     184      94     187
1
3     185      94     186
1
3     184     204      94
1
3     186      94     204
1
3      91     185     179
1
3      91      94     185
1
3     187      98      92
1
3     187      94      98
1
3     100     199      97
1
3     199     198      97
0  
0
