# donut, TetGen poly file : donut.poly
# Node section
288 3 0 1
1 60.000000 0.000000 0.000000 1
2 50.801270 5.000000 -29.330127 1
3 58.660254 5.000000 0.000000 1
4 51.961524 0.000000 -30.000000 1
5 47.631397 8.660254 -27.500000 1
6 55.000000 8.660254 0.000000 1
7 43.301270 10.000000 -25.000000 1
8 50.000000 10.000000 0.000000 1
9 38.971143 8.660254 -22.500000 1
10 45.000000 8.660254 0.000000 1
11 35.801270 5.000000 -20.669873 1
12 41.339746 5.000000 0.000000 1
13 34.641016 0.000000 -20.000000 1
14 40.000000 0.000000 0.000000 1
15 35.801270 -5.000000 -20.669873 1
16 41.339746 -5.000000 0.000000 1
17 38.971143 -8.660254 -22.500000 1
18 45.000000 -8.660254 0.000000 1
19 43.301270 -10.000000 -25.000000 1
20 50.000000 -10.000000 0.000000 1
21 47.631397 -8.660254 -27.500000 1
22 55.000000 -8.660254 0.000000 1
23 50.801270 -5.000000 -29.330127 1
24 58.660254 -5.000000 0.000000 1
25 29.330127 5.000000 -50.801270 1
26 30.000000 0.000000 -51.961524 1
27 27.500000 8.660254 -47.631397 1
28 25.000000 10.000000 -43.301270 1
29 22.500000 8.660254 -38.971143 1
30 20.669873 5.000000 -35.801270 1
31 20.000000 0.000000 -34.641016 1
32 20.669873 -5.000000 -35.801270 1
33 22.500000 -8.660254 -38.971143 1
34 25.000000 -10.000000 -43.301270 1
35 27.500000 -8.660254 -47.631397 1
36 29.330127 -5.000000 -50.801270 1
37 0.000000 5.000000 -58.660254 1
38 0.000000 0.000000 -60.000000 1
39 0.000000 8.660254 -55.000000 1
40 0.000000 10.000000 -50.000000 1
41 0.000000 8.660254 -45.000000 1
42 0.000000 5.000000 -41.339746 1
43 0.000000 0.000000 -40.000000 1
44 0.000000 -5.000000 -41.339746 1
45 0.000000 -8.660254 -45.000000 1
46 0.000000 -10.000000 -50.000000 1
47 0.000000 -8.660254 -55.000000 1
48 0.000000 -5.000000 -58.660254 1
49 -29.330127 5.000000 -50.801270 1
50 -30.000000 0.000000 -51.961524 1
51 -27.500000 8.660254 -47.631397 1
52 -25.000000 10.000000 -43.301270 1
53 -22.500000 8.660254 -38.971143 1
54 -20.669873 5.000000 -35.801270 1
55 -20.000000 0.000000 -34.641016 1
56 -20.669873 -5.000000 -35.801270 1
57 -22.500000 -8.660254 -38.971143 1
58 -25.000000 -10.000000 -43.301270 1
59 -27.500000 -8.660254 -47.631397 1
60 -29.330127 -5.000000 -50.801270 1
61 -50.801270 5.000000 -29.330127 1
62 -51.961524 0.000000 -30.000000 1
63 -47.631397 8.660254 -27.500000 1
64 -43.301270 10.000000 -25.000000 1
65 -38.971143 8.660254 -22.500000 1
66 -35.801270 5.000000 -20.669873 1
67 -34.641016 0.000000 -20.000000 1
68 -35.801270 -5.000000 -20.669873 1
69 -38.971143 -8.660254 -22.500000 1
70 -43.301270 -10.000000 -25.000000 1
71 -47.631397 -8.660254 -27.500000 1
72 -50.801270 -5.000000 -29.330127 1
73 -58.660254 5.000000 -0.000000 1
74 -60.000000 0.000000 -0.000000 1
75 -55.000000 8.660254 -0.000000 1
76 -50.000000 10.000000 -0.000000 1
77 -45.000000 8.660254 -0.000000 1
78 -41.339746 5.000000 -0.000000 1
79 -40.000000 0.000000 -0.000000 1
80 -41.339746 -5.000000 -0.000000 1
81 -45.000000 -8.660254 -0.000000 1
82 -50.000000 -10.000000 -0.000000 1
83 -55.000000 -8.660254 -0.000000 1
84 -58.660254 -5.000000 -0.000000 1
85 -50.801270 5.000000 29.330127 1
86 -51.961524 0.000000 30.000000 1
87 -47.631397 8.660254 27.500000 1
88 -43.301270 10.000000 25.000000 1
89 -38.971143 8.660254 22.500000 1
90 -35.801270 5.000000 20.669873 1
91 -34.641016 0.000000 20.000000 1
92 -35.801270 -5.000000 20.669873 1
93 -38.971143 -8.660254 22.500000 1
94 -43.301270 -10.000000 25.000000 1
95 -47.631397 -8.660254 27.500000 1
96 -50.801270 -5.000000 29.330127 1
97 -29.330127 5.000000 50.801270 1
98 -30.000000 0.000000 51.961524 1
99 -27.500000 8.660254 47.631397 1
100 -25.000000 10.000000 43.301270 1
101 -22.500000 8.660254 38.971143 1
102 -20.669873 5.000000 35.801270 1
103 -20.000000 0.000000 34.641016 1
104 -20.669873 -5.000000 35.801270 1
105 -22.500000 -8.660254 38.971143 1
106 -25.000000 -10.000000 43.301270 1
107 -27.500000 -8.660254 47.631397 1
108 -29.330127 -5.000000 50.801270 1
109 -0.000000 5.000000 58.660254 1
110 -0.000000 0.000000 60.000000 1
111 -0.000000 8.660254 55.000000 1
112 -0.000000 10.000000 50.000000 1
113 -0.000000 8.660254 45.000000 1
114 -0.000000 5.000000 41.339746 1
115 -0.000000 0.000000 40.000000 1
116 -0.000000 -5.000000 41.339746 1
117 -0.000000 -8.660254 45.000000 1
118 -0.000000 -10.000000 50.000000 1
119 -0.000000 -8.660254 55.000000 1
120 -0.000000 -5.000000 58.660254 1
121 29.330127 5.000000 50.801270 1
122 30.000000 0.000000 51.961524 1
123 27.500000 8.660254 47.631397 1
124 25.000000 10.000000 43.301270 1
125 22.500000 8.660254 38.971143 1
126 20.669873 5.000000 35.801270 1
127 20.000000 0.000000 34.641016 1
128 20.669873 -5.000000 35.801270 1
129 22.500000 -8.660254 38.971143 1
130 25.000000 -10.000000 43.301270 1
131 27.500000 -8.660254 47.631397 1
132 29.330127 -5.000000 50.801270 1
133 50.801270 5.000000 29.330127 1
134 51.961524 0.000000 30.000000 1
135 47.631397 8.660254 27.500000 1
136 43.301270 10.000000 25.000000 1
137 38.971143 8.660254 22.500000 1
138 35.801270 5.000000 20.669873 1
139 34.641016 0.000000 20.000000 1
140 35.801270 -5.000000 20.669873 1
141 38.971143 -8.660254 22.500000 1
142 43.301270 -10.000000 25.000000 1
143 47.631397 -8.660254 27.500000 1
144 50.801270 -5.000000 29.330127 1
145 54.553913 0.000000 -0.000000 0
146 46.726495 2.409211 -26.977554 0
147 53.956702 2.410088 -0.000000 0
148 47.245075 0.000000 -27.276957 0
149 45.214564 4.205644 -26.104640 0
150 52.207858 4.203373 -0.000000 0
151 43.113678 4.974489 -24.891694 0
152 49.783387 4.974489 -0.000000 0
153 40.981488 4.257024 -23.660673 0
154 47.321347 4.257024 0.000000 0
155 39.657272 2.293301 -22.896137 0
156 45.792273 2.293301 0.000000 0
157 39.295469 0.000000 -22.687250 0
158 45.374500 0.000000 0.000000 0
159 39.628222 -2.313693 -22.879364 0
160 45.792273 -2.293301 0.000000 0
161 40.993887 -4.229868 -23.667832 0
162 47.316740 -4.265762 0.000000 0
163 43.112933 -4.954543 -24.891264 0
164 49.784154 -4.992279 -0.000000 0
165 45.213331 -4.203373 -26.103929 0
166 52.209281 -4.205644 -0.000000 0
167 46.726495 -2.409211 -26.977554 0
168 53.955109 -2.409211 -0.000000 0
169 26.977554 2.409211 -46.726495 0
170 27.276957 0.000000 -47.245075 0
171 26.105352 4.207915 -45.215796 0
172 24.891273 4.954978 -43.112950 0
173 23.660673 4.257024 -40.981488 0
174 22.896137 2.293301 -39.657272 0
175 22.687250 0.000000 -39.295469 0
176 22.896137 -2.293301 -39.657272 0
177 23.660673 -4.257024 -40.981488 0
178 24.891694 -4.974489 -43.113678 0
179 26.104640 -4.205644 -45.214564 0
180 26.977554 -2.409211 -46.726495 0
181 0.000000 2.409211 -53.955109 0
182 0.000000 0.000000 -54.553913 0
183 0.000000 4.204022 -52.208264 0
184 0.000000 4.991932 -49.784139 0
185 0.000000 4.257024 -47.321347 0
186 0.000000 2.293301 -45.792273 0
187 0.000000 0.000000 -45.374500 0
188 0.000000 -2.293301 -45.792273 0
189 0.000000 -4.257024 -47.321347 0
190 0.000000 -4.974489 -49.783387 0
191 0.000000 -4.205644 -52.209281 0
192 0.000000 -2.409211 -53.955109 0
193 -26.977554 2.409211 -46.726495 0
194 -27.276957 0.000000 -47.245075 0
195 -26.105352 4.207915 -45.215796 0
196 -24.891273 4.954978 -43.112950 0
197 -23.660673 4.257024 -40.981488 0
198 -22.896137 2.293301 -39.657272 0
199 -22.687250 0.000000 -39.295469 0
200 -22.896137 -2.293301 -39.657272 0
201 -23.660673 -4.257024 -40.981488 0
202 -24.891694 -4.974489 -43.113678 0
203 -26.104640 -4.205644 -45.214564 0
204 -26.977554 -2.409211 -46.726495 0
205 -46.726495 2.409211 -26.977554 0
206 -47.245075 0.000000 -27.276957 0
207 -45.214564 4.205644 -26.104640 0
208 -43.112933 4.954543 -24.891264 0
209 -40.986476 4.246100 -23.663553 0
210 -39.657272 2.293301 -22.896137 0
211 -39.295469 0.000000 -22.687250 0
212 -39.657272 -2.293301 -22.896137 0
213 -40.981488 -4.257024 -23.660673 0
214 -43.113678 -4.974489 -24.891694 0
215 -45.214564 -4.205644 -26.104640 0
216 -46.726495 -2.409211 -26.977554 0
217 -53.955109 2.409211 -0.000000 0
218 -54.553913 -0.000000 -0.000000 0
219 -52.208264 4.204022 -0.000000 0
220 -49.784815 5.007613 -0.000000 0
221 -47.316740 4.265762 -0.000000 0
222 -45.792273 2.293301 -0.000000 0
223 -45.374500 0.000000 -0.000000 0
224 -45.792273 -2.293301 -0.000000 0
225 -47.321347 -4.257024 -0.000000 0
226 -49.783387 -4.974489 -0.000000 0
227 -52.209281 -4.205644 -0.000000 0
228 -53.955109 -2.409211 -0.000000 0
229 -46.726495 2.409211 26.977554 0
230 -47.245075 -0.000000 27.276957 0
231 -45.214564 4.205644 26.104640 0
232 -43.113678 4.974489 24.891694 0
233 -40.981488 4.257024 23.660673 0
234 -39.657272 2.293301 22.896137 0
235 -39.295469 0.000000 22.687250 0
236 -39.688920 -2.271086 22.914409 0
237 -40.976767 -4.267364 23.657948 0
238 -43.113678 -4.974489 24.891694 0
239 -45.214564 -4.205644 26.104640 0
240 -46.726495 -2.409211 26.977554 0
241 -26.976439 2.407983 46.724563 0
242 -27.276957 -0.000000 47.245075 0
243 -26.105149 4.207266 45.215444 0
244 -24.891694 4.974489 43.113678 0
245 -23.660673 4.257024 40.981488 0
246 -22.896137 2.293301 39.657272 0
247 -22.687250 0.000000 39.295469 0
248 -22.896137 -2.293301 39.657272 0
249 -23.660673 -4.257024 40.981488 0
250 -24.891694 -4.974489 43.113678 0
251 -26.104640 -4.205644 45.214564 0
252 -26.978670 -2.410439 46.728427 0
253 -0.000000 2.409211 53.955109 0
254 -0.000000 -0.000000 54.553913 0
255 -0.000000 4.205644 52.209281 0
256 -0.000000 4.974489 49.783387 0
257 -0.000000 4.257024 47.321347 0
258 -0.000000 2.293301 45.792273 0
259 -0.000000 0.000000 45.374500 0
260 -0.000000 -2.293301 45.792273 0
261 -0.000000 -4.257024 47.321347 0
262 -0.000000 -4.974489 49.783387 0
263 -0.000000 -4.205644 52.209281 0
264 -0.000000 -2.409211 53.955109 0
265 26.977554 2.409211 46.726495 0
266 27.276957 -0.000000 47.245075 0
267 26.104640 4.205644 45.214564 0
268 24.891694 4.974489 43.113678 0
269 23.660673 4.257024 40.981488 0
270 22.896137 2.293301 39.657272 0
271 22.687250 0.000000 39.295469 0
272 22.896137 -2.293301 39.657272 0
273 23.660673 -4.257024 40.981488 0
274 24.891694 -4.974489 43.113678 0
275 26.104640 -4.205644 45.214564 0
276 26.977554 -2.409211 46.726495 0
277 46.726495 2.409211 26.977554 0
278 47.245075 -0.000000 27.276957 0
279 45.214564 4.205644 26.104640 0
280 43.113678 4.974489 24.891694 0
281 40.981488 4.257024 23.660673 0
282 39.657272 2.293301 22.896137 0
283 39.295469 0.000000 22.687250 0
284 39.657272 -2.293301 22.896137 0
285 40.981488 -4.257024 23.660673 0
286 43.113678 -4.974489 24.891694 0
287 45.215444 -4.207266 26.105149 0
288 46.724563 -2.407983 26.976439 0
# Facet section
288 1
1 0 1
3 3 1 2
1 0 1
3 1 4 2
1 0 1
3 6 3 5
1 0 1
3 3 2 5
1 0 1
3 8 6 7
1 0 1
3 6 5 7
1 0 1
3 10 8 7
1 0 1
3 10 7 9
1 0 1
3 12 10 11
1 0 1
3 10 9 11
1 0 1
3 14 12 13
1 0 1
3 12 11 13
1 0 1
3 16 14 13
1 0 1
3 16 13 15
1 0 1
3 18 16 15
1 0 1
3 18 15 17
1 0 1
3 20 18 19
1 0 1
3 18 17 19
1 0 1
3 22 20 19
1 0 1
3 22 19 21
1 0 1
3 24 22 23
1 0 1
3 22 21 23
1 0 1
3 1 24 23
1 0 1
3 1 23 4
1 0 1
3 2 4 25
1 0 1
3 4 26 25
1 0 1
3 5 2 27
1 0 1
3 2 25 27
1 0 1
3 7 5 28
1 0 1
3 5 27 28
1 0 1
3 9 7 28
1 0 1
3 9 28 29
1 0 1
3 11 9 30
1 0 1
3 9 29 30
1 0 1
3 13 11 31
1 0 1
3 11 30 31
1 0 1
3 15 13 31
1 0 1
3 15 31 32
1 0 1
3 17 15 33
1 0 1
3 15 32 33
1 0 1
3 19 17 33
1 0 1
3 19 33 34
1 0 1
3 21 19 34
1 0 1
3 21 34 35
1 0 1
3 23 21 35
1 0 1
3 23 35 36
1 0 1
3 4 23 26
1 0 1
3 23 36 26
1 0 1
3 25 26 37
1 0 1
3 26 38 37
1 0 1
3 27 25 39
1 0 1
3 25 37 39
1 0 1
3 28 27 39
1 0 1
3 28 39 40
1 0 1
3 29 28 40
1 0 1
3 29 40 41
1 0 1
3 30 29 42
1 0 1
3 29 41 42
1 0 1
3 31 30 43
1 0 1
3 30 42 43
1 0 1
3 32 31 43
1 0 1
3 32 43 44
1 0 1
3 33 32 45
1 0 1
3 32 44 45
1 0 1
3 34 33 45
1 0 1
3 34 45 46
1 0 1
3 35 34 46
1 0 1
3 35 46 47
1 0 1
3 36 35 47
1 0 1
3 36 47 48
1 0 1
3 26 36 38
1 0 1
3 36 48 38
1 0 1
3 37 38 49
1 0 1
3 38 50 49
1 0 1
3 39 37 51
1 0 1
3 37 49 51
1 0 1
3 40 39 52
1 0 1
3 39 51 52
1 0 1
3 41 40 52
1 0 1
3 41 52 53
1 0 1
3 42 41 54
1 0 1
3 41 53 54
1 0 1
3 43 42 55
1 0 1
3 42 54 55
1 0 1
3 44 43 55
1 0 1
3 44 55 56
1 0 1
3 45 44 57
1 0 1
3 44 56 57
1 0 1
3 46 45 57
1 0 1
3 46 57 58
1 0 1
3 47 46 58
1 0 1
3 47 58 59
1 0 1
3 48 47 59
1 0 1
3 48 59 60
1 0 1
3 38 48 50
1 0 1
3 48 60 50
1 0 1
3 49 50 61
1 0 1
3 50 62 61
1 0 1
3 51 49 63
1 0 1
3 49 61 63
1 0 1
3 52 51 63
1 0 1
3 52 63 64
1 0 1
3 53 52 64
1 0 1
3 53 64 65
1 0 1
3 54 53 66
1 0 1
3 53 65 66
1 0 1
3 55 54 67
1 0 1
3 54 66 67
1 0 1
3 56 55 67
1 0 1
3 56 67 68
1 0 1
3 57 56 69
1 0 1
3 56 68 69
1 0 1
3 58 57 69
1 0 1
3 58 69 70
1 0 1
3 59 58 70
1 0 1
3 59 70 71
1 0 1
3 60 59 71
1 0 1
3 60 71 72
1 0 1
3 50 60 62
1 0 1
3 60 72 62
1 0 1
3 61 62 73
1 0 1
3 62 74 73
1 0 1
3 63 61 75
1 0 1
3 61 73 75
1 0 1
3 64 63 75
1 0 1
3 64 75 76
1 0 1
3 65 64 77
1 0 1
3 64 76 77
1 0 1
3 66 65 78
1 0 1
3 65 77 78
1 0 1
3 67 66 79
1 0 1
3 66 78 79
1 0 1
3 68 67 79
1 0 1
3 68 79 80
1 0 1
3 69 68 81
1 0 1
3 68 80 81
1 0 1
3 70 69 81
1 0 1
3 70 81 82
1 0 1
3 71 70 82
1 0 1
3 71 82 83
1 0 1
3 72 71 83
1 0 1
3 72 83 84
1 0 1
3 62 72 74
1 0 1
3 72 84 74
1 0 1
3 73 74 85
1 0 1
3 74 86 85
1 0 1
3 75 73 87
1 0 1
3 73 85 87
1 0 1
3 76 75 88
1 0 1
3 75 87 88
1 0 1
3 77 76 88
1 0 1
3 77 88 89
1 0 1
3 78 77 90
1 0 1
3 77 89 90
1 0 1
3 79 78 91
1 0 1
3 78 90 91
1 0 1
3 80 79 91
1 0 1
3 80 91 92
1 0 1
3 81 80 93
1 0 1
3 80 92 93
1 0 1
3 82 81 93
1 0 1
3 82 93 94
1 0 1
3 83 82 94
1 0 1
3 83 94 95
1 0 1
3 84 83 95
1 0 1
3 84 95 96
1 0 1
3 74 84 86
1 0 1
3 84 96 86
1 0 1
3 85 86 97
1 0 1
3 86 98 97
1 0 1
3 87 85 99
1 0 1
3 85 97 99
1 0 1
3 88 87 100
1 0 1
3 87 99 100
1 0 1
3 89 88 100
1 0 1
3 89 100 101
1 0 1
3 90 89 102
1 0 1
3 89 101 102
1 0 1
3 91 90 103
1 0 1
3 90 102 103
1 0 1
3 92 91 103
1 0 1
3 92 103 104
1 0 1
3 93 92 104
1 0 1
3 93 104 105
1 0 1
3 94 93 105
1 0 1
3 94 105 106
1 0 1
3 95 94 106
1 0 1
3 95 106 107
1 0 1
3 96 95 107
1 0 1
3 96 107 108
1 0 1
3 86 96 98
1 0 1
3 96 108 98
1 0 1
3 97 98 109
1 0 1
3 98 110 109
1 0 1
3 99 97 109
1 0 1
3 99 109 111
1 0 1
3 100 99 112
1 0 1
3 99 111 112
1 0 1
3 101 100 112
1 0 1
3 101 112 113
1 0 1
3 102 101 114
1 0 1
3 101 113 114
1 0 1
3 103 102 115
1 0 1
3 102 114 115
1 0 1
3 104 103 115
1 0 1
3 104 115 116
1 0 1
3 105 104 116
1 0 1
3 105 116 117
1 0 1
3 106 105 117
1 0 1
3 106 117 118
1 0 1
3 107 106 118
1 0 1
3 107 118 119
1 0 1
3 108 107 119
1 0 1
3 108 119 120
1 0 1
3 98 108 120
1 0 1
3 98 120 110
1 0 1
3 109 110 121
1 0 1
3 110 122 121
1 0 1
3 111 109 121
1 0 1
3 111 121 123
1 0 1
3 112 111 124
1 0 1
3 111 123 124
1 0 1
3 113 112 124
1 0 1
3 113 124 125
1 0 1
3 114 113 126
1 0 1
3 113 125 126
1 0 1
3 115 114 127
1 0 1
3 114 126 127
1 0 1
3 116 115 127
1 0 1
3 116 127 128
1 0 1
3 117 116 128
1 0 1
3 117 128 129
1 0 1
3 118 117 129
1 0 1
3 118 129 130
1 0 1
3 119 118 130
1 0 1
3 119 130 131
1 0 1
3 120 119 131
1 0 1
3 120 131 132
1 0 1
3 110 120 132
1 0 1
3 110 132 122
1 0 1
3 121 122 133
1 0 1
3 122 134 133
1 0 1
3 123 121 133
1 0 1
3 123 133 135
1 0 1
3 124 123 136
1 0 1
3 123 135 136
1 0 1
3 125 124 136
1 0 1
3 125 136 137
1 0 1
3 126 125 138
1 0 1
3 125 137 138
1 0 1
3 127 126 139
1 0 1
3 126 138 139
1 0 1
3 128 127 139
1 0 1
3 128 139 140
1 0 1
3 129 128 140
1 0 1
3 129 140 141
1 0 1
3 130 129 141
1 0 1
3 130 141 142
1 0 1
3 131 130 142
1 0 1
3 131 142 143
1 0 1
3 132 131 143
1 0 1
3 132 143 144
1 0 1
3 122 132 144
1 0 1
3 122 144 134
1 0 1
3 133 134 3
1 0 1
3 134 1 3
1 0 1
3 135 133 3
1 0 1
3 135 3 6
1 0 1
3 136 135 8
1 0 1
3 135 6 8
1 0 1
3 137 136 8
1 0 1
3 137 8 10
1 0 1
3 138 137 12
1 0 1
3 137 10 12
1 0 1
3 139 138 14
1 0 1
3 138 12 14
1 0 1
3 140 139 14
1 0 1
3 140 14 16
1 0 1
3 141 140 16
1 0 1
3 141 16 18
1 0 1
3 142 141 18
1 0 1
3 142 18 20
1 0 1
3 143 142 20
1 0 1
3 143 20 22
1 0 1
3 144 143 24
1 0 1
3 143 22 24
1 0 1
3 134 144 24
1 0 1
3 134 24 1
# holes section
0
# regions section
0
