#node
217 3
1 -0.000000 40.000000 3.500000
2 -0.000000 43.000000 5.000000
3 -0.000000 24.666667 3.500000
4 -0.000000 32.333333 3.500000
5 0.000000 17.000000 3.500000
6 0.000000 17.000000 12.500000
7 0.000000 10.000000 12.500000
8 0.000000 10.000000 -4.166667
9 0.000000 10.000000 4.166667
10 0.000000 10.000000 -12.500000
11 0.000000 17.000000 -12.500000
12 0.000000 17.000000 -3.500000
13 -0.000000 32.333333 -3.500000
14 -0.000000 24.666667 -3.500000
15 -0.000000 40.000000 -3.500000
16 -0.000000 43.000000 -5.000000
17 -0.000000 50.000000 -5.000000
18 -0.000000 50.000000 5.000000
19 -14.722432 8.500000 -12.500000
20 -8.500000 14.722432 -12.500000
21 -17.000000 0.000000 -12.500000
22 -17.000000 0.000000 -3.500000
23 -8.500000 14.722432 -3.500000
24 -14.722432 8.500000 -3.500000
25 -5.000000 8.660254 -12.500000
26 -8.660254 5.000000 -12.500000
27 -10.000000 0.000000 -12.500000
28 -8.660254 5.000000 12.500000
29 -5.000000 8.660254 12.500000
30 -10.000000 -0.000000 12.500000
31 -10.000000 -0.000000 4.166667
32 -10.000000 -0.000000 -4.166667
33 -8.500000 14.722432 12.500000
34 -14.722432 8.500000 12.500000
35 -17.000000 -0.000000 12.500000
36 -14.722432 8.500000 3.500000
37 -8.500000 14.722432 3.500000
38 -17.000000 -0.000000 3.500000
39 -38.997116 8.900837 3.500000
40 -36.038755 17.355350 3.500000
41 -31.273259 24.939592 3.500000
42 -24.939592 31.273259 3.500000
43 -17.355350 36.038755 3.500000
44 -8.900837 38.997116 3.500000
45 -40.000000 -0.000000 3.500000
46 -32.333333 -0.000000 3.500000
47 -24.666667 -0.000000 3.500000
48 -59.000000 -0.000000 -5.000000
49 -59.000000 -0.000000 5.000000
50 -51.000000 -0.000000 -5.000000
51 -43.000000 0.000000 -5.000000
52 -40.000000 -0.000000 -3.500000
53 -24.666667 -0.000000 -3.500000
54 -32.333333 -0.000000 -3.500000
55 -43.000000 -0.000000 5.000000
56 -51.000000 -0.000000 5.000000
57 -8.900837 38.997116 -3.500000
58 -17.355350 36.038755 -3.500000
59 -24.939592 31.273259 -3.500000
60 -31.273259 24.939592 -3.500000
61 -36.038755 17.355350 -3.500000
62 -38.997116 8.900837 -3.500000
63 -9.568400 41.921900 -5.000000
64 -18.657001 38.741661 -5.000000
65 -26.810061 33.618754 -5.000000
66 -33.618754 26.810061 -5.000000
67 -38.741661 18.657001 -5.000000
68 -41.921900 9.568400 -5.000000
69 -59.000000 3.000000 -5.000000
70 -52.907659 4.709447 -5.000000
71 -56.006538 4.042571 -5.000000
72 -49.750323 4.990523 -5.000000
73 -49.440935 7.456132 -5.000000
74 -49.009429 9.903324 -5.000000
75 -48.456871 12.326055 -5.000000
76 -54.011571 15.356590 -5.000000
77 -51.327663 13.670052 -5.000000
78 -56.467925 17.360111 -5.000000
79 -54.415804 22.998266 -5.000000
80 -48.106211 22.520918 -5.000000
81 -51.246289 22.954138 -5.000000
82 -45.043152 21.705171 -5.000000
83 -43.909135 23.916268 -5.000000
84 -42.666663 26.068292 -5.000000
85 -41.318805 28.155929 -5.000000
86 -45.502012 32.903519 -5.000000
87 -43.556793 30.400742 -5.000000
88 -47.124985 35.626336 -5.000000
89 -43.268259 40.222602 -5.000000
90 -37.502444 37.616034 -5.000000
91 -40.304982 39.097098 -5.000000
92 -34.903112 35.801854 -5.000000
93 -33.081245 37.491749 -5.000000
94 -31.177667 39.089040 -5.000000
95 -29.197082 40.589782 -5.000000
96 -31.504238 46.481799 -5.000000
97 -30.532331 43.464653 -5.000000
98 -32.098076 49.595499 -5.000000
99 -26.901924 52.595499 -5.000000
100 -22.375328 48.174101 -5.000000
101 -24.502299 50.524370 -5.000000
102 -20.553242 45.580306 -5.000000
103 -18.263268 46.545172 -5.000000
104 -15.928185 47.395073 -5.000000
105 -13.553759 48.127909 -5.000000
106 -13.706589 54.453687 -5.000000
107 -13.825219 51.286086 -5.000000
108 -13.199666 57.582713 -5.000000
109 -7.290819 58.624602 -5.000000
110 -4.549418 52.921660 -5.000000
111 -5.744278 55.857658 -5.000000
112 -3.724347 49.861099 -5.000000
113 -2.484176 49.938251 -5.000000
114 -1.242472 49.984560 -5.000000
115 -41.921900 9.568400 5.000000
116 -38.741661 18.657001 5.000000
117 -33.618754 26.810061 5.000000
118 -26.810061 33.618754 5.000000
119 -18.657001 38.741661 5.000000
120 -9.568400 41.921900 5.000000
121 -59.000000 3.000000 5.000000
122 -49.750323 4.990523 5.000000
123 -56.006538 4.042571 5.000000
124 -52.907659 4.709447 5.000000
125 -49.009429 9.903324 5.000000
126 -49.440935 7.456132 5.000000
127 -48.456871 12.326055 5.000000
128 -51.327663 13.670052 5.000000
129 -54.011571 15.356590 5.000000
130 -56.467925 17.360111 5.000000
131 -54.415804 22.998266 5.000000
132 -45.043152 21.705171 5.000000
133 -51.246289 22.954138 5.000000
134 -48.106211 22.520918 5.000000
135 -42.666663 26.068292 5.000000
136 -43.909135 23.916268 5.000000
137 -41.318805 28.155929 5.000000
138 -43.556793 30.400742 5.000000
139 -45.502012 32.903519 5.000000
140 -47.124985 35.626336 5.000000
141 -43.268259 40.222602 5.000000
142 -34.903112 35.801854 5.000000
143 -40.304982 39.097098 5.000000
144 -37.502444 37.616034 5.000000
145 -31.177667 39.089040 5.000000
146 -33.081245 37.491749 5.000000
147 -29.197082 40.589782 5.000000
148 -30.532331 43.464653 5.000000
149 -31.504238 46.481799 5.000000
150 -32.098076 49.595499 5.000000
151 -26.901924 52.595499 5.000000
152 -20.553242 45.580306 5.000000
153 -24.502299 50.524370 5.000000
154 -22.375328 48.174101 5.000000
155 -15.928185 47.395073 5.000000
156 -18.263268 46.545172 5.000000
157 -13.553759 48.127909 5.000000
158 -13.825219 51.286086 5.000000
159 -13.706589 54.453687 5.000000
160 -13.199666 57.582713 5.000000
161 -7.290819 58.624602 5.000000
162 -3.724347 49.861099 5.000000
163 -5.744278 55.857658 5.000000
164 -4.549418 52.921660 5.000000
165 -1.242472 49.984560 5.000000
166 -2.484176 49.938251 5.000000
167 -9.427262 9.427262 -12.500000
168 -7.071068 7.071068 5.430999
169 -7.071068 7.071068 -2.722793
170 -9.427262 9.427262 12.500000
171 -11.347258 12.658584 8.000000
172 -5.290461 16.155835 8.000000
173 -9.030255 22.233291 3.500000
174 -19.528948 19.531105 3.500000
175 -27.671284 16.233228 3.500000
176 -30.479291 8.527827 3.500000
177 -22.232118 9.032072 3.500000
178 -8.526905 30.480153 3.500000
179 -16.231806 27.672349 3.500000
180 -53.768549 -0.000000 -0.000000
181 -46.414675 -0.000000 0.000000
182 -16.812332 16.427100 -3.500000
183 -23.951454 20.518461 -3.500000
184 -7.071178 29.391103 -3.500000
185 -14.676587 30.672007 -3.500000
186 -18.776002 24.666057 -3.500000
187 -5.612574 21.633178 -3.500000
188 -12.003598 22.787598 -3.500000
189 -28.838503 16.051748 -3.500000
190 -22.386526 9.608189 -3.500000
191 -30.586381 8.385683 -3.500000
192 -35.920624 31.311168 -5.000000
193 -24.436885 42.970257 -5.000000
194 -25.268359 38.544590 -5.000000
195 -38.576312 25.265526 -5.000000
196 -7.354041 47.238669 -5.000000
197 -46.313410 16.695291 -5.000000
198 -27.338654 47.406385 -5.000000
199 -54.467370 4.423738 0.000000
200 -49.240388 8.682409 -0.000000
201 -52.695593 14.471983 0.000000
202 -49.669578 22.785892 0.000000
203 -43.301270 25.000000 -0.000000
204 -44.567950 31.622170 0.000000
205 -38.880902 38.399731 0.000000
206 -31.064755 44.958256 -0.000000
207 -23.402615 49.381995 0.000000
208 -17.101007 46.984631 0.000000
209 -13.814691 52.871714 0.000000
210 -5.101628 54.408062 0.000000
211 -38.576313 25.265525 5.000000
212 -26.646466 45.985916 5.000000
213 -24.845228 39.615056 5.000000
214 -22.639871 42.480247 5.000000
215 -46.313410 16.695291 5.000000
216 -35.920624 31.311168 5.000000
217 -7.354041 47.238669 5.000000
#FACET 3D
430
1 0 #1
3 1 15 2
1 0 #2
3 1 13 15
1 0 #3
3 1 4 13
1 0 #4
3 13 4 14
1 0 #5
3 14 4 3
1 0 #6
3 12 3 5
1 0 #7
3 8 5 9
1 0 #8
3 8 12 5
1 0 #9
3 8 11 12
1 0 #10
3 8 10 11
1 0 #11
3 14 3 12
1 0 #12
3 5 6 9
1 0 #13
3 9 6 7
1 0 #14
3 15 16 2
1 0 #15
3 2 16 18
1 0 #16
3 18 16 17
1 0 #17
3 12 11 23
1 0 #18
3 23 11 20
1 0 #19
3 24 20 19
1 0 #20
3 22 19 21
1 0 #21
3 22 24 19
1 0 #22
3 23 20 24
1 0 #23
3 10 25 11
1 0 #24
3 11 25 20
1 0 #25
3 20 25 167
1 0 #26
3 19 167 26
1 0 #27
3 27 19 26
1 0 #28
3 27 21 19
1 0 #29
3 25 26 167
1 0 #30
3 19 20 167
1 0 #31
3 10 8 25
1 0 #32
3 25 8 169
1 0 #33
3 26 169 32
1 0 #34
3 27 26 32
1 0 #35
3 8 9 169
1 0 #36
3 169 9 168
1 0 #37
3 31 168 28
1 0 #38
3 30 31 28
1 0 #39
3 7 29 9
1 0 #40
3 9 29 168
1 0 #41
3 168 29 28
1 0 #42
3 168 31 169
1 0 #43
3 169 31 32
1 0 #44
3 26 25 169
1 0 #45
3 6 33 7
1 0 #46
3 7 33 29
1 0 #47
3 29 33 170
1 0 #48
3 28 170 34
1 0 #49
3 35 28 34
1 0 #50
3 35 30 28
1 0 #51
3 33 34 170
1 0 #52
3 28 29 170
1 0 #53
3 33 6 172
1 0 #54
3 171 172 37
1 0 #55
3 36 171 37
1 0 #56
3 36 34 171
1 0 #57
3 36 35 34
1 0 #58
3 36 38 35
1 0 #59
3 6 5 172
1 0 #60
3 172 5 37
1 0 #61
3 34 33 171
1 0 #62
3 171 33 172
1 0 #63
3 37 5 173
1 0 #64
3 174 173 179
1 0 #65
3 42 179 43
1 0 #66
3 42 174 179
1 0 #67
3 42 41 174
1 0 #68
3 174 41 175
1 0 #69
3 177 175 176
1 0 #70
3 47 176 46
1 0 #71
3 47 177 176
1 0 #72
3 47 38 177
1 0 #73
3 177 38 36
1 0 #74
3 174 36 37
1 0 #75
3 173 174 37
1 0 #76
3 4 178 3
1 0 #77
3 4 44 178
1 0 #78
3 4 1 44
1 0 #79
3 44 43 178
1 0 #80
3 178 43 179
1 0 #81
3 173 178 179
1 0 #82
3 173 3 178
1 0 #83
3 173 5 3
1 0 #84
3 41 40 175
1 0 #85
3 175 40 176
1 0 #86
3 176 40 39
1 0 #87
3 46 39 45
1 0 #88
3 46 176 39
1 0 #89
3 177 36 174
1 0 #90
3 175 177 174
1 0 #91
3 56 49 180
1 0 #92
3 181 180 50
1 0 #93
3 51 181 50
1 0 #94
3 51 52 181
1 0 #95
3 181 52 45
1 0 #96
3 55 181 45
1 0 #97
3 55 56 181
1 0 #98
3 181 56 180
1 0 #99
3 49 48 180
1 0 #100
3 180 48 50
1 0 #101
3 52 54 45
1 0 #102
3 45 54 46
1 0 #103
3 46 54 53
1 0 #104
3 47 53 22
1 0 #105
3 38 22 31
1 0 #106
3 35 31 30
1 0 #107
3 35 38 31
1 0 #108
3 46 53 47
1 0 #109
3 31 22 32
1 0 #110
3 32 22 21
1 0 #111
3 27 32 21
1 0 #112
3 38 47 22
1 0 #113
3 15 13 57
1 0 #114
3 57 13 184
1 0 #115
3 185 184 188
1 0 #116
3 186 188 182
1 0 #117
3 183 182 190
1 0 #118
3 189 190 191
1 0 #119
3 61 191 62
1 0 #120
3 61 189 191
1 0 #121
3 61 60 189
1 0 #122
3 189 60 183
1 0 #123
3 190 189 183
1 0 #124
3 13 14 184
1 0 #125
3 184 14 187
1 0 #126
3 188 187 23
1 0 #127
3 182 23 24
1 0 #128
3 190 24 22
1 0 #129
3 53 190 22
1 0 #130
3 53 191 190
1 0 #131
3 53 54 191
1 0 #132
3 191 54 62
1 0 #133
3 62 54 52
1 0 #134
3 14 12 187
1 0 #135
3 187 12 23
1 0 #136
3 188 23 182
1 0 #137
3 182 24 190
1 0 #138
3 60 59 183
1 0 #139
3 183 59 186
1 0 #140
3 182 183 186
1 0 #141
3 186 59 185
1 0 #142
3 188 186 185
1 0 #143
3 59 58 185
1 0 #144
3 185 58 57
1 0 #145
3 184 185 57
1 0 #146
3 187 188 184
1 0 #147
3 16 15 63
1 0 #148
3 63 15 57
1 0 #149
3 64 57 58
1 0 #150
3 65 58 59
1 0 #151
3 66 59 60
1 0 #152
3 67 60 61
1 0 #153
3 68 61 62
1 0 #154
3 51 62 52
1 0 #155
3 51 68 62
1 0 #156
3 63 57 64
1 0 #157
3 64 58 65
1 0 #158
3 65 59 66
1 0 #159
3 66 60 67
1 0 #160
3 67 61 68
1 0 #161
3 17 16 114
1 0 #162
3 114 16 113
1 0 #163
3 113 16 112
1 0 #164
3 112 16 196
1 0 #165
3 110 196 107
1 0 #166
3 106 110 107
1 0 #167
3 106 111 110
1 0 #168
3 106 108 111
1 0 #169
3 111 108 109
1 0 #170
3 16 63 196
1 0 #171
3 196 63 105
1 0 #172
3 107 196 105
1 0 #173
3 105 63 104
1 0 #174
3 104 63 64
1 0 #175
3 103 64 102
1 0 #176
3 103 104 64
1 0 #177
3 65 194 64
1 0 #178
3 65 94 194
1 0 #179
3 65 93 94
1 0 #180
3 65 92 93
1 0 #181
3 65 192 92
1 0 #182
3 65 66 192
1 0 #183
3 192 66 195
1 0 #184
3 85 195 84
1 0 #185
3 85 192 195
1 0 #186
3 85 87 192
1 0 #187
3 192 87 90
1 0 #188
3 92 192 90
1 0 #189
3 66 67 195
1 0 #190
3 195 67 83
1 0 #191
3 84 195 83
1 0 #192
3 68 197 67
1 0 #193
3 68 75 197
1 0 #194
3 68 74 75
1 0 #195
3 68 73 74
1 0 #196
3 68 72 73
1 0 #197
3 68 51 72
1 0 #198
3 72 51 50
1 0 #199
3 70 50 71
1 0 #200
3 70 72 50
1 0 #201
3 50 48 71
1 0 #202
3 71 48 69
1 0 #203
3 75 77 197
1 0 #204
3 197 77 76
1 0 #205
3 81 76 78
1 0 #206
3 79 81 78
1 0 #207
3 197 76 81
1 0 #208
3 80 197 81
1 0 #209
3 80 82 197
1 0 #210
3 197 82 67
1 0 #211
3 67 82 83
1 0 #212
3 87 86 90
1 0 #213
3 90 86 91
1 0 #214
3 91 86 88
1 0 #215
3 89 91 88
1 0 #216
3 94 95 194
1 0 #217
3 194 95 193
1 0 #218
3 64 193 102
1 0 #219
3 64 194 193
1 0 #220
3 95 97 193
1 0 #221
3 193 97 198
1 0 #222
3 100 198 101
1 0 #223
3 100 193 198
1 0 #224
3 100 102 193
1 0 #225
3 97 96 198
1 0 #226
3 198 96 98
1 0 #227
3 99 198 98
1 0 #228
3 99 101 198
1 0 #229
3 110 112 196
1 0 #230
3 1 2 44
1 0 #231
3 44 2 120
1 0 #232
3 43 120 119
1 0 #233
3 42 119 118
1 0 #234
3 41 118 117
1 0 #235
3 40 117 116
1 0 #236
3 39 116 115
1 0 #237
3 45 115 55
1 0 #238
3 45 39 115
1 0 #239
3 44 120 43
1 0 #240
3 43 119 42
1 0 #241
3 42 118 41
1 0 #242
3 41 117 40
1 0 #243
3 40 116 39
1 0 #244
3 49 121 48
1 0 #245
3 48 121 69
1 0 #246
3 124 122 199
1 0 #247
3 123 199 121
1 0 #248
3 123 124 199
1 0 #249
3 122 72 199
1 0 #250
3 199 72 70
1 0 #251
3 71 199 70
1 0 #252
3 71 69 199
1 0 #253
3 199 69 121
1 0 #254
3 73 72 200
1 0 #255
3 74 200 75
1 0 #256
3 74 73 200
1 0 #257
3 72 122 200
1 0 #258
3 200 122 126
1 0 #259
3 125 200 126
1 0 #260
3 125 127 200
1 0 #261
3 200 127 75
1 0 #262
3 77 75 201
1 0 #263
3 76 201 78
1 0 #264
3 76 77 201
1 0 #265
3 75 127 201
1 0 #266
3 201 127 128
1 0 #267
3 129 201 128
1 0 #268
3 129 130 201
1 0 #269
3 201 130 78
1 0 #270
3 131 79 130
1 0 #271
3 130 79 78
1 0 #272
3 134 132 202
1 0 #273
3 133 202 131
1 0 #274
3 133 134 202
1 0 #275
3 132 82 202
1 0 #276
3 202 82 80
1 0 #277
3 81 202 80
1 0 #278
3 81 79 202
1 0 #279
3 202 79 131
1 0 #280
3 83 82 203
1 0 #281
3 84 203 85
1 0 #282
3 84 83 203
1 0 #283
3 82 132 203
1 0 #284
3 203 132 136
1 0 #285
3 135 203 136
1 0 #286
3 135 137 203
1 0 #287
3 203 137 85
1 0 #288
3 87 85 204
1 0 #289
3 86 204 88
1 0 #290
3 86 87 204
1 0 #291
3 85 137 204
1 0 #292
3 204 137 138
1 0 #293
3 139 204 138
1 0 #294
3 139 140 204
1 0 #295
3 204 140 88
1 0 #296
3 141 89 140
1 0 #297
3 140 89 88
1 0 #298
3 144 142 205
1 0 #299
3 143 205 141
1 0 #300
3 143 144 205
1 0 #301
3 142 92 205
1 0 #302
3 205 92 90
1 0 #303
3 91 205 90
1 0 #304
3 91 89 205
1 0 #305
3 205 89 141
1 0 #306
3 92 142 93
1 0 #307
3 93 142 146
1 0 #308
3 94 146 145
1 0 #309
3 95 145 147
1 0 #310
3 95 94 145
1 0 #311
3 93 146 94
1 0 #312
3 97 95 206
1 0 #313
3 96 206 98
1 0 #314
3 96 97 206
1 0 #315
3 95 147 206
1 0 #316
3 206 147 148
1 0 #317
3 149 206 148
1 0 #318
3 149 150 206
1 0 #319
3 206 150 98
1 0 #320
3 151 99 150
1 0 #321
3 150 99 98
1 0 #322
3 154 152 207
1 0 #323
3 153 207 151
1 0 #324
3 153 154 207
1 0 #325
3 152 102 207
1 0 #326
3 207 102 100
1 0 #327
3 101 207 100
1 0 #328
3 101 99 207
1 0 #329
3 207 99 151
1 0 #330
3 103 102 208
1 0 #331
3 104 208 105
1 0 #332
3 104 103 208
1 0 #333
3 102 152 208
1 0 #334
3 208 152 156
1 0 #335
3 155 208 156
1 0 #336
3 155 157 208
1 0 #337
3 208 157 105
1 0 #338
3 107 105 209
1 0 #339
3 106 209 108
1 0 #340
3 106 107 209
1 0 #341
3 105 157 209
1 0 #342
3 209 157 158
1 0 #343
3 159 209 158
1 0 #344
3 159 160 209
1 0 #345
3 209 160 108
1 0 #346
3 161 109 160
1 0 #347
3 160 109 108
1 0 #348
3 164 162 210
1 0 #349
3 163 210 161
1 0 #350
3 163 164 210
1 0 #351
3 162 112 210
1 0 #352
3 210 112 110
1 0 #353
3 111 210 110
1 0 #354
3 111 109 210
1 0 #355
3 210 109 161
1 0 #356
3 17 114 18
1 0 #357
3 18 114 165
1 0 #358
3 165 114 166
1 0 #359
3 166 114 113
1 0 #360
3 162 113 112
1 0 #361
3 162 166 113
1 0 #362
3 18 165 2
1 0 #363
3 2 165 166
1 0 #364
3 162 2 166
1 0 #365
3 162 217 2
1 0 #366
3 162 164 217
1 0 #367
3 217 164 158
1 0 #368
3 157 217 158
1 0 #369
3 157 120 217
1 0 #370
3 157 155 120
1 0 #371
3 120 155 119
1 0 #372
3 119 155 156
1 0 #373
3 152 119 156
1 0 #374
3 152 214 119
1 0 #375
3 152 212 214
1 0 #376
3 152 154 212
1 0 #377
3 212 154 153
1 0 #378
3 151 212 153
1 0 #379
3 151 150 212
1 0 #380
3 212 150 149
1 0 #381
3 148 212 149
1 0 #382
3 148 147 212
1 0 #383
3 212 147 213
1 0 #384
3 214 213 119
1 0 #385
3 214 212 213
1 0 #386
3 158 164 159
1 0 #387
3 159 164 163
1 0 #388
3 160 163 161
1 0 #389
3 160 159 163
1 0 #390
3 213 147 118
1 0 #391
3 119 213 118
1 0 #392
3 147 145 118
1 0 #393
3 118 145 146
1 0 #394
3 142 118 146
1 0 #395
3 142 216 118
1 0 #396
3 142 144 216
1 0 #397
3 216 144 138
1 0 #398
3 137 216 138
1 0 #399
3 137 211 216
1 0 #400
3 137 135 211
1 0 #401
3 211 135 136
1 0 #402
3 116 136 132
1 0 #403
3 215 132 134
1 0 #404
3 133 215 134
1 0 #405
3 133 129 215
1 0 #406
3 133 130 129
1 0 #407
3 133 131 130
1 0 #408
3 138 144 139
1 0 #409
3 139 144 143
1 0 #410
3 140 143 141
1 0 #411
3 140 139 143
1 0 #412
3 211 136 116
1 0 #413
3 117 211 116
1 0 #414
3 117 216 211
1 0 #415
3 117 118 216
1 0 #416
3 116 132 215
1 0 #417
3 115 215 127
1 0 #418
3 125 115 127
1 0 #419
3 125 126 115
1 0 #420
3 115 126 122
1 0 #421
3 55 122 56
1 0 #422
3 55 115 122
1 0 #423
3 129 128 215
1 0 #424
3 215 128 127
1 0 #425
3 122 124 56
1 0 #426
3 56 124 123
1 0 #427
3 49 123 121
1 0 #428
3 49 56 123
1 0 #429
3 115 116 215
1 0 #430
3 120 2 217
0 #holes
