#holes
36 3 0 0
1 -6 -6 16
2 6 -6 16
3 6 6 16
4 -6 6 16
5 -6 -6 0
6 6 -6 0
7 6 6 0
8 -6 6 0
9 -3 -3 10
10 3 -3 10
11 3 3 10
12 -3 3 10
13 -3 -3 7
14 3 -3 7
15 3 3 7
16 -3 3 7
17 -2 -2 7
18 2 -2 7
19 2 2 7
20 -2 2 7
21 -2 -2 0
22 2 -2 0
23 2 2 0
24 -2 2 0
25 -3 -3 15
26 3 -3 15
27 3 3 15
28 -3 3 15
29 -3 -3 20
30 3 -3 20
31 3 3 20
32 -3 3 20
33 -4 -4 16
34 4 -4 16
35 4 4 16
36 -4 4 16
#facets
25 1
2 1 -1   #Futterboden
4 5 6 7 8
4 21 22 23 24
1 0 0 0
1 0 -1   #Aussenmantel Futter
4 1 4 8 5
1 0 -1   #Aussenmantel Futter
4 2 3 7 6
1 0 -1   #Aussenmantel Futter
4 4 3 7 8
1 0 -1   #Aussenmantel Futter
4 1 2 6 5
2 0 -2
4 12 16 13 9
4 29 32 28 25
2 0 -2
4 11 15 16 12
4 32 31 27 28
2 0 -2
4 11 15 14 10
4 30 31 27 26
2 0 -2
4 10 14 13 9
4 29 30 26 25
1 0 -8
4 12 11 27 28
1 0 -8
4 10 11 27 26
1 0 -8
4 9 10 26 25
1 0 -8
4 9 12 28 25
2 1 -3
4 13 14 15 16
4 17 18 19 20
1 0 0 7
2 1 -9
4 1 2 3 4
4 33 34 35 36
1 0 3.5 16
1 0 -4
4 33 36 28 25
1 0 -4
4 36 35 27 28
1 0 -4
4 35 34 26 27
1 0 -4
4 34 33 25 26
1 0 -6
4 9 10 11 12
1 0 -5
4 17 20 24 21
1 0 -5
4 17 18 22 21
1 0 -5
4 18 19 23 22
1 0 -5
4 19 23 24 20
1 0 -7
4 29 30 31 32

#holes
0
#2
#1 0 0 3.5
#2 0 0 8.5
#regions
3
1 5 0 2 1 0.01
2 0 0 18 2 0.002
3 0 0 12 2 0.002