39 3 0 0
0 0 1 0 0
1 1 1 0 0
2 0 1 1 0
3 1 1 1 0
4 0 0 0 0
5 1 0 0 0
6 1 0 1 0
7 0.2 0 1 0
8 0 0.2 1 0
9 0.173205 0.1 1 0
10 0.1 0.173205 1 0
11 0.5 0.5 1 0
12 0 0.2 0.8 0
13 0 0 0.8 0
14 0 0.5 0.5 0
15 0.2 0 0.8 0
16 0.5 0 0.5 0
17 0.173205 0.1 0.8 0
18 0.1 0.173205 0.8 0
19 0.1 0.1 0.8 0
20 0.2 0 1.8 0
21 -0.2 0 1.8 0
22 0.141421 0.141421 1.8 0
23 0 0.2 1.8 0
24 -0.141421 0.141421 1.8 0
25 0 0 1.8 0
26 0 0.1 1.8 0
27 -0.2 0 0.8 0
28 -0.1 0.173205 0.8 0
29 -0.173205 0.1 0.8 0
30 -0.141421 -0.141421 1.8 0
31 0 -0.2 1.8 0
32 0.141421 -0.141421 1.8 0
33 0 -0.1 1.8 0
34 -0.141421 -0.141421 0.8 0
35 0 -0.2 0.8 0
36 0.141421 -0.141421 0.8 0
37 -0.1 0.1 0.8 0
38 0 -0.1 0.8 0
79 1
1 0 1
3 2 0 1 
1 0 1
3 1 3 2 
1 0 2
3 0 4 5 
1 0 2
3 5 1 0 
1 0 3
3 3 1 5 
1 0 3
3 5 6 3 
1 0 4
3 10 8 11 
1 0 4
3 8 2 11 
1 0 4
3 11 9 10 
1 0 4
3 11 6 7 
1 0 4
3 2 3 11 
1 0 4
3 6 11 3 
1 0 4
3 9 11 7 
1 0 5
3 0 14 4 
1 0 5
3 14 0 2 
1 0 5
3 4 14 13 
1 0 5
3 12 2 8 
1 0 5
3 2 12 14 
1 0 5
3 12 13 14 
1 0 6
3 4 16 5 
1 0 6
3 16 4 13 
1 0 6
3 5 16 6 
1 0 6
3 13 15 16 
1 0 6
3 6 16 7 
1 0 6
3 7 16 15 
1 0 7
3 15 17 9 
1 0 7
3 9 7 15 
1 0 7
3 17 10 9 
1 0 7
3 18 12 8 
1 0 7
3 8 10 18 
1 0 7
3 18 10 17 
1 0 8
3 13 19 12 
1 0 8
3 19 13 15 
1 0 8
3 12 19 18 
1 0 8
3 19 17 18 
1 0 8
3 17 19 15 
1 0 9
3 24 25 21 
1 0 9
3 26 25 24 
1 0 9
3 26 22 25 
1 0 9
3 20 25 22 
1 0 9
3 26 23 22 
1 0 9
3 24 23 26 
1 0 10
3 20 9 7 
1 0 10
3 20 22 9 
1 0 10
3 10 9 22 
1 0 10
3 10 22 23 
1 0 10
3 24 29 28 
1 0 10
3 21 27 29 
1 0 10
3 10 23 8 
1 0 10
3 23 28 8 
1 0 10
3 24 28 23 
1 0 10
3 24 21 29 
1 0 10
3 12 8 28 
1 0 11
3 32 25 20 
1 0 11
3 33 25 32 
1 0 11
3 33 30 25 
1 0 11
3 21 25 30 
1 0 11
3 33 31 30 
1 0 11
3 32 31 33 
1 0 12
3 21 34 27 
1 0 12
3 21 30 34 
1 0 12
3 34 30 31 
1 0 12
3 35 34 31 
1 0 12
3 7 15 36 
1 0 12
3 32 7 36 
1 0 12
3 36 31 32 
1 0 12
3 7 32 20 
1 0 12
3 35 31 36 
1 0 13
3 27 37 29 
1 0 13
3 37 27 13 
1 0 13
3 29 37 28 
1 0 13
3 37 12 28 
1 0 13
3 12 37 13 
1 0 14
3 15 13 36 
1 0 14
3 36 13 38 
1 0 14
3 13 34 38 
1 0 14
3 34 13 27 
1 0 14
3 34 35 38 
1 0 14
3 38 35 36 
0
2
1 0.28983 0.5 0.0906661 1 1
2 -0.109672 0.0425012 1.3 2 1
