1336 3 0 0
0 -15.6546 -7.89544 29.972 0
1 -12.6066 -7.89544 29.972 0
2 -12.6066 -7.89544 39.624 0
3 -12.6066 -8.03452 29.974 0
4 -12.6066 -8.17348 29.98 0
5 -12.6066 -8.31221 29.99 0
6 -12.6066 -8.45059 30.004 0
7 -12.6066 -8.58851 30.022 0
8 -12.6066 -8.72585 30.044 0
9 -12.6066 -8.86251 30.0699 0
10 -12.6066 -8.99836 30.0997 0
11 -12.6066 -9.1333 30.1335 0
12 -12.6066 -9.26721 30.1711 0
13 -12.6066 -9.39998 30.2125 0
14 -12.6066 -9.5315 30.2578 0
15 -12.6066 -9.66166 30.3068 0
16 -12.6066 -9.79035 30.3596 0
17 -12.6066 -9.91747 30.416 0
18 -12.6066 -10.0429 30.4761 0
19 -12.6066 -10.1666 30.5398 0
20 -12.6066 -10.2883 30.607 0
21 -12.6066 -10.4081 30.6777 0
22 -12.6066 -10.5258 30.7518 0
23 -12.6066 -10.6413 30.8293 0
24 -12.6066 -10.7546 30.9101 0
25 -12.6066 -10.8654 30.9941 0
26 -12.6066 -10.9738 31.0813 0
27 -12.6066 -11.0796 31.1715 0
28 -12.6066 -11.1828 31.2648 0
29 -12.6066 -11.2833 31.361 0
30 -12.6066 -11.3809 31.4601 0
31 -12.6066 -11.4756 31.5619 0
32 -12.6066 -11.5674 31.6664 0
33 -12.6066 -11.6561 31.7735 0
34 -12.6066 -11.7417 31.8832 0
35 -12.6066 -11.8241 31.9952 0
36 -12.6066 -11.9033 32.1096 0
37 -12.6066 -11.9791 32.2262 0
38 -12.6066 -12.0515 32.345 0
39 -12.6066 -12.1205 32.4657 0
40 -12.6066 -12.1859 32.5885 0
41 -12.6066 -12.2478 32.713 0
42 -12.6066 -12.3061 32.8393 0
43 -12.6066 -12.3607 32.9672 0
44 -12.6066 -12.4116 33.0967 0
45 -12.6066 -12.4588 33.2275 0
46 -12.6066 -12.5021 33.3597 0
47 -12.6066 -12.5417 33.493 0
48 -12.6066 -12.5773 33.6275 0
49 -12.6066 -12.6091 33.7629 0
50 -12.6066 -12.637 33.8992 0
51 -12.6066 -12.6609 34.0362 0
52 -12.6066 -12.6809 34.1738 0
53 -12.6066 -12.6969 34.312 0
54 -12.6066 -12.7089 34.4506 0
55 -12.6066 -12.7169 34.5894 0
56 -12.6066 -12.7209 34.7285 0
57 -12.6066 -12.7209 34.8675 0
58 -12.6066 -12.7169 35.0066 0
59 -12.6066 -12.7089 35.1454 0
60 -12.6066 -12.6969 35.284 0
61 -12.6066 -12.6809 35.4222 0
62 -12.6066 -12.6609 35.5598 0
63 -12.6066 -12.637 35.6968 0
64 -12.6066 -12.6091 35.8331 0
65 -12.6066 -12.5773 35.9685 0
66 -12.6066 -12.5417 36.103 0
67 -12.6066 -12.5021 36.2363 0
68 -12.6066 -12.4588 36.3685 0
69 -12.6066 -12.4116 36.4993 0
70 -12.6066 -12.3607 36.6288 0
71 -12.6066 -12.3061 36.7567 0
72 -12.6066 -12.2478 36.883 0
73 -12.6066 -12.1859 37.0075 0
74 -12.6066 -12.1205 37.1303 0
75 -12.6066 -12.0515 37.251 0
76 -12.6066 -11.9791 37.3698 0
77 -12.6066 -11.9033 37.4864 0
78 -12.6066 -11.8241 37.6008 0
79 -12.6066 -11.7417 37.7128 0
80 -12.6066 -11.6561 37.8225 0
81 -12.6066 -11.5674 37.9296 0
82 -12.6066 -11.4756 38.0341 0
83 -12.6066 -11.3809 38.1359 0
84 -12.6066 -11.2833 38.235 0
85 -12.6066 -11.1828 38.3312 0
86 -12.6066 -11.0796 38.4245 0
87 -12.6066 -10.9738 38.5147 0
88 -12.6066 -10.8654 38.6019 0
89 -12.6066 -10.7546 38.6859 0
90 -12.6066 -10.6413 38.7667 0
91 -12.6066 -10.5258 38.8442 0
92 -12.6066 -10.4081 38.9183 0
93 -12.6066 -10.2883 38.989 0
94 -12.6066 -10.1666 39.0562 0
95 -12.6066 -10.0429 39.1199 0
96 -12.6066 -9.91747 39.18 0
97 -12.6066 -9.79035 39.2364 0
98 -12.6066 -9.66166 39.2892 0
99 -12.6066 -9.5315 39.3382 0
100 -12.6066 -9.39998 39.3835 0
101 -12.6066 -9.26721 39.4249 0
102 -12.6066 -9.1333 39.4625 0
103 -12.6066 -8.99836 39.4963 0
104 -12.6066 -8.86251 39.5261 0
105 -12.6066 -8.72585 39.552 0
106 -12.6066 -8.58851 39.574 0
107 -12.6066 -8.45059 39.592 0
108 -12.6066 -8.31221 39.606 0
109 -12.6066 -8.17348 39.616 0
110 -12.6066 -8.03452 39.622 0
111 -15.6546 -7.89544 39.624 0
112 -15.6546 -8.03452 39.622 0
113 -15.6546 -8.17348 39.616 0
114 -15.6546 -8.31221 39.606 0
115 -15.6546 -8.45059 39.592 0
116 -15.6546 -8.58851 39.574 0
117 -15.6546 -8.72585 39.552 0
118 -15.6546 -8.86251 39.5261 0
119 -15.6546 -8.99836 39.4963 0
120 -15.6546 -9.1333 39.4625 0
121 -15.6546 -9.26721 39.4249 0
122 -15.6546 -9.39998 39.3835 0
123 -15.6546 -9.5315 39.3382 0
124 -15.6546 -9.66166 39.2892 0
125 -15.6546 -9.79035 39.2364 0
126 -15.6546 -9.91747 39.18 0
127 -15.6546 -10.0429 39.1199 0
128 -15.6546 -10.1666 39.0562 0
129 -15.6546 -10.2883 38.989 0
130 -15.6546 -10.4081 38.9183 0
131 -15.6546 -10.5258 38.8442 0
132 -15.6546 -10.6413 38.7667 0
133 -15.6546 -10.7546 38.6859 0
134 -15.6546 -10.8654 38.6019 0
135 -15.6546 -10.9738 38.5147 0
136 -15.6546 -11.0796 38.4245 0
137 -15.6546 -11.1828 38.3312 0
138 -15.6546 -11.2833 38.235 0
139 -15.6546 -11.3809 38.1359 0
140 -15.6546 -11.4756 38.0341 0
141 -15.6546 -11.5674 37.9296 0
142 -15.6546 -11.6561 37.8225 0
143 -15.6546 -11.7417 37.7128 0
144 -15.6546 -11.8241 37.6008 0
145 -15.6546 -11.9033 37.4864 0
146 -15.6546 -11.9791 37.3698 0
147 -15.6546 -12.0515 37.251 0
148 -15.6546 -12.1205 37.1303 0
149 -15.6546 -12.1859 37.0075 0
150 -15.6546 -12.2478 36.883 0
151 -15.6546 -12.3061 36.7567 0
152 -15.6546 -12.3607 36.6288 0
153 -15.6546 -12.4116 36.4993 0
154 -15.6546 -12.4588 36.3685 0
155 -15.6546 -12.5021 36.2363 0
156 -15.6546 -12.5417 36.103 0
157 -15.6546 -12.5773 35.9685 0
158 -15.6546 -12.6091 35.8331 0
159 -15.6546 -12.637 35.6968 0
160 -15.6546 -12.6609 35.5598 0
161 -15.6546 -12.6809 35.4222 0
162 -15.6546 -12.6969 35.284 0
163 -15.6546 -12.7089 35.1454 0
164 -15.6546 -12.7169 35.0066 0
165 -15.6546 -12.7209 34.8675 0
166 -15.6546 -12.7209 34.7285 0
167 -15.6546 -12.7169 34.5894 0
168 -15.6546 -12.7089 34.4506 0
169 -15.6546 -12.6969 34.312 0
170 -15.6546 -12.6809 34.1738 0
171 -15.6546 -12.6609 34.0362 0
172 -15.6546 -12.637 33.8992 0
173 -15.6546 -12.6091 33.7629 0
174 -15.6546 -12.5773 33.6275 0
175 -15.6546 -12.5417 33.493 0
176 -15.6546 -12.5021 33.3597 0
177 -15.6546 -12.4588 33.2275 0
178 -15.6546 -12.4116 33.0967 0
179 -15.6546 -12.3607 32.9672 0
180 -15.6546 -12.3061 32.8393 0
181 -15.6546 -12.2478 32.713 0
182 -15.6546 -12.1859 32.5885 0
183 -15.6546 -12.1205 32.4657 0
184 -15.6546 -12.0515 32.345 0
185 -15.6546 -11.9791 32.2262 0
186 -15.6546 -11.9033 32.1096 0
187 -15.6546 -11.8241 31.9952 0
188 -15.6546 -11.7417 31.8832 0
189 -15.6546 -11.6561 31.7735 0
190 -15.6546 -11.5674 31.6664 0
191 -15.6546 -11.4756 31.5619 0
192 -15.6546 -11.3809 31.4601 0
193 -15.6546 -11.2833 31.361 0
194 -15.6546 -11.1828 31.2648 0
195 -15.6546 -11.0796 31.1715 0
196 -15.6546 -10.9738 31.0813 0
197 -15.6546 -10.8654 30.9941 0
198 -15.6546 -10.7546 30.9101 0
199 -15.6546 -10.6413 30.8293 0
200 -15.6546 -10.5258 30.7518 0
201 -15.6546 -10.4081 30.6777 0
202 -15.6546 -10.2883 30.607 0
203 -15.6546 -10.1666 30.5398 0
204 -15.6546 -10.0429 30.4761 0
205 -15.6546 -9.91747 30.416 0
206 -15.6546 -9.79035 30.3596 0
207 -15.6546 -9.66166 30.3068 0
208 -15.6546 -9.5315 30.2578 0
209 -15.6546 -9.39998 30.2125 0
210 -15.6546 -9.26721 30.1711 0
211 -15.6546 -9.1333 30.1335 0
212 -15.6546 -8.99836 30.0997 0
213 -15.6546 -8.86251 30.0699 0
214 -15.6546 -8.72585 30.044 0
215 -15.6546 -8.58851 30.022 0
216 -15.6546 -8.45059 30.004 0
217 -15.6546 -8.31221 29.99 0
218 -15.6546 -8.17348 29.98 0
219 -15.6546 -8.03452 29.974 0
220 -15.6546 -14.7204 41.623 0
221 -12.6066 -14.7204 41.623 0
222 -15.6546 -17.5474 34.798 0
223 -15.6546 -14.86 41.4805 0
224 -15.6546 -14.9966 41.3351 0
225 -15.6546 -15.1302 41.187 0
226 -15.6546 -15.2607 41.0361 0
227 -15.6546 -15.3881 40.8825 0
228 -15.6546 -15.5122 40.7264 0
229 -15.6546 -15.6331 40.5677 0
230 -15.6546 -15.7507 40.4066 0
231 -15.6546 -15.8649 40.243 0
232 -15.6546 -15.9758 40.0771 0
233 -15.6546 -16.0831 39.909 0
234 -15.6546 -16.187 39.7387 0
235 -15.6546 -16.2874 39.5663 0
236 -15.6546 -16.3841 39.3918 0
237 -15.6546 -16.4772 39.2154 0
238 -15.6546 -16.5667 39.0371 0
239 -15.6546 -16.6525 38.857 0
240 -15.6546 -16.7345 38.6752 0
241 -15.6546 -16.8127 38.4917 0
242 -15.6546 -16.8872 38.3066 0
243 -15.6546 -16.9577 38.12 0
244 -15.6546 -17.0245 37.932 0
245 -15.6546 -17.0873 37.7427 0
246 -15.6546 -17.1462 37.5521 0
247 -15.6546 -17.2011 37.3603 0
248 -15.6546 -17.2521 37.1674 0
249 -15.6546 -17.2991 36.9735 0
250 -15.6546 -17.342 36.7787 0
251 -15.6546 -17.3809 36.5831 0
252 -15.6546 -17.4158 36.3867 0
253 -15.6546 -17.4466 36.1896 0
254 -15.6546 -17.4733 35.9919 0
255 -15.6546 -17.4959 35.7937 0
256 -15.6546 -17.5145 35.5951 0
257 -15.6546 -17.5289 35.3961 0
258 -15.6546 -17.5392 35.1969 0
259 -15.6546 -17.5454 34.9975 0
260 -12.6066 -17.5474 34.798 0
261 -12.6066 -17.5454 34.9975 0
262 -12.6066 -17.5392 35.1969 0
263 -12.6066 -17.5289 35.3961 0
264 -12.6066 -17.5145 35.5951 0
265 -12.6066 -17.4959 35.7937 0
266 -12.6066 -17.4733 35.9919 0
267 -12.6066 -17.4466 36.1896 0
268 -12.6066 -17.4158 36.3867 0
269 -12.6066 -17.3809 36.5831 0
270 -12.6066 -17.342 36.7787 0
271 -12.6066 -17.2991 36.9735 0
272 -12.6066 -17.2521 37.1674 0
273 -12.6066 -17.2011 37.3603 0
274 -12.6066 -17.1462 37.5521 0
275 -12.6066 -17.0873 37.7427 0
276 -12.6066 -17.0245 37.932 0
277 -12.6066 -16.9577 38.12 0
278 -12.6066 -16.8872 38.3066 0
279 -12.6066 -16.8127 38.4917 0
280 -12.6066 -16.7345 38.6752 0
281 -12.6066 -16.6525 38.857 0
282 -12.6066 -16.5667 39.0371 0
283 -12.6066 -16.4772 39.2154 0
284 -12.6066 -16.3841 39.3918 0
285 -12.6066 -16.2874 39.5663 0
286 -12.6066 -16.187 39.7387 0
287 -12.6066 -16.0831 39.909 0
288 -12.6066 -15.9758 40.0771 0
289 -12.6066 -15.8649 40.243 0
290 -12.6066 -15.7507 40.4066 0
291 -12.6066 -15.6331 40.5677 0
292 -12.6066 -15.5122 40.7264 0
293 -12.6066 -15.3881 40.8825 0
294 -12.6066 -15.2607 41.0361 0
295 -12.6066 -15.1302 41.187 0
296 -12.6066 -14.9966 41.3351 0
297 -12.6066 -14.86 41.4805 0
298 -15.6546 -3.01678 43.1972 0
299 -12.6066 -3.01678 43.1972 0
300 -15.6546 -7.77231 44.45 0
301 -15.6546 -3.19087 43.2934 0
302 -15.6546 -3.36689 43.386 0
303 -15.6546 -3.54479 43.4749 0
304 -15.6546 -3.72449 43.5602 0
305 -15.6546 -3.9059 43.6418 0
306 -15.6546 -4.08896 43.7195 0
307 -15.6546 -4.27358 43.7936 0
308 -15.6546 -4.45969 43.8637 0
309 -15.6546 -4.6472 43.9301 0
310 -15.6546 -4.83604 43.9925 0
311 -15.6546 -5.02613 44.0511 0
312 -15.6546 -5.21738 44.1057 0
313 -15.6546 -5.40972 44.1564 0
314 -15.6546 -5.60306 44.2031 0
315 -15.6546 -5.79732 44.2458 0
316 -15.6546 -5.99242 44.2845 0
317 -15.6546 -6.18828 44.3191 0
318 -15.6546 -6.38481 44.3498 0
319 -15.6546 -6.58193 44.3763 0
320 -15.6546 -6.77955 44.3988 0
321 -15.6546 -6.97759 44.4172 0
322 -15.6546 -7.17598 44.4316 0
323 -15.6546 -7.37462 44.4418 0
324 -15.6546 -7.57342 44.448 0
325 -12.6066 -7.77231 44.45 0
326 -12.6066 -7.57342 44.448 0
327 -12.6066 -7.37462 44.4418 0
328 -12.6066 -7.17598 44.4316 0
329 -12.6066 -6.97759 44.4172 0
330 -12.6066 -6.77955 44.3988 0
331 -12.6066 -6.58193 44.3763 0
332 -12.6066 -6.38481 44.3498 0
333 -12.6066 -6.18828 44.3191 0
334 -12.6066 -5.99242 44.2845 0
335 -12.6066 -5.79732 44.2458 0
336 -12.6066 -5.60306 44.2031 0
337 -12.6066 -5.40972 44.1564 0
338 -12.6066 -5.21738 44.1057 0
339 -12.6066 -5.02613 44.0511 0
340 -12.6066 -4.83604 43.9925 0
341 -12.6066 -4.6472 43.9301 0
342 -12.6066 -4.45969 43.8637 0
343 -12.6066 -4.27358 43.7936 0
344 -12.6066 -4.08896 43.7195 0
345 -12.6066 -3.9059 43.6418 0
346 -12.6066 -3.72449 43.5602 0
347 -12.6066 -3.54479 43.4749 0
348 -12.6066 -3.36689 43.386 0
349 -12.6066 -3.19087 43.2934 0
350 9.28046 -17.0825 0 0
351 9.28046 -17.0825 3.048 0
352 9.74542 -15.9599 0 0
353 9.33767 -17.0222 0 0
354 9.39164 -16.959 0 0
355 9.44224 -16.893 0 0
356 9.48931 -16.8246 0 0
357 9.53274 -16.7537 0 0
358 9.5724 -16.6806 0 0
359 9.60818 -16.6056 0 0
360 9.63998 -16.5288 0 0
361 9.66773 -16.4505 0 0
362 9.69133 -16.3708 0 0
363 9.71073 -16.29 0 0
364 9.72588 -16.2083 0 0
365 9.73673 -16.1259 0 0
366 9.74325 -16.043 0 0
367 9.74542 -15.9599 3.048 0
368 9.74325 -16.043 3.048 0
369 9.73673 -16.1259 3.048 0
370 9.72588 -16.2083 3.048 0
371 9.71073 -16.29 3.048 0
372 9.69133 -16.3708 3.048 0
373 9.66773 -16.4505 3.048 0
374 9.63998 -16.5288 3.048 0
375 9.60818 -16.6056 3.048 0
376 9.5724 -16.6806 3.048 0
377 9.53274 -16.7537 3.048 0
378 9.48931 -16.8246 3.048 0
379 9.44224 -16.893 3.048 0
380 9.39164 -16.959 3.048 0
381 9.33767 -17.0222 3.048 0
382 9.28046 20.0876 0 0
383 9.28046 20.0876 3.048 0
384 8.15792 20.5526 0 0
385 9.22017 20.1448 0 0
386 9.15697 20.1988 0 0
387 9.09103 20.2494 0 0
388 9.02254 20.2964 0 0
389 8.95167 20.3399 0 0
390 8.87863 20.3795 0 0
391 8.80362 20.4153 0 0
392 8.72683 20.4471 0 0
393 8.64849 20.4749 0 0
394 8.5688 20.4985 0 0
395 8.48798 20.5179 0 0
396 8.40626 20.533 0 0
397 8.32386 20.5439 0 0
398 8.24101 20.5504 0 0
399 8.15792 20.5526 3.048 0
400 8.24101 20.5504 3.048 0
401 8.32386 20.5439 3.048 0
402 8.40626 20.533 3.048 0
403 8.48798 20.5179 3.048 0
404 8.5688 20.4985 3.048 0
405 8.64849 20.4749 3.048 0
406 8.72683 20.4471 3.048 0
407 8.80362 20.4153 3.048 0
408 8.87863 20.3795 3.048 0
409 8.95167 20.3399 3.048 0
410 9.02254 20.2964 3.048 0
411 9.09103 20.2494 3.048 0
412 9.15697 20.1988 3.048 0
413 9.22017 20.1448 3.048 0
414 9.74542 18.9651 3.048 0
415 9.33767 20.0273 3.048 0
416 9.39164 19.9641 3.048 0
417 9.44224 19.8982 3.048 0
418 9.48931 19.8297 3.048 0
419 9.53274 19.7588 3.048 0
420 9.5724 19.6858 3.048 0
421 9.60818 19.6108 3.048 0
422 9.63998 19.534 3.048 0
423 9.66773 19.4556 3.048 0
424 9.69133 19.3759 3.048 0
425 9.71073 19.2951 3.048 0
426 9.72588 19.2134 3.048 0
427 9.73673 19.131 3.048 0
428 9.74325 19.0481 3.048 0
429 9.74542 18.9651 0 0
430 9.74325 19.0481 0 0
431 9.73673 19.131 0 0
432 9.72588 19.2134 0 0
433 9.71073 19.2951 0 0
434 9.69133 19.3759 0 0
435 9.66773 19.4556 0 0
436 9.63998 19.534 0 0
437 9.60818 19.6108 0 0
438 9.5724 19.6858 0 0
439 9.53274 19.7588 0 0
440 9.48931 19.8297 0 0
441 9.44224 19.8982 0 0
442 9.39164 19.9641 0 0
443 9.33767 20.0273 0 0
444 3.39542 20.5526 3.048 0
445 3.39542 14.2026 3.048 0
446 -3.20858 14.2026 3.048 0
447 -3.20656 14.0873 3.048 0
448 -3.20053 13.9722 3.048 0
449 -3.19049 13.8574 3.048 0
450 -3.17644 13.743 3.048 0
451 -3.15841 13.6292 3.048 0
452 -3.13642 13.516 3.048 0
453 -3.11049 13.4037 3.048 0
454 -3.08066 13.2924 3.048 0
455 -3.04697 13.1822 3.048 0
456 -3.00944 13.0732 3.048 0
457 -2.96814 12.9656 3.048 0
458 -2.9231 12.8595 3.048 0
459 -2.87439 12.7551 3.048 0
460 -2.82207 12.6524 3.048 0
461 -2.76619 12.5516 3.048 0
462 -2.70683 12.4528 3.048 0
463 -2.64406 12.3561 3.048 0
464 -2.57795 12.2617 3.048 0
465 -2.50859 12.1696 3.048 0
466 -2.43606 12.0801 3.048 0
467 -2.36044 11.9931 3.048 0
468 -2.28184 11.9088 3.048 0
469 -2.20034 11.8273 3.048 0
470 -2.11605 11.7487 3.048 0
471 -2.02906 11.6731 3.048 0
472 -1.93949 11.6005 3.048 0
473 -1.84744 11.5312 3.048 0
474 -1.75303 11.4651 3.048 0
475 -1.65637 11.4023 3.048 0
476 -1.55758 11.3429 3.048 0
477 -1.45677 11.2871 3.048 0
478 -1.35408 11.2347 3.048 0
479 -1.24962 11.186 3.048 0
480 -1.14353 11.141 3.048 0
481 -1.03593 11.0997 3.048 0
482 -0.92695 11.0622 3.048 0
483 -0.816731 11.0285 3.048 0
484 -0.705402 10.9986 3.048 0
485 -0.593101 10.9727 3.048 0
486 -0.479963 10.9507 3.048 0
487 -0.366126 10.9327 3.048 0
488 -0.251729 10.9186 3.048 0
489 -0.136912 10.9086 3.048 0
490 -0.021814 10.9026 3.048 0
491 0.093424 10.9006 3.048 0
492 0.208662 10.9026 3.048 0
493 0.32376 10.9086 3.048 0
494 0.438577 10.9186 3.048 0
495 0.552973 10.9327 3.048 0
496 0.66681 10.9507 3.048 0
497 0.779948 10.9727 3.048 0
498 0.89225 10.9986 3.048 0
499 1.00358 11.0285 3.048 0
500 1.1138 11.0622 3.048 0
501 1.22277 11.0997 3.048 0
502 1.33038 11.141 3.048 0
503 1.43647 11.186 3.048 0
504 1.54093 11.2347 3.048 0
505 1.64362 11.2871 3.048 0
506 1.74442 11.3429 3.048 0
507 1.84322 11.4023 3.048 0
508 1.93988 11.4651 3.048 0
509 2.03429 11.5312 3.048 0
510 2.12634 11.6005 3.048 0
511 2.21591 11.6731 3.048 0
512 2.30289 11.7487 3.048 0
513 2.38719 11.8273 3.048 0
514 2.46868 11.9088 3.048 0
515 2.54729 11.9931 3.048 0
516 2.6229 12.0801 3.048 0
517 2.69543 12.1696 3.048 0
518 2.7648 12.2617 3.048 0
519 2.83091 12.3561 3.048 0
520 2.89368 12.4528 3.048 0
521 2.95304 12.5516 3.048 0
522 3.00892 12.6524 3.048 0
523 3.06124 12.7551 3.048 0
524 3.10995 12.8595 3.048 0
525 3.15498 12.9656 3.048 0
526 3.19629 13.0732 3.048 0
527 3.23381 13.1822 3.048 0
528 3.26751 13.2924 3.048 0
529 3.29734 13.4037 3.048 0
530 3.32327 13.516 3.048 0
531 3.34526 13.6292 3.048 0
532 3.36329 13.743 3.048 0
533 3.37733 13.8574 3.048 0
534 3.38738 13.9722 3.048 0
535 3.39341 14.0873 3.048 0
536 -3.20858 20.5526 3.048 0
537 -11.8446 20.5526 3.048 0
538 -11.8446 -17.5474 3.048 0
539 -3.20858 -17.5474 3.048 0
540 -3.20858 -11.1974 3.048 0
541 3.39542 -11.1974 3.048 0
542 3.39341 -11.0822 3.048 0
543 3.38738 -10.9671 3.048 0
544 3.37733 -10.8523 3.048 0
545 3.36329 -10.7379 3.048 0
546 3.34526 -10.6241 3.048 0
547 3.32327 -10.5109 3.048 0
548 3.29734 -10.3986 3.048 0
549 3.26751 -10.2873 3.048 0
550 3.23381 -10.1771 3.048 0
551 3.19629 -10.0681 3.048 0
552 3.15498 -9.96049 3.048 0
553 3.10995 -9.8544 3.048 0
554 3.06124 -9.74994 3.048 0
555 3.00892 -9.64724 3.048 0
556 2.95304 -9.54644 3.048 0
557 2.89368 -9.44765 3.048 0
558 2.83091 -9.35098 3.048 0
559 2.7648 -9.25657 3.048 0
560 2.69543 -9.16453 3.048 0
561 2.6229 -9.07496 3.048 0
562 2.54729 -8.98797 3.048 0
563 2.46868 -8.90368 3.048 0
564 2.38719 -8.82218 3.048 0
565 2.30289 -8.74358 3.048 0
566 2.21591 -8.66796 3.048 0
567 2.12634 -8.59543 3.048 0
568 2.03429 -8.52607 3.048 0
569 1.93988 -8.45996 3.048 0
570 1.84322 -8.39719 3.048 0
571 1.74442 -8.33782 3.048 0
572 1.64362 -8.28195 3.048 0
573 1.54093 -8.22962 3.048 0
574 1.43647 -8.18091 3.048 0
575 1.33038 -8.13588 3.048 0
576 1.22277 -8.09458 3.048 0
577 1.1138 -8.05705 3.048 0
578 1.00358 -8.02335 3.048 0
579 0.89225 -7.99352 3.048 0
580 0.779948 -7.9676 3.048 0
581 0.66681 -7.9456 3.048 0
582 0.552973 -7.92758 3.048 0
583 0.438577 -7.91353 3.048 0
584 0.32376 -7.90348 3.048 0
585 0.208662 -7.89745 3.048 0
586 0.093424 -7.89544 3.048 0
587 -0.021814 -7.89745 3.048 0
588 -0.136912 -7.90348 3.048 0
589 -0.251729 -7.91353 3.048 0
590 -0.366126 -7.92758 3.048 0
591 -0.479963 -7.9456 3.048 0
592 -0.593101 -7.9676 3.048 0
593 -0.705402 -7.99352 3.048 0
594 -0.816731 -8.02335 3.048 0
595 -0.92695 -8.05705 3.048 0
596 -1.03593 -8.09458 3.048 0
597 -1.14353 -8.13588 3.048 0
598 -1.24962 -8.18091 3.048 0
599 -1.35408 -8.22962 3.048 0
600 -1.45677 -8.28195 3.048 0
601 -1.55758 -8.33782 3.048 0
602 -1.65637 -8.39719 3.048 0
603 -1.75303 -8.45996 3.048 0
604 -1.84744 -8.52607 3.048 0
605 -1.93949 -8.59543 3.048 0
606 -2.02906 -8.66796 3.048 0
607 -2.11605 -8.74358 3.048 0
608 -2.20034 -8.82218 3.048 0
609 -2.28184 -8.90368 3.048 0
610 -2.36044 -8.98797 3.048 0
611 -2.43606 -9.07496 3.048 0
612 -2.50859 -9.16453 3.048 0
613 -2.57795 -9.25657 3.048 0
614 -2.64406 -9.35098 3.048 0
615 -2.70683 -9.44765 3.048 0
616 -2.76619 -9.54644 3.048 0
617 -2.82207 -9.64724 3.048 0
618 -2.87439 -9.74994 3.048 0
619 -2.9231 -9.8544 3.048 0
620 -2.96814 -9.96049 3.048 0
621 -3.00944 -10.0681 3.048 0
622 -3.04697 -10.1771 3.048 0
623 -3.08066 -10.2873 3.048 0
624 -3.11049 -10.3986 3.048 0
625 -3.13642 -10.5109 3.048 0
626 -3.15841 -10.6241 3.048 0
627 -3.17644 -10.7379 3.048 0
628 -3.19049 -10.8523 3.048 0
629 -3.20053 -10.9671 3.048 0
630 -3.20656 -11.0822 3.048 0
631 3.39542 -17.5474 3.048 0
632 8.15792 -17.5474 3.048 0
633 9.22017 -17.1397 3.048 0
634 9.15697 -17.1937 3.048 0
635 9.09103 -17.2443 3.048 0
636 9.02254 -17.2913 3.048 0
637 8.95167 -17.3348 3.048 0
638 8.87863 -17.3744 3.048 0
639 8.80362 -17.4102 3.048 0
640 8.72683 -17.442 3.048 0
641 8.64849 -17.4697 3.048 0
642 8.5688 -17.4933 3.048 0
643 8.48798 -17.5128 3.048 0
644 8.40626 -17.5279 3.048 0
645 8.32386 -17.5387 3.048 0
646 8.24101 -17.5453 3.048 0
647 -1.04958 1.50256 3.048 0
648 8.15792 -17.5474 0 0
649 8.24101 -17.5453 0 0
650 8.32386 -17.5387 0 0
651 8.40626 -17.5279 0 0
652 8.48798 -17.5128 0 0
653 8.5688 -17.4933 0 0
654 8.64849 -17.4697 0 0
655 8.72683 -17.442 0 0
656 8.80362 -17.4102 0 0
657 8.87863 -17.3744 0 0
658 8.95167 -17.3348 0 0
659 9.02254 -17.2913 0 0
660 9.09103 -17.2443 0 0
661 9.15697 -17.1937 0 0
662 9.22017 -17.1397 0 0
663 3.39542 -17.5474 0 0
664 -12.6066 0.504212 39.7639 0
665 -12.6066 -2.84472 43.0974 0
666 -12.6066 -2.67475 42.9941 0
667 -12.6066 -2.50694 42.8873 0
668 -12.6066 -2.34137 42.7771 0
669 -12.6066 -2.1781 42.6635 0
670 -12.6066 -2.01721 42.5465 0
671 -12.6066 -1.85877 42.4263 0
672 -12.6066 -1.70283 42.3028 0
673 -12.6066 -1.54948 42.1762 0
674 -12.6066 -1.39876 42.0464 0
675 -12.6066 -1.25076 41.9135 0
676 -12.6066 -1.10552 41.7776 0
677 -12.6066 -0.963111 41.6388 0
678 -12.6066 -0.823596 41.497 0
679 -12.6066 -0.687031 41.3524 0
680 -12.6066 -0.553476 41.205 0
681 -12.6066 -0.422986 41.0549 0
682 -12.6066 -0.295616 40.9021 0
683 -12.6066 -0.171422 40.7467 0
684 -12.6066 -0.050456 40.5889 0
685 -12.6066 0.067232 40.4285 0
686 -12.6066 0.18159 40.2658 0
687 -12.6066 0.292571 40.1007 0
688 -12.6066 0.400126 39.9334 0
689 -15.6546 0.504212 39.7639 0
690 -15.6546 0.400126 39.9334 0
691 -15.6546 0.292571 40.1007 0
692 -15.6546 0.18159 40.2658 0
693 -15.6546 0.067232 40.4285 0
694 -15.6546 -0.050456 40.5889 0
695 -15.6546 -0.171422 40.7467 0
696 -15.6546 -0.295616 40.9021 0
697 -15.6546 -0.422986 41.0549 0
698 -15.6546 -0.553476 41.205 0
699 -15.6546 -0.687031 41.3524 0
700 -15.6546 -0.823596 41.497 0
701 -15.6546 -0.963111 41.6388 0
702 -15.6546 -1.10552 41.7776 0
703 -15.6546 -1.25076 41.9135 0
704 -15.6546 -1.39876 42.0464 0
705 -15.6546 -1.54948 42.1762 0
706 -15.6546 -1.70283 42.3028 0
707 -15.6546 -1.85877 42.4263 0
708 -15.6546 -2.01721 42.5465 0
709 -15.6546 -2.1781 42.6635 0
710 -15.6546 -2.34137 42.7771 0
711 -15.6546 -2.50694 42.8873 0
712 -15.6546 -2.67475 42.9941 0
713 -15.6546 -2.84472 43.0974 0
714 -12.6066 -7.89544 44.45 0
715 -12.6066 -14.5779 41.7626 0
716 -12.6066 -14.4326 41.8992 0
717 -12.6066 -14.2844 42.0328 0
718 -12.6066 -14.1335 42.1633 0
719 -12.6066 -13.98 42.2906 0
720 -12.6066 -13.8238 42.4148 0
721 -12.6066 -13.6651 42.5357 0
722 -12.6066 -13.504 42.6533 0
723 -12.6066 -13.3405 42.7675 0
724 -12.6066 -13.1746 42.8783 0
725 -12.6066 -13.0065 42.9857 0
726 -12.6066 -12.8362 43.0896 0
727 -12.6066 -12.6637 43.1899 0
728 -12.6066 -12.4893 43.2867 0
729 -12.6066 -12.3129 43.3798 0
730 -12.6066 -12.1346 43.4693 0
731 -12.6066 -11.9545 43.555 0
732 -12.6066 -11.7726 43.637 0
733 -12.6066 -11.5891 43.7153 0
734 -12.6066 -11.404 43.7897 0
735 -12.6066 -11.2174 43.8603 0
736 -12.6066 -11.0294 43.927 0
737 -12.6066 -10.8401 43.9898 0
738 -12.6066 -10.6495 44.0487 0
739 -12.6066 -10.4577 44.1037 0
740 -12.6066 -10.2649 44.1547 0
741 -12.6066 -10.071 44.2016 0
742 -12.6066 -9.87618 44.2446 0
743 -12.6066 -9.68052 44.2835 0
744 -12.6066 -9.48411 44.3184 0
745 -12.6066 -9.28701 44.3492 0
746 -12.6066 -9.08932 44.3759 0
747 -12.6066 -8.89112 44.3985 0
748 -12.6066 -8.6925 44.417 0
749 -12.6066 -8.49353 44.4315 0
750 -12.6066 -8.29431 44.4418 0
751 -12.6066 -8.09492 44.4479 0
752 -12.6066 -17.5474 3.81 0
753 -12.6066 20.5526 3.81 0
754 -12.6066 20.5526 6.35 0
755 -12.6066 -7.75636 39.622 0
756 -12.6066 -7.6174 39.616 0
757 -12.6066 -7.47868 39.606 0
758 -12.6066 -7.34029 39.592 0
759 -12.6066 -7.20237 39.574 0
760 -12.6066 -7.06503 39.552 0
761 -12.6066 -6.92837 39.5261 0
762 -12.6066 -6.79252 39.4963 0
763 -12.6066 -6.65758 39.4625 0
764 -12.6066 -6.52367 39.4249 0
765 -12.6066 -6.3909 39.3835 0
766 -12.6066 -6.25938 39.3382 0
767 -12.6066 -6.12922 39.2892 0
768 -12.6066 -6.00053 39.2364 0
769 -12.6066 -5.87341 39.18 0
770 -12.6066 -5.74797 39.1199 0
771 -12.6066 -5.62431 39.0562 0
772 -12.6066 -5.50254 38.989 0
773 -12.6066 -5.38276 38.9183 0
774 -12.6066 -5.26507 38.8442 0
775 -12.6066 -5.14956 38.7667 0
776 -12.6066 -5.03633 38.6859 0
777 -12.6066 -4.92548 38.6019 0
778 -12.6066 -4.81709 38.5147 0
779 -12.6066 -4.71126 38.4245 0
780 -12.6066 -4.60807 38.3312 0
781 -12.6066 -4.50762 38.235 0
782 -12.6066 -4.40998 38.1359 0
783 -12.6066 -4.31524 38.0341 0
784 -12.6066 -4.22346 37.9296 0
785 -12.6066 -4.13474 37.8225 0
786 -12.6066 -4.04915 37.7128 0
787 -12.6066 -3.96674 37.6008 0
788 -12.6066 -3.8876 37.4864 0
789 -12.6066 -3.8118 37.3698 0
790 -12.6066 -3.73938 37.251 0
791 -12.6066 -3.67041 37.1303 0
792 -12.6066 -3.60495 37.0075 0
793 -12.6066 -3.54306 36.883 0
794 -12.6066 -3.48479 36.7567 0
795 -12.6066 -3.43017 36.6288 0
796 -12.6066 -3.37927 36.4993 0
797 -12.6066 -3.33212 36.3685 0
798 -12.6066 -3.28875 36.2363 0
799 -12.6066 -3.24922 36.103 0
800 -12.6066 -3.21354 35.9685 0
801 -12.6066 -3.18175 35.8331 0
802 -12.6066 -3.15388 35.6968 0
803 -12.6066 -3.12995 35.5598 0
804 -12.6066 -3.10997 35.4222 0
805 -12.6066 -3.09397 35.284 0
806 -12.6066 -3.08196 35.1454 0
807 -12.6066 -3.07395 35.0066 0
808 -12.6066 -3.06994 34.8675 0
809 -12.6066 -3.06994 34.7285 0
810 -12.6066 -3.07395 34.5894 0
811 -12.6066 -3.08196 34.4506 0
812 -12.6066 -3.09397 34.312 0
813 -12.6066 -3.10997 34.1738 0
814 -12.6066 -3.12995 34.0362 0
815 -12.6066 -3.15388 33.8992 0
816 -12.6066 -3.18175 33.7629 0
817 -12.6066 -3.21354 33.6275 0
818 -12.6066 -3.24922 33.493 0
819 -12.6066 -3.28875 33.3597 0
820 -12.6066 -3.33212 33.2275 0
821 -12.6066 -3.37927 33.0967 0
822 -12.6066 -3.43017 32.9672 0
823 -12.6066 -3.48479 32.8393 0
824 -12.6066 -3.54306 32.713 0
825 -12.6066 -3.60495 32.5885 0
826 -12.6066 -3.67041 32.4657 0
827 -12.6066 -3.73938 32.345 0
828 -12.6066 -3.8118 32.2262 0
829 -12.6066 -3.8876 32.1096 0
830 -12.6066 -3.96674 31.9952 0
831 -12.6066 -4.04915 31.8832 0
832 -12.6066 -4.13474 31.7735 0
833 -12.6066 -4.22346 31.6664 0
834 -12.6066 -4.31524 31.5619 0
835 -12.6066 -4.40998 31.4601 0
836 -12.6066 -4.50762 31.361 0
837 -12.6066 -4.60807 31.2648 0
838 -12.6066 -4.71126 31.1715 0
839 -12.6066 -4.81709 31.0813 0
840 -12.6066 -4.92548 30.9941 0
841 -12.6066 -5.03633 30.9101 0
842 -12.6066 -5.14956 30.8293 0
843 -12.6066 -5.26507 30.7518 0
844 -12.6066 -5.38276 30.6777 0
845 -12.6066 -5.50254 30.607 0
846 -12.6066 -5.62431 30.5398 0
847 -12.6066 -5.74797 30.4761 0
848 -12.6066 -5.87341 30.416 0
849 -12.6066 -6.00053 30.3596 0
850 -12.6066 -6.12922 30.3068 0
851 -12.6066 -6.25938 30.2578 0
852 -12.6066 -6.3909 30.2125 0
853 -12.6066 -6.52367 30.1711 0
854 -12.6066 -6.65758 30.1335 0
855 -12.6066 -6.79252 30.0997 0
856 -12.6066 -6.92837 30.0699 0
857 -12.6066 -7.06503 30.044 0
858 -12.6066 -7.20237 30.022 0
859 -12.6066 -7.34029 30.004 0
860 -12.6066 -7.47868 29.99 0
861 -12.6066 -7.6174 29.98 0
862 -12.6066 -7.75636 29.974 0
863 -12.6066 1.50256 24.13 0
864 -15.6546 -7.89544 44.45 0
865 -15.6546 20.5526 6.35 0
866 -15.6546 -8.09492 44.4479 0
867 -15.6546 -8.29431 44.4418 0
868 -15.6546 -8.49353 44.4315 0
869 -15.6546 -8.6925 44.417 0
870 -15.6546 -8.89112 44.3985 0
871 -15.6546 -9.08932 44.3759 0
872 -15.6546 -9.28701 44.3492 0
873 -15.6546 -9.48411 44.3184 0
874 -15.6546 -9.68052 44.2835 0
875 -15.6546 -9.87618 44.2446 0
876 -15.6546 -10.071 44.2016 0
877 -15.6546 -10.2649 44.1547 0
878 -15.6546 -10.4577 44.1037 0
879 -15.6546 -10.6495 44.0487 0
880 -15.6546 -10.8401 43.9898 0
881 -15.6546 -11.0294 43.927 0
882 -15.6546 -11.2174 43.8603 0
883 -15.6546 -11.404 43.7897 0
884 -15.6546 -11.5891 43.7153 0
885 -15.6546 -11.7726 43.637 0
886 -15.6546 -11.9545 43.555 0
887 -15.6546 -12.1346 43.4693 0
888 -15.6546 -12.3129 43.3798 0
889 -15.6546 -12.4893 43.2867 0
890 -15.6546 -12.6637 43.1899 0
891 -15.6546 -12.8362 43.0896 0
892 -15.6546 -13.0065 42.9857 0
893 -15.6546 -13.1746 42.8783 0
894 -15.6546 -13.3405 42.7675 0
895 -15.6546 -13.504 42.6533 0
896 -15.6546 -13.6651 42.5357 0
897 -15.6546 -13.8238 42.4148 0
898 -15.6546 -13.98 42.2906 0
899 -15.6546 -14.1335 42.1633 0
900 -15.6546 -14.2844 42.0328 0
901 -15.6546 -14.4326 41.8992 0
902 -15.6546 -14.5779 41.7626 0
903 -15.6546 -17.5474 3.81 0
904 -15.6546 20.5526 3.81 0
905 -15.6546 -7.75636 29.974 0
906 -15.6546 -7.6174 29.98 0
907 -15.6546 -7.47868 29.99 0
908 -15.6546 -7.34029 30.004 0
909 -15.6546 -7.20237 30.022 0
910 -15.6546 -7.06503 30.044 0
911 -15.6546 -6.92837 30.0699 0
912 -15.6546 -6.79252 30.0997 0
913 -15.6546 -6.65758 30.1335 0
914 -15.6546 -6.52367 30.1711 0
915 -15.6546 -6.3909 30.2125 0
916 -15.6546 -6.25938 30.2578 0
917 -15.6546 -6.12922 30.3068 0
918 -15.6546 -6.00053 30.3596 0
919 -15.6546 -5.87341 30.416 0
920 -15.6546 -5.74797 30.4761 0
921 -15.6546 -5.62431 30.5398 0
922 -15.6546 -5.50254 30.607 0
923 -15.6546 -5.38276 30.6777 0
924 -15.6546 -5.26507 30.7518 0
925 -15.6546 -5.14956 30.8293 0
926 -15.6546 -5.03633 30.9101 0
927 -15.6546 -4.92548 30.9941 0
928 -15.6546 -4.81709 31.0813 0
929 -15.6546 -4.71126 31.1715 0
930 -15.6546 -4.60807 31.2648 0
931 -15.6546 -4.50762 31.361 0
932 -15.6546 -4.40998 31.4601 0
933 -15.6546 -4.31524 31.5619 0
934 -15.6546 -4.22346 31.6664 0
935 -15.6546 -4.13474 31.7735 0
936 -15.6546 -4.04915 31.8832 0
937 -15.6546 -3.96674 31.9952 0
938 -15.6546 -3.8876 32.1096 0
939 -15.6546 -3.8118 32.2262 0
940 -15.6546 -3.73938 32.345 0
941 -15.6546 -3.67041 32.4657 0
942 -15.6546 -3.60495 32.5885 0
943 -15.6546 -3.54306 32.713 0
944 -15.6546 -3.48479 32.8393 0
945 -15.6546 -3.43017 32.9672 0
946 -15.6546 -3.37927 33.0967 0
947 -15.6546 -3.33212 33.2275 0
948 -15.6546 -3.28875 33.3597 0
949 -15.6546 -3.24922 33.493 0
950 -15.6546 -3.21354 33.6275 0
951 -15.6546 -3.18175 33.7629 0
952 -15.6546 -3.15388 33.8992 0
953 -15.6546 -3.12995 34.0362 0
954 -15.6546 -3.10997 34.1738 0
955 -15.6546 -3.09397 34.312 0
956 -15.6546 -3.08196 34.4506 0
957 -15.6546 -3.07395 34.5894 0
958 -15.6546 -3.06994 34.7285 0
959 -15.6546 -3.06994 34.8675 0
960 -15.6546 -3.07395 35.0066 0
961 -15.6546 -3.08196 35.1454 0
962 -15.6546 -3.09397 35.284 0
963 -15.6546 -3.10997 35.4222 0
964 -15.6546 -3.12995 35.5598 0
965 -15.6546 -3.15388 35.6968 0
966 -15.6546 -3.18175 35.8331 0
967 -15.6546 -3.21354 35.9685 0
968 -15.6546 -3.24922 36.103 0
969 -15.6546 -3.28875 36.2363 0
970 -15.6546 -3.33212 36.3685 0
971 -15.6546 -3.37927 36.4993 0
972 -15.6546 -3.43017 36.6288 0
973 -15.6546 -3.48479 36.7567 0
974 -15.6546 -3.54306 36.883 0
975 -15.6546 -3.60495 37.0075 0
976 -15.6546 -3.67041 37.1303 0
977 -15.6546 -3.73938 37.251 0
978 -15.6546 -3.8118 37.3698 0
979 -15.6546 -3.8876 37.4864 0
980 -15.6546 -3.96674 37.6008 0
981 -15.6546 -4.04915 37.7128 0
982 -15.6546 -4.13474 37.8225 0
983 -15.6546 -4.22346 37.9296 0
984 -15.6546 -4.31524 38.0341 0
985 -15.6546 -4.40998 38.1359 0
986 -15.6546 -4.50762 38.235 0
987 -15.6546 -4.60807 38.3312 0
988 -15.6546 -4.71126 38.4245 0
989 -15.6546 -4.81709 38.5147 0
990 -15.6546 -4.92548 38.6019 0
991 -15.6546 -5.03633 38.6859 0
992 -15.6546 -5.14956 38.7667 0
993 -15.6546 -5.26507 38.8442 0
994 -15.6546 -5.38276 38.9183 0
995 -15.6546 -5.50254 38.989 0
996 -15.6546 -5.62431 39.0562 0
997 -15.6546 -5.74797 39.1199 0
998 -15.6546 -5.87341 39.18 0
999 -15.6546 -6.00053 39.2364 0
1000 -15.6546 -6.12922 39.2892 0
1001 -15.6546 -6.25938 39.3382 0
1002 -15.6546 -6.3909 39.3835 0
1003 -15.6546 -6.52367 39.4249 0
1004 -15.6546 -6.65758 39.4625 0
1005 -15.6546 -6.79252 39.4963 0
1006 -15.6546 -6.92837 39.5261 0
1007 -15.6546 -7.06503 39.552 0
1008 -15.6546 -7.20237 39.574 0
1009 -15.6546 -7.34029 39.592 0
1010 -15.6546 -7.47868 39.606 0
1011 -15.6546 -7.6174 39.616 0
1012 -15.6546 -7.75636 39.622 0
1013 -15.6546 1.50256 24.13 0
1014 -11.8446 -17.5474 0 0
1015 -11.9692 -17.5474 0.00204 0
1016 -12.0938 -17.5474 0.008158 0
1017 -12.218 -17.5474 0.018346 0
1018 -12.3419 -17.5474 0.032595 0
1019 -12.4652 -17.5474 0.050889 0
1020 -12.5879 -17.5474 0.073208 0
1021 -12.7097 -17.5474 0.099529 0
1022 -12.8307 -17.5474 0.129823 0
1023 -12.9506 -17.5474 0.164057 0
1024 -13.0693 -17.5474 0.202196 0
1025 -13.1866 -17.5474 0.244198 0
1026 -13.3026 -17.5474 0.290019 0
1027 -13.417 -17.5474 0.339609 0
1028 -13.5297 -17.5474 0.392915 0
1029 -13.6406 -17.5474 0.44988 0
1030 -13.7496 -17.5474 0.510443 0
1031 -13.8565 -17.5474 0.57454 0
1032 -13.9613 -17.5474 0.642101 0
1033 -14.0638 -17.5474 0.713054 0
1034 -14.164 -17.5474 0.787324 0
1035 -14.2616 -17.5474 0.86483 0
1036 -14.3567 -17.5474 0.94549 0
1037 -14.4491 -17.5474 1.02922 0
1038 -14.5387 -17.5474 1.11592 0
1039 -14.6254 -17.5474 1.20551 0
1040 -14.7091 -17.5474 1.29789 0
1041 -14.7897 -17.5474 1.39296 0
1042 -14.8673 -17.5474 1.49062 0
1043 -14.9415 -17.5474 1.59076 0
1044 -15.0125 -17.5474 1.69328 0
1045 -15.08 -17.5474 1.79806 0
1046 -15.1441 -17.5474 1.905 0
1047 -15.2047 -17.5474 2.01398 0
1048 -15.2617 -17.5474 2.12488 0
1049 -15.315 -17.5474 2.23759 0
1050 -15.3646 -17.5474 2.35198 0
1051 -15.4104 -17.5474 2.46793 0
1052 -15.4524 -17.5474 2.58532 0
1053 -15.4905 -17.5474 2.70402 0
1054 -15.5248 -17.5474 2.8239 0
1055 -15.555 -17.5474 2.94484 0
1056 -15.5814 -17.5474 3.06671 0
1057 -15.6037 -17.5474 3.18937 0
1058 -15.622 -17.5474 3.3127 0
1059 -15.6362 -17.5474 3.43655 0
1060 -15.6464 -17.5474 3.56081 0
1061 -15.6525 -17.5474 3.68534 0
1062 -3.20858 -17.5474 0 0
1063 -11.9015 -17.5474 3.05013 0
1064 -11.9581 -17.5474 3.05651 0
1065 -12.0141 -17.5474 3.06711 0
1066 -12.0692 -17.5474 3.08185 0
1067 -12.123 -17.5474 3.10067 0
1068 -12.1752 -17.5474 3.12346 0
1069 -12.2256 -17.5474 3.15009 0
1070 -12.2738 -17.5474 3.18041 0
1071 -12.3197 -17.5474 3.21424 0
1072 -12.3629 -17.5474 3.25141 0
1073 -12.4032 -17.5474 3.29171 0
1074 -12.4403 -17.5474 3.3349 0
1075 -12.4742 -17.5474 3.38075 0
1076 -12.5045 -17.5474 3.429 0
1077 -12.5311 -17.5474 3.47938 0
1078 -12.5539 -17.5474 3.53161 0
1079 -12.5727 -17.5474 3.5854 0
1080 -12.5875 -17.5474 3.64044 0
1081 -12.5981 -17.5474 3.69643 0
1082 -12.6044 -17.5474 3.75306 0
1083 -11.9015 20.5526 3.05013 0
1084 -11.9581 20.5526 3.05651 0
1085 -12.0141 20.5526 3.06711 0
1086 -12.0692 20.5526 3.08185 0
1087 -12.123 20.5526 3.10067 0
1088 -12.1752 20.5526 3.12346 0
1089 -12.2256 20.5526 3.15009 0
1090 -12.2738 20.5526 3.18041 0
1091 -12.3197 20.5526 3.21424 0
1092 -12.3629 20.5526 3.25141 0
1093 -12.4032 20.5526 3.29171 0
1094 -12.4403 20.5526 3.3349 0
1095 -12.4742 20.5526 3.38075 0
1096 -12.5045 20.5526 3.429 0
1097 -12.5311 20.5526 3.47938 0
1098 -12.5539 20.5526 3.53161 0
1099 -12.5727 20.5526 3.5854 0
1100 -12.5875 20.5526 3.64044 0
1101 -12.5981 20.5526 3.69643 0
1102 -12.6044 20.5526 3.75306 0
1103 -11.8446 20.5526 0 0
1104 -11.9692 20.5526 0.00204 0
1105 -12.0938 20.5526 0.008158 0
1106 -12.218 20.5526 0.018346 0
1107 -12.3419 20.5526 0.032595 0
1108 -12.4652 20.5526 0.050889 0
1109 -12.5879 20.5526 0.073208 0
1110 -12.7097 20.5526 0.099529 0
1111 -12.8307 20.5526 0.129823 0
1112 -12.9506 20.5526 0.164057 0
1113 -13.0693 20.5526 0.202196 0
1114 -13.1866 20.5526 0.244198 0
1115 -13.3026 20.5526 0.290019 0
1116 -13.417 20.5526 0.339609 0
1117 -13.5297 20.5526 0.392915 0
1118 -13.6406 20.5526 0.44988 0
1119 -13.7496 20.5526 0.510443 0
1120 -13.8565 20.5526 0.57454 0
1121 -13.9613 20.5526 0.642101 0
1122 -14.0638 20.5526 0.713054 0
1123 -14.164 20.5526 0.787324 0
1124 -14.2616 20.5526 0.86483 0
1125 -14.3567 20.5526 0.94549 0
1126 -14.4491 20.5526 1.02922 0
1127 -14.5387 20.5526 1.11592 0
1128 -14.6254 20.5526 1.20551 0
1129 -14.7091 20.5526 1.29789 0
1130 -14.7897 20.5526 1.39296 0
1131 -14.8673 20.5526 1.49062 0
1132 -14.9415 20.5526 1.59076 0
1133 -15.0125 20.5526 1.69328 0
1134 -15.08 20.5526 1.79806 0
1135 -15.1441 20.5526 1.905 0
1136 -15.2047 20.5526 2.01398 0
1137 -15.2617 20.5526 2.12488 0
1138 -15.315 20.5526 2.23759 0
1139 -15.3646 20.5526 2.35198 0
1140 -15.4104 20.5526 2.46793 0
1141 -15.4524 20.5526 2.58532 0
1142 -15.4905 20.5526 2.70402 0
1143 -15.5248 20.5526 2.8239 0
1144 -15.555 20.5526 2.94484 0
1145 -15.5814 20.5526 3.06671 0
1146 -15.6037 20.5526 3.18937 0
1147 -15.622 20.5526 3.3127 0
1148 -15.6362 20.5526 3.43655 0
1149 -15.6464 20.5526 3.56081 0
1150 -15.6525 20.5526 3.68534 0
1151 -3.20858 20.5526 0 0
1152 -3.20858 14.2026 0 0
1153 3.39542 14.2026 0 0
1154 3.39341 14.0873 0 0
1155 3.38738 13.9722 0 0
1156 3.37733 13.8574 0 0
1157 3.36329 13.743 0 0
1158 3.34526 13.6292 0 0
1159 3.32327 13.516 0 0
1160 3.29734 13.4037 0 0
1161 3.26751 13.2924 0 0
1162 3.23381 13.1822 0 0
1163 3.19629 13.0732 0 0
1164 3.15498 12.9656 0 0
1165 3.10995 12.8595 0 0
1166 3.06124 12.7551 0 0
1167 3.00892 12.6524 0 0
1168 2.95304 12.5516 0 0
1169 2.89368 12.4528 0 0
1170 2.83091 12.3561 0 0
1171 2.7648 12.2617 0 0
1172 2.69543 12.1696 0 0
1173 2.6229 12.0801 0 0
1174 2.54729 11.9931 0 0
1175 2.46868 11.9088 0 0
1176 2.38719 11.8273 0 0
1177 2.30289 11.7487 0 0
1178 2.21591 11.6731 0 0
1179 2.12634 11.6005 0 0
1180 2.03429 11.5312 0 0
1181 1.93988 11.4651 0 0
1182 1.84322 11.4023 0 0
1183 1.74442 11.3429 0 0
1184 1.64362 11.2871 0 0
1185 1.54093 11.2347 0 0
1186 1.43647 11.186 0 0
1187 1.33038 11.141 0 0
1188 1.22277 11.0997 0 0
1189 1.1138 11.0622 0 0
1190 1.00358 11.0285 0 0
1191 0.89225 10.9986 0 0
1192 0.779948 10.9727 0 0
1193 0.66681 10.9507 0 0
1194 0.552973 10.9327 0 0
1195 0.438577 10.9186 0 0
1196 0.32376 10.9086 0 0
1197 0.208662 10.9026 0 0
1198 0.093424 10.9006 0 0
1199 -0.021814 10.9026 0 0
1200 -0.136912 10.9086 0 0
1201 -0.251729 10.9186 0 0
1202 -0.366126 10.9327 0 0
1203 -0.479963 10.9507 0 0
1204 -0.593101 10.9727 0 0
1205 -0.705402 10.9986 0 0
1206 -0.816731 11.0285 0 0
1207 -0.92695 11.0622 0 0
1208 -1.03593 11.0997 0 0
1209 -1.14353 11.141 0 0
1210 -1.24962 11.186 0 0
1211 -1.35408 11.2347 0 0
1212 -1.45677 11.2871 0 0
1213 -1.55758 11.3429 0 0
1214 -1.65637 11.4023 0 0
1215 -1.75303 11.4651 0 0
1216 -1.84744 11.5312 0 0
1217 -1.93949 11.6005 0 0
1218 -2.02906 11.6731 0 0
1219 -2.11605 11.7487 0 0
1220 -2.20034 11.8273 0 0
1221 -2.28184 11.9088 0 0
1222 -2.36044 11.9931 0 0
1223 -2.43606 12.0801 0 0
1224 -2.50859 12.1696 0 0
1225 -2.57795 12.2617 0 0
1226 -2.64406 12.3561 0 0
1227 -2.70683 12.4528 0 0
1228 -2.76619 12.5516 0 0
1229 -2.82207 12.6524 0 0
1230 -2.87439 12.7551 0 0
1231 -2.9231 12.8595 0 0
1232 -2.96814 12.9656 0 0
1233 -3.00944 13.0732 0 0
1234 -3.04697 13.1822 0 0
1235 -3.08066 13.2924 0 0
1236 -3.11049 13.4037 0 0
1237 -3.13642 13.516 0 0
1238 -3.15841 13.6292 0 0
1239 -3.17644 13.743 0 0
1240 -3.19049 13.8574 0 0
1241 -3.20053 13.9722 0 0
1242 -3.20656 14.0873 0 0
1243 3.39542 20.5526 0 0
1244 3.39542 -11.1974 0 0
1245 -3.20858 -11.1974 0 0
1246 -3.20656 -11.0822 0 0
1247 -3.20053 -10.9671 0 0
1248 -3.19049 -10.8523 0 0
1249 -3.17644 -10.7379 0 0
1250 -3.15841 -10.6241 0 0
1251 -3.13642 -10.5109 0 0
1252 -3.11049 -10.3986 0 0
1253 -3.08066 -10.2873 0 0
1254 -3.04697 -10.1771 0 0
1255 -3.00944 -10.0681 0 0
1256 -2.96814 -9.96049 0 0
1257 -2.9231 -9.8544 0 0
1258 -2.87439 -9.74994 0 0
1259 -2.82207 -9.64724 0 0
1260 -2.76619 -9.54644 0 0
1261 -2.70683 -9.44765 0 0
1262 -2.64406 -9.35098 0 0
1263 -2.57795 -9.25657 0 0
1264 -2.50859 -9.16453 0 0
1265 -2.43606 -9.07496 0 0
1266 -2.36044 -8.98797 0 0
1267 -2.28184 -8.90368 0 0
1268 -2.20034 -8.82218 0 0
1269 -2.11605 -8.74358 0 0
1270 -2.02906 -8.66796 0 0
1271 -1.93949 -8.59543 0 0
1272 -1.84744 -8.52607 0 0
1273 -1.75303 -8.45996 0 0
1274 -1.65637 -8.39719 0 0
1275 -1.55758 -8.33782 0 0
1276 -1.45677 -8.28195 0 0
1277 -1.35408 -8.22962 0 0
1278 -1.24962 -8.18091 0 0
1279 -1.14353 -8.13588 0 0
1280 -1.03593 -8.09458 0 0
1281 -0.92695 -8.05705 0 0
1282 -0.816731 -8.02335 0 0
1283 -0.705402 -7.99352 0 0
1284 -0.593101 -7.9676 0 0
1285 -0.479963 -7.9456 0 0
1286 -0.366126 -7.92758 0 0
1287 -0.251729 -7.91353 0 0
1288 -0.136912 -7.90348 0 0
1289 -0.021814 -7.89745 0 0
1290 0.093424 -7.89544 0 0
1291 0.208662 -7.89745 0 0
1292 0.32376 -7.90348 0 0
1293 0.438577 -7.91353 0 0
1294 0.552973 -7.92758 0 0
1295 0.66681 -7.9456 0 0
1296 0.779948 -7.9676 0 0
1297 0.89225 -7.99352 0 0
1298 1.00358 -8.02335 0 0
1299 1.1138 -8.05705 0 0
1300 1.22277 -8.09458 0 0
1301 1.33038 -8.13588 0 0
1302 1.43647 -8.18091 0 0
1303 1.54093 -8.22962 0 0
1304 1.64362 -8.28195 0 0
1305 1.74442 -8.33782 0 0
1306 1.84322 -8.39719 0 0
1307 1.93988 -8.45996 0 0
1308 2.03429 -8.52607 0 0
1309 2.12634 -8.59543 0 0
1310 2.21591 -8.66796 0 0
1311 2.30289 -8.74358 0 0
1312 2.38719 -8.82218 0 0
1313 2.46868 -8.90368 0 0
1314 2.54729 -8.98797 0 0
1315 2.6229 -9.07496 0 0
1316 2.69543 -9.16453 0 0
1317 2.7648 -9.25657 0 0
1318 2.83091 -9.35098 0 0
1319 2.89368 -9.44765 0 0
1320 2.95304 -9.54644 0 0
1321 3.00892 -9.64724 0 0
1322 3.06124 -9.74994 0 0
1323 3.10995 -9.8544 0 0
1324 3.15498 -9.96049 0 0
1325 3.19629 -10.0681 0 0
1326 3.23381 -10.1771 0 0
1327 3.26751 -10.2873 0 0
1328 3.29734 -10.3986 0 0
1329 3.32327 -10.5109 0 0
1330 3.34526 -10.6241 0 0
1331 3.36329 -10.7379 0 0
1332 3.37733 -10.8523 0 0
1333 3.38738 -10.9671 0 0
1334 3.39341 -11.0822 0 0
1335 -1.04958 1.50256 0 0
2672 1
1 0 1
3 115 107 108 
1 0 1
3 116 106 107 
1 0 1
3 119 103 104 
1 0 1
3 120 102 103 
1 0 1
3 105 106 117 
1 0 1
3 113 109 110 
1 0 1
3 109 114 108 
1 0 1
3 105 118 104 
1 0 1
3 100 101 121 
1 0 1
3 124 98 99 
1 0 1
3 101 102 121 
1 0 1
3 99 100 123 
1 0 1
3 83 140 82 
1 0 1
3 75 76 147 
1 0 1
3 67 68 155 
1 0 1
3 127 95 96 
1 0 1
3 128 94 95 
1 0 1
3 130 92 93 
1 0 1
3 132 90 91 
1 0 1
3 91 92 130 
1 0 1
3 93 94 129 
1 0 1
3 98 124 97 
1 0 1
3 134 88 89 
1 0 1
3 135 87 88 
1 0 1
3 137 85 86 
1 0 1
3 82 140 81 
1 0 1
3 83 84 139 
1 0 1
3 84 85 138 
1 0 1
3 86 87 136 
1 0 1
3 79 80 142 
1 0 1
3 81 142 80 
1 0 1
3 78 79 144 
1 0 1
3 145 77 78 
1 0 1
3 73 150 72 
1 0 1
3 77 145 76 
1 0 1
3 75 147 74 
1 0 1
3 71 72 151 
1 0 1
3 133 89 90 
1 0 1
3 71 152 70 
1 0 1
3 70 153 69 
1 0 1
3 67 155 66 
1 0 1
3 66 157 65 
1 0 1
3 64 158 63 
1 0 1
3 158 64 65 
1 0 1
3 68 69 154 
1 0 1
3 62 160 61 
1 0 1
3 61 161 60 
1 0 1
3 59 163 58 
1 0 1
3 57 166 56 
1 0 1
3 164 57 58 
1 0 1
3 162 59 60 
1 0 1
3 159 62 63 
1 0 1
3 73 74 149 
1 0 1
3 110 2 112 
1 0 1
3 54 55 167 
1 0 1
3 172 49 50 
1 0 1
3 174 48 49 
1 0 1
3 50 51 171 
1 0 1
3 175 46 47 
1 0 1
3 176 45 46 
1 0 1
3 179 42 43 
1 0 1
3 181 40 41 
1 0 1
3 41 42 180 
1 0 1
3 44 45 177 
1 0 1
3 47 48 174 
1 0 1
3 16 206 15 
1 0 1
3 15 207 14 
1 0 1
3 13 209 12 
1 0 1
3 10 212 9 
1 0 1
3 210 11 12 
1 0 1
3 208 13 14 
1 0 1
3 213 8 9 
1 0 1
3 183 38 39 
1 0 1
3 214 7 8 
1 0 1
3 215 6 7 
1 0 1
3 5 217 4 
1 0 1
3 39 40 182 
1 0 1
3 36 37 185 
1 0 1
3 31 191 30 
1 0 1
3 27 28 194 
1 0 1
3 192 29 30 
1 0 1
3 44 178 43 
1 0 1
3 52 53 169 
1 0 1
3 52 171 51 
1 0 1
3 38 184 37 
1 0 1
3 34 35 187 
1 0 1
3 32 33 189 
1 0 1
3 34 188 33 
1 0 1
3 36 186 35 
1 0 1
3 54 168 53 
1 0 1
3 29 193 28 
1 0 1
3 203 18 19 
1 0 1
3 10 11 211 
1 0 1
3 206 16 17 
1 0 1
3 219 1 3 
1 0 1
3 6 217 5 
1 0 1
3 4 218 3 
1 0 1
3 17 18 204 
1 0 1
3 25 26 196 
1 0 1
3 24 25 197 
1 0 1
3 22 23 199 
1 0 1
3 20 21 201 
1 0 1
3 22 200 21 
1 0 1
3 24 198 23 
1 0 1
3 26 27 195 
1 0 1
3 20 203 19 
1 0 1
3 32 191 31 
1 0 1
3 166 55 56 
1 0 1
3 96 97 126 
1 0 1
3 113 110 112 
1 0 1
3 114 109 113 
1 0 1
3 116 107 115 
1 0 1
3 117 106 116 
1 0 1
3 115 108 114 
1 0 1
3 119 104 118 
1 0 1
3 120 103 119 
1 0 1
3 122 100 121 
1 0 1
3 124 99 123 
1 0 1
3 123 100 122 
1 0 1
3 121 102 120 
1 0 1
3 118 105 117 
1 0 1
3 126 127 96 
1 0 1
3 127 128 95 
1 0 1
3 129 130 93 
1 0 1
3 136 137 86 
1 0 1
3 133 134 89 
1 0 1
3 130 131 91 
1 0 1
3 128 129 94 
1 0 1
3 84 138 139 
1 0 1
3 146 76 145 
1 0 1
3 152 153 70 
1 0 1
3 151 152 71 
1 0 1
3 132 91 131 
1 0 1
3 126 97 125 
1 0 1
3 124 125 97 
1 0 1
3 137 138 85 
1 0 1
3 112 2 111 
1 0 1
3 133 90 132 
1 0 1
3 135 88 134 
1 0 1
3 141 81 140 
1 0 1
3 140 83 139 
1 0 1
3 135 136 87 
1 0 1
3 143 144 79 
1 0 1
3 144 145 78 
1 0 1
3 147 148 74 
1 0 1
3 76 146 147 
1 0 1
3 74 148 149 
1 0 1
3 142 143 79 
1 0 1
3 142 81 141 
1 0 1
3 150 151 72 
1 0 1
3 156 66 155 
1 0 1
3 158 65 157 
1 0 1
3 157 66 156 
1 0 1
3 155 68 154 
1 0 1
3 160 62 159 
1 0 1
3 161 61 160 
1 0 1
3 163 59 162 
1 0 1
3 165 57 164 
1 0 1
3 165 166 57 
1 0 1
3 162 60 161 
1 0 1
3 159 63 158 
1 0 1
3 150 73 149 
1 0 1
3 163 164 58 
1 0 1
3 167 168 54 
1 0 1
3 55 166 167 
1 0 1
3 175 176 46 
1 0 1
3 176 177 45 
1 0 1
3 169 53 168 
1 0 1
3 174 175 47 
1 0 1
3 170 52 169 
1 0 1
3 171 52 170 
1 0 1
3 173 49 172 
1 0 1
3 173 174 49 
1 0 1
3 172 50 171 
1 0 1
3 178 179 43 
1 0 1
3 181 41 180 
1 0 1
3 42 179 180 
1 0 1
3 197 198 24 
1 0 1
3 199 200 22 
1 0 1
3 198 199 23 
1 0 1
3 182 40 181 
1 0 1
3 196 197 25 
1 0 1
3 39 182 183 
1 0 1
3 38 183 184 
1 0 1
3 36 185 186 
1 0 1
3 188 34 187 
1 0 1
3 35 186 187 
1 0 1
3 37 184 185 
1 0 1
3 33 188 189 
1 0 1
3 177 178 44 
1 0 1
3 190 32 189 
1 0 1
3 191 32 190 
1 0 1
3 193 29 192 
1 0 1
3 195 27 194 
1 0 1
3 194 28 193 
1 0 1
3 192 30 191 
1 0 1
3 202 20 201 
1 0 1
3 204 18 203 
1 0 1
3 206 17 205 
1 0 1
3 205 17 204 
1 0 1
3 203 20 202 
1 0 1
3 195 196 26 
1 0 1
3 208 14 207 
1 0 1
3 209 13 208 
1 0 1
3 211 11 210 
1 0 1
3 213 9 212 
1 0 1
3 212 10 211 
1 0 1
3 210 12 209 
1 0 1
3 215 7 214 
1 0 1
3 216 6 215 
1 0 1
3 218 4 217 
1 0 1
3 0 1 219 
1 0 1
3 219 3 218 
1 0 1
3 217 6 216 
1 0 1
3 214 8 213 
1 0 1
3 207 15 206 
1 0 1
3 201 21 200 
1 0 1
3 154 69 153 
1 0 2
3 221 223 220 
1 0 2
3 296 225 224 
1 0 2
3 297 224 223 
1 0 2
3 294 227 226 
1 0 2
3 292 229 228 
1 0 2
3 291 230 229 
1 0 2
3 293 228 227 
1 0 2
3 295 226 225 
1 0 2
3 289 232 231 
1 0 2
3 287 234 233 
1 0 2
3 286 235 234 
1 0 2
3 288 233 232 
1 0 2
3 284 237 236 
1 0 2
3 282 239 238 
1 0 2
3 281 240 239 
1 0 2
3 283 238 237 
1 0 2
3 285 236 235 
1 0 2
3 290 231 230 
1 0 2
3 297 223 221 
1 0 2
3 295 225 296 
1 0 2
3 294 226 295 
1 0 2
3 297 296 224 
1 0 2
3 292 228 293 
1 0 2
3 290 230 291 
1 0 2
3 289 231 290 
1 0 2
3 292 291 229 
1 0 2
3 294 293 227 
1 0 2
3 287 233 288 
1 0 2
3 286 285 235 
1 0 2
3 234 287 286 
1 0 2
3 285 284 236 
1 0 2
3 288 232 289 
1 0 2
3 283 237 284 
1 0 2
3 281 239 282 
1 0 2
3 280 240 281 
1 0 2
3 283 282 238 
1 0 2
3 280 279 241 
1 0 2
3 241 240 280 
1 0 2
3 278 243 242 
1 0 2
3 276 245 244 
1 0 2
3 277 244 243 
1 0 2
3 274 247 246 
1 0 2
3 272 249 248 
1 0 2
3 271 250 249 
1 0 2
3 273 248 247 
1 0 2
3 275 246 245 
1 0 2
3 269 252 251 
1 0 2
3 267 254 253 
1 0 2
3 266 255 254 
1 0 2
3 268 253 252 
1 0 2
3 264 257 256 
1 0 2
3 262 259 258 
1 0 2
3 261 222 259 
1 0 2
3 263 258 257 
1 0 2
3 265 256 255 
1 0 2
3 270 251 250 
1 0 2
3 242 279 278 
1 0 2
3 244 277 276 
1 0 2
3 245 276 275 
1 0 2
3 277 243 278 
1 0 2
3 247 274 273 
1 0 2
3 249 272 271 
1 0 2
3 250 271 270 
1 0 2
3 272 248 273 
1 0 2
3 274 246 275 
1 0 2
3 252 269 268 
1 0 2
3 254 267 266 
1 0 2
3 255 266 265 
1 0 2
3 267 253 268 
1 0 2
3 257 264 263 
1 0 2
3 259 262 261 
1 0 2
3 222 261 260 
1 0 2
3 262 258 263 
1 0 2
3 264 256 265 
1 0 2
3 269 251 270 
1 0 2
3 241 279 242 
1 0 3
3 299 301 298 
1 0 3
3 349 302 301 
1 0 3
3 347 304 303 
1 0 3
3 346 305 304 
1 0 3
3 348 303 302 
1 0 3
3 344 307 306 
1 0 3
3 343 308 307 
1 0 3
3 341 310 309 
1 0 3
3 339 312 311 
1 0 3
3 340 311 310 
1 0 3
3 342 309 308 
1 0 3
3 345 306 305 
1 0 3
3 301 299 349 
1 0 3
3 302 349 348 
1 0 3
3 304 347 346 
1 0 3
3 305 346 345 
1 0 3
3 347 303 348 
1 0 3
3 307 344 343 
1 0 3
3 308 343 342 
1 0 3
3 310 341 340 
1 0 3
3 312 339 338 
1 0 3
3 339 311 340 
1 0 3
3 341 309 342 
1 0 3
3 344 306 345 
1 0 3
3 338 313 312 
1 0 3
3 337 314 313 
1 0 3
3 336 315 314 
1 0 3
3 334 317 316 
1 0 3
3 333 318 317 
1 0 3
3 335 316 315 
1 0 3
3 331 320 319 
1 0 3
3 330 321 320 
1 0 3
3 328 323 322 
1 0 3
3 326 300 324 
1 0 3
3 327 324 323 
1 0 3
3 329 322 321 
1 0 3
3 332 319 318 
1 0 3
3 314 337 336 
1 0 3
3 315 336 335 
1 0 3
3 317 334 333 
1 0 3
3 318 333 332 
1 0 3
3 334 316 335 
1 0 3
3 320 331 330 
1 0 3
3 321 330 329 
1 0 3
3 323 328 327 
1 0 3
3 300 326 325 
1 0 3
3 326 324 327 
1 0 3
3 328 322 329 
1 0 3
3 331 319 332 
1 0 3
3 338 337 313 
1 0 4
3 381 353 350 
1 0 4
3 379 355 354 
1 0 4
3 380 354 353 
1 0 4
3 377 357 356 
1 0 4
3 375 359 358 
1 0 4
3 376 358 357 
1 0 4
3 378 356 355 
1 0 4
3 350 351 381 
1 0 4
3 354 380 379 
1 0 4
3 380 353 381 
1 0 4
3 356 378 377 
1 0 4
3 358 376 375 
1 0 4
3 376 357 377 
1 0 4
3 378 355 379 
1 0 4
3 375 374 359 
1 0 4
3 373 361 360 
1 0 4
3 371 363 362 
1 0 4
3 372 362 361 
1 0 4
3 369 365 364 
1 0 4
3 367 352 366 
1 0 4
3 368 366 365 
1 0 4
3 370 364 363 
1 0 4
3 360 374 373 
1 0 4
3 362 372 371 
1 0 4
3 372 361 373 
1 0 4
3 364 370 369 
1 0 4
3 366 368 367 
1 0 4
3 368 365 369 
1 0 4
3 370 363 371 
1 0 4
3 359 374 360 
1 0 5
3 413 385 382 
1 0 5
3 411 387 386 
1 0 5
3 412 386 385 
1 0 5
3 409 389 388 
1 0 5
3 407 391 390 
1 0 5
3 408 390 389 
1 0 5
3 410 388 387 
1 0 5
3 382 383 413 
1 0 5
3 386 412 411 
1 0 5
3 412 385 413 
1 0 5
3 388 410 409 
1 0 5
3 390 408 407 
1 0 5
3 408 389 409 
1 0 5
3 410 387 411 
1 0 5
3 407 406 391 
1 0 5
3 405 393 392 
1 0 5
3 403 395 394 
1 0 5
3 404 394 393 
1 0 5
3 401 397 396 
1 0 5
3 399 384 398 
1 0 5
3 400 398 397 
1 0 5
3 402 396 395 
1 0 5
3 392 406 405 
1 0 5
3 394 404 403 
1 0 5
3 404 393 405 
1 0 5
3 396 402 401 
1 0 5
3 398 400 399 
1 0 5
3 400 397 401 
1 0 5
3 402 395 403 
1 0 5
3 391 406 392 
1 0 6
3 428 430 429 
1 0 6
3 426 432 431 
1 0 6
3 427 431 430 
1 0 6
3 424 434 433 
1 0 6
3 422 436 435 
1 0 6
3 423 435 434 
1 0 6
3 425 433 432 
1 0 6
3 429 414 428 
1 0 6
3 431 427 426 
1 0 6
3 427 430 428 
1 0 6
3 433 425 424 
1 0 6
3 435 423 422 
1 0 6
3 423 434 424 
1 0 6
3 425 432 426 
1 0 6
3 422 421 436 
1 0 6
3 420 438 437 
1 0 6
3 418 440 439 
1 0 6
3 419 439 438 
1 0 6
3 416 442 441 
1 0 6
3 383 382 443 
1 0 6
3 415 443 442 
1 0 6
3 417 441 440 
1 0 6
3 437 421 420 
1 0 6
3 439 419 418 
1 0 6
3 419 438 420 
1 0 6
3 441 417 416 
1 0 6
3 443 415 383 
1 0 6
3 415 442 416 
1 0 6
3 417 440 418 
1 0 6
3 436 421 437 
1 0 7
3 429 367 414 
1 0 7
3 367 429 352 
1 0 8
3 540 539 538 
1 0 8
3 630 540 538 
1 0 8
3 538 629 630 
1 0 8
3 538 627 628 
1 0 8
3 538 628 629 
1 0 8
3 626 627 538 
1 0 8
3 538 625 626 
1 0 8
3 538 623 624 
1 0 8
3 538 624 625 
1 0 8
3 538 621 622 
1 0 8
3 538 619 620 
1 0 8
3 538 620 621 
1 0 8
3 538 622 623 
1 0 8
3 618 619 538 
1 0 8
3 538 617 618 
1 0 8
3 616 617 647 
1 0 8
3 647 617 538 
1 0 8
3 614 615 647 
1 0 8
3 612 613 647 
1 0 8
3 613 614 647 
1 0 8
3 615 616 647 
1 0 8
3 610 611 647 
1 0 8
3 608 609 647 
1 0 8
3 609 610 647 
1 0 8
3 647 605 606 
1 0 8
3 647 603 604 
1 0 8
3 647 604 605 
1 0 8
3 647 606 607 
1 0 8
3 611 612 647 
1 0 8
3 607 608 647 
1 0 8
3 647 600 601 
1 0 8
3 647 601 602 
1 0 8
3 647 598 599 
1 0 8
3 647 596 597 
1 0 8
3 647 597 598 
1 0 8
3 647 599 600 
1 0 8
3 647 574 575 
1 0 8
3 647 572 573 
1 0 8
3 647 573 574 
1 0 8
3 647 576 577 
1 0 8
3 647 577 578 
1 0 8
3 576 647 575 
1 0 8
3 647 595 596 
1 0 8
3 647 593 594 
1 0 8
3 647 591 592 
1 0 8
3 647 592 593 
1 0 8
3 647 589 590 
1 0 8
3 647 587 588 
1 0 8
3 647 588 589 
1 0 8
3 647 590 591 
1 0 8
3 647 581 582 
1 0 8
3 647 579 580 
1 0 8
3 647 580 581 
1 0 8
3 647 585 586 
1 0 8
3 647 583 584 
1 0 8
3 647 584 585 
1 0 8
3 583 647 582 
1 0 8
3 647 586 587 
1 0 8
3 579 647 578 
1 0 8
3 647 594 595 
1 0 8
3 647 602 603 
1 0 8
3 464 465 647 
1 0 8
3 465 466 647 
1 0 8
3 460 461 647 
1 0 8
3 462 463 647 
1 0 8
3 647 461 462 
1 0 8
3 463 464 647 
1 0 8
3 647 471 472 
1 0 8
3 647 473 474 
1 0 8
3 473 647 472 
1 0 8
3 467 468 647 
1 0 8
3 469 470 647 
1 0 8
3 647 468 469 
1 0 8
3 647 470 471 
1 0 8
3 647 466 467 
1 0 8
3 537 448 449 
1 0 8
3 537 450 451 
1 0 8
3 450 537 449 
1 0 8
3 536 446 537 
1 0 8
3 447 537 446 
1 0 8
3 447 448 537 
1 0 8
3 452 537 451 
1 0 8
3 537 456 457 
1 0 8
3 537 458 459 
1 0 8
3 458 537 457 
1 0 8
3 537 452 453 
1 0 8
3 537 454 455 
1 0 8
3 454 537 453 
1 0 8
3 537 455 456 
1 0 8
3 459 460 537 
1 0 8
3 537 460 647 
1 0 8
3 487 488 647 
1 0 8
3 489 647 488 
1 0 8
3 647 489 490 
1 0 8
3 490 491 647 
1 0 8
3 647 484 485 
1 0 8
3 647 486 487 
1 0 8
3 486 647 485 
1 0 8
3 483 484 647 
1 0 8
3 647 491 492 
1 0 8
3 647 493 494 
1 0 8
3 493 647 492 
1 0 8
3 647 495 496 
1 0 8
3 647 497 498 
1 0 8
3 497 647 496 
1 0 8
3 495 647 494 
1 0 8
3 498 499 647 
1 0 8
3 647 479 480 
1 0 8
3 647 481 482 
1 0 8
3 481 647 480 
1 0 8
3 647 475 476 
1 0 8
3 647 477 478 
1 0 8
3 477 647 476 
1 0 8
3 647 478 479 
1 0 8
3 647 500 501 
1 0 8
3 500 647 499 
1 0 8
3 647 502 503 
1 0 8
3 647 504 505 
1 0 8
3 504 647 503 
1 0 8
3 502 647 501 
1 0 8
3 483 647 482 
1 0 8
3 506 647 505 
1 0 8
3 474 475 647 
1 0 8
3 647 538 537 
1 0 8
3 571 572 647 
1 0 8
3 367 549 550 
1 0 8
3 367 550 551 
1 0 8
3 367 554 555 
1 0 8
3 367 552 553 
1 0 8
3 367 553 554 
1 0 8
3 552 367 551 
1 0 8
3 367 543 544 
1 0 8
3 367 542 543 
1 0 8
3 367 547 548 
1 0 8
3 367 545 546 
1 0 8
3 367 546 547 
1 0 8
3 545 367 544 
1 0 8
3 367 548 549 
1 0 8
3 565 566 647 
1 0 8
3 563 564 647 
1 0 8
3 564 565 647 
1 0 8
3 647 569 570 
1 0 8
3 568 647 567 
1 0 8
3 568 569 647 
1 0 8
3 567 647 566 
1 0 8
3 558 559 519 
1 0 8
3 367 556 557 
1 0 8
3 557 558 520 
1 0 8
3 561 562 647 
1 0 8
3 517 560 647 
1 0 8
3 561 647 560 
1 0 8
3 518 559 560 
1 0 8
3 647 562 563 
1 0 8
3 556 367 555 
1 0 8
3 367 646 632 
1 0 8
3 642 645 646 
1 0 8
3 645 642 644 
1 0 8
3 351 642 646 
1 0 8
3 642 640 641 
1 0 8
3 643 644 642 
1 0 8
3 642 351 640 
1 0 8
3 637 638 639 
1 0 8
3 351 637 639 
1 0 8
3 636 637 351 
1 0 8
3 351 634 635 
1 0 8
3 634 351 633 
1 0 8
3 636 351 635 
1 0 8
3 640 351 639 
1 0 8
3 351 646 367 
1 0 8
3 351 379 380 
1 0 8
3 379 351 378 
1 0 8
3 377 378 351 
1 0 8
3 541 367 632 
1 0 8
3 374 377 351 
1 0 8
3 377 375 376 
1 0 8
3 374 375 377 
1 0 8
3 351 380 381 
1 0 8
3 373 351 372 
1 0 8
3 369 372 351 
1 0 8
3 371 372 370 
1 0 8
3 367 369 351 
1 0 8
3 369 367 368 
1 0 8
3 370 372 369 
1 0 8
3 351 373 374 
1 0 8
3 542 367 541 
1 0 8
3 631 541 632 
1 0 8
3 367 557 520 
1 0 8
3 507 647 506 
1 0 8
3 508 647 507 
1 0 8
3 510 647 509 
1 0 8
3 512 647 511 
1 0 8
3 510 511 647 
1 0 8
3 508 509 647 
1 0 8
3 513 514 647 
1 0 8
3 515 516 647 
1 0 8
3 647 514 515 
1 0 8
3 518 560 517 
1 0 8
3 520 558 519 
1 0 8
3 518 519 559 
1 0 8
3 647 516 517 
1 0 8
3 512 513 647 
1 0 8
3 414 521 522 
1 0 8
3 414 523 524 
1 0 8
3 523 414 522 
1 0 8
3 414 525 526 
1 0 8
3 414 527 528 
1 0 8
3 527 414 526 
1 0 8
3 525 414 524 
1 0 8
3 414 529 530 
1 0 8
3 414 531 532 
1 0 8
3 531 414 530 
1 0 8
3 414 533 534 
1 0 8
3 414 535 445 
1 0 8
3 535 414 534 
1 0 8
3 533 414 532 
1 0 8
3 529 414 528 
1 0 8
3 521 414 520 
1 0 8
3 383 419 421 
1 0 8
3 419 420 421 
1 0 8
3 383 418 419 
1 0 8
3 416 383 415 
1 0 8
3 383 416 417 
1 0 8
3 417 418 383 
1 0 8
3 426 383 421 
1 0 8
3 428 426 427 
1 0 8
3 426 428 414 
1 0 8
3 425 426 421 
1 0 8
3 425 422 423 
1 0 8
3 423 424 425 
1 0 8
3 422 425 421 
1 0 8
3 414 383 426 
1 0 8
3 414 400 383 
1 0 8
3 403 405 406 
1 0 8
3 403 404 405 
1 0 8
3 401 402 403 
1 0 8
3 414 399 400 
1 0 8
3 403 383 400 
1 0 8
3 403 400 401 
1 0 8
3 399 445 444 
1 0 8
3 383 408 411 
1 0 8
3 403 408 383 
1 0 8
3 410 411 408 
1 0 8
3 408 406 407 
1 0 8
3 408 403 406 
1 0 8
3 408 409 410 
1 0 8
3 412 383 411 
1 0 8
3 412 413 383 
1 0 8
3 414 445 399 
1 0 8
3 520 414 367 
1 0 8
3 571 647 570 
1 0 9
3 646 649 648 
1 0 9
3 644 651 650 
1 0 9
3 645 650 649 
1 0 9
3 642 653 652 
1 0 9
3 640 655 654 
1 0 9
3 641 654 653 
1 0 9
3 643 652 651 
1 0 9
3 648 632 646 
1 0 9
3 650 645 644 
1 0 9
3 645 649 646 
1 0 9
3 652 643 642 
1 0 9
3 654 641 640 
1 0 9
3 641 653 642 
1 0 9
3 643 651 644 
1 0 9
3 640 639 655 
1 0 9
3 638 657 656 
1 0 9
3 636 659 658 
1 0 9
3 637 658 657 
1 0 9
3 634 661 660 
1 0 9
3 351 350 662 
1 0 9
3 633 662 661 
1 0 9
3 635 660 659 
1 0 9
3 656 639 638 
1 0 9
3 658 637 636 
1 0 9
3 637 657 638 
1 0 9
3 660 635 634 
1 0 9
3 662 633 351 
1 0 9
3 633 661 634 
1 0 9
3 635 659 636 
1 0 9
3 655 639 656 
1 0 10
3 663 631 632 
1 0 10
3 632 648 663 
1 0 11
3 688 690 689 
1 0 11
3 688 691 690 
1 0 11
3 686 693 692 
1 0 11
3 685 694 693 
1 0 11
3 687 692 691 
1 0 11
3 683 696 695 
1 0 11
3 682 697 696 
1 0 11
3 680 699 698 
1 0 11
3 678 701 700 
1 0 11
3 679 700 699 
1 0 11
3 681 698 697 
1 0 11
3 684 695 694 
1 0 11
3 689 664 688 
1 0 11
3 691 688 687 
1 0 11
3 693 686 685 
1 0 11
3 694 685 684 
1 0 11
3 686 692 687 
1 0 11
3 696 683 682 
1 0 11
3 697 682 681 
1 0 11
3 699 680 679 
1 0 11
3 701 678 677 
1 0 11
3 678 700 679 
1 0 11
3 680 698 681 
1 0 11
3 683 695 684 
1 0 11
3 677 702 701 
1 0 11
3 676 703 702 
1 0 11
3 675 704 703 
1 0 11
3 673 706 705 
1 0 11
3 672 707 706 
1 0 11
3 674 705 704 
1 0 11
3 670 709 708 
1 0 11
3 669 710 709 
1 0 11
3 667 712 711 
1 0 11
3 665 298 713 
1 0 11
3 666 713 712 
1 0 11
3 668 711 710 
1 0 11
3 671 708 707 
1 0 11
3 703 676 675 
1 0 11
3 704 675 674 
1 0 11
3 706 673 672 
1 0 11
3 707 672 671 
1 0 11
3 673 705 674 
1 0 11
3 709 670 669 
1 0 11
3 710 669 668 
1 0 11
3 712 667 666 
1 0 11
3 298 665 299 
1 0 11
3 665 713 666 
1 0 11
3 667 711 668 
1 0 11
3 670 708 671 
1 0 11
3 677 676 702 
1 0 12
3 722 723 90 
1 0 12
3 720 88 719 
1 0 12
3 722 89 721 
1 0 12
3 88 720 721 
1 0 12
3 93 726 727 
1 0 12
3 91 723 724 
1 0 12
3 726 92 725 
1 0 12
3 93 727 728 
1 0 12
3 719 87 718 
1 0 12
3 294 295 81 
1 0 12
3 292 293 80 
1 0 12
3 295 296 82 
1 0 12
3 81 293 294 
1 0 12
3 717 86 716 
1 0 12
3 716 85 715 
1 0 12
3 297 221 83 
1 0 12
3 296 297 83 
1 0 12
3 725 91 724 
1 0 12
3 86 717 718 
1 0 12
3 221 715 84 
1 0 12
3 105 743 744 
1 0 12
3 740 741 103 
1 0 12
3 742 103 741 
1 0 12
3 733 97 732 
1 0 12
3 748 749 108 
1 0 12
3 745 746 106 
1 0 12
3 106 744 745 
1 0 12
3 747 107 746 
1 0 12
3 747 748 108 
1 0 12
3 740 102 739 
1 0 12
3 731 732 96 
1 0 12
3 729 730 95 
1 0 12
3 96 730 731 
1 0 12
3 94 728 729 
1 0 12
3 737 738 101 
1 0 12
3 734 98 733 
1 0 12
3 734 735 98 
1 0 12
3 736 99 735 
1 0 12
3 736 737 100 
1 0 12
3 101 738 739 
1 0 12
3 742 743 104 
1 0 12
3 80 79 292 
1 0 12
3 285 74 284 
1 0 12
3 286 75 285 
1 0 12
3 283 284 73 
1 0 12
3 283 73 282 
1 0 12
3 78 290 291 
1 0 12
3 78 289 290 
1 0 12
3 288 76 287 
1 0 12
3 287 76 286 
1 0 12
3 77 288 289 
1 0 12
3 281 282 72 
1 0 12
3 279 280 70 
1 0 12
3 277 278 69 
1 0 12
3 276 277 68 
1 0 12
3 70 278 279 
1 0 12
3 80 293 81 
1 0 12
3 86 85 716 
1 0 12
3 85 84 715 
1 0 12
3 83 82 296 
1 0 12
3 82 81 295 
1 0 12
3 221 84 83 
1 0 12
3 71 280 281 
1 0 12
3 718 87 86 
1 0 12
3 101 739 102 
1 0 12
3 99 736 100 
1 0 12
3 98 735 99 
1 0 12
3 101 100 737 
1 0 12
3 107 747 108 
1 0 12
3 106 746 107 
1 0 12
3 104 743 105 
1 0 12
3 103 742 104 
1 0 12
3 106 105 744 
1 0 12
3 102 740 103 
1 0 12
3 90 723 91 
1 0 12
3 88 721 89 
1 0 12
3 87 719 88 
1 0 12
3 90 89 722 
1 0 12
3 96 732 97 
1 0 12
3 95 730 96 
1 0 12
3 93 728 94 
1 0 12
3 92 726 93 
1 0 12
3 95 94 729 
1 0 12
3 91 725 92 
1 0 12
3 98 97 733 
1 0 12
3 292 79 291 
1 0 12
3 109 108 749 
1 0 12
3 330 331 759 
1 0 12
3 756 326 327 
1 0 12
3 714 2 751 
1 0 12
3 765 339 340 
1 0 12
3 330 758 329 
1 0 12
3 327 328 756 
1 0 12
3 329 757 328 
1 0 12
3 759 331 332 
1 0 12
3 333 760 332 
1 0 12
3 326 755 325 
1 0 12
3 334 335 761 
1 0 12
3 336 762 335 
1 0 12
3 337 338 764 
1 0 12
3 336 337 763 
1 0 12
3 340 341 766 
1 0 12
3 338 339 764 
1 0 12
3 342 766 341 
1 0 12
3 767 342 343 
1 0 12
3 333 334 761 
1 0 12
3 344 768 343 
1 0 12
3 714 325 2 
1 0 12
3 768 344 345 
1 0 12
3 771 348 349 
1 0 12
3 771 347 348 
1 0 12
3 346 769 345 
1 0 12
3 666 773 665 
1 0 12
3 349 299 772 
1 0 12
3 667 774 666 
1 0 12
3 775 667 668 
1 0 12
3 669 776 668 
1 0 12
3 770 346 347 
1 0 12
3 777 670 671 
1 0 12
3 673 778 672 
1 0 12
3 674 779 673 
1 0 12
3 669 670 776 
1 0 12
3 677 781 676 
1 0 12
3 674 675 780 
1 0 12
3 679 783 678 
1 0 12
3 676 781 675 
1 0 12
3 671 672 778 
1 0 12
3 677 678 782 
1 0 12
3 299 665 773 
1 0 12
3 750 751 110 
1 0 12
3 755 326 756 
1 0 12
3 110 751 2 
1 0 12
3 755 2 325 
1 0 12
3 756 328 757 
1 0 12
3 759 332 760 
1 0 12
3 758 330 759 
1 0 12
3 762 336 763 
1 0 12
3 761 335 762 
1 0 12
3 760 333 761 
1 0 12
3 757 329 758 
1 0 12
3 764 339 765 
1 0 12
3 767 343 768 
1 0 12
3 766 342 767 
1 0 12
3 765 340 766 
1 0 12
3 770 347 771 
1 0 12
3 769 346 770 
1 0 12
3 773 666 774 
1 0 12
3 772 299 773 
1 0 12
3 771 349 772 
1 0 12
3 768 345 769 
1 0 12
3 763 337 764 
1 0 12
3 680 681 784 
1 0 12
3 785 682 683 
1 0 12
3 682 785 681 
1 0 12
3 683 684 786 
1 0 12
3 667 775 774 
1 0 12
3 788 685 686 
1 0 12
3 685 787 684 
1 0 12
3 789 687 688 
1 0 12
3 687 788 686 
1 0 12
3 790 688 664 
1 0 12
3 775 668 776 
1 0 12
3 776 670 777 
1 0 12
3 779 674 780 
1 0 12
3 778 673 779 
1 0 12
3 777 671 778 
1 0 12
3 782 678 783 
1 0 12
3 781 677 782 
1 0 12
3 681 785 784 
1 0 12
3 680 784 783 
1 0 12
3 679 680 783 
1 0 12
3 780 675 781 
1 0 12
3 786 785 683 
1 0 12
3 109 750 110 
1 0 12
3 109 749 750 
1 0 12
3 270 63 269 
1 0 12
3 64 270 271 
1 0 12
3 63 268 269 
1 0 12
3 268 62 267 
1 0 12
3 273 65 272 
1 0 12
3 271 272 65 
1 0 12
3 66 273 274 
1 0 12
3 274 275 67 
1 0 12
3 267 61 266 
1 0 12
3 263 264 59 
1 0 12
3 261 262 58 
1 0 12
3 58 262 263 
1 0 12
3 260 261 57 
1 0 12
3 60 264 265 
1 0 12
3 59 58 263 
1 0 12
3 60 265 266 
1 0 12
3 57 261 58 
1 0 12
3 56 260 57 
1 0 12
3 56 55 260 
1 0 12
3 55 54 260 
1 0 12
3 264 60 59 
1 0 12
3 72 282 73 
1 0 12
3 70 280 71 
1 0 12
3 69 278 70 
1 0 12
3 72 71 281 
1 0 12
3 78 291 79 
1 0 12
3 77 289 78 
1 0 12
3 75 286 76 
1 0 12
3 74 285 75 
1 0 12
3 77 76 288 
1 0 12
3 73 284 74 
1 0 12
3 267 62 61 
1 0 12
3 260 54 53 
1 0 12
3 60 266 61 
1 0 12
3 275 68 67 
1 0 12
3 274 67 66 
1 0 12
3 271 65 64 
1 0 12
3 270 64 63 
1 0 12
3 65 273 66 
1 0 12
3 268 63 62 
1 0 12
3 69 68 277 
1 0 12
3 53 52 260 
1 0 12
3 51 260 52 
1 0 12
3 49 260 50 
1 0 12
3 48 260 49 
1 0 12
3 51 50 260 
1 0 12
3 46 260 47 
1 0 12
3 45 260 46 
1 0 12
3 43 260 44 
1 0 12
3 42 260 43 
1 0 12
3 45 44 260 
1 0 12
3 48 47 260 
1 0 12
3 40 260 41 
1 0 12
3 39 38 260 
1 0 12
3 260 40 39 
1 0 12
3 38 37 260 
1 0 12
3 41 260 42 
1 0 12
3 36 260 37 
1 0 12
3 35 260 36 
1 0 12
3 33 260 34 
1 0 12
3 32 260 33 
1 0 12
3 35 34 260 
1 0 12
3 260 32 31 
1 0 12
3 752 260 28 
1 0 12
3 30 260 31 
1 0 12
3 28 260 29 
1 0 12
3 752 28 27 
1 0 12
3 30 29 260 
1 0 12
3 752 26 25 
1 0 12
3 752 25 24 
1 0 12
3 752 23 22 
1 0 12
3 752 22 21 
1 0 12
3 23 752 24 
1 0 12
3 26 752 27 
1 0 12
3 752 20 19 
1 0 12
3 752 18 17 
1 0 12
3 752 17 16 
1 0 12
3 18 752 19 
1 0 12
3 752 15 14 
1 0 12
3 752 14 13 
1 0 12
3 752 12 11 
1 0 12
3 752 11 10 
1 0 12
3 12 752 13 
1 0 12
3 15 752 16 
1 0 12
3 20 752 21 
1 0 12
3 10 9 752 
1 0 12
3 787 685 788 
1 0 12
3 790 664 791 
1 0 12
3 789 688 790 
1 0 12
3 788 687 789 
1 0 12
3 793 664 794 
1 0 12
3 792 664 793 
1 0 12
3 796 664 797 
1 0 12
3 795 664 796 
1 0 12
3 794 664 795 
1 0 12
3 791 664 792 
1 0 12
3 863 826 825 
1 0 12
3 863 829 828 
1 0 12
3 863 828 827 
1 0 12
3 863 827 826 
1 0 12
3 863 821 820 
1 0 12
3 863 824 823 
1 0 12
3 863 823 822 
1 0 12
3 863 822 821 
1 0 12
3 824 863 825 
1 0 12
3 797 664 798 
1 0 12
3 799 664 800 
1 0 12
3 802 664 803 
1 0 12
3 801 664 802 
1 0 12
3 801 800 664 
1 0 12
3 805 664 806 
1 0 12
3 804 664 805 
1 0 12
3 808 664 809 
1 0 12
3 807 664 808 
1 0 12
3 806 664 807 
1 0 12
3 803 664 804 
1 0 12
3 863 816 815 
1 0 12
3 863 819 818 
1 0 12
3 863 818 817 
1 0 12
3 863 817 816 
1 0 12
3 811 664 812 
1 0 12
3 810 664 811 
1 0 12
3 814 664 815 
1 0 12
3 813 664 814 
1 0 12
3 812 664 813 
1 0 12
3 815 664 863 
1 0 12
3 809 664 810 
1 0 12
3 819 863 820 
1 0 12
3 798 664 799 
1 0 12
3 863 857 856 
1 0 12
3 9 8 752 
1 0 12
3 863 856 855 
1 0 12
3 863 851 850 
1 0 12
3 863 850 849 
1 0 12
3 863 854 853 
1 0 12
3 863 853 852 
1 0 12
3 863 852 851 
1 0 12
3 854 863 855 
1 0 12
3 6 752 7 
1 0 12
3 863 5 4 
1 0 12
3 863 4 3 
1 0 12
3 5 863 6 
1 0 12
3 863 860 859 
1 0 12
3 863 859 858 
1 0 12
3 863 1 862 
1 0 12
3 863 862 861 
1 0 12
3 863 861 860 
1 0 12
3 1 863 3 
1 0 12
3 8 7 752 
1 0 12
3 863 858 857 
1 0 12
3 863 837 836 
1 0 12
3 863 840 839 
1 0 12
3 863 839 838 
1 0 12
3 863 838 837 
1 0 12
3 863 832 831 
1 0 12
3 863 831 830 
1 0 12
3 863 835 834 
1 0 12
3 863 834 833 
1 0 12
3 863 833 832 
1 0 12
3 835 863 836 
1 0 12
3 863 845 844 
1 0 12
3 863 848 847 
1 0 12
3 863 847 846 
1 0 12
3 863 846 845 
1 0 12
3 863 843 842 
1 0 12
3 863 842 841 
1 0 12
3 754 753 863 
1 0 12
3 844 843 863 
1 0 12
3 664 754 863 
1 0 12
3 848 863 849 
1 0 12
3 841 840 863 
1 0 12
3 6 863 752 
1 0 12
3 830 829 863 
1 0 12
3 863 753 752 
1 0 12
3 786 684 787 
1 0 12
3 276 68 275 
1 0 13
3 714 864 300 
1 0 13
3 300 325 714 
1 0 14
3 754 689 865 
1 0 14
3 689 754 664 
1 0 15
3 132 894 895 
1 0 15
3 134 897 898 
1 0 15
3 134 896 897 
1 0 15
3 133 895 896 
1 0 15
3 129 890 891 
1 0 15
3 893 131 892 
1 0 15
3 892 130 891 
1 0 15
3 893 894 131 
1 0 15
3 898 899 135 
1 0 15
3 140 224 225 
1 0 15
3 227 141 226 
1 0 15
3 226 141 225 
1 0 15
3 220 138 902 
1 0 15
3 901 136 900 
1 0 15
3 902 137 901 
1 0 15
3 139 220 223 
1 0 15
3 139 223 224 
1 0 15
3 889 890 129 
1 0 15
3 136 899 900 
1 0 15
3 227 228 142 
1 0 15
3 117 873 874 
1 0 15
3 874 875 118 
1 0 15
3 876 119 875 
1 0 15
3 877 119 876 
1 0 15
3 114 868 869 
1 0 15
3 870 114 869 
1 0 15
3 116 871 872 
1 0 15
3 871 115 870 
1 0 15
3 125 884 885 
1 0 15
3 120 877 878 
1 0 15
3 126 885 886 
1 0 15
3 127 887 888 
1 0 15
3 887 126 886 
1 0 15
3 888 889 128 
1 0 15
3 124 882 883 
1 0 15
3 881 122 880 
1 0 15
3 883 884 124 
1 0 15
3 882 123 881 
1 0 15
3 880 121 879 
1 0 15
3 879 121 878 
1 0 15
3 116 872 873 
1 0 15
3 142 228 143 
1 0 15
3 236 148 235 
1 0 15
3 147 234 235 
1 0 15
3 236 237 149 
1 0 15
3 238 149 237 
1 0 15
3 230 144 229 
1 0 15
3 232 145 231 
1 0 15
3 233 146 232 
1 0 15
3 234 146 233 
1 0 15
3 144 230 231 
1 0 15
3 150 238 239 
1 0 15
3 152 240 241 
1 0 15
3 153 242 243 
1 0 15
3 154 243 244 
1 0 15
3 241 242 152 
1 0 15
3 141 227 142 
1 0 15
3 901 137 136 
1 0 15
3 902 138 137 
1 0 15
3 224 140 139 
1 0 15
3 225 141 140 
1 0 15
3 139 138 220 
1 0 15
3 239 240 151 
1 0 15
3 136 135 899 
1 0 15
3 120 878 121 
1 0 15
3 122 881 123 
1 0 15
3 123 882 124 
1 0 15
3 880 122 121 
1 0 15
3 114 870 115 
1 0 15
3 115 871 116 
1 0 15
3 117 874 118 
1 0 15
3 118 875 119 
1 0 15
3 873 117 116 
1 0 15
3 119 877 120 
1 0 15
3 131 894 132 
1 0 15
3 133 896 134 
1 0 15
3 134 898 135 
1 0 15
3 895 133 132 
1 0 15
3 125 885 126 
1 0 15
3 126 887 127 
1 0 15
3 128 889 129 
1 0 15
3 129 891 130 
1 0 15
3 888 128 127 
1 0 15
3 130 892 131 
1 0 15
3 884 125 124 
1 0 15
3 229 143 228 
1 0 15
3 868 114 113 
1 0 15
3 319 1008 318 
1 0 15
3 323 324 1011 
1 0 15
3 866 111 864 
1 0 15
3 314 1004 313 
1 0 15
3 323 1011 322 
1 0 15
3 322 1010 321 
1 0 15
3 320 1008 319 
1 0 15
3 320 321 1009 
1 0 15
3 318 1007 317 
1 0 15
3 324 300 1012 
1 0 15
3 315 1005 314 
1 0 15
3 316 1006 315 
1 0 15
3 312 313 1003 
1 0 15
3 1006 316 317 
1 0 15
3 311 1002 310 
1 0 15
3 1001 309 310 
1 0 15
3 309 1001 308 
1 0 15
3 312 1003 311 
1 0 15
3 307 308 1000 
1 0 15
3 307 999 306 
1 0 15
3 111 300 864 
1 0 15
3 996 302 303 
1 0 15
3 304 997 303 
1 0 15
3 996 301 302 
1 0 15
3 999 305 306 
1 0 15
3 713 994 712 
1 0 15
3 995 298 301 
1 0 15
3 712 993 711 
1 0 15
3 710 711 992 
1 0 15
3 709 710 991 
1 0 15
3 998 304 305 
1 0 15
3 990 707 708 
1 0 15
3 706 989 705 
1 0 15
3 705 988 704 
1 0 15
3 708 709 991 
1 0 15
3 703 986 702 
1 0 15
3 987 703 704 
1 0 15
3 701 985 700 
1 0 15
3 989 706 707 
1 0 15
3 986 701 702 
1 0 15
3 984 699 700 
1 0 15
3 994 713 298 
1 0 15
3 112 866 867 
1 0 15
3 1012 300 111 
1 0 15
3 1010 322 1011 
1 0 15
3 866 112 111 
1 0 15
3 1011 324 1012 
1 0 15
3 1007 318 1008 
1 0 15
3 1008 320 1009 
1 0 15
3 1004 314 1005 
1 0 15
3 1005 315 1006 
1 0 15
3 1006 317 1007 
1 0 15
3 1009 321 1010 
1 0 15
3 1002 311 1003 
1 0 15
3 999 307 1000 
1 0 15
3 1000 308 1001 
1 0 15
3 1001 310 1002 
1 0 15
3 996 303 997 
1 0 15
3 997 304 998 
1 0 15
3 993 712 994 
1 0 15
3 994 298 995 
1 0 15
3 995 301 996 
1 0 15
3 998 305 999 
1 0 15
3 1003 313 1004 
1 0 15
3 983 697 698 
1 0 15
3 695 696 982 
1 0 15
3 697 982 696 
1 0 15
3 981 694 695 
1 0 15
3 993 992 711 
1 0 15
3 693 694 980 
1 0 15
3 692 693 979 
1 0 15
3 691 692 979 
1 0 15
3 691 978 690 
1 0 15
3 689 690 977 
1 0 15
3 991 710 992 
1 0 15
3 990 708 991 
1 0 15
3 987 704 988 
1 0 15
3 988 705 989 
1 0 15
3 989 707 990 
1 0 15
3 984 700 985 
1 0 15
3 985 701 986 
1 0 15
3 983 982 697 
1 0 15
3 984 983 698 
1 0 15
3 984 698 699 
1 0 15
3 986 703 987 
1 0 15
3 695 982 981 
1 0 15
3 112 867 113 
1 0 15
3 867 868 113 
1 0 15
3 249 250 158 
1 0 15
3 250 251 159 
1 0 15
3 251 252 159 
1 0 15
3 160 252 253 
1 0 15
3 247 248 157 
1 0 15
3 157 248 249 
1 0 15
3 246 247 156 
1 0 15
3 245 246 155 
1 0 15
3 253 254 161 
1 0 15
3 163 256 257 
1 0 15
3 164 258 259 
1 0 15
3 257 258 164 
1 0 15
3 165 259 222 
1 0 15
3 255 256 162 
1 0 15
3 257 164 163 
1 0 15
3 254 255 162 
1 0 15
3 164 259 165 
1 0 15
3 165 222 166 
1 0 15
3 222 167 166 
1 0 15
3 222 168 167 
1 0 15
3 163 162 256 
1 0 15
3 149 238 150 
1 0 15
3 151 240 152 
1 0 15
3 152 242 153 
1 0 15
3 239 151 150 
1 0 15
3 143 229 144 
1 0 15
3 144 231 145 
1 0 15
3 146 234 147 
1 0 15
3 147 235 148 
1 0 15
3 232 146 145 
1 0 15
3 148 236 149 
1 0 15
3 161 160 253 
1 0 15
3 169 168 222 
1 0 15
3 161 254 162 
1 0 15
3 155 154 245 
1 0 15
3 156 155 246 
1 0 15
3 158 157 249 
1 0 15
3 159 158 250 
1 0 15
3 156 247 157 
1 0 15
3 160 159 252 
1 0 15
3 243 154 153 
1 0 15
3 222 170 169 
1 0 15
3 170 222 171 
1 0 15
3 172 222 173 
1 0 15
3 173 222 174 
1 0 15
3 222 172 171 
1 0 15
3 175 222 176 
1 0 15
3 176 222 177 
1 0 15
3 178 222 179 
1 0 15
3 179 222 180 
1 0 15
3 222 178 177 
1 0 15
3 222 175 174 
1 0 15
3 181 222 182 
1 0 15
3 222 184 183 
1 0 15
3 183 182 222 
1 0 15
3 222 185 184 
1 0 15
3 180 222 181 
1 0 15
3 185 222 186 
1 0 15
3 186 222 187 
1 0 15
3 188 222 189 
1 0 15
3 189 222 190 
1 0 15
3 222 188 187 
1 0 15
3 191 190 222 
1 0 15
3 194 222 903 
1 0 15
3 191 222 192 
1 0 15
3 193 222 194 
1 0 15
3 195 194 903 
1 0 15
3 222 193 192 
1 0 15
3 197 196 903 
1 0 15
3 198 197 903 
1 0 15
3 200 199 903 
1 0 15
3 201 200 903 
1 0 15
3 198 903 199 
1 0 15
3 195 903 196 
1 0 15
3 203 202 903 
1 0 15
3 205 204 903 
1 0 15
3 206 205 903 
1 0 15
3 203 903 204 
1 0 15
3 208 207 903 
1 0 15
3 209 208 903 
1 0 15
3 211 210 903 
1 0 15
3 212 211 903 
1 0 15
3 209 903 210 
1 0 15
3 206 903 207 
1 0 15
3 201 903 202 
1 0 15
3 903 213 212 
1 0 15
3 979 693 980 
1 0 15
3 976 689 977 
1 0 15
3 977 690 978 
1 0 15
3 978 691 979 
1 0 15
3 973 689 974 
1 0 15
3 974 689 975 
1 0 15
3 970 689 971 
1 0 15
3 971 689 972 
1 0 15
3 972 689 973 
1 0 15
3 975 689 976 
1 0 15
3 942 941 1013 
1 0 15
3 939 938 1013 
1 0 15
3 940 939 1013 
1 0 15
3 941 940 1013 
1 0 15
3 947 946 1013 
1 0 15
3 944 943 1013 
1 0 15
3 945 944 1013 
1 0 15
3 946 945 1013 
1 0 15
3 942 1013 943 
1 0 15
3 969 689 970 
1 0 15
3 967 689 968 
1 0 15
3 964 689 965 
1 0 15
3 965 689 966 
1 0 15
3 689 967 966 
1 0 15
3 961 689 962 
1 0 15
3 962 689 963 
1 0 15
3 958 689 959 
1 0 15
3 959 689 960 
1 0 15
3 960 689 961 
1 0 15
3 963 689 964 
1 0 15
3 952 951 1013 
1 0 15
3 949 948 1013 
1 0 15
3 950 949 1013 
1 0 15
3 951 950 1013 
1 0 15
3 955 689 956 
1 0 15
3 956 689 957 
1 0 15
3 952 689 953 
1 0 15
3 953 689 954 
1 0 15
3 954 689 955 
1 0 15
3 1013 689 952 
1 0 15
3 957 689 958 
1 0 15
3 947 1013 948 
1 0 15
3 968 689 969 
1 0 15
3 912 911 1013 
1 0 15
3 213 903 214 
1 0 15
3 911 910 1013 
1 0 15
3 917 916 1013 
1 0 15
3 918 917 1013 
1 0 15
3 914 913 1013 
1 0 15
3 915 914 1013 
1 0 15
3 916 915 1013 
1 0 15
3 912 1013 913 
1 0 15
3 215 903 216 
1 0 15
3 218 217 1013 
1 0 15
3 219 218 1013 
1 0 15
3 216 1013 217 
1 0 15
3 908 907 1013 
1 0 15
3 909 908 1013 
1 0 15
3 905 0 1013 
1 0 15
3 906 905 1013 
1 0 15
3 907 906 1013 
1 0 15
3 219 1013 0 
1 0 15
3 903 215 214 
1 0 15
3 910 909 1013 
1 0 15
3 931 930 1013 
1 0 15
3 928 927 1013 
1 0 15
3 929 928 1013 
1 0 15
3 930 929 1013 
1 0 15
3 936 935 1013 
1 0 15
3 937 936 1013 
1 0 15
3 933 932 1013 
1 0 15
3 934 933 1013 
1 0 15
3 935 934 1013 
1 0 15
3 931 1013 932 
1 0 15
3 923 922 1013 
1 0 15
3 920 919 1013 
1 0 15
3 921 920 1013 
1 0 15
3 922 921 1013 
1 0 15
3 925 924 1013 
1 0 15
3 926 925 1013 
1 0 15
3 1013 904 865 
1 0 15
3 1013 924 923 
1 0 15
3 1013 865 689 
1 0 15
3 918 1013 919 
1 0 15
3 1013 927 926 
1 0 15
3 903 1013 216 
1 0 15
3 1013 938 937 
1 0 15
3 903 904 1013 
1 0 15
3 980 694 981 
1 0 15
3 245 154 244 
1 0 16
3 714 866 864 
1 0 16
3 750 868 867 
1 0 16
3 751 867 866 
1 0 16
3 748 870 869 
1 0 16
3 746 872 871 
1 0 16
3 745 873 872 
1 0 16
3 747 871 870 
1 0 16
3 749 869 868 
1 0 16
3 743 875 874 
1 0 16
3 741 877 876 
1 0 16
3 740 878 877 
1 0 16
3 742 876 875 
1 0 16
3 738 880 879 
1 0 16
3 736 882 881 
1 0 16
3 735 883 882 
1 0 16
3 737 881 880 
1 0 16
3 739 879 878 
1 0 16
3 744 874 873 
1 0 16
3 751 866 714 
1 0 16
3 749 868 750 
1 0 16
3 748 869 749 
1 0 16
3 751 750 867 
1 0 16
3 746 871 747 
1 0 16
3 744 873 745 
1 0 16
3 743 874 744 
1 0 16
3 746 745 872 
1 0 16
3 748 747 870 
1 0 16
3 741 876 742 
1 0 16
3 740 739 878 
1 0 16
3 877 741 740 
1 0 16
3 739 738 879 
1 0 16
3 742 875 743 
1 0 16
3 737 880 738 
1 0 16
3 735 882 736 
1 0 16
3 734 883 735 
1 0 16
3 737 736 881 
1 0 16
3 734 733 884 
1 0 16
3 884 883 734 
1 0 16
3 732 886 885 
1 0 16
3 730 888 887 
1 0 16
3 731 887 886 
1 0 16
3 728 890 889 
1 0 16
3 726 892 891 
1 0 16
3 725 893 892 
1 0 16
3 727 891 890 
1 0 16
3 729 889 888 
1 0 16
3 723 895 894 
1 0 16
3 721 897 896 
1 0 16
3 720 898 897 
1 0 16
3 722 896 895 
1 0 16
3 718 900 899 
1 0 16
3 716 902 901 
1 0 16
3 715 220 902 
1 0 16
3 717 901 900 
1 0 16
3 719 899 898 
1 0 16
3 724 894 893 
1 0 16
3 885 733 732 
1 0 16
3 887 731 730 
1 0 16
3 888 730 729 
1 0 16
3 731 886 732 
1 0 16
3 890 728 727 
1 0 16
3 892 726 725 
1 0 16
3 893 725 724 
1 0 16
3 726 891 727 
1 0 16
3 728 889 729 
1 0 16
3 895 723 722 
1 0 16
3 897 721 720 
1 0 16
3 898 720 719 
1 0 16
3 721 896 722 
1 0 16
3 900 718 717 
1 0 16
3 902 716 715 
1 0 16
3 220 715 221 
1 0 16
3 716 901 717 
1 0 16
3 718 899 719 
1 0 16
3 723 894 724 
1 0 16
3 884 733 885 
1 0 17
3 903 222 260 
1 0 17
3 752 1061 903 
1 0 17
3 1061 1082 1060 
1 0 17
3 903 260 752 
1 0 17
3 1082 1081 1059 
1 0 17
3 1081 1080 1056 
1 0 17
3 1082 1061 752 
1 0 17
3 1060 1082 1059 
1 0 17
3 1058 1081 1057 
1 0 17
3 1057 1081 1056 
1 0 17
3 1080 1055 1056 
1 0 17
3 1080 1079 1054 
1 0 17
3 1052 1053 1079 
1 0 17
3 1053 1054 1079 
1 0 17
3 1080 1054 1055 
1 0 17
3 1058 1059 1081 
1 0 17
3 1051 1052 1078 
1 0 17
3 1052 1079 1078 
1 0 17
3 1077 1076 1047 
1 0 17
3 1049 1078 1077 
1 0 17
3 1075 1074 1043 
1 0 17
3 1073 1072 1038 
1 0 17
3 1072 1071 1036 
1 0 17
3 1040 1074 1073 
1 0 17
3 1045 1076 1075 
1 0 17
3 1070 1069 1031 
1 0 17
3 1068 1067 1027 
1 0 17
3 1067 1066 1024 
1 0 17
3 1029 1069 1068 
1 0 17
3 1065 1064 1020 
1 0 17
3 1063 538 1015 
1 0 17
3 538 539 1062 
1 0 17
3 1017 1064 1063 
1 0 17
3 1022 1066 1065 
1 0 17
3 1033 1071 1070 
1 0 17
3 1051 1078 1050 
1 0 17
3 1077 1048 1049 
1 0 17
3 1047 1048 1077 
1 0 17
3 1046 1047 1076 
1 0 17
3 1075 1044 1045 
1 0 17
3 1043 1074 1042 
1 0 17
3 1043 1044 1075 
1 0 17
3 1046 1076 1045 
1 0 17
3 1042 1074 1041 
1 0 17
3 1040 1073 1039 
1 0 17
3 1072 1037 1038 
1 0 17
3 1039 1073 1038 
1 0 17
3 1037 1072 1036 
1 0 17
3 1034 1035 1071 
1 0 17
3 1033 1070 1032 
1 0 17
3 1033 1034 1071 
1 0 17
3 1036 1071 1035 
1 0 17
3 1074 1040 1041 
1 0 17
3 1031 1032 1070 
1 0 17
3 1069 1029 1030 
1 0 17
3 1028 1029 1068 
1 0 17
3 1027 1028 1068 
1 0 17
3 1025 1026 1067 
1 0 17
3 1066 1023 1024 
1 0 17
3 1024 1025 1067 
1 0 17
3 1026 1027 1067 
1 0 17
3 1022 1023 1066 
1 0 17
3 1065 1020 1021 
1 0 17
3 1064 1018 1019 
1 0 17
3 1019 1020 1064 
1 0 17
3 1064 1017 1018 
1 0 17
3 1016 1063 1015 
1 0 17
3 1014 538 1062 
1 0 17
3 1014 1015 538 
1 0 17
3 1063 1016 1017 
1 0 17
3 1065 1021 1022 
1 0 17
3 1031 1069 1030 
1 0 17
3 1050 1078 1049 
1 0 18
3 905 861 862 
1 0 18
3 860 861 906 
1 0 18
3 928 838 839 
1 0 18
3 920 846 847 
1 0 18
3 921 845 846 
1 0 18
3 923 843 844 
1 0 18
3 925 841 842 
1 0 18
3 842 843 924 
1 0 18
3 844 845 922 
1 0 18
3 847 848 919 
1 0 18
3 840 927 839 
1 0 18
3 930 836 837 
1 0 18
3 931 835 836 
1 0 18
3 833 934 832 
1 0 18
3 822 823 944 
1 0 18
3 833 834 933 
1 0 18
3 936 830 831 
1 0 18
3 832 935 831 
1 0 18
3 828 829 938 
1 0 18
3 941 825 826 
1 0 18
3 829 830 937 
1 0 18
3 834 835 932 
1 0 18
3 927 840 841 
1 0 18
3 859 860 907 
1 0 18
3 858 859 908 
1 0 18
3 856 857 911 
1 0 18
3 854 855 912 
1 0 18
3 856 911 855 
1 0 18
3 858 909 857 
1 0 18
3 852 853 914 
1 0 18
3 851 852 915 
1 0 18
3 838 929 837 
1 0 18
3 849 850 917 
1 0 18
3 825 942 824 
1 0 18
3 827 828 939 
1 0 18
3 849 919 848 
1 0 18
3 851 916 850 
1 0 18
3 854 913 853 
1 0 18
3 822 945 821 
1 0 18
3 824 944 823 
1 0 18
3 948 819 820 
1 0 18
3 952 814 815 
1 0 18
3 815 816 952 
1 0 18
3 819 948 818 
1 0 18
3 813 814 953 
1 0 18
3 817 818 950 
1 0 18
3 812 813 954 
1 0 18
3 955 811 812 
1 0 18
3 809 810 958 
1 0 18
3 811 957 810 
1 0 18
3 817 950 816 
1 0 18
3 820 821 946 
1 0 18
3 826 827 941 
1 0 18
3 862 1 0 
1 0 18
3 794 795 973 
1 0 18
3 794 974 793 
1 0 18
3 793 974 792 
1 0 18
3 791 792 975 
1 0 18
3 796 972 795 
1 0 18
3 789 978 788 
1 0 18
3 970 797 798 
1 0 18
3 790 977 789 
1 0 18
3 984 783 784 
1 0 18
3 784 785 983 
1 0 18
3 791 977 790 
1 0 18
3 986 781 782 
1 0 18
3 987 780 781 
1 0 18
3 989 778 779 
1 0 18
3 990 776 777 
1 0 18
3 777 778 990 
1 0 18
3 779 780 988 
1 0 18
3 993 774 775 
1 0 18
3 994 773 774 
1 0 18
3 996 771 772 
1 0 18
3 998 769 770 
1 0 18
3 770 771 997 
1 0 18
3 772 773 995 
1 0 18
3 775 776 992 
1 0 18
3 782 783 985 
1 0 18
3 807 808 960 
1 0 18
3 806 807 961 
1 0 18
3 803 804 963 
1 0 18
3 805 963 804 
1 0 18
3 806 962 805 
1 0 18
3 801 802 966 
1 0 18
3 800 801 967 
1 0 18
3 799 969 798 
1 0 18
3 769 999 768 
1 0 18
3 786 787 981 
1 0 18
3 788 980 787 
1 0 18
3 800 967 799 
1 0 18
3 796 797 971 
1 0 18
3 803 965 802 
1 0 18
3 767 768 1000 
1 0 18
3 1001 766 767 
1 0 18
3 1002 765 766 
1 0 18
3 1004 763 764 
1 0 18
3 1006 761 762 
1 0 18
3 762 763 1005 
1 0 18
3 764 765 1003 
1 0 18
3 1008 759 760 
1 0 18
3 1009 758 759 
1 0 18
3 1011 756 757 
1 0 18
3 1012 2 755 
1 0 18
3 755 756 1012 
1 0 18
3 757 758 1009 
1 0 18
3 760 761 1007 
1 0 18
3 785 786 982 
1 0 18
3 809 959 808 
1 0 18
3 905 862 0 
1 0 18
3 913 854 912 
1 0 18
3 915 852 914 
1 0 18
3 915 916 851 
1 0 18
3 905 906 861 
1 0 18
3 914 853 913 
1 0 18
3 907 860 906 
1 0 18
3 908 859 907 
1 0 18
3 910 857 909 
1 0 18
3 910 911 857 
1 0 18
3 909 858 908 
1 0 18
3 916 917 850 
1 0 18
3 918 849 917 
1 0 18
3 919 849 918 
1 0 18
3 921 846 920 
1 0 18
3 923 844 922 
1 0 18
3 922 845 921 
1 0 18
3 920 847 919 
1 0 18
3 925 842 924 
1 0 18
3 926 841 925 
1 0 18
3 928 839 927 
1 0 18
3 930 837 929 
1 0 18
3 929 838 928 
1 0 18
3 927 841 926 
1 0 18
3 924 843 923 
1 0 18
3 930 931 836 
1 0 18
3 932 835 931 
1 0 18
3 933 834 932 
1 0 18
3 940 827 939 
1 0 18
3 942 825 941 
1 0 18
3 941 827 940 
1 0 18
3 937 830 936 
1 0 18
3 934 833 933 
1 0 18
3 831 935 936 
1 0 18
3 829 937 938 
1 0 18
3 944 824 943 
1 0 18
3 938 939 828 
1 0 18
3 832 934 935 
1 0 18
3 943 824 942 
1 0 18
3 945 946 821 
1 0 18
3 946 947 820 
1 0 18
3 948 949 818 
1 0 18
3 950 951 816 
1 0 18
3 953 954 813 
1 0 18
3 949 950 818 
1 0 18
3 947 948 820 
1 0 18
3 814 952 953 
1 0 18
3 812 954 955 
1 0 18
3 957 958 810 
1 0 18
3 955 956 811 
1 0 18
3 816 951 952 
1 0 18
3 956 957 811 
1 0 18
3 944 945 822 
1 0 18
3 958 959 809 
1 0 18
3 961 807 960 
1 0 18
3 962 806 961 
1 0 18
3 805 962 963 
1 0 18
3 803 963 964 
1 0 18
3 970 971 797 
1 0 18
3 808 959 960 
1 0 18
3 965 803 964 
1 0 18
3 966 802 965 
1 0 18
3 968 799 967 
1 0 18
3 968 969 799 
1 0 18
3 967 801 966 
1 0 18
3 978 979 788 
1 0 18
3 991 776 990 
1 0 18
3 771 996 997 
1 0 18
3 1002 766 1001 
1 0 18
3 1003 1004 764 
1 0 18
3 765 1002 1003 
1 0 18
3 1005 763 1004 
1 0 18
3 1005 1006 762 
1 0 18
3 778 989 990 
1 0 18
3 1007 761 1006 
1 0 18
3 1008 760 1007 
1 0 18
3 1012 756 1011 
1 0 18
3 1011 757 1010 
1 0 18
3 1008 1009 759 
1 0 18
3 757 1009 1010 
1 0 18
3 971 972 796 
1 0 18
3 798 969 970 
1 0 18
3 975 976 791 
1 0 18
3 973 795 972 
1 0 18
3 978 789 977 
1 0 18
3 986 782 985 
1 0 18
3 981 982 786 
1 0 18
3 985 783 984 
1 0 18
3 974 975 792 
1 0 18
3 973 974 794 
1 0 18
3 976 977 791 
1 0 18
3 981 787 980 
1 0 18
3 983 984 784 
1 0 18
3 983 785 982 
1 0 18
3 980 788 979 
1 0 18
3 988 780 987 
1 0 18
3 988 989 779 
1 0 18
3 992 776 991 
1 0 18
3 994 774 993 
1 0 18
3 993 775 992 
1 0 18
3 996 772 995 
1 0 18
3 998 770 997 
1 0 18
3 1000 768 999 
1 0 18
3 1000 1001 767 
1 0 18
3 999 769 998 
1 0 18
3 995 773 994 
1 0 18
3 987 781 986 
1 0 18
3 1012 111 2 
1 0 18
3 912 855 911 
1 0 19
3 1065 1084 1064 
1 0 19
3 1064 1083 1063 
1 0 19
3 1085 1065 1066 
1 0 19
3 538 1063 537 
1 0 19
3 1087 1067 1068 
1 0 19
3 1088 1068 1069 
1 0 19
3 1090 1070 1071 
1 0 19
3 1069 1070 1089 
1 0 19
3 1066 1067 1086 
1 0 19
3 1091 1071 1072 
1 0 19
3 1083 537 1063 
1 0 19
3 1084 1083 1064 
1 0 19
3 1086 1085 1066 
1 0 19
3 1065 1085 1084 
1 0 19
3 1088 1087 1068 
1 0 19
3 1089 1088 1069 
1 0 19
3 1091 1090 1071 
1 0 19
3 1092 1091 1072 
1 0 19
3 1089 1070 1090 
1 0 19
3 1086 1067 1087 
1 0 19
3 1072 1073 1092 
1 0 19
3 1073 1074 1093 
1 0 19
3 1075 1076 1095 
1 0 19
3 1076 1077 1096 
1 0 19
3 1074 1075 1094 
1 0 19
3 1082 1101 1081 
1 0 19
3 1079 1080 1099 
1 0 19
3 1081 1100 1080 
1 0 19
3 752 1102 1082 
1 0 19
3 1078 1079 1098 
1 0 19
3 1077 1078 1097 
1 0 19
3 1094 1093 1074 
1 0 19
3 1096 1095 1076 
1 0 19
3 1097 1096 1077 
1 0 19
3 1094 1075 1095 
1 0 19
3 1079 1099 1098 
1 0 19
3 1099 1080 1100 
1 0 19
3 1101 1100 1081 
1 0 19
3 1101 1082 1102 
1 0 19
3 752 753 1102 
1 0 19
3 1097 1078 1098 
1 0 19
3 1073 1093 1092 
1 0 20
3 1016 1015 1104 
1 0 20
3 1103 1015 1014 
1 0 20
3 1019 1018 1107 
1 0 20
3 1018 1017 1106 
1 0 20
3 1017 1016 1105 
1 0 20
3 1021 1020 1109 
1 0 20
3 1022 1021 1110 
1 0 20
3 1024 1023 1112 
1 0 20
3 1025 1024 1113 
1 0 20
3 1023 1022 1111 
1 0 20
3 1019 1108 1020 
1 0 20
3 1027 1026 1115 
1 0 20
3 1028 1027 1116 
1 0 20
3 1030 1029 1118 
1 0 20
3 1031 1030 1119 
1 0 20
3 1029 1028 1117 
1 0 20
3 1033 1032 1121 
1 0 20
3 1034 1033 1122 
1 0 20
3 1125 1037 1036 
1 0 20
3 1123 1035 1034 
1 0 20
3 1120 1032 1031 
1 0 20
3 1114 1026 1025 
1 0 20
3 1036 1035 1124 
1 0 20
3 1104 1015 1103 
1 0 20
3 1105 1016 1104 
1 0 20
3 1107 1018 1106 
1 0 20
3 1108 1019 1107 
1 0 20
3 1105 1106 1017 
1 0 20
3 1110 1021 1109 
1 0 20
3 1111 1022 1110 
1 0 20
3 1113 1024 1112 
1 0 20
3 1114 1025 1113 
1 0 20
3 1111 1112 1023 
1 0 20
3 1108 1109 1020 
1 0 20
3 1116 1027 1115 
1 0 20
3 1117 1028 1116 
1 0 20
3 1118 1119 1030 
1 0 20
3 1029 1117 1118 
1 0 20
3 1119 1120 1031 
1 0 20
3 1115 1026 1114 
1 0 20
3 1121 1032 1120 
1 0 20
3 1122 1033 1121 
1 0 20
3 1124 1035 1123 
1 0 20
3 1126 1037 1125 
1 0 20
3 1124 1125 1036 
1 0 20
3 1122 1123 1034 
1 0 20
3 1126 1127 1038 
1 0 20
3 1037 1126 1038 
1 0 20
3 1128 1040 1039 
1 0 20
3 1129 1041 1040 
1 0 20
3 1131 1043 1042 
1 0 20
3 1132 1044 1043 
1 0 20
3 1130 1042 1041 
1 0 20
3 1134 1046 1045 
1 0 20
3 1135 1047 1046 
1 0 20
3 1137 1049 1048 
1 0 20
3 1138 1050 1049 
1 0 20
3 1136 1048 1047 
1 0 20
3 1133 1045 1044 
1 0 20
3 1051 1140 1052 
1 0 20
3 1057 1056 1145 
1 0 20
3 1058 1147 1059 
1 0 20
3 1142 1054 1053 
1 0 20
3 1143 1055 1054 
1 0 20
3 1059 1148 1060 
1 0 20
3 1146 1058 1057 
1 0 20
3 1149 1061 1060 
1 0 20
3 1144 1056 1055 
1 0 20
3 1061 904 903 
1 0 20
3 1053 1052 1141 
1 0 20
3 1139 1051 1050 
1 0 20
3 1039 1127 1128 
1 0 20
3 1040 1128 1129 
1 0 20
3 1042 1130 1131 
1 0 20
3 1043 1131 1132 
1 0 20
3 1130 1041 1129 
1 0 20
3 1045 1133 1134 
1 0 20
3 1046 1134 1135 
1 0 20
3 1048 1136 1137 
1 0 20
3 1049 1137 1138 
1 0 20
3 1136 1047 1135 
1 0 20
3 1133 1044 1132 
1 0 20
3 1051 1139 1140 
1 0 20
3 1052 1140 1141 
1 0 20
3 1054 1142 1143 
1 0 20
3 1055 1143 1144 
1 0 20
3 1142 1053 1141 
1 0 20
3 1057 1145 1146 
1 0 20
3 1058 1146 1147 
1 0 20
3 1060 1148 1149 
1 0 20
3 1061 1150 904 
1 0 20
3 1150 1061 1149 
1 0 20
3 1148 1059 1147 
1 0 20
3 1145 1056 1144 
1 0 20
3 1139 1050 1138 
1 0 20
3 1038 1127 1039 
1 0 21
3 1125 1092 1126 
1 0 21
3 1128 1127 1093 
1 0 21
3 1123 1091 1124 
1 0 21
3 1122 1121 1090 
1 0 21
3 1091 1125 1124 
1 0 21
3 1091 1123 1122 
1 0 21
3 1121 1120 1090 
1 0 21
3 1128 1093 1129 
1 0 21
3 1135 1134 1096 
1 0 21
3 1097 1137 1136 
1 0 21
3 1096 1136 1135 
1 0 21
3 1131 1130 1094 
1 0 21
3 1132 1095 1133 
1 0 21
3 1131 1094 1132 
1 0 21
3 1133 1095 1134 
1 0 21
3 1127 1126 1092 
1 0 21
3 1130 1129 1094 
1 0 21
3 1108 1107 1084 
1 0 21
3 1084 1109 1108 
1 0 21
3 1107 1106 1084 
1 0 21
3 1105 1083 1106 
1 0 21
3 1105 1104 1083 
1 0 21
3 1103 537 1104 
1 0 21
3 1120 1119 1089 
1 0 21
3 1110 1109 1085 
1 0 21
3 1117 1116 1088 
1 0 21
3 1119 1118 1089 
1 0 21
3 1117 1088 1118 
1 0 21
3 1115 1087 1116 
1 0 21
3 1112 1111 1086 
1 0 21
3 1087 1115 1114 
1 0 21
3 1112 1086 1113 
1 0 21
3 1113 1087 1114 
1 0 21
3 1110 1085 1111 
1 0 21
3 536 1103 1151 
1 0 21
3 1097 1138 1137 
1 0 21
3 1144 1143 1100 
1 0 21
3 1101 1146 1145 
1 0 21
3 1100 1145 1144 
1 0 21
3 1143 1142 1099 
1 0 21
3 1141 1099 1142 
1 0 21
3 1141 1140 1098 
1 0 21
3 1140 1139 1098 
1 0 21
3 1146 1101 1147 
1 0 21
3 1149 1148 1102 
1 0 21
3 1150 753 904 
1 0 21
3 1149 1102 1150 
1 0 21
3 865 904 753 
1 0 21
3 1101 1145 1100 
1 0 21
3 1150 1102 753 
1 0 21
3 865 753 754 
1 0 21
3 1102 1148 1101 
1 0 21
3 1148 1147 1101 
1 0 21
3 1100 1143 1099 
1 0 21
3 1087 1113 1086 
1 0 21
3 1089 1118 1088 
1 0 21
3 1087 1088 1116 
1 0 21
3 537 1103 536 
1 0 21
3 1084 1106 1083 
1 0 21
3 1085 1109 1084 
1 0 21
3 537 1083 1104 
1 0 21
3 1086 1111 1085 
1 0 21
3 1096 1134 1095 
1 0 21
3 1098 1138 1097 
1 0 21
3 1141 1098 1099 
1 0 21
3 1096 1097 1136 
1 0 21
3 1091 1122 1090 
1 0 21
3 1093 1127 1092 
1 0 21
3 1094 1129 1093 
1 0 21
3 1091 1092 1125 
1 0 21
3 1095 1132 1094 
1 0 21
3 1089 1090 1120 
1 0 21
3 1098 1139 1138 
1 0 22
3 1151 446 536 
1 0 22
3 446 1151 1152 
1 0 23
3 1152 1242 446 
1 0 23
3 1241 1240 448 
1 0 23
3 1240 1239 449 
1 0 23
3 1242 1241 447 
1 0 23
3 1238 1237 451 
1 0 23
3 1237 1236 452 
1 0 23
3 1235 1234 454 
1 0 23
3 1234 1233 455 
1 0 23
3 1236 1235 453 
1 0 23
3 1239 1238 450 
1 0 23
3 1232 1231 457 
1 0 23
3 1230 1229 459 
1 0 23
3 1229 1228 460 
1 0 23
3 1231 1230 458 
1 0 23
3 1227 1226 462 
1 0 23
3 1226 1225 463 
1 0 23
3 1224 1223 465 
1 0 23
3 1223 1222 466 
1 0 23
3 1225 1224 464 
1 0 23
3 1228 1227 461 
1 0 23
3 1233 1232 456 
1 0 23
3 1221 1220 468 
1 0 23
3 1219 1218 470 
1 0 23
3 1218 1217 471 
1 0 23
3 1220 1219 469 
1 0 23
3 1216 1215 473 
1 0 23
3 1215 1214 474 
1 0 23
3 1213 1212 476 
1 0 23
3 1212 1211 477 
1 0 23
3 1214 1213 475 
1 0 23
3 1217 1216 472 
1 0 23
3 1210 1209 480 
1 0 23
3 1209 1208 481 
1 0 23
3 1207 1206 483 
1 0 23
3 1206 1205 484 
1 0 23
3 1208 1207 482 
1 0 23
3 1204 1203 486 
1 0 23
3 1203 1202 487 
1 0 23
3 1201 1200 489 
1 0 23
3 1200 1199 490 
1 0 23
3 1202 1201 488 
1 0 23
3 1205 1204 485 
1 0 23
3 1211 1210 478 
1 0 23
3 1222 1221 467 
1 0 23
3 447 446 1242 
1 0 23
3 449 448 1240 
1 0 23
3 450 449 1239 
1 0 23
3 447 1241 448 
1 0 23
3 452 451 1237 
1 0 23
3 453 452 1236 
1 0 23
3 455 454 1234 
1 0 23
3 456 455 1233 
1 0 23
3 453 1235 454 
1 0 23
3 450 1238 451 
1 0 23
3 458 457 1231 
1 0 23
3 459 458 1230 
1 0 23
3 461 460 1228 
1 0 23
3 462 461 1227 
1 0 23
3 459 1229 460 
1 0 23
3 464 463 1225 
1 0 23
3 465 464 1224 
1 0 23
3 467 466 1222 
1 0 23
3 468 467 1221 
1 0 23
3 465 1223 466 
1 0 23
3 462 1226 463 
1 0 23
3 456 1232 457 
1 0 23
3 470 469 1219 
1 0 23
3 472 471 1217 
1 0 23
3 473 472 1216 
1 0 23
3 470 1218 471 
1 0 23
3 475 474 1214 
1 0 23
3 476 475 1213 
1 0 23
3 478 477 1211 
1 0 23
3 479 478 1210 
1 0 23
3 476 1212 477 
1 0 23
3 473 1215 474 
1 0 23
3 481 480 1209 
1 0 23
3 482 481 1208 
1 0 23
3 484 483 1206 
1 0 23
3 485 484 1205 
1 0 23
3 482 1207 483 
1 0 23
3 487 486 1203 
1 0 23
3 488 487 1202 
1 0 23
3 490 489 1200 
1 0 23
3 491 490 1199 
1 0 23
3 488 1201 489 
1 0 23
3 485 1204 486 
1 0 23
3 479 1210 480 
1 0 23
3 468 1220 469 
1 0 23
3 1199 1198 491 
1 0 23
3 1198 1197 492 
1 0 23
3 1196 1195 494 
1 0 23
3 1195 1194 495 
1 0 23
3 1197 1196 493 
1 0 23
3 1193 1192 497 
1 0 23
3 1192 1191 498 
1 0 23
3 1190 1189 500 
1 0 23
3 1189 1188 501 
1 0 23
3 1191 1190 499 
1 0 23
3 1194 1193 496 
1 0 23
3 1187 1186 503 
1 0 23
3 1185 1184 505 
1 0 23
3 1184 1183 506 
1 0 23
3 1186 1185 504 
1 0 23
3 1182 1181 508 
1 0 23
3 1181 1180 509 
1 0 23
3 1179 1178 511 
1 0 23
3 1178 1177 512 
1 0 23
3 1180 1179 510 
1 0 23
3 1183 1182 507 
1 0 23
3 1188 1187 502 
1 0 23
3 1176 1175 514 
1 0 23
3 1174 1173 516 
1 0 23
3 1173 1172 517 
1 0 23
3 1175 1174 515 
1 0 23
3 1171 1170 519 
1 0 23
3 1170 1169 520 
1 0 23
3 1168 1167 522 
1 0 23
3 1167 1166 523 
1 0 23
3 1169 1168 521 
1 0 23
3 1172 1171 518 
1 0 23
3 1165 1164 525 
1 0 23
3 1164 1163 526 
1 0 23
3 1162 1161 528 
1 0 23
3 1161 1160 529 
1 0 23
3 1163 1162 527 
1 0 23
3 1159 1158 531 
1 0 23
3 1158 1157 532 
1 0 23
3 1156 1155 534 
1 0 23
3 1155 1154 535 
1 0 23
3 1157 1156 533 
1 0 23
3 1160 1159 530 
1 0 23
3 1166 1165 524 
1 0 23
3 1177 1176 513 
1 0 23
3 492 1197 493 
1 0 23
3 494 1195 495 
1 0 23
3 495 1194 496 
1 0 23
3 1196 494 493 
1 0 23
3 497 1192 498 
1 0 23
3 498 1191 499 
1 0 23
3 500 1189 501 
1 0 23
3 501 1188 502 
1 0 23
3 1190 500 499 
1 0 23
3 1193 497 496 
1 0 23
3 503 1186 504 
1 0 23
3 504 1185 505 
1 0 23
3 506 1183 507 
1 0 23
3 507 1182 508 
1 0 23
3 1184 506 505 
1 0 23
3 509 1180 510 
1 0 23
3 510 1179 511 
1 0 23
3 512 1177 513 
1 0 23
3 513 1176 514 
1 0 23
3 1178 512 511 
1 0 23
3 1181 509 508 
1 0 23
3 1187 503 502 
1 0 23
3 515 1174 516 
1 0 23
3 517 1172 518 
1 0 23
3 518 1171 519 
1 0 23
3 1173 517 516 
1 0 23
3 1169 521 520 
1 0 23
3 520 519 1170 
1 0 23
3 1168 522 521 
1 0 23
3 522 1167 523 
1 0 23
3 523 1166 524 
1 0 23
3 525 524 1165 
1 0 23
3 514 1175 515 
1 0 23
3 525 1164 526 
1 0 23
3 526 1163 527 
1 0 23
3 528 1161 529 
1 0 23
3 529 1160 530 
1 0 23
3 1162 528 527 
1 0 23
3 531 1158 532 
1 0 23
3 532 1157 533 
1 0 23
3 534 1155 535 
1 0 23
3 535 1154 445 
1 0 23
3 1156 534 533 
1 0 23
3 1159 531 530 
1 0 23
3 1153 445 1154 
1 0 23
3 1198 492 491 
1 0 24
3 444 1153 1243 
1 0 24
3 1153 444 445 
1 0 25
3 399 1243 384 
1 0 25
3 1243 399 444 
1 0 26
3 541 663 1244 
1 0 26
3 663 541 631 
1 0 27
3 1244 1334 541 
1 0 27
3 1333 1332 543 
1 0 27
3 1332 1331 544 
1 0 27
3 1334 1333 542 
1 0 27
3 1330 1329 546 
1 0 27
3 1329 1328 547 
1 0 27
3 1327 1326 549 
1 0 27
3 1326 1325 550 
1 0 27
3 1328 1327 548 
1 0 27
3 1331 1330 545 
1 0 27
3 1324 1323 552 
1 0 27
3 1322 1321 554 
1 0 27
3 1321 1320 555 
1 0 27
3 1323 1322 553 
1 0 27
3 1319 1318 557 
1 0 27
3 1318 1317 558 
1 0 27
3 1316 1315 560 
1 0 27
3 1315 1314 561 
1 0 27
3 1317 1316 559 
1 0 27
3 1320 1319 556 
1 0 27
3 1325 1324 551 
1 0 27
3 1313 1312 563 
1 0 27
3 1311 1310 565 
1 0 27
3 1310 1309 566 
1 0 27
3 1312 1311 564 
1 0 27
3 1308 1307 568 
1 0 27
3 1307 1306 569 
1 0 27
3 1305 1304 571 
1 0 27
3 1304 1303 572 
1 0 27
3 1306 1305 570 
1 0 27
3 1309 1308 567 
1 0 27
3 1302 1301 575 
1 0 27
3 1301 1300 576 
1 0 27
3 1299 1298 578 
1 0 27
3 1298 1297 579 
1 0 27
3 1300 1299 577 
1 0 27
3 1296 1295 581 
1 0 27
3 1295 1294 582 
1 0 27
3 1293 1292 584 
1 0 27
3 1292 1291 585 
1 0 27
3 1294 1293 583 
1 0 27
3 1297 1296 580 
1 0 27
3 1303 1302 573 
1 0 27
3 1314 1313 562 
1 0 27
3 542 541 1334 
1 0 27
3 544 543 1332 
1 0 27
3 545 544 1331 
1 0 27
3 542 1333 543 
1 0 27
3 547 546 1329 
1 0 27
3 548 547 1328 
1 0 27
3 550 549 1326 
1 0 27
3 551 550 1325 
1 0 27
3 548 1327 549 
1 0 27
3 545 1330 546 
1 0 27
3 553 552 1323 
1 0 27
3 554 553 1322 
1 0 27
3 556 555 1320 
1 0 27
3 557 556 1319 
1 0 27
3 554 1321 555 
1 0 27
3 559 558 1317 
1 0 27
3 560 559 1316 
1 0 27
3 562 561 1314 
1 0 27
3 563 562 1313 
1 0 27
3 560 1315 561 
1 0 27
3 557 1318 558 
1 0 27
3 551 1324 552 
1 0 27
3 565 564 1311 
1 0 27
3 567 566 1309 
1 0 27
3 568 567 1308 
1 0 27
3 565 1310 566 
1 0 27
3 570 569 1306 
1 0 27
3 571 570 1305 
1 0 27
3 573 572 1303 
1 0 27
3 574 573 1302 
1 0 27
3 571 1304 572 
1 0 27
3 568 1307 569 
1 0 27
3 576 575 1301 
1 0 27
3 577 576 1300 
1 0 27
3 579 578 1298 
1 0 27
3 580 579 1297 
1 0 27
3 577 1299 578 
1 0 27
3 582 581 1295 
1 0 27
3 583 582 1294 
1 0 27
3 585 584 1292 
1 0 27
3 586 585 1291 
1 0 27
3 583 1293 584 
1 0 27
3 580 1296 581 
1 0 27
3 574 1302 575 
1 0 27
3 563 1312 564 
1 0 27
3 1291 1290 586 
1 0 27
3 1290 1289 587 
1 0 27
3 1288 1287 589 
1 0 27
3 1287 1286 590 
1 0 27
3 1289 1288 588 
1 0 27
3 1285 1284 592 
1 0 27
3 1284 1283 593 
1 0 27
3 1282 1281 595 
1 0 27
3 1281 1280 596 
1 0 27
3 1283 1282 594 
1 0 27
3 1286 1285 591 
1 0 27
3 1279 1278 598 
1 0 27
3 1277 1276 600 
1 0 27
3 1276 1275 601 
1 0 27
3 1278 1277 599 
1 0 27
3 1274 1273 603 
1 0 27
3 1273 1272 604 
1 0 27
3 1271 1270 606 
1 0 27
3 1270 1269 607 
1 0 27
3 1272 1271 605 
1 0 27
3 1275 1274 602 
1 0 27
3 1280 1279 597 
1 0 27
3 1268 1267 609 
1 0 27
3 1266 1265 611 
1 0 27
3 1265 1264 612 
1 0 27
3 1267 1266 610 
1 0 27
3 1263 1262 614 
1 0 27
3 1262 1261 615 
1 0 27
3 1260 1259 617 
1 0 27
3 1259 1258 618 
1 0 27
3 1261 1260 616 
1 0 27
3 1264 1263 613 
1 0 27
3 1257 1256 620 
1 0 27
3 1256 1255 621 
1 0 27
3 1254 1253 623 
1 0 27
3 1253 1252 624 
1 0 27
3 1255 1254 622 
1 0 27
3 1251 1250 626 
1 0 27
3 1250 1249 627 
1 0 27
3 1248 1247 629 
1 0 27
3 1247 1246 630 
1 0 27
3 1249 1248 628 
1 0 27
3 1252 1251 625 
1 0 27
3 1258 1257 619 
1 0 27
3 1269 1268 608 
1 0 27
3 587 1289 588 
1 0 27
3 589 1287 590 
1 0 27
3 590 1286 591 
1 0 27
3 1288 589 588 
1 0 27
3 592 1284 593 
1 0 27
3 593 1283 594 
1 0 27
3 595 1281 596 
1 0 27
3 596 1280 597 
1 0 27
3 1282 595 594 
1 0 27
3 1285 592 591 
1 0 27
3 598 1278 599 
1 0 27
3 599 1277 600 
1 0 27
3 601 1275 602 
1 0 27
3 602 1274 603 
1 0 27
3 1276 601 600 
1 0 27
3 604 1272 605 
1 0 27
3 605 1271 606 
1 0 27
3 607 1269 608 
1 0 27
3 608 1268 609 
1 0 27
3 1270 607 606 
1 0 27
3 1273 604 603 
1 0 27
3 1279 598 597 
1 0 27
3 610 1266 611 
1 0 27
3 612 1264 613 
1 0 27
3 613 1263 614 
1 0 27
3 1265 612 611 
1 0 27
3 1261 616 615 
1 0 27
3 615 614 1262 
1 0 27
3 1260 617 616 
1 0 27
3 617 1259 618 
1 0 27
3 618 1258 619 
1 0 27
3 620 619 1257 
1 0 27
3 609 1267 610 
1 0 27
3 620 1256 621 
1 0 27
3 621 1255 622 
1 0 27
3 623 1253 624 
1 0 27
3 624 1252 625 
1 0 27
3 1254 623 622 
1 0 27
3 626 1250 627 
1 0 27
3 627 1249 628 
1 0 27
3 629 1247 630 
1 0 27
3 630 1246 540 
1 0 27
3 1248 629 628 
1 0 27
3 1251 626 625 
1 0 27
3 1245 540 1246 
1 0 27
3 1290 587 586 
1 0 28
3 1062 539 540 
1 0 28
3 540 1245 1062 
1 0 29
3 1014 1062 1245 
1 0 29
3 1014 1245 1246 
1 0 29
3 1246 1247 1014 
1 0 29
3 1248 1249 1014 
1 0 29
3 1247 1248 1014 
1 0 29
3 1014 1249 1250 
1 0 29
3 1250 1251 1014 
1 0 29
3 1252 1253 1014 
1 0 29
3 1251 1252 1014 
1 0 29
3 1254 1255 1014 
1 0 29
3 1256 1257 1014 
1 0 29
3 1255 1256 1014 
1 0 29
3 1253 1254 1014 
1 0 29
3 1014 1257 1258 
1 0 29
3 1258 1259 1014 
1 0 29
3 1335 1259 1260 
1 0 29
3 1014 1259 1335 
1 0 29
3 1335 1261 1262 
1 0 29
3 1335 1263 1264 
1 0 29
3 1335 1262 1263 
1 0 29
3 1335 1260 1261 
1 0 29
3 1335 1265 1266 
1 0 29
3 1335 1267 1268 
1 0 29
3 1335 1266 1267 
1 0 29
3 1270 1271 1335 
1 0 29
3 1272 1273 1335 
1 0 29
3 1271 1272 1335 
1 0 29
3 1269 1270 1335 
1 0 29
3 1335 1264 1265 
1 0 29
3 1335 1268 1269 
1 0 29
3 1275 1276 1335 
1 0 29
3 1274 1275 1335 
1 0 29
3 1277 1278 1335 
1 0 29
3 1279 1280 1335 
1 0 29
3 1278 1279 1335 
1 0 29
3 1276 1277 1335 
1 0 29
3 1301 1302 1335 
1 0 29
3 1303 1304 1335 
1 0 29
3 1302 1303 1335 
1 0 29
3 1299 1300 1335 
1 0 29
3 1298 1299 1335 
1 0 29
3 1301 1335 1300 
1 0 29
3 1280 1281 1335 
1 0 29
3 1282 1283 1335 
1 0 29
3 1284 1285 1335 
1 0 29
3 1283 1284 1335 
1 0 29
3 1286 1287 1335 
1 0 29
3 1288 1289 1335 
1 0 29
3 1287 1288 1335 
1 0 29
3 1285 1286 1335 
1 0 29
3 1294 1295 1335 
1 0 29
3 1296 1297 1335 
1 0 29
3 1295 1296 1335 
1 0 29
3 1290 1291 1335 
1 0 29
3 1292 1293 1335 
1 0 29
3 1291 1292 1335 
1 0 29
3 1294 1335 1293 
1 0 29
3 1289 1290 1335 
1 0 29
3 1298 1335 1297 
1 0 29
3 1281 1282 1335 
1 0 29
3 1273 1274 1335 
1 0 29
3 1335 1224 1225 
1 0 29
3 1335 1223 1224 
1 0 29
3 1335 1228 1229 
1 0 29
3 1335 1226 1227 
1 0 29
3 1227 1228 1335 
1 0 29
3 1335 1225 1226 
1 0 29
3 1217 1218 1335 
1 0 29
3 1215 1216 1335 
1 0 29
3 1217 1335 1216 
1 0 29
3 1335 1221 1222 
1 0 29
3 1335 1219 1220 
1 0 29
3 1220 1221 1335 
1 0 29
3 1218 1219 1335 
1 0 29
3 1222 1223 1335 
1 0 29
3 1240 1241 1103 
1 0 29
3 1238 1239 1103 
1 0 29
3 1240 1103 1239 
1 0 29
3 1103 1152 1151 
1 0 29
3 1152 1103 1242 
1 0 29
3 1103 1241 1242 
1 0 29
3 1238 1103 1237 
1 0 29
3 1232 1233 1103 
1 0 29
3 1230 1231 1103 
1 0 29
3 1232 1103 1231 
1 0 29
3 1236 1237 1103 
1 0 29
3 1234 1235 1103 
1 0 29
3 1236 1103 1235 
1 0 29
3 1233 1234 1103 
1 0 29
3 1103 1229 1230 
1 0 29
3 1335 1229 1103 
1 0 29
3 1335 1201 1202 
1 0 29
3 1201 1335 1200 
1 0 29
3 1199 1200 1335 
1 0 29
3 1335 1198 1199 
1 0 29
3 1204 1205 1335 
1 0 29
3 1202 1203 1335 
1 0 29
3 1204 1335 1203 
1 0 29
3 1335 1205 1206 
1 0 29
3 1197 1198 1335 
1 0 29
3 1195 1196 1335 
1 0 29
3 1197 1335 1196 
1 0 29
3 1193 1194 1335 
1 0 29
3 1191 1192 1335 
1 0 29
3 1193 1335 1192 
1 0 29
3 1195 1335 1194 
1 0 29
3 1335 1190 1191 
1 0 29
3 1209 1210 1335 
1 0 29
3 1207 1208 1335 
1 0 29
3 1209 1335 1208 
1 0 29
3 1213 1214 1335 
1 0 29
3 1211 1212 1335 
1 0 29
3 1213 1335 1212 
1 0 29
3 1210 1211 1335 
1 0 29
3 1188 1189 1335 
1 0 29
3 1190 1335 1189 
1 0 29
3 1186 1187 1335 
1 0 29
3 1184 1185 1335 
1 0 29
3 1186 1335 1185 
1 0 29
3 1188 1335 1187 
1 0 29
3 1207 1335 1206 
1 0 29
3 1184 1335 1183 
1 0 29
3 1335 1214 1215 
1 0 29
3 1103 1014 1335 
1 0 29
3 1335 1304 1305 
1 0 29
3 1326 1327 352 
1 0 29
3 1325 1326 352 
1 0 29
3 1321 1322 352 
1 0 29
3 1323 1324 352 
1 0 29
3 1322 1323 352 
1 0 29
3 1325 352 1324 
1 0 29
3 1332 1333 352 
1 0 29
3 1333 1334 352 
1 0 29
3 1328 1329 352 
1 0 29
3 1330 1331 352 
1 0 29
3 1329 1330 352 
1 0 29
3 1332 352 1331 
1 0 29
3 1327 1328 352 
1 0 29
3 1310 1311 1335 
1 0 29
3 1313 1335 1312 
1 0 29
3 1335 1311 1312 
1 0 29
3 1306 1307 1335 
1 0 29
3 1308 1309 1335 
1 0 29
3 1308 1335 1307 
1 0 29
3 1335 1309 1310 
1 0 29
3 1170 1317 1318 
1 0 29
3 1319 1320 352 
1 0 29
3 1170 1318 1319 
1 0 29
3 1314 1315 1335 
1 0 29
3 1316 1172 1335 
1 0 29
3 1316 1335 1315 
1 0 29
3 1316 1317 1171 
1 0 29
3 1335 1313 1314 
1 0 29
3 1321 352 1320 
1 0 29
3 648 649 352 
1 0 29
3 650 651 649 
1 0 29
3 651 350 649 
1 0 29
3 652 653 655 
1 0 29
3 654 655 653 
1 0 29
3 651 652 350 
1 0 29
3 652 655 350 
1 0 29
3 656 657 658 
1 0 29
3 658 350 655 
1 0 29
3 350 658 659 
1 0 29
3 661 350 659 
1 0 29
3 662 350 661 
1 0 29
3 661 659 660 
1 0 29
3 658 655 656 
1 0 29
3 352 649 350 
1 0 29
3 354 355 350 
1 0 29
3 357 350 355 
1 0 29
3 357 355 356 
1 0 29
3 648 352 1244 
1 0 29
3 350 357 359 
1 0 29
3 358 359 357 
1 0 29
3 360 350 359 
1 0 29
3 354 350 353 
1 0 29
3 360 361 362 
1 0 29
3 362 363 360 
1 0 29
3 363 352 350 
1 0 29
3 364 365 366 
1 0 29
3 366 352 364 
1 0 29
3 364 352 363 
1 0 29
3 350 360 363 
1 0 29
3 1244 352 1334 
1 0 29
3 648 1244 663 
1 0 29
3 429 1319 352 
1 0 29
3 1183 1335 1182 
1 0 29
3 1182 1335 1181 
1 0 29
3 1180 1335 1179 
1 0 29
3 1178 1335 1177 
1 0 29
3 1335 1178 1179 
1 0 29
3 1335 1180 1181 
1 0 29
3 1335 1175 1176 
1 0 29
3 1335 1173 1174 
1 0 29
3 1174 1175 1335 
1 0 29
3 1172 1316 1171 
1 0 29
3 1170 1319 1169 
1 0 29
3 1317 1170 1171 
1 0 29
3 1172 1173 1335 
1 0 29
3 1335 1176 1177 
1 0 29
3 1167 1168 429 
1 0 29
3 1165 1166 429 
1 0 29
3 1167 429 1166 
1 0 29
3 1163 1164 429 
1 0 29
3 1161 1162 429 
1 0 29
3 1163 429 1162 
1 0 29
3 1165 429 1164 
1 0 29
3 1159 1160 429 
1 0 29
3 1157 1158 429 
1 0 29
3 1159 429 1158 
1 0 29
3 1155 1156 429 
1 0 29
3 1153 1154 429 
1 0 29
3 1155 429 1154 
1 0 29
3 1157 429 1156 
1 0 29
3 1161 429 1160 
1 0 29
3 1169 429 1168 
1 0 29
3 437 439 382 
1 0 29
3 437 438 439 
1 0 29
3 439 440 382 
1 0 29
3 443 382 442 
1 0 29
3 441 442 382 
1 0 29
3 382 440 441 
1 0 29
3 437 382 435 
1 0 29
3 431 435 382 
1 0 29
3 429 430 431 
1 0 29
3 431 432 433 
1 0 29
3 437 435 436 
1 0 29
3 433 434 435 
1 0 29
3 431 433 435 
1 0 29
3 382 429 431 
1 0 29
3 382 398 429 
1 0 29
3 395 396 394 
1 0 29
3 390 393 394 
1 0 29
3 390 394 396 
1 0 29
3 384 429 398 
1 0 29
3 390 397 398 
1 0 29
3 390 396 397 
1 0 29
3 1243 1153 384 
1 0 29
3 387 388 386 
1 0 29
3 382 390 398 
1 0 29
3 388 390 382 
1 0 29
3 392 393 391 
1 0 29
3 393 390 391 
1 0 29
3 388 389 390 
1 0 29
3 382 386 388 
1 0 29
3 385 386 382 
1 0 29
3 384 1153 429 
1 0 29
3 1319 429 1169 
1 0 29
3 1306 1335 1305 
0
1
1 -13.8383 -8.62871 41.9994 1 1
