70 3
1	-3.5     9.49     6.29
2	-3.      8.49     5.79
3	-3.      6.49     5.79
4	 0.      2.44     5.79
5	 9.14    0.       5.79
6	10.89   -2        4.44
7	11.62   -2        4.44
8	13.37    0.       5.79
9	13.37    3.05     5.79
10	 9.11    7.32     5.79
11	 9.18   18.9      5.79
12	 8.57   20.12     5.79
13	 9.19   18.9      5.79
14	 9.12    7.32     5.79
15	11.58    6.1      5.79
16	12.528   4.77     3.79
17	12.768   4.77     3.79
18	13.715   6.1      5.79
19	14.663   4.77     3.79
20	14.903   4.77     3.79
21	15.85    6.1      5.79
22	15.85   23.77     5.79
23	12.19   23.77     5.79
24	12.12    9.75     5.79
25	12.12   23.16     5.79
26	10.97   23.77     5.79
27	6.1    23.77     5.79
28	 3.05   22.55     5.79
29	 3.05    7.92     5.79
30	 3.66    7.01     5.79
31	 0.      5.49     5.79
32	-1.      6.49     5.79
33	-1.      8.49     5.79
34	-0.5     9.49     6.29
35	-3.5     9.49    -0.5 
36	-3.      8.49     0.  
37	-3.      6.49     0.  
38	 0.      2.44     0.  
39	 9.14    0.       0.  
40	10.89   -2        1.35
41	11.62   -2        1.35
42	13.37    0.       0. 
43	13.37    3.05     0. 
44	 9.11    7.32     0. 
45	 9.18   18.9      0. 
46	 8.57   20.12     0. 
47	 9.19   18.9      0. 
48	 9.12    7.32     0. 
49	11.58    6.1      0. 
50	12.528   4.77     2. 
51	12.768   4.77     2. 
52	13.715   6.1      0. 
53	14.663   4.77     2. 
54	14.903   4.77     2. 
55	15.85    6.1      0. 
56	15.85   23.77     0. 
57	12.19   23.77     0. 
58	12.12    9.75     0. 
59	12.12   23.16     0. 
60	10.97   23.77     0. 
61	 6.1    23.77     0. 
62	 3.05   22.55     0. 
63	 3.05    7.92     0. 
64	 3.66    7.01     0. 
65	 0.      5.49     0. 
66	-1.      6.49     0. 
67	-1.      8.49     0. 
68	-0.5     9.49    -0.5
69	12.1201 23.16     5.79
70	12.1201 23.16     0.
45 0
1 # 1
4	1 2 36 35
1 # 2
4	2 3 37 36
1 # 3
4	3 4 38 37
1 # 4
4	4 5 39 38
1 # 5
4	5 6 40 39
1 # 6
4	6 7 41 40
1 # 7
4	7 8 42 41
1 # 8
4	8 9 43 42
1 # 9
4	9 10 44 43
1 # 10
4	10 11 45 44
1 # 11
4	11 12 46 45
1 # 12
4	12 13 47 46
1 # 13
4	13 14 48 47
1 # 14
4	14 15 49 48
1 # 15
4	15 16 50 49
1 # 16
4	16 17 51 50
1 # 17
4	17 18 52 51
1 # 18
4	18 19 53 52
1 # 19
4	19 20 54 53
1 # 20
4	20 21 55 54
1 # 21
4	21 22 56 55
1 # 22
4	22 23 57 56
1 # 23
4	23 69 70 57
1 # 24
4	69 24 58 70
1 # 25
4	24 25 59 58
1 # 26
4	25 26 60 59
1 # 27
4	26 27 61 60
1 # 28
4	27 28 62 61
1 # 29
4	28 29 63 62
1 # 30
4	29 30 64 63
1 # 31
4	30 31 65 64
1 # 32
4	31 32 66 65
1 # 33
4	32 33 67 66
1 # 34
4	33 34 68 67
1 # 35
4	34 1 35 68
1 # 36
4	1 34 33 2
1 # 37
4	35 36 67 68
1 # 38
4	5 8 7 6
1 # 39
4	39 40 41 42
1 # 40
4	15 18 17 16
1 # 41
4	49 50 51 52
1 # 42
4	18 21 20 19
1 # 43
4	52 53 54 55
1 # 44
27	2  33 32 31 30 29 28 27 26 25 
        24 69 23 22 21 18 15 14 13 12 11 10 9 8 5 4 3
1 # 45
27	36 37 38 39 42 43 44 45 46 47 
        48 49 52 55 56 57 70 58 59 60 61 62 63 64 65 66 67
0
0
