# Part 1 - node list
120 3 0 0
   1 0.5 0.5 3.73606797749978981
   2 0.5 0.5 -3.73606797749978981
   3 0.5 -0.5 3.73606797749978981
   4 0.5 -0.5 -3.73606797749978981
   5 -0.5 0.5 3.73606797749978981
   6 -0.5 0.5 -3.73606797749978981
   7 -0.5 -0.5 3.73606797749978981
   8 -0.5 -0.5 -3.73606797749978981
   9 0.5 3.73606797749978981 0.5
  10 0.5 3.73606797749978981 -0.5
  11 0.5 -3.73606797749978981 0.5
  12 0.5 -3.73606797749978981 -0.5
  13 -0.5 3.73606797749978981 0.5
  14 -0.5 3.73606797749978981 -0.5
  15 -0.5 -3.73606797749978981 0.5
  16 -0.5 -3.73606797749978981 -0.5
  17 3.73606797749978981 0.5 0.5
  18 3.73606797749978981 0.5 -0.5
  19 3.73606797749978981 -0.5 0.5
  20 3.73606797749978981 -0.5 -0.5
  21 -3.73606797749978981 0.5 0.5
  22 -3.73606797749978981 0.5 -0.5
  23 -3.73606797749978981 -0.5 0.5
  24 -3.73606797749978981 -0.5 -0.5
  25 1 1.30901699437494745 3.42705098312484235
  26 1 1.30901699437494745 -3.42705098312484235
  27 1 -1.30901699437494745 3.42705098312484235
  28 1 -1.30901699437494745 -3.42705098312484235
  29 -1 1.30901699437494745 3.42705098312484235
  30 -1 1.30901699437494745 -3.42705098312484235
  31 -1 -1.30901699437494745 3.42705098312484235
  32 -1 -1.30901699437494745 -3.42705098312484235
  33 1.30901699437494745 3.42705098312484235 1
  34 1.30901699437494745 3.42705098312484235 -1
  35 1.30901699437494745 -3.42705098312484235 1
  36 1.30901699437494745 -3.42705098312484235 -1
  37 -1.30901699437494745 3.42705098312484235 1
  38 -1.30901699437494745 3.42705098312484235 -1
  39 -1.30901699437494745 -3.42705098312484235 1
  40 -1.30901699437494745 -3.42705098312484235 -1
  41 3.42705098312484235 1 1.30901699437494745
  42 3.42705098312484235 1 -1.30901699437494745
  43 3.42705098312484235 -1 1.30901699437494745
  44 3.42705098312484235 -1 -1.30901699437494745
  45 -3.42705098312484235 1 1.30901699437494745
  46 -3.42705098312484235 1 -1.30901699437494745
  47 -3.42705098312484235 -1 1.30901699437494745
  48 -3.42705098312484235 -1 -1.30901699437494745
  49 0.5 2.1180339887498949 3.1180339887498949
  50 0.5 2.1180339887498949 -3.1180339887498949
  51 0.5 -2.1180339887498949 3.1180339887498949
  52 0.5 -2.1180339887498949 -3.1180339887498949
  53 -0.5 2.1180339887498949 3.1180339887498949
  54 -0.5 2.1180339887498949 -3.1180339887498949
  55 -0.5 -2.1180339887498949 3.1180339887498949
  56 -0.5 -2.1180339887498949 -3.1180339887498949
  57 2.1180339887498949 3.1180339887498949 0.5
  58 2.1180339887498949 3.1180339887498949 -0.5
  59 2.1180339887498949 -3.1180339887498949 0.5
  60 2.1180339887498949 -3.1180339887498949 -0.5
  61 -2.1180339887498949 3.1180339887498949 0.5
  62 -2.1180339887498949 3.1180339887498949 -0.5
  63 -2.1180339887498949 -3.1180339887498949 0.5
  64 -2.1180339887498949 -3.1180339887498949 -0.5
  65 3.1180339887498949 0.5 2.1180339887498949
  66 3.1180339887498949 0.5 -2.1180339887498949
  67 3.1180339887498949 -0.5 2.1180339887498949
  68 3.1180339887498949 -0.5 -2.1180339887498949
  69 -3.1180339887498949 0.5 2.1180339887498949
  70 -3.1180339887498949 0.5 -2.1180339887498949
  71 -3.1180339887498949 -0.5 2.1180339887498949
  72 -3.1180339887498949 -0.5 -2.1180339887498949
  73 1.80901699437494745 1.6180339887498949 2.92705098312484235
  74 1.80901699437494745 1.6180339887498949 -2.92705098312484235
  75 1.80901699437494745 -1.6180339887498949 2.92705098312484235
  76 1.80901699437494745 -1.6180339887498949 -2.92705098312484235
  77 -1.80901699437494745 1.6180339887498949 2.92705098312484235
  78 -1.80901699437494745 1.6180339887498949 -2.92705098312484235
  79 -1.80901699437494745 -1.6180339887498949 2.92705098312484235
  80 -1.80901699437494745 -1.6180339887498949 -2.92705098312484235
  81 1.6180339887498949 2.92705098312484235 1.80901699437494745
  82 1.6180339887498949 2.92705098312484235 -1.80901699437494745
  83 1.6180339887498949 -2.92705098312484235 1.80901699437494745
  84 1.6180339887498949 -2.92705098312484235 -1.80901699437494745
  85 -1.6180339887498949 2.92705098312484235 1.80901699437494745
  86 -1.6180339887498949 2.92705098312484235 -1.80901699437494745
  87 -1.6180339887498949 -2.92705098312484235 1.80901699437494745
  88 -1.6180339887498949 -2.92705098312484235 -1.80901699437494745
  89 2.92705098312484235 1.80901699437494745 1.6180339887498949
  90 2.92705098312484235 1.80901699437494745 -1.6180339887498949
  91 2.92705098312484235 -1.80901699437494745 1.6180339887498949
  92 2.92705098312484235 -1.80901699437494745 -1.6180339887498949
  93 -2.92705098312484235 1.80901699437494745 1.6180339887498949
  94 -2.92705098312484235 1.80901699437494745 -1.6180339887498949
  95 -2.92705098312484235 -1.80901699437494745 1.6180339887498949
  96 -2.92705098312484235 -1.80901699437494745 -1.6180339887498949
  97 1.30901699437494745 2.42705098312484235 2.6180339887498949
  98 1.30901699437494745 2.42705098312484235 -2.6180339887498949
  99 1.30901699437494745 -2.42705098312484235 2.6180339887498949
 100 1.30901699437494745 -2.42705098312484235 -2.6180339887498949
 101 -1.30901699437494745 2.42705098312484235 2.6180339887498949
 102 -1.30901699437494745 2.42705098312484235 -2.6180339887498949
 103 -1.30901699437494745 -2.42705098312484235 2.6180339887498949
 104 -1.30901699437494745 -2.42705098312484235 -2.6180339887498949
 105 2.42705098312484235 2.6180339887498949 1.30901699437494745
 106 2.42705098312484235 2.6180339887498949 -1.30901699437494745
 107 2.42705098312484235 -2.6180339887498949 1.30901699437494745
 108 2.42705098312484235 -2.6180339887498949 -1.30901699437494745
 109 -2.42705098312484235 2.6180339887498949 1.30901699437494745
 110 -2.42705098312484235 2.6180339887498949 -1.30901699437494745
 111 -2.42705098312484235 -2.6180339887498949 1.30901699437494745
 112 -2.42705098312484235 -2.6180339887498949 -1.30901699437494745
 113 2.6180339887498949 1.30901699437494745 2.42705098312484235
 114 2.6180339887498949 1.30901699437494745 -2.42705098312484235
 115 2.6180339887498949 -1.30901699437494745 2.42705098312484235
 116 2.6180339887498949 -1.30901699437494745 -2.42705098312484235
 117 -2.6180339887498949 1.30901699437494745 2.42705098312484235
 118 -2.6180339887498949 1.30901699437494745 -2.42705098312484235
 119 -2.6180339887498949 -1.30901699437494745 2.42705098312484235
 120 -2.6180339887498949 -1.30901699437494745 -2.42705098312484235

# Part 2 - facet list
236 0
1 0 0
3 1 3 67
1 0 0
3 1 67 65
1 0 0
3 1 65 113
1 0 0
3 1 113 25
1 0 0
3 1 25 5
1 0 0
3 1 5 3
1 0 0
3 3 5 7
1 0 0
3 3 7 27
1 0 0
3 3 27 115
1 0 0
3 3 115 67
1 0 0
3 67 115 91
1 0 0
3 67 91 43
1 0 0
3 67 43 65
1 0 0
3 65 43 17
1 0 0
3 65 17 41
1 0 0
3 65 41 113
1 0 0
3 113 41 89
1 0 0
3 113 89 73
1 0 0
3 113 73 25
1 0 0
3 25 73 49
1 0 0
3 25 49 53
1 0 0
3 25 53 5
1 0 0
3 5 53 29
1 0 0
3 5 29 7
1 0 0
3 7 29 31
1 0 0
3 7 31 55
1 0 0
3 7 55 27
1 0 0
3 27 55 51
1 0 0
3 27 51 75
1 0 0
3 27 75 115
1 0 0
3 115 75 91
1 0 0
3 91 75 83
1 0 0
3 91 83 107
1 0 0
3 91 107 43
1 0 0
3 43 107 19
1 0 0
3 43 19 17
1 0 0
3 17 19 20
1 0 0
3 17 20 18
1 0 0
3 17 18 41
1 0 0
3 41 18 42
1 0 0
3 41 42 89
1 0 0
3 89 42 105
1 0 0
3 89 105 81
1 0 0
3 89 81 73
1 0 0
3 73 81 97
1 0 0
3 73 97 49
1 0 0
3 49 97 9
1 0 0
3 49 9 13
1 0 0
3 49 13 53
1 0 0
3 53 13 101
1 0 0
3 53 101 29
1 0 0
3 29 101 77
1 0 0
3 29 77 31
1 0 0
3 31 77 117
1 0 0
3 31 117 79
1 0 0
3 31 79 55
1 0 0
3 55 79 103
1 0 0
3 55 103 51
1 0 0
3 51 103 87
1 0 0
3 51 87 99
1 0 0
3 51 99 75
1 0 0
3 75 99 83
1 0 0
3 83 99 39
1 0 0
3 83 39 35
1 0 0
3 83 35 107
1 0 0
3 107 35 59
1 0 0
3 107 59 19
1 0 0
3 19 59 60
1 0 0
3 19 60 20
1 0 0
3 20 60 108
1 0 0
3 20 108 44
1 0 0
3 20 44 18
1 0 0
3 18 44 66
1 0 0
3 18 66 42
1 0 0
3 42 66 90
1 0 0
3 42 90 105
1 0 0
3 105 90 57
1 0 0
3 105 57 81
1 0 0
3 81 57 33
1 0 0
3 81 33 97
1 0 0
3 97 33 9
1 0 0
3 9 33 10
1 0 0
3 9 10 14
1 0 0
3 9 14 13
1 0 0
3 13 14 37
1 0 0
3 13 37 101
1 0 0
3 101 37 85
1 0 0
3 101 85 77
1 0 0
3 77 85 93
1 0 0
3 77 93 117
1 0 0
3 117 93 69
1 0 0
3 117 69 79
1 0 0
3 79 69 119
1 0 0
3 79 119 103
1 0 0
3 103 119 111
1 0 0
3 103 111 87
1 0 0
3 87 111 63
1 0 0
3 87 63 39
1 0 0
3 87 39 99
1 0 0
3 39 63 15
1 0 0
3 39 15 35
1 0 0
3 35 15 11
1 0 0
3 35 11 59
1 0 0
3 59 11 36
1 0 0
3 59 36 60
1 0 0
3 60 36 84
1 0 0
3 60 84 108
1 0 0
3 108 84 92
1 0 0
3 108 92 44
1 0 0
3 44 92 68
1 0 0
3 44 68 66
1 0 0
3 66 68 114
1 0 0
3 66 114 90
1 0 0
3 90 114 106
1 0 0
3 90 106 57
1 0 0
3 57 106 58
1 0 0
3 57 58 33
1 0 0
3 33 58 10
1 0 0
3 10 58 34
1 0 0
3 10 34 38
1 0 0
3 10 38 14
1 0 0
3 14 38 62
1 0 0
3 14 62 37
1 0 0
3 37 62 61
1 0 0
3 37 61 85
1 0 0
3 85 61 109
1 0 0
3 85 109 93
1 0 0
3 93 109 45
1 0 0
3 93 45 69
1 0 0
3 69 45 71
1 0 0
3 69 71 119
1 0 0
3 119 71 95
1 0 0
3 119 95 111
1 0 0
3 111 95 64
1 0 0
3 111 64 63
1 0 0
3 63 64 40
1 0 0
3 63 40 15
1 0 0
3 15 40 16
1 0 0
3 15 16 11
1 0 0
3 11 16 12
1 0 0
3 11 12 36
1 0 0
3 36 12 100
1 0 0
3 36 100 84
1 0 0
3 84 100 76
1 0 0
3 84 76 92
1 0 0
3 92 76 116
1 0 0
3 92 116 68
1 0 0
3 68 116 74
1 0 0
3 68 74 114
1 0 0
3 114 74 98
1 0 0
3 114 98 106
1 0 0
3 106 98 82
1 0 0
3 106 82 58
1 0 0
3 58 82 34
1 0 0
3 34 82 102
1 0 0
3 34 102 86
1 0 0
3 34 86 38
1 0 0
3 38 86 110
1 0 0
3 38 110 62
1 0 0
3 62 110 22
1 0 0
3 62 22 61
1 0 0
3 61 22 21
1 0 0
3 61 21 109
1 0 0
3 109 21 45
1 0 0
3 45 21 23
1 0 0
3 45 23 71
1 0 0
3 71 23 47
1 0 0
3 71 47 95
1 0 0
3 95 47 112
1 0 0
3 95 112 64
1 0 0
3 64 112 88
1 0 0
3 64 88 40
1 0 0
3 40 88 104
1 0 0
3 40 104 16
1 0 0
3 16 104 56
1 0 0
3 16 56 12
1 0 0
3 12 56 52
1 0 0
3 12 52 100
1 0 0
3 100 52 28
1 0 0
3 100 28 76
1 0 0
3 76 28 26
1 0 0
3 76 26 116
1 0 0
3 116 26 74
1 0 0
3 74 26 50
1 0 0
3 74 50 98
1 0 0
3 98 50 54
1 0 0
3 98 54 82
1 0 0
3 82 54 102
1 0 0
3 102 54 78
1 0 0
3 102 78 86
1 0 0
3 86 78 94
1 0 0
3 86 94 110
1 0 0
3 110 94 46
1 0 0
3 110 46 22
1 0 0
3 22 46 24
1 0 0
3 22 24 21
1 0 0
3 21 24 23
1 0 0
3 23 24 48
1 0 0
3 23 48 47
1 0 0
3 47 48 96
1 0 0
3 47 96 112
1 0 0
3 112 96 88
1 0 0
3 88 96 80
1 0 0
3 88 80 104
1 0 0
3 104 80 56
1 0 0
3 56 80 32
1 0 0
3 56 32 52
1 0 0
3 52 32 4
1 0 0
3 52 4 28
1 0 0
3 28 4 2
1 0 0
3 28 2 26
1 0 0
3 26 2 50
1 0 0
3 50 2 30
1 0 0
3 50 30 54
1 0 0
3 54 30 78
1 0 0
3 78 30 118
1 0 0
3 78 118 94
1 0 0
3 94 118 70
1 0 0
3 94 70 46
1 0 0
3 46 70 72
1 0 0
3 46 72 24
1 0 0
3 24 72 48
1 0 0
3 48 72 120
1 0 0
3 48 120 96
1 0 0
3 96 120 80
1 0 0
3 80 120 32
1 0 0
3 32 120 8
1 0 0
3 32 8 4
1 0 0
3 4 8 6
1 0 0
3 4 6 2
1 0 0
3 2 6 30
1 0 0
3 30 6 118
1 0 0
3 118 6 70
1 0 0
3 70 6 8
1 0 0
3 70 8 72
1 0 0
3 72 8 120

# Part 3 - hole list
0

# Part 4 - region list
0
